<?xml version="1.0" standalone="no"?>
<!DOCTYPE svg PUBLIC "-//W3C//DTD SVG 1.1//EN" "http://www.w3.org/Graphics/SVG/1.1/DTD/svg11.dtd" >
<svg xmlns="http://www.w3.org/2000/svg" xmlns:xlink="http://www.w3.org/1999/xlink" version="1.1">
<metadata>
Created by FontForge 20170731 at Wed Jan 18 12:35:39 2023
 By Aleksey,,,
Copyright (c) 2016 by Fontfabric LLC. All rights reserved.
</metadata>
<defs>
<font id="Phenomena-Bold" horiz-adv-x="0" >
  <font-face 
    font-family="Phenomena Bold"
    font-weight="700"
    font-stretch="normal"
    units-per-em="2048"
    panose-1="0 0 8 0 0 0 0 0 0 0"
    ascent="1638"
    descent="-410"
    x-height="1024"
    cap-height="1434"
    bbox="-923.455 -520 1679 1954"
    underline-thickness="102"
    underline-position="-307"
    unicode-range="U+0020-25CA"
  />
<missing-glyph horiz-adv-x="1024" 
d="M840 1638v-2048h-650v2048h650zM682 1501h-338v-67h133v-76h-135v-68h340v68h-135v76h135v67zM547 1237h-205v-213h340v70h-135v143zM477 1167v-73h-67v73h67zM682 969h-340v-68h135v-76h-135v-67h205v143h135v68zM682 846h-68v-135h-272v-70h340v205zM682 596h-205v-115
h70v47h67v-96h-204v164h-68v-231h340v231zM682 242h-340v-232h340v232zM614 174v-96h-204v96h204zM682 -37h-340v-67h143l-143 -97v-67h340v67h-209l143 97h66v67z" />
    <glyph glyph-name=".notdef" horiz-adv-x="1024" 
d="M840 1638v-2048h-650v2048h650zM682 1501h-338v-67h133v-76h-135v-68h340v68h-135v76h135v67zM547 1237h-205v-213h340v70h-135v143zM477 1167v-73h-67v73h67zM682 969h-340v-68h135v-76h-135v-67h205v143h135v68zM682 846h-68v-135h-272v-70h340v205zM682 596h-205v-115
h70v47h67v-96h-204v164h-68v-231h340v231zM682 242h-340v-232h340v232zM614 174v-96h-204v96h204zM682 -37h-340v-67h143l-143 -97v-67h340v67h-209l143 97h66v67z" />
    <glyph glyph-name=".null" 
 />
    <glyph glyph-name="nonmarkingreturn" horiz-adv-x="682" 
 />
    <glyph glyph-name="space" unicode=" " horiz-adv-x="446" 
 />
    <glyph glyph-name="exclam" unicode="!" horiz-adv-x="471" 
d="M174 307q-29 0 -29 29v1071q0 27 29 27h123q12 0 19.5 -7.5t7.5 -19.5v-1071q0 -29 -27 -29h-123zM236 -23q-49 0 -81 32.5t-32 80.5q0 50 31.5 81.5t81.5 31.5q48 0 80 -32t32 -81q0 -47 -32.5 -80t-79.5 -33z" />
    <glyph glyph-name="quotedbl" unicode="&#x22;" horiz-adv-x="499" 
d="M51 1407q0 27 29 27h113q13 0 20.5 -8.5t5.5 -22.5l-67 -348q-3 -25 -29 -25h-66q-26 0 -26 29zM285 1407q0 27 28 27h113q13 0 21 -8.5t6 -22.5l-68 -348q-3 -25 -29 -25h-65q-27 0 -27 29z" />
    <glyph glyph-name="numbersign" unicode="#" horiz-adv-x="1206" 
d="M188 0q-31 0 -24 31l76 336h-183q-30 0 -24 28l18 82q7 25 31 25h188l92 401h-182q-30 0 -26 29l20 82q7 24 31 24h188l86 371q4 25 31 25h104q13 0 19.5 -8.5t3.5 -22.5l-82 -365h248l84 371q7 25 31 25h106q28 0 25 -31l-84 -365h184q14 0 21 -8.5t4 -21.5l-19 -82
q-7 -23 -31 -23h-190l-92 -401h186q14 0 20.5 -9t2.5 -22l-19 -82q-6 -22 -31 -22h-190l-78 -342q-7 -25 -31 -25h-106q-13 0 -19.5 8.5t-3.5 22.5l76 336h-248l-77 -342q-7 -25 -31 -25h-105zM432 502h248l92 401h-248z" />
    <glyph glyph-name="dollar" unicode="$" horiz-adv-x="835" 
d="M774 322q0 -140 -78 -229.5t-211 -108.5v-131q0 -27 -26 -27h-92q-12 0 -19.5 7.5t-7.5 19.5v135q-125 23 -198.5 116t-80.5 238q0 29 29 29h129q26 0 29 -27q4 -92 50 -142t124 -50t122 45t44 125q0 64 -28.5 123t-73.5 107t-100 96t-110 98.5t-100 104.5t-73.5 125.5
t-28.5 151.5q0 130 71.5 215t194.5 107v131q0 12 7.5 19.5t19.5 7.5h92q26 0 26 -27v-133q120 -21 191.5 -111.5t77.5 -238.5q3 -29 -27 -29h-129q-27 0 -27 29q-9 186 -157 186q-72 0 -114 -41.5t-42 -114.5q0 -59 28.5 -114.5t74 -101t100.5 -92.5t110 -98.5t100.5 -107.5
t74 -131.5t28.5 -160.5z" />
    <glyph glyph-name="percent" unicode="%" horiz-adv-x="1183" 
d="M229 801q-81 0 -133.5 51.5t-52.5 128.5v289q0 79 52.5 131.5t133.5 52.5q78 0 130.5 -53t52.5 -131v-289q0 -77 -52.5 -128.5t-130.5 -51.5zM70 -8q-15 0 -23.5 10.5t-1.5 20.5l952 1396q19 23 33 23h84q16 0 25 -10.5t0 -20.5l-953 -1397q-15 -22 -32 -22h-84zM229 911
q28 0 45 19.5t17 50.5v291q0 32 -17 51.5t-45 19.5q-29 0 -46 -19.5t-17 -51.5v-291q0 -31 17 -50.5t46 -19.5zM958 -18q-81 0 -133.5 51.5t-52.5 128.5v289q0 79 52.5 131.5t133.5 52.5q78 0 130.5 -53t52.5 -131v-289q0 -77 -52.5 -128.5t-130.5 -51.5zM958 92q26 0 44 20
t18 50v291q0 32 -17.5 51.5t-44.5 19.5q-29 0 -46 -19.5t-17 -51.5v-291q0 -31 17 -50.5t46 -19.5z" />
    <glyph glyph-name="ampersand" unicode="&#x26;" horiz-adv-x="925" 
d="M428 -8q-147 0 -243.5 95.5t-96.5 238.5v155q0 84 35.5 152t95.5 106q-61 44 -96 115t-35 150v75q0 163 90 270t250 107q162 0 251.5 -108.5t94.5 -284.5q0 -27 -26 -27h-125q-29 0 -29 27q-7 223 -168 223q-83 0 -120.5 -54t-37.5 -140v-113q0 -68 46 -115t116 -47h406
q28 0 28 -26v-107q0 -27 -28 -27h-78v-581q0 -40 -22 -62t-62 -22h-246zM428 164h152v493h-150q-70 0 -115 -44t-45 -119v-164q0 -74 44 -120t114 -46z" />
    <glyph glyph-name="quotesingle" unicode="'" horiz-adv-x="256" 
d="M53 1407q0 27 29 27h113q29 0 26 -31l-67 -348q-3 -25 -29 -25h-66q-26 0 -26 27z" />
    <glyph glyph-name="parenleft" unicode="(" horiz-adv-x="503" 
d="M440 -248q-150 5 -239.5 105t-89.5 264v1190q0 164 89.5 263.5t239.5 104.5q27 0 27 -26v-113q0 -28 -27 -31q-68 -3 -109.5 -53t-41.5 -131v-1219q0 -81 41.5 -131t109.5 -55q27 -3 27 -29v-112q0 -12 -7.5 -19.5t-19.5 -7.5z" />
    <glyph glyph-name="parenright" unicode=")" horiz-adv-x="505" 
d="M66 -248q-12 0 -19.5 7.5t-7.5 19.5v112q0 26 27 29q68 5 109.5 55t41.5 131v1219q0 81 -41.5 131t-109.5 53q-27 3 -27 31v113q0 26 27 26q150 -5 239.5 -104.5t89.5 -263.5v-1190q0 -164 -89.5 -264t-239.5 -105z" />
    <glyph glyph-name="asterisk" unicode="*" horiz-adv-x="657" 
d="M201 1014l-56 37q-22 16 -6 39l84 116l-135 45q-23 9 -18 33l20 64q9 28 35 18l137 -45v145q0 12 7.5 19.5t19.5 7.5h67q12 0 19.5 -7.5t7.5 -19.5v-145l137 45q26 9 35 -18l20 -62q8 -25 -18 -35l-137 -43l84 -118q19 -22 -4 -39l-56 -39q-21 -18 -36 6l-86 117
l-84 -117q-17 -24 -37 -4z" />
    <glyph glyph-name="plus" unicode="+" horiz-adv-x="956" 
d="M842 817q26 0 26 -29v-104q0 -29 -26 -29h-283v-288q0 -12 -7.5 -19.5t-19.5 -7.5h-106q-29 0 -29 27v288h-280q-29 0 -29 29v104q0 29 29 29h280v289q0 26 29 29l104 -2q29 3 29 -27v-289h283z" />
    <glyph glyph-name="comma" unicode="," horiz-adv-x="241" 
d="M47 158q0 26 29 26h112q14 0 21 -8.5t6 -21.5l-68 -349q-3 -24 -28 -24h-66q-26 0 -26 29z" />
    <glyph glyph-name="hyphen" unicode="-" horiz-adv-x="571" 
d="M57 449q-26 0 -26 26v103q0 12 7 20t19 8h457q13 0 21 -8t8 -20v-103q0 -26 -29 -26h-457z" />
    <glyph glyph-name="period" unicode="." horiz-adv-x="284" 
d="M141 -20q-49 0 -81.5 32t-32.5 82q0 51 32 83t82 32t83.5 -32.5t33.5 -82.5q0 -49 -33.5 -81.5t-83.5 -32.5z" />
    <glyph glyph-name="slash" unicode="/" horiz-adv-x="739" 
d="M551 1413q9 21 29 21h114q13 0 19.5 -8.5t1.5 -20.5l-527 -1387q-8 -18 -28 -18h-115q-13 0 -19 8.5t-1 20.5z" />
    <glyph glyph-name="zero" unicode="0" horiz-adv-x="843" 
d="M422 -23q-143 0 -236.5 98t-93.5 249v786q0 150 93.5 248t236.5 98q142 0 236 -98t94 -248v-786q0 -150 -94 -248.5t-236 -98.5zM274 383l263 840q-40 63 -115 63q-65 0 -107.5 -46t-42.5 -116v-708q0 -23 2 -33zM422 147q65 0 107 46t42 116v709q0 23 -2 35l-262 -840
q40 -66 115 -66z" />
    <glyph glyph-name="one" unicode="1" horiz-adv-x="503" 
d="M270 1434q54 0 82.5 -28t28.5 -81v-1296q0 -29 -29 -29h-125q-26 0 -26 29v1237h-148q-26 0 -26 28v113q0 27 26 27h217z" />
    <glyph glyph-name="two" unicode="2" horiz-adv-x="774" 
d="M711 1128q0 -83 -26 -161t-67 -141.5t-90.5 -125.5t-99.5 -123t-91 -122.5t-67 -135.5t-26 -151h442q27 0 27 -29v-110q0 -29 -27 -29h-541q-40 0 -62 22t-22 62v43q0 104 26.5 199t68 168t92.5 140.5t102 127t92.5 116t68 120t26.5 126.5q0 72 -37.5 119t-106.5 47
t-108.5 -49.5t-42.5 -142.5q-3 -29 -29 -29h-115q-26 0 -26 29q8 164 93.5 261t227.5 97q146 0 232 -94t86 -234z" />
    <glyph glyph-name="three" unicode="3" horiz-adv-x="806" 
d="M395 -23q-144 0 -234 99.5t-93 269.5q0 27 26 27h125q29 0 29 -27q6 -199 147 -199q69 0 108.5 49t39.5 134v231q0 88 -45.5 138.5t-122.5 50.5h-86q-33 0 -33 32v41q0 35 14 60l219 389h-370q-29 0 -29 28v111q0 27 29 27h547q45 0 45 -43v-17q0 -20 -13 -49l-227 -430
l4 -6q120 -22 184 -116t64 -226v-213q0 -161 -91 -261t-237 -100z" />
    <glyph glyph-name="four" unicode="4" horiz-adv-x="837" 
d="M766 559q29 0 29 -29v-112q0 -27 -29 -27h-86v-362q0 -29 -27 -29h-125q-26 0 -26 29v362h-410q-57 0 -57 55v54q0 38 12 88l248 823q10 23 33 23h125q14 0 20 -9t2 -22l-250 -844h279l10 467q3 27 29 27h110q27 0 27 -29v-465h86z" />
    <glyph glyph-name="five" unicode="5" horiz-adv-x="819" 
d="M434 973q132 0 219.5 -98t87.5 -250v-285q0 -163 -90.5 -263t-240.5 -100q-147 0 -236 99t-92 270q0 12 7.5 19.5t19.5 7.5h122q29 0 29 -27q6 -199 150 -199q73 0 112 49t39 136v301q0 78 -41 125t-110 47q-58 0 -95 -36t-43 -101q-3 -41 -43 -41h-90q-47 0 -47 49v682
q0 40 21 62t61 22h514q29 0 29 -29v-104q0 -29 -29 -29h-420v-369q72 62 166 62z" />
    <glyph glyph-name="six" unicode="6" horiz-adv-x="833" 
d="M422 -23q-142 0 -236 98.5t-94 248.5v780q0 155 91.5 253.5t236.5 98.5q142 0 233.5 -95t94.5 -249q0 -29 -27 -29h-125q-12 0 -20.5 8t-8.5 21q-3 84 -42.5 129t-104.5 45q-66 0 -107 -47.5t-41 -126.5v-240q68 68 177 68q127 0 215 -96t88 -238v-282q0 -150 -94 -248.5
t-236 -98.5zM422 147q65 0 107 47t42 121v287q0 76 -42 123t-107 47q-66 0 -108 -46t-42 -124v-287q0 -76 42.5 -122t107.5 -46z" />
    <glyph glyph-name="seven" unicode="7" horiz-adv-x="694" 
d="M27 1407q0 27 26 27h527q61 0 61 -58q0 -52 -10 -96l-299 -1255q-6 -25 -31 -25h-129q-15 0 -21.5 8.5t-3.5 22.5l297 1231h-391q-26 0 -26 28v117z" />
    <glyph glyph-name="eight" unicode="8" horiz-adv-x="851" 
d="M623 745q143 -91 143 -274v-149q0 -149 -97.5 -247t-242.5 -98q-146 0 -243 98t-97 247v149q0 183 143 274q-58 45 -90.5 112t-32.5 144v123q0 143 89.5 237.5t230.5 94.5t229 -94.5t88 -237.5v-123q0 -77 -32 -144t-88 -112zM287 1130v-149q0 -70 39 -116t100 -46t99 46
t38 116v149q0 68 -37 112t-100 44t-101 -44t-38 -112zM586 317v168q0 77 -45.5 123.5t-114.5 46.5t-114.5 -46.5t-45.5 -123.5v-168q0 -74 46 -122t114 -48t114 48t46 122z" />
    <glyph glyph-name="nine" unicode="9" horiz-adv-x="835" 
d="M414 1456q142 0 235.5 -98t93.5 -248v-780q0 -155 -91 -254t-236 -99q-142 0 -233.5 95.5t-94.5 249.5q0 28 27 28h125q28 0 28 -28q3 -84 43 -129.5t105 -45.5q66 0 106.5 48t40.5 127v239q-67 -67 -176 -67q-127 0 -215 95.5t-88 237.5v283q0 150 94 248t236 98z
M414 1286q-65 0 -107.5 -47t-42.5 -121v-287q0 -76 42.5 -122.5t107.5 -46.5q66 0 107.5 45.5t41.5 123.5v287q0 76 -42 122t-107 46z" />
    <glyph glyph-name="colon" unicode=":" horiz-adv-x="329" 
d="M137 684q-49 0 -81.5 32.5t-32.5 82.5q0 51 32 82.5t82 31.5t83.5 -32t33.5 -82q0 -49 -33.5 -82t-83.5 -33zM137 -20q-49 0 -81.5 32t-32.5 82q0 51 32 83t82 32t83.5 -32.5t33.5 -82.5q0 -49 -33.5 -81.5t-83.5 -32.5z" />
    <glyph glyph-name="semicolon" unicode=";" horiz-adv-x="311" 
d="M162 686q-50 0 -82.5 33t-32.5 82q0 51 32.5 82.5t82.5 31.5t83.5 -32t33.5 -82q0 -49 -33.5 -82t-83.5 -33zM82 158q0 26 29 26h112q14 0 21 -8.5t6 -21.5l-68 -349q-3 -24 -28 -24h-66q-27 0 -27 29z" />
    <glyph glyph-name="less" unicode="&#x3c;" horiz-adv-x="849" 
d="M760 963q0 -15 -15 -23l-401 -207l404 -207q12 -6 12 -22v-107q0 -20 -15 -29.5t-32 -0.5l-512 270q-15 7 -15 22v148q0 15 15 22l512 271q17 9 32 -1t15 -30v-106z" />
    <glyph glyph-name="equal" unicode="=" horiz-adv-x="856" 
d="M66 791q-29 0 -29 26v107q0 28 29 28h725q26 0 26 -28v-107q0 -26 -26 -26h-725zM66 459q-29 0 -29 26v107q0 29 29 29h725q26 0 26 -29v-107q0 -26 -26 -26h-725z" />
    <glyph glyph-name="greater" unicode="&#x3e;" horiz-adv-x="684" 
d="M614 829q15 -7 15 -22v-148q0 -15 -15 -22l-512 -270q-17 -9 -32 0.5t-15 29.5v107q0 16 13 22l403 207l-401 207q-15 8 -15 23v106q0 20 15 30t32 1z" />
    <glyph glyph-name="question" unicode="?" horiz-adv-x="688" 
d="M252 313q-27 0 -27 29v90q0 84 20 155t50 117t65.5 93.5t65.5 86.5t50 94.5t20 119.5q0 86 -43 139t-117 53q-71 0 -114.5 -52t-47.5 -148q0 -12 -8.5 -19.5t-20.5 -7.5h-118q-27 0 -27 29q7 164 99 263t233 99q151 0 245.5 -97t94.5 -251q0 -96 -28 -174t-68 -131
t-79.5 -104.5t-67.5 -120.5t-28 -152v-82q0 -29 -28 -29h-121zM315 -23q-49 0 -80.5 32.5t-31.5 80.5q0 50 31.5 81.5t80.5 31.5t81 -31.5t32 -81.5q0 -48 -32 -80.5t-81 -32.5z" />
    <glyph glyph-name="at" unicode="@" horiz-adv-x="1304" 
d="M551 -205q-220 0 -345.5 128t-125.5 347v357q0 217 126 347t345 130h86q140 0 220.5 -80t80.5 -213v-420q0 -110 -77 -179t-206 -69q-140 0 -220.5 76.5t-80.5 212.5q1 140 78 219.5t207 79.5h143v80q0 68 -39.5 109t-105.5 41h-82q-158 0 -241 -88.5t-83 -247.5v-355
q0 -160 82.5 -244.5t241.5 -84.5h197q155 0 238 85.5t83 243.5v699q0 157 -82.5 242t-234.5 85h-394q-26 0 -26 29v88q0 29 26 29h394q216 0 342.5 -128t126.5 -345v-699q0 -219 -126.5 -347t-342.5 -128h-205zM655 287q58 0 92.5 33.5t34.5 87.5v167h-133q-62 0 -99 -37.5
t-38 -105.5q0 -67 38.5 -106t104.5 -39z" />
    <glyph glyph-name="A" unicode="A" horiz-adv-x="923" 
d="M137 0q-26 0 -26 29v1048q0 169 96 273t254 104t255 -104t97 -273v-1048q0 -29 -29 -29h-129q-12 0 -20 8t-8 21v454h-332v-454q0 -29 -27 -29h-131zM295 653h332v432q0 93 -43.5 144t-122.5 51q-78 0 -122 -51.5t-44 -143.5v-432z" />
    <glyph glyph-name="B" unicode="B" horiz-adv-x="876" 
d="M647 737q77 -39 121.5 -113.5t44.5 -170.5v-95q0 -165 -96 -264.5t-252 -99.5h-272q-35 0 -58.5 23.5t-23.5 60.5v1016q0 163 91 261.5t240 98.5q154 0 247 -98.5t93 -261.5v-90q0 -90 -36 -161t-99 -106zM295 1104v-295h147q72 0 114 48t42 132v115q0 83 -41.5 130.5
t-114.5 47.5q-69 0 -108 -47.5t-39 -130.5zM625 348v107q0 88 -43 137t-121 49h-166v-477h166q78 0 121 48.5t43 135.5z" />
    <glyph glyph-name="C" unicode="C" horiz-adv-x="839" 
d="M438 -23q-157 0 -253.5 101.5t-96.5 267.5v741q0 166 96.5 267.5t253.5 101.5q151 0 245.5 -107t98.5 -286q0 -27 -26 -27h-131q-27 0 -27 27q-3 105 -46.5 162t-115.5 57q-76 0 -119 -49t-43 -135v-762q0 -86 43 -135t119 -49q79 0 124 60.5t48 172.5q0 27 27 27h131
q27 0 27 -29q-6 -186 -102 -296t-253 -110z" />
    <glyph glyph-name="D" unicode="D" horiz-adv-x="911" 
d="M207 -6q-40 0 -62 21t-22 61v1282q0 40 22 61t62 21h264q159 0 254.5 -103.5t95.5 -267.5v-704q0 -163 -96 -267t-254 -104h-264zM309 166h156q79 0 124.5 53t45.5 141v713q0 89 -44.5 142t-125.5 53h-156v-1102z" />
    <glyph glyph-name="E" unicode="E" horiz-adv-x="739" 
d="M438 -6q-154 0 -252 103.5t-98 262.5v713q0 159 98 263t252 104h215q12 0 19.5 -7.5t7.5 -19.5v-117q0 -28 -27 -28h-200q-79 0 -129 -55.5t-50 -143.5v-260h328q29 0 29 -29v-110q0 -29 -29 -29h-328v-276q0 -88 50 -143.5t129 -55.5h200q27 0 27 -29v-117
q0 -26 -27 -26h-215z" />
    <glyph glyph-name="F" unicode="F" horiz-adv-x="702" 
d="M137 0q-26 0 -26 29v1038q0 160 97 263.5t251 103.5h180q29 0 29 -27v-117q0 -28 -29 -28h-166q-79 0 -128.5 -55.5t-49.5 -143.5v-266h305q12 0 19.5 -7.5t7.5 -19.5v-117q0 -26 -27 -26h-305v-598q0 -29 -27 -29h-131z" />
    <glyph glyph-name="G" unicode="G" horiz-adv-x="876" 
d="M449 -23q-160 0 -260.5 106t-100.5 273v723q0 168 97.5 272.5t256.5 104.5q153 0 250.5 -104t102.5 -269q0 -28 -27 -28h-131q-26 0 -29 28q-4 94 -48 146.5t-118 52.5q-78 0 -123 -53t-45 -144v-737q0 -90 49 -143t128 -53q76 0 125 51t49 131v278h-142q-28 0 -28 27
v109q0 28 28 28h242q40 0 62 -22t22 -62v-348q0 -159 -100.5 -263t-259.5 -104z" />
    <glyph glyph-name="H" unicode="H" horiz-adv-x="929" 
d="M623 1407q0 27 28 27h129q12 0 19.5 -7.5t7.5 -19.5v-1378q0 -29 -27 -29h-129q-28 0 -28 29v612h-316v-612q0 -29 -26 -29h-129q-29 0 -29 29v1378q0 27 29 27h129q26 0 26 -27v-596h316v596z" />
    <glyph glyph-name="I" unicode="I" horiz-adv-x="432" 
d="M123 1407q0 27 29 27h129q26 0 26 -27v-1378q0 -29 -26 -29h-129q-29 0 -29 29v1378z" />
    <glyph glyph-name="J" unicode="J" horiz-adv-x="831" 
d="M373 -23q-156 0 -248.5 111t-97.5 295q0 29 26 29h131q27 0 27 -27q5 -109 48 -171t118 -62q76 0 118 53.5t42 150.5v1051q0 27 28 27h129q29 0 29 -27v-1038q0 -181 -91 -286.5t-259 -105.5z" />
    <glyph glyph-name="K" unicode="K" horiz-adv-x="913" 
d="M152 0q-29 0 -29 29v1378q0 27 29 27h129q26 0 26 -27v-600h164l168 604q7 23 31 23h129q31 0 24 -31l-188 -643q87 -39 133.5 -125.5t46.5 -204.5v-401q0 -29 -29 -29h-129q-28 0 -28 29v405q0 93 -45.5 147t-126.5 54h-150v-606q0 -29 -26 -29h-129z" />
    <glyph glyph-name="L" unicode="L" horiz-adv-x="708" 
d="M459 166h196q29 0 29 -29v-117q0 -26 -29 -26h-206q-154 0 -246 101.5t-92 258.5v1053q0 27 26 27h131q29 0 29 -27v-1047q0 -87 45.5 -140.5t116.5 -53.5z" />
    <glyph glyph-name="M" unicode="M" horiz-adv-x="1370" 
d="M928 1456q153 0 243.5 -103.5t90.5 -277.5v-1046q0 -29 -29 -29h-129q-27 0 -27 29v1054q0 95 -38.5 147t-110.5 52q-70 0 -111 -52.5t-41 -146.5v-1054q0 -29 -26 -29h-129q-27 0 -27 29v1054q0 93 -41.5 146t-108.5 53q-74 0 -112.5 -51.5t-38.5 -147.5v-1054
q0 -29 -27 -29h-129q-26 0 -26 29v1046q0 174 89.5 277.5t243.5 103.5q149 0 242 -129q93 129 242 129z" />
    <glyph glyph-name="N" unicode="N" horiz-adv-x="923" 
d="M137 0q-26 0 -26 29v1050q0 167 96 272t254 105q159 0 255.5 -105t96.5 -272v-1050q0 -29 -29 -29h-129q-12 0 -20 8t-8 21v1058q0 88 -45 141.5t-121 53.5t-121 -53.5t-45 -141.5v-1058q0 -29 -27 -29h-131z" />
    <glyph glyph-name="O" unicode="O" horiz-adv-x="899" 
d="M451 -20q-160 0 -261.5 107t-101.5 278v704q0 171 101.5 278t261.5 107q159 0 259.5 -104.5t100.5 -266.5v-733q0 -162 -100.5 -266t-259.5 -104zM451 152q78 0 126 52.5t48 137.5v750q0 85 -48 137.5t-126 52.5q-79 0 -128 -55.5t-49 -149.5v-721q0 -94 49 -149t128 -55
z" />
    <glyph glyph-name="P" unicode="P" horiz-adv-x="860" 
d="M137 0q-26 0 -26 29v1048q0 169 93.5 274t250.5 105q159 0 255.5 -105.5t96.5 -273.5v-209q0 -158 -95.5 -255t-254.5 -97h-162v-487q0 -29 -27 -29h-131zM295 688h156q80 0 125 46.5t45 129.5v221q0 89 -44.5 143t-119.5 54t-118.5 -53.5t-43.5 -143.5v-397z" />
    <glyph glyph-name="Q" unicode="Q" horiz-adv-x="921" 
d="M823 49q19 -23 0 -39l-63 -63q-20 -19 -39 0l-80 82q-82 -49 -190 -49q-159 0 -261 104t-102 266v733q0 162 102 266.5t261 104.5q160 0 261 -104.5t101 -266.5v-733q0 -129 -65 -223zM451 152q25 0 57 8l-57 59q-9 9 -9 20t9 19l65 64q8 9 19 9t20 -9l57 -60
q15 38 15 80v750q0 85 -49 137.5t-127 52.5t-126.5 -52.5t-48.5 -137.5v-750q0 -85 48.5 -137.5t126.5 -52.5z" />
    <glyph glyph-name="R" unicode="R" horiz-adv-x="909" 
d="M137 0q-26 0 -26 29v1048q0 168 96.5 273.5t251.5 105.5q158 0 256 -105.5t98 -273.5v-164q0 -114 -49.5 -199t-132.5 -130l219 -553q4 -13 -4.5 -22t-22.5 -9h-139q-23 0 -29 25l-194 516h-166v-512q0 -29 -27 -29h-131zM295 711h158q80 0 127 53.5t47 144.5v176
q0 89 -46 143t-120 54t-120 -54t-46 -143v-374z" />
    <glyph glyph-name="S" unicode="S" horiz-adv-x="835" 
d="M420 -23q-159 0 -256 110t-103 296q0 29 29 29h129q26 0 29 -27q6 -233 174 -233q82 0 124 43.5t42 126.5q0 64 -28.5 123t-73.5 107t-100 96t-110 98.5t-100 104.5t-73.5 125.5t-28.5 151.5q0 150 92.5 239t245.5 89q151 0 243.5 -106.5t98.5 -286.5q0 -27 -27 -27h-129
q-12 0 -19.5 7.5t-7.5 19.5q-9 221 -157 221q-75 0 -115.5 -40t-40.5 -116q0 -59 28.5 -114.5t74 -101t100.5 -92.5t110 -98.5t100.5 -107.5t74 -131.5t28.5 -160.5q0 -158 -97 -251.5t-257 -93.5z" />
    <glyph glyph-name="T" unicode="T" horiz-adv-x="735" 
d="M682 1434q29 0 29 -27v-117q0 -28 -29 -28h-221v-1233q0 -29 -29 -29h-129q-27 0 -27 29v1233h-223q-26 0 -26 28v117q0 27 26 27h629z" />
    <glyph glyph-name="U" unicode="U" horiz-adv-x="923" 
d="M137 1434h131q27 0 27 -29v-1059q0 -88 45 -141t121 -53t121 53t45 141v1059q0 13 8 21t20 8h129q29 0 29 -29v-1051q0 -167 -96.5 -272t-255.5 -105q-158 0 -254 105t-96 272v1051q0 29 26 29z" />
    <glyph glyph-name="V" unicode="V" horiz-adv-x="813" 
d="M770 1434q13 0 20.5 -8.5t4.5 -20.5l-244 -1337q-12 -76 -88 -76h-113q-76 0 -88 76l-244 1337q-2 12 5 20.5t20 8.5h133q28 0 31 -25l201 -1200l200 1200q3 25 29 25h133z" />
    <glyph glyph-name="W" unicode="W" horiz-adv-x="1370" 
d="M1233 1434q29 0 29 -27v-1049q0 -174 -90 -277.5t-244 -103.5q-82 0 -139.5 33.5t-104.5 95.5q-93 -129 -240 -129q-154 0 -243.5 103.5t-89.5 277.5v1049q0 27 26 27h129q12 0 19.5 -7.5t7.5 -19.5v-1057q0 -96 39 -147t112 -51q69 0 109.5 52t40.5 146v1057
q0 12 7.5 19.5t19.5 7.5h129q26 0 26 -27v-1057q0 -93 42 -145.5t110 -52.5q73 0 111 51t38 147v1057q0 12 7.5 19.5t19.5 7.5h129z" />
    <glyph glyph-name="X" unicode="X" horiz-adv-x="872" 
d="M784 1008q0 -186 -143 -281q143 -98 143 -283v-415q0 -29 -28 -29h-129q-29 0 -29 29v424q0 82 -45 134t-117 52t-117 -52t-45 -134v-424q0 -29 -28 -29h-129q-29 0 -29 29v415q0 185 143 283q-143 95 -143 281v399q0 27 29 27h129q28 0 28 -27v-408q0 -82 45 -135
t117 -53t117 53t45 135v408q0 27 29 27h129q28 0 28 -27v-399z" />
    <glyph glyph-name="Y" unicode="Y" horiz-adv-x="851" 
d="M362 0q-28 0 -28 29v440q-116 28 -186 124.5t-70 229.5v584q0 27 28 27h130q12 0 20 -7.5t8 -19.5v-592q0 -81 44.5 -133.5t117.5 -52.5t118.5 53t45.5 133v592q0 27 26 27h129q29 0 29 -27v-584q0 -134 -69.5 -230t-186.5 -124v-440q0 -29 -26 -29h-130z" />
    <glyph glyph-name="Z" unicode="Z" horiz-adv-x="821" 
d="M252 172h479q27 0 27 -29v-114q0 -29 -27 -29h-577q-43 0 -67 23.5t-24 64.5v39q0 64 23 111l477 1024h-428q-26 0 -26 28v117q0 27 26 27h527q87 0 90 -86v-39q3 -66 -19 -111z" />
    <glyph glyph-name="bracketleft" unicode="[" horiz-adv-x="534" 
d="M477 1540q0 -29 -28 -29h-156v-1589h156q28 0 28 -28v-113q0 -27 -28 -27h-252q-40 0 -62 21t-22 61v1761q0 40 22 61t62 21h252q28 0 28 -26v-113z" />
    <glyph glyph-name="backslash" unicode="\" horiz-adv-x="739" 
d="M158 1434q21 0 30 -23l525 -1378q5 -15 -1.5 -24t-21.5 -9h-108q-22 0 -31 23l-524 1378q-10 33 22 33h109z" />
    <glyph glyph-name="bracketright" unicode="]" horiz-adv-x="528" 
d="M51 1540v113q0 26 29 26h252q40 0 62 -21t22 -61v-1761q0 -40 -22 -61t-62 -21h-252q-29 0 -29 27v113q0 28 29 28h156v1589h-156q-29 0 -29 29z" />
    <glyph glyph-name="asciicircum" unicode="^" horiz-adv-x="653" 
d="M643 993q7 -15 2 -23.5t-20 -8.5h-119q-23 0 -33 18l-139 293l-144 -293q-8 -18 -32 -18h-117q-15 0 -21 8.5t0 23.5l216 422q10 19 34 19h125q23 0 33 -19z" />
    <glyph glyph-name="underscore" unicode="_" horiz-adv-x="751" 
d="M16 -49q0 29 29 29h662q26 0 26 -29v-113q0 -26 -26 -26h-662q-29 0 -29 26v113z" />
    <glyph glyph-name="a" unicode="a" horiz-adv-x="796" 
d="M397 -20q-148 0 -239.5 91.5t-91.5 237.5q0 129 90 215t233 86h154v113q0 70 -40 113t-108 43q-63 0 -98.5 -38.5t-40.5 -103.5q-3 -24 -29 -24h-118q-12 0 -19.5 8t-7.5 20q9 136 94.5 221t220.5 85q145 0 232.5 -93t87.5 -239v-412q0 -143 -87 -233t-233 -90zM395 147
q70 0 109 42.5t39 113.5v150h-148q-70 0 -111.5 -41t-41.5 -103q0 -74 41 -118t112 -44z" />
    <glyph glyph-name="b" unicode="b" horiz-adv-x="829" 
d="M442 1047q137 0 221.5 -93.5t84.5 -240.5v-402q0 -147 -89.5 -240.5t-236.5 -93.5q-145 0 -235.5 93.5t-90.5 240.5v1096q0 27 29 27h119q28 0 28 -27v-436q66 76 170 76zM573 305v414q0 73 -40.5 116.5t-110.5 43.5t-110 -43.5t-40 -116.5v-414q0 -73 40 -116.5
t110 -43.5t110.5 43.5t40.5 116.5z" />
    <glyph glyph-name="c" unicode="c" horiz-adv-x="788" 
d="M406 -23q-145 0 -235.5 93.5t-90.5 240.5v402q0 147 88.5 240.5t232.5 93.5q137 0 224 -86.5t96 -227.5q1 -12 -6 -19t-21 -7h-121q-25 0 -28 26q-6 69 -43.5 107.5t-100.5 38.5q-67 0 -106 -43.5t-39 -116.5v-414q0 -73 39.5 -116.5t107.5 -43.5q64 0 104 42.5t46 117.5
q3 29 27 29h122q27 0 27 -31q-9 -146 -97 -236t-226 -90z" />
    <glyph glyph-name="d" unicode="d" horiz-adv-x="829" 
d="M705 1434q28 0 28 -27v-1096q0 -147 -90 -240.5t-235 -93.5q-147 0 -236.5 93.5t-89.5 240.5v402q0 147 84 240.5t221 93.5q104 0 170 -76v436q0 27 29 27h119zM557 305v414q0 73 -39.5 116.5t-109.5 43.5t-111 -43.5t-41 -116.5v-414q0 -73 41 -116.5t111 -43.5
t109.5 43.5t39.5 116.5z" />
    <glyph glyph-name="e" unicode="e" horiz-adv-x="798" 
d="M403 -20q-145 0 -234 91.5t-89 241.5v402q2 147 90.5 238t235.5 91q144 1 235.5 -90t91.5 -233q0 -136 -90 -222.5t-235 -86.5h-152v-107q0 -72 40.5 -116t109.5 -44q62 0 101 42t44 110q3 27 29 27h120q12 0 19.5 -7.5t7.5 -19.5q-7 -142 -96.5 -229.5t-227.5 -87.5z
M256 571h152q69 0 109 40t40 106q0 74 -40.5 118t-110.5 44q-71 0 -110.5 -43.5t-39.5 -118.5v-146z" />
    <glyph glyph-name="f" unicode="f" horiz-adv-x="616" 
d="M549 1024q26 0 26 -27v-106q0 -27 -26 -27h-203v-835q0 -13 -8.5 -21t-20.5 -8h-118q-29 0 -29 29v835h-117q-26 0 -26 27v106q0 27 26 27h117v43q0 175 95.5 275t254.5 100q27 0 27 -29v-108q0 -29 -27 -29q-83 0 -128.5 -50t-45.5 -149v-53h203z" />
    <glyph glyph-name="g" unicode="g" horiz-adv-x="829" 
d="M408 1047q145 0 235 -93.5t90 -240.5v-811q0 -153 -88 -243.5t-237 -90.5q-143 0 -231.5 89.5t-94.5 240.5q-3 28 27 28h120q26 0 29 -28q4 -76 44 -119t106 -43q70 0 109.5 42.5t39.5 117.5v202q-68 -71 -164 -71q-137 0 -225 93.5t-88 239.5v353q0 147 90.5 240.5
t237.5 93.5zM408 193q70 0 109.5 44t39.5 117v365q0 73 -39.5 116.5t-109.5 43.5t-111 -43.5t-41 -116.5v-365q0 -73 41 -117t111 -44z" />
    <glyph glyph-name="h" unicode="h" horiz-adv-x="856" 
d="M141 0q-28 0 -28 29v1378q0 27 28 27h119q29 0 29 -27v-432q65 72 164 72q139 0 223 -94t84 -244v-680q0 -29 -29 -29h-119q-28 0 -28 29v686q0 76 -40 120t-110 44q-66 0 -105.5 -44.5t-39.5 -119.5v-686q0 -29 -29 -29h-119z" />
    <glyph glyph-name="i" unicode="i" horiz-adv-x="401" 
d="M201 1153q-45 0 -75 29.5t-30 74.5q0 46 29.5 76.5t75.5 30.5q45 0 75.5 -31t30.5 -76q0 -42 -31 -73t-75 -31zM141 0q-28 0 -28 29v968q0 27 28 27h119q29 0 29 -27v-968q0 -29 -29 -29h-119z" />
    <glyph glyph-name="j" unicode="j" horiz-adv-x="522" 
d="M303 1153q-45 0 -74.5 29.5t-29.5 74.5q0 46 29.5 76.5t74.5 30.5t76 -31t31 -76q0 -42 -31.5 -73t-75.5 -31zM29 -420q-29 0 -29 27v112q0 27 29 27h14q176 6 176 186v1065q0 12 7.5 19.5t19.5 7.5h121q26 0 26 -27v-1050q0 -171 -90 -268.5t-256 -98.5h-18z" />
    <glyph glyph-name="k" unicode="k" horiz-adv-x="819" 
d="M555 575q86 -34 136 -110.5t50 -177.5v-258q0 -29 -26 -29h-121q-27 0 -27 29v264q0 69 -43 110t-112 41h-123v-415q0 -29 -29 -29h-119q-28 0 -28 29v1378q0 27 28 27h119q29 0 29 -27v-797h98l186 394q11 20 33 20h127q16 0 23.5 -9t1.5 -24z" />
    <glyph glyph-name="l" unicode="l" horiz-adv-x="401" 
d="M141 0q-28 0 -28 29v1378q0 27 28 27h119q29 0 29 -27v-1378q0 -29 -29 -29h-119z" />
    <glyph glyph-name="m" unicode="m" horiz-adv-x="1251" 
d="M848 1047q138 0 222.5 -93t84.5 -241v-684q0 -29 -27 -29h-118q-29 0 -29 29v690q0 73 -35 116.5t-98 43.5q-64 0 -99.5 -43.5t-35.5 -116.5v-690q0 -29 -27 -29h-119q-28 0 -28 29v690q0 73 -35 116.5t-98 43.5q-64 0 -100 -43.5t-36 -116.5v-690q0 -29 -28 -29h-117
q-29 0 -29 29v684q0 147 85.5 240.5t224.5 93.5q69 0 127 -34t94 -91q37 58 94 91.5t127 33.5z" />
    <glyph glyph-name="n" unicode="n" horiz-adv-x="831" 
d="M125 0q-29 0 -29 29v684q0 147 89 240.5t231 93.5t230.5 -93.5t88.5 -240.5v-684q0 -29 -28 -29h-119q-29 0 -29 29v690q0 73 -38 117.5t-105 44.5t-105.5 -44.5t-38.5 -117.5v-690q0 -29 -28 -29h-119z" />
    <glyph glyph-name="o" unicode="o" horiz-adv-x="817" 
d="M408 -23q-147 0 -237.5 93.5t-90.5 240.5v402q0 147 90.5 240.5t237.5 93.5q148 0 237.5 -93t89.5 -241v-402q0 -148 -89.5 -241t-237.5 -93zM408 143q70 0 110.5 44.5t40.5 117.5v414q0 73 -40.5 117.5t-110.5 44.5t-110 -44.5t-40 -117.5v-414q0 -73 40 -117.5
t110 -44.5z" />
    <glyph glyph-name="p" unicode="p" horiz-adv-x="829" 
d="M424 1047q145 0 235.5 -93.5t90.5 -240.5v-402q0 -145 -85.5 -239.5t-211.5 -94.5q-104 0 -181 70v-430q0 -27 -26 -27h-121q-29 0 -29 27v1096q0 147 90.5 240.5t237.5 93.5zM573 305v414q0 73 -39.5 116.5t-109.5 43.5t-111 -43.5t-41 -116.5v-414q0 -73 41 -116.5
t111 -43.5t109.5 43.5t39.5 116.5z" />
    <glyph glyph-name="q" unicode="q" horiz-adv-x="829" 
d="M406 1047q147 0 237 -93.5t90 -240.5v-1096q0 -27 -28 -27h-121q-12 0 -19.5 7.5t-7.5 19.5v430q-77 -70 -180 -70q-126 0 -211.5 94.5t-85.5 239.5v402q0 147 90.5 240.5t235.5 93.5zM406 145q70 0 110.5 43.5t40.5 116.5v414q0 73 -40.5 116.5t-110.5 43.5t-110 -43.5
t-40 -116.5v-414q0 -73 40 -116.5t110 -43.5z" />
    <glyph glyph-name="r" unicode="r" horiz-adv-x="575" 
d="M125 0q-29 0 -29 29v641q0 164 96.5 261t253.5 97h76q27 0 27 -29v-110q0 -12 -7.5 -19.5t-19.5 -7.5h-73q-80 0 -128.5 -48t-48.5 -130v-655q0 -29 -28 -29h-119z" />
    <glyph glyph-name="s" unicode="s" horiz-adv-x="790" 
d="M408 -23q-155 0 -246 93t-96 233q0 31 28 31h119q26 0 29 -27q12 -162 164 -162q69 0 106 35t37 92q0 42 -26 74.5t-67.5 54.5t-92 43.5t-100.5 48t-91.5 59.5t-67.5 86.5t-26 121.5q0 124 86 205.5t223 81.5q155 0 236 -86t86 -216q0 -28 -27 -28h-121q-26 0 -29 26
q-5 62 -41 100t-100 38q-63 0 -101 -34.5t-38 -90.5q0 -40 26 -70.5t68 -52t92 -42.5t100.5 -47.5t92.5 -60.5t68 -88.5t26 -124.5q0 -126 -88 -209.5t-229 -83.5z" />
    <glyph glyph-name="t" unicode="t" horiz-adv-x="591" 
d="M522 160q29 0 29 -27v-113q0 -26 -29 -26h-30q-152 0 -238 96.5t-86 265.5v508h-115q-26 0 -26 27v106q0 27 26 27h115v264q0 29 29 29h118q27 0 27 -29v-264h158q26 0 26 -27v-106q0 -27 -26 -27h-158v-510q0 -194 158 -194h22z" />
    <glyph glyph-name="u" unicode="u" horiz-adv-x="831" 
d="M125 1024h119q28 0 28 -29v-690q0 -73 38.5 -117.5t105.5 -44.5t105 44.5t38 117.5v690q0 29 29 29h119q28 0 28 -29v-684q0 -147 -88.5 -240.5t-230.5 -93.5t-231 93.5t-89 240.5v684q0 29 29 29z" />
    <glyph glyph-name="v" unicode="v" horiz-adv-x="770" 
d="M571 999q3 25 31 25h125q15 0 21.5 -8.5t3.5 -22.5l-232 -927q-15 -74 -92 -74h-84q-77 0 -92 74l-232 927q-3 14 3.5 22.5t19.5 8.5h127q28 0 31 -25l184 -841z" />
    <glyph glyph-name="w" unicode="w" horiz-adv-x="1251" 
d="M848 -23q-70 0 -127 33.5t-94 91.5q-36 -57 -94 -91t-127 -34q-139 0 -224.5 93.5t-85.5 240.5v684q0 29 29 29h117q28 0 28 -29v-690q0 -73 36 -116.5t100 -43.5q63 0 98 43.5t35 116.5v690q0 29 28 29h119q27 0 27 -29v-690q0 -73 35.5 -116.5t99.5 -43.5q63 0 98 43.5
t35 116.5v690q0 29 29 29h118q27 0 27 -29v-684q0 -148 -84.5 -241t-222.5 -93z" />
    <glyph glyph-name="x" unicode="x" horiz-adv-x="800" 
d="M109 0q-29 0 -29 29v231q0 79 36 144t101 108q-137 88 -137 248v237q0 27 29 27h120q12 0 19.5 -7.5t7.5 -19.5v-243q0 -71 39 -115.5t104 -44.5q67 0 106.5 44.5t39.5 115.5v243q0 27 26 27h121q12 0 19.5 -7.5t7.5 -19.5v-237q0 -162 -135 -248q65 -43 100 -108
t35 -144v-231q0 -29 -27 -29h-121q-26 0 -26 29v237q0 73 -39.5 117.5t-106.5 44.5q-65 0 -104 -44.5t-39 -117.5v-237q0 -29 -27 -29h-120z" />
    <glyph glyph-name="y" unicode="y" horiz-adv-x="856" 
d="M715 1024q12 0 20 -7.5t8 -19.5v-1095q0 -152 -87.5 -243t-235.5 -91q-140 0 -227.5 89.5t-94.5 240.5q-3 28 27 28h121q23 0 26 -28q5 -77 43.5 -119.5t104.5 -42.5q70 0 108.5 42.5t38.5 117.5v206q-63 -73 -161 -73q-135 0 -222.5 92.5t-87.5 238.5v637q0 27 29 27
h119q28 0 28 -27v-643q0 -71 40 -115t108 -44t107.5 43.5t39.5 115.5v643q0 27 29 27h119z" />
    <glyph glyph-name="z" unicode="z" horiz-adv-x="720" 
d="M262 166h369q28 0 28 -29v-108q0 -29 -28 -29h-500q-32 0 -51 19t-19 53v39q0 46 21 84l383 663h-356q-12 0 -20.5 8t-8.5 21v110q0 12 8.5 19.5t20.5 7.5h481q32 0 50.5 -18t18.5 -50v-51q0 -50 -20 -84z" />
    <glyph glyph-name="braceleft" unicode="{" horiz-adv-x="581" 
d="M373 1001q0 -179 -133 -278q133 -102 133 -281v-336q0 -78 42 -127.5t109 -54.5q27 -3 27 -30v-113q0 -27 -29 -27q-146 6 -236.5 106t-90.5 261v336q0 73 -38 118t-98 58q-24 3 -24 29v120q0 29 24 29q60 13 98 58t38 118v326q0 161 90.5 260.5t236.5 105.5q29 0 29 -26
v-113q0 -28 -27 -31q-67 -5 -109 -54.5t-42 -127.5v-326z" />
    <glyph glyph-name="bar" unicode="|" horiz-adv-x="405" 
d="M113 1612q0 26 28 26h125q27 0 27 -26v-1727q0 -28 -27 -28h-125q-28 0 -28 28v1727z" />
    <glyph glyph-name="braceright" unicode="}" horiz-adv-x="581" 
d="M522 811q25 0 25 -29v-120q0 -26 -25 -29q-60 -13 -97.5 -58t-37.5 -118v-336q0 -161 -91 -261t-237 -106q-28 0 -28 27v113q0 27 26 30q67 5 109.5 54.5t42.5 127.5v336q0 179 133 281q-133 99 -133 278v326q0 78 -42.5 127.5t-109.5 54.5q-26 3 -26 31v113q0 26 28 26
q146 -6 237 -105.5t91 -260.5v-326q0 -73 37.5 -118t97.5 -58z" />
    <glyph glyph-name="asciitilde" unicode="~" horiz-adv-x="903" 
d="M752 842q19 25 34 0l56 -84q16 -19 -2 -37q-82 -109 -201 -109q-66 0 -192.5 47.5t-170.5 47.5q-70 0 -126 -68q-18 -22 -37 0l-52 88q-15 19 2 39q81 104 199 104q66 0 192.5 -47t170.5 -47q72 0 127 66z" />
    <glyph glyph-name="exclamdown" unicode="&#xa1;" horiz-adv-x="450" 
d="M225 1044q47 0 80 -32.5t33 -79.5q0 -49 -32.5 -81t-80.5 -32q-49 0 -80.5 31.5t-31.5 81.5q0 48 31.5 80t80.5 32zM164 715h123q26 0 26 -29v-1071q0 -27 -26 -27h-123q-29 0 -29 27v1071q0 29 29 29z" />
    <glyph glyph-name="cent" unicode="&#xa2;" horiz-adv-x="788" 
d="M362 -174q-26 0 -26 27v133q-117 22 -186.5 110t-69.5 215v402q0 128 69.5 216.5t186.5 108.5v133q0 27 26 27h80q29 0 29 -27v-131q113 -20 182 -102t76 -205q0 -26 -27 -26h-122q-24 0 -27 26q-6 69 -45.5 107.5t-104.5 38.5q-68 0 -107.5 -43.5t-39.5 -116.5v-414
q0 -73 39.5 -116.5t107.5 -43.5q65 0 104.5 38.5t45.5 107.5q3 26 27 26h122q27 0 27 -28q-7 -121 -77.5 -203.5t-180.5 -101.5v-131q0 -27 -29 -27h-80z" />
    <glyph glyph-name="sterling" unicode="&#xa3;" horiz-adv-x="942" 
d="M866 172q12 0 19.5 -7.5t7.5 -19.5v-116q0 -29 -27 -29h-800q-12 0 -20.5 8t-8.5 21v104q0 36 41 43q90 12 90 152v307h-98q-29 0 -29 27v104q0 29 29 29h98v292q0 161 96.5 265t251.5 104q151 0 246.5 -101.5t103.5 -262.5q0 -29 -26 -29h-131q-26 0 -29 27
q-6 89 -50.5 140.5t-117.5 51.5t-117.5 -52t-44.5 -132v-303h336q27 0 27 -29v-104q0 -12 -7.5 -19.5t-19.5 -7.5h-336v-309q0 -91 -37 -154h553z" />
    <glyph glyph-name="currency" unicode="&#xa4;" horiz-adv-x="925" 
d="M463 190q-127 0 -215 72l-74 -90q-19 -19 -39 -4l-63 55q-22 18 -4 39l94 113q-33 65 -33 153v181q0 88 33 155l-94 111q-18 21 4 39l63 55q21 18 39 -4l74 -88q90 70 215 70t215 -70l74 88q20 23 39 4l63 -55q22 -18 4 -39l-94 -111q33 -65 33 -155v-181q0 -85 -31 -155
l92 -111q18 -21 -4 -39l-63 -55q-19 -16 -39 4l-74 90q-88 -72 -215 -72zM463 356q73 0 115.5 44.5t42.5 121.5v193q0 77 -42.5 122.5t-115.5 45.5t-115.5 -45.5t-42.5 -122.5v-193q0 -77 42.5 -121.5t115.5 -44.5z" />
    <glyph glyph-name="yen" unicode="&#xa5;" horiz-adv-x="1052" 
d="M936 465h-318v-121h318q29 0 29 -27v-88q0 -26 -29 -26h-318v-174q0 -29 -26 -29h-129q-29 0 -29 29v174h-317q-29 0 -29 26v88q0 27 29 27h317v121h-317q-29 0 -29 27v88q0 12 8 20t21 8h133q-70 90 -70 199v600q0 27 29 27h129q12 0 19.5 -7.5t7.5 -19.5v-608
q0 -70 46.5 -117t114.5 -47q69 0 115.5 47t46.5 117v608q0 27 29 27h129q26 0 26 -27v-600q0 -108 -71 -199h135q13 0 21 -8t8 -20v-88q0 -27 -29 -27z" />
    <glyph glyph-name="brokenbar" unicode="&#xa6;" horiz-adv-x="364" 
d="M121 1022q-29 0 -29 27v563q0 26 29 26h125q26 0 26 -26v-563q0 -27 -26 -27h-125zM121 -143q-29 0 -29 28v561q0 12 8 20.5t21 8.5h125q12 0 19 -8.5t7 -20.5v-561q0 -28 -26 -28h-125z" />
    <glyph glyph-name="section" unicode="&#xa7;" horiz-adv-x="796" 
d="M596 489q123 -80 123 -231q0 -120 -86.5 -198t-224.5 -78q-150 0 -238.5 87t-93.5 210q0 28 26 28h123q26 0 29 -24q17 -133 152 -133q64 0 98.5 30.5t34.5 79.5q0 42 -26.5 75t-68.5 55.5t-93 43.5t-102 47.5t-93 59.5t-68.5 86.5t-26.5 122.5q0 66 36 119.5t100 86.5
q-123 80 -123 222q0 119 87 196.5t226 77.5q76 0 136 -23.5t96.5 -62.5t56.5 -86t22 -98q0 -29 -26 -29h-123q-26 0 -29 27q-6 49 -40.5 77.5t-92.5 28.5q-59 0 -97 -29.5t-38 -80.5q0 -39 26.5 -70t69 -52.5t94.5 -42.5t103.5 -46.5t94 -56.5t69 -80t26.5 -111
q0 -154 -139 -228zM432 578q52 8 88.5 46t36.5 91t-55 91.5t-135 59.5q-60 -9 -93.5 -44.5t-33.5 -82.5q0 -58 54.5 -99t137.5 -62z" />
    <glyph glyph-name="copyright" unicode="&#xa9;" horiz-adv-x="1275" 
d="M514 -8q-187 0 -302.5 113t-115.5 296v625q0 186 115.5 301t302.5 115h248q187 0 301.5 -115t114.5 -301v-625q0 -183 -114.5 -296t-301.5 -113h-248zM514 100h248q142 0 221.5 80t79.5 221v625q0 145 -79.5 226t-221.5 81h-248q-142 0 -221.5 -81t-79.5 -226v-625
q0 -141 79.5 -221t221.5 -80zM637 276q-119 0 -191.5 75t-72.5 198v334q0 123 72.5 197.5t189.5 74.5q113 0 184.5 -70.5t77.5 -187.5q3 -23 -20 -23h-101q-19 0 -22 23q-6 58 -37.5 89.5t-81.5 31.5q-57 0 -88 -34.5t-31 -94.5v-348q0 -59 31 -92t88 -33q53 0 84 31.5
t39 91.5q0 22 20 22h103q23 0 20 -24q-6 -118 -78.5 -189.5t-185.5 -71.5z" />
    <glyph glyph-name="guillemotleft" unicode="&#xab;" horiz-adv-x="878" 
d="M305 170q-22 0 -33 16l-211 283q-43 57 0 115l211 282q11 17 33 17h123q17 0 22 -10.5t-6 -22.5l-245 -324l245 -323q11 -12 6 -22.5t-22 -10.5h-123zM664 170q-22 0 -33 16l-211 283q-43 58 0 115l211 282q11 17 33 17h122q17 0 22.5 -10.5t-5.5 -22.5l-246 -324
l246 -323q11 -12 5.5 -22.5t-22.5 -10.5h-122z" />
    <glyph glyph-name="logicalnot" unicode="&#xac;" horiz-adv-x="956" 
d="M842 817q26 0 26 -29v-274q0 -27 -26 -27h-103q-28 0 -28 27v141h-594q-29 0 -29 29v104q0 29 29 29h725z" />
    <glyph glyph-name="registered" unicode="&#xae;" horiz-adv-x="880" 
d="M317 535q-98 0 -164.5 66.5t-66.5 164.5v444q0 98 66.5 165t164.5 67h246q98 0 164 -67t66 -165v-444q0 -98 -66 -164.5t-164 -66.5h-246zM317 598h246q69 0 115.5 47.5t46.5 118.5v446q0 72 -46.5 119t-115.5 47h-246q-71 0 -117 -47t-46 -119v-446q0 -71 46.5 -118.5
t116.5 -47.5zM299 702q-12 0 -12 11v428q0 69 42 112t109 43q68 0 110 -43t42 -112v-64q0 -95 -76 -137l90 -225q3 -13 -10 -13h-66q-9 0 -12 9l-78 211h-65v-209q0 -11 -13 -11h-61zM373 997h63q32 0 51 21t19 55v70q0 34 -18.5 54t-47.5 20q-32 0 -49.5 -20t-17.5 -54
v-146z" />
    <glyph glyph-name="degree" unicode="&#xb0;" horiz-adv-x="606" 
d="M39 1184q0 122 73 197t191 75t191 -75t73 -197q0 -124 -72.5 -199.5t-191.5 -75.5t-191.5 75.5t-72.5 199.5zM170 1184q0 -68 36.5 -109t96.5 -41t96.5 41t36.5 109q0 66 -36.5 106.5t-96.5 40.5t-96.5 -40.5t-36.5 -106.5z" />
    <glyph glyph-name="plusminus" unicode="&#xb1;" horiz-adv-x="956" 
d="M842 893q26 0 26 -29v-106q0 -27 -26 -27h-283v-270q0 -26 -27 -29h-106q-29 0 -29 29v270h-280q-29 0 -29 27v106q0 29 29 29h280v270q0 27 29 27h104q29 0 29 -29v-268h283zM842 354q26 0 26 -26v-107q0 -28 -26 -28h-725q-29 0 -29 28v107q0 26 29 26h725z" />
    <glyph glyph-name="paragraph" unicode="&#xb6;" horiz-adv-x="1009" 
d="M805 1438q40 0 61 -22t21 -62v-1530q0 -12 -7.5 -19.5t-19.5 -7.5h-125q-26 0 -26 27v1446h-174v-1446q0 -12 -7.5 -19.5t-19.5 -7.5h-125q-12 0 -19.5 7.5t-7.5 19.5v964q-149 0 -240 87.5t-91 236.5q0 150 91 238t240 88h449z" />
    <glyph glyph-name="periodcentered" unicode="&#xb7;" horiz-adv-x="329" 
d="M137 406q-49 0 -81.5 32t-32.5 82q0 51 32 83t82 32t83.5 -32.5t33.5 -82.5q0 -49 -33.5 -81.5t-83.5 -32.5z" />
    <glyph glyph-name="guillemotright" unicode="&#xbb;" horiz-adv-x="880" 
d="M215 170h-123q-17 0 -22 10.5t6 22.5l246 323l-246 324q-11 12 -6 22.5t22 10.5h123q22 0 33 -17l211 -282q43 -58 0 -115l-211 -283q-11 -16 -33 -16zM573 170h-122q-17 0 -22.5 10.5t5.5 22.5l246 323l-246 324q-11 12 -5.5 22.5t22.5 10.5h122q22 0 33 -17l211 -282
q43 -58 0 -115l-211 -283q-11 -16 -33 -16z" />
    <glyph glyph-name="questiondown" unicode="&#xbf;" horiz-adv-x="688" 
d="M373 1044q49 0 80.5 -32t31.5 -80q0 -50 -31.5 -81.5t-80.5 -31.5t-81 31.5t-32 81.5q0 48 32 80t81 32zM436 709q27 0 27 -29v-90q0 -99 -28 -179.5t-67.5 -133.5t-79 -102t-67.5 -112.5t-28 -138.5q0 -86 42.5 -139t116.5 -53q71 0 114.5 52t47.5 148q0 12 8.5 19.5
t20.5 7.5h119q26 0 26 -29q-7 -164 -99 -263t-233 -99q-151 0 -245.5 97t-94.5 251q0 81 20 150t50 114t65.5 93.5t65.5 90t50 102.5t20 132v82q0 29 28 29h121z" />
    <glyph glyph-name="Agrave" unicode="&#xc0;" horiz-adv-x="923" 
d="M592 1575h-84q-24 0 -35 16l-162 185q-12 14 -7 24t22 10h116q24 0 35 -16l133 -186q9 -12 4 -22.5t-22 -10.5zM137 0q-26 0 -26 29v1048q0 169 96 273t254 104t255 -104t97 -273v-1048q0 -29 -29 -29h-129q-12 0 -20 8t-8 21v454h-332v-454q0 -29 -27 -29h-131zM295 653
h332v432q0 93 -43.5 144t-122.5 51q-78 0 -122 -51.5t-44 -143.5v-432z" />
    <glyph glyph-name="Aacute" unicode="&#xc1;" horiz-adv-x="923" 
d="M379 1575q-17 0 -22.5 10.5t3.5 22.5l134 186q11 16 34 16h117q17 0 21.5 -10t-7.5 -24l-161 -185q-11 -16 -35 -16h-84zM137 0q-26 0 -26 29v1048q0 169 96 273t254 104t255 -104t97 -273v-1048q0 -29 -29 -29h-129q-12 0 -20 8t-8 21v454h-332v-454q0 -29 -27 -29h-131
zM295 653h332v432q0 93 -43.5 144t-122.5 51q-78 0 -122 -51.5t-44 -143.5v-432z" />
    <glyph glyph-name="Acircumflex" unicode="&#xc2;" horiz-adv-x="923" 
d="M700 1608q9 -14 4 -23.5t-20 -9.5h-84q-22 0 -33 14l-106 125l-107 -125q-11 -14 -32 -14h-84q-15 0 -20.5 9.5t3.5 23.5l141 186q13 16 35 16h127q22 0 35 -16zM137 0q-26 0 -26 29v1048q0 169 96 273t254 104t255 -104t97 -273v-1048q0 -29 -29 -29h-129q-12 0 -20 8
t-8 21v454h-332v-454q0 -29 -27 -29h-131zM295 653h332v432q0 93 -43.5 144t-122.5 51q-78 0 -122 -51.5t-44 -143.5v-432z" />
    <glyph glyph-name="Atilde" unicode="&#xc3;" horiz-adv-x="923" 
d="M387 1642q-27 0 -35 -32q-9 -25 -30 -25h-68q-29 0 -29 27q5 60 44.5 105.5t105.5 45.5q34 0 65 -15.5t54 -30.5t38 -15q27 0 37 33q7 26 29 26h70q26 0 26 -28q-5 -62 -45 -106t-102 -44q-43 0 -93 29.5t-67 29.5zM137 0q-26 0 -26 29v1048q0 169 96 273t254 104
t255 -104t97 -273v-1048q0 -29 -29 -29h-129q-12 0 -20 8t-8 21v454h-332v-454q0 -29 -27 -29h-131zM295 653h332v432q0 93 -43.5 144t-122.5 51q-78 0 -122 -51.5t-44 -143.5v-432z" />
    <glyph glyph-name="Adieresis" unicode="&#xc4;" horiz-adv-x="923" 
d="M340 1587q-41 0 -65.5 25t-24.5 65t24.5 65t65.5 25q40 0 65 -25t25 -65t-25 -65t-65 -25zM582 1587q-40 0 -65 25t-25 65t25 65t65 25t65 -25t25 -65t-25 -65t-65 -25zM137 0q-26 0 -26 29v1048q0 169 96 273t254 104t255 -104t97 -273v-1048q0 -29 -29 -29h-129
q-12 0 -20 8t-8 21v454h-332v-454q0 -29 -27 -29h-131zM295 653h332v432q0 93 -43.5 144t-122.5 51q-78 0 -122 -51.5t-44 -143.5v-432z" />
    <glyph glyph-name="Aring" unicode="&#xc5;" horiz-adv-x="923" 
d="M305 1690q0 66 42.5 105.5t111.5 39.5q68 0 109.5 -39.5t41.5 -105.5q0 -67 -41.5 -108.5t-109.5 -41.5q-69 0 -111.5 41.5t-42.5 108.5zM403 1688q0 -25 15 -40.5t41 -15.5q25 0 40 15.5t15 40.5t-15 40t-40 15q-26 0 -41 -15t-15 -40zM137 0q-26 0 -26 29v1048
q0 169 96 273t254 104t255 -104t97 -273v-1048q0 -29 -29 -29h-129q-12 0 -20 8t-8 21v454h-332v-454q0 -29 -27 -29h-131zM295 653h332v432q0 93 -43.5 144t-122.5 51q-78 0 -122 -51.5t-44 -143.5v-432z" />
    <glyph glyph-name="AE" unicode="&#xc6;" horiz-adv-x="1243" 
d="M137 0q-26 0 -26 29v1067q0 157 94 256.5t244 99.5q148 0 249 -131q99 125 254 125h191q28 0 28 -29v-114q0 -29 -28 -29h-176q-86 0 -132.5 -49.5t-46.5 -139.5v-292h297q27 0 27 -29v-109q0 -28 -27 -28h-297v-269q0 -91 46.5 -141.5t132.5 -50.5h190q27 0 27 -29v-117
q0 -26 -27 -26h-205q-160 0 -256 98.5t-96 261.5v269h-305v-594q0 -29 -27 -29h-131zM295 793h305v311q0 80 -41 128t-110 48t-111.5 -48.5t-42.5 -127.5v-311z" />
    <glyph glyph-name="Ccedilla" unicode="&#xc7;" horiz-adv-x="839" 
d="M793 383q-6 -172 -90 -280t-222 -123l-12 -70h12q64 -5 108 -48t44 -106q0 -81 -54 -127.5t-139 -46.5q-75 0 -126 39.5t-60 110.5q-1 12 6 19t21 7h55q20 0 29 -22q15 -47 75 -47q35 0 57.5 18t22.5 49q0 28 -22 46t-56 18q-25 0 -71 -8q-11 -4 -19 4l-6 6q-10 10 -8 20
l29 142q-127 22 -203 119.5t-76 242.5v741q0 166 96.5 267.5t253.5 101.5q151 0 245.5 -107t98.5 -286q0 -27 -26 -27h-131q-27 0 -27 27q-3 105 -46.5 162t-115.5 57q-76 0 -119 -49t-43 -135v-762q0 -86 43 -135t119 -49q79 0 124 60.5t48 172.5q0 27 27 27h131
q27 0 27 -29z" />
    <glyph glyph-name="Egrave" unicode="&#xc8;" horiz-adv-x="739" 
d="M551 1575h-84q-24 0 -35 16l-162 185q-12 14 -7 24t22 10h116q24 0 35 -16l133 -186q9 -12 4 -22.5t-22 -10.5zM438 -6q-154 0 -252 103.5t-98 262.5v713q0 159 98 263t252 104h215q12 0 19.5 -7.5t7.5 -19.5v-117q0 -28 -27 -28h-200q-79 0 -129 -55.5t-50 -143.5v-260
h328q29 0 29 -29v-110q0 -29 -29 -29h-328v-276q0 -88 50 -143.5t129 -55.5h200q27 0 27 -29v-117q0 -26 -27 -26h-215z" />
    <glyph glyph-name="Eacute" unicode="&#xc9;" horiz-adv-x="739" 
d="M338 1575q-17 0 -22.5 10.5t3.5 22.5l134 186q11 16 34 16h117q17 0 21.5 -10t-7.5 -24l-161 -185q-11 -16 -35 -16h-84zM438 -6q-154 0 -252 103.5t-98 262.5v713q0 159 98 263t252 104h215q12 0 19.5 -7.5t7.5 -19.5v-117q0 -28 -27 -28h-200q-79 0 -129 -55.5
t-50 -143.5v-260h328q29 0 29 -29v-110q0 -29 -29 -29h-328v-276q0 -88 50 -143.5t129 -55.5h200q27 0 27 -29v-117q0 -26 -27 -26h-215z" />
    <glyph glyph-name="Ecircumflex" unicode="&#xca;" horiz-adv-x="739" 
d="M659 1608q9 -14 4 -23.5t-20 -9.5h-84q-22 0 -33 14l-106 125l-107 -125q-11 -14 -32 -14h-84q-15 0 -20.5 9.5t3.5 23.5l142 186q13 16 34 16h127q22 0 35 -16zM438 -6q-154 0 -252 103.5t-98 262.5v713q0 159 98 263t252 104h215q12 0 19.5 -7.5t7.5 -19.5v-117
q0 -28 -27 -28h-200q-79 0 -129 -55.5t-50 -143.5v-260h328q29 0 29 -29v-110q0 -29 -29 -29h-328v-276q0 -88 50 -143.5t129 -55.5h200q27 0 27 -29v-117q0 -26 -27 -26h-215z" />
    <glyph glyph-name="Edieresis" unicode="&#xcb;" horiz-adv-x="739" 
d="M299 1587q-41 0 -65.5 25t-24.5 65t24.5 65t65.5 25q40 0 65 -25t25 -65t-25 -65t-65 -25zM541 1587q-40 0 -65 25t-25 65t25 65t65 25t65 -25t25 -65t-25 -65t-65 -25zM438 -6q-154 0 -252 103.5t-98 262.5v713q0 159 98 263t252 104h215q12 0 19.5 -7.5t7.5 -19.5v-117
q0 -28 -27 -28h-200q-79 0 -129 -55.5t-50 -143.5v-260h328q29 0 29 -29v-110q0 -29 -29 -29h-328v-276q0 -88 50 -143.5t129 -55.5h200q27 0 27 -29v-117q0 -26 -27 -26h-215z" />
    <glyph glyph-name="Igrave" unicode="&#xcc;" horiz-adv-x="432" 
d="M348 1575h-84q-24 0 -35 16l-161 185q-12 14 -7.5 24t21.5 10h117q23 0 34 -16l134 -186q9 -12 3.5 -22.5t-22.5 -10.5zM123 1407q0 27 29 27h129q26 0 26 -27v-1378q0 -29 -26 -29h-129q-29 0 -29 29v1378z" />
    <glyph glyph-name="Iacute" unicode="&#xcd;" horiz-adv-x="460" 
d="M147 1575q-17 0 -22 10.5t4 22.5l133 186q11 16 35 16h117q17 0 21.5 -10t-7.5 -24l-162 -185q-11 -16 -35 -16h-84zM139 1407q0 27 29 27h129q12 0 19.5 -7.5t7.5 -19.5v-1378q0 -29 -27 -29h-129q-29 0 -29 29v1378z" />
    <glyph glyph-name="Icircumflex" unicode="&#xce;" horiz-adv-x="542" 
d="M510 1608q9 -14 4 -23.5t-20 -9.5h-84q-22 0 -33 14l-107 125l-106 -125q-11 -14 -33 -14h-84q-15 0 -20 9.5t4 23.5l141 186q13 16 35 16h127q22 0 35 -16zM180 1407q0 27 29 27h129q12 0 19.5 -7.5t7.5 -19.5v-1378q0 -29 -27 -29h-129q-29 0 -29 29v1378z" />
    <glyph glyph-name="Idieresis" unicode="&#xcf;" horiz-adv-x="462" 
d="M111 1587q-41 0 -66 25t-25 65t25 65t66 25q40 0 65 -25t25 -65t-25 -65t-65 -25zM352 1587q-40 0 -65 25t-25 65t25 65t65 25t65 -25t25 -65t-25 -65t-65 -25zM141 1407q0 27 29 27h129q12 0 19.5 -7.5t7.5 -19.5v-1378q0 -29 -27 -29h-129q-29 0 -29 29v1378z" />
    <glyph glyph-name="Eth" unicode="&#xd0;" horiz-adv-x="985" 
d="M547 1440q159 0 254.5 -103.5t95.5 -267.5v-704q0 -163 -96 -267t-254 -104h-264q-40 0 -62 21t-22 61v588h-99q-28 0 -28 26v78q0 27 28 27h99v563q0 40 22 61t62 21h264zM711 360v713q0 89 -44.5 142t-125.5 53h-156v-473h111q26 0 26 -27v-78q0 -26 -26 -26h-111v-498
h156q79 0 124.5 53t45.5 141z" />
    <glyph glyph-name="Ntilde" unicode="&#xd1;" horiz-adv-x="923" 
d="M391 1642q-27 0 -35 -32q-9 -25 -30 -25h-68q-29 0 -29 27q5 60 44.5 105.5t105.5 45.5q34 0 65.5 -15.5t54.5 -30.5t38 -15q26 0 36 33q7 26 29 26h70q26 0 26 -28q-5 -62 -45 -106t-102 -44q-43 0 -93 29.5t-67 29.5zM137 0q-26 0 -26 29v1050q0 167 96 272t254 105
q159 0 255.5 -105t96.5 -272v-1050q0 -29 -29 -29h-129q-12 0 -20 8t-8 21v1058q0 88 -45 141.5t-121 53.5t-121 -53.5t-45 -141.5v-1058q0 -29 -27 -29h-131z" />
    <glyph glyph-name="Ograve" unicode="&#xd2;" horiz-adv-x="899" 
d="M580 1575h-84q-24 0 -35 16l-162 185q-12 14 -7.5 24t21.5 10h117q24 0 35 -16l133 -186q9 -12 4 -22.5t-22 -10.5zM451 -20q-160 0 -261.5 107t-101.5 278v704q0 171 101.5 278t261.5 107q159 0 259.5 -104.5t100.5 -266.5v-733q0 -162 -100.5 -266t-259.5 -104z
M451 152q78 0 126 52.5t48 137.5v750q0 85 -48 137.5t-126 52.5q-79 0 -128 -55.5t-49 -149.5v-721q0 -94 49 -149t128 -55z" />
    <glyph glyph-name="Oacute" unicode="&#xd3;" horiz-adv-x="899" 
d="M367 1575q-17 0 -22.5 10.5t3.5 22.5l133 186q11 16 35 16h117q17 0 21.5 -10t-7.5 -24l-162 -185q-11 -16 -34 -16h-84zM451 -20q-160 0 -261.5 107t-101.5 278v704q0 171 101.5 278t261.5 107q159 0 259.5 -104.5t100.5 -266.5v-733q0 -162 -100.5 -266t-259.5 -104z
M451 152q78 0 126 52.5t48 137.5v750q0 85 -48 137.5t-126 52.5q-79 0 -128 -55.5t-49 -149.5v-721q0 -94 49 -149t128 -55z" />
    <glyph glyph-name="Ocircumflex" unicode="&#xd4;" horiz-adv-x="899" 
d="M688 1608q9 -14 4 -23.5t-20 -9.5h-84q-22 0 -33 14l-106 125l-107 -125q-11 -14 -33 -14h-84q-15 0 -20 9.5t4 23.5l141 186q13 16 35 16h127q22 0 35 -16zM451 -20q-160 0 -261.5 107t-101.5 278v704q0 171 101.5 278t261.5 107q159 0 259.5 -104.5t100.5 -266.5v-733
q0 -162 -100.5 -266t-259.5 -104zM451 152q78 0 126 52.5t48 137.5v750q0 85 -48 137.5t-126 52.5q-79 0 -128 -55.5t-49 -149.5v-721q0 -94 49 -149t128 -55z" />
    <glyph glyph-name="Otilde" unicode="&#xd5;" horiz-adv-x="899" 
d="M375 1642q-27 0 -35 -32q-9 -25 -31 -25h-67q-29 0 -29 27q5 60 44 105.5t105 45.5q34 0 65.5 -15.5t54.5 -30.5t38 -15q27 0 37 33q7 26 29 26h69q27 0 27 -28q-5 -62 -45 -106t-102 -44q-43 0 -93 29.5t-67 29.5zM451 -20q-160 0 -261.5 107t-101.5 278v704
q0 171 101.5 278t261.5 107q159 0 259.5 -104.5t100.5 -266.5v-733q0 -162 -100.5 -266t-259.5 -104zM451 152q78 0 126 52.5t48 137.5v750q0 85 -48 137.5t-126 52.5q-79 0 -128 -55.5t-49 -149.5v-721q0 -94 49 -149t128 -55z" />
    <glyph glyph-name="Odieresis" unicode="&#xd6;" horiz-adv-x="899" 
d="M328 1587q-41 0 -65.5 25t-24.5 65t24.5 65t65.5 25q40 0 65 -25t25 -65t-25 -65t-65 -25zM569 1587q-40 0 -65 25t-25 65t25 65t65 25t65 -25t25 -65t-25 -65t-65 -25zM451 -20q-160 0 -261.5 107t-101.5 278v704q0 171 101.5 278t261.5 107q159 0 259.5 -104.5
t100.5 -266.5v-733q0 -162 -100.5 -266t-259.5 -104zM451 152q78 0 126 52.5t48 137.5v750q0 85 -48 137.5t-126 52.5q-79 0 -128 -55.5t-49 -149.5v-721q0 -94 49 -149t128 -55z" />
    <glyph glyph-name="multiply" unicode="&#xd7;" horiz-adv-x="956" 
d="M174 348l-74 76q-19 19 0 41l262 262l-262 262q-19 22 0 41l74 76q20 18 41 0l264 -264l262 264q21 18 41 0l74 -76q19 -19 0 -41l-262 -262l262 -262q19 -22 0 -41l-74 -76q-20 -18 -41 0l-262 264l-264 -264q-20 -18 -41 0z" />
    <glyph glyph-name="Oslash" unicode="&#xd8;" horiz-adv-x="903" 
d="M176 -92q-15 0 -22 8.5t-2 22.5l43 143q-107 107 -107 283v704q0 171 101.5 278t261.5 107q79 0 141 -24l22 73q10 23 33 23h70q15 0 22 -8.5t2 -22.5l-41 -135q113 -104 113 -277v-733q0 -162 -101 -266t-261 -104q-80 0 -150 28l-25 -78q-6 -22 -30 -22h-70zM293 414
l248 843q-45 25 -90 25q-79 0 -127 -55.5t-48 -149.5v-569q0 -56 17 -94zM451 152q78 0 127 52.5t49 137.5v625q0 39 -15 90l-260 -873q38 -32 99 -32z" />
    <glyph glyph-name="Ugrave" unicode="&#xd9;" horiz-adv-x="923" 
d="M586 1575h-84q-24 0 -35 16l-162 185q-12 14 -7.5 24t21.5 10h117q24 0 35 -16l133 -186q9 -12 4 -22.5t-22 -10.5zM137 1434h131q27 0 27 -29v-1059q0 -88 45 -141t121 -53t121 53t45 141v1059q0 13 8 21t20 8h129q29 0 29 -29v-1051q0 -167 -96.5 -272t-255.5 -105
q-158 0 -254 105t-96 272v1051q0 29 26 29z" />
    <glyph glyph-name="Uacute" unicode="&#xda;" horiz-adv-x="923" 
d="M373 1575q-17 0 -22.5 10.5t3.5 22.5l133 186q11 16 35 16h117q17 0 21.5 -10t-7.5 -24l-161 -185q-11 -16 -35 -16h-84zM137 1434h131q27 0 27 -29v-1059q0 -88 45 -141t121 -53t121 53t45 141v1059q0 13 8 21t20 8h129q29 0 29 -29v-1051q0 -167 -96.5 -272
t-255.5 -105q-158 0 -254 105t-96 272v1051q0 29 26 29z" />
    <glyph glyph-name="Ucircumflex" unicode="&#xdb;" horiz-adv-x="923" 
d="M694 1608q9 -14 4 -23.5t-20 -9.5h-84q-22 0 -33 14l-106 125l-107 -125q-11 -14 -33 -14h-84q-15 0 -20 9.5t4 23.5l141 186q13 16 35 16h127q22 0 35 -16zM137 1434h131q27 0 27 -29v-1059q0 -88 45 -141t121 -53t121 53t45 141v1059q0 13 8 21t20 8h129q29 0 29 -29
v-1051q0 -167 -96.5 -272t-255.5 -105q-158 0 -254 105t-96 272v1051q0 29 26 29z" />
    <glyph glyph-name="Udieresis" unicode="&#xdc;" horiz-adv-x="923" 
d="M334 1587q-41 0 -65.5 25t-24.5 65t24.5 65t65.5 25q40 0 65 -25t25 -65t-25 -65t-65 -25zM575 1587q-40 0 -65 25t-25 65t25 65t65 25t65.5 -25t25.5 -65t-25.5 -65t-65.5 -25zM137 1434h131q27 0 27 -29v-1059q0 -88 45 -141t121 -53t121 53t45 141v1059q0 13 8 21
t20 8h129q29 0 29 -29v-1051q0 -167 -96.5 -272t-255.5 -105q-158 0 -254 105t-96 272v1051q0 29 26 29z" />
    <glyph glyph-name="Yacute" unicode="&#xdd;" horiz-adv-x="851" 
d="M344 1575q-17 0 -22 10.5t4 22.5l133 186q11 16 35 16h116q17 0 22 -10t-7 -24l-162 -185q-11 -16 -35 -16h-84zM362 0q-28 0 -28 29v440q-116 28 -186 124.5t-70 229.5v584q0 27 28 27h130q12 0 20 -7.5t8 -19.5v-592q0 -81 44.5 -133.5t117.5 -52.5t118.5 53t45.5 133
v592q0 27 26 27h129q29 0 29 -27v-584q0 -134 -69.5 -230t-186.5 -124v-440q0 -29 -26 -29h-130z" />
    <glyph glyph-name="Thorn" unicode="&#xde;" horiz-adv-x="854" 
d="M152 0q-29 0 -29 29v1378q0 27 29 27h129q28 0 28 -27v-238h152q146 0 243 -98t97 -246v-215q0 -148 -97 -246t-243 -98h-152v-237q0 -29 -28 -29h-129zM309 438h146q69 0 114 46t45 118v232q0 73 -45 119t-114 46h-146v-561z" />
    <glyph glyph-name="germandbls" unicode="&#xdf;" horiz-adv-x="831" 
d="M137 0q-26 0 -26 29v1104q0 142 87 232.5t220 90.5t222 -91t89 -232l-2 -162q0 -118 -119 -211q71 -42 115.5 -110.5t44.5 -149.5v-172q0 -141 -94 -235.5t-232 -96.5h-71q-11 0 -18 7t-7 17v117q0 12 7 19.5t18 7.5h71q64 0 107 45t43 113v184q0 67 -43 113.5t-105 46.5
h-75q-23 0 -23 24v113q0 24 23 24h51q56 0 94.5 38.5t38.5 92.5v181q0 66 -38.5 107.5t-96.5 41.5q-56 0 -93.5 -41.5t-37.5 -107.5l-2 -1110q0 -29 -29 -29h-119z" />
    <glyph glyph-name="agrave" unicode="&#xe0;" horiz-adv-x="796" 
d="M213 1386h115q22 0 32 -20l117 -188q9 -14 4 -23.5t-22 -9.5h-84q-24 0 -35 16l-143 191q-11 14 -6.5 24t22.5 10zM397 -20q-148 0 -239.5 91.5t-91.5 237.5q0 129 90 215t233 86h154v113q0 70 -40 113t-108 43q-63 0 -98.5 -38.5t-40.5 -103.5q-3 -24 -29 -24h-118
q-12 0 -19.5 8t-7.5 20q9 136 94.5 221t220.5 85q145 0 232.5 -93t87.5 -239v-412q0 -143 -87 -233t-233 -90zM395 147q70 0 109 42.5t39 113.5v150h-148q-70 0 -111.5 -41t-41.5 -103q0 -74 41 -118t112 -44z" />
    <glyph glyph-name="aacute" unicode="&#xe1;" horiz-adv-x="796" 
d="M553 1386q18 0 22.5 -10t-6.5 -24l-143 -191q-11 -16 -35 -16h-84q-17 0 -22 9.5t4 23.5l117 188q10 20 32 20h115zM397 -20q-148 0 -239.5 91.5t-91.5 237.5q0 129 90 215t233 86h154v113q0 70 -40 113t-108 43q-63 0 -98.5 -38.5t-40.5 -103.5q-3 -24 -29 -24h-118
q-12 0 -19.5 8t-7.5 20q9 136 94.5 221t220.5 85q145 0 232.5 -93t87.5 -239v-412q0 -143 -87 -233t-233 -90zM395 147q70 0 109 42.5t39 113.5v150h-148q-70 0 -111.5 -41t-41.5 -103q0 -74 41 -118t112 -44z" />
    <glyph glyph-name="acircumflex" unicode="&#xe2;" horiz-adv-x="796" 
d="M188 1145q-17 0 -22 10.5t4 22.5l133 190q10 18 33 18h121q22 0 32 -18l134 -190q9 -12 3.5 -22.5t-22.5 -10.5h-80q-24 0 -35 16l-92 117l-92 -117q-11 -16 -35 -16h-82zM397 -20q-148 0 -239.5 91.5t-91.5 237.5q0 129 90 215t233 86h154v113q0 70 -40 113t-108 43
q-63 0 -98.5 -38.5t-40.5 -103.5q-3 -24 -29 -24h-118q-12 0 -19.5 8t-7.5 20q9 136 94.5 221t220.5 85q145 0 232.5 -93t87.5 -239v-412q0 -143 -87 -233t-233 -90zM395 147q70 0 109 42.5t39 113.5v150h-148q-70 0 -111.5 -41t-41.5 -103q0 -74 41 -118t112 -44z" />
    <glyph glyph-name="atilde" unicode="&#xe3;" horiz-adv-x="796" 
d="M319 1233q-25 0 -34 -33q-9 -24 -31 -24h-68q-28 0 -28 26q5 60 44 106t105 46q34 0 65.5 -15.5t54.5 -31t38 -15.5q27 0 37 33q8 27 28 27h70q27 0 27 -29q-5 -61 -45.5 -105t-102.5 -44q-43 0 -93 29.5t-67 29.5zM397 -20q-148 0 -239.5 91.5t-91.5 237.5q0 129 90 215
t233 86h154v113q0 70 -40 113t-108 43q-63 0 -98.5 -38.5t-40.5 -103.5q-3 -24 -29 -24h-118q-12 0 -19.5 8t-7.5 20q9 136 94.5 221t220.5 85q145 0 232.5 -93t87.5 -239v-412q0 -143 -87 -233t-233 -90zM395 147q70 0 109 42.5t39 113.5v150h-148q-70 0 -111.5 -41
t-41.5 -103q0 -74 41 -118t112 -44z" />
    <glyph glyph-name="adieresis" unicode="&#xe4;" horiz-adv-x="796" 
d="M276 1163q-41 0 -65.5 25t-24.5 65t24.5 65t65.5 25q40 0 65.5 -25t25.5 -65t-25.5 -65t-65.5 -25zM518 1163q-40 0 -65 25t-25 65t25 65t65 25t65 -25t25 -65t-25 -65t-65 -25zM397 -20q-148 0 -239.5 91.5t-91.5 237.5q0 129 90 215t233 86h154v113q0 70 -40 113
t-108 43q-63 0 -98.5 -38.5t-40.5 -103.5q-3 -24 -29 -24h-118q-12 0 -19.5 8t-7.5 20q9 136 94.5 221t220.5 85q145 0 232.5 -93t87.5 -239v-412q0 -143 -87 -233t-233 -90zM395 147q70 0 109 42.5t39 113.5v150h-148q-70 0 -111.5 -41t-41.5 -103q0 -74 41 -118t112 -44z
" />
    <glyph glyph-name="aring" unicode="&#xe5;" horiz-adv-x="796" 
d="M244 1270q0 66 42 105.5t111 39.5q68 0 110 -39.5t42 -105.5q0 -67 -42 -108.5t-110 -41.5q-69 0 -111 41t-42 109zM342 1268q0 -25 14.5 -40.5t40.5 -15.5q25 0 40.5 15.5t15.5 40.5t-15.5 40t-40.5 15q-26 0 -40.5 -15t-14.5 -40zM397 -20q-148 0 -239.5 91.5
t-91.5 237.5q0 129 90 215t233 86h154v113q0 70 -40 113t-108 43q-63 0 -98.5 -38.5t-40.5 -103.5q-3 -24 -29 -24h-118q-12 0 -19.5 8t-7.5 20q9 136 94.5 221t220.5 85q145 0 232.5 -93t87.5 -239v-412q0 -143 -87 -233t-233 -90zM395 147q70 0 109 42.5t39 113.5v150
h-148q-70 0 -111.5 -41t-41.5 -103q0 -74 41 -118t112 -44z" />
    <glyph glyph-name="ae" unicode="&#xe6;" horiz-adv-x="1228" 
d="M387 -23q-143 0 -232 89.5t-89 228.5q0 129 93 216t232 87h135v125q0 68 -39 112t-98 44q-58 0 -95 -38t-42 -100q0 -24 -27 -24h-119q-28 0 -28 28q9 133 96 217.5t217 84.5q136 0 223 -123q94 123 232 123q141 0 229 -87t88 -225q0 -131 -90 -216t-237 -85h-134v-129
q0 -73 38.5 -116.5t105.5 -43.5q125 0 137 152q3 27 29 27h118q29 0 29 -27q-9 -146 -93 -233t-222 -87q-144 0 -226 121q-86 -121 -231 -121zM702 594h134q74 0 112.5 37.5t38.5 101.5q0 70 -36.5 108t-104.5 38q-65 0 -104.5 -43t-39.5 -113v-129zM383 145q67 0 105 43.5
t38 114.5v137h-131q-68 0 -110.5 -41.5t-42.5 -103.5q0 -68 38 -109t103 -41z" />
    <glyph glyph-name="ccedilla" unicode="&#xe7;" horiz-adv-x="788" 
d="M729 303q-7 -132 -81.5 -219t-194.5 -104l-13 -70h13q64 -5 107.5 -48t43.5 -106q0 -81 -53.5 -127.5t-138.5 -46.5q-75 0 -126.5 40t-60.5 110q-1 12 6 19t21 7h55q20 0 29 -22q15 -47 76 -47q35 0 57.5 18t22.5 49q0 28 -22 46t-56 18q-26 0 -72 -8q-10 -4 -18 4l-7 6
q-10 10 -8 20l29 142q-118 22 -188 110.5t-70 216.5v402q0 147 88.5 240.5t232.5 93.5q137 0 224 -86.5t96 -227.5q1 -12 -6 -19t-21 -7h-121q-25 0 -28 26q-6 69 -43.5 107.5t-100.5 38.5q-67 0 -106 -43.5t-39 -116.5v-414q0 -73 39.5 -116.5t107.5 -43.5q64 0 104 42.5
t46 117.5q3 29 27 29h122q27 0 27 -31z" />
    <glyph glyph-name="egrave" unicode="&#xe8;" horiz-adv-x="798" 
d="M217 1386h115q23 0 33 -20l116 -188q9 -14 4 -23.5t-22 -9.5h-84q-24 0 -35 16l-143 191q-11 14 -6.5 24t22.5 10zM403 -20q-145 0 -234 91.5t-89 241.5v402q2 147 90.5 238t235.5 91q144 1 235.5 -90t91.5 -233q0 -136 -90 -222.5t-235 -86.5h-152v-107q0 -72 40.5 -116
t109.5 -44q62 0 101 42t44 110q3 27 29 27h120q12 0 19.5 -7.5t7.5 -19.5q-7 -142 -96.5 -229.5t-227.5 -87.5zM256 571h152q69 0 109 40t40 106q0 74 -40.5 118t-110.5 44q-71 0 -110.5 -43.5t-39.5 -118.5v-146z" />
    <glyph glyph-name="eacute" unicode="&#xe9;" horiz-adv-x="798" 
d="M557 1386q18 0 22.5 -10t-6.5 -24l-143 -191q-11 -16 -35 -16h-84q-17 0 -22 9.5t4 23.5l117 188q10 20 32 20h115zM403 -20q-145 0 -234 91.5t-89 241.5v402q2 147 90.5 238t235.5 91q144 1 235.5 -90t91.5 -233q0 -136 -90 -222.5t-235 -86.5h-152v-107
q0 -72 40.5 -116t109.5 -44q62 0 101 42t44 110q3 27 29 27h120q12 0 19.5 -7.5t7.5 -19.5q-7 -142 -96.5 -229.5t-227.5 -87.5zM256 571h152q69 0 109 40t40 106q0 74 -40.5 118t-110.5 44q-71 0 -110.5 -43.5t-39.5 -118.5v-146z" />
    <glyph glyph-name="ecircumflex" unicode="&#xea;" horiz-adv-x="798" 
d="M193 1145q-17 0 -22.5 10.5t3.5 22.5l133 190q10 18 33 18h121q23 0 33 -18l133 -190q9 -12 3.5 -22.5t-22.5 -10.5h-80q-23 0 -34 16l-93 117l-92 -117q-11 -16 -35 -16h-81zM403 -20q-145 0 -234 91.5t-89 241.5v402q2 147 90.5 238t235.5 91q144 1 235.5 -90
t91.5 -233q0 -136 -90 -222.5t-235 -86.5h-152v-107q0 -72 40.5 -116t109.5 -44q62 0 101 42t44 110q3 27 29 27h120q12 0 19.5 -7.5t7.5 -19.5q-7 -142 -96.5 -229.5t-227.5 -87.5zM256 571h152q69 0 109 40t40 106q0 74 -40.5 118t-110.5 44q-71 0 -110.5 -43.5
t-39.5 -118.5v-146z" />
    <glyph glyph-name="edieresis" unicode="&#xeb;" horiz-adv-x="798" 
d="M281 1163q-41 0 -66 25t-25 65t25 65t66 25q40 0 65 -25t25 -65t-25 -65t-65 -25zM522 1163q-40 0 -65 25t-25 65t25 65t65 25t65 -25t25 -65t-25 -65t-65 -25zM403 -20q-145 0 -234 91.5t-89 241.5v402q2 147 90.5 238t235.5 91q144 1 235.5 -90t91.5 -233
q0 -136 -90 -222.5t-235 -86.5h-152v-107q0 -72 40.5 -116t109.5 -44q62 0 101 42t44 110q3 27 29 27h120q12 0 19.5 -7.5t7.5 -19.5q-7 -142 -96.5 -229.5t-227.5 -87.5zM256 571h152q69 0 109 40t40 106q0 74 -40.5 118t-110.5 44q-71 0 -110.5 -43.5t-39.5 -118.5v-146z
" />
    <glyph glyph-name="igrave" unicode="&#xec;" horiz-adv-x="401" 
d="M16 1386h115q23 0 33 -20l117 -188q9 -14 3.5 -23.5t-22.5 -9.5h-84q-24 0 -35 16l-143 191q-11 14 -6.5 24t22.5 10zM141 0q-28 0 -28 29v968q0 27 28 27h119q29 0 29 -27v-968q0 -29 -29 -29h-119z" />
    <glyph glyph-name="iacute" unicode="&#xed;" horiz-adv-x="401" 
d="M356 1386q18 0 23 -10t-6 -24l-144 -191q-11 -16 -34 -16h-84q-17 0 -22.5 9.5t3.5 23.5l117 188q10 20 33 20h114zM141 0q-28 0 -28 29v968q0 27 28 27h119q29 0 29 -27v-968q0 -29 -29 -29h-119z" />
    <glyph glyph-name="icircumflex" unicode="&#xee;" horiz-adv-x="462" 
d="M51 1145q-17 0 -22 10.5t4 22.5l133 190q10 18 33 18h120q23 0 33 -18l133 -190q9 -12 4 -22.5t-22 -10.5h-80q-24 0 -35 16l-92 117l-92 -117q-11 -16 -35 -16h-82zM201 0q-29 0 -29 29v968q0 27 29 27h118q29 0 29 -27v-968q0 -29 -29 -29h-118z" />
    <glyph glyph-name="idieresis" unicode="&#xef;" horiz-adv-x="411" 
d="M98 1167q-37 0 -59.5 23t-24.5 61q2 38 24.5 61t59.5 23t61.5 -23t24.5 -61t-24.5 -61t-61.5 -23zM317 1167q-38 0 -62 23t-24 61t24 61t62 23q36 0 59 -23t23 -61t-23 -61t-59 -23zM147 0q-28 0 -28 29v968q0 27 28 27h119q29 0 29 -27v-968q0 -29 -29 -29h-119z" />
    <glyph glyph-name="eth" unicode="&#xf0;" horiz-adv-x="845" 
d="M653 1284q78 -110 78 -272v-697q0 -151 -88.5 -244.5t-236.5 -93.5q-147 0 -236.5 94t-89.5 244v392q0 147 84 239t223 92q105 0 170 -75v61q0 100 -51 170l-168 -100q-11 -7 -19 0t-8 20v51q0 19 21 29l104 63q-58 37 -143 37h-49q-27 0 -27 29v104q0 12 7.5 19.5
t19.5 7.5h51q180 0 297 -100l108 65q11 6 19 -0.5t8 -19.5v-51q0 -18 -20 -31zM557 309v404q0 71 -40.5 115t-110.5 44t-110 -43.5t-40 -115.5v-404q0 -76 40 -120t110 -44q71 0 111 44t40 120z" />
    <glyph glyph-name="ntilde" unicode="&#xf1;" horiz-adv-x="831" 
d="M338 1233q-26 0 -35 -33q-9 -24 -31 -24h-67q-29 0 -29 26q5 60 44.5 106t105.5 46q34 0 65 -15.5t54 -31t38 -15.5q27 0 37 33q8 27 29 27h69q27 0 27 -29q-5 -62 -45 -105.5t-102 -43.5q-43 0 -93 29.5t-67 29.5zM125 0q-29 0 -29 29v684q0 147 89 240.5t231 93.5
t230.5 -93.5t88.5 -240.5v-684q0 -29 -28 -29h-119q-29 0 -29 29v690q0 73 -38 117.5t-105 44.5t-105.5 -44.5t-38.5 -117.5v-690q0 -29 -28 -29h-119z" />
    <glyph glyph-name="ograve" unicode="&#xf2;" horiz-adv-x="817" 
d="M225 1386h115q23 0 33 -20l116 -188q9 -14 4 -23.5t-22 -9.5h-84q-24 0 -35 16l-143 191q-11 14 -6.5 24t22.5 10zM408 -23q-147 0 -237.5 93.5t-90.5 240.5v402q0 147 90.5 240.5t237.5 93.5q148 0 237.5 -93t89.5 -241v-402q0 -148 -89.5 -241t-237.5 -93zM408 143
q70 0 110.5 44.5t40.5 117.5v414q0 73 -40.5 117.5t-110.5 44.5t-110 -44.5t-40 -117.5v-414q0 -73 40 -117.5t110 -44.5z" />
    <glyph glyph-name="oacute" unicode="&#xf3;" horiz-adv-x="817" 
d="M565 1386q18 0 23 -10t-6 -24l-144 -191q-11 -16 -35 -16h-84q-17 0 -22 9.5t4 23.5l117 188q10 20 33 20h114zM408 -23q-147 0 -237.5 93.5t-90.5 240.5v402q0 147 90.5 240.5t237.5 93.5q148 0 237.5 -93t89.5 -241v-402q0 -148 -89.5 -241t-237.5 -93zM408 143
q70 0 110.5 44.5t40.5 117.5v414q0 73 -40.5 117.5t-110.5 44.5t-110 -44.5t-40 -117.5v-414q0 -73 40 -117.5t110 -44.5z" />
    <glyph glyph-name="ocircumflex" unicode="&#xf4;" horiz-adv-x="817" 
d="M201 1145q-17 0 -22.5 10.5t3.5 22.5l133 190q10 18 33 18h121q23 0 33 -18l133 -190q9 -12 3.5 -22.5t-22.5 -10.5h-79q-24 0 -35 16l-92 117l-93 -117q-11 -16 -34 -16h-82zM408 -23q-147 0 -237.5 93.5t-90.5 240.5v402q0 147 90.5 240.5t237.5 93.5q148 0 237.5 -93
t89.5 -241v-402q0 -148 -89.5 -241t-237.5 -93zM408 143q70 0 110.5 44.5t40.5 117.5v414q0 73 -40.5 117.5t-110.5 44.5t-110 -44.5t-40 -117.5v-414q0 -73 40 -117.5t110 -44.5z" />
    <glyph glyph-name="otilde" unicode="&#xf5;" horiz-adv-x="817" 
d="M332 1233q-26 0 -35 -33q-9 -24 -31 -24h-67q-29 0 -29 26q5 60 44 106t105 46q34 0 65.5 -15.5t54.5 -31t38 -15.5q27 0 37 33q8 27 29 27h69q27 0 27 -29q-5 -62 -45 -105.5t-102 -43.5q-43 0 -93 29.5t-67 29.5zM408 -23q-147 0 -237.5 93.5t-90.5 240.5v402
q0 147 90.5 240.5t237.5 93.5q148 0 237.5 -93t89.5 -241v-402q0 -148 -89.5 -241t-237.5 -93zM408 143q70 0 110.5 44.5t40.5 117.5v414q0 73 -40.5 117.5t-110.5 44.5t-110 -44.5t-40 -117.5v-414q0 -73 40 -117.5t110 -44.5z" />
    <glyph glyph-name="odieresis" unicode="&#xf6;" horiz-adv-x="817" 
d="M289 1163q-41 0 -65.5 25t-24.5 65t24.5 65t65.5 25q40 0 65 -25t25 -65t-25 -65t-65 -25zM530 1163q-40 0 -65 25t-25 65t25 65t65 25t65.5 -25t25.5 -65t-25.5 -65t-65.5 -25zM408 -23q-147 0 -237.5 93.5t-90.5 240.5v402q0 147 90.5 240.5t237.5 93.5
q148 0 237.5 -93t89.5 -241v-402q0 -148 -89.5 -241t-237.5 -93zM408 143q70 0 110.5 44.5t40.5 117.5v414q0 73 -40.5 117.5t-110.5 44.5t-110 -44.5t-40 -117.5v-414q0 -73 40 -117.5t110 -44.5z" />
    <glyph glyph-name="divide" unicode="&#xf7;" horiz-adv-x="956" 
d="M479 926q-49 0 -81.5 32t-32.5 82t32.5 82.5t81.5 32.5t82 -32.5t33 -82.5q0 -49 -32.5 -81.5t-82.5 -32.5zM117 653q-29 0 -29 29v104q0 29 29 29h725q26 0 26 -29v-104q0 -29 -26 -29h-725zM479 299q-49 0 -81.5 32.5t-32.5 82.5q0 51 32 83.5t82 32.5t82.5 -32.5
t32.5 -83.5q0 -50 -33 -82.5t-82 -32.5z" />
    <glyph glyph-name="oslash" unicode="&#xf8;" horiz-adv-x="817" 
d="M596 993q66 -43 102.5 -115.5t36.5 -164.5v-402q0 -148 -89.5 -241t-237.5 -93q-38 0 -91 11l-16 -58q-6 -22 -31 -22h-67q-15 0 -22 9t-3 22l29 100q-127 94 -127 272v402q0 147 90.5 240.5t237.5 93.5q40 0 77 -9l15 56q3 22 30 22h68q14 0 21 -9t4 -22zM258 305
q0 -31 6 -55l176 629q-10 2 -32 2q-70 0 -110 -44.5t-40 -117.5v-414zM559 305v414q0 43 -16 80l-181 -649q24 -7 46 -7q70 0 110.5 44.5t40.5 117.5z" />
    <glyph glyph-name="ugrave" unicode="&#xf9;" horiz-adv-x="831" 
d="M227 1386h115q23 0 33 -20l117 -188q9 -14 3.5 -23.5t-22.5 -9.5h-84q-24 0 -35 16l-143 191q-11 14 -6.5 24t22.5 10zM125 1024h119q28 0 28 -29v-690q0 -73 38.5 -117.5t105.5 -44.5t105 44.5t38 117.5v690q0 29 29 29h119q28 0 28 -29v-684q0 -147 -88.5 -240.5
t-230.5 -93.5t-231 93.5t-89 240.5v684q0 29 29 29z" />
    <glyph glyph-name="uacute" unicode="&#xfa;" horiz-adv-x="831" 
d="M567 1386q18 0 23 -10t-6 -24l-144 -191q-11 -16 -34 -16h-84q-17 0 -22.5 9.5t3.5 23.5l117 188q10 20 33 20h114zM125 1024h119q28 0 28 -29v-690q0 -73 38.5 -117.5t105.5 -44.5t105 44.5t38 117.5v690q0 29 29 29h119q28 0 28 -29v-684q0 -147 -88.5 -240.5
t-230.5 -93.5t-231 93.5t-89 240.5v684q0 29 29 29z" />
    <glyph glyph-name="ucircumflex" unicode="&#xfb;" horiz-adv-x="831" 
d="M203 1145q-17 0 -22.5 10.5t3.5 22.5l133 190q10 18 33 18h121q23 0 33 -18l133 -190q9 -12 3.5 -22.5t-22.5 -10.5h-79q-24 0 -35 16l-92 117l-93 -117q-11 -16 -34 -16h-82zM125 1024h119q28 0 28 -29v-690q0 -73 38.5 -117.5t105.5 -44.5t105 44.5t38 117.5v690
q0 29 29 29h119q28 0 28 -29v-684q0 -147 -88.5 -240.5t-230.5 -93.5t-231 93.5t-89 240.5v684q0 29 29 29z" />
    <glyph glyph-name="udieresis" unicode="&#xfc;" horiz-adv-x="831" 
d="M291 1163q-41 0 -65.5 25t-24.5 65t24.5 65t65.5 25q40 0 65 -25t25 -65t-25 -65t-65 -25zM532 1163q-40 0 -65 25t-25 65t25 65t65 25t65.5 -25t25.5 -65t-25.5 -65t-65.5 -25zM125 1024h119q28 0 28 -29v-690q0 -73 38.5 -117.5t105.5 -44.5t105 44.5t38 117.5v690
q0 29 29 29h119q28 0 28 -29v-684q0 -147 -88.5 -240.5t-230.5 -93.5t-231 93.5t-89 240.5v684q0 29 29 29z" />
    <glyph glyph-name="yacute" unicode="&#xfd;" horiz-adv-x="856" 
d="M336 1145q-17 0 -22.5 9.5t3.5 23.5l117 188q10 20 33 20h115q18 0 22.5 -10t-6.5 -24l-143 -191q-11 -16 -35 -16h-84zM715 1024q12 0 20 -7.5t8 -19.5v-1095q0 -152 -87.5 -243t-235.5 -91q-140 0 -227.5 89.5t-94.5 240.5q-3 28 27 28h121q23 0 26 -28
q5 -77 43.5 -119.5t104.5 -42.5q70 0 108.5 42.5t38.5 117.5v206q-63 -73 -161 -73q-135 0 -222.5 92.5t-87.5 238.5v637q0 27 29 27h119q28 0 28 -27v-643q0 -71 40 -115t108 -44t107.5 43.5t39.5 115.5v643q0 27 29 27h119z" />
    <glyph glyph-name="thorn" unicode="&#xfe;" horiz-adv-x="837" 
d="M141 -410q-28 0 -28 27v1790q0 27 28 27h119q29 0 29 -27v-436q63 76 166 76q135 0 218 -93.5t83 -240.5v-402q0 -146 -86 -240t-217 -94q-94 0 -164 76v-436q0 -27 -29 -27h-119zM434 145q68 0 108 43.5t40 116.5v414q0 73 -40 116.5t-108 43.5q-67 0 -106 -43.5
t-39 -116.5v-414q0 -73 39 -116.5t106 -43.5z" />
    <glyph glyph-name="ydieresis" unicode="&#xff;" horiz-adv-x="856" 
d="M305 1163q-41 0 -65.5 25t-24.5 65t24.5 65t65.5 25q40 0 65 -25t25 -65t-25 -65t-65 -25zM547 1163q-40 0 -65 25t-25 65t25 65t65 25t65 -25t25 -65t-25 -65t-65 -25zM715 1024q12 0 20 -7.5t8 -19.5v-1095q0 -152 -87.5 -243t-235.5 -91q-140 0 -227.5 89.5
t-94.5 240.5q-3 28 27 28h121q23 0 26 -28q5 -77 43.5 -119.5t104.5 -42.5q70 0 108.5 42.5t38.5 117.5v206q-63 -73 -161 -73q-135 0 -222.5 92.5t-87.5 238.5v637q0 27 29 27h119q28 0 28 -27v-643q0 -71 40 -115t108 -44t107.5 43.5t39.5 115.5v643q0 27 29 27h119z" />
    <glyph glyph-name="Amacron" unicode="&#x100;" horiz-adv-x="923" 
d="M283 1714q0 27 28 27h299q12 0 19.5 -7.5t7.5 -19.5v-72q0 -12 -7.5 -20t-19.5 -8h-299q-28 0 -28 28v72zM137 0q-26 0 -26 29v1048q0 169 96 273t254 104t255 -104t97 -273v-1048q0 -29 -29 -29h-129q-12 0 -20 8t-8 21v454h-332v-454q0 -29 -27 -29h-131zM295 653h332
v432q0 93 -43.5 144t-122.5 51q-78 0 -122 -51.5t-44 -143.5v-432z" />
    <glyph glyph-name="amacron" unicode="&#x101;" horiz-adv-x="796" 
d="M219 1303q0 26 29 26h299q26 0 26 -26v-72q0 -12 -7 -20.5t-19 -8.5h-299q-13 0 -21 8.5t-8 20.5v72zM397 -20q-148 0 -239.5 91.5t-91.5 237.5q0 129 90 215t233 86h154v113q0 70 -40 113t-108 43q-63 0 -98.5 -38.5t-40.5 -103.5q-3 -24 -29 -24h-118q-12 0 -19.5 8
t-7.5 20q9 136 94.5 221t220.5 85q145 0 232.5 -93t87.5 -239v-412q0 -143 -87 -233t-233 -90zM395 147q70 0 109 42.5t39 113.5v150h-148q-70 0 -111.5 -41t-41.5 -103q0 -74 41 -118t112 -44z" />
    <glyph glyph-name="Abreve" unicode="&#x102;" horiz-adv-x="923" 
d="M461 1573q-99 0 -163 55t-73 148q-1 13 6.5 20.5t20.5 7.5h80q21 0 30 -24q6 -36 32 -56t67 -20t67.5 20.5t32.5 55.5q6 24 29 24h80q28 0 28 -28q-11 -93 -74 -148t-163 -55zM137 0q-26 0 -26 29v1048q0 169 96 273t254 104t255 -104t97 -273v-1048q0 -29 -29 -29h-129
q-12 0 -20 8t-8 21v454h-332v-454q0 -29 -27 -29h-131zM295 653h332v432q0 93 -43.5 144t-122.5 51q-78 0 -122 -51.5t-44 -143.5v-432z" />
    <glyph glyph-name="abreve" unicode="&#x103;" horiz-adv-x="796" 
d="M397 1149q-100 0 -164 55.5t-73 149.5q0 28 26 28h80q25 0 31 -26q13 -74 100 -74q86 0 99 74q9 26 30 26h80q27 0 27 -28q-9 -93 -73 -149t-163 -56zM397 -20q-148 0 -239.5 91.5t-91.5 237.5q0 129 90 215t233 86h154v113q0 70 -40 113t-108 43q-63 0 -98.5 -38.5
t-40.5 -103.5q-3 -24 -29 -24h-118q-12 0 -19.5 8t-7.5 20q9 136 94.5 221t220.5 85q145 0 232.5 -93t87.5 -239v-412q0 -143 -87 -233t-233 -90zM395 147q70 0 109 42.5t39 113.5v150h-148q-70 0 -111.5 -41t-41.5 -103q0 -74 41 -118t112 -44z" />
    <glyph glyph-name="Aogonek" unicode="&#x104;" horiz-adv-x="935" 
d="M752 -418q-117 0 -173.5 46.5t-56.5 131.5q0 111 101 240v483h-326v-454q0 -29 -27 -29h-133q-26 0 -26 29v1048q0 169 96 273t254 104t254 -104t96 -273v-1048q0 -23 -25 -45q-46 -39 -74 -86t-28 -88q0 -40 26 -61t72 -21h17q26 0 26 -27v-88q0 -29 -24 -29
q-8 0 -24.5 -1t-24.5 -1zM297 653h326v432q0 92 -42.5 143.5t-119.5 51.5q-78 0 -121 -51.5t-43 -143.5v-432z" />
    <glyph glyph-name="aogonek" unicode="&#x105;" horiz-adv-x="798" 
d="M616 -418q-124 -13 -204 31t-80 141q0 99 98 228q-22 -5 -45 -5q-144 4 -231.5 96t-87.5 234q0 129 93 216t232 87h152v113q0 69 -41.5 112.5t-104.5 43.5q-61 0 -99.5 -38t-43.5 -100q0 -24 -27 -24h-118q-30 0 -27 28q9 133 97.5 217.5t219.5 84.5q139 0 228.5 -93.5
t89.5 -238.5v-453q0 -121 -92 -213q-53 -54 -90 -126.5t-37 -121.5q0 -73 116 -73q29 0 29 -27v-92q0 -12 -7.5 -19.5t-19.5 -7.5zM395 145q68 0 108 32t40 85v191h-148q-66 0 -109.5 -42t-43.5 -104q0 -73 41 -117.5t112 -44.5z" />
    <glyph glyph-name="Cacute" unicode="&#x106;" horiz-adv-x="839" 
d="M346 1575q-17 0 -22 10.5t4 22.5l133 186q11 16 35 16h116q17 0 22 -10t-7 -24l-162 -185q-11 -16 -35 -16h-84zM438 -23q-157 0 -253.5 101.5t-96.5 267.5v741q0 166 96.5 267.5t253.5 101.5q151 0 245.5 -107t98.5 -286q0 -27 -26 -27h-131q-27 0 -27 27
q-3 105 -46.5 162t-115.5 57q-76 0 -119 -49t-43 -135v-762q0 -86 43 -135t119 -49q79 0 124 60.5t48 172.5q0 27 27 27h131q27 0 27 -29q-6 -186 -102 -296t-253 -110z" />
    <glyph glyph-name="cacute" unicode="&#x107;" horiz-adv-x="788" 
d="M555 1386q18 0 22.5 -10t-6.5 -24l-143 -191q-11 -16 -35 -16h-84q-17 0 -22 9.5t4 23.5l117 188q10 20 32 20h115zM406 -23q-145 0 -235.5 93.5t-90.5 240.5v402q0 147 88.5 240.5t232.5 93.5q137 0 224 -86.5t96 -227.5q1 -12 -6 -19t-21 -7h-121q-25 0 -28 26
q-6 69 -43.5 107.5t-100.5 38.5q-67 0 -106 -43.5t-39 -116.5v-414q0 -73 39.5 -116.5t107.5 -43.5q64 0 104 42.5t46 117.5q3 29 27 29h122q27 0 27 -31q-9 -146 -97 -236t-226 -90z" />
    <glyph glyph-name="Cdotaccent" unicode="&#x10a;" horiz-adv-x="839" 
d="M428 1577q-45 0 -74.5 29.5t-29.5 74.5q0 46 29.5 76.5t74.5 30.5t76 -31t31 -76q0 -42 -31.5 -73t-75.5 -31zM438 -23q-157 0 -253.5 101.5t-96.5 267.5v741q0 166 96.5 267.5t253.5 101.5q151 0 245.5 -107t98.5 -286q0 -27 -26 -27h-131q-27 0 -27 27
q-3 105 -46.5 162t-115.5 57q-76 0 -119 -49t-43 -135v-762q0 -86 43 -135t119 -49q79 0 124 60.5t48 172.5q0 27 27 27h131q27 0 27 -29q-6 -186 -102 -296t-253 -110z" />
    <glyph glyph-name="cdotaccent" unicode="&#x10b;" horiz-adv-x="788" 
d="M399 1153q-45 0 -74.5 29.5t-29.5 74.5q0 46 29.5 76.5t74.5 30.5t76 -31t31 -76q0 -42 -31.5 -73t-75.5 -31zM406 -23q-145 0 -235.5 93.5t-90.5 240.5v402q0 147 88.5 240.5t232.5 93.5q137 0 224 -86.5t96 -227.5q1 -12 -6 -19t-21 -7h-121q-25 0 -28 26
q-6 69 -43.5 107.5t-100.5 38.5q-67 0 -106 -43.5t-39 -116.5v-414q0 -73 39.5 -116.5t107.5 -43.5q64 0 104 42.5t46 117.5q3 29 27 29h122q27 0 27 -31q-9 -146 -97 -236t-226 -90z" />
    <glyph glyph-name="Ccaron" unicode="&#x10c;" horiz-adv-x="839" 
d="M666 1778l-142 -187q-13 -16 -35 -16h-127q-21 0 -34 16l-142 187q-9 14 -3.5 23t20.5 9h84q21 0 32 -14l107 -125l106 125q11 14 33 14h84q15 0 20.5 -9t-3.5 -23zM438 -23q-157 0 -253.5 101.5t-96.5 267.5v741q0 166 96.5 267.5t253.5 101.5q151 0 245.5 -107
t98.5 -286q0 -27 -26 -27h-131q-27 0 -27 27q-3 105 -46.5 162t-115.5 57q-76 0 -119 -49t-43 -135v-762q0 -86 43 -135t119 -49q79 0 124 60.5t48 172.5q0 27 27 27h131q27 0 27 -29q-6 -186 -102 -296t-253 -110z" />
    <glyph glyph-name="ccaron" unicode="&#x10d;" horiz-adv-x="788" 
d="M190 1386h82q24 0 35 -16l92 -117l93 117q11 16 34 16h80q17 0 22.5 -10t-3.5 -22l-133 -191q-10 -18 -33 -18h-121q-23 0 -33 18l-133 191q-9 12 -4 22t22 10zM406 -23q-145 0 -235.5 93.5t-90.5 240.5v402q0 147 88.5 240.5t232.5 93.5q137 0 224 -86.5t96 -227.5
q1 -12 -6 -19t-21 -7h-121q-25 0 -28 26q-6 69 -43.5 107.5t-100.5 38.5q-67 0 -106 -43.5t-39 -116.5v-414q0 -73 39.5 -116.5t107.5 -43.5q64 0 104 42.5t46 117.5q3 29 27 29h122q27 0 27 -31q-9 -146 -97 -236t-226 -90z" />
    <glyph glyph-name="Dcaron" unicode="&#x10e;" horiz-adv-x="911" 
d="M674 1778l-142 -187q-13 -16 -34 -16h-127q-22 0 -35 16l-141 187q-9 14 -4 23t20 9h84q22 0 33 -14l106 -125l107 125q11 14 32 14h84q15 0 20.5 -9t-3.5 -23zM207 -6q-40 0 -62 21t-22 61v1282q0 40 22 61t62 21h264q159 0 254.5 -103.5t95.5 -267.5v-704
q0 -163 -96 -267t-254 -104h-264zM309 166h156q79 0 124.5 53t45.5 141v713q0 89 -44.5 142t-125.5 53h-156v-1102z" />
    <glyph glyph-name="dcaron" unicode="&#x10f;" horiz-adv-x="1017" 
d="M969 1438q13 0 20.5 -8.5t5.5 -22.5l-67 -348q-3 -25 -29 -25h-65q-27 0 -27 29l20 348q0 27 29 27h113zM705 1434q28 0 28 -27v-1096q0 -147 -90 -240.5t-235 -93.5q-147 0 -236.5 93.5t-89.5 240.5v402q0 147 84 240.5t221 93.5q104 0 170 -76v436q0 27 29 27h119z
M557 305v414q0 73 -39.5 116.5t-109.5 43.5t-111 -43.5t-41 -116.5v-414q0 -73 41 -116.5t111 -43.5t109.5 43.5t39.5 116.5z" />
    <glyph glyph-name="Dcroat" unicode="&#x110;" horiz-adv-x="985" 
d="M547 1440q159 0 254.5 -103.5t95.5 -267.5v-704q0 -163 -96 -267t-254 -104h-264q-40 0 -62 21t-22 61v588h-99q-28 0 -28 26v78q0 27 28 27h99v563q0 40 22 61t62 21h264zM711 360v713q0 89 -44.5 142t-125.5 53h-156v-473h111q26 0 26 -27v-78q0 -26 -26 -26h-111v-498
h156q79 0 124.5 53t45.5 141z" />
    <glyph glyph-name="dcroat" unicode="&#x111;" horiz-adv-x="851" 
d="M815 1305q11 0 19 -7.5t8 -19.5v-53q0 -12 -8 -20.5t-19 -8.5h-82v-885q0 -147 -90 -240.5t-235 -93.5q-147 0 -236.5 93.5t-89.5 240.5v402q0 147 84 240.5t221 93.5q104 0 170 -76v225h-162q-12 0 -19 8.5t-7 20.5v53q0 27 26 27h162v102q0 27 29 27h119q28 0 28 -27
v-102h82zM557 305v414q0 73 -39.5 116.5t-109.5 43.5t-111 -43.5t-41 -116.5v-414q0 -73 41 -116.5t111 -43.5t109.5 43.5t39.5 116.5z" />
    <glyph glyph-name="Emacron" unicode="&#x112;" horiz-adv-x="739" 
d="M242 1714q0 27 28 27h299q12 0 19.5 -7.5t7.5 -19.5v-72q0 -12 -7.5 -20t-19.5 -8h-299q-28 0 -28 28v72zM438 -6q-154 0 -252 103.5t-98 262.5v713q0 159 98 263t252 104h215q12 0 19.5 -7.5t7.5 -19.5v-117q0 -28 -27 -28h-200q-79 0 -129 -55.5t-50 -143.5v-260h328
q29 0 29 -29v-110q0 -29 -29 -29h-328v-276q0 -88 50 -143.5t129 -55.5h200q27 0 27 -29v-117q0 -26 -27 -26h-215z" />
    <glyph glyph-name="emacron" unicode="&#x113;" horiz-adv-x="798" 
d="M223 1303q0 26 29 26h299q27 0 27 -26v-72q0 -12 -7.5 -20.5t-19.5 -8.5h-299q-13 0 -21 8.5t-8 20.5v72zM403 -20q-145 0 -234 91.5t-89 241.5v402q2 147 90.5 238t235.5 91q144 1 235.5 -90t91.5 -233q0 -136 -90 -222.5t-235 -86.5h-152v-107q0 -72 40.5 -116
t109.5 -44q62 0 101 42t44 110q3 27 29 27h120q12 0 19.5 -7.5t7.5 -19.5q-7 -142 -96.5 -229.5t-227.5 -87.5zM256 571h152q69 0 109 40t40 106q0 74 -40.5 118t-110.5 44q-71 0 -110.5 -43.5t-39.5 -118.5v-146z" />
    <glyph glyph-name="Edotaccent" unicode="&#x116;" horiz-adv-x="739" 
d="M420 1577q-46 0 -75.5 29.5t-29.5 74.5q0 46 29.5 76.5t75.5 30.5q44 0 75 -31t31 -76q0 -42 -31 -73t-75 -31zM438 -6q-154 0 -252 103.5t-98 262.5v713q0 159 98 263t252 104h215q12 0 19.5 -7.5t7.5 -19.5v-117q0 -28 -27 -28h-200q-79 0 -129 -55.5t-50 -143.5v-260
h328q29 0 29 -29v-110q0 -29 -29 -29h-328v-276q0 -88 50 -143.5t129 -55.5h200q27 0 27 -29v-117q0 -26 -27 -26h-215z" />
    <glyph glyph-name="edotaccent" unicode="&#x117;" horiz-adv-x="798" 
d="M401 1153q-45 0 -74.5 29.5t-29.5 74.5q0 46 29.5 76.5t74.5 30.5t76 -31t31 -76q0 -42 -31.5 -73t-75.5 -31zM403 -20q-145 0 -234 91.5t-89 241.5v402q2 147 90.5 238t235.5 91q144 1 235.5 -90t91.5 -233q0 -136 -90 -222.5t-235 -86.5h-152v-107q0 -72 40.5 -116
t109.5 -44q62 0 101 42t44 110q3 27 29 27h120q12 0 19.5 -7.5t7.5 -19.5q-7 -142 -96.5 -229.5t-227.5 -87.5zM256 571h152q69 0 109 40t40 106q0 74 -40.5 118t-110.5 44q-71 0 -110.5 -43.5t-39.5 -118.5v-146z" />
    <glyph glyph-name="Eogonek" unicode="&#x118;" horiz-adv-x="747" 
d="M453 1268q-79 0 -129 -55.5t-50 -143.5v-260h328q29 0 29 -29v-110q0 -29 -29 -29h-328v-276q0 -88 50 -143.5t129 -55.5h200q27 0 27 -29v-117q0 -26 -27 -26h-57q-47 -41 -75.5 -91t-28.5 -93q0 -40 26 -61t72 -21h16q27 0 27 -27v-88q0 -27 -25 -27q-32 -4 -49 -4
q-116 0 -172.5 46.5t-56.5 131.5q0 109 104 234q-153 1 -249.5 104.5t-96.5 261.5v713q0 159 98 263t252 104h215q12 0 19.5 -7.5t7.5 -19.5v-117q0 -28 -27 -28h-200z" />
    <glyph glyph-name="eogonek" unicode="&#x119;" horiz-adv-x="798" 
d="M592 -418q-68 -14 -133 1.5t-109.5 61.5t-44.5 113q0 57 25.5 119.5t68.5 108.5q-22 -4 -41 0q-125 6 -201.5 98t-76.5 227v408q0 142 90 235t231 93q144 0 234 -89.5t90 -232.5q0 -138 -92 -224.5t-234 -86.5h-143v-109q0 -73 40 -116.5t110 -43.5q68 0 106.5 44.5
t40.5 117.5q3 27 29 27h118q29 0 29 -29q0 -147 -127 -264q-60 -55 -96.5 -119t-36.5 -112q0 -49 31 -66.5t88 -15.5q28 0 28 -27v-92q0 -24 -24 -27zM256 573h143q67 0 108.5 40.5t41.5 109.5q0 73 -39 114.5t-109 41.5q-67 0 -106 -43.5t-39 -114.5v-148z" />
    <glyph glyph-name="Ecaron" unicode="&#x11a;" horiz-adv-x="739" 
d="M657 1778l-141 -187q-13 -16 -35 -16h-127q-22 0 -35 16l-141 187q-9 14 -3.5 23t20.5 9h84q21 0 32 -14l107 -125l106 125q11 14 33 14h84q15 0 20 -9t-4 -23zM438 -6q-154 0 -252 103.5t-98 262.5v713q0 159 98 263t252 104h215q12 0 19.5 -7.5t7.5 -19.5v-117
q0 -28 -27 -28h-200q-79 0 -129 -55.5t-50 -143.5v-260h328q29 0 29 -29v-110q0 -29 -29 -29h-328v-276q0 -88 50 -143.5t129 -55.5h200q27 0 27 -29v-117q0 -26 -27 -26h-215z" />
    <glyph glyph-name="ecaron" unicode="&#x11b;" horiz-adv-x="798" 
d="M193 1386h81q24 0 35 -16l92 -117l93 117q11 16 34 16h80q17 0 22.5 -10t-3.5 -22l-133 -191q-10 -18 -33 -18h-121q-23 0 -33 18l-133 191q-9 12 -3.5 22t22.5 10zM403 -20q-145 0 -234 91.5t-89 241.5v402q2 147 90.5 238t235.5 91q144 1 235.5 -90t91.5 -233
q0 -136 -90 -222.5t-235 -86.5h-152v-107q0 -72 40.5 -116t109.5 -44q62 0 101 42t44 110q3 27 29 27h120q12 0 19.5 -7.5t7.5 -19.5q-7 -142 -96.5 -229.5t-227.5 -87.5zM256 571h152q69 0 109 40t40 106q0 74 -40.5 118t-110.5 44q-71 0 -110.5 -43.5t-39.5 -118.5v-146z
" />
    <glyph glyph-name="Gbreve" unicode="&#x11e;" horiz-adv-x="876" 
d="M434 1573q-99 0 -162.5 55t-72.5 148q-1 13 6 20.5t20 7.5h80q22 0 31 -24q6 -36 31.5 -56t66.5 -20t68 20.5t33 55.5q6 24 28 24h80q29 0 29 -28q-11 -93 -74.5 -148t-163.5 -55zM449 -23q-160 0 -260.5 106t-100.5 273v723q0 168 97.5 272.5t256.5 104.5
q153 0 250.5 -104t102.5 -269q0 -28 -27 -28h-131q-26 0 -29 28q-4 94 -48 146.5t-118 52.5q-78 0 -123 -53t-45 -144v-737q0 -90 49 -143t128 -53q76 0 125 51t49 131v278h-142q-28 0 -28 27v109q0 28 28 28h242q40 0 62 -22t22 -62v-348q0 -159 -100.5 -263t-259.5 -104z
" />
    <glyph glyph-name="gbreve" unicode="&#x11f;" horiz-adv-x="829" 
d="M414 1149q-100 0 -164.5 55.5t-73.5 149.5q0 28 27 28h80q24 0 30 -26q13 -74 101 -74q85 0 98 74q9 26 31 26h80q26 0 26 -28q-9 -93 -72.5 -149t-162.5 -56zM408 1047q145 0 235 -93.5t90 -240.5v-811q0 -153 -88 -243.5t-237 -90.5q-143 0 -231.5 89.5t-94.5 240.5
q-3 28 27 28h120q26 0 29 -28q4 -76 44 -119t106 -43q70 0 109.5 42.5t39.5 117.5v202q-68 -71 -164 -71q-137 0 -225 93.5t-88 239.5v353q0 147 90.5 240.5t237.5 93.5zM408 193q70 0 109.5 44t39.5 117v365q0 73 -39.5 116.5t-109.5 43.5t-111 -43.5t-41 -116.5v-365
q0 -73 41 -117t111 -44z" />
    <glyph glyph-name="Gdotaccent" unicode="&#x120;" horiz-adv-x="876" 
d="M434 1577q-45 0 -74.5 29.5t-29.5 74.5q0 46 29.5 76.5t74.5 30.5t76 -31t31 -76q0 -42 -31.5 -73t-75.5 -31zM449 -23q-160 0 -260.5 106t-100.5 273v723q0 168 97.5 272.5t256.5 104.5q153 0 250.5 -104t102.5 -269q0 -28 -27 -28h-131q-26 0 -29 28q-4 94 -48 146.5
t-118 52.5q-78 0 -123 -53t-45 -144v-737q0 -90 49 -143t128 -53q76 0 125 51t49 131v278h-142q-28 0 -28 27v109q0 28 28 28h242q40 0 62 -22t22 -62v-348q0 -159 -100.5 -263t-259.5 -104z" />
    <glyph glyph-name="gdotaccent" unicode="&#x121;" horiz-adv-x="829" 
d="M414 1153q-46 0 -75.5 29.5t-29.5 74.5q0 46 29.5 76.5t75.5 30.5q44 0 75 -31t31 -76q0 -42 -31 -73t-75 -31zM408 1047q145 0 235 -93.5t90 -240.5v-811q0 -153 -88 -243.5t-237 -90.5q-143 0 -231.5 89.5t-94.5 240.5q-3 28 27 28h120q26 0 29 -28q4 -76 44 -119
t106 -43q70 0 109.5 42.5t39.5 117.5v202q-68 -71 -164 -71q-137 0 -225 93.5t-88 239.5v353q0 147 90.5 240.5t237.5 93.5zM408 193q70 0 109.5 44t39.5 117v365q0 73 -39.5 116.5t-109.5 43.5t-111 -43.5t-41 -116.5v-365q0 -73 41 -117t111 -44z" />
    <glyph glyph-name="Gcommaaccent" unicode="&#x122;" horiz-adv-x="876" 
d="M449 -23q-160 0 -260.5 106t-100.5 273v723q0 168 97.5 272.5t256.5 104.5q153 0 250.5 -104t102.5 -269q0 -28 -27 -28h-131q-26 0 -29 28q-4 94 -48 146.5t-118 52.5q-78 0 -123 -53t-45 -144v-737q0 -90 49 -143t128 -53q76 0 125 51t49 131v278h-142q-28 0 -28 27
v109q0 28 28 28h242q40 0 62 -22t22 -62v-348q0 -159 -100.5 -263t-259.5 -104zM350 -143q0 26 29 26h113q29 0 26 -30l-67 -349q-3 -24 -29 -24h-66q-26 0 -26 28z" />
    <glyph glyph-name="gcommaaccent" unicode="&#x123;" horiz-adv-x="833" 
d="M354 1153q-28 0 -28 27l-21 290q0 12 7.5 19.5t19.5 7.5h67q25 0 31 -24l59 -289q2 -14 -5.5 -22.5t-20.5 -8.5h-109zM408 1047q145 0 235 -93.5t90 -240.5v-811q0 -153 -88 -243.5t-237 -90.5q-143 0 -231.5 89.5t-94.5 240.5q-3 28 27 28h120q26 0 29 -28
q4 -76 44 -119t106 -43q70 0 109.5 42.5t39.5 117.5v202q-68 -71 -164 -71q-137 0 -225 93.5t-88 239.5v353q0 147 90.5 240.5t237.5 93.5zM408 193q70 0 109.5 44t39.5 117v365q0 73 -39.5 116.5t-109.5 43.5t-111 -43.5t-41 -116.5v-365q0 -73 41 -117t111 -44z" />
    <glyph glyph-name="Hbar" unicode="&#x126;" horiz-adv-x="1067" 
d="M969 1171q26 0 26 -26v-74q0 -29 -26 -29h-95v-1013q0 -29 -26 -29h-131q-27 0 -27 29v612h-313v-612q0 -29 -27 -29h-129q-28 0 -28 29v1013h-93q-28 0 -28 29v74q0 26 28 26h93v236q0 27 28 27h129q12 0 19.5 -7.5t7.5 -19.5v-236h313v236q0 12 7.5 19.5t19.5 7.5h131
q26 0 26 -27v-236h95zM690 811v231h-313v-231h313z" />
    <glyph glyph-name="hbar" unicode="&#x127;" horiz-adv-x="933" 
d="M217 0q-27 0 -27 29v1155h-137q-26 0 -26 26v64q0 26 26 26h137v107q0 12 7.5 19.5t19.5 7.5h121q12 0 19.5 -7.5t7.5 -19.5v-107h264q28 0 28 -26v-64q0 -26 -28 -26h-264v-217q64 71 165 71q138 0 222 -93t84 -243v-673q0 -29 -27 -29h-121q-26 0 -26 29v680
q0 74 -40 118.5t-110 44.5q-66 0 -106.5 -45t-40.5 -118v-680q0 -29 -27 -29h-121z" />
    <glyph glyph-name="Imacron" unicode="&#x12a;" horiz-adv-x="432" 
d="M39 1714q0 27 29 27h299q26 0 26 -27v-72q0 -12 -7 -20t-19 -8h-299q-13 0 -21 8t-8 20v72zM123 1407q0 27 29 27h129q26 0 26 -27v-1378q0 -29 -26 -29h-129q-29 0 -29 29v1378z" />
    <glyph glyph-name="imacron" unicode="&#x12b;" horiz-adv-x="342" 
d="M6 1303q0 26 29 26h272q29 0 29 -26v-72q0 -12 -8 -20.5t-21 -8.5h-272q-13 0 -21 8.5t-8 20.5v72zM111 0q-29 0 -29 29v968q0 27 29 27h118q29 0 29 -27v-968q0 -29 -29 -29h-118z" />
    <glyph glyph-name="Iogonek" unicode="&#x12e;" horiz-adv-x="425" 
d="M322 -272q28 0 28 -27v-88q0 -24 -26 -27q-32 -4 -48 -4q-121 0 -182 48t-61 130q0 127 110 240q-9 0 -15.5 8t-6.5 21v1378q0 27 26 27h129q29 0 29 -27v-1378q0 -29 -24 -29q-41 -40 -66 -90.5t-25 -93.5t31.5 -65.5t85.5 -22.5h15z" />
    <glyph glyph-name="iogonek" unicode="&#x12f;" horiz-adv-x="442" 
d="M223 1153q-45 0 -74.5 29.5t-29.5 74.5q0 46 30 76.5t76 30.5q44 0 74.5 -30t30.5 -74q0 -43 -31 -75t-76 -32zM266 -420q-106 0 -165.5 47.5t-59.5 130.5q0 56 27 121.5t71 120.5v997q0 27 29 27h119q28 0 28 -27v-977q0 -20 -28 -45q-90 -94 -90 -176q0 -71 114 -75h6
q29 0 29 -27v-84q0 -18 -18.5 -25.5t-61.5 -7.5z" />
    <glyph glyph-name="Idotaccent" unicode="&#x130;" horiz-adv-x="432" 
d="M217 1577q-45 0 -74.5 29.5t-29.5 74.5q0 46 29.5 76.5t74.5 30.5t76 -31t31 -76q0 -42 -31.5 -73t-75.5 -31zM123 1407q0 27 29 27h129q26 0 26 -27v-1378q0 -29 -26 -29h-129q-29 0 -29 29v1378z" />
    <glyph glyph-name="dotlessi" unicode="&#x131;" horiz-adv-x="401" 
d="M141 0q-28 0 -28 29v968q0 27 28 27h119q29 0 29 -27v-968q0 -29 -29 -29h-119z" />
    <glyph glyph-name="Kcommaaccent" unicode="&#x136;" horiz-adv-x="913" 
d="M152 0q-29 0 -29 29v1378q0 27 29 27h129q26 0 26 -27v-600h164l168 604q7 23 31 23h129q31 0 24 -31l-188 -643q87 -39 133.5 -125.5t46.5 -204.5v-401q0 -29 -29 -29h-129q-28 0 -28 29v405q0 93 -45.5 147t-126.5 54h-150v-606q0 -29 -26 -29h-129zM381 -143
q0 26 29 26h112q14 0 21 -8.5t6 -21.5l-68 -349q-3 -24 -28 -24h-66q-27 0 -27 28z" />
    <glyph glyph-name="kcommaaccent" unicode="&#x137;" horiz-adv-x="819" 
d="M555 575q86 -34 136 -110.5t50 -177.5v-258q0 -29 -26 -29h-121q-27 0 -27 29v264q0 69 -43 110t-112 41h-123v-415q0 -29 -29 -29h-119q-28 0 -28 29v1378q0 27 28 27h119q29 0 29 -27v-797h98l186 394q11 20 33 20h127q16 0 23.5 -9t1.5 -24zM352 -143q0 26 29 26h113
q29 0 26 -30l-67 -349q-3 -24 -29 -24h-66q-26 0 -26 28z" />
    <glyph glyph-name="Lacute" unicode="&#x139;" horiz-adv-x="708" 
d="M129 1575q-17 0 -22 10.5t4 22.5l133 186q11 16 35 16h116q17 0 22 -10t-7 -24l-162 -185q-11 -16 -35 -16h-84zM459 166h196q29 0 29 -29v-117q0 -26 -29 -26h-206q-154 0 -246 101.5t-92 258.5v1053q0 27 26 27h131q29 0 29 -27v-1047q0 -87 45.5 -140.5t116.5 -53.5z
" />
    <glyph glyph-name="lacute" unicode="&#x13a;" horiz-adv-x="446" 
d="M141 1575q-17 0 -22 10.5t4 22.5l133 186q11 16 35 16h117q17 0 21.5 -10t-7.5 -24l-162 -185q-11 -16 -35 -16h-84zM141 0q-28 0 -28 29v1378q0 27 28 27h119q29 0 29 -27v-1378q0 -29 -29 -29h-119z" />
    <glyph glyph-name="Lcommaaccent" unicode="&#x13b;" horiz-adv-x="708" 
d="M459 166h196q29 0 29 -29v-117q0 -26 -29 -26h-206q-154 0 -246 101.5t-92 258.5v1053q0 27 26 27h131q29 0 29 -27v-1047q0 -87 45.5 -140.5t116.5 -53.5zM276 -143q0 26 29 26h113q29 0 26 -30l-67 -349q-3 -24 -29 -24h-65q-27 0 -27 28z" />
    <glyph glyph-name="lcommaaccent" unicode="&#x13c;" horiz-adv-x="401" 
d="M141 0q-28 0 -28 29v1378q0 27 28 27h119q29 0 29 -27v-1378q0 -29 -29 -29h-119zM119 -143q0 26 28 26h113q14 0 21 -8.5t6 -21.5l-68 -349q-3 -24 -29 -24h-65q-27 0 -27 28z" />
    <glyph glyph-name="Lcaron" unicode="&#x13d;" horiz-adv-x="700" 
d="M438 1067q-13 0 -20.5 8.5t-5.5 20.5l16 315q3 27 31 27h114q28 0 25 -31l-57 -313q-3 -27 -29 -27h-74zM440 -4q-153 0 -245.5 101.5t-92.5 258.5v1051q0 27 29 27h131q12 0 20.5 -7.5t8.5 -19.5v-1045q0 -87 45.5 -140.5t116.5 -53.5h196q27 0 27 -29v-114
q0 -29 -27 -29h-209z" />
    <glyph glyph-name="lcaron" unicode="&#x13e;" horiz-adv-x="598" 
d="M420 1067q-27 0 -27 29l19 315q0 27 28 27h115q28 0 25 -31l-56 -313q-7 -27 -30 -27h-74zM141 0q-28 0 -28 29v1378q0 27 28 27h119q29 0 29 -27v-1378q0 -29 -29 -29h-119z" />
    <glyph glyph-name="Lslash" unicode="&#x141;" horiz-adv-x="835" 
d="M791 166q28 0 28 -29v-117q0 -26 -28 -26h-207q-154 0 -246 101.5t-92 258.5v279l-156 -60q-14 -5 -22.5 1.5t-8.5 21.5v109q0 21 21 32l166 64v606q0 27 26 27h131q29 0 29 -27v-535l205 78q33 10 33 -22v-111q0 -21 -23 -31l-215 -81v-345q0 -87 45.5 -140.5
t116.5 -53.5h197z" />
    <glyph glyph-name="lslash" unicode="&#x142;" horiz-adv-x="450" 
d="M406 975q14 6 23 0t9 -21v-94q0 -22 -22 -31l-101 -38v-762q0 -29 -28 -29h-119q-29 0 -29 29v690l-94 -37q-13 -6 -22 -0.5t-9 20.5v95q0 23 21 30l104 41v539q0 27 29 27h119q28 0 28 -27v-469z" />
    <glyph glyph-name="Nacute" unicode="&#x143;" horiz-adv-x="923" 
d="M383 1575q-17 0 -22 10.5t4 22.5l133 186q11 16 34 16h117q17 0 22 -10t-7 -24l-162 -185q-11 -16 -35 -16h-84zM137 0q-26 0 -26 29v1050q0 167 96 272t254 105q159 0 255.5 -105t96.5 -272v-1050q0 -29 -29 -29h-129q-12 0 -20 8t-8 21v1058q0 88 -45 141.5t-121 53.5
t-121 -53.5t-45 -141.5v-1058q0 -29 -27 -29h-131z" />
    <glyph glyph-name="nacute" unicode="&#x144;" horiz-adv-x="831" 
d="M571 1386q18 0 23 -10t-6 -24l-144 -191q-11 -16 -34 -16h-84q-17 0 -22.5 9.5t3.5 23.5l117 188q10 20 33 20h114zM125 0q-29 0 -29 29v684q0 147 89 240.5t231 93.5t230.5 -93.5t88.5 -240.5v-684q0 -29 -28 -29h-119q-29 0 -29 29v690q0 73 -38 117.5t-105 44.5
t-105.5 -44.5t-38.5 -117.5v-690q0 -29 -28 -29h-119z" />
    <glyph glyph-name="Ncommaaccent" unicode="&#x145;" horiz-adv-x="923" 
d="M137 0q-26 0 -26 29v1050q0 167 96 272t254 105q159 0 255.5 -105t96.5 -272v-1050q0 -29 -29 -29h-129q-12 0 -20 8t-8 21v1058q0 88 -45 141.5t-121 53.5t-121 -53.5t-45 -141.5v-1058q0 -29 -27 -29h-131zM383 -143q0 26 29 26h112q14 0 21 -8.5t6 -21.5l-68 -349
q-3 -24 -28 -24h-66q-27 0 -27 28z" />
    <glyph glyph-name="ncommaaccent" unicode="&#x146;" horiz-adv-x="829" 
d="M125 0q-29 0 -29 29v684q0 147 89 240.5t231 93.5t230.5 -93.5t88.5 -240.5v-684q0 -29 -28 -29h-119q-29 0 -29 29v690q0 73 -38 117.5t-105 44.5t-105.5 -44.5t-38.5 -117.5v-690q0 -29 -28 -29h-119zM346 -143q0 26 29 26h112q14 0 21 -8.5t6 -21.5l-68 -349
q-3 -24 -28 -24h-66q-26 0 -26 28z" />
    <glyph glyph-name="Ncaron" unicode="&#x147;" horiz-adv-x="923" 
d="M702 1778l-141 -187q-13 -16 -35 -16h-127q-21 0 -34 16l-142 187q-9 14 -3.5 23t20.5 9h84q21 0 32 -14l107 -125l106 125q11 14 33 14h84q15 0 20 -9t-4 -23zM137 0q-26 0 -26 29v1050q0 167 96 272t254 105q159 0 255.5 -105t96.5 -272v-1050q0 -29 -29 -29h-129
q-12 0 -20 8t-8 21v1058q0 88 -45 141.5t-121 53.5t-121 -53.5t-45 -141.5v-1058q0 -29 -27 -29h-131z" />
    <glyph glyph-name="ncaron" unicode="&#x148;" horiz-adv-x="831" 
d="M207 1386h82q24 0 35 -16l92 -117l92 117q11 16 35 16h80q17 0 22 -10t-4 -22l-133 -191q-10 -18 -33 -18h-121q-22 0 -32 18l-134 191q-9 12 -3.5 22t22.5 10zM125 0q-29 0 -29 29v684q0 147 89 240.5t231 93.5t230.5 -93.5t88.5 -240.5v-684q0 -29 -28 -29h-119
q-29 0 -29 29v690q0 73 -38 117.5t-105 44.5t-105.5 -44.5t-38.5 -117.5v-690q0 -29 -28 -29h-119z" />
    <glyph glyph-name="Eng" unicode="&#x14a;" horiz-adv-x="923" 
d="M461 -418q-31 0 -31 27v119q0 26 27 26q90 4 130 53.5t40 145.5v1134q0 88 -45 141.5t-121 53.5t-121 -53.5t-45 -141.5v-1058q0 -29 -27 -29h-131q-26 0 -26 29v1050q0 167 96 272t254 105q159 0 255.5 -105t96.5 -272v-1112q0 -180 -90.5 -281t-261.5 -104z" />
    <glyph glyph-name="eng" unicode="&#x14b;" horiz-adv-x="831" 
d="M391 -430q-12 0 -20.5 8.5t-8.5 20.5v110q0 11 8 19t21 8q77 1 122.5 53.5t45.5 136.5v793q0 73 -38 117.5t-105 44.5t-105.5 -44.5t-38.5 -117.5v-690q0 -29 -28 -29h-119q-29 0 -29 29v684q0 147 89 240.5t231 93.5t230.5 -93.5t88.5 -240.5v-772q0 -167 -92.5 -268.5
t-251.5 -102.5z" />
    <glyph glyph-name="Omacron" unicode="&#x14c;" horiz-adv-x="899" 
d="M270 1714q0 27 29 27h299q12 0 19.5 -7.5t7.5 -19.5v-72q0 -12 -7.5 -20t-19.5 -8h-299q-13 0 -21 8t-8 20v72zM451 -20q-160 0 -261.5 107t-101.5 278v704q0 171 101.5 278t261.5 107q159 0 259.5 -104.5t100.5 -266.5v-733q0 -162 -100.5 -266t-259.5 -104zM451 152
q78 0 126 52.5t48 137.5v750q0 85 -48 137.5t-126 52.5q-79 0 -128 -55.5t-49 -149.5v-721q0 -94 49 -149t128 -55z" />
    <glyph glyph-name="omacron" unicode="&#x14d;" horiz-adv-x="817" 
d="M231 1303q0 26 29 26h299q27 0 27 -26v-72q0 -12 -7.5 -20.5t-19.5 -8.5h-299q-13 0 -21 8.5t-8 20.5v72zM408 -23q-147 0 -237.5 93.5t-90.5 240.5v402q0 147 90.5 240.5t237.5 93.5q148 0 237.5 -93t89.5 -241v-402q0 -148 -89.5 -241t-237.5 -93zM408 143
q70 0 110.5 44.5t40.5 117.5v414q0 73 -40.5 117.5t-110.5 44.5t-110 -44.5t-40 -117.5v-414q0 -73 40 -117.5t110 -44.5z" />
    <glyph glyph-name="Ohungarumlaut" unicode="&#x150;" horiz-adv-x="899" 
d="M236 1575q-17 0 -22.5 10.5t5.5 22.5l133 186q11 16 35 16h117q17 0 21 -10t-7 -24l-164 -185q-11 -16 -32 -16h-86zM483 1575q-17 0 -22 10.5t6 22.5l133 186q11 16 35 16h117q17 0 21 -10t-7 -24l-164 -185q-11 -16 -33 -16h-86zM451 -20q-160 0 -261.5 107t-101.5 278
v704q0 171 101.5 278t261.5 107q159 0 259.5 -104.5t100.5 -266.5v-733q0 -162 -100.5 -266t-259.5 -104zM451 152q78 0 126 52.5t48 137.5v750q0 85 -48 137.5t-126 52.5q-79 0 -128 -55.5t-49 -149.5v-721q0 -94 49 -149t128 -55z" />
    <glyph glyph-name="ohungarumlaut" unicode="&#x151;" horiz-adv-x="817" 
d="M473 1386q17 0 21 -10t-5 -24l-143 -191q-13 -16 -35 -16h-69q-17 0 -22 9.5t3 23.5l117 188q13 20 33 20h100zM700 1386q17 0 21.5 -10t-4.5 -24l-144 -191q-11 -16 -34 -16h-70q-17 0 -21.5 9.5t3.5 23.5l116 188q13 20 33 20h100zM408 -23q-147 0 -237.5 93.5
t-90.5 240.5v402q0 147 90.5 240.5t237.5 93.5q148 0 237.5 -93t89.5 -241v-402q0 -148 -89.5 -241t-237.5 -93zM408 143q70 0 110.5 44.5t40.5 117.5v414q0 73 -40.5 117.5t-110.5 44.5t-110 -44.5t-40 -117.5v-414q0 -73 40 -117.5t110 -44.5z" />
    <glyph glyph-name="OE" unicode="&#x152;" horiz-adv-x="1249" 
d="M434 -18q-152 0 -249 103.5t-97 264.5v733q0 162 97 265.5t249 103.5q86 0 152.5 -39t107.5 -108q39 64 102.5 100.5t143.5 36.5h223q27 0 27 -29v-115q0 -26 -27 -26h-209q-79 0 -127.5 -58.5t-48.5 -150.5v-254h318q26 0 26 -29v-110q0 -27 -26 -27h-318v-272
q0 -91 48.5 -149t127.5 -58h209q27 0 27 -29v-115q0 -28 -27 -28h-223q-80 0 -143.5 37.5t-102.5 103.5q-40 -72 -107 -111.5t-153 -39.5zM434 154q71 0 115.5 55.5t44.5 142.5v729q0 87 -44.5 143t-115.5 56q-72 0 -116 -51.5t-44 -134.5v-754q0 -83 44 -134.5t116 -51.5z
" />
    <glyph glyph-name="oe" unicode="&#x153;" horiz-adv-x="1243" 
d="M399 -23q-142 0 -230.5 93.5t-88.5 240.5v402q0 147 88.5 240.5t230.5 93.5q148 0 230 -119q79 119 227 119q137 0 225 -90t88 -234q0 -136 -89.5 -222.5t-225.5 -86.5h-137v-109q0 -73 38 -116.5t103 -43.5q59 0 96 37t43 99q6 26 29 26h121q27 0 27 -28
q-9 -134 -96 -218t-222 -84q-138 0 -227 129q-92 -129 -230 -129zM399 145q66 0 105 44t39 116v414q0 72 -39 116t-105 44q-67 0 -105 -43.5t-38 -116.5v-414q0 -73 38 -116.5t105 -43.5zM717 573h137q61 0 100 40t39 108q0 75 -36 116.5t-101 41.5q-64 0 -101.5 -43.5
t-37.5 -114.5v-148z" />
    <glyph glyph-name="Racute" unicode="&#x154;" horiz-adv-x="909" 
d="M373 1575q-17 0 -22.5 10.5t3.5 22.5l133 186q11 16 35 16h117q17 0 21.5 -10t-7.5 -24l-161 -185q-11 -16 -35 -16h-84zM137 0q-26 0 -26 29v1048q0 168 96.5 273.5t251.5 105.5q158 0 256 -105.5t98 -273.5v-164q0 -114 -49.5 -199t-132.5 -130l219 -553
q4 -13 -4.5 -22t-22.5 -9h-139q-23 0 -29 25l-194 516h-166v-512q0 -29 -27 -29h-131zM295 711h158q80 0 127 53.5t47 144.5v176q0 89 -46 143t-120 54t-120 -54t-46 -143v-374z" />
    <glyph glyph-name="racute" unicode="&#x155;" horiz-adv-x="575" 
d="M498 1386q18 0 22.5 -10t-6.5 -24l-143 -191q-11 -16 -35 -16h-84q-17 0 -22.5 9.5t3.5 23.5l117 188q10 20 33 20h115zM125 0q-29 0 -29 29v641q0 164 96.5 261t253.5 97h76q27 0 27 -29v-110q0 -12 -7.5 -19.5t-19.5 -7.5h-73q-80 0 -128.5 -48t-48.5 -130v-655
q0 -29 -28 -29h-119z" />
    <glyph glyph-name="Rcommaaccent" unicode="&#x156;" horiz-adv-x="909" 
d="M137 0q-26 0 -26 29v1048q0 168 96.5 273.5t251.5 105.5q158 0 256 -105.5t98 -273.5v-164q0 -114 -49.5 -199t-132.5 -130l219 -553q4 -13 -4.5 -22t-22.5 -9h-139q-23 0 -29 25l-194 516h-166v-512q0 -29 -27 -29h-131zM295 711h158q80 0 127 53.5t47 144.5v176
q0 89 -46 143t-120 54t-120 -54t-46 -143v-374zM373 -143q0 26 28 26h113q14 0 21 -8.5t6 -21.5l-68 -349q-3 -24 -29 -24h-65q-27 0 -27 28z" />
    <glyph glyph-name="rcommaaccent" unicode="&#x157;" horiz-adv-x="575" 
d="M125 0q-29 0 -29 29v641q0 164 96.5 261t253.5 97h76q27 0 27 -29v-110q0 -12 -7.5 -19.5t-19.5 -7.5h-73q-80 0 -128.5 -48t-48.5 -130v-655q0 -29 -28 -29h-119zM119 -143q0 26 28 26h113q14 0 21 -8.5t6 -21.5l-68 -349q-3 -24 -29 -24h-65q-27 0 -27 28z" />
    <glyph glyph-name="Rcaron" unicode="&#x158;" horiz-adv-x="909" 
d="M692 1778l-141 -187q-13 -16 -35 -16h-127q-22 0 -35 16l-141 187q-9 14 -4 23t20 9h84q22 0 33 -14l107 -125l106 125q11 14 33 14h84q15 0 20 -9t-4 -23zM137 0q-26 0 -26 29v1048q0 168 96.5 273.5t251.5 105.5q158 0 256 -105.5t98 -273.5v-164q0 -114 -49.5 -199
t-132.5 -130l219 -553q4 -13 -4.5 -22t-22.5 -9h-139q-23 0 -29 25l-194 516h-166v-512q0 -29 -27 -29h-131zM295 711h158q80 0 127 53.5t47 144.5v176q0 89 -46 143t-120 54t-120 -54t-46 -143v-374z" />
    <glyph glyph-name="rcaron" unicode="&#x159;" horiz-adv-x="575" 
d="M133 1386h82q24 0 35 -16l92 -117l92 117q11 16 35 16h80q17 0 22 -10t-4 -22l-133 -191q-10 -18 -33 -18h-120q-23 0 -33 18l-133 191q-9 12 -4 22t22 10zM125 0q-29 0 -29 29v641q0 164 96.5 261t253.5 97h76q27 0 27 -29v-110q0 -12 -7.5 -19.5t-19.5 -7.5h-73
q-80 0 -128.5 -48t-48.5 -130v-655q0 -29 -28 -29h-119z" />
    <glyph glyph-name="Sacute" unicode="&#x15a;" horiz-adv-x="835" 
d="M334 1575q-17 0 -22.5 10.5t3.5 22.5l134 186q11 16 34 16h117q17 0 21.5 -10t-7.5 -24l-161 -185q-11 -16 -35 -16h-84zM420 -23q-159 0 -256 110t-103 296q0 29 29 29h129q26 0 29 -27q6 -233 174 -233q82 0 124 43.5t42 126.5q0 64 -28.5 123t-73.5 107t-100 96
t-110 98.5t-100 104.5t-73.5 125.5t-28.5 151.5q0 150 92.5 239t245.5 89q151 0 243.5 -106.5t98.5 -286.5q0 -27 -27 -27h-129q-12 0 -19.5 7.5t-7.5 19.5q-9 221 -157 221q-75 0 -115.5 -40t-40.5 -116q0 -59 28.5 -114.5t74 -101t100.5 -92.5t110 -98.5t100.5 -107.5
t74 -131.5t28.5 -160.5q0 -158 -97 -251.5t-257 -93.5z" />
    <glyph glyph-name="sacute" unicode="&#x15b;" horiz-adv-x="790" 
d="M563 1386q18 0 23 -10t-6 -24l-144 -191q-11 -16 -35 -16h-84q-17 0 -22 9.5t4 23.5l117 188q10 20 33 20h114zM408 -23q-155 0 -246 93t-96 233q0 31 28 31h119q26 0 29 -27q12 -162 164 -162q69 0 106 35t37 92q0 42 -26 74.5t-67.5 54.5t-92 43.5t-100.5 48
t-91.5 59.5t-67.5 86.5t-26 121.5q0 124 86 205.5t223 81.5q155 0 236 -86t86 -216q0 -28 -27 -28h-121q-26 0 -29 26q-5 62 -41 100t-100 38q-63 0 -101 -34.5t-38 -90.5q0 -40 26 -70.5t68 -52t92 -42.5t100.5 -47.5t92.5 -60.5t68 -88.5t26 -124.5q0 -126 -88 -209.5
t-229 -83.5z" />
    <glyph glyph-name="Scedilla" unicode="&#x15e;" horiz-adv-x="835" 
d="M774 322q0 -149 -87 -241t-232 -101l-13 -70h13q64 -5 107.5 -48t43.5 -106q0 -81 -53.5 -127.5t-138.5 -46.5q-75 0 -126.5 40t-60.5 110q-1 12 6 19t21 7h55q20 0 29 -22q15 -47 76 -47q35 0 57.5 18t22.5 49q0 28 -22 46t-56 18q-26 0 -72 -8q-10 -4 -18 4l-7 6
q-10 10 -8 20l31 144q-127 26 -202 131.5t-79 265.5q0 29 29 29h129q26 0 29 -27q6 -233 174 -233q82 0 124 43.5t42 126.5q0 64 -28.5 123t-73.5 107t-100 96t-110 98.5t-100 104.5t-73.5 125.5t-28.5 151.5q0 150 92.5 239t245.5 89q151 0 243.5 -106.5t98.5 -286.5
q0 -27 -27 -27h-129q-12 0 -19.5 7.5t-7.5 19.5q-9 221 -157 221q-75 0 -115.5 -40t-40.5 -116q0 -59 28.5 -114.5t74 -101t100.5 -92.5t110 -98.5t100.5 -107.5t74 -131.5t28.5 -160.5z" />
    <glyph glyph-name="scedilla" unicode="&#x15f;" horiz-adv-x="790" 
d="M725 270q0 -114 -72 -193.5t-192 -94.5l-12 -72h12q64 -5 107.5 -48t43.5 -106q0 -81 -53.5 -127.5t-138.5 -46.5q-75 0 -126.5 40t-60.5 110q-1 12 6 19t21 7h55q20 0 29 -22q15 -47 76 -47q35 0 57.5 18t22.5 49q0 28 -22 46t-56 18q-26 0 -72 -8q-10 -4 -18 4l-6 6
q-11 11 -9 20l29 140q-127 18 -201 107t-79 214q0 31 28 31h119q26 0 29 -27q12 -162 164 -162q69 0 106 35t37 92q0 42 -26 74.5t-67.5 54.5t-92 43.5t-100.5 48t-91.5 59.5t-67.5 86.5t-26 121.5q0 124 86 205.5t223 81.5q155 0 236 -86t86 -216q0 -28 -27 -28h-121
q-26 0 -29 26q-5 62 -41 100t-100 38q-63 0 -101 -34.5t-38 -90.5q0 -40 26 -70.5t68 -52t92 -42.5t100.5 -47.5t92.5 -60.5t68 -88.5t26 -124.5z" />
    <glyph glyph-name="Scaron" unicode="&#x160;" horiz-adv-x="835" 
d="M653 1778l-141 -187q-13 -16 -35 -16h-127q-22 0 -35 16l-141 187q-9 14 -4 23t20 9h84q22 0 33 -14l107 -125l106 125q11 14 33 14h84q15 0 20 -9t-4 -23zM420 -23q-159 0 -256 110t-103 296q0 29 29 29h129q26 0 29 -27q6 -233 174 -233q82 0 124 43.5t42 126.5
q0 64 -28.5 123t-73.5 107t-100 96t-110 98.5t-100 104.5t-73.5 125.5t-28.5 151.5q0 150 92.5 239t245.5 89q151 0 243.5 -106.5t98.5 -286.5q0 -27 -27 -27h-129q-12 0 -19.5 7.5t-7.5 19.5q-9 221 -157 221q-75 0 -115.5 -40t-40.5 -116q0 -59 28.5 -114.5t74 -101
t100.5 -92.5t110 -98.5t100.5 -107.5t74 -131.5t28.5 -160.5q0 -158 -97 -251.5t-257 -93.5z" />
    <glyph glyph-name="scaron" unicode="&#x161;" horiz-adv-x="790" 
d="M199 1386h82q23 0 34 -16l93 -117l92 117q11 16 35 16h79q17 0 22.5 -10t-3.5 -22l-133 -191q-10 -18 -33 -18h-121q-23 0 -33 18l-133 191q-9 12 -3.5 22t22.5 10zM408 -23q-155 0 -246 93t-96 233q0 31 28 31h119q26 0 29 -27q12 -162 164 -162q69 0 106 35t37 92
q0 42 -26 74.5t-67.5 54.5t-92 43.5t-100.5 48t-91.5 59.5t-67.5 86.5t-26 121.5q0 124 86 205.5t223 81.5q155 0 236 -86t86 -216q0 -28 -27 -28h-121q-26 0 -29 26q-5 62 -41 100t-100 38q-63 0 -101 -34.5t-38 -90.5q0 -40 26 -70.5t68 -52t92 -42.5t100.5 -47.5
t92.5 -60.5t68 -88.5t26 -124.5q0 -126 -88 -209.5t-229 -83.5z" />
    <glyph glyph-name="uni0162" unicode="&#x162;" horiz-adv-x="735" 
d="M682 1434q29 0 29 -27v-117q0 -28 -29 -28h-221v-1233q0 -29 -29 -29h-129q-27 0 -27 29v1233h-223q-26 0 -26 28v117q0 27 26 27h629zM287 -143q0 26 28 26h113q14 0 21 -8.5t6 -21.5l-68 -349q-3 -24 -29 -24h-65q-27 0 -27 28z" />
    <glyph glyph-name="uni0163" unicode="&#x163;" horiz-adv-x="591" 
d="M522 160q29 0 29 -27v-113q0 -26 -29 -26h-30q-152 0 -238 96.5t-86 265.5v508h-115q-26 0 -26 27v106q0 27 26 27h115v264q0 29 29 29h118q27 0 27 -29v-264h158q26 0 26 -27v-106q0 -27 -26 -27h-158v-510q0 -194 158 -194h22zM395 -117q14 0 21 -8.5t6 -21.5l-68 -349
q-3 -24 -28 -24h-66q-27 0 -27 28l21 349q0 26 29 26h112z" />
    <glyph glyph-name="Tcaron" unicode="&#x164;" horiz-adv-x="735" 
d="M606 1778l-141 -187q-13 -16 -35 -16h-127q-22 0 -35 16l-141 187q-9 14 -4 23t20 9h84q22 0 33 -14l107 -125l106 125q11 14 33 14h84q15 0 20 -9t-4 -23zM682 1434q29 0 29 -27v-117q0 -28 -29 -28h-221v-1233q0 -29 -29 -29h-129q-27 0 -27 29v1233h-223q-26 0 -26 28
v117q0 27 26 27h629z" />
    <glyph glyph-name="tcaron" unicode="&#x165;" horiz-adv-x="636" 
d="M559 1442q14 0 21 -9t4 -22l-58 -293q-6 -24 -30 -24h-66q-27 0 -27 28l19 293q3 27 31 27h106zM522 160q29 0 29 -27v-113q0 -26 -29 -26h-30q-152 0 -238 96.5t-86 265.5v508h-115q-26 0 -26 27v106q0 27 26 27h115v264q0 29 29 29h118q27 0 27 -29v-264h158
q26 0 26 -27v-106q0 -27 -26 -27h-158v-510q0 -194 158 -194h22z" />
    <glyph glyph-name="Tbar" unicode="&#x166;" horiz-adv-x="739" 
d="M684 1434q12 0 19.5 -7.5t7.5 -19.5v-115q0 -28 -27 -28h-223v-416h135q12 0 19.5 -7.5t7.5 -19.5v-80q0 -26 -27 -26h-135v-686q0 -29 -27 -29h-129q-29 0 -29 29v686h-133q-28 0 -28 26v80q0 27 28 27h133v416h-221q-28 0 -28 28v115q0 27 28 27h629z" />
    <glyph glyph-name="tbar" unicode="&#x167;" horiz-adv-x="591" 
d="M522 156q29 0 29 -27v-111q0 -28 -29 -28h-20q-155 0 -244.5 98t-89.5 270v181h-90q-27 0 -27 28v66q0 29 27 29h90v202h-115q-26 0 -26 27v106q0 27 26 27h115v264q0 29 29 29h118q27 0 27 -29v-264h158q26 0 26 -27v-106q0 -27 -26 -27h-158v-202h133q27 0 27 -29v-66
q0 -28 -27 -28h-133v-189q0 -94 42.5 -144t119.5 -50h18z" />
    <glyph glyph-name="Umacron" unicode="&#x16a;" horiz-adv-x="923" 
d="M276 1714q0 27 29 27h299q12 0 19.5 -7.5t7.5 -19.5v-72q0 -12 -7.5 -20t-19.5 -8h-299q-13 0 -21 8t-8 20v72zM137 1434h131q27 0 27 -29v-1059q0 -88 45 -141t121 -53t121 53t45 141v1059q0 13 8 21t20 8h129q29 0 29 -29v-1051q0 -167 -96.5 -272t-255.5 -105
q-158 0 -254 105t-96 272v1051q0 29 26 29z" />
    <glyph glyph-name="umacron" unicode="&#x16b;" horiz-adv-x="831" 
d="M233 1303q0 26 29 26h299q27 0 27 -26v-72q0 -12 -7.5 -20.5t-19.5 -8.5h-299q-13 0 -21 8.5t-8 20.5v72zM125 1024h119q28 0 28 -29v-690q0 -73 38.5 -117.5t105.5 -44.5t105 44.5t38 117.5v690q0 29 29 29h119q28 0 28 -29v-684q0 -147 -88.5 -240.5t-230.5 -93.5
t-231 93.5t-89 240.5v684q0 29 29 29z" />
    <glyph glyph-name="Uring" unicode="&#x16e;" horiz-adv-x="923" 
d="M299 1690q0 66 42.5 105.5t111.5 39.5q68 0 109.5 -39.5t41.5 -105.5q0 -67 -41.5 -108.5t-109.5 -41.5q-69 0 -111.5 41.5t-42.5 108.5zM397 1688q0 -25 15 -40.5t41 -15.5q25 0 40 15.5t15 40.5t-15 40t-40 15q-26 0 -41 -15t-15 -40zM137 1434h131q27 0 27 -29v-1059
q0 -88 45 -141t121 -53t121 53t45 141v1059q0 13 8 21t20 8h129q29 0 29 -29v-1051q0 -167 -96.5 -272t-255.5 -105q-158 0 -254 105t-96 272v1051q0 29 26 29z" />
    <glyph glyph-name="uring" unicode="&#x16f;" horiz-adv-x="831" 
d="M258 1270q0 66 42.5 105.5t111.5 39.5q68 0 109.5 -39.5t41.5 -105.5q0 -67 -41.5 -108.5t-109.5 -41.5q-69 0 -111.5 41.5t-42.5 108.5zM356 1268q0 -25 15 -40.5t41 -15.5q25 0 40 15.5t15 40.5t-15 40t-40 15q-26 0 -41 -15t-15 -40zM125 1024h119q28 0 28 -29v-690
q0 -73 38.5 -117.5t105.5 -44.5t105 44.5t38 117.5v690q0 29 29 29h119q28 0 28 -29v-684q0 -147 -88.5 -240.5t-230.5 -93.5t-231 93.5t-89 240.5v684q0 29 29 29z" />
    <glyph glyph-name="Uhungarumlaut" unicode="&#x170;" horiz-adv-x="923" 
d="M242 1575q-17 0 -22.5 10.5t5.5 22.5l133 186q11 16 35 16h117q17 0 21 -10t-7 -24l-164 -185q-11 -16 -32 -16h-86zM489 1575q-17 0 -22 10.5t6 22.5l133 186q11 16 35 16h117q17 0 21 -10t-7 -24l-164 -185q-11 -16 -33 -16h-86zM137 1434h131q27 0 27 -29v-1059
q0 -88 45 -141t121 -53t121 53t45 141v1059q0 13 8 21t20 8h129q29 0 29 -29v-1051q0 -167 -96.5 -272t-255.5 -105q-158 0 -254 105t-96 272v1051q0 29 26 29z" />
    <glyph glyph-name="uhungarumlaut" unicode="&#x171;" horiz-adv-x="831" 
d="M475 1386q17 0 21.5 -10t-4.5 -24l-144 -191q-13 -16 -35 -16h-69q-17 0 -22 9.5t3 23.5l117 188q13 20 33 20h100zM702 1386q17 0 21.5 -10t-4.5 -24l-144 -191q-11 -16 -34 -16h-70q-17 0 -21.5 9.5t3.5 23.5l116 188q13 20 33 20h100zM125 1024h119q28 0 28 -29v-690
q0 -73 38.5 -117.5t105.5 -44.5t105 44.5t38 117.5v690q0 29 29 29h119q28 0 28 -29v-684q0 -147 -88.5 -240.5t-230.5 -93.5t-231 93.5t-89 240.5v684q0 29 29 29z" />
    <glyph glyph-name="Uogonek" unicode="&#x172;" horiz-adv-x="915" 
d="M621 1407q0 27 26 27h131q12 0 19.5 -7.5t7.5 -19.5v-1067q0 -88 -33.5 -156t-95.5 -135q-56 -61 -91.5 -127.5t-35.5 -120.5q0 -38 29.5 -57t85.5 -16q30 3 30 -27v-92q0 -27 -26 -27q-136 -12 -210.5 31.5t-74.5 140.5q0 106 96 228q-30 -5 -35 -5q-148 4 -240.5 106.5
t-92.5 256.5v1067q0 27 26 27h131q12 0 19.5 -7.5t7.5 -19.5v-1075q0 -77 45.5 -128.5t116.5 -51.5q73 0 118.5 51.5t45.5 128.5v1075z" />
    <glyph glyph-name="uogonek" unicode="&#x173;" horiz-adv-x="833" 
d="M627 -418q-121 -13 -202 31t-81 141q0 99 98 228q-1 0 -20.5 -1t-28.5 -1q-128 8 -212.5 98.5t-84.5 222.5v696q0 27 29 27h119q28 0 28 -27v-702q0 -65 41.5 -107.5t104.5 -42.5q62 0 103.5 43t41.5 107v702q0 12 7.5 19.5t19.5 7.5h119q28 0 28 -27v-696
q0 -66 -23 -126t-61 -97q-62 -67 -101.5 -142t-39.5 -129q0 -86 115 -79q28 3 28 -27v-92q0 -27 -28 -27z" />
    <glyph glyph-name="Wcircumflex" unicode="&#x174;" horiz-adv-x="1370" 
d="M463 1575q-15 0 -20.5 9.5t3.5 23.5l142 186q13 16 35 16h127q21 0 34 -16l142 -186q9 -14 3.5 -23.5t-20.5 -9.5h-84q-21 0 -32 14l-107 125l-106 -125q-11 -14 -33 -14h-84zM1233 1434q29 0 29 -27v-1049q0 -174 -90 -277.5t-244 -103.5q-82 0 -139.5 33.5t-104.5 95.5
q-93 -129 -240 -129q-154 0 -243.5 103.5t-89.5 277.5v1049q0 27 26 27h129q12 0 19.5 -7.5t7.5 -19.5v-1057q0 -96 39 -147t112 -51q69 0 109.5 52t40.5 146v1057q0 12 7.5 19.5t19.5 7.5h129q26 0 26 -27v-1057q0 -93 42 -145.5t110 -52.5q73 0 111 51t38 147v1057
q0 12 7.5 19.5t19.5 7.5h129z" />
    <glyph glyph-name="wcircumflex" unicode="&#x175;" horiz-adv-x="1251" 
d="M420 1145q-17 0 -22.5 10.5t3.5 22.5l134 190q10 18 32 18h121q23 0 33 -18l133 -190q9 -12 4 -22.5t-22 -10.5h-80q-24 0 -35 16l-92 117l-92 -117q-11 -16 -35 -16h-82zM848 -23q-70 0 -127 33.5t-94 91.5q-36 -57 -94 -91t-127 -34q-139 0 -224.5 93.5t-85.5 240.5
v684q0 29 29 29h117q28 0 28 -29v-690q0 -73 36 -116.5t100 -43.5q63 0 98 43.5t35 116.5v690q0 29 28 29h119q27 0 27 -29v-690q0 -73 35.5 -116.5t99.5 -43.5q63 0 98 43.5t35 116.5v690q0 29 29 29h118q27 0 27 -29v-684q0 -148 -84.5 -241t-222.5 -93z" />
    <glyph glyph-name="Ycircumflex" unicode="&#x176;" horiz-adv-x="851" 
d="M666 1608q9 -14 3.5 -23.5t-20.5 -9.5h-84q-22 0 -33 14l-106 125l-107 -125q-11 -14 -32 -14h-84q-15 0 -20.5 9.5t3.5 23.5l142 186q13 16 34 16h127q22 0 35 -16zM362 0q-28 0 -28 29v440q-116 28 -186 124.5t-70 229.5v584q0 27 28 27h130q12 0 20 -7.5t8 -19.5v-592
q0 -81 44.5 -133.5t117.5 -52.5t118.5 53t45.5 133v592q0 27 26 27h129q29 0 29 -27v-584q0 -134 -69.5 -230t-186.5 -124v-440q0 -29 -26 -29h-130z" />
    <glyph glyph-name="ycircumflex" unicode="&#x177;" horiz-adv-x="856" 
d="M217 1145q-17 0 -22 10.5t4 22.5l133 190q10 18 33 18h120q23 0 33 -18l133 -190q9 -12 4 -22.5t-22 -10.5h-80q-24 0 -35 16l-92 117l-92 -117q-11 -16 -35 -16h-82zM715 1024q12 0 20 -7.5t8 -19.5v-1095q0 -152 -87.5 -243t-235.5 -91q-140 0 -227.5 89.5t-94.5 240.5
q-3 28 27 28h121q23 0 26 -28q5 -77 43.5 -119.5t104.5 -42.5q70 0 108.5 42.5t38.5 117.5v206q-63 -73 -161 -73q-135 0 -222.5 92.5t-87.5 238.5v637q0 27 29 27h119q28 0 28 -27v-643q0 -71 40 -115t108 -44t107.5 43.5t39.5 115.5v643q0 27 29 27h119z" />
    <glyph glyph-name="Ydieresis" unicode="&#x178;" horiz-adv-x="851" 
d="M305 1587q-41 0 -65.5 25t-24.5 65t24.5 65t65.5 25q40 0 65 -25t25 -65t-25 -65t-65 -25zM547 1587q-40 0 -65 25t-25 65t25 65t65 25t65 -25t25 -65t-25 -65t-65 -25zM362 0q-28 0 -28 29v440q-116 28 -186 124.5t-70 229.5v584q0 27 28 27h130q12 0 20 -7.5t8 -19.5
v-592q0 -81 44.5 -133.5t117.5 -52.5t118.5 53t45.5 133v592q0 27 26 27h129q29 0 29 -27v-584q0 -134 -69.5 -230t-186.5 -124v-440q0 -29 -26 -29h-130z" />
    <glyph glyph-name="Zacute" unicode="&#x179;" horiz-adv-x="821" 
d="M346 1575q-17 0 -22 10.5t4 22.5l133 186q11 16 35 16h116q17 0 22 -10t-7 -24l-162 -185q-11 -16 -35 -16h-84zM252 172h479q27 0 27 -29v-114q0 -29 -27 -29h-577q-43 0 -67 23.5t-24 64.5v39q0 64 23 111l477 1024h-428q-26 0 -26 28v117q0 27 26 27h527q87 0 90 -86
v-39q3 -66 -19 -111z" />
    <glyph glyph-name="zacute" unicode="&#x17a;" horiz-adv-x="720" 
d="M512 1386q18 0 22.5 -10t-6.5 -24l-143 -191q-11 -16 -35 -16h-84q-17 0 -22 9.5t4 23.5l117 188q10 20 32 20h115zM262 166h369q28 0 28 -29v-108q0 -29 -28 -29h-500q-32 0 -51 19t-19 53v39q0 46 21 84l383 663h-356q-12 0 -20.5 8t-8.5 21v110q0 12 8.5 19.5
t20.5 7.5h481q32 0 50.5 -18t18.5 -50v-51q0 -50 -20 -84z" />
    <glyph glyph-name="Zdotaccent" unicode="&#x17b;" horiz-adv-x="821" 
d="M428 1563q-45 0 -74.5 29.5t-29.5 74.5q0 46 29.5 76.5t74.5 30.5t76 -31t31 -76q0 -42 -31.5 -73t-75.5 -31zM252 172h479q27 0 27 -29v-114q0 -29 -27 -29h-577q-43 0 -67 23.5t-24 64.5v39q0 64 23 111l477 1024h-428q-26 0 -26 28v117q0 27 26 27h527q87 0 90 -86
v-39q3 -66 -19 -111z" />
    <glyph glyph-name="zdotaccent" unicode="&#x17c;" horiz-adv-x="720" 
d="M356 1153q-45 0 -74.5 29.5t-29.5 74.5q0 46 29.5 76.5t74.5 30.5t76 -31t31 -76q0 -42 -31.5 -73t-75.5 -31zM262 166h369q28 0 28 -29v-108q0 -29 -28 -29h-500q-32 0 -51 19t-19 53v39q0 46 21 84l383 663h-356q-12 0 -20.5 8t-8.5 21v110q0 12 8.5 19.5t20.5 7.5h481
q32 0 50.5 -18t18.5 -50v-51q0 -50 -20 -84z" />
    <glyph glyph-name="Zcaron" unicode="&#x17d;" horiz-adv-x="821" 
d="M666 1778l-142 -187q-13 -16 -35 -16h-127q-21 0 -34 16l-142 187q-9 14 -3.5 23t20.5 9h84q21 0 32 -14l107 -125l106 125q11 14 33 14h84q15 0 20.5 -9t-3.5 -23zM252 172h479q27 0 27 -29v-114q0 -29 -27 -29h-577q-43 0 -67 23.5t-24 64.5v39q0 64 23 111l477 1024
h-428q-26 0 -26 28v117q0 27 26 27h527q87 0 90 -86v-39q3 -66 -19 -111z" />
    <glyph glyph-name="zcaron" unicode="&#x17e;" horiz-adv-x="720" 
d="M147 1386h82q24 0 35 -16l92 -117l93 117q11 16 34 16h80q17 0 22.5 -10t-3.5 -22l-133 -191q-10 -18 -33 -18h-121q-23 0 -33 18l-133 191q-9 12 -4 22t22 10zM262 166h369q28 0 28 -29v-108q0 -29 -28 -29h-500q-32 0 -51 19t-19 53v39q0 46 21 84l383 663h-356
q-12 0 -20.5 8t-8.5 21v110q0 12 8.5 19.5t20.5 7.5h481q32 0 50.5 -18t18.5 -50v-51q0 -50 -20 -84z" />
    <glyph glyph-name="Scommaaccent" unicode="&#x218;" horiz-adv-x="835" 
d="M420 -23q-159 0 -256 110t-103 296q0 29 29 29h129q26 0 29 -27q6 -233 174 -233q82 0 124 43.5t42 126.5q0 64 -28.5 123t-73.5 107t-100 96t-110 98.5t-100 104.5t-73.5 125.5t-28.5 151.5q0 150 92.5 239t245.5 89q151 0 243.5 -106.5t98.5 -286.5q0 -27 -27 -27h-129
q-12 0 -19.5 7.5t-7.5 19.5q-9 221 -157 221q-75 0 -115.5 -40t-40.5 -116q0 -59 28.5 -114.5t74 -101t100.5 -92.5t110 -98.5t100.5 -107.5t74 -131.5t28.5 -160.5q0 -158 -97 -251.5t-257 -93.5zM354 -143q0 26 29 26h113q29 0 26 -30l-67 -349q-3 -24 -29 -24h-66
q-26 0 -26 28z" />
    <glyph glyph-name="scommaaccent" unicode="&#x219;" horiz-adv-x="790" 
d="M408 -23q-155 0 -246 93t-96 233q0 31 28 31h119q26 0 29 -27q12 -162 164 -162q69 0 106 35t37 92q0 42 -26 74.5t-67.5 54.5t-92 43.5t-100.5 48t-91.5 59.5t-67.5 86.5t-26 121.5q0 124 86 205.5t223 81.5q155 0 236 -86t86 -216q0 -28 -27 -28h-121q-26 0 -29 26
q-5 62 -41 100t-100 38q-63 0 -101 -34.5t-38 -90.5q0 -40 26 -70.5t68 -52t92 -42.5t100.5 -47.5t92.5 -60.5t68 -88.5t26 -124.5q0 -126 -88 -209.5t-229 -83.5zM346 -143q0 26 29 26h112q14 0 21 -8.5t6 -21.5l-68 -349q-3 -24 -28 -24h-66q-26 0 -26 28z" />
    <glyph glyph-name="uni021A" unicode="&#x21a;" horiz-adv-x="735" 
d="M682 1434q29 0 29 -27v-117q0 -28 -29 -28h-221v-1233q0 -29 -29 -29h-129q-27 0 -27 29v1233h-223q-26 0 -26 28v117q0 27 26 27h629zM307 -143q0 26 29 26h113q29 0 26 -30l-67 -349q-3 -24 -29 -24h-66q-26 0 -26 28z" />
    <glyph glyph-name="uni021B" unicode="&#x21b;" horiz-adv-x="591" 
d="M522 160q29 0 29 -27v-113q0 -26 -29 -26h-30q-152 0 -238 96.5t-86 265.5v508h-115q-26 0 -26 27v106q0 27 26 27h115v264q0 29 29 29h118q27 0 27 -29v-264h158q26 0 26 -27v-106q0 -27 -26 -27h-158v-510q0 -194 158 -194h22zM395 -117q14 0 21 -8.5t6 -21.5l-68 -349
q-3 -24 -28 -24h-66q-27 0 -27 28l21 349q0 26 29 26h112z" />
    <glyph glyph-name="gravecomb" unicode="&#x300;" 
d="M-270 1386h114q23 0 33 -20l117 -188q9 -14 3.5 -23.5t-22.5 -9.5h-84q-23 0 -34 16l-144 191q-11 14 -6 24t23 10z" />
    <glyph glyph-name="acutecomb" unicode="&#x301;" 
d="M-23 1386q18 0 23 -10t-6 -24l-144 -191q-11 -16 -34 -16h-84q-17 0 -22.5 9.5t3.5 23.5l117 188q10 20 33 20h114z" />
    <glyph glyph-name="uni0302" unicode="&#x302;" 
d="M-449 1145q-17 0 -22 10.5t4 22.5l133 190q10 18 33 18h121q23 0 33 -18l133 -190q9 -12 3.5 -22.5t-22.5 -10.5h-80q-23 0 -34 16l-93 117l-92 -117q-11 -16 -35 -16h-82z" />
    <glyph glyph-name="tildecomb" unicode="&#x303;" 
d="M-309 1233q-26 0 -35 -33q-9 -24 -31 -24h-67q-29 0 -29 26q5 60 44 106t105 46q34 0 65.5 -15.5t54.5 -31t38 -15.5q27 0 37 33q8 27 29 27h69q27 0 27 -29q-5 -61 -45.5 -105t-102.5 -44q-43 0 -92.5 29.5t-66.5 29.5z" />
    <glyph glyph-name="uni0304" unicode="&#x304;" 
d="M-354 1303q0 26 28 26h299q27 0 27 -26v-72q0 -12 -7.5 -20.5t-19.5 -8.5h-299q-13 0 -20.5 8.5t-7.5 20.5v72z" />
    <glyph glyph-name="uni0306" unicode="&#x306;" 
d="M-242 1149q-100 0 -164 55.5t-73 149.5q0 28 26 28h80q25 0 31 -26q13 -74 100 -74q86 0 99 74q9 26 30 26h80q27 0 27 -28q-9 -93 -73 -149t-163 -56z" />
    <glyph glyph-name="uni0307" unicode="&#x307;" 
d="M-111 1153q-45 0 -74.5 29.5t-29.5 74.5q0 46 29.5 76.5t74.5 30.5t76 -31t31 -76q0 -42 -31.5 -73t-75.5 -31z" />
    <glyph glyph-name="uni0308" unicode="&#x308;" 
d="M-332 1163q-41 0 -65.5 25t-24.5 65t24.5 65t65.5 25q40 0 65 -25t25 -65t-25 -65t-65 -25zM-90 1163q-40 0 -65 25t-25 65t25 65t65 25t65 -25t25 -65t-25 -65t-65 -25z" />
    <glyph glyph-name="uni030A" unicode="&#x30a;" 
d="M-324 1270q0 66 42.5 105.5t111.5 39.5q68 0 110 -39.5t42 -105.5q0 -67 -42 -108.5t-110 -41.5q-69 0 -111.5 41.5t-42.5 108.5zM-225 1268q0 -25 14.5 -40.5t40.5 -15.5q25 0 40 15.5t15 40.5t-15 40t-40 15q-26 0 -40.5 -15t-14.5 -40z" />
    <glyph glyph-name="uni030B" unicode="&#x30b;" 
d="M-258 1386q17 0 21 -10t-5 -24l-143 -191q-13 -16 -35 -16h-69q-17 0 -22 9.5t3 23.5l117 188q13 20 33 20h100zM-31 1386q17 0 21.5 -10t-4.5 -24l-144 -191q-11 -16 -35 -16h-69q-17 0 -22 9.5t3 23.5l117 188q13 20 33 20h100z" />
    <glyph glyph-name="uni030C" unicode="&#x30c;" 
d="M-449 1386h82q24 0 35 -16l92 -117l93 117q11 16 34 16h80q17 0 22.5 -10t-3.5 -22l-133 -191q-10 -18 -33 -18h-121q-23 0 -33 18l-133 191q-9 12 -4 22t22 10z" />
    <glyph glyph-name="uni0312" unicode="&#x312;" 
d="M-184 1180l-21 348q0 28 27 28h65q26 0 29 -24l68 -348q2 -14 -6 -22.5t-21 -8.5h-113q-28 0 -28 27z" />
    <glyph glyph-name="uni0326" unicode="&#x326;" 
d="M-188 -143q0 26 28 26h113q14 0 21 -8.5t6 -21.5l-68 -349q-3 -24 -29 -24h-65q-27 0 -27 28z" />
    <glyph glyph-name="uni0327" unicode="&#x327;" 
d="M-193 -418q-75 0 -126 39.5t-60 110.5q-1 12 6 19t21 7h55q20 0 29 -22q15 -47 75 -47q35 0 57.5 18t22.5 49q0 28 -21.5 46t-55.5 18q-26 0 -72 -8q-11 -4 -19 4l-6 6q-10 10 -8 20l33 158h115l-17 -90h12q64 -5 108 -48t44 -106q0 -81 -54 -127.5t-139 -46.5z" />
    <glyph glyph-name="uni0328" unicode="&#x328;" 
d="M0 -387q0 -27 -25 -27q-32 -4 -49 -4q-116 0 -172.5 46.5t-56.5 131.5q0 112 108 240h166q-51 -41 -81.5 -93.5t-30.5 -96.5q0 -40 26 -61t72 -21h16q27 0 27 -27v-88z" />
    <glyph glyph-name="uni0335" unicode="&#x335;" 
d="M-430 762v108h410v-108h-410z" />
    <glyph glyph-name="uni0336" unicode="&#x336;" 
d="M-676 870h656v-108h-656v108z" />
    <glyph glyph-name="uni0337" unicode="&#x337;" 
d="M-510 -92q-15 0 -22 9t-3 22l322 1155q6 22 31 22h137q15 0 22 -9t3 -22l-322 -1155q-6 -22 -31 -22h-137z" />
    <glyph glyph-name="uni0338" unicode="&#x338;" 
d="M-682 -92q-15 0 -22 9t-3 22l437 1564q7 23 30 23h138q15 0 22 -8.5t2 -22.5l-436 -1565q-6 -22 -31 -22h-137z" />
    <glyph glyph-name="uni0401" unicode="&#x401;" horiz-adv-x="739" 
d="M301 1587q-41 0 -65.5 25t-24.5 65t24.5 65t65.5 25q40 0 65 -25t25 -65t-25 -65t-65 -25zM543 1587q-40 0 -65 25t-25 65t25 65t65 25t65 -25t25 -65t-25 -65t-65 -25zM438 -6q-154 0 -252 103.5t-98 262.5v713q0 159 98 263t252 104h215q12 0 19.5 -7.5t7.5 -19.5v-117
q0 -28 -27 -28h-200q-79 0 -129 -55.5t-50 -143.5v-260h328q29 0 29 -29v-110q0 -29 -29 -29h-328v-276q0 -88 50 -143.5t129 -55.5h200q27 0 27 -29v-117q0 -26 -27 -26h-215z" />
    <glyph glyph-name="uni0402" unicode="&#x402;" horiz-adv-x="1021" 
d="M627 -6q-13 0 -22 8.5t-9 20.5v110q0 12 8 20.5t21 8.5q57 5 94 49.5t37 112.5v387q0 79 -39.5 123.5t-110.5 44.5q-72 0 -109.5 -44.5t-37.5 -123.5v-682q0 -29 -29 -29h-127q-27 0 -27 29v1233h-223q-26 0 -26 28v117q0 27 26 27h629q29 0 29 -27v-117q0 -28 -29 -28
h-223v-285q70 70 168 70q140 0 226.5 -94t86.5 -244v-377q0 -145 -88.5 -238.5t-224.5 -99.5z" />
    <glyph glyph-name="uni0403" unicode="&#x403;" horiz-adv-x="735" 
d="M389 1575q-17 0 -22 10.5t4 22.5l133 186q11 16 35 16h116q17 0 22 -10t-7 -24l-162 -185q-11 -16 -35 -16h-84zM137 0q-26 0 -26 29v1032q0 175 97 277t265 102h209q12 0 19.5 -8.5t7.5 -20.5v-115q0 -12 -7.5 -20t-19.5 -8h-205q-89 0 -135.5 -51.5t-46.5 -147.5v-1040
q0 -29 -27 -29h-131z" />
    <glyph glyph-name="uni0404" unicode="&#x404;" horiz-adv-x="839" 
d="M766 412q27 0 27 -29q-6 -186 -102 -296t-253 -110t-253.5 101.5t-96.5 267.5v741q0 166 96.5 267.5t253.5 101.5q151 0 245.5 -107t98.5 -286q0 -27 -26 -27h-131q-27 0 -27 27q-3 105 -46.5 162t-115.5 57q-76 0 -119 -49t-43 -135v-291h332q12 0 19.5 -8.5t7.5 -20.5
v-102q0 -12 -7.5 -19.5t-19.5 -7.5h-332v-313q0 -86 43 -135t119 -49q79 0 124 60.5t48 172.5q0 27 27 27h131z" />
    <glyph glyph-name="uni0405" unicode="&#x405;" horiz-adv-x="835" 
d="M420 -23q-159 0 -256 110t-103 296q0 29 29 29h129q26 0 29 -27q6 -233 174 -233q82 0 124 43.5t42 126.5q0 64 -28.5 123t-73.5 107t-100 96t-110 98.5t-100 104.5t-73.5 125.5t-28.5 151.5q0 150 92.5 239t245.5 89q151 0 243.5 -106.5t98.5 -286.5q0 -27 -27 -27h-129
q-12 0 -19.5 7.5t-7.5 19.5q-9 221 -157 221q-75 0 -115.5 -40t-40.5 -116q0 -59 28.5 -114.5t74 -101t100.5 -92.5t110 -98.5t100.5 -107.5t74 -131.5t28.5 -160.5q0 -158 -97 -251.5t-257 -93.5z" />
    <glyph glyph-name="uni0406" unicode="&#x406;" horiz-adv-x="432" 
d="M123 1407q0 27 29 27h129q26 0 26 -27v-1378q0 -29 -26 -29h-129q-29 0 -29 29v1378z" />
    <glyph glyph-name="uni0407" unicode="&#x407;" horiz-adv-x="432" 
d="M96 1587q-41 0 -65.5 25t-24.5 65t24.5 65t65.5 25q40 0 65 -25t25 -65t-25 -65t-65 -25zM338 1587q-40 0 -65 25t-25 65t25 65t65 25t65 -25t25 -65t-25 -65t-65 -25zM123 1407q0 27 29 27h129q26 0 26 -27v-1378q0 -29 -26 -29h-129q-29 0 -29 29v1378z" />
    <glyph glyph-name="uni0408" unicode="&#x408;" horiz-adv-x="831" 
d="M373 -23q-156 0 -248.5 111t-97.5 295q0 29 26 29h131q27 0 27 -27q5 -109 48 -171t118 -62q76 0 118 53.5t42 150.5v1051q0 27 28 27h129q29 0 29 -27v-1038q0 -181 -91 -286.5t-259 -105.5z" />
    <glyph glyph-name="uni0409" unicode="&#x409;" horiz-adv-x="1404" 
d="M53 -2q-12 -1 -19 6t-7 21v116q0 26 26 29q69 8 110.5 64t41.5 151v684q0 162 96.5 265.5t251.5 103.5h201q110 0 110 -111v-465h148q157 0 249.5 -105.5t92.5 -262.5v-129q0 -167 -91.5 -268t-250.5 -101h-224q-108 0 -108 110v1160h-125q-73 0 -118.5 -54t-45.5 -141
v-700q0 -160 -94.5 -262t-243.5 -111zM864 168h140q74 0 118.5 55.5t44.5 141.5v127q0 86 -44.5 142t-118.5 56h-140v-522z" />
    <glyph glyph-name="uni040A" unicode="&#x40a;" horiz-adv-x="1337" 
d="M950 825q153 0 243.5 -102t90.5 -258v-107q0 -167 -89 -265.5t-245 -98.5h-229q-54 0 -82.5 27.5t-28.5 80.5v553h-301v-626q0 -29 -26 -29h-131q-29 0 -29 29v1378q0 27 29 27h131q26 0 26 -27v-582h301v582q0 27 29 27h129q12 0 19.5 -7.5t7.5 -19.5v-582h155z
M1098 352v111q0 88 -43 140t-115 52h-145v-489h145q72 0 115 50.5t43 135.5z" />
    <glyph glyph-name="uni040B" unicode="&#x40b;" horiz-adv-x="1036" 
d="M303 0q-27 0 -27 29v1233h-223q-26 0 -26 28v117q0 27 26 27h629q29 0 29 -27v-117q0 -28 -29 -28h-221v-293q69 69 164 69q145 0 230 -93t85 -247v-669q0 -29 -29 -29h-127q-28 0 -28 29v671q0 80 -39.5 126t-110.5 46q-64 0 -104.5 -45.5t-40.5 -119.5v-678
q0 -29 -29 -29h-129z" />
    <glyph glyph-name="uni040C" unicode="&#x40c;" horiz-adv-x="913" 
d="M379 1575q-17 0 -22.5 10.5t3.5 22.5l134 186q11 16 34 16h117q17 0 21.5 -10t-7.5 -24l-161 -185q-11 -16 -35 -16h-84zM152 0q-29 0 -29 29v1378q0 27 29 27h129q26 0 26 -27v-600h164l168 604q7 23 31 23h129q31 0 24 -31l-188 -643q87 -39 133.5 -125.5t46.5 -204.5
v-401q0 -29 -29 -29h-129q-28 0 -28 29v405q0 93 -45.5 147t-126.5 54h-150v-606q0 -29 -26 -29h-129z" />
    <glyph glyph-name="uni040D" unicode="&#x40d;" horiz-adv-x="925" 
d="M586 1575h-84q-24 0 -35 16l-162 185q-12 14 -7.5 24t21.5 10h117q24 0 35 -16l133 -186q9 -12 4 -22.5t-22 -10.5zM616 1407q0 27 29 27h129q12 0 19.5 -7.5t7.5 -19.5v-1331q0 -82 -82 -82h-256q-166 0 -259 106.5t-93 274.5v1032q0 27 26 27h131q12 0 19.5 -7.5
t7.5 -19.5v-1034q0 -93 46.5 -150t123.5 -57h151v1241z" />
    <glyph glyph-name="uni040E" unicode="&#x40e;" horiz-adv-x="860" 
d="M410 1573q-99 0 -163 55t-73 148q-1 13 6.5 20.5t20.5 7.5h80q21 0 30 -24q6 -36 32 -56t67 -20t67.5 20.5t32.5 55.5q6 24 29 24h79q29 0 29 -28q-11 -93 -74 -148t-163 -55zM106 -8q-26 0 -26 28v115q0 29 26 29h287q78 0 125 55.5t47 145.5v159h-153q-161 0 -258 105
t-97 270v508q0 27 29 27h129q29 0 29 -27v-512q0 -88 47 -144.5t123 -56.5h151v713q0 12 7.5 19.5t19.5 7.5h131q12 0 19.5 -7.5t7.5 -19.5v-1038q0 -165 -97 -271t-256 -106h-291z" />
    <glyph glyph-name="uni040F" unicode="&#x40f;" horiz-adv-x="929" 
d="M403 -227q-28 0 -28 26v201h-142q-110 0 -110 111v1296q0 27 29 27h129q26 0 26 -27v-1235h316v1235q0 27 28 27h129q12 0 19.5 -7.5t7.5 -19.5v-1296q0 -54 -28 -82.5t-81 -28.5h-141v-201q0 -26 -29 -26h-125z" />
    <glyph glyph-name="uni0410" unicode="&#x410;" horiz-adv-x="923" 
d="M137 0q-26 0 -26 29v1048q0 169 96 273t254 104t255 -104t97 -273v-1048q0 -29 -29 -29h-129q-12 0 -20 8t-8 21v454h-332v-454q0 -29 -27 -29h-131zM295 653h332v432q0 93 -43.5 144t-122.5 51q-78 0 -122 -51.5t-44 -143.5v-432z" />
    <glyph glyph-name="uni0411" unicode="&#x411;" horiz-adv-x="854" 
d="M195 -6q-38 0 -61 23t-23 61v991q0 161 101 266t261 105h240q12 0 20 -8t8 -19v-117q0 -12 -8 -20t-20 -8h-240q-79 0 -128.5 -55.5t-49.5 -143.5v-227h166q161 0 253.5 -106.5t92.5 -270.5v-96q0 -171 -91.5 -273t-254.5 -102h-266zM295 166h158q77 0 122.5 56.5
t45.5 146.5v96q0 91 -45.5 148t-122.5 57h-158v-504z" />
    <glyph glyph-name="uni0412" unicode="&#x412;" horiz-adv-x="876" 
d="M647 737q77 -39 121.5 -113.5t44.5 -170.5v-95q0 -165 -96 -264.5t-252 -99.5h-272q-35 0 -58.5 23.5t-23.5 60.5v1016q0 163 91 261.5t240 98.5q154 0 247 -98.5t93 -261.5v-90q0 -90 -36 -161t-99 -106zM295 1104v-295h147q72 0 114 48t42 132v115q0 83 -41.5 130.5
t-114.5 47.5q-69 0 -108 -47.5t-39 -130.5zM625 348v107q0 88 -43 137t-121 49h-166v-477h166q78 0 121 48.5t43 135.5z" />
    <glyph glyph-name="uni0413" unicode="&#x413;" horiz-adv-x="735" 
d="M137 0q-26 0 -26 29v1032q0 175 97 277t265 102h209q12 0 19.5 -8.5t7.5 -20.5v-115q0 -12 -7.5 -20t-19.5 -8h-205q-89 0 -135.5 -51.5t-46.5 -147.5v-1040q0 -29 -27 -29h-131z" />
    <glyph glyph-name="uni0414" unicode="&#x414;" horiz-adv-x="1028" 
d="M51 -231q-28 0 -28 28v299q0 60 65 90q68 27 97.5 104.5t29.5 241.5v545q0 158 96 261.5t250 103.5h209q54 0 82.5 -28.5t28.5 -82.5v-1151l10 -8q52 0 81 -32.5t29 -88.5v-254q0 -12 -7 -20t-19 -8h-125q-12 0 -20.5 8t-8.5 20v203h-618v-203q0 -12 -7.5 -20t-19.5 -8
h-125zM299 172h397v1098h-131q-74 0 -120 -54t-46 -137v-571q0 -141 -22.5 -218t-77.5 -118z" />
    <glyph glyph-name="uni0415" unicode="&#x415;" horiz-adv-x="739" 
d="M438 -6q-154 0 -252 103.5t-98 262.5v713q0 159 98 263t252 104h215q12 0 19.5 -7.5t7.5 -19.5v-117q0 -28 -27 -28h-200q-79 0 -129 -55.5t-50 -143.5v-260h328q29 0 29 -29v-110q0 -29 -29 -29h-328v-276q0 -88 50 -143.5t129 -55.5h200q27 0 27 -29v-117
q0 -26 -27 -26h-215z" />
    <glyph glyph-name="uni0416" unicode="&#x416;" horiz-adv-x="1363" 
d="M131 0q-29 0 -29 29v415q0 106 46.5 190.5t127.5 125.5l-186 643q-3 14 3.5 22.5t21.5 8.5h127q25 0 32 -23l168 -604h150v600q0 27 26 27h127q29 0 29 -27v-600h150l168 604q7 23 30 23h129q13 0 19.5 -8.5t3.5 -22.5l-184 -643q80 -41 126 -125.5t46 -190.5v-415
q0 -29 -27 -29h-131q-27 0 -27 29v420q0 82 -46 134t-122 52h-135v-606q0 -29 -29 -29h-127q-26 0 -26 29v606h-137q-76 0 -121 -51.5t-45 -134.5v-420q0 -13 -8.5 -21t-20.5 -8h-129z" />
    <glyph glyph-name="uni0417" unicode="&#x417;" horiz-adv-x="837" 
d="M408 -16q-152 0 -248 96.5t-105 255.5q0 26 29 26h131q27 0 27 -26q6 -83 51.5 -131.5t116.5 -48.5q81 0 129.5 53t48.5 137v109q0 81 -48 134.5t-128 53.5h-140q-26 0 -26 29v110q0 29 26 29h134q69 0 109 50.5t40 133.5v109q0 84 -39 132t-108 48q-139 0 -148 -186
q-3 -29 -29 -29h-131q-26 0 -26 29q8 165 97.5 261.5t236.5 96.5q149 0 240 -101t91 -263v-86q0 -89 -34.5 -160t-96.5 -111q77 -41 120.5 -116.5t43.5 -165.5v-101q0 -163 -100 -265.5t-264 -102.5z" />
    <glyph glyph-name="uni0418" unicode="&#x418;" horiz-adv-x="925" 
d="M616 1407q0 27 29 27h129q12 0 19.5 -7.5t7.5 -19.5v-1331q0 -82 -82 -82h-256q-166 0 -259 106.5t-93 274.5v1032q0 27 26 27h131q12 0 19.5 -7.5t7.5 -19.5v-1034q0 -93 46.5 -150t123.5 -57h151v1241z" />
    <glyph glyph-name="uni0419" unicode="&#x419;" horiz-adv-x="925" 
d="M455 1573q-99 0 -163 55t-73 148q-1 13 6.5 20.5t20.5 7.5h80q21 0 30 -24q6 -36 32 -56t67 -20t67.5 20.5t32.5 55.5q6 24 29 24h80q28 0 28 -28q-11 -93 -74 -148t-163 -55zM616 1407q0 27 29 27h129q12 0 19.5 -7.5t7.5 -19.5v-1331q0 -82 -82 -82h-256
q-166 0 -259 106.5t-93 274.5v1032q0 27 26 27h131q12 0 19.5 -7.5t7.5 -19.5v-1034q0 -93 46.5 -150t123.5 -57h151v1241z" />
    <glyph glyph-name="uni041A" unicode="&#x41a;" horiz-adv-x="913" 
d="M152 0q-29 0 -29 29v1378q0 27 29 27h129q26 0 26 -27v-600h164l168 604q7 23 31 23h129q31 0 24 -31l-188 -643q87 -39 133.5 -125.5t46.5 -204.5v-401q0 -29 -29 -29h-129q-28 0 -28 29v405q0 93 -45.5 147t-126.5 54h-150v-606q0 -29 -26 -29h-129z" />
    <glyph glyph-name="uni041B" unicode="&#x41b;" horiz-adv-x="993" 
d="M53 -6q-12 -2 -19 5t-7 21v117q0 26 26 29q72 8 112 68.5t40 164.5v680q0 163 95.5 262t252.5 99h209q52 0 80 -28t28 -81v-1304q0 -27 -26 -27h-129q-29 0 -29 27v1241h-131q-77 0 -120.5 -50t-43.5 -139v-694q0 -171 -91.5 -277.5t-246.5 -113.5z" />
    <glyph glyph-name="uni041C" unicode="&#x41c;" horiz-adv-x="1296" 
d="M152 0q-29 0 -29 29v1325q0 86 84 86h119q65 0 86 -72l159 -506q46 -149 76 -254h4q19 78 74 254l160 506q21 72 86 72h121q40 0 61 -22.5t21 -63.5v-1325q0 -29 -27 -29h-129q-27 0 -27 29l2 745q0 220 6 440h-4q-63 -233 -80 -286l-149 -469q-19 -70 -92 -70h-51
q-74 0 -93 70l-149 469q-44 149 -78 286h-6q4 -154 8 -440v-745q0 -29 -26 -29h-127z" />
    <glyph glyph-name="uni041D" unicode="&#x41d;" horiz-adv-x="929" 
d="M623 1407q0 27 28 27h129q12 0 19.5 -7.5t7.5 -19.5v-1378q0 -29 -27 -29h-129q-28 0 -28 29v612h-316v-612q0 -29 -26 -29h-129q-29 0 -29 29v1378q0 27 29 27h129q26 0 26 -27v-596h316v596z" />
    <glyph glyph-name="uni041E" unicode="&#x41e;" horiz-adv-x="899" 
d="M451 -20q-160 0 -261.5 107t-101.5 278v704q0 171 101.5 278t261.5 107q159 0 259.5 -104.5t100.5 -266.5v-733q0 -162 -100.5 -266t-259.5 -104zM451 152q78 0 126 52.5t48 137.5v750q0 85 -48 137.5t-126 52.5q-79 0 -128 -55.5t-49 -149.5v-721q0 -94 49 -149t128 -55
z" />
    <glyph glyph-name="uni041F" unicode="&#x41f;" horiz-adv-x="935" 
d="M152 0q-29 0 -29 29v1296q0 53 28 81t82 28h472q52 0 80 -28t28 -81v-1296q0 -29 -27 -29h-133q-26 0 -26 29v1233h-316v-1233q0 -29 -28 -29h-131z" />
    <glyph glyph-name="uni0420" unicode="&#x420;" horiz-adv-x="860" 
d="M137 0q-26 0 -26 29v1048q0 169 93.5 274t250.5 105q159 0 255.5 -105.5t96.5 -273.5v-209q0 -158 -95.5 -255t-254.5 -97h-162v-487q0 -29 -27 -29h-131zM295 688h156q80 0 125 46.5t45 129.5v221q0 89 -44.5 143t-119.5 54t-118.5 -53.5t-43.5 -143.5v-397z" />
    <glyph glyph-name="uni0421" unicode="&#x421;" horiz-adv-x="839" 
d="M438 -23q-157 0 -253.5 101.5t-96.5 267.5v741q0 166 96.5 267.5t253.5 101.5q151 0 245.5 -107t98.5 -286q0 -27 -26 -27h-131q-27 0 -27 27q-3 105 -46.5 162t-115.5 57q-76 0 -119 -49t-43 -135v-762q0 -86 43 -135t119 -49q79 0 124 60.5t48 172.5q0 27 27 27h131
q27 0 27 -29q-6 -186 -102 -296t-253 -110z" />
    <glyph glyph-name="uni0422" unicode="&#x422;" horiz-adv-x="735" 
d="M682 1434q29 0 29 -27v-117q0 -28 -29 -28h-221v-1233q0 -29 -29 -29h-129q-27 0 -27 29v1233h-223q-26 0 -26 28v117q0 27 26 27h629z" />
    <glyph glyph-name="uni0423" unicode="&#x423;" horiz-adv-x="860" 
d="M106 -8q-26 0 -26 28v115q0 29 26 29h287q78 0 125 55.5t47 145.5v159h-153q-161 0 -258 105t-97 270v508q0 27 29 27h129q29 0 29 -27v-512q0 -88 47 -144.5t123 -56.5h151v713q0 12 7.5 19.5t19.5 7.5h131q12 0 19.5 -7.5t7.5 -19.5v-1038q0 -165 -97 -271t-256 -106
h-291z" />
    <glyph glyph-name="uni0424" unicode="&#x424;" horiz-adv-x="1271" 
d="M571 -106q-12 0 -19 8t-7 20v176h-121q-164 0 -262.5 107.5t-98.5 286.5v475q0 177 98.5 284t262.5 107h121v147q0 12 7 20.5t19 8.5h129q12 0 19.5 -8.5t7.5 -20.5v-147h119q165 0 262.5 -106.5t97.5 -284.5v-475q0 -179 -97.5 -286.5t-262.5 -107.5h-119v-176
q0 -12 -7.5 -20t-19.5 -8h-129zM432 270h113v916h-113q-87 0 -134.5 -56.5t-47.5 -156.5v-490q0 -100 47.5 -156.5t134.5 -56.5zM727 270h113q87 0 134.5 56.5t47.5 156.5v490q0 100 -47.5 156.5t-134.5 56.5h-113v-916z" />
    <glyph glyph-name="uni0425" unicode="&#x425;" horiz-adv-x="872" 
d="M784 1008q0 -186 -143 -281q143 -98 143 -283v-415q0 -29 -28 -29h-129q-29 0 -29 29v424q0 82 -45 134t-117 52t-117 -52t-45 -134v-424q0 -29 -28 -29h-129q-29 0 -29 29v415q0 185 143 283q-143 95 -143 281v399q0 27 29 27h129q28 0 28 -27v-408q0 -82 45 -135
t117 -53t117 53t45 135v408q0 27 29 27h129q28 0 28 -27v-399z" />
    <glyph glyph-name="uni0426" unicode="&#x426;" horiz-adv-x="948" 
d="M772 -227q-27 0 -27 26v199h-286q-163 0 -255.5 106.5t-92.5 278.5v1024q0 27 26 27h131q12 0 19.5 -7.5t7.5 -19.5v-1028q0 -94 46 -152.5t122 -58.5h153v1239q0 27 29 27h129q29 0 29 -27v-1237l10 -2q53 0 81 -28t28 -81v-260q0 -26 -27 -26h-123z" />
    <glyph glyph-name="uni0427" unicode="&#x427;" horiz-adv-x="851" 
d="M573 0q-28 0 -28 29v460h-154q-164 0 -259 101t-95 268v549q0 27 29 27h131q26 0 26 -27v-553q0 -91 44.5 -141.5t125.5 -50.5h152v745q0 27 28 27h129q12 0 19.5 -7.5t7.5 -19.5v-1378q0 -29 -27 -29h-129z" />
    <glyph glyph-name="uni0428" unicode="&#x428;" horiz-adv-x="1382" 
d="M457 -2q-160 0 -253 104.5t-93 264.5v1040q0 27 26 27h129q29 0 29 -27v-1042q0 -85 46 -141t120 -56h135v1239q0 27 29 27h127q26 0 26 -27v-1239h297v1239q0 27 29 27h127q29 0 29 -27v-1301q0 -53 -28.5 -80.5t-82.5 -27.5h-692z" />
    <glyph glyph-name="uni0429" unicode="&#x429;" horiz-adv-x="1411" 
d="M1235 -227q-27 0 -27 26v201h-751q-160 0 -253 105.5t-93 265.5v1036q0 27 26 27h129q29 0 29 -27v-1040q0 -84 46 -139.5t120 -55.5h137v1235q0 12 7.5 19.5t19.5 7.5h129q26 0 26 -27v-1235h301v1235q0 12 7.5 19.5t19.5 7.5h129q29 0 29 -27v-1235h10q53 0 80.5 -28.5
t27.5 -82.5v-262q0 -26 -26 -26h-123z" />
    <glyph glyph-name="uni042A" unicode="&#x42a;" horiz-adv-x="972" 
d="M580 862q153 0 246.5 -103t93.5 -265v-129q0 -163 -93.5 -266t-246.5 -103h-242q-111 0 -111 110v1156h-174q-26 0 -26 28v117q0 27 26 27h252q107 0 107 -109v-463h168zM733 356v144q0 80 -45.5 135t-118.5 55h-157v-522h157q73 0 118.5 54t45.5 134z" />
    <glyph glyph-name="uni042B" unicode="&#x42b;" horiz-adv-x="1265" 
d="M987 0q-29 0 -29 29v1380q0 27 29 27h129q12 0 19.5 -7.5t7.5 -19.5v-1380q0 -29 -27 -29h-129zM233 -4q-110 0 -110 110v1301q0 27 29 27h129q26 0 26 -27v-545h168q153 0 246.5 -103t93.5 -265v-129q0 -163 -93.5 -266t-246.5 -103h-242zM307 168h158q73 0 118.5 53
t45.5 131v152q0 79 -45.5 132.5t-118.5 53.5h-158v-522z" />
    <glyph glyph-name="uni042C" unicode="&#x42c;" horiz-adv-x="868" 
d="M233 -4q-110 0 -110 110v1301q0 27 29 27h129q26 0 26 -27v-545h168q150 0 245 -104.5t95 -263.5v-129q0 -160 -95 -264.5t-245 -104.5h-242zM307 168h158q74 0 119 52.5t45 135.5v144q0 83 -45 136.5t-119 53.5h-158v-522z" />
    <glyph glyph-name="uni042D" unicode="&#x42d;" horiz-adv-x="839" 
d="M401 1456q157 0 254 -101.5t97 -267.5v-741q0 -166 -97 -267.5t-254 -101.5t-252.5 110t-101.5 296q0 29 27 29h131q26 0 26 -27q3 -112 48 -172.5t124 -60.5q76 0 119 49t43 135v313h-332q-26 0 -26 27v102q0 12 7 20.5t19 8.5h332v291q0 86 -43 135t-119 49
q-72 0 -115 -57t-46 -162q0 -27 -27 -27h-131q-27 0 -27 27q4 179 98.5 286t245.5 107z" />
    <glyph glyph-name="uni042E" unicode="&#x42e;" horiz-adv-x="1284" 
d="M850 1456q151 0 248.5 -101.5t97.5 -260.5v-754q0 -159 -97.5 -261t-248.5 -102q-150 0 -247 102t-97 261v299h-199v-610q0 -29 -26 -29h-129q-29 0 -29 29v1378q0 27 29 27h129q26 0 26 -27v-596h199v283q0 159 97 260.5t247 101.5zM1010 332v770q0 82 -45.5 131
t-114.5 49t-113.5 -49t-44.5 -131v-770q0 -82 44.5 -131t113.5 -49t114.5 49t45.5 131z" />
    <glyph glyph-name="uni042F" unicode="&#x42f;" horiz-adv-x="894" 
d="M434 1456q160 0 255 -105t95 -274v-1048q0 -29 -28 -29h-129q-29 0 -29 29v491h-160l-182 -495q-6 -25 -29 -25h-137q-15 0 -23 9t-4 22l205 530q-88 41 -138 129t-50 203v184q0 169 96 274t258 105zM598 690v395q0 90 -44 143.5t-122 53.5t-122 -53.5t-44 -143.5v-196
q0 -91 46.5 -145t125.5 -54h160z" />
    <glyph glyph-name="uni0430" unicode="&#x430;" horiz-adv-x="796" 
d="M397 -20q-148 0 -239.5 91.5t-91.5 237.5q0 129 90 215t233 86h154v113q0 70 -40 113t-108 43q-63 0 -98.5 -38.5t-40.5 -103.5q-3 -24 -29 -24h-118q-12 0 -19.5 8t-7.5 20q9 136 94.5 221t220.5 85q145 0 232.5 -93t87.5 -239v-412q0 -143 -87 -233t-233 -90zM395 147
q70 0 109 42.5t39 113.5v150h-148q-70 0 -111.5 -41t-41.5 -103q0 -74 41 -118t112 -44z" />
    <glyph glyph-name="uni0431" unicode="&#x431;" horiz-adv-x="829" 
d="M422 -23q-145 0 -235.5 89.5t-90.5 228.5v694q0 317 291 400q83 25 256 63q31 3 31 -25v-110q0 -26 -25 -29q-152 -28 -229 -55q-79 -29 -113.5 -81.5t-34.5 -160.5v-61q74 74 193 74q124 0 203.5 -91t79.5 -235v-383q0 -139 -90 -228.5t-236 -89.5zM422 145
q70 0 110.5 45t40.5 119v363q0 74 -40.5 120t-110.5 46t-110 -45.5t-40 -120.5v-363q0 -74 40 -119t110 -45z" />
    <glyph glyph-name="uni0432" unicode="&#x432;" horiz-adv-x="817" 
d="M600 553q70 -31 111 -99t41 -157q0 -133 -86 -217t-220 -84h-245q-51 0 -78 26t-27 76v639q0 138 84.5 224t222.5 86q137 0 220.5 -79.5t83.5 -209.5q0 -68 -28.5 -121.5t-78.5 -83.5zM270 752v-136h127q68 0 105 36t37 100q0 65 -35 100t-101 35q-63 0 -98 -36t-35 -99z
M420 162q71 0 114.5 39.5t43.5 107.5q0 70 -43.5 111t-114.5 41h-150v-299h150z" />
    <glyph glyph-name="uni0433" unicode="&#x433;" horiz-adv-x="606" 
d="M125 0q-29 0 -29 29v653q0 167 86.5 256.5t247.5 89.5h109q26 0 26 -27v-112q0 -27 -26 -27h-107q-160 0 -160 -166v-667q0 -29 -28 -29h-119z" />
    <glyph glyph-name="uni0434" unicode="&#x434;" horiz-adv-x="937" 
d="M53 -227q-28 0 -28 26v295q0 52 51 72q104 38 104 182v346q0 144 89.5 239t224.5 95h186q50 0 78 -25.5t28 -74.5v-764l15 -4q46 0 71 -26t25 -75v-260q0 -26 -29 -26h-110q-12 0 -20.5 7t-8.5 19v201h-536v-201q0 -26 -29 -26h-111zM276 160h336v708h-106
q-70 0 -112 -50t-42 -136v-307q0 -133 -76 -215z" />
    <glyph glyph-name="uni0435" unicode="&#x435;" horiz-adv-x="798" 
d="M403 -20q-145 0 -234 91.5t-89 241.5v402q2 147 90.5 238t235.5 91q144 1 235.5 -90t91.5 -233q0 -136 -90 -222.5t-235 -86.5h-152v-107q0 -72 40.5 -116t109.5 -44q62 0 101 42t44 110q3 27 29 27h120q12 0 19.5 -7.5t7.5 -19.5q-7 -142 -96.5 -229.5t-227.5 -87.5z
M256 571h152q69 0 109 40t40 106q0 74 -40.5 118t-110.5 44q-71 0 -110.5 -43.5t-39.5 -118.5v-146z" />
    <glyph glyph-name="uni0436" unicode="&#x436;" horiz-adv-x="1206" 
d="M106 0q-26 0 -26 29v258q0 102 49.5 178t134.5 110l-203 416q-6 15 1.5 24t23.5 9h127q24 0 33 -20l186 -394h86v387q0 12 7.5 19.5t19.5 7.5h117q12 0 20 -7.5t8 -19.5v-387h84l187 394q9 20 32 20h129q14 0 21.5 -9.5t1.5 -23.5l-203 -416q85 -34 134.5 -110t49.5 -178
v-258q0 -29 -26 -29h-119q-27 0 -27 29v264q0 69 -43 110t-112 41h-109v-415q0 -13 -8 -21t-20 -8h-117q-27 0 -27 29v415h-110q-70 0 -113 -41.5t-43 -109.5v-264q0 -29 -27 -29h-119z" />
    <glyph glyph-name="uni0437" unicode="&#x437;" horiz-adv-x="761" 
d="M369 -23q-139 0 -229 85.5t-101 220.5q0 28 29 28h120q23 0 29 -26q6 -64 47 -102t107 -38q70 0 109.5 42.5t39.5 119.5q0 72 -41.5 113t-118.5 41h-79q-12 0 -20.5 7t-8.5 19v101q0 13 8.5 20.5t20.5 7.5h71q68 0 106 37t38 99t-35.5 97.5t-98.5 35.5q-120 0 -129 -140
q-3 -28 -28 -28h-119q-30 0 -27 28q7 141 89 221.5t214 80.5q136 0 219 -80t83 -209q0 -69 -32 -123t-87 -84q70 -28 111.5 -92t41.5 -152q0 -149 -91 -239.5t-238 -90.5z" />
    <glyph glyph-name="uni0438" unicode="&#x438;" horiz-adv-x="837" 
d="M426 -2q-145 0 -237.5 90t-92.5 234v675q0 27 29 27h119q28 0 28 -27v-682q0 -69 42.5 -110t111.5 -41h125v833q0 12 7.5 19.5t19.5 7.5h120q12 0 19.5 -7.5t7.5 -19.5v-897q0 -102 -102 -102h-197z" />
    <glyph glyph-name="uni0439" unicode="&#x439;" horiz-adv-x="837" 
d="M406 1149q-100 0 -164.5 55.5t-73.5 149.5q0 28 27 28h79q25 0 31 -26q13 -74 101 -74q85 0 98 74q9 26 31 26h79q27 0 27 -28q-9 -93 -72.5 -149t-162.5 -56zM426 -2q-145 0 -237.5 90t-92.5 234v675q0 27 29 27h119q28 0 28 -27v-682q0 -69 42.5 -110t111.5 -41h125
v833q0 12 7.5 19.5t19.5 7.5h120q12 0 19.5 -7.5t7.5 -19.5v-897q0 -102 -102 -102h-197z" />
    <glyph glyph-name="uni043A" unicode="&#x43a;" horiz-adv-x="821" 
d="M557 575q85 -34 134.5 -110.5t49.5 -177.5v-258q0 -29 -26 -29h-121q-27 0 -27 29v264q0 69 -43 110t-112 41h-123v-415q0 -29 -29 -29h-119q-28 0 -28 29v968q0 27 28 27h119q29 0 29 -27v-387h100l189 394q9 20 32 20h127q14 0 21.5 -9.5t1.5 -23.5z" />
    <glyph glyph-name="uni043B" unicode="&#x43b;" horiz-adv-x="872" 
d="M53 -4q-12 0 -20 8.5t-8 20.5v110q0 12 7.5 20.5t20.5 8.5q45 5 71 44.5t26 110.5v388q0 144 92 233.5t237 89.5h178q50 0 76.5 -26.5t26.5 -75.5v-899q0 -13 -8.5 -21t-20.5 -8h-117q-12 0 -20 8t-8 21v835h-107q-69 0 -112 -41t-43 -110v-389q0 -147 -72 -234.5
t-199 -93.5z" />
    <glyph glyph-name="uni043C" unicode="&#x43c;" horiz-adv-x="1126" 
d="M141 0q-28 0 -28 29v915q0 40 22 61t62 21h71q73 0 97 -61l118 -267q43 -94 78 -200h4q36 110 78 202l119 265q24 61 96 61h72q82 0 82 -82v-915q0 -29 -27 -29h-117q-12 0 -19.5 8t-6.5 21v463q0 178 6 292h-4q-41 -112 -78 -202l-92 -220q-23 -63 -96 -63h-29
q-73 0 -96 63l-95 220q-7 18 -75 202h-4q6 -114 6 -292v-463q0 -29 -29 -29h-115z" />
    <glyph glyph-name="uni043D" unicode="&#x43d;" horiz-adv-x="847" 
d="M561 997q0 27 29 27h119q26 0 26 -27v-968q0 -29 -26 -29h-119q-29 0 -29 29v415h-274v-415q0 -29 -27 -29h-119q-28 0 -28 29v968q0 27 28 27h119q12 0 19.5 -7.5t7.5 -19.5v-389h274v389z" />
    <glyph glyph-name="uni043E" unicode="&#x43e;" horiz-adv-x="817" 
d="M408 -23q-147 0 -237.5 93.5t-90.5 240.5v402q0 147 90.5 240.5t237.5 93.5q148 0 237.5 -93t89.5 -241v-402q0 -148 -89.5 -241t-237.5 -93zM408 143q70 0 110.5 44.5t40.5 117.5v414q0 73 -40.5 117.5t-110.5 44.5t-110 -44.5t-40 -117.5v-414q0 -73 40 -117.5
t110 -44.5z" />
    <glyph glyph-name="uni043F" unicode="&#x43f;" horiz-adv-x="849" 
d="M635 1024q49 0 75.5 -26t26.5 -76v-893q0 -29 -28 -29h-119q-27 0 -27 29v829h-274v-829q0 -29 -29 -29h-119q-28 0 -28 29v893q0 50 26.5 76t75.5 26h420z" />
    <glyph glyph-name="uni0440" unicode="&#x440;" horiz-adv-x="829" 
d="M424 1047q145 0 235.5 -93.5t90.5 -240.5v-402q0 -145 -85.5 -239.5t-211.5 -94.5q-104 0 -181 70v-430q0 -27 -26 -27h-121q-29 0 -29 27v1096q0 147 90.5 240.5t237.5 93.5zM573 305v414q0 73 -39.5 116.5t-109.5 43.5t-111 -43.5t-41 -116.5v-414q0 -73 41 -116.5
t111 -43.5t109.5 43.5t39.5 116.5z" />
    <glyph glyph-name="uni0441" unicode="&#x441;" horiz-adv-x="788" 
d="M406 -23q-145 0 -235.5 93.5t-90.5 240.5v402q0 147 88.5 240.5t232.5 93.5q137 0 224 -86.5t96 -227.5q1 -12 -6 -19t-21 -7h-121q-25 0 -28 26q-6 69 -43.5 107.5t-100.5 38.5q-67 0 -106 -43.5t-39 -116.5v-414q0 -73 39.5 -116.5t107.5 -43.5q64 0 104 42.5t46 117.5
q3 29 27 29h122q27 0 27 -31q-9 -146 -97 -236t-226 -90z" />
    <glyph glyph-name="uni0442" unicode="&#x442;" horiz-adv-x="686" 
d="M283 0q-29 0 -29 29v829h-201q-28 0 -28 29v110q0 27 28 27h580q26 0 26 -27v-110q0 -29 -26 -29h-203v-829q0 -29 -29 -29h-118z" />
    <glyph glyph-name="uni0443" unicode="&#x443;" horiz-adv-x="856" 
d="M715 1024q12 0 20 -7.5t8 -19.5v-1095q0 -152 -87.5 -243t-235.5 -91q-140 0 -227.5 89.5t-94.5 240.5q-3 28 27 28h121q23 0 26 -28q5 -77 43.5 -119.5t104.5 -42.5q70 0 108.5 42.5t38.5 117.5v206q-63 -73 -161 -73q-135 0 -222.5 92.5t-87.5 238.5v637q0 27 29 27
h119q28 0 28 -27v-643q0 -71 40 -115t108 -44t107.5 43.5t39.5 115.5v643q0 27 29 27h119z" />
    <glyph glyph-name="uni0444" unicode="&#x444;" horiz-adv-x="1226" 
d="M555 -410q-12 0 -19.5 7.5t-7.5 19.5v377h-131q-140 0 -228.5 93.5t-88.5 240.5v368q0 147 88.5 240.5t228.5 93.5h131v377q0 12 7.5 19.5t19.5 7.5h117q28 0 28 -27v-377h131q140 0 228 -93.5t88 -240.5v-368q0 -147 -88 -240.5t-228 -93.5h-131v-377q0 -27 -28 -27
h-117zM397 160h131v704h-131q-65 0 -103 -44t-38 -115v-386q0 -71 38 -115t103 -44zM700 160h131q65 0 103.5 44t38.5 115v386q0 71 -38.5 115t-103.5 44h-131v-704z" />
    <glyph glyph-name="uni0445" unicode="&#x445;" horiz-adv-x="800" 
d="M109 0q-29 0 -29 29v231q0 79 36 144t101 108q-137 88 -137 248v237q0 27 29 27h120q12 0 19.5 -7.5t7.5 -19.5v-243q0 -71 39 -115.5t104 -44.5q67 0 106.5 44.5t39.5 115.5v243q0 27 26 27h121q12 0 19.5 -7.5t7.5 -19.5v-237q0 -162 -135 -248q65 -43 100 -108
t35 -144v-231q0 -29 -27 -29h-121q-26 0 -26 29v237q0 73 -39.5 117.5t-106.5 44.5q-65 0 -104 -44.5t-39 -117.5v-237q0 -29 -27 -29h-120z" />
    <glyph glyph-name="uni0446" unicode="&#x446;" horiz-adv-x="907" 
d="M715 -227q-27 0 -27 26v195h-262q-145 0 -237.5 89.5t-92.5 233.5v680q0 27 29 27h119q28 0 28 -27v-686q0 -69 42.5 -110t111.5 -41h139v837q0 12 7.5 19.5t19.5 7.5h121q26 0 26 -27v-835l15 -2q51 0 77.5 -26.5t26.5 -76.5v-258q0 -26 -29 -26h-114z" />
    <glyph glyph-name="uni0447" unicode="&#x447;" horiz-adv-x="808" 
d="M561 0q-26 0 -26 29v309h-150q-138 0 -230 91t-92 228v340q0 27 29 27h123q29 0 29 -27v-346q0 -63 40.5 -105t100.5 -42h150v493q0 27 26 27h123q29 0 29 -27v-968q0 -29 -29 -29h-123z" />
    <glyph glyph-name="uni0448" unicode="&#x448;" horiz-adv-x="1245" 
d="M420 -4q-145 0 -234.5 92.5t-89.5 239.5v669q0 27 29 27h117q28 0 28 -27v-675q0 -71 40 -115.5t108 -44.5h121v835q0 27 26 27h119q12 0 19.5 -7.5t7.5 -19.5v-835h264v835q0 27 29 27h116q29 0 29 -27v-899q0 -102 -102 -102h-627z" />
    <glyph glyph-name="uni0449" unicode="&#x449;" horiz-adv-x="1292" 
d="M1124 -227q-28 0 -28 26v197h-676q-145 0 -234.5 92.5t-89.5 239.5v669q0 27 29 27h117q28 0 28 -27v-675q0 -71 40 -115.5t108 -44.5h121v835q0 27 26 27h119q12 0 19.5 -7.5t7.5 -19.5v-835h264v835q0 27 29 27h116q29 0 29 -27v-833l14 -2q103 0 103 -103v-260
q0 -26 -27 -26h-115z" />
    <glyph glyph-name="uni044A" unicode="&#x44a;" horiz-adv-x="927" 
d="M532 647q146 0 237 -90t91 -233q0 -147 -92.5 -238.5t-237.5 -91.5h-208q-51 0 -78 26t-27 76v764h-164q-28 0 -28 29v108q0 27 28 27h238q100 0 100 -102v-275h141zM530 160q70 0 113 44.5t43 121.5q0 75 -43 119t-113 44h-139v-329h139z" />
    <glyph glyph-name="uni044B" unicode="&#x44b;" horiz-adv-x="1136" 
d="M215 -6q-49 0 -75.5 26t-26.5 76v901q0 27 28 27h119q12 0 19.5 -7.5t7.5 -19.5v-368h141q144 0 237 -87t93 -227t-95 -230.5t-237 -90.5h-211zM877 0q-27 0 -27 29v968q0 12 7.5 19.5t19.5 7.5h120q12 0 19.5 -7.5t7.5 -19.5v-968q0 -29 -27 -29h-120zM287 160h139
q70 0 113 42t43 115q0 70 -43 111t-113 41h-139v-309z" />
    <glyph glyph-name="uni044C" unicode="&#x44c;" horiz-adv-x="806" 
d="M215 -6q-49 0 -75.5 26t-26.5 76v901q0 27 28 27h119q12 0 19.5 -7.5t7.5 -19.5v-350h141q146 0 237 -90t91 -233q0 -147 -92.5 -238.5t-237.5 -91.5h-211zM287 158h139q72 0 114 44.5t42 123.5q0 76 -42 119.5t-114 43.5h-139v-331z" />
    <glyph glyph-name="uni044D" unicode="&#x44d;" horiz-adv-x="798" 
d="M393 -23q-140 0 -228 88t-95 236q0 31 26 31h123q24 0 27 -29q4 -76 42.5 -117t106.5 -41q69 0 108.5 42.5t39.5 117.5v154h-322q-12 0 -20 7t-8 19v80q0 12 8 19.5t20 7.5h322v127q0 75 -39.5 117.5t-108.5 42.5q-65 0 -104 -37.5t-45 -108.5q-3 -26 -27 -26h-123
q-26 0 -26 26q9 142 98 228t227 86q145 0 234.5 -92t89.5 -242v-402q0 -151 -90 -242.5t-236 -91.5z" />
    <glyph glyph-name="uni044E" unicode="&#x44e;" horiz-adv-x="1148" 
d="M754 -23q-140 0 -227 93.5t-87 240.5v131h-153v-413q0 -13 -8.5 -21t-20.5 -8h-117q-28 0 -28 29v968q0 27 28 27h117q12 0 20.5 -7.5t8.5 -19.5v-389h153v105q0 147 87 240.5t227 93.5t227.5 -93.5t87.5 -240.5v-402q0 -147 -87.5 -240.5t-227.5 -93.5zM754 145
q65 0 103 43.5t38 116.5v414q0 73 -38 116.5t-103 43.5q-66 0 -104 -43.5t-38 -116.5v-414q0 -73 38 -116.5t104 -43.5z" />
    <glyph glyph-name="uni044F" unicode="&#x44f;" horiz-adv-x="833" 
d="M424 1047q137 0 224 -88t87 -232v-698q0 -29 -26 -29h-119q-27 0 -27 29v344h-151l-172 -348q-8 -25 -35 -25h-127q-15 0 -22.5 10t-0.5 23l199 381q-78 39 -123 116.5t-45 180.5q0 151 95.5 243.5t242.5 92.5zM563 537v188q0 73 -37.5 113.5t-101.5 40.5
q-74 0 -118 -44.5t-44 -125.5q0 -82 42.5 -127t115.5 -45h143z" />
    <glyph glyph-name="uni0451" unicode="&#x451;" horiz-adv-x="798" 
d="M270 1163q-41 0 -65.5 25t-24.5 65t24.5 65t65.5 25q40 0 65 -25t25 -65t-25 -65t-65 -25zM512 1163q-40 0 -65 25t-25 65t25 65t65 25t65 -25t25 -65t-25 -65t-65 -25zM403 -20q-145 0 -234 91.5t-89 241.5v402q2 147 90.5 238t235.5 91q144 1 235.5 -90t91.5 -233
q0 -136 -90 -222.5t-235 -86.5h-152v-107q0 -72 40.5 -116t109.5 -44q62 0 101 42t44 110q3 27 29 27h120q12 0 19.5 -7.5t7.5 -19.5q-7 -142 -96.5 -229.5t-227.5 -87.5zM256 571h152q69 0 109 40t40 106q0 74 -40.5 118t-110.5 44q-71 0 -110.5 -43.5t-39.5 -118.5v-146z
" />
    <glyph glyph-name="uni0452" unicode="&#x452;" horiz-adv-x="931" 
d="M530 1038q138 0 222 -93t84 -243v-743q0 -181 -93.5 -280.5t-259.5 -104.5q-28 0 -28 27v110q0 29 28 29q87 5 133 56.5t46 148.5v764q0 74 -40 118.5t-110 44.5q-66 0 -106.5 -45t-40.5 -118v-680q0 -29 -27 -29h-121q-27 0 -27 29v1155h-137q-26 0 -26 26v64
q0 26 26 26h137v107q0 12 7.5 19.5t19.5 7.5h121q12 0 19.5 -7.5t7.5 -19.5v-107h264q28 0 28 -26v-64q0 -26 -28 -26h-264v-215q69 69 165 69z" />
    <glyph glyph-name="uni0453" unicode="&#x453;" horiz-adv-x="610" 
d="M563 1386q18 0 23 -10t-6 -24l-144 -191q-11 -16 -35 -16h-84q-17 0 -22 9.5t4 23.5l117 188q10 20 33 20h114zM125 0q-29 0 -29 29v653q0 167 86.5 256.5t247.5 89.5h109q26 0 26 -27v-112q0 -27 -26 -27h-107q-160 0 -160 -166v-667q0 -29 -28 -29h-119z" />
    <glyph glyph-name="uni0454" unicode="&#x454;" horiz-adv-x="798" 
d="M406 -23q-146 0 -236 91.5t-90 242.5v402q0 150 89 242t234 92q138 0 227.5 -86t98.5 -228q0 -26 -27 -26h-122q-24 0 -27 26q-6 71 -45.5 108.5t-104.5 37.5q-69 0 -108 -42.5t-39 -117.5v-127h322q12 0 20 -7.5t8 -19.5v-80q0 -12 -8 -19t-20 -7h-322v-154
q0 -75 39 -117.5t108 -42.5q68 0 107 41t43 117q3 29 27 29h122q27 0 27 -31q-7 -148 -95 -236t-228 -88z" />
    <glyph glyph-name="uni0455" unicode="&#x455;" horiz-adv-x="790" 
d="M408 -23q-155 0 -246 93t-96 233q0 31 28 31h119q26 0 29 -27q12 -162 164 -162q69 0 106 35t37 92q0 42 -26 74.5t-67.5 54.5t-92 43.5t-100.5 48t-91.5 59.5t-67.5 86.5t-26 121.5q0 124 86 205.5t223 81.5q155 0 236 -86t86 -216q0 -28 -27 -28h-121q-26 0 -29 26
q-5 62 -41 100t-100 38q-63 0 -101 -34.5t-38 -90.5q0 -40 26 -70.5t68 -52t92 -42.5t100.5 -47.5t92.5 -60.5t68 -88.5t26 -124.5q0 -126 -88 -209.5t-229 -83.5z" />
    <glyph glyph-name="uni0456" unicode="&#x456;" horiz-adv-x="401" 
d="M201 1153q-45 0 -75 29.5t-30 74.5q0 46 29.5 76.5t75.5 30.5q45 0 75.5 -31t30.5 -76q0 -42 -31 -73t-75 -31zM141 0q-28 0 -28 29v968q0 27 28 27h119q29 0 29 -27v-968q0 -29 -29 -29h-119z" />
    <glyph glyph-name="uni0457" unicode="&#x457;" horiz-adv-x="411" 
d="M98 1167q-37 0 -59.5 23t-24.5 61q2 38 24.5 61t59.5 23t61.5 -23t24.5 -61t-24.5 -61t-61.5 -23zM317 1167q-38 0 -62 23t-24 61t24 61t62 23q36 0 59 -23t23 -61t-23 -61t-59 -23zM147 0q-28 0 -28 29v968q0 27 28 27h119q29 0 29 -27v-968q0 -29 -29 -29h-119z" />
    <glyph glyph-name="uni0458" unicode="&#x458;" horiz-adv-x="522" 
d="M303 1153q-45 0 -74.5 29.5t-29.5 74.5q0 46 29.5 76.5t74.5 30.5t76 -31t31 -76q0 -42 -31.5 -73t-75.5 -31zM29 -420q-29 0 -29 27v112q0 27 29 27h14q176 6 176 186v1065q0 12 7.5 19.5t19.5 7.5h121q26 0 26 -27v-1050q0 -171 -90 -268.5t-256 -98.5h-18z" />
    <glyph glyph-name="uni0459" unicode="&#x459;" horiz-adv-x="1282" 
d="M903 629q143 0 235.5 -89t92.5 -229t-93.5 -227.5t-236.5 -87.5h-196q-103 0 -103 102v764h-125q-69 0 -112 -41t-43 -110v-422q0 -123 -75.5 -205t-193.5 -88q-12 0 -20 8.5t-8 20.5v110q0 12 7.5 20.5t20.5 8.5q42 5 69.5 38.5t27.5 82.5v420q0 142 92 232.5t235 90.5
h193q50 0 77 -26.5t27 -75.5v-297h129zM901 162q70 0 114 41.5t44 113.5q0 70 -44 111t-114 41h-127v-307h127z" />
    <glyph glyph-name="uni045A" unicode="&#x45a;" horiz-adv-x="1251" 
d="M141 0q-28 0 -28 29v968q0 27 28 27h119q12 0 19.5 -7.5t7.5 -19.5v-379h280v379q0 12 7.5 19.5t19.5 7.5h119q28 0 28 -27v-374h131q145 0 237.5 -88.5t92.5 -227.5q0 -138 -94.5 -225.5t-237.5 -87.5h-200q-50 0 -76.5 26.5t-26.5 75.5v357h-280v-424q0 -29 -27 -29
h-119zM741 160h129q70 0 114 41t44 112q0 68 -44 109t-114 41h-129v-303z" />
    <glyph glyph-name="uni045B" unicode="&#x45b;" horiz-adv-x="931" 
d="M217 0q-12 0 -20.5 8t-8.5 21v1155h-135q-28 0 -28 26v64q0 26 28 26h135v107q0 12 8.5 19.5t20.5 7.5h119q29 0 29 -27v-107h264q28 0 28 -26v-64q0 -26 -28 -26h-264v-217q64 71 163 71q139 0 223.5 -93t84.5 -243v-673q0 -29 -27 -29h-121q-29 0 -29 29v680
q0 75 -39 119t-110 44q-66 0 -105.5 -44.5t-39.5 -118.5v-680q0 -29 -29 -29h-119z" />
    <glyph glyph-name="uni045C" unicode="&#x45c;" horiz-adv-x="821" 
d="M598 1386q18 0 22.5 -10t-6.5 -24l-143 -191q-11 -16 -35 -16h-84q-17 0 -22 9.5t4 23.5l117 188q10 20 32 20h115zM557 575q85 -34 134.5 -110.5t49.5 -177.5v-258q0 -29 -26 -29h-121q-27 0 -27 29v264q0 69 -43 110t-112 41h-123v-415q0 -29 -29 -29h-119
q-28 0 -28 29v968q0 27 28 27h119q29 0 29 -27v-387h100l189 394q9 20 32 20h127q14 0 21.5 -9.5t1.5 -23.5z" />
    <glyph glyph-name="uni045D" unicode="&#x45d;" horiz-adv-x="837" 
d="M221 1386h115q23 0 33 -20l116 -188q9 -14 4 -23.5t-22 -9.5h-84q-24 0 -35 16l-143 191q-11 14 -6.5 24t22.5 10zM426 -2q-145 0 -237.5 90t-92.5 234v675q0 27 29 27h119q28 0 28 -27v-682q0 -69 42.5 -110t111.5 -41h125v833q0 12 7.5 19.5t19.5 7.5h120
q12 0 19.5 -7.5t7.5 -19.5v-897q0 -102 -102 -102h-197z" />
    <glyph glyph-name="uni045E" unicode="&#x45e;" horiz-adv-x="856" 
d="M416 1149q-100 0 -164.5 55.5t-73.5 149.5q0 28 27 28h80q24 0 30 -26q13 -74 101 -74q85 0 98 74q9 26 31 26h80q26 0 26 -28q-9 -93 -72.5 -149t-162.5 -56zM715 1024q12 0 20 -7.5t8 -19.5v-1095q0 -152 -87.5 -243t-235.5 -91q-140 0 -227.5 89.5t-94.5 240.5
q-3 28 27 28h121q23 0 26 -28q5 -77 43.5 -119.5t104.5 -42.5q70 0 108.5 42.5t38.5 117.5v206q-63 -73 -161 -73q-135 0 -222.5 92.5t-87.5 238.5v637q0 27 29 27h119q28 0 28 -27v-643q0 -71 40 -115t108 -44t107.5 43.5t39.5 115.5v643q0 27 29 27h119z" />
    <glyph glyph-name="uni045F" unicode="&#x45f;" horiz-adv-x="864" 
d="M379 -227q-27 0 -27 26v201h-137q-49 0 -75.5 26t-26.5 76v895q0 27 28 27h119q29 0 29 -27v-831h286v831q0 27 29 27h119q12 0 19.5 -7.5t7.5 -19.5v-895q0 -102 -103 -102h-135v-201q0 -26 -27 -26h-106z" />
    <glyph glyph-name="uni0490" unicode="&#x490;" horiz-adv-x="731" 
d="M678 1618q29 0 29 -27v-293q0 -12 -8.5 -20t-20.5 -8h-205q-84 0 -131 -52t-47 -145v-1044q0 -29 -27 -29h-131q-26 0 -26 29v1044q0 167 98.5 268t263.5 101h74v149q0 27 28 27h103z" />
    <glyph glyph-name="uni0491" unicode="&#x491;" horiz-adv-x="638" 
d="M125 0q-29 0 -29 29v686q0 141 85 227t222 86l43 4v125q0 12 7.5 19.5t19.5 7.5h98q12 0 19.5 -7.5t7.5 -19.5v-188q0 -105 -102 -105h-78q-67 0 -106.5 -38t-39.5 -105v-692q0 -29 -28 -29h-119z" />
    <glyph glyph-name="Wgrave" unicode="&#x1e80;" horiz-adv-x="1370" 
d="M698 1591l-161 185q-12 14 -7.5 24t21.5 10h117q23 0 34 -16l134 -186q9 -12 3.5 -22.5t-22.5 -10.5h-84q-24 0 -35 16zM1233 1434q29 0 29 -27v-1049q0 -174 -90 -277.5t-244 -103.5q-82 0 -139.5 33.5t-104.5 95.5q-93 -129 -240 -129q-154 0 -243.5 103.5t-89.5 277.5
v1049q0 27 26 27h129q12 0 19.5 -7.5t7.5 -19.5v-1057q0 -96 39 -147t112 -51q69 0 109.5 52t40.5 146v1057q0 12 7.5 19.5t19.5 7.5h129q26 0 26 -27v-1057q0 -93 42 -145.5t110 -52.5q73 0 111 51t38 147v1057q0 12 7.5 19.5t19.5 7.5h129z" />
    <glyph glyph-name="wgrave" unicode="&#x1e81;" horiz-adv-x="1251" 
d="M444 1386h115q23 0 33 -20l117 -188q9 -14 3.5 -23.5t-22.5 -9.5h-84q-24 0 -35 16l-143 191q-11 14 -6.5 24t22.5 10zM848 -23q-70 0 -127 33.5t-94 91.5q-36 -57 -94 -91t-127 -34q-139 0 -224.5 93.5t-85.5 240.5v684q0 29 29 29h117q28 0 28 -29v-690
q0 -73 36 -116.5t100 -43.5q63 0 98 43.5t35 116.5v690q0 29 28 29h119q27 0 27 -29v-690q0 -73 35.5 -116.5t99.5 -43.5q63 0 98 43.5t35 116.5v690q0 29 29 29h118q27 0 27 -29v-684q0 -148 -84.5 -241t-222.5 -93z" />
    <glyph glyph-name="Wacute" unicode="&#x1e82;" horiz-adv-x="1370" 
d="M604 1575q-17 0 -22 10.5t4 22.5l133 186q11 16 35 16h116q17 0 22 -10t-7 -24l-162 -185q-11 -16 -35 -16h-84zM1233 1434q29 0 29 -27v-1049q0 -174 -90 -277.5t-244 -103.5q-82 0 -139.5 33.5t-104.5 95.5q-93 -129 -240 -129q-154 0 -243.5 103.5t-89.5 277.5v1049
q0 27 26 27h129q12 0 19.5 -7.5t7.5 -19.5v-1057q0 -96 39 -147t112 -51q69 0 109.5 52t40.5 146v1057q0 12 7.5 19.5t19.5 7.5h129q26 0 26 -27v-1057q0 -93 42 -145.5t110 -52.5q73 0 111 51t38 147v1057q0 12 7.5 19.5t19.5 7.5h129z" />
    <glyph glyph-name="wacute" unicode="&#x1e83;" horiz-adv-x="1251" 
d="M784 1386q18 0 23 -10t-6 -24l-144 -191q-11 -16 -34 -16h-84q-17 0 -22.5 9.5t3.5 23.5l117 188q10 20 33 20h114zM848 -23q-70 0 -127 33.5t-94 91.5q-36 -57 -94 -91t-127 -34q-139 0 -224.5 93.5t-85.5 240.5v684q0 29 29 29h117q28 0 28 -29v-690q0 -73 36 -116.5
t100 -43.5q63 0 98 43.5t35 116.5v690q0 29 28 29h119q27 0 27 -29v-690q0 -73 35.5 -116.5t99.5 -43.5q63 0 98 43.5t35 116.5v690q0 29 29 29h118q27 0 27 -29v-684q0 -148 -84.5 -241t-222.5 -93z" />
    <glyph glyph-name="Wdieresis" unicode="&#x1e84;" horiz-adv-x="1370" 
d="M565 1587q-41 0 -65.5 25t-24.5 65t24.5 65t65.5 25q40 0 65 -25t25 -65t-25 -65t-65 -25zM807 1587q-40 0 -65 25t-25 65t25 65t65 25t65 -25t25 -65t-25 -65t-65 -25zM1233 1434q29 0 29 -27v-1049q0 -174 -90 -277.5t-244 -103.5q-82 0 -139.5 33.5t-104.5 95.5
q-93 -129 -240 -129q-154 0 -243.5 103.5t-89.5 277.5v1049q0 27 26 27h129q12 0 19.5 -7.5t7.5 -19.5v-1057q0 -96 39 -147t112 -51q69 0 109.5 52t40.5 146v1057q0 12 7.5 19.5t19.5 7.5h129q26 0 26 -27v-1057q0 -93 42 -145.5t110 -52.5q73 0 111 51t38 147v1057
q0 12 7.5 19.5t19.5 7.5h129z" />
    <glyph glyph-name="wdieresis" unicode="&#x1e85;" horiz-adv-x="1251" 
d="M508 1163q-41 0 -65.5 25t-24.5 65t24.5 65t65.5 25q40 0 65 -25t25 -65t-25 -65t-65 -25zM750 1163q-40 0 -65.5 25t-25.5 65t25.5 65t65.5 25t65 -25t25 -65t-25 -65t-65 -25zM848 -23q-70 0 -127 33.5t-94 91.5q-36 -57 -94 -91t-127 -34q-139 0 -224.5 93.5
t-85.5 240.5v684q0 29 29 29h117q28 0 28 -29v-690q0 -73 36 -116.5t100 -43.5q63 0 98 43.5t35 116.5v690q0 29 28 29h119q27 0 27 -29v-690q0 -73 35.5 -116.5t99.5 -43.5q63 0 98 43.5t35 116.5v690q0 29 29 29h118q27 0 27 -29v-684q0 -148 -84.5 -241t-222.5 -93z" />
    <glyph glyph-name="Ygrave" unicode="&#x1ef2;" horiz-adv-x="851" 
d="M557 1575h-84q-24 0 -35 16l-162 185q-12 14 -7 24t22 10h117q23 0 34 -16l133 -186q9 -12 4 -22.5t-22 -10.5zM362 0q-28 0 -28 29v440q-116 28 -186 124.5t-70 229.5v584q0 27 28 27h130q12 0 20 -7.5t8 -19.5v-592q0 -81 44.5 -133.5t117.5 -52.5t118.5 53t45.5 133
v592q0 27 26 27h129q29 0 29 -27v-584q0 -134 -69.5 -230t-186.5 -124v-440q0 -29 -26 -29h-130z" />
    <glyph glyph-name="ygrave" unicode="&#x1ef3;" horiz-adv-x="856" 
d="M369 1161l-144 191q-11 14 -6 24t23 10h114q23 0 33 -20l117 -188q9 -14 3.5 -23.5t-22.5 -9.5h-84q-23 0 -34 16zM715 1024q12 0 20 -7.5t8 -19.5v-1095q0 -152 -87.5 -243t-235.5 -91q-140 0 -227.5 89.5t-94.5 240.5q-3 28 27 28h121q23 0 26 -28q5 -77 43.5 -119.5
t104.5 -42.5q70 0 108.5 42.5t38.5 117.5v206q-63 -73 -161 -73q-135 0 -222.5 92.5t-87.5 238.5v637q0 27 29 27h119q28 0 28 -27v-643q0 -71 40 -115t108 -44t107.5 43.5t39.5 115.5v643q0 27 29 27h119z" />
    <glyph glyph-name="endash" unicode="&#x2013;" horiz-adv-x="790" 
d="M57 449q-26 0 -26 26v103q0 12 7 20t19 8h676q13 0 21 -8t8 -20v-103q0 -26 -29 -26h-676z" />
    <glyph glyph-name="emdash" unicode="&#x2014;" horiz-adv-x="1058" 
d="M35 578q0 12 7 20t19 8h936q12 0 20.5 -8t8.5 -20v-103q0 -12 -8.5 -19t-20.5 -7h-936q-26 0 -26 26v103z" />
    <glyph glyph-name="quoteleft" unicode="&#x2018;" horiz-adv-x="235" 
d="M193 1057q0 -27 -29 -27h-113q-13 0 -20.5 8.5t-5.5 22.5l67 348q3 25 29 25h65q27 0 27 -29z" />
    <glyph glyph-name="quoteright" unicode="&#x2019;" horiz-adv-x="235" 
d="M45 1407q0 27 29 27h112q13 0 21 -8.5t6 -22.5l-68 -348q-3 -25 -28 -25h-66q-26 0 -26 29z" />
    <glyph glyph-name="quotesinglbase" unicode="&#x201a;" horiz-adv-x="256" 
d="M47 158q0 26 29 26h112q14 0 21 -8.5t6 -21.5l-68 -349q-3 -24 -28 -24h-66q-26 0 -26 29z" />
    <glyph glyph-name="quotedblleft" unicode="&#x201c;" horiz-adv-x="466" 
d="M188 1057q0 -27 -28 -27h-113q-13 0 -21 8.5t-6 22.5l68 348q3 25 29 25h65q27 0 27 -29zM422 1057q0 -27 -29 -27h-112q-13 0 -21 8.5t-6 22.5l68 348q3 25 28 25h66q26 0 26 -29z" />
    <glyph glyph-name="quotedblright" unicode="&#x201d;" horiz-adv-x="479" 
d="M49 1407q0 27 29 27h112q13 0 21 -8.5t6 -22.5l-67 -348q-3 -25 -29 -25h-66q-26 0 -26 29zM283 1407q0 27 28 27h113q13 0 21 -8.5t6 -22.5l-68 -348q-3 -25 -29 -25h-65q-27 0 -27 29z" />
    <glyph glyph-name="quotedblbase" unicode="&#x201e;" horiz-adv-x="258" 
d="M47 158q0 26 29 26h112q14 0 21 -8.5t6 -21.5l-68 -349q-3 -24 -28 -24h-66q-26 0 -26 29z" />
    <glyph glyph-name="dagger" unicode="&#x2020;" horiz-adv-x="720" 
d="M653 1053q13 0 21 -8.5t8 -20.5v-104q0 -29 -29 -29h-209v-1069q0 -27 -26 -27h-115q-29 0 -29 27v1069h-208q-27 0 -27 29v104q0 12 7.5 20.5t19.5 8.5h208v354q0 27 29 27h115q26 0 26 -27v-354h209z" />
    <glyph glyph-name="daggerdbl" unicode="&#x2021;" horiz-adv-x="733" 
d="M659 891h-208v-463h208q29 0 29 -27v-106q0 -27 -29 -27h-208v-446q0 -12 -7.5 -19.5t-19.5 -7.5h-115q-28 0 -28 27v446h-209q-12 0 -19.5 7.5t-7.5 19.5v106q0 12 7.5 19.5t19.5 7.5h209v463h-209q-27 0 -27 29v104q0 12 7.5 20.5t19.5 8.5h209v354q0 27 28 27h115
q12 0 19.5 -7.5t7.5 -19.5v-354h208q13 0 21 -8.5t8 -20.5v-104q0 -29 -29 -29z" />
    <glyph glyph-name="bullet" unicode="&#x2022;" horiz-adv-x="405" 
d="M201 358q-64 0 -109 44.5t-45 109.5t45.5 111.5t108.5 46.5q64 0 110.5 -46.5t46.5 -111.5t-46 -109.5t-111 -44.5z" />
    <glyph glyph-name="ellipsis" unicode="&#x2026;" horiz-adv-x="1028" 
d="M166 -20q-51 0 -83 32t-32 82q0 51 32 83t83 32q50 0 82.5 -32t32.5 -83q0 -49 -32.5 -81.5t-82.5 -32.5zM514 -20q-50 0 -82.5 32.5t-32.5 81.5q0 51 32.5 83t82.5 32t82.5 -32t32.5 -83q0 -49 -32.5 -81.5t-82.5 -32.5zM864 -20q-51 0 -82.5 32t-31.5 82q0 51 31.5 83
t82.5 32q50 0 82.5 -32t32.5 -83q0 -49 -32.5 -81.5t-82.5 -32.5z" />
    <glyph glyph-name="perthousand" unicode="&#x2030;" horiz-adv-x="1708" 
d="M238 801q-81 0 -134 51.5t-53 128.5v289q0 79 53 131.5t134 52.5q78 0 130 -53t52 -131v-289q0 -77 -52 -128.5t-130 -51.5zM70 -8q-14 0 -23 10.5t-2 20.5l1026 1396q19 23 35 23h82q15 0 24 -10.5t0 -20.5l-1024 -1397q-18 -22 -34 -22h-84zM238 911q28 0 44.5 19.5
t16.5 50.5v291q0 32 -16.5 51.5t-44.5 19.5q-29 0 -46.5 -19.5t-17.5 -51.5v-291q0 -31 17.5 -50.5t46.5 -19.5zM1024 -18q-79 0 -131.5 51.5t-52.5 128.5v289q0 78 52.5 131t131.5 53t131.5 -53t52.5 -131v-289q0 -77 -52.5 -128.5t-131.5 -51.5zM1495 -18
q-79 0 -131.5 51.5t-52.5 128.5v289q0 78 52.5 131t131.5 53t131.5 -53t52.5 -131v-289q0 -77 -52.5 -128.5t-131.5 -51.5zM1024 92q28 0 44.5 19.5t16.5 50.5v291q0 32 -16.5 51.5t-44.5 19.5t-45.5 -19.5t-17.5 -51.5v-291q0 -31 17.5 -50.5t45.5 -19.5zM1495 92
q28 0 44.5 19.5t16.5 50.5v291q0 32 -16.5 51.5t-44.5 19.5t-45.5 -19.5t-17.5 -51.5v-291q0 -31 17.5 -50.5t45.5 -19.5z" />
    <glyph glyph-name="guilsinglleft" unicode="&#x2039;" horiz-adv-x="522" 
d="M313 170q-21 0 -32 16l-211 283q-43 57 0 115l211 282q11 17 32 17h123q17 0 22.5 -10.5t-5.5 -22.5l-246 -324l246 -323q11 -12 5.5 -22.5t-22.5 -10.5h-123z" />
    <glyph glyph-name="guilsinglright" unicode="&#x203a;" horiz-adv-x="522" 
d="M209 170h-123q-17 0 -22 10.5t6 22.5l245 323l-245 324q-11 12 -6 22.5t22 10.5h123q22 0 33 -17l211 -282q43 -58 0 -115l-211 -283q-11 -16 -33 -16z" />
    <glyph glyph-name="Euro" unicode="&#x20ac;" horiz-adv-x="974" 
d="M891 412q27 0 27 -29q-6 -186 -102 -296t-253 -110t-253.5 101.5t-96.5 267.5v197h-127q-13 0 -21 8t-8 20v62q0 26 29 26h127v119h-127q-29 0 -29 29v61q0 27 29 27h127v192q0 166 96.5 267.5t253.5 101.5q151 0 245.5 -107t98.5 -286q0 -27 -26 -27h-131q-27 0 -27 27
q-3 105 -46.5 162t-115.5 57q-76 0 -119 -49t-43 -135v-203h334q29 0 29 -27v-61q0 -29 -29 -29h-334v-119h334q29 0 29 -26v-62q0 -12 -8 -20t-21 -8h-334v-207q0 -86 43 -135t119 -49q79 0 124 60.5t48 172.5q0 27 27 27h131z" />
    <glyph glyph-name="trademark" unicode="&#x2122;" horiz-adv-x="1019" 
d="M803 1442q78 0 124 -50.5t46 -138.5v-366q0 -15 -12 -15h-76q-13 0 -13 15v366q0 93 -69 93q-32 0 -49 -25t-17 -68v-366q0 -6 -3.5 -10.5t-8.5 -4.5h-74q-14 0 -14 15v366q0 43 -17 68t-49 25q-69 0 -69 -93v-366q0 -6 -4 -10.5t-9 -4.5h-75q-13 0 -13 15v366
q0 88 45.5 138.5t124.5 50.5q70 0 117 -66q43 66 115 66zM344 1434q12 0 12 -13v-65q0 -6 -3.5 -10.5t-8.5 -4.5h-100v-456q0 -13 -13 -13h-73q-6 0 -10.5 4t-4.5 9v456h-96q-5 0 -8.5 4.5t-3.5 10.5v65q0 13 12 13h297z" />
    <glyph glyph-name="partialdiff" unicode="&#x2202;" horiz-adv-x="829" 
d="M295 1454q201 0 318.5 -121t117.5 -321v-697q0 -151 -88.5 -244.5t-236.5 -93.5q-147 0 -236.5 94t-89.5 244v392q0 147 84 239t223 92q105 0 170 -75v61q0 119 -71.5 194.5t-192.5 75.5h-49q-27 0 -27 29v104q0 12 7.5 19.5t19.5 7.5h51zM557 309v404q0 71 -40.5 115
t-110.5 44t-110 -43.5t-40 -115.5v-404q0 -76 40 -120t110 -44q71 0 111 44t40 120z" />
    <glyph glyph-name="emptyset" unicode="&#x2205;" horiz-adv-x="1619" 
d="M1509 1526q16 0 25 -9.5t0 -21.5l-201 -248q193 -202 193 -530q0 -220 -90 -387.5t-254 -258.5t-379 -91q-235 0 -406 106l-125 -156q-18 -22 -36 -22h-125q-16 0 -25 9.5t0 21.5l195 241q-97 98 -149 235t-52 302q0 220 90 387.5t254 258.5t379 91q241 0 414 -113
l131 162q19 23 36 23h125zM236 717q0 -253 145 -414l739 918q-139 84 -317 84q-255 0 -411 -162t-156 -426zM1370 717q0 246 -137 405l-737 -913q135 -80 307 -80q256 0 411.5 162t155.5 426z" />
    <glyph glyph-name="product" unicode="&#x220f;" horiz-adv-x="956" 
d="M152 -205q-29 0 -29 27v1503q0 53 28 81t82 28h492q53 0 81 -28t28 -81v-1503q0 -12 -7.5 -19.5t-19.5 -7.5h-133q-12 0 -19.5 7.5t-7.5 19.5v1440h-336v-1440q0 -27 -28 -27h-131z" />
    <glyph glyph-name="summation" unicode="&#x2211;" horiz-adv-x="696" 
d="M111 -8q-62 0 -62 57q0 6 -0.5 20.5t0 21t1.5 17.5t3.5 19.5t7.5 17.5l287 572l-287 571q-5 9 -7.5 17.5t-3.5 19.5t-1.5 17.5t0 21t0.5 20.5q0 58 62 58h528q27 0 27 -29v-117q0 -26 -27 -26h-395l248 -484q8 -16 8 -34v-70q0 -19 -8 -35l-248 -483h395q12 0 19.5 -7.5
t7.5 -19.5v-117q0 -28 -27 -28h-528z" />
    <glyph glyph-name="minus" unicode="&#x2212;" horiz-adv-x="956" 
d="M117 655q-29 0 -29 29v104q0 29 29 29h725q26 0 26 -29v-104q0 -29 -26 -29h-725z" />
    <glyph glyph-name="radical" unicode="&#x221a;" horiz-adv-x="970" 
d="M944 1638q15 0 21.5 -8t3.5 -22l-312 -1542q-15 -74 -88 -74h-100q-73 0 -88 74l-166 798h-162q-26 0 -26 29v104q0 27 26 27h236q78 0 90 -76l141 -770l266 1436q3 24 31 24h127z" />
    <glyph glyph-name="infinity" unicode="&#x221e;" horiz-adv-x="1253" 
d="M879 831q127 0 209.5 -86.5t82.5 -230.5q0 -140 -81 -226.5t-207 -86.5q-165 0 -256 157q-91 -157 -256 -157q-126 0 -208.5 87t-82.5 226q0 143 84 230t211 87q158 0 252 -139q94 139 252 139zM383 362q30 0 53 11.5t41.5 36.5t30.5 48.5t29 63.5q-31 73 -65 111.5
t-89 38.5q-58 0 -94.5 -40.5t-36.5 -115.5q0 -70 37 -112t94 -42zM870 362q57 0 94 42t37 112q0 75 -36.5 115.5t-94.5 40.5q-56 0 -89 -37.5t-64 -112.5q17 -40 28.5 -63t30 -48.5t41.5 -37t53 -11.5z" />
    <glyph glyph-name="integral" unicode="&#x222b;" horiz-adv-x="647" 
d="M602 1442q27 0 27 -29v-110q0 -29 -27 -29h-14q-178 -3 -178 -184v-1143q0 -170 -90.5 -268t-256.5 -99h-18q-29 0 -29 27v112q0 27 29 27h14q177 6 177 186v1143q0 171 90.5 268.5t257.5 98.5h18z" />
    <glyph glyph-name="approxequal" unicode="&#x2248;" horiz-adv-x="956" 
d="M778 981q20 23 37 0l53 -84q14 -22 0 -39q-82 -108 -200 -108q-66 0 -192.5 47t-172.5 47q-74 0 -125 -66q-22 -25 -37 0l-53 86q-12 22 2 39q82 105 199 105q66 0 192 -47.5t172 -47.5q73 0 125 68zM778 651q18 25 37 0l53 -84q13 -20 0 -39q-82 -108 -200 -108
q-66 0 -192.5 47t-172.5 47q-75 0 -125 -65q-22 -25 -37 0l-53 88q-12 18 2 38q84 105 199 105q66 0 192 -47t172 -47q75 0 125 65z" />
    <glyph glyph-name="notequal" unicode="&#x2260;" horiz-adv-x="956" 
d="M842 791h-238l-84 -170h322q26 0 26 -29v-107q0 -26 -26 -26h-402l-73 -148q-9 -20 -33 -20h-105q-15 0 -22 9.5t0 23.5l67 135h-157q-29 0 -29 26v107q0 29 29 29h237l84 170h-321q-29 0 -29 26v107q0 28 29 28h403l72 146q6 20 33 20h104q15 0 22 -9t1 -24l-66 -133
h156q26 0 26 -28v-107q0 -26 -26 -26z" />
    <glyph glyph-name="lessequal" unicode="&#x2264;" horiz-adv-x="849" 
d="M705 1006q0 -6 -4.5 -14t-10.5 -9l-405 -186l405 -187q15 -6 15 -22v-103q0 -20 -15.5 -29.5t-34.5 -0.5l-512 250q-12 3 -12 22v139q0 17 12 23l512 250q19 9 34.5 -1t15.5 -30v-102zM678 383q27 0 27 -29v-102q0 -12 -7.5 -19.5t-19.5 -7.5h-518q-29 0 -29 27v102
q0 29 29 29h518z" />
    <glyph glyph-name="greaterequal" unicode="&#x2265;" horiz-adv-x="884" 
d="M664 889q12 -6 12 -23v-139q0 -19 -12 -22l-512 -250q-19 -9 -34.5 0.5t-15.5 29.5v103q0 16 15 22l405 187l-405 186q-6 1 -10.5 9t-4.5 14v102q0 20 15.5 30t34.5 1zM647 383q29 0 29 -29v-102q0 -27 -29 -27h-518q-12 0 -19.5 7.5t-7.5 19.5v102q0 29 27 29h518z" />
    <glyph glyph-name="lozenge" unicode="&#x25ca;" horiz-adv-x="927" 
d="M424 -8q-64 0 -92 71l-242 601q-10 31 -10 54t10 54l242 598q29 72 92 72h80q66 0 94 -72l240 -598q10 -31 10 -54t-10 -54l-240 -601q-28 -71 -94 -71h-80zM465 168l207 549l-207 549l-209 -549z" />
    <glyph glyph-name="uni0162.ss01" horiz-adv-x="739" 
d="M684 1434q12 0 19.5 -7.5t7.5 -19.5v-117q0 -28 -27 -28h-223v-1233q0 -29 -23 -29h-10l-16 -90h12q63 -5 106 -48t43 -106q0 -81 -53 -127.5t-137 -46.5q-76 0 -127.5 40t-58.5 110q-3 12 4.5 19t21.5 7h56q19 0 28 -22q15 -47 76 -47q35 0 56.5 18t21.5 49q0 28 -22 46
t-54 18q-26 0 -72 -8q-10 -3 -20 4l-6 6q-8 12 -6 20l30 158h-10q-11 0 -18 8t-7 21v1233h-221q-28 0 -28 28v117q0 27 28 27h629z" />
    <glyph glyph-name="i.loclTRK" horiz-adv-x="401" 
d="M201 1153q-45 0 -75 29.5t-30 74.5q0 46 29.5 76.5t75.5 30.5q45 0 75.5 -31t30.5 -76q0 -42 -31 -73t-75 -31zM141 0q-28 0 -28 29v968q0 27 28 27h119q29 0 29 -27v-968q0 -29 -29 -29h-119z" />
    <glyph glyph-name="uni0163.ss01" horiz-adv-x="602" 
d="M406 -90q64 -5 107.5 -48t43.5 -106q0 -81 -53 -127.5t-137 -46.5q-76 0 -128 40t-59 110q-3 12 4.5 19t20.5 7h57q20 0 29 -22q15 -47 76 -47q35 0 56 17.5t21 49.5q0 28 -21.5 46t-53.5 18t-72 -8q-11 -3 -21 4l-6 6q-8 12 -6 20l39 201q-135 87 -135 309v512h-115
q-26 0 -26 27v106q0 27 26 27h115v264q0 29 29 29h118q27 0 27 -29v-264h158q26 0 26 -27v-106q0 -27 -26 -27h-158v-514q0 -194 158 -194h22q29 0 29 -27v-111q0 -28 -29 -28h-30q-46 0 -82 8l-15 -88h11z" />
    <glyph glyph-name="uni0414.loclBGR" horiz-adv-x="1001" 
d="M41 -231q-12 0 -19.5 8t-7.5 20v254q0 54 30 87.5t83 33.5h4l217 1190q13 76 88 76h131q76 0 88 -76l217 -1190h5q54 0 83 -33t29 -88v-254q0 -28 -28 -28h-125q-13 0 -21 8t-8 20v203h-612v-203q0 -12 -7.5 -20t-19.5 -8h-127zM317 172h369l-184 1055z" />
    <glyph glyph-name="uni0418.loclBGR" horiz-adv-x="935" 
d="M444 -23q-152 0 -242.5 104.5t-90.5 272.5v1053q0 27 26 27h131q12 0 19.5 -7.5t7.5 -19.5v-1061q0 -89 43 -142.5t115 -53.5q82 0 128 54.5t46 149.5v1053q0 12 8 19.5t20 7.5h129q29 0 29 -27v-1378q0 -29 -29 -29h-69q-22 0 -31 23l-14 71q-76 -117 -226 -117z" />
    <glyph glyph-name="uni0419.loclBGR" horiz-adv-x="935" 
d="M461 1573q-99 0 -163 55t-73 148q-1 13 6.5 20.5t20.5 7.5h80q21 0 30 -24q6 -36 32 -56t67 -20t67.5 20.5t32.5 55.5q6 24 29 24h80q28 0 28 -28q-11 -93 -74 -148t-163 -55zM444 -23q-152 0 -242.5 104.5t-90.5 272.5v1053q0 27 26 27h131q12 0 19.5 -7.5t7.5 -19.5
v-1061q0 -89 43 -142.5t115 -53.5q82 0 128 54.5t46 149.5v1053q0 12 8 19.5t20 7.5h129q29 0 29 -27v-1378q0 -29 -29 -29h-69q-22 0 -31 23l-14 71q-76 -117 -226 -117z" />
    <glyph glyph-name="uni040D.loclBGR" horiz-adv-x="935" 
d="M592 1575h-84q-24 0 -35 16l-162 185q-12 14 -7 24t22 10h116q24 0 35 -16l133 -186q9 -12 4 -22.5t-22 -10.5zM444 -23q-152 0 -242.5 104.5t-90.5 272.5v1053q0 27 26 27h131q12 0 19.5 -7.5t7.5 -19.5v-1061q0 -89 43 -142.5t115 -53.5q82 0 128 54.5t46 149.5v1053
q0 12 8 19.5t20 7.5h129q29 0 29 -27v-1378q0 -29 -29 -29h-69q-22 0 -31 23l-14 71q-76 -117 -226 -117z" />
    <glyph glyph-name="uni041B.loclBGR" horiz-adv-x="813" 
d="M795 29q3 -12 -4.5 -20.5t-20.5 -8.5h-133q-26 0 -29 25l-200 1200l-201 -1200q-3 -25 -31 -25h-133q-13 0 -20 8.5t-5 20.5l244 1337q12 76 88 76h113q76 0 88 -76z" />
    <glyph glyph-name="uni041F.loclBGR" horiz-adv-x="923" 
d="M137 0q-26 0 -26 29v1050q0 167 96 272t254 105q159 0 255.5 -105t96.5 -272v-1050q0 -29 -29 -29h-129q-12 0 -20 8t-8 21v1058q0 88 -45 141.5t-121 53.5t-121 -53.5t-45 -141.5v-1058q0 -29 -27 -29h-131z" />
    <glyph glyph-name="uni0422.loclBGR" horiz-adv-x="735" 
d="M682 1434q29 0 29 -27v-117q0 -28 -29 -28h-221v-1233q0 -29 -29 -29h-129q-27 0 -27 29v1233h-223q-26 0 -26 28v117q0 27 26 27h629z" />
    <glyph glyph-name="uni0423.loclBGR" horiz-adv-x="835" 
d="M719 1434q26 0 26 -27v-1036q0 -164 -96.5 -269.5t-255.5 -105.5h-293q-28 0 -28 29v114q0 29 28 29h283q82 0 130 55.5t48 145.5v180q-69 -66 -170 -66q-154 0 -249 105.5t-95 273.5v545q0 27 29 27h129q28 0 28 -27v-553q0 -90 44 -143.5t120 -53.5q75 0 119.5 54.5
t44.5 148.5v547q0 12 7.5 19.5t19.5 7.5h131z" />
    <glyph glyph-name="uni040E.loclBGR" horiz-adv-x="835" 
d="M412 1573q-99 0 -163 55t-73 148q-1 13 6.5 20.5t20.5 7.5h80q21 0 30 -24q6 -36 32 -56t67 -20t67.5 20.5t32.5 55.5q6 24 29 24h80q28 0 28 -28q-11 -93 -74 -148t-163 -55zM719 1434q26 0 26 -27v-1036q0 -164 -96.5 -269.5t-255.5 -105.5h-293q-28 0 -28 29v114
q0 29 28 29h283q82 0 130 55.5t48 145.5v180q-69 -66 -170 -66q-154 0 -249 105.5t-95 273.5v545q0 27 29 27h129q28 0 28 -27v-553q0 -90 44 -143.5t120 -53.5q75 0 119.5 54.5t44.5 148.5v547q0 12 7.5 19.5t19.5 7.5h131z" />
    <glyph glyph-name="uni0424.loclBGR" horiz-adv-x="1331" 
d="M918 1452q141 0 232 -98.5t91 -253.5v-766q0 -155 -91 -254.5t-232 -99.5q-88 0 -160 55v-213q0 -13 -8.5 -21t-20.5 -8h-127q-29 0 -29 29v213q-76 -58 -159 -58q-143 0 -234.5 100t-91.5 255v770q0 154 92 253t234 99q83 0 159 -55v198q0 27 29 27h127q12 0 20.5 -7.5
t8.5 -19.5v-198q74 53 160 53zM424 150q65 0 107 48.5t42 123.5v790q0 75 -42 122.5t-107 47.5q-67 0 -109.5 -47.5t-42.5 -122.5v-790q0 -75 42.5 -123.5t109.5 -48.5zM1059 324v786q0 75 -43 122.5t-109 47.5t-107.5 -47t-41.5 -121v-790q0 -74 41.5 -122t107.5 -48
t109 48.5t43 123.5z" />
    <glyph glyph-name="uni0427.loclBGR" horiz-adv-x="878" 
d="M598 0q-27 0 -27 29v510q-64 -70 -170 -70q-154 0 -249 105.5t-95 273.5v559q0 12 8.5 19.5t20.5 7.5h129q29 0 29 -27v-567q0 -90 44 -143.5t120 -53.5q75 0 119 54.5t44 148.5v561q0 12 7.5 19.5t19.5 7.5h131q12 0 19.5 -7.5t7.5 -19.5v-1378q0 -29 -27 -29h-131z" />
    <glyph glyph-name="uni0426.loclBGR" horiz-adv-x="1001" 
d="M827 -227q-26 0 -26 26v201q-44 7 -77 33.5t-46 58.5q-78 -115 -236 -115q-151 0 -241 104.5t-90 272.5v1053q0 27 26 27h131q12 0 19.5 -7.5t7.5 -19.5v-1061q0 -89 43 -142.5t119 -53.5t123 54.5t47 149.5v1053q0 12 8 19.5t20 7.5h129q29 0 29 -27v-1149
q0 -45 16.5 -67.5t40.5 -28.5t48 -12.5t40.5 -30t16.5 -70.5v-250q0 -26 -29 -26h-119z" />
    <glyph glyph-name="uni0428.loclBGR" horiz-adv-x="1419" 
d="M453 -23q-158 0 -250 104.5t-92 274.5v1051q0 27 26 27h129q12 0 19.5 -7.5t7.5 -19.5v-1059q0 -90 43 -143t117 -53q73 0 115 53t42 143v1059q0 27 29 27h127q29 0 29 -27v-1061q0 -89 41 -142.5t110 -53.5q77 0 121.5 54.5t44.5 149.5v1053q0 12 7.5 19.5t19.5 7.5h129
q28 0 28 -27v-1378q0 -29 -26 -29h-74q-25 0 -31 25l-8 63q-77 -111 -219 -111q-81 0 -143 36.5t-95 101.5q-37 -65 -101 -101.5t-146 -36.5z" />
    <glyph glyph-name="uni0429.loclBGR" horiz-adv-x="1480" 
d="M1311 -227q-27 0 -27 26v201q-44 7 -77 33t-46 57q-77 -113 -221 -113q-154 0 -242 115q-88 -115 -247 -115q-154 0 -247 105t-93 274v1051q0 27 26 27h129q12 0 19.5 -7.5t7.5 -19.5v-1061q0 -88 43 -141t115 -53q73 0 116 53t43 141v1061q0 12 7.5 19.5t19.5 7.5h129
q29 0 29 -27v-1061q0 -89 41.5 -142.5t115.5 -53.5q73 0 115.5 54t42.5 150v1053q0 12 8.5 19.5t20.5 7.5h127q28 0 28 -27v-1149q0 -43 16.5 -65t40.5 -27.5t48 -11.5t40.5 -29t16.5 -68v-258q0 -26 -29 -26h-116z" />
    <glyph glyph-name="uni041B.ss01" horiz-adv-x="991" 
d="M53 -4q-26 0 -26 29v120q0 29 26 29q72 9 112 62.5t40 144.5v698q0 170 93 273.5t245 103.5q153 0 246.5 -103.5t93.5 -273.5v-1050q0 -13 -8.5 -21t-20.5 -8h-129q-29 0 -29 29v1058q0 92 -39.5 141.5t-113.5 49.5q-71 0 -111.5 -50t-40.5 -141v-718q0 -162 -92 -264.5
t-246 -108.5z" />
    <glyph glyph-name="uni0432.loclBGR" horiz-adv-x="833" 
d="M606 762q74 -36 116 -102.5t42 -153.5v-195q0 -147 -92.5 -240.5t-241.5 -93.5t-241.5 93.5t-92.5 240.5v807q0 151 85 244.5t231 93.5q144 0 228.5 -93.5t84.5 -244.5v-125q0 -152 -119 -231zM272 1124v-295h113q74 0 119 42t45 114v139q0 164 -137 164
q-70 0 -105 -43.5t-35 -120.5zM588 305v209q0 70 -46.5 112t-121.5 42h-148v-363q0 -73 42.5 -116.5t115.5 -43.5t115.5 43.5t42.5 116.5z" />
    <glyph glyph-name="uni0433.loclBGR" horiz-adv-x="790" 
d="M385 -23q-145 0 -232 80t-87 211q0 70 26 125t68 89t92 61t100.5 48t92.5 42.5t68 52t26 70.5q0 59 -37 92t-103 33q-63 0 -99.5 -36.5t-41.5 -101.5q-3 -26 -29 -26h-118q-29 0 -29 28q9 136 94.5 219t222.5 83q144 0 229 -78.5t85 -206.5q0 -69 -26 -123t-67.5 -87
t-92 -59.5t-100.5 -48t-91.5 -43.5t-67.5 -54t-26 -73q0 -60 38 -94.5t107 -34.5q70 0 113 42.5t49 117.5q3 27 29 27h120q27 0 27 -29q-9 -148 -100.5 -237t-239.5 -89z" />
    <glyph glyph-name="uni0434.loclBGR" horiz-adv-x="829" 
d="M408 1047q145 0 235 -93.5t90 -240.5v-811q0 -153 -88 -243.5t-237 -90.5q-143 0 -231.5 89.5t-94.5 240.5q-3 28 27 28h120q26 0 29 -28q4 -76 44 -119t106 -43q70 0 109.5 42.5t39.5 117.5v202q-68 -71 -164 -71q-137 0 -225 93.5t-88 239.5v353q0 147 90.5 240.5
t237.5 93.5zM408 193q70 0 109.5 44t39.5 117v365q0 73 -39.5 116.5t-109.5 43.5t-111 -43.5t-41 -116.5v-365q0 -73 41 -117t111 -44z" />
    <glyph glyph-name="uni0436.loclBGR" horiz-adv-x="1206" 
d="M1122 1024q14 0 21.5 -9.5t1.5 -23.5l-203 -416q85 -34 134.5 -110t49.5 -178v-258q0 -29 -26 -29h-119q-27 0 -27 29v264q0 69 -43 110t-112 41h-109v-415q0 -13 -8 -21t-20 -8h-117q-27 0 -27 29v415h-110q-70 0 -113 -41.5t-43 -109.5v-264q0 -29 -27 -29h-119
q-26 0 -26 29v258q0 102 49.5 178t134.5 110l-203 416q-6 15 1.5 24t23.5 9h127q24 0 33 -20l186 -394h86v797q0 12 7.5 19.5t19.5 7.5h117q12 0 20 -7.5t8 -19.5v-797h84l187 394q9 20 32 20h129z" />
    <glyph glyph-name="uni0437.loclBGR" horiz-adv-x="778" 
d="M545 367q73 -39 113 -111.5t40 -161.5v-147q0 -177 -88.5 -278t-244.5 -101q-161 0 -245.5 111.5t-90.5 312.5q0 26 28 26h119q27 0 27 -24q6 -258 159 -258q160 0 160 207v163q0 83 -45.5 130t-130.5 47h-104q-29 0 -29 26v109q0 26 29 26h92q78 0 119 44t41 118v113
q0 160 -125 160q-134 0 -144 -146q0 -26 -26 -26h-121q-14 0 -21 7t-6 19q8 143 94 228.5t222 85.5q137 0 220 -93t83 -241v-113q0 -77 -32.5 -137.5t-92.5 -95.5z" />
    <glyph glyph-name="uni0438.loclBGR" horiz-adv-x="847" 
d="M408 -23q-139 0 -225.5 93.5t-86.5 240.5v686q0 27 29 27h119q28 0 28 -27v-692q0 -73 38.5 -116.5t105.5 -43.5t105 43.5t38 116.5v692q0 27 29 27h119q28 0 28 -27v-968q0 -29 -28 -29h-76q-25 0 -31 25l-4 51q-79 -99 -188 -99z" />
    <glyph glyph-name="uni0439.loclBGR" horiz-adv-x="847" 
d="M426 1149q-100 0 -164.5 55.5t-73.5 149.5q0 28 27 28h80q25 0 31 -26q13 -74 100 -74q85 0 98 74q9 26 31 26h80q27 0 27 -28q-9 -93 -73 -149t-163 -56zM408 -23q-139 0 -225.5 93.5t-86.5 240.5v686q0 27 29 27h119q28 0 28 -27v-692q0 -73 38.5 -116.5t105.5 -43.5
t105 43.5t38 116.5v692q0 27 29 27h119q28 0 28 -27v-968q0 -29 -28 -29h-76q-25 0 -31 25l-4 51q-79 -99 -188 -99z" />
    <glyph glyph-name="uni045D.loclBGR" horiz-adv-x="831" 
d="M238 1386h114q23 0 33 -20l117 -188q9 -14 3.5 -23.5t-22.5 -9.5h-84q-23 0 -34 16l-144 191q-11 14 -6 24t23 10zM408 -23q-139 0 -225.5 93.5t-86.5 240.5v686q0 27 29 27h119q28 0 28 -27v-692q0 -73 38.5 -116.5t105.5 -43.5t105 43.5t38 116.5v692q0 27 29 27h119
q28 0 28 -27v-968q0 -29 -28 -29h-76q-25 0 -31 25l-4 51q-79 -99 -188 -99z" />
    <glyph glyph-name="uni043A.loclBGR" horiz-adv-x="819" 
d="M555 575q86 -34 136 -110.5t50 -177.5v-258q0 -29 -26 -29h-121q-27 0 -27 29v264q0 69 -43 110t-112 41h-123v-415q0 -29 -29 -29h-119q-28 0 -28 29v1378q0 27 28 27h119q29 0 29 -27v-797h98l186 394q11 20 33 20h127q16 0 23.5 -9t1.5 -24z" />
    <glyph glyph-name="uni043B.loclBGR" horiz-adv-x="770" 
d="M571 25l-186 841l-184 -841q-3 -25 -31 -25h-127q-13 0 -19.5 8.5t-3.5 22.5l232 927q15 74 92 74h84q77 0 92 -74l232 -927q3 -14 -3.5 -22.5t-21.5 -8.5h-125q-28 0 -31 25z" />
    <glyph glyph-name="uni043F.loclBGR" horiz-adv-x="831" 
d="M125 0q-29 0 -29 29v684q0 147 89 240.5t231 93.5t230.5 -93.5t88.5 -240.5v-684q0 -29 -28 -29h-119q-29 0 -29 29v690q0 73 -38 117.5t-105 44.5t-105.5 -44.5t-38.5 -117.5v-690q0 -29 -28 -29h-119z" />
    <glyph glyph-name="uni0442.loclBGR" horiz-adv-x="1251" 
d="M848 1047q138 0 222.5 -93t84.5 -241v-684q0 -29 -27 -29h-118q-29 0 -29 29v690q0 73 -35 116.5t-98 43.5q-64 0 -99.5 -43.5t-35.5 -116.5v-690q0 -29 -27 -29h-119q-28 0 -28 29v690q0 73 -35 116.5t-98 43.5q-64 0 -100 -43.5t-36 -116.5v-690q0 -29 -28 -29h-117
q-29 0 -29 29v684q0 147 85.5 240.5t224.5 93.5q69 0 127 -34t94 -91q37 58 94 91.5t127 33.5z" />
    <glyph glyph-name="uni0443.loclBGR" horiz-adv-x="856" 
d="M715 1024q12 0 20 -7.5t8 -19.5v-1095q0 -152 -87.5 -243t-235.5 -91q-140 0 -227.5 89.5t-94.5 240.5q-3 28 27 28h121q23 0 26 -28q5 -77 43.5 -119.5t104.5 -42.5q70 0 108.5 42.5t38.5 117.5v206q-63 -73 -161 -73q-135 0 -222.5 92.5t-87.5 238.5v637q0 27 29 27
h119q28 0 28 -27v-643q0 -71 40 -115t108 -44t107.5 43.5t39.5 115.5v643q0 27 29 27h119z" />
    <glyph glyph-name="uni0444.loclBGR" horiz-adv-x="1247" 
d="M862 1047q136 0 219.5 -93.5t83.5 -240.5v-402q0 -147 -83.5 -240.5t-219.5 -93.5q-89 0 -151 68v-428q0 -27 -29 -27h-119q-26 0 -26 27v428q-65 -68 -154 -68q-134 0 -218.5 93.5t-84.5 240.5v402q0 147 84.5 240.5t218.5 93.5q92 0 154 -68v428q0 27 26 27h119
q29 0 29 -27v-428q62 68 151 68zM393 145q65 0 104.5 44t39.5 116v414q0 72 -39.5 116t-104.5 44t-101 -43.5t-36 -116.5v-414q0 -73 36 -116.5t101 -43.5zM991 305v414q0 73 -36.5 116.5t-100.5 43.5t-103.5 -44t-39.5 -116v-414q0 -72 39.5 -116t103.5 -44t100.5 43.5
t36.5 116.5z" />
    <glyph glyph-name="uni0447.loclBGR" horiz-adv-x="823" 
d="M563 0q-28 0 -28 29v354q-67 -74 -164 -74q-136 0 -222 91t-86 241v356q0 27 29 27h119q29 0 29 -27v-362q0 -72 39.5 -116t107.5 -44q69 0 108.5 42t39.5 118v362q0 27 28 27h119q29 0 29 -27v-968q0 -29 -29 -29h-119z" />
    <glyph glyph-name="uni0446.loclBGR" horiz-adv-x="921" 
d="M737 -227q-26 0 -26 26v207q-26 6 -51.5 26t-32.5 44q-76 -99 -211 -99q-141 0 -230.5 94t-89.5 240v686q3 27 29 27h119q28 0 28 -27v-692q0 -72 39.5 -116t106.5 -44q66 0 103.5 44t37.5 116v692q0 27 29 27h119q26 0 26 -27v-761q0 -41 15 -63t37 -29.5t44 -14.5
t37 -26t15 -54v-250q0 -26 -27 -26h-117z" />
    <glyph glyph-name="uni0448.loclBGR" horiz-adv-x="1267" 
d="M403 -23q-136 0 -221.5 93.5t-85.5 240.5v686q0 27 29 27h119q26 0 26 -27v-692q0 -72 36 -116t97 -44q63 0 99.5 43.5t36.5 116.5v692q0 27 28 27h117q29 0 29 -27v-692q0 -73 36.5 -116.5t98.5 -43.5q61 0 97 44t36 116v692q0 12 7.5 19.5t19.5 7.5h118q26 0 29 -27
v-968q0 -29 -29 -29h-73q-25 0 -31 25l-4 47q-72 -95 -178 -95q-142 0 -215 117q-76 -117 -222 -117z" />
    <glyph glyph-name="uni0449.loclBGR" horiz-adv-x="1341" 
d="M1159 -227q-29 0 -29 26l3 207q-26 6 -51.5 26t-34.5 44q-76 -99 -201 -99q-143 0 -219 119q-76 -119 -221 -119q-137 0 -223.5 93.5t-86.5 240.5v686q0 27 29 27h119q26 0 26 -27v-692q0 -72 37.5 -116t98.5 -44t97 44t36 116v692q0 27 28 27h117q29 0 29 -27v-692
q0 -72 36 -116t97 -44t98 44t37 116v692q0 12 7.5 19.5t19.5 7.5h118q29 0 29 -27v-761q0 -41 15 -63t36.5 -29.5t42.5 -14.5t36 -26t15 -54v-250q0 -26 -26 -26h-115z" />
    <glyph glyph-name="uni044C.loclBGR" horiz-adv-x="798" 
d="M446 725q136 0 219 -92.5t83 -239.5v-82q0 -147 -89.5 -240.5t-236.5 -93.5q-145 0 -235.5 93.5t-90.5 240.5v686q0 11 8.5 19t20.5 8h119q12 0 20 -8t8 -19v-348q73 76 174 76zM573 305v94q0 72 -40.5 116t-110.5 44q-69 0 -109.5 -44t-40.5 -116v-94q0 -73 40 -116.5
t110 -43.5t110.5 43.5t40.5 116.5z" />
    <glyph glyph-name="uni044A.loclBGR" horiz-adv-x="901" 
d="M547 725q137 0 221 -92.5t84 -239.5v-82q0 -147 -89.5 -240.5t-236.5 -93.5q-145 0 -235 93.5t-90 240.5v549h-158q-29 0 -29 29v108q0 27 29 27h248q35 0 59.5 -24.5t24.5 -59.5v-293q71 78 172 78zM678 305v94q0 71 -41 115.5t-111 44.5t-110.5 -44t-40.5 -116v-94
q0 -73 40.5 -116.5t110.5 -43.5t111 43.5t41 116.5z" />
    <glyph glyph-name="uni044E.loclBGR" horiz-adv-x="1148" 
d="M754 -23q-140 0 -227 93.5t-87 240.5v131h-153v-413q0 -13 -8.5 -21t-20.5 -8h-117q-28 0 -28 29v1378q0 27 28 27h117q12 0 20.5 -7.5t8.5 -19.5v-799h153v105q0 147 87 240.5t227 93.5t227.5 -93.5t87.5 -240.5v-402q0 -147 -87.5 -240.5t-227.5 -93.5zM754 145
q65 0 103 43.5t38 116.5v414q0 73 -38 116.5t-103 43.5q-66 0 -104 -43.5t-38 -116.5v-414q0 -73 38 -116.5t104 -43.5z" />
    <glyph glyph-name="uni043B.ss01" horiz-adv-x="866" 
d="M459 1047q145 0 228 -92.5t83 -241.5v-684q0 -29 -29 -29h-118q-27 0 -27 29v690q0 75 -34.5 117.5t-102.5 42.5q-67 0 -101 -43t-34 -117v-395q0 -147 -72 -234.5t-199 -93.5q-12 0 -20 8.5t-8 20.5v110q0 12 7.5 20.5t20.5 8.5q45 5 71 44.5t26 110.5v394
q0 149 82.5 241.5t226.5 92.5z" />
    <glyph glyph-name="emdash.case" horiz-adv-x="1050" 
d="M31 782q0 12 7 20.5t19 8.5h936q12 0 20.5 -8.5t8.5 -20.5v-102q0 -12 -8.5 -19.5t-20.5 -7.5h-936q-26 0 -26 27v102z" />
    <glyph glyph-name="endash.case" horiz-adv-x="790" 
d="M57 653q-26 0 -26 27v102q0 12 7 20.5t19 8.5h676q13 0 21 -8.5t8 -20.5v-102q0 -27 -29 -27h-676z" />
    <glyph glyph-name="hyphen.case" horiz-adv-x="571" 
d="M57 653q-26 0 -26 27v102q0 12 7 20.5t19 8.5h457q13 0 21 -8.5t8 -20.5v-102q0 -27 -29 -27h-457z" />
    <glyph glyph-name="guillemotleft.case" horiz-adv-x="894" 
d="M305 293q-22 0 -33 16l-211 283q-43 58 0 115l211 282q11 17 33 17h123q17 0 22 -10.5t-6 -22.5l-245 -324l245 -323q11 -12 6 -22.5t-22 -10.5h-123zM664 293q-22 0 -33 16l-211 283q-43 58 0 115l211 282q11 17 33 17h122q17 0 22.5 -10.5t-5.5 -22.5l-246 -324
l246 -323q11 -12 5.5 -22.5t-22.5 -10.5h-122z" />
    <glyph glyph-name="guillemotright.case" horiz-adv-x="894" 
d="M215 293h-123q-17 0 -22 10.5t6 22.5l246 323l-246 324q-11 12 -6 22.5t22 10.5h123q22 0 33 -17l211 -282q43 -57 0 -115l-211 -283q-11 -16 -33 -16zM573 293h-122q-17 0 -22.5 10.5t5.5 22.5l246 323l-246 324q-11 12 -5.5 22.5t22.5 10.5h122q22 0 33 -17l211 -282
q43 -57 0 -115l-211 -283q-11 -16 -33 -16z" />
    <glyph glyph-name="guilsinglleft.case" horiz-adv-x="516" 
d="M311 293q-21 0 -32 16l-211 283q-43 58 0 115l211 282q11 17 32 17h123q17 0 22.5 -10.5t-5.5 -22.5l-246 -324l246 -323q11 -12 5.5 -22.5t-22.5 -10.5h-123z" />
    <glyph glyph-name="guilsinglright.case" horiz-adv-x="540" 
d="M209 293h-123q-17 0 -22 10.5t6 22.5l245 323l-245 324q-11 12 -6 22.5t22 10.5h123q22 0 33 -17l211 -282q43 -57 0 -115l-211 -283q-11 -16 -33 -16z" />
    <glyph glyph-name="uni0308.case" 
d="M-332 1587q-41 0 -65.5 25t-24.5 65t24.5 65t65.5 25q40 0 65 -25t25 -65t-25 -65t-65 -25zM-90 1587q-40 0 -65 25t-25 65t25 65t65 25t65 -25t25 -65t-25 -65t-65 -25z" />
    <glyph glyph-name="uni0307.case" 
d="M-111 1577q-45 0 -74.5 29.5t-29.5 74.5q0 46 29.5 76.5t74.5 30.5t76 -31t31 -76q0 -42 -31.5 -73t-75.5 -31z" />
    <glyph glyph-name="gravecomb.case" 
d="M-33 1575h-84q-24 0 -35 16l-161 185q-12 14 -7.5 24t21.5 10h117q24 0 35 -16l133 -186q9 -12 3.5 -22.5t-22.5 -10.5z" />
    <glyph glyph-name="acutecomb.case" 
d="M-297 1575q-17 0 -22 10.5t4 22.5l133 186q11 16 35 16h116q17 0 22 -10t-7 -24l-162 -185q-11 -16 -35 -16h-84z" />
    <glyph glyph-name="uni030B.case" 
d="M-539 1575q-17 0 -22 10.5t6 22.5l133 186q11 16 35 16h117q17 0 21 -10t-7 -24l-164 -185q-11 -16 -33 -16h-86zM-291 1575q-17 0 -22 10.5t6 22.5l133 186q11 16 35 16h116q17 0 21.5 -10t-6.5 -24l-164 -185q-11 -16 -33 -16h-86z" />
    <glyph glyph-name="uni0302.case" 
d="M-16 1608q9 -14 3.5 -23.5t-20.5 -9.5h-84q-22 0 -33 14l-106 125l-106 -125q-11 -14 -33 -14h-84q-15 0 -20.5 9.5t3.5 23.5l142 186q13 16 35 16h126q22 0 35 -16z" />
    <glyph glyph-name="uni030C.case" 
d="M-20 1778l-142 -187q-13 -16 -35 -16h-127q-21 0 -34 16l-142 187q-9 14 -3.5 23t20.5 9h84q21 0 32 -14l107 -125l106 125q11 14 33 14h84q15 0 20.5 -9t-3.5 -23z" />
    <glyph glyph-name="uni0306.case" 
d="M-242 1573q-99 0 -162.5 55t-72.5 148q-1 13 6 20.5t20 7.5h80q22 0 31 -24q6 -36 31.5 -56t66.5 -20t68 20.5t33 55.5q6 24 28 24h80q29 0 29 -28q-11 -93 -74.5 -148t-163.5 -55z" />
    <glyph glyph-name="uni030A.case" 
d="M-326 1690q0 66 42.5 105.5t111.5 39.5q68 0 110 -39.5t42 -105.5q0 -67 -42 -108.5t-110 -41.5q-69 0 -111.5 41.5t-42.5 108.5zM-227 1688q0 -25 14.5 -40.5t40.5 -15.5q25 0 40 15.5t15 40.5t-15 40t-40 15q-26 0 -40.5 -15t-14.5 -40z" />
    <glyph glyph-name="tildecomb.case" 
d="M-309 1642q-27 0 -35 -32q-9 -25 -31 -25h-67q-29 0 -29 27q5 60 44 105.5t105 45.5q34 0 65.5 -15.5t54.5 -30.5t38 -15q27 0 37 33q7 26 29 26h69q27 0 27 -28q-5 -62 -45.5 -106t-102.5 -44q-43 0 -92.5 29.5t-66.5 29.5z" />
    <glyph glyph-name="uni0304.case" 
d="M-362 1714q0 27 28 27h299q12 0 19.5 -7.5t7.5 -19.5v-72q0 -12 -7.5 -20t-19.5 -8h-299q-28 0 -28 28v72z" />
    <glyph glyph-name="uni0312.case" 
d="M-238 1577l-20 348q0 29 27 29h65q26 0 29 -25l67 -348q2 -14 -5.5 -22.5t-20.5 -8.5h-113q-29 0 -29 27z" />
    <glyph glyph-name="uni0326.case" 
d="M-188 -143q0 26 28 26h113q14 0 21 -8.5t6 -21.5l-68 -349q-3 -24 -29 -24h-65q-27 0 -27 28z" />
    <glyph glyph-name="uni0327.case" 
d="M-193 -418q-75 0 -126 39.5t-60 110.5q-1 12 6 19t21 7h55q20 0 29 -22q15 -47 75 -47q35 0 57.5 18t22.5 49q0 28 -21.5 46t-55.5 18q-26 0 -72 -8q-11 -4 -19 4l-6 6q-10 10 -8 20l33 158h115l-17 -90h12q64 -5 108 -48t44 -106q0 -81 -54 -127.5t-139 -46.5z" />
    <glyph glyph-name="uni0328.case" 
d="M-90 -387q0 -27 -25 -27q-32 -4 -49 -4q-116 0 -172.5 46.5t-56.5 131.5q0 112 108 240h166q-51 -41 -81.5 -93.5t-30.5 -96.5q0 -40 26 -61t72 -21h16q27 0 27 -27v-88z" />
    <glyph glyph-name="uni0337.case" 
d="M-492 -92q-15 0 -22 8.5t-2 22.5l321 1155q6 22 31 22h137q15 0 22 -9t3 -22l-322 -1155q-6 -22 -30 -22h-138z" />
    <glyph glyph-name="uni0338.case" 
d="M-897 -92q-15 0 -22 9t-3 22l437 1564q7 23 30 23h138q15 0 22 -8.5t2 -22.5l-436 -1565q-6 -22 -31 -22h-137z" />
    <glyph glyph-name="brevecombcy" 
d="M-242 1149q-100 0 -164 55.5t-73 149.5q0 28 26 28h80q25 0 31 -26q13 -74 100 -74q86 0 99 74q9 26 30 26h80q27 0 27 -28q-9 -93 -73 -149t-163 -56z" />
    <glyph glyph-name="brevecombcy.case" 
d="M-242 1573q-99 0 -162.5 55t-72.5 148q-1 13 6 20.5t20 7.5h80q22 0 31 -24q6 -36 31.5 -56t66.5 -20t68 20.5t33 55.5q6 24 28 24h80q29 0 29 -28q-11 -93 -74.5 -148t-163.5 -55z" />
    </font>
</defs>
</svg>
