<?xml version="1.0" standalone="no"?>
<!DOCTYPE svg PUBLIC "-//W3C//DTD SVG 1.1//EN" "http://www.w3.org/Graphics/SVG/1.1/DTD/svg11.dtd" >
<svg xmlns="http://www.w3.org/2000/svg" xmlns:xlink="http://www.w3.org/1999/xlink" version="1.1">
<metadata>
Created by FontForge 20170731 at Mon Sep  4 19:46:41 2023
 By Aleksey,,,
Copyright 2019 The Manrope Project Authors (https://github.com/sharanda/manrope)
Copyright 2021 The Vela Sans Project - Ravid Balaliev
</metadata>
<defs>
<font id="VelaSans-SemiBold" horiz-adv-x="1296" >
  <font-face 
    font-family="Vela Sans SemBd"
    font-weight="600"
    font-stretch="normal"
    units-per-em="2048"
    panose-1="0 0 0 0 0 0 0 0 0 0"
    ascent="1638"
    descent="-410"
    x-height="1106"
    cap-height="1475"
    bbox="-332 -604 2568 2397"
    underline-thickness="51"
    underline-position="-153"
    unicode-range="U+000A-FB02"
  />
<missing-glyph horiz-adv-x="1515" 
d="M1311 1448h-1106v27h1106v-27zM1311 1329h-1106v33h1106v-33zM1311 1212h-1106v37h1106v-37zM1311 1092h-1106v43h1106v-43zM1311 975h-1106v45h1106v-45zM1311 858h-1106v49h1106v-49zM1311 737h-1106v58h1106v-58zM1311 621h-1106v61h1106v-61zM1311 502h-1106v67h1106
v-67zM1311 383h-1106v72h1106v-72zM1311 266h-1106v76h1106v-76zM1311 147h-1106v82h1106v-82zM1311 0h-1106v117h1106v-117z" />
    <glyph glyph-name="uniE001" unicode="&#x28;c&#x29;" horiz-adv-x="1963" 
d="M982 -99q-224 0 -410 110q-189 109 -298 298q-110 186 -110 410q0 223 110 410q109 187 298 298q188 110 410 110t410 -110q187 -111 298 -298q109 -188 109 -410q0 -223 -109 -410q-111 -189 -298 -298q-186 -110 -410 -110zM982 104q165 0 307 83q140 80 224 224
q82 143 82 309q0 164 -82 307q-83 141 -224 224q-143 82 -307 82q-166 0 -309 -82q-142 -83 -223 -224q-83 -142 -83 -307q0 -167 83 -309q82 -143 223 -224q142 -83 309 -83zM995 284q-101 0 -174.5 32.5t-129.5 102.5q-97 122 -97 301q2 180 97 299q115 136 313 136
q115 0 203 -54q116 -68 150 -202l-167 -46q-19 61 -75 104q-50 40 -121 40q-104 0 -168 -81q-53 -68 -53 -195q0 -121 53 -198q57 -80 170 -80q76 0 123 37q42 34 68 98l170 -39q-40 -121 -132 -188q-90 -67 -230 -67z" />
    <glyph glyph-name="uniE002" unicode="&#x20;&#x3c;&#x33;&#x20;" horiz-adv-x="2381" 
d="M1191 -31q-75 0 -125 55l-379 399q-114 124 -114 285q0 2 0.5 13t1.5 34t2 49q2 89 113 211q113 122 279 122q113 0 222 -72q107 72 221 72q168 0 281 -123q111 -123 114 -212q0 -25 0.5 -48t1 -34t0.5 -12q0 -164 -115 -285l-378 -399q-53 -55 -125 -55zM1191 142
l379 399q67 71 67 169q0 20 -1 55q-1 52 -65 126q-65 74 -159 74q-112 0 -221 -121q-117 121 -222 121q-95 0 -158 -75q-64 -76 -65 -126q-1 -35 -1 -54q0 -100 69 -169z" />
    <glyph glyph-name="uniE003" unicode="&#x28;&#x3e;&#x29;" horiz-adv-x="2355" 
d="M1178 -276q-277 0 -509 136q-233 137 -369 368q-136 232 -136 509t136 509t369 369q232 136 509 136t509 -136q231 -136 368 -369q136 -232 136 -509t-136 -509t-368 -368t-509 -136zM1179 -73q222 0 407 109q184 108 294 295q108 186 108 407q0 222 -109 407t-294 294
q-183 108 -406 108q-224 0 -408 -107q-187 -110 -295 -294q-108 -183 -108 -408q0 -224 108 -407q109 -186 295 -295q185 -109 408 -109zM1037 1085l418 -348l-418 -348v696z" />
    <glyph glyph-name="uniE007" unicode="ff" horiz-adv-x="1428" 
d="M245 905h-184v201h184v71q0 171 78 249.5t249 78.5h166v-176h-127q-84 0 -118 -35.5t-34 -121.5v-66h455v71q0 171 78.5 249.5t249.5 78.5h166v-176h-127q-84 0 -118.5 -35.5t-34.5 -121.5v-66h280v-201h-280v-905h-214v905h-455v-905h-214v905z" />
    <glyph glyph-name="uniE008" unicode="ffl" horiz-adv-x="2036" 
d="M1873 0h-214v905h-531v-905h-214v905h-455v-905h-214v905h-184v201h184v71q0 171 78 249.5t249 78.5h166v-176h-127q-84 0 -118 -35.5t-34 -121.5v-66h455v59q0 185 78 262.5t262 77.5h154v-176h-127q-84 0 -118.5 -35.5t-34.5 -121.5v-66h531v399h214v-1505z" />
    <glyph glyph-name="uniE009" unicode="tt" horiz-adv-x="1606" 
d="M20 905v201h212v369h215v-369h528v369h215v-369h329v-201h-329v-558q0 -83 35 -118.5t117 -35.5h177v-193h-224q-151 0 -235.5 79.5t-84.5 219.5v606h-528v-558q0 -82 35.5 -118t117.5 -36h176v-193h-223q-151 0 -236 79.5t-85 219.5v606h-212z" />
    <glyph glyph-name="fi" unicode="fi" horiz-adv-x="1331" 
d="M245 905h-184v201h184v71q0 171 78 249.5t249 78.5h166v-176h-127q-84 0 -118 -35.5t-34 -121.5v-66h279v-201h-279v-905h-214v905zM1167 1287h-214v208h214v-208zM1167 0h-214v1106h214v-1106z" />
    <glyph glyph-name="fl" unicode="fl" horiz-adv-x="1367" 
d="M245 905h-184v201h184v59q0 185 77.5 262.5t262.5 77.5h153v-176h-127q-84 0 -118 -35.5t-34 -121.5v-66h530v399h214v-1505h-214v905h-530v-905h-214v905z" />
    <glyph glyph-name="hyphen_hyphen.liga" unicode="&#x2d;&#x2d;" horiz-adv-x="1105" 
d="M983 560h-860v172h860v-172z" />
    <glyph glyph-name="hyphen_greater.liga" unicode="&#x2d;&#x3e;" horiz-adv-x="2064" 
d="M287 560v172h1144l-275 268l133 134l489 -489l-489 -488l-133 133l276 270h-1145z" />
    <glyph glyph-name="less_hyphen.liga" unicode="&#x3c;&#x2d;" horiz-adv-x="2064" 
d="M634 731h1144v-172h-1145l275 -269l-133 -133l-488 488l488 488l133 -134z" />
    <glyph glyph-name=".notdef" horiz-adv-x="1515" 
d="M1311 1448h-1106v27h1106v-27zM1311 1329h-1106v33h1106v-33zM1311 1212h-1106v37h1106v-37zM1311 1092h-1106v43h1106v-43zM1311 975h-1106v45h1106v-45zM1311 858h-1106v49h1106v-49zM1311 737h-1106v58h1106v-58zM1311 621h-1106v61h1106v-61zM1311 502h-1106v67h1106
v-67zM1311 383h-1106v72h1106v-72zM1311 266h-1106v76h1106v-76zM1311 147h-1106v82h1106v-82zM1311 0h-1106v117h1106v-117z" />
    <glyph glyph-name=".null" horiz-adv-x="0" 
 />
    <glyph glyph-name="uni000D" unicode="&#xd;" horiz-adv-x="1228" 
 />
    <glyph glyph-name="uni000A" unicode="&#xa;" horiz-adv-x="227" 
 />
    <glyph glyph-name="space" unicode=" " horiz-adv-x="409" 
 />
    <glyph glyph-name="exclam" unicode="!" horiz-adv-x="692" 
d="M446 369h-200v1106h200v-1106zM446 0h-200v208h200v-208z" />
    <glyph glyph-name="quotedbl" unicode="&#x22;" horiz-adv-x="905" 
d="M337 1106h-214v369h214v-369zM700 1106h-214v369h214v-369z" />
    <glyph glyph-name="numbersign" unicode="#" horiz-adv-x="1899" 
d="M607 1h-209l111 415h-386l54 204h387l71 269h-386l55 202h385l104 384h209l-103 -384h282l103 384h210l-103 -384h386l-54 -202h-387l-72 -269h386l-54 -204h-387l-110 -415h-209l109 415h-281zM845 889l-72 -269h281l72 269h-281z" />
    <glyph glyph-name="dollar" unicode="$" horiz-adv-x="1317" 
d="M570 -205v181q-200 26 -332 144.5t-163 302.5l223 34q32 -131 138 -208.5t254 -77.5q144 0 237 66.5t93 169.5q0 137 -185 193l-378 112q-325 96 -325 369q0 168 113.5 279.5t307.5 136.5v182h214v-183q184 -27 305.5 -137t160.5 -287l-229 -39q-23 119 -118 193.5
t-229 75.5q-128 2 -213.5 -58.5t-85.5 -151.5q0 -70 53.5 -115.5t176.5 -80.5l272 -77q383 -108 383 -398q0 -180 -124 -300t-334 -146v-180h-215z" />
    <glyph glyph-name="percent" unicode="%" horiz-adv-x="1844" 
d="M492 768q-100 0 -184.5 48.5t-134.5 134.5q-50 82 -50 186q0 98 50 182.5t136 135.5q82 50 183 50q100 0 184.5 -48.5t134.5 -134.5q49 -83 49 -185q0 -100 -49 -185t-134 -135q-83 -49 -185 -49zM1660 1330l-1332 -1330l-144 143l1333 1332zM492 953q73 0 128 55.5
t55 128.5t-55 128t-128 55t-128.5 -55t-55.5 -128t55.5 -128.5t128.5 -55.5zM1353 -31q-100 0 -184.5 49t-134.5 135q-50 82 -50 185q0 98 50 182.5t136 135.5q84 51 183 51q100 0 184 -49t135 -135q49 -83 49 -185q0 -100 -49 -185t-134 -135q-83 -49 -185 -49zM1353 155
q73 0 128 55t55 128t-55 128t-128 55t-128 -55t-55 -128t55 -128t128 -55z" />
    <glyph glyph-name="ampersand" unicode="&#x26;" horiz-adv-x="1356" 
d="M1175 0l-119 110q-144 -141 -415 -141q-245 0 -390.5 123t-148.5 326q-5 250 214 379q-74 75 -105.5 144.5t-31.5 155.5q0 184 125 294.5t332 110.5q163 0 277.5 -76t155.5 -211l-211 -49q-23 65 -80.5 99.5t-143.5 34.5q-111 0 -175 -54.5t-64 -149.5q0 -64 37 -114.5
t137 -142.5l394 -366v281h218v-329q0 -69 -20 -137l151 -140zM642 174q173 0 253 85l-425 393q-75 -27 -113 -84.5t-36 -138.5q1 -114 93 -184.5t228 -70.5z" />
    <glyph glyph-name="quotesingle" unicode="'" horiz-adv-x="500" 
d="M337 1106h-214v369h214v-369z" />
    <glyph glyph-name="parenleft" unicode="(" horiz-adv-x="909" 
d="M824 -263l-159 -119q-118 136 -204.5 310t-129.5 361q-44 182 -44 362v25v24q0 373 173 722q86 175 205 312l159 -119q-175 -209 -258 -441t-84 -498q0 -533 342 -939z" />
    <glyph glyph-name="parenright" unicode=")" horiz-adv-x="909" 
d="M245 -382l-160 119q342 406 342 939q-1 266 -84 498t-258 441l160 119q118 -136 204.5 -310t130.5 -361q43 -184 43 -363v-24v-25q0 -373 -173 -722q-85 -172 -205 -311z" />
    <glyph glyph-name="asterisk" unicode="*" horiz-adv-x="932" 
d="M435 968l-135 -205l-156 113l156 190l-239 67l60 183l230 -90l-12 249h192l-12 -249l232 90l59 -183l-240 -67l156 -190l-156 -113z" />
    <glyph glyph-name="plus" unicode="+" horiz-adv-x="1174" 
d="M674 273h-172v379h-379v172h379v377h172v-377h378v-172h-378v-379z" />
    <glyph glyph-name="comma" unicode="," horiz-adv-x="594" 
d="M123 -245l13 95q4 -1 12 -1q45 0 70 30.5t25 84.5v7q0 11 -2 29h-118v247h226v-267q0 -79 -25.5 -134.5t-67.5 -75.5q-43 -20 -84 -20q-21 0 -49 5z" />
    <glyph glyph-name="hyphen" unicode="-" horiz-adv-x="860" 
d="M737 560h-614v172h614v-172z" />
    <glyph glyph-name="period" unicode="." horiz-adv-x="586" 
d="M407 0h-227v226h227v-226z" />
    <glyph glyph-name="slash" unicode="/" horiz-adv-x="855" 
d="M516 1475h216l-393 -1475h-216z" />
    <glyph glyph-name="zero" unicode="0" horiz-adv-x="1463" 
d="M731 -31q-278 0 -433 201t-155 567t155 567t433 201q279 0 434 -201t155 -567t-155 -567t-434 -201zM731 173q174 0 268 148t94 416t-94 416.5t-268 148.5q-173 0 -266.5 -148t-93.5 -417q0 -268 93 -416t267 -148z" />
    <glyph glyph-name="one" unicode="1" horiz-adv-x="966" 
d="M721 0h-215v1226l-277 -166l-106 185l383 230h215v-1475z" />
    <glyph glyph-name="two" unicode="2" horiz-adv-x="1251" 
d="M127 0v204l624 566q93 85 133 154t40 147q0 113 -76.5 172t-199.5 59q-127 0 -210.5 -71.5t-106.5 -197.5l-229 39q43 203 186.5 317.5t357.5 114.5q107 0 198 -27.5t160 -80t107 -137t37 -191.5q-2 -124 -63 -233t-151 -192l-484 -439h699v-204h-1022z" />
    <glyph glyph-name="three" unicode="3" horiz-adv-x="1314" 
d="M1192 452q0 -222 -149.5 -352.5t-387.5 -130.5q-107 0 -199.5 27t-168.5 81t-129 142t-76 204l221 34q34 -142 118 -214t238 -72q136 0 222.5 78.5t86.5 193.5q0 126 -81 192t-232 66h-160v177l374 395h-704v202h969v-202l-384 -399q217 -18 329.5 -124t112.5 -298z" />
    <glyph glyph-name="four" unicode="4" horiz-adv-x="1303" 
d="M1057 0h-215v271h-740v202l487 1002h236l-486 -1002h503v479h215v-479h144v-202h-144v-271z" />
    <glyph glyph-name="five" unicode="5" horiz-adv-x="1314" 
d="M1212 452q0 -222 -149 -352.5t-387 -130.5q-107 0 -199.5 27t-168.5 81t-129.5 142t-76.5 204l222 34q34 -142 118 -214t238 -72q136 0 222 78.5t86 193.5q0 127 -81 192.5t-231 65.5h-470l48 774h859v-202h-656l-24 -368h247q256 0 394 -119t138 -334z" />
    <glyph glyph-name="six" unicode="6" horiz-adv-x="1383" 
d="M682 -31q-283 0 -421 169.5t-144 521.5q-8 427 132 636t437 209q220 0 358 -104t187 -306l-218 -36q-34 127 -112 186t-213 59q-349 0 -359 -489l-1 -51q54 89 158.5 133.5t236.5 44.5q149 0 262.5 -51.5t182 -162t68.5 -269.5q0 -157 -75.5 -270t-199 -166.5
t-279.5 -53.5zM682 171q154 0 240.5 75.5t86.5 206.5q0 130 -86.5 205t-240.5 75t-240.5 -75t-86.5 -205q0 -131 86.5 -206.5t240.5 -75.5z" />
    <glyph glyph-name="seven" unicode="7" horiz-adv-x="1132" 
d="M438 0h-236l594 1272h-714v203h948v-203z" />
    <glyph glyph-name="eight" unicode="8" horiz-adv-x="1328" 
d="M664 1504q224 0 360 -113.5t136 -319.5q0 -105 -49.5 -190t-138.5 -122q101 -31 167 -125.5t66 -205.5q0 -218 -148.5 -338.5t-392.5 -120.5q-243 0 -392 120.5t-149 338.5q0 112 66 206t167 125q-89 37 -139 122t-50 190q0 206 136.5 319.5t360.5 113.5zM664 854
q136 0 206.5 63t70.5 157q0 106 -76 167t-201 61t-200.5 -61t-75.5 -167q0 -94 70.5 -157t205.5 -63zM664 650q-152 0 -234.5 -60t-82.5 -170q0 -115 84 -182t233 -67t233 67t84 182q0 110 -82 170t-235 60z" />
    <glyph glyph-name="nine" unicode="9" horiz-adv-x="1383" 
d="M700 1504q283 0 421.5 -169.5t144.5 -521.5q8 -427 -132.5 -636t-437.5 -209q-220 0 -357.5 104.5t-186.5 306.5l218 36q34 -128 111.5 -186.5t212.5 -58.5q350 0 360 488l1 52q-54 -89 -159 -134t-237 -45q-111 0 -203.5 30t-162 88.5t-108.5 152t-39 213.5
q0 119 43.5 213t119 154t175.5 91t216 31zM700 1303q-154 0 -240 -75.5t-86 -206.5q0 -130 86 -205.5t240 -75.5t240.5 75.5t86.5 205.5q0 131 -86.5 206.5t-240.5 75.5z" />
    <glyph glyph-name="colon" unicode=":" horiz-adv-x="671" 
d="M453 880h-227v226h227v-226zM452 0h-227v226h227v-226z" />
    <glyph glyph-name="semicolon" unicode=";" horiz-adv-x="676" 
d="M452 880h-227v226h227v-226zM225 -245l14 95q4 -1 12 -1q45 0 69.5 30.5t24.5 84.5v7q0 11 -2 29h-118v247h227v-267q0 -79 -26 -134.5t-68 -75.5q-43 -20 -84 -20q-21 0 -49 5z" />
    <glyph glyph-name="less" unicode="&#x3c;" horiz-adv-x="1289" 
d="M908 290l-133 -133l-488 488l488 489l133 -134l-362 -355z" />
    <glyph glyph-name="equal" unicode="=" horiz-adv-x="1536" 
d="M1290 839h-1044v172h1044v-172zM1290 464h-1044v172h1044v-172z" />
    <glyph glyph-name="greater" unicode="&#x3e;" horiz-adv-x="1289" 
d="M514 157l-133 133l362 355l-362 355l133 134l488 -489z" />
    <glyph glyph-name="question" unicode="?" horiz-adv-x="1314" 
d="M1212 1023q0 -194 -112.5 -310t-319.5 -139v-210h-200v409h96q150 0 231 65.5t81 192.5q0 116 -86 194.5t-222 78.5q-155 0 -239 -72t-117 -214l-222 34q23 116 76.5 204t129.5 142t168 80.5t200 26.5q238 0 387 -130t149 -352zM780 0h-200v208h200v-208z" />
    <glyph glyph-name="at" unicode="@" horiz-adv-x="1681" 
d="M1329 162q-70 -98 -166.5 -145.5t-230.5 -47.5q-176 0 -275.5 91.5t-99.5 236.5q0 75 24 134t63.5 97.5t98.5 66.5t119 43t136 25l301 36q-23 120 -120.5 183t-260.5 63q-247 0 -397.5 -159t-150.5 -420q0 -276 146 -433t402 -157q105 0 198 30.5t157 87.5l110 -173
q-190 -148 -463 -148q-343 0 -549.5 216.5t-206.5 576.5q0 349 207.5 560t548.5 211q286 0 442 -139.5t156 -395.5v-602h-189v162zM1305 539l-279 -35q-135 -17 -196.5 -62.5t-61.5 -128.5q0 -162 212 -162q114 0 194.5 58.5t108.5 154.5q22 61 22 167v8z" />
    <glyph glyph-name="A" unicode="A" horiz-adv-x="1348" 
d="M815 1475l498 -1475h-227l-111 333h-601l-111 -333h-227l498 1475h281zM440 534h468l-234 700z" />
    <glyph glyph-name="B" unicode="B" horiz-adv-x="1274" 
d="M694 0h-551v1475h536q142 0 250 -41t173 -129.5t65 -214.5q0 -130 -65 -213.5t-154 -112.5q104 -20 185 -113t81 -241q0 -105 -39.5 -185t-111 -128.5t-164.5 -72.5t-205 -24zM683 1273h-324v-414h344q111 0 178 50.5t67 159.5q0 204 -265 204zM359 202h335
q66 0 117.5 10.5t95.5 35t67.5 71t23.5 113.5q0 63 -23.5 109t-65.5 71t-91 36.5t-108 11.5h-351v-458z" />
    <glyph glyph-name="C" unicode="C" horiz-adv-x="1496" 
d="M759 -31q-217 0 -376 97t-240.5 270t-81.5 401t81.5 401t240.5 270t376 97q250 0 419 -126.5t236 -349.5l-217 -58q-44 158 -155.5 244.5t-282.5 86.5q-226 0 -348.5 -153t-122.5 -412q0 -260 121 -412t350 -152q171 0 282.5 86.5t155.5 244.5l217 -59
q-67 -223 -236 -349.5t-419 -126.5z" />
    <glyph glyph-name="D" unicode="D" horiz-adv-x="1416" 
d="M597 0h-454v1475h454q349 0 536 -191t187 -547t-187 -546.5t-536 -190.5zM361 1273v-1071h213q521 0 521 535q0 536 -521 536h-213z" />
    <glyph glyph-name="E" unicode="E" horiz-adv-x="1188" 
d="M1086 0h-943v1475h943v-202h-727v-414h605v-202h-605v-455h727v-202z" />
    <glyph glyph-name="F" unicode="F" horiz-adv-x="1090" 
d="M359 0h-216v1475h907v-202h-691v-473h564v-202h-564v-598z" />
    <glyph glyph-name="G" unicode="G" horiz-adv-x="1491" 
d="M1195 0v213q-52 -114 -175 -179t-286 -65q-309 0 -491 204.5t-182 563.5q0 347 189 557t500 210q240 0 399.5 -114t228.5 -340l-218 -39q-40 138 -146.5 214.5t-257.5 76.5q-221 0 -344 -149.5t-123 -419.5q0 -267 120.5 -413.5t344.5 -146.5q194 0 305.5 110t118.5 311
h-509v202h741v-796h-215z" />
    <glyph glyph-name="H" unicode="H" horiz-adv-x="1454" 
d="M359 0h-216v1475h216v-636h736v636h216v-1475h-216v637h-736v-637z" />
    <glyph glyph-name="I" unicode="I" horiz-adv-x="543" 
d="M379 0h-215v1475h215v-1475z" />
    <glyph glyph-name="J" unicode="J" horiz-adv-x="998" 
d="M424 -30q-160 0 -270.5 85t-153.5 233l212 50q14 -69 73 -117.5t132 -48.5q53 0 103.5 26t74.5 78q11 23 16.5 56.5t6 57.5t0.5 82v1003h217v-1003q0 -195 -50 -301q-96 -201 -361 -201z" />
    <glyph glyph-name="K" unicode="K" horiz-adv-x="1290" 
d="M143 0v1475h215v-692l618 692h266l-652 -720l700 -755h-274l-658 707v-707h-215z" />
    <glyph glyph-name="L" unicode="L" horiz-adv-x="1078" 
d="M1048 0h-884v1475h216v-1273h668v-202z" />
    <glyph glyph-name="M" unicode="M" horiz-adv-x="1707" 
d="M358 0h-215v1475h214l497 -1042l494 1042h216v-1474h-216v1036l-402 -849h-186l-402 849v-1037z" />
    <glyph glyph-name="N" unicode="N" horiz-adv-x="1446" 
d="M359 0h-216v1475h216l730 -1103v1103h215v-1475h-215l-730 1103v-1103z" />
    <glyph glyph-name="O" unicode="O" horiz-adv-x="1516" 
d="M759 -31q-217 0 -376 97t-240.5 270t-81.5 401t81.5 401t240.5 270t376 97t375.5 -97t239.5 -270t81 -401t-81 -401t-239.5 -270t-375.5 -97zM759 173q229 0 349 151.5t120 412.5t-120 413t-349 152t-349 -152t-121 -413q-1 -260 120 -412t350 -152z" />
    <glyph glyph-name="P" unicode="P" horiz-adv-x="1285" 
d="M358 0h-215v1475h570q248 0 379.5 -125t131.5 -348t-131.5 -348t-379.5 -125h-355v-529zM358 1273v-541h354q141 0 217.5 70t76.5 200q0 129 -76.5 200t-217.5 71h-354z" />
    <glyph glyph-name="Q" unicode="Q" horiz-adv-x="1516" 
d="M1299 -30l-123 123q-172 -124 -417 -124q-217 0 -376 97t-240.5 270t-81.5 401t81.5 401t240.5 270t376 97t375.5 -97t239.5 -270t81 -401q0 -306 -144 -507l124 -122zM759 173q154 0 263 73l-230 229l137 137l223 -222q76 140 76 347q0 261 -120 413t-349 152t-349 -152
t-121 -413q-1 -260 120 -412t350 -152z" />
    <glyph glyph-name="R" unicode="R" horiz-adv-x="1333" 
d="M1001 0l-345 529h-298v-529h-215v1475h570q248 0 379.5 -125t131.5 -348q0 -179 -84.5 -295t-246.5 -157l358 -550h-250zM358 1273v-541h354q141 0 217.5 70t76.5 200q0 129 -76.5 200t-217.5 71h-354z" />
    <glyph glyph-name="S" unicode="S" horiz-adv-x="1317" 
d="M678 -31q-242 0 -405 123t-198 331l223 34q34 -139 135 -212.5t257 -73.5q145 0 237.5 67t92.5 172q0 135 -185 190l-378 112q-325 98 -325 372q0 187 146 303.5t376 116.5q229 0 381.5 -114t197.5 -318l-229 -39q-24 126 -117.5 197.5t-234.5 71.5q-132 0 -213 -59
t-81 -150q0 -70 54 -116t178 -81l270 -77q383 -108 383 -398q0 -203 -156 -327.5t-409 -124.5z" />
    <glyph glyph-name="T" unicode="T" horiz-adv-x="1143" 
d="M681 0h-216v1273h-445v202h1102v-202h-441v-1273z" />
    <glyph glyph-name="U" unicode="U" horiz-adv-x="1462" 
d="M731 -31q-270 0 -429 160.5t-159 454.5v891h216v-884q0 -208 93.5 -314t278.5 -106t278.5 106t93.5 314v884h216v-891q0 -294 -159 -454.5t-429 -160.5z" />
    <glyph glyph-name="V" unicode="V" horiz-adv-x="1297" 
d="M790 0h-282l-498 1475h228l410 -1234l413 1234h226z" />
    <glyph glyph-name="W" unicode="W" horiz-adv-x="1971" 
d="M676 0h-226l-422 1475h225l309 -1130l310 1130h226l310 -1130l309 1130h227l-422 -1475h-227l-310 1116z" />
    <glyph glyph-name="X" unicode="X" horiz-adv-x="1308" 
d="M284 0h-264l503 746l-489 729h262l359 -547l358 547h263l-490 -729l502 -746h-262l-371 564z" />
    <glyph glyph-name="Y" unicode="Y" horiz-adv-x="1214" 
d="M716 0h-216v609l-500 866h250l357 -620l358 620h249l-498 -866v-609z" />
    <glyph glyph-name="Z" unicode="Z" horiz-adv-x="1342" 
d="M1240 0h-1138v202l865 1071h-865v202h1138v-202l-864 -1071h864v-202z" />
    <glyph glyph-name="bracketleft" unicode="[" horiz-adv-x="856" 
d="M713 -438h-426v2269h426v-193h-234v-1884h234v-192z" />
    <glyph glyph-name="backslash" unicode="\" horiz-adv-x="855" 
d="M123 1475h216l393 -1475h-216z" />
    <glyph glyph-name="bracketright" unicode="]" horiz-adv-x="856" 
d="M569 -438h-426v192h234v1884h-234v193h426v-2269z" />
    <glyph glyph-name="asciicircum" unicode="^" horiz-adv-x="1385" 
d="M349 885l-133 134l487 488l489 -488l-132 -133l-355 362z" />
    <glyph glyph-name="underscore" unicode="_" horiz-adv-x="1351" 
d="M1352 -239h-1352v172h1352v-172z" />
    <glyph glyph-name="grave" unicode="`" horiz-adv-x="1070" 
d="M653 1638h-168l-145 359h168z" />
    <glyph glyph-name="a" unicode="a" horiz-adv-x="1166" 
d="M585 1137q231 0 344.5 -118t113.5 -359v-660h-215v162q-114 -193 -371 -193q-171 0 -273 89t-102 239q0 162 112.5 250.5t329.5 115.5l304 37q-2 126 -62 185.5t-183 59.5q-108 0 -172.5 -41.5t-91.5 -129.5l-197 52q42 151 161.5 231t301.5 80zM828 539l-277 -35
q-134 -16 -196 -62t-62 -129q0 -162 213 -162q114 0 194.5 58.5t107.5 154.5q20 53 20 167v8z" />
    <glyph glyph-name="b" unicode="b" horiz-adv-x="1295" 
d="M142 0v1475h214v-530q110 192 356 192q223 0 362 -162.5t139 -422.5q0 -257 -139 -420t-362 -163q-246 0 -356 192v-161h-214zM671 935q-152 0 -233.5 -102.5t-81.5 -280.5q0 -175 79.5 -278t235.5 -103q154 0 234.5 102t80.5 279q0 175 -80.5 279t-234.5 104z" />
    <glyph glyph-name="c" unicode="c" horiz-adv-x="1164" 
d="M616 -31q-164 0 -286 75t-185 206.5t-63 302.5q0 262 145.5 423t392.5 161q181 0 309.5 -90.5t169.5 -246.5l-213 -62q-31 92 -103.5 144.5t-166.5 52.5q-150 0 -228.5 -103t-78.5 -279t79 -279t228 -103q197 0 266 184l217 -51q-55 -162 -179.5 -248.5t-303.5 -86.5z
" />
    <glyph glyph-name="d" unicode="d" 
d="M938 1475h215v-1475h-215v161q-110 -192 -354 -192q-223 0 -362.5 163t-139.5 420q0 260 139.5 422.5t362.5 162.5q244 0 354 -192v530zM625 935q-154 0 -235 -104t-81 -279q0 -177 81 -279t235 -102q156 0 234.5 102.5t78.5 278.5q0 179 -80.5 281t-232.5 102z" />
    <glyph glyph-name="e" unicode="e" horiz-adv-x="1221" 
d="M626 169q202 0 284 176l211 -64q-65 -149 -194 -230.5t-301 -81.5q-245 0 -394.5 161t-149.5 423q0 263 149.5 423.5t392.5 160.5q257 0 393 -172.5t119 -471.5h-824q14 -154 97 -239t217 -85zM317 659h598q-11 136 -87 210.5t-204 74.5q-126 0 -205.5 -74.5
t-101.5 -210.5z" />
    <glyph glyph-name="f" unicode="f" horiz-adv-x="758" 
d="M245 905h-184v201h184v71q0 171 78 249.5t249 78.5h166v-176h-127q-84 0 -118 -35.5t-34 -121.5v-66h279v-201h-279v-905h-214v905z" />
    <glyph glyph-name="g" unicode="g" 
d="M584 1137q244 0 355 -185v154h214v-1048q0 -259 -141 -419.5t-394 -160.5q-180 0 -311 87t-185 248l218 51q33 -90 104.5 -137.5t173.5 -47.5q154 0 237.5 103.5t83.5 278.5v133q-110 -184 -355 -184q-221 0 -361.5 154t-140.5 408q0 256 140.5 410.5t361.5 154.5z
M625 212q149 0 231.5 97t82.5 263q0 169 -84 266t-230 97q-147 0 -231.5 -98.5t-84.5 -264.5q0 -168 84.5 -264t231.5 -96z" />
    <glyph glyph-name="h" unicode="h" horiz-adv-x="1255" 
d="M919 0v608q0 160 -73.5 243.5t-206.5 83.5t-208 -83.5t-75 -243.5v-608h-214v1475h214v-522q97 184 335 184q205 0 323.5 -122t118.5 -365v-650h-214z" />
    <glyph glyph-name="i" unicode="i" horiz-adv-x="541" 
d="M378 1287h-214v208h214v-208zM378 0h-214v1106h214v-1106z" />
    <glyph glyph-name="j" unicode="j" horiz-adv-x="564" 
d="M415 1287h-215v208h215v-208zM115 -490h-135v200h67q82 0 117.5 35.5t35.5 117.5v1243h215v-1297q0 -143 -76 -221t-224 -78z" />
    <glyph glyph-name="k" unicode="k" horiz-adv-x="1069" 
d="M142 0v1475h214v-902l435 533h272l-459 -553l506 -553h-291l-463 532v-532h-214z" />
    <glyph glyph-name="l" unicode="l" horiz-adv-x="541" 
d="M378 0h-214v1505h214v-1505z" />
    <glyph glyph-name="m" unicode="m" horiz-adv-x="1806" 
d="M805 0v659q0 137 -57.5 206.5t-165.5 69.5t-167 -69.5t-59 -206.5v-659h-214v1106h214v-134q87 165 276 165q251 0 339 -185q47 86 126.5 135.5t185.5 49.5q196 0 298 -109t102 -327v-701h-214v659q0 137 -57.5 206.5t-165.5 69.5q-109 0 -167 -69.5t-58 -206.5l-1 1
v-660h-215z" />
    <glyph glyph-name="n" unicode="n" horiz-adv-x="1255" 
d="M919 0v608q0 160 -73.5 243.5t-206.5 83.5t-208 -83.5t-75 -243.5v-608h-214v1106h214v-153q98 184 335 184q206 0 324 -122t118 -365v-650h-214z" />
    <glyph glyph-name="o" unicode="o" horiz-adv-x="1248" 
d="M624 -31q-246 0 -394 162t-148 423q0 260 148.5 421.5t393.5 161.5q246 0 394 -161.5t148 -421.5q0 -262 -148 -423.5t-394 -161.5zM624 171q152 0 233.5 102t81.5 281q0 180 -81.5 280.5t-233.5 100.5q-153 0 -234 -100.5t-81 -280.5t82 -281.5t233 -101.5z" />
    <glyph glyph-name="p" unicode="p" 
d="M357 -492h-214v1598h214v-161q110 192 356 192q223 0 362 -163t139 -420q0 -260 -139 -422.5t-362 -162.5q-246 0 -356 192v-653zM672 171q154 0 234.5 104t80.5 279q0 177 -80.5 279t-234.5 102q-156 0 -235.5 -103t-79.5 -278q0 -178 81.5 -280.5t233.5 -102.5z" />
    <glyph glyph-name="q" unicode="q" 
d="M1153 1106v-1598h-214v653q-110 -192 -355 -192q-223 0 -362.5 162.5t-139.5 422.5q0 257 139.5 420t362.5 163q245 0 355 -192v161h214zM625 171q152 0 233 102.5t81 280.5q0 176 -79 278.5t-235 102.5q-154 0 -235 -102t-81 -279q0 -175 81 -279t235 -104z" />
    <glyph glyph-name="r" unicode="r" horiz-adv-x="789" 
d="M738 1135v-207q-39 7 -99 7q-133 0 -208 -83.5t-75 -243.5v-608h-214v1106h214v-153q97 184 335 184q17 0 47 -2z" />
    <glyph glyph-name="s" unicode="s" horiz-adv-x="1097" 
d="M568 -30q-202 0 -327 87.5t-159 252.5l220 35q48 -186 270 -186q103 0 163.5 40t60.5 111q0 43 -22 70t-82 50q-70 24 -187 56q-97 25 -163.5 51t-119.5 63.5t-78.5 88.5t-25.5 119q0 148 119 238.5t313 90.5q188 0 312.5 -88t146.5 -237l-219 -40q-11 82 -77.5 129.5
t-169.5 47.5q-91 0 -151 -37.5t-60 -95.5q0 -22 11 -41t25 -30.5t44 -24.5t48.5 -19.5t57.5 -18.5q95 -27 208 -61q155 -46 222 -116.5t67 -185.5q0 -163 -119.5 -256t-327.5 -93z" />
    <glyph glyph-name="t" unicode="t" horiz-adv-x="865" 
d="M20 905v201h212v369h215v-369h329v-201h-329v-558q0 -82 35.5 -118t117.5 -36h176v-193h-223q-151 0 -236 79.5t-85 219.5v606h-212z" />
    <glyph glyph-name="u" unicode="u" horiz-adv-x="1256" 
d="M338 1106v-608q0 -161 72.5 -244t205.5 -83t208 83.5t75 243.5v608h215v-1106h-215v153q-97 -184 -334 -184q-206 0 -324 122t-118 365v650h215z" />
    <glyph glyph-name="v" unicode="v" horiz-adv-x="1101" 
d="M659 0h-217l-401 1106h216l294 -839l294 839h216z" />
    <glyph glyph-name="w" unicode="w" horiz-adv-x="1625" 
d="M1027 0l-215 765l-215 -765h-217l-339 1106h216l231 -804l232 804h184l232 -804l232 804h216l-340 -1106h-217z" />
    <glyph glyph-name="x" unicode="x" horiz-adv-x="1116" 
d="M275 0h-255l414 559l-404 547h254l275 -380l272 380h254l-404 -547l415 -559h-255l-282 392z" />
    <glyph glyph-name="y" unicode="y" horiz-adv-x="1123" 
d="M497 -492h-204l182 497l-447 1101h223l328 -831l311 831h217z" />
    <glyph glyph-name="z" unicode="z" horiz-adv-x="1070" 
d="M988 0h-947v201l673 704h-673v201h947v-201l-674 -704h674v-201z" />
    <glyph glyph-name="braceleft" unicode="{" horiz-adv-x="899" 
d="M814 -438h-134q-123 0 -197.5 74t-74.5 197v633q0 24 -15 47l-89 126q-18 27 -18 58t18 57l89 126q15 25 15 47v632q0 123 75 197.5t197 74.5h134v-204h-120q-34 0 -58.5 -24t-24.5 -58v-618q0 -91 -52 -164l-48 -67l48 -66q52 -73 52 -164v-619q0 -35 24.5 -59.5
t58.5 -24.5h120v-201z" />
    <glyph glyph-name="bar" unicode="|" horiz-adv-x="582" 
d="M398 0h-214v1475h214v-1475z" />
    <glyph glyph-name="braceright" unicode="}" horiz-adv-x="899" 
d="M219 -438h-134v201h120q34 0 58.5 24.5t24.5 59.5v619q0 91 52 164l48 66l-48 67q-52 73 -52 164v618q0 34 -24.5 58t-58.5 24h-120v204h134q123 0 198 -74.5t75 -197.5v-632q0 -24 14 -47l89 -126q18 -26 18 -57t-18 -58l-89 -126q-14 -22 -14 -47v-633q0 -123 -75 -197
t-198 -74z" />
    <glyph glyph-name="asciitilde" unicode="~" horiz-adv-x="1429" 
d="M947 438q-82 0 -174 54q-45 24 -94 56q-67 44 -104.5 61.5t-69.5 17.5q-29 0 -48.5 -20.5t-22.5 -44.5q-2 -28 -2 -30q0 -27 9 -60h-196q-16 67 -16 118q0 36 14 100q14 62 75 112q62 50 163 50q82 0 175 -52q37 -21 95 -59q71 -45 106.5 -61.5t67.5 -16.5q29 0 48 19.5
t22 44.5q2 30 2 33q0 27 -9 60h197q15 -63 15 -118q0 -42 -13 -101q-13 -61 -76 -112t-164 -51z" />
    <glyph glyph-name="uni00A0" unicode="&#xa0;" horiz-adv-x="409" 
 />
    <glyph glyph-name="exclamdown" unicode="&#xa1;" horiz-adv-x="705" 
d="M246 1106h200v-208h-200v208zM246 737h200v-1106h-200v1106z" />
    <glyph glyph-name="cent" unicode="&#xa2;" horiz-adv-x="1164" 
d="M540 -60v188q-142 18 -245 95t-158 203q-53 123 -55 281q1 157 56 282t158 201q105 78 244 94v191h172v-192q147 -23 249 -109.5t138 -220.5l-213 -61q-31 92 -104 144.5t-166 52.5q-151 0 -228 -104q-78 -104 -79 -278q2 -177 81 -279.5t226 -102.5q198 0 266 184
l217 -51q-49 -139 -147.5 -222.5t-239.5 -105.5v-190h-172z" />
    <glyph glyph-name="sterling" unicode="&#xa3;" horiz-adv-x="1315" 
d="M75 0v202h105q80 56 94.5 151.5t-32.5 249.5l-6 22h-156v201h93q-33 124 -33 217q0 218 140 339.5t397 121.5q222 0 372 -115.5t192 -316.5l-229 -39q-23 126 -117.5 197.5t-223.5 71.5q-62 0 -115 -14t-96.5 -43.5t-68 -80t-24.5 -117.5q0 -103 35 -221h569v-201h-508
l1 -1q81 -276 -9 -422h742v-202h-1122z" />
    <glyph glyph-name="currency" unicode="&#xa4;" horiz-adv-x="1352" 
d="M677 201q-145 0 -268 72q-9 5 -32 21l-172 -171l-144 143l171 171q-7 11 -19 33q-73 125 -73 269t73 269q12 20 18 29l-170 170l144 145l170 -170l34 21q125 73 268 73q144 0 269 -73q4 -3 15.5 -9.5t17.5 -10.5l169 169l143 -145l-169 -169q10 -14 21 -30
q72 -123 72 -269t-72 -269l-22 -34l170 -170l-143 -143l-170 170q-16 -12 -32 -20q-123 -72 -269 -72zM677 385q95 0 176 47.5t129 129.5q47 79 47 175q0 95 -47.5 177t-129.5 129q-81 48 -175 48q-95 0 -176.5 -47.5t-128.5 -129.5q-47 -79 -47 -177q0 -94 46.5 -174.5
t128.5 -129.5q81 -48 177 -48z" />
    <glyph glyph-name="yen" unicode="&#xa5;" horiz-adv-x="1214" 
d="M499 534h-301v172h245l-443 769h250l357 -620l358 620h249l-442 -769h245v-172h-301v-150h301v-172h-301v-212h-217v212h-301v172h301v150z" />
    <glyph glyph-name="brokenbar" unicode="&#xa6;" horiz-adv-x="582" 
d="M398 667h-214v808h214v-808zM398 -385h-214v808h214v-808z" />
    <glyph glyph-name="section" unicode="&#xa7;" horiz-adv-x="1097" 
d="M567 -296q-180 0 -303.5 86.5t-153.5 253.5l219 34q21 -90 91.5 -138t160.5 -48q82 0 137.5 40.5t55.5 113.5q0 45 -26.5 73.5t-81.5 48.5q-71 24 -171 49l-18 5q-137 36 -216 74t-121 93q-43 55 -43 136q0 94 58 161q55 64 138 92q-1 1 -3 1q-166 77 -166 244
q0 105 56.5 181.5t152.5 114.5q92 36 194 36q108 0 200.5 -39t153.5 -112q59 -73 73 -174l-219 -40q-17 90 -74 134t-142 44q-77 0 -128.5 -35.5t-51.5 -94.5q0 -70 94 -110q52 -20 121 -37q6 -1 94 -25q139 -38 215 -75.5t117 -93.5q42 -60 42 -150q0 -102 -49 -170
q-43 -58 -108 -86q55 -34 87 -80q42 -60 42 -155q0 -164 -119 -258t-308 -94zM678 366q18 7 31 15q42 23 67.5 62t25.5 87q0 45 -26.5 73.5t-82.5 48.5q-60 22 -172 50l-16 5q-18 4 -26 7q-75 -26 -117 -61q-51 -42 -51 -99q0 -73 96 -111q64 -23 124 -39q1 0 11 -2.5
t32.5 -8t46.5 -11.5q11 -3 31.5 -9t25.5 -7z" />
    <glyph glyph-name="dieresis" unicode="&#xa8;" horiz-adv-x="1108" 
d="M863 1660h-205v205h205v-205zM451 1660h-205v205h205v-205z" />
    <glyph glyph-name="copyright" unicode="&#xa9;" horiz-adv-x="1758" 
d="M880 -99q-224 0 -410 110q-189 109 -298 298q-111 187 -111 410q0 221 111 410q109 187 298 298q188 110 410 110q221 0 409 -110q187 -111 298 -298q110 -190 110 -410q0 -222 -110 -410q-111 -189 -298 -298q-186 -110 -409 -110zM880 104q165 0 307 83q140 80 224 224
q82 143 82 309q0 164 -82 307q-83 141 -224 224q-143 82 -307 82q-167 0 -310 -82q-142 -83 -223 -224q-83 -142 -83 -307q0 -167 83 -309q82 -143 223 -224q142 -83 310 -83zM893 284q-101 0 -174.5 32.5t-129.5 102.5q-97 122 -97 301q2 180 97 299q115 136 312 136
q116 0 204 -54q115 -67 149 -202l-167 -46q-20 62 -74 104q-50 40 -121 40q-104 0 -168 -81q-53 -68 -53 -195q0 -121 53 -198q57 -80 170 -80q76 0 123 37q41 33 67 98l170 -39q-40 -121 -132 -188q-90 -67 -229 -67z" />
    <glyph glyph-name="ordfeminine" unicode="&#xaa;" horiz-adv-x="651" 
d="M546 1032q21 -43 21 -125v-340h-107v75q-71 -90 -194 -90q-84 0 -135 45.5t-51 120.5q0 159 217 184l149 19q-3 106 -113 106q-96 0 -121 -78l-113 31q22 73 81 114.5t154 41.5q160 0 212 -104zM445 831l-130 -16q-114 -13 -114 -87t94 -74q50 0 87 24.5t51 63.5
q12 32 12 83v6z" />
    <glyph glyph-name="guillemotleft" unicode="&#xab;" horiz-adv-x="1166" 
d="M1036 196l-117 -94l-359 452l359 451l117 -94l-285 -357zM640 196l-118 -94l-358 452l358 451l118 -94l-285 -357z" />
    <glyph glyph-name="logicalnot" unicode="&#xac;" horiz-adv-x="1228" 
d="M1106 387h-172v245h-811v172h983v-417z" />
    <glyph glyph-name="uni00AD" unicode="&#xad;" horiz-adv-x="860" 
d="M737 560h-614v172h614v-172z" />
    <glyph glyph-name="registered" unicode="&#xae;" horiz-adv-x="1320" 
d="M660 568q-140 0 -259 71q-119 69 -188 188q-70 120 -70 259q0 140 70 260q68 117 188 187t259 70q140 0 260 -70t188 -187q70 -120 70 -260q0 -139 -70 -259q-69 -119 -188 -188q-119 -71 -260 -71zM662 718q98 0 183 49.5t135 135.5q50 82 50 183q0 100 -49 185
t-135 135q-83 49 -184 49q-100 0 -185 -48.5t-135 -134.5q-50 -82 -50 -186q0 -99 49 -183.5t135 -134.5q82 -50 186 -50zM591 847h-99v482h205q71 0 116 -44.5t48 -114.5q0 -44 -23 -81.5t-63 -59.5l90 -182h-112l-80 167h-82v-167zM591 1101h95q32 0 52.5 18.5t20.5 50.5
q0 70 -73 70h-95v-139z" />
    <glyph glyph-name="macron" unicode="&#xaf;" horiz-adv-x="1027" 
d="M781 1720h-535v171h535v-171z" />
    <glyph glyph-name="degree" unicode="&#xb0;" horiz-adv-x="921" 
d="M430 768q-100 0 -184 48.5t-134 134.5q-51 84 -51 186q0 98 50.5 182.5t136.5 135.5q82 50 182 50t185 -48.5t135 -134.5q49 -83 49 -185q0 -100 -49.5 -185t-134.5 -135q-83 -49 -185 -49zM430 953q73 0 128 55.5t55 128.5t-55 128t-128 55t-128 -55t-55 -128t55 -128.5
t128 -55.5z" />
    <glyph glyph-name="plusminus" unicode="&#xb1;" horiz-adv-x="1228" 
d="M701 451h-172v242h-406v172h406v241h172v-241h405v-172h-405v-242zM1106 142h-983v172h983v-172z" />
    <glyph glyph-name="twosuperior" unicode="&#xb2;" horiz-adv-x="867" 
d="M118 553v136l389 350q57 51 81 92t24 89q0 69 -46 104.5t-120 35.5q-76 0 -126 -43t-64 -119l-154 27q28 128 118.5 199t224.5 71q142 0 231.5 -70.5t87.5 -206.5q-3 -144 -137 -266l-294 -263h431v-136h-646z" />
    <glyph glyph-name="threesuperior" unicode="&#xb3;" horiz-adv-x="906" 
d="M783 835q0 -140 -94 -222t-245 -82q-139 0 -236 71t-126 217l149 23q19 -87 70.5 -131t145.5 -44q82 0 134 47t52 115q0 76 -49.5 116t-139.5 40h-103v117l228 237h-436v136h613v-136l-234 -240q271 -25 271 -264z" />
    <glyph glyph-name="acute" unicode="&#xb4;" horiz-adv-x="1070" 
d="M730 1997l-146 -359h-168l146 359h168z" />
    <glyph glyph-name="uni00B5" unicode="&#xb5;" horiz-adv-x="1278" 
d="M920 1106h216v-1106h-216v153q-97 -184 -335 -184q-130 0 -227 49v-510h-216v1598h216v-639q7 -146 79.5 -221t199.5 -75q133 0 208 83.5t75 243.5v608z" />
    <glyph glyph-name="paragraph" unicode="&#xb6;" horiz-adv-x="1410" 
d="M908 -289h-214v818h-95q-48 0 -113 9q-177 27 -273.5 152.5t-96.5 311.5t96 312t274 152q65 9 113 9h309v-1764zM1293 -289h-214v1764h214v-1764z" />
    <glyph glyph-name="periodcentered" unicode="&#xb7;" horiz-adv-x="519" 
d="M263 509q-59 0 -99.5 39t-40.5 97t40.5 97t99.5 39q55 0 94 -39.5t39 -96.5t-39 -96.5t-94 -39.5z" />
    <glyph glyph-name="cedilla" unicode="&#xb8;" horiz-adv-x="835" 
d="M384 -494q-69 0 -138 36l49 131q47 -14 71 -14q31 0 50 18.5t19 44.5q0 46 -58 70q-35 14 -68 25q-2 0 -8 2l74 209l136 2l-44 -127q124 -60 124 -187q0 -89 -61 -149.5t-146 -60.5z" />
    <glyph glyph-name="onesuperior" unicode="&#xb9;" horiz-adv-x="756" 
d="M511 553h-144v755l-172 -104l-72 124l244 147h144v-922z" />
    <glyph glyph-name="ordmasculine" unicode="&#xba;" horiz-adv-x="714" 
d="M357 553q-123 0 -199 82t-76 210q0 129 76.5 210.5t198.5 81.5q123 0 199.5 -82t76.5 -210q0 -129 -76.5 -210.5t-199.5 -81.5zM357 669q69 0 107.5 47.5t38.5 128.5q0 84 -38 130t-108 46q-71 0 -107.5 -46t-36.5 -130q0 -83 37 -129.5t107 -46.5z" />
    <glyph glyph-name="guillemotright" unicode="&#xbb;" horiz-adv-x="1166" 
d="M248 102l-118 94l286 358l-286 357l118 94l358 -451zM644 102l-118 94l285 358l-285 357l118 94l358 -451z" />
    <glyph glyph-name="onequarter" unicode="&#xbc;" horiz-adv-x="2077" 
d="M1519 1385l-1032 -1385l-130 98l1032 1386zM441 553h-145v755l-172 -104l-72 124l244 147h145v-922zM1744 0h-146v167h-453v134l299 621h159l-300 -621h295v294h146v-294h90v-134h-90v-167z" />
    <glyph glyph-name="onehalf" unicode="&#xbd;" horiz-adv-x="2022" 
d="M1519 1385l-1032 -1385l-130 98l1032 1386zM441 553h-145v755l-172 -104l-72 124l244 147h145v-922zM1920 0h-646v136l389 350q57 51 81 92t24 89q0 69 -45.5 104.5t-119.5 35.5q-76 0 -126.5 -43t-64.5 -119l-154 27q28 128 118.5 199t225.5 71q142 0 231 -70.5
t87 -206.5q-3 -144 -137 -266l-294 -263h431v-136z" />
    <glyph glyph-name="threequarters" unicode="&#xbe;" horiz-adv-x="2071" 
d="M1648 1385l-1032 -1385l-130 98l1032 1386zM773 835q0 -140 -94 -222t-245 -82q-139 0 -236 71t-126 217l149 23q19 -87 70.5 -131t145.5 -44q82 0 134 47t52 115q0 76 -49.5 116t-139.5 40h-103v117l228 237h-436v136h613v-136l-234 -240q271 -25 271 -264zM1864 0h-146
v167h-453v134l299 621h158l-300 -621h296v294h146v-294h90v-134h-90v-167z" />
    <glyph glyph-name="questiondown" unicode="&#xbf;" horiz-adv-x="1314" 
d="M535 1106h200v-208h-200v208zM102 83q0 194 113 309.5t320 138.5v211h200v-409h-96q-150 0 -231 -65.5t-81 -192.5q0 -116 86 -194.5t222 -78.5q155 0 239 72t117 214l221 -34q-31 -154 -114.5 -257.5t-198.5 -149.5t-260 -46q-239 0 -388 130t-149 352z" />
    <glyph glyph-name="Agrave" unicode="&#xc0;" horiz-adv-x="1348" 
d="M737 1638h-168l-146 359h168zM36 0l498 1475h281l498 -1475h-228l-110 333h-601l-112 -333h-226zM675 1234l-235 -700h468z" />
    <glyph glyph-name="Aacute" unicode="&#xc1;" horiz-adv-x="1348" 
d="M779 1638h-168l147 359h168zM815 1475l498 -1475h-227l-111 333h-601l-111 -333h-227l498 1475h281zM440 534h468l-234 700z" />
    <glyph glyph-name="Acircumflex" unicode="&#xc2;" horiz-adv-x="1348" 
d="M315 1638l266 308h184l264 -308h-205l-151 182l-153 -182h-205zM815 1475l498 -1475h-227l-111 333h-601l-111 -333h-227l498 1475h281zM440 534h468l-234 700z" />
    <glyph glyph-name="Atilde" unicode="&#xc3;" horiz-adv-x="1348" 
d="M840 1694q-42 0 -83.5 18t-107.5 60q-85 56 -123 56q-18 0 -29.5 -8.5t-16 -22.5t-5.5 -22t-1 -15q0 -20 6 -43h-139q-10 43 -10 83q0 28 9 73q9 43 54 79t115 36q43 0 84.5 -18.5t106.5 -60.5q85 -56 123 -56q32 0 43 25q10 27 10 44t-7 43h140q10 -43 10 -83
q0 -28 -9 -73q-9 -43 -54 -79t-116 -36zM815 1475l498 -1475h-227l-111 333h-601l-111 -333h-227l498 1475h281zM440 534h468l-234 700z" />
    <glyph glyph-name="Adieresis" unicode="&#xc4;" horiz-adv-x="1348" 
d="M779 1660v205h205v-205h-205zM367 1660v205h204v-205h-204zM815 1475l498 -1475h-227l-111 333h-601l-111 -333h-227l498 1475h281zM440 534h468l-234 700z" />
    <glyph glyph-name="Aring" unicode="&#xc5;" horiz-adv-x="1348" 
d="M675 1590q-67 0 -124.5 33.5t-91.5 92.5q-34 56 -34 125q0 102 74 176.5t176 74.5q103 0 177 -74.5t74 -176.5q0 -67 -33.5 -125t-91.5 -92q-56 -34 -126 -34zM675 1729q46 0 79 33t33 79q0 47 -33 80t-79 33t-79.5 -33.5t-33.5 -79.5t33.5 -79t79.5 -33zM815 1475
l498 -1475h-227l-111 333h-601l-111 -333h-227l498 1475h281zM440 534h468l-234 700z" />
    <glyph glyph-name="AE" unicode="&#xc6;" horiz-adv-x="1909" 
d="M863 0v333h-489l-111 -333h-227l498 1475h1273v-202h-728v-414h605v-202h-605v-455h728v-202h-944zM440 534h423v739h-176z" />
    <glyph glyph-name="Ccedilla" unicode="&#xc7;" horiz-adv-x="1496" 
d="M722 -494q-68 0 -137 36l49 131q45 -14 69 -14q31 0 51 18.5t20 44.5q0 45 -58 70q-35 15 -69 25q-1 0 -7 2l53 152q-297 22 -464.5 229.5t-167.5 536.5q0 228 81.5 401t240.5 270t376 97q250 0 419 -126.5t236 -349.5l-217 -58q-44 158 -155.5 244.5t-282.5 86.5
q-226 0 -348.5 -153t-122.5 -412q0 -260 121 -412t350 -152q171 0 282.5 86.5t155.5 244.5l217 -59q-62 -206 -212.5 -330.5t-372.5 -142.5l-23 -69q124 -60 124 -187q0 -89 -61 -149.5t-147 -60.5z" />
    <glyph glyph-name="Egrave" unicode="&#xc8;" horiz-adv-x="1188" 
d="M724 1638h-168l-146 359h168zM1086 0h-943v1475h943v-202h-728v-414h606v-202h-606v-455h728v-202z" />
    <glyph glyph-name="Eacute" unicode="&#xc9;" horiz-adv-x="1188" 
d="M872 1997l-146 -359h-168l147 359h167zM1086 0h-943v1475h943v-202h-727v-414h605v-202h-605v-455h727v-202z" />
    <glyph glyph-name="Ecircumflex" unicode="&#xca;" horiz-adv-x="1188" 
d="M451 1638h-205l265 308h184l264 -308h-204l-152 182zM1086 0h-943v1475h943v-202h-727v-414h605v-202h-605v-455h727v-202z" />
    <glyph glyph-name="Edieresis" unicode="&#xcb;" horiz-adv-x="1188" 
d="M912 1660h-204v205h204v-205zM500 1660h-205v205h205v-205zM1086 0h-943v1475h943v-202h-728v-414h606v-202h-606v-455h728v-202z" />
    <glyph glyph-name="Igrave" unicode="&#xcc;" horiz-adv-x="542" 
d="M351 1638h-168l-145 359h168zM379 0h-216v1475h216v-1475z" />
    <glyph glyph-name="Iacute" unicode="&#xcd;" horiz-adv-x="542" 
d="M505 1997l-146 -359h-168l146 359h168zM380 0h-216v1475h216v-1475z" />
    <glyph glyph-name="Icircumflex" unicode="&#xce;" horiz-adv-x="541" 
d="M116 1638h-205l265 308h184l266 -308h-205l-153 182zM379 0h-216v1475h216v-1475z" />
    <glyph glyph-name="Idieresis" unicode="&#xcf;" horiz-adv-x="541" 
d="M580 1660h-205v205h205v-205zM167 1660h-205v205h205v-205zM379 0h-216v1475h216v-1475z" />
    <glyph glyph-name="Eth" unicode="&#xd0;" horiz-adv-x="1420" 
d="M20 652v172h122v651h453q350 0 537 -191t187 -547t-187 -546.5t-537 -190.5h-453v652h-122zM359 1271v-447h337v-172h-337v-448h212q262 0 391.5 132.5t129.5 400.5q0 269 -129.5 401.5t-391.5 132.5h-212z" />
    <glyph glyph-name="Ntilde" unicode="&#xd1;" horiz-adv-x="1446" 
d="M912 1642q-42 0 -83 18t-106 60q-52 33 -76.5 45t-47.5 12t-36 -17t-14.5 -28.5t-1.5 -21.5q0 -23 7 -44h-139q-12 51 -12 84q0 22 10 72q9 43 54 79q44 35 116 35q43 0 84.5 -18t105.5 -60q50 -32 75.5 -44t47.5 -12q32 0 43 25q10 21 10 44q0 22 -7 43h139
q11 -47 11 -83q0 -23 -10 -73q-9 -45 -53 -80q-45 -36 -117 -36zM359 0h-216v1475h216l730 -1097v1097h215v-1475h-215l-730 1097v-1097z" />
    <glyph glyph-name="Ograve" unicode="&#xd2;" horiz-adv-x="1516" 
d="M658 1638l-146 359h168l146 -359h-168zM759 -31q-217 0 -376 97t-240.5 270t-81.5 401t81.5 401t240.5 270t376 97t375.5 -97t239.5 -270t81 -401t-81 -401t-239.5 -270t-375.5 -97zM759 173q229 0 349 151.5t120 412.5t-120 413t-349 152t-349 -152t-121 -413
q-1 -260 120 -412t350 -152z" />
    <glyph glyph-name="Oacute" unicode="&#xd3;" horiz-adv-x="1516" 
d="M855 1638h-168l147 359h167zM759 -31q-217 0 -376 97t-240.5 270t-81.5 401t81.5 401t240.5 270t376 97t375.5 -97t239.5 -270t81 -401t-81 -401t-239.5 -270t-375.5 -97zM759 173q229 0 349 151.5t120 412.5t-120 413t-349 152t-349 -152t-121 -413q-1 -260 120 -412
t350 -152z" />
    <glyph glyph-name="Ocircumflex" unicode="&#xd4;" horiz-adv-x="1516" 
d="M398 1638l266 308h184l265 -308h-205l-152 182l-153 -182h-205zM759 -31q-217 0 -376 97t-240.5 270t-81.5 401t81.5 401t240.5 270t376 97t375.5 -97t239.5 -270t81 -401t-81 -401t-239.5 -270t-375.5 -97zM759 173q229 0 349 151.5t120 412.5t-120 413t-349 152
t-349 -152t-121 -413q-1 -260 120 -412t350 -152z" />
    <glyph glyph-name="Otilde" unicode="&#xd5;" horiz-adv-x="1516" 
d="M937 1642q-42 0 -83.5 18t-107.5 60q-49 32 -74 44.5t-48 12.5t-36 -16.5t-15 -28.5t-2 -23q0 -17 7 -43h-140q-10 43 -10 83q0 28 9 73q9 42 55 79q44 35 114 35q44 0 86.5 -18t105.5 -60q85 -56 123 -56q32 0 43 25q9 24 9 44q0 21 -6 43h139q10 -43 10 -83
q0 -28 -9 -73t-53 -80q-45 -36 -117 -36zM759 -31q-217 0 -376 97t-240.5 270t-81.5 401t81.5 401t240.5 270t376 97t375.5 -97t239.5 -270t81 -401t-81 -401t-239.5 -270t-375.5 -97zM759 173q229 0 349 151.5t120 412.5t-120 413t-349 152t-349 -152t-121 -413
q-1 -260 120 -412t350 -152z" />
    <glyph glyph-name="Odieresis" unicode="&#xd6;" horiz-adv-x="1516" 
d="M862 1660v205h205v-205h-205zM450 1660v205h204v-205h-204zM759 -31q-217 0 -376 97t-240.5 270t-81.5 401t81.5 401t240.5 270t376 97t375.5 -97t239.5 -270t81 -401t-81 -401t-239.5 -270t-375.5 -97zM759 173q229 0 349 151.5t120 412.5t-120 413t-349 152t-349 -152
t-121 -413q-1 -260 120 -412t350 -152z" />
    <glyph glyph-name="multiply" unicode="&#xd7;" horiz-adv-x="1025" 
d="M902 470l-122 -122l-268 268l-267 -268l-122 122l268 268l-267 267l122 121l266 -267l267 267l122 -121l-267 -267z" />
    <glyph glyph-name="Oslash" unicode="&#xd8;" horiz-adv-x="1516" 
d="M220 -27l-152 137l126 139q-133 199 -133 488q0 228 81.5 401t240.5 270t376 97q264 0 440 -142l123 136l153 -136l-140 -155q120 -193 120 -471q0 -228 -81 -401t-239.5 -270t-375.5 -97q-251 0 -425 130zM350 418l709 783q-118 101 -300 101q-229 0 -349 -152
t-121 -413q0 -188 61 -319zM759 173q229 0 349 151.5t120 412.5q0 176 -53 300l-701 -776q113 -88 285 -88z" />
    <glyph glyph-name="Ugrave" unicode="&#xd9;" horiz-adv-x="1462" 
d="M667 1638l-147 359h168l147 -359h-168zM731 -31q-270 0 -429 160.5t-159 454.5v891h216v-884q0 -208 93.5 -314t278.5 -106t278.5 106t93.5 314v884h216v-891q0 -294 -159 -454.5t-429 -160.5z" />
    <glyph glyph-name="Uacute" unicode="&#xda;" horiz-adv-x="1462" 
d="M806 1638h-168l146 359h168zM731 -31q-270 0 -429 160.5t-159 454.5v891h216v-884q0 -208 93.5 -314t278.5 -106t278.5 106t93.5 314v884h216v-891q0 -294 -159 -454.5t-429 -160.5z" />
    <glyph glyph-name="Ucircumflex" unicode="&#xdb;" horiz-adv-x="1462" 
d="M372 1638l264 308h184l265 -308h-204l-153 182l-151 -182h-205zM731 -31q-270 0 -429 160.5t-159 454.5v891h216v-884q0 -208 93.5 -314t278.5 -106t278.5 106t93.5 314v884h216v-891q0 -294 -159 -454.5t-429 -160.5z" />
    <glyph glyph-name="Udieresis" unicode="&#xdc;" horiz-adv-x="1462" 
d="M835 1660v205h204v-205h-204zM423 1660v205h205v-205h-205zM731 -31q-270 0 -429 160.5t-159 454.5v891h216v-884q0 -208 93.5 -314t278.5 -106t278.5 106t93.5 314v884h216v-891q0 -294 -159 -454.5t-429 -160.5z" />
    <glyph glyph-name="Yacute" unicode="&#xdd;" horiz-adv-x="1214" 
d="M827 1997l-146 -359h-168l146 359h168zM716 0h-216v609l-500 866h250l357 -620l358 620h249l-498 -866v-609z" />
    <glyph glyph-name="Thorn" unicode="&#xde;" horiz-adv-x="1285" 
d="M359 0h-216v1475h216v-266h355q248 0 379 -124.5t131 -347.5t-131 -347.5t-379 -124.5h-355v-265zM359 1008v-541h353q141 0 218 70.5t77 199.5t-77 200t-218 71h-353z" />
    <glyph glyph-name="germandbls" unicode="&#xdf;" horiz-adv-x="1274" 
d="M683 -30q-120 0 -188 30v210q75 -29 161 -29q129 0 204 65t75 186q0 122 -94 188t-255 68v190q106 9 165.5 64.5t59.5 151.5t-63.5 153t-162.5 57q-70 0 -122.5 -29.5t-77.5 -87.5q-25 -59 -25 -158v-1029h-218v1086q0 86 21 154q44 130 155 197.5t267 67.5
q125 0 226.5 -51t159.5 -144q58 -92 58 -213q0 -94 -36.5 -168.5t-105.5 -116.5q72 -22 132 -75t96 -131q37 -78 37 -177q0 -215 -122.5 -337t-346.5 -122z" />
    <glyph glyph-name="agrave" unicode="&#xe0;" horiz-adv-x="1166" 
d="M513 1270l-145 358h168l145 -358h-168zM585 1137q231 0 344.5 -118t113.5 -359v-660h-215v162q-114 -193 -371 -193q-171 0 -273 89t-102 239q0 162 112.5 250.5t329.5 115.5l304 37q-2 126 -62 185.5t-183 59.5q-108 0 -172.5 -41.5t-91.5 -129.5l-197 52
q42 151 161.5 231t301.5 80zM828 539l-277 -35q-134 -16 -196 -62t-62 -129q0 -162 213 -162q114 0 194.5 58.5t107.5 154.5q20 53 20 167v8z" />
    <glyph glyph-name="aacute" unicode="&#xe1;" horiz-adv-x="1166" 
d="M684 1270h-168l146 358h167zM585 1137q231 0 344.5 -118t113.5 -359v-660h-215v162q-114 -193 -371 -193q-171 0 -273 89t-102 239q0 162 112.5 250.5t329.5 115.5l304 37q-2 126 -62 185.5t-183 59.5q-108 0 -172.5 -41.5t-91.5 -129.5l-197 52q42 151 161.5 231
t301.5 80zM828 539l-277 -35q-134 -16 -196 -62t-62 -129q0 -162 213 -162q114 0 194.5 58.5t107.5 154.5q20 53 20 167v8z" />
    <glyph glyph-name="acircumflex" unicode="&#xe2;" horiz-adv-x="1166" 
d="M241 1270l264 307h184l265 -307h-204l-153 181l-152 -181h-204zM585 1137q231 0 344.5 -118t113.5 -359v-660h-215v162q-114 -193 -371 -193q-171 0 -273 89t-102 239q0 162 112.5 250.5t329.5 115.5l304 37q-2 126 -62 185.5t-183 59.5q-108 0 -172.5 -41.5
t-91.5 -129.5l-197 52q42 151 161.5 231t301.5 80zM828 539l-277 -35q-134 -16 -196 -62t-62 -129q0 -162 213 -162q114 0 194.5 58.5t107.5 154.5q20 53 20 167v8z" />
    <glyph glyph-name="atilde" unicode="&#xe3;" horiz-adv-x="1166" 
d="M779 1274q-42 0 -82.5 18t-107.5 60q-85 56 -123 56q-52 0 -52 -66q0 -22 6 -45h-139q-11 47 -11 83q0 23 10 73q9 44 53 79q45 36 116 36q43 0 83.5 -18t107.5 -61q84 -55 123 -55q33 0 43 24q9 22 9 43q0 23 -7 44h139q11 -47 11 -85q0 -26 -9 -70q-9 -45 -53 -80
q-45 -36 -117 -36zM585 1137q231 0 344.5 -118t113.5 -359v-660h-215v162q-114 -193 -371 -193q-171 0 -273 89t-102 239q0 162 112.5 250.5t329.5 115.5l304 37q-2 126 -62 185.5t-183 59.5q-108 0 -172.5 -41.5t-91.5 -129.5l-197 52q42 151 161.5 231t301.5 80zM828 539
l-277 -35q-134 -16 -196 -62t-62 -129q0 -162 213 -162q114 0 194.5 58.5t107.5 154.5q20 53 20 167v8z" />
    <glyph glyph-name="adieresis" unicode="&#xe4;" horiz-adv-x="1166" 
d="M708 1291v205h204v-205h-204zM295 1291v205h205v-205h-205zM585 1137q231 0 344.5 -118t113.5 -359v-660h-215v162q-114 -193 -371 -193q-171 0 -273 89t-102 239q0 162 112.5 250.5t329.5 115.5l304 37q-2 126 -62 185.5t-183 59.5q-108 0 -172.5 -41.5t-91.5 -129.5
l-197 52q42 151 161.5 231t301.5 80zM828 539l-277 -35q-134 -16 -196 -62t-62 -129q0 -162 213 -162q114 0 194.5 58.5t107.5 154.5q20 53 20 167v8z" />
    <glyph glyph-name="aring" unicode="&#xe5;" horiz-adv-x="1166" 
d="M597 1222q-67 0 -124.5 33.5t-91.5 92.5q-35 55 -35 125q0 101 75 175.5t176 74.5q67 0 125 -34t92 -92q34 -56 34 -124q0 -67 -33.5 -125.5t-91.5 -92.5q-56 -33 -126 -33zM597 1360q46 0 79.5 33.5t33.5 79.5t-33 79t-80 33q-46 0 -79.5 -33t-33.5 -79t33.5 -79.5
t79.5 -33.5zM585 1137q231 0 344.5 -118t113.5 -359v-660h-215v162q-114 -193 -371 -193q-171 0 -273 89t-102 239q0 162 112.5 250.5t329.5 115.5l304 37q-2 126 -62 185.5t-183 59.5q-108 0 -172.5 -41.5t-91.5 -129.5l-197 52q42 151 161.5 231t301.5 80zM828 539
l-277 -35q-134 -16 -196 -62t-62 -129q0 -162 213 -162q114 0 194.5 58.5t107.5 154.5q20 53 20 167v8z" />
    <glyph glyph-name="ae" unicode="&#xe6;" horiz-adv-x="1979" 
d="M585 1137q281 0 390 -176q72 85 176 130.5t230 45.5q257 0 393 -172.5t119 -471.5h-823q14 -154 96.5 -239t216.5 -85q203 0 285 176l211 -64q-65 -149 -194.5 -230.5t-301.5 -81.5q-153 0 -272 66t-189 186q-58 -124 -174.5 -188t-282.5 -64q-172 0 -277.5 89.5
t-105.5 238.5q0 162 112.5 250.5t329.5 115.5l304 37q-2 126 -62 185.5t-183 59.5q-108 0 -172.5 -41.5t-91.5 -129.5l-197 52q42 151 161.5 231t301.5 80zM1075 659h598q-10 136 -87 210.5t-205 74.5q-126 0 -205 -74.5t-101 -210.5zM828 531v8l-277 -35q-134 -16 -196 -62
t-62 -129q0 -162 213 -162q114 0 194.5 58.5t107.5 154.5q20 53 20 167z" />
    <glyph glyph-name="ccedilla" unicode="&#xe7;" horiz-adv-x="1164" 
d="M577 -494q-70 0 -139 36l49 131q47 -14 71 -14q31 0 50.5 18.5t19.5 44.5q0 46 -59 70q-38 16 -67 25q-2 0 -8 2l54 153q-217 24 -341.5 182t-124.5 399q0 262 145.5 423t392.5 161q181 0 309.5 -90.5t169.5 -246.5l-213 -62q-31 92 -103.5 144.5t-166.5 52.5
q-150 0 -228.5 -103t-78.5 -279q0 -177 80 -279.5t227 -102.5q197 0 266 184l217 -51q-49 -147 -156 -232t-259 -100l-25 -69q124 -60 124 -187q0 -89 -60.5 -149.5t-145.5 -60.5z" />
    <glyph glyph-name="egrave" unicode="&#xe8;" horiz-adv-x="1221" 
d="M546 1270l-147 358h168l147 -358h-168zM626 169q202 0 284 176l211 -64q-65 -149 -194 -230.5t-301 -81.5q-245 0 -394.5 161t-149.5 423q0 263 149.5 423.5t392.5 160.5q257 0 393 -172.5t119 -471.5h-824q14 -154 97 -239t217 -85zM317 659h598q-11 136 -87 210.5
t-204 74.5q-126 0 -205.5 -74.5t-101.5 -210.5z" />
    <glyph glyph-name="eacute" unicode="&#xe9;" horiz-adv-x="1221" 
d="M729 1270h-168l147 358h168zM626 169q202 0 284 176l211 -64q-65 -149 -194 -230.5t-301 -81.5q-245 0 -394.5 161t-149.5 423q0 263 149.5 423.5t392.5 160.5q257 0 393 -172.5t119 -471.5h-824q14 -154 97 -239t217 -85zM317 659h598q-11 136 -87 210.5t-204 74.5
q-126 0 -205.5 -74.5t-101.5 -210.5z" />
    <glyph glyph-name="ecircumflex" unicode="&#xea;" horiz-adv-x="1221" 
d="M263 1270l265 307h185l265 -307h-205l-152 181l-153 -181h-205zM626 169q202 0 284 176l211 -64q-65 -149 -194 -230.5t-301 -81.5q-245 0 -394.5 161t-149.5 423q0 263 149.5 423.5t392.5 160.5q257 0 393 -172.5t119 -471.5h-824q14 -154 97 -239t217 -85zM317 659h598
q-11 136 -87 210.5t-204 74.5q-126 0 -205.5 -74.5t-101.5 -210.5z" />
    <glyph glyph-name="edieresis" unicode="&#xeb;" horiz-adv-x="1221" 
d="M727 1291v205h205v-205h-205zM314 1291v205h205v-205h-205zM626 169q202 0 284 176l211 -64q-65 -149 -194 -230.5t-301 -81.5q-245 0 -394.5 161t-149.5 423q0 263 149.5 423.5t392.5 160.5q257 0 393 -172.5t119 -471.5h-824q14 -154 97 -239t217 -85zM317 659h598
q-11 136 -87 210.5t-204 74.5q-126 0 -205.5 -74.5t-101.5 -210.5z" />
    <glyph glyph-name="igrave" unicode="&#xec;" horiz-adv-x="541" 
d="M351 1270h-168l-145 358h168zM378 0h-214v1106h214v-1106z" />
    <glyph glyph-name="iacute" unicode="&#xed;" horiz-adv-x="541" 
d="M505 1628l-147 -358h-168l147 358h168zM378 0h-214v1106h214v-1106z" />
    <glyph glyph-name="icircumflex" unicode="&#xee;" horiz-adv-x="541" 
d="M130 1270h-205l264 307h185l265 -307h-205l-152 181zM378 0h-214v1106h214v-1106z" />
    <glyph glyph-name="idieresis" unicode="&#xef;" horiz-adv-x="541" 
d="M580 1291h-205v205h205v-205zM167 1291h-205v205h205v-205zM378 0h-214v1106h214v-1106z" />
    <glyph glyph-name="eth" unicode="&#xf0;" horiz-adv-x="1211" 
d="M607 -31h-4q-154 0 -272 68t-183 192q-64 122 -66 286q1 162 66 286.5t185 192.5q119 68 274 68q173 0 316 -113q-15 112 -84 205q-38 50 -87 90l-108 -127l-124 109l88 103q-83 34 -177 40l33 169q152 -6 269 -61l108 126l123 -108l-94 -110q54 -49 92 -104
q120 -166 152 -428q15 -137 15 -332q0 -168 -63 -292.5t-180 -191.5q-119 -68 -274 -68h-5zM607 162q145 0 225.5 94t80.5 261q0 165 -81 258.5t-225 93.5q-148 0 -228.5 -93t-80.5 -260q0 -169 80 -261.5t229 -92.5z" />
    <glyph glyph-name="ntilde" unicode="&#xf1;" horiz-adv-x="1255" 
d="M795 1274q-42 0 -83.5 18t-107.5 60q-85 56 -123 56q-18 0 -29.5 -8.5t-16 -22.5t-5.5 -22t-1 -15q0 -20 6 -43h-139q-10 43 -10 83q0 28 9 73q9 43 54 79t115 36q43 0 84.5 -18.5t106.5 -60.5q84 -55 123 -55q32 0 43 24q9 24 9 44t-6 43h140q10 -43 10 -83
q0 -27 -9 -72q-9 -44 -54 -80t-116 -36zM919 0v608q0 160 -73.5 243.5t-206.5 83.5t-208 -83.5t-75 -243.5v-608h-214v1106h214v-153q97 184 335 184q205 0 323.5 -122t118.5 -365v-650h-214z" />
    <glyph glyph-name="ograve" unicode="&#xf2;" horiz-adv-x="1248" 
d="M528 1270l-145 358h168l145 -358h-168zM624 -31q-246 0 -394 162t-148 423q0 260 148.5 421.5t393.5 161.5q246 0 394 -161.5t148 -421.5q0 -262 -148 -423.5t-394 -161.5zM624 171q152 0 233.5 102t81.5 281q0 180 -81.5 280.5t-233.5 100.5q-153 0 -234 -100.5
t-81 -280.5t82 -281.5t233 -101.5z" />
    <glyph glyph-name="oacute" unicode="&#xf3;" horiz-adv-x="1248" 
d="M709 1270h-168l146 358h168zM624 -31q-246 0 -394 162t-148 423q0 260 148.5 421.5t393.5 161.5q246 0 394 -161.5t148 -421.5q0 -262 -148 -423.5t-394 -161.5zM624 171q152 0 233.5 102t81.5 281q0 180 -81.5 280.5t-233.5 100.5q-153 0 -234 -100.5t-81 -280.5
t82 -281.5t233 -101.5z" />
    <glyph glyph-name="ocircumflex" unicode="&#xf4;" horiz-adv-x="1248" 
d="M265 1270l264 307h185l265 -307h-205l-152 181l-152 -181h-205zM624 -31q-246 0 -394 162t-148 423q0 260 148.5 421.5t393.5 161.5q246 0 394 -161.5t148 -421.5q0 -262 -148 -423.5t-394 -161.5zM624 171q152 0 233.5 102t81.5 281q0 180 -81.5 280.5t-233.5 100.5
q-153 0 -234 -100.5t-81 -280.5t82 -281.5t233 -101.5z" />
    <glyph glyph-name="otilde" unicode="&#xf5;" horiz-adv-x="1248" 
d="M790 1274q-42 0 -83.5 18t-106.5 60q-50 32 -75.5 44t-48.5 12t-36 -17t-14.5 -28.5t-1.5 -21.5q0 -23 7 -44h-139q-11 47 -11 84q0 27 9 72q9 43 54 79t116 36q42 0 84 -18.5t106 -60.5q49 -31 74.5 -43t48.5 -12q33 0 43 24q10 21 10 44q0 22 -7 43h139q11 -47 11 -83
q0 -22 -10 -72q-9 -45 -53 -80q-45 -36 -116 -36zM624 -31q-246 0 -394 162t-148 423q0 260 148.5 421.5t393.5 161.5q246 0 394 -161.5t148 -421.5q0 -262 -148 -423.5t-394 -161.5zM624 171q152 0 233.5 102t81.5 281q0 180 -81.5 280.5t-233.5 100.5q-153 0 -234 -100.5
t-81 -280.5t82 -281.5t233 -101.5z" />
    <glyph glyph-name="odieresis" unicode="&#xf6;" horiz-adv-x="1248" 
d="M728 1291v205h205v-205h-205zM316 1291v205h205v-205h-205zM624 -31q-246 0 -394 162t-148 423q0 260 148.5 421.5t393.5 161.5q246 0 394 -161.5t148 -421.5q0 -262 -148 -423.5t-394 -161.5zM624 171q152 0 233.5 102t81.5 281q0 180 -81.5 280.5t-233.5 100.5
q-153 0 -234 -100.5t-81 -280.5t82 -281.5t233 -101.5z" />
    <glyph glyph-name="divide" unicode="&#xf7;" horiz-adv-x="1105" 
d="M686 941h-226v226h226v-226zM983 652h-860v172h860v-172zM686 326h-226v226h226v-226z" />
    <glyph glyph-name="oslash" unicode="&#xf8;" horiz-adv-x="1248" 
d="M193 -20q-14 7 -42 35t-61.5 64.5t-40.5 43.5l109 108q-76 140 -76 323q0 260 148.5 421.5t393.5 161.5q194 0 334 -107l98 96l143 -144l-109 -108q76 -135 76 -320q0 -262 -148 -423.5t-394 -161.5q-195 0 -332 106q-68 -74 -99 -95zM334 379l490 488q-79 68 -200 68
q-153 0 -234 -100.5t-81 -280.5q0 -95 25 -175zM624 171q152 0 233.5 102t81.5 281q0 95 -25 173l-489 -489q78 -67 199 -67z" />
    <glyph glyph-name="ugrave" unicode="&#xf9;" horiz-adv-x="1256" 
d="M710 1270h-168l-147 358h168zM337 1106v-608q0 -161 73 -244t206 -83t208 83.5t75 243.5v608h214v-1106h-214v153q-97 -184 -335 -184q-205 0 -323 122t-118 365v650h214z" />
    <glyph glyph-name="uacute" unicode="&#xfa;" horiz-adv-x="1256" 
d="M839 1628l-146 -358h-168l146 358h168zM337 1106v-608q0 -161 73 -244t206 -83q124 0 198 73t84 213v649h215v-1106h-215v150q-99 -181 -334 -181q-205 0 -323 122t-118 365v650h214z" />
    <glyph glyph-name="ucircumflex" unicode="&#xfb;" horiz-adv-x="1256" 
d="M463 1270h-205l265 307h185l264 -307h-205l-152 181zM337 1106v-608q0 -161 73 -244t206 -83t208 83.5t75 243.5v608h214v-1106h-214v153q-97 -184 -335 -184q-205 0 -323 122t-118 365v650h214z" />
    <glyph glyph-name="udieresis" unicode="&#xfc;" horiz-adv-x="1256" 
d="M927 1291h-205v205h205v-205zM514 1291h-205v205h205v-205zM337 1106v-608q0 -161 73 -244t206 -83t208 83.5t75 243.5v608h214v-1106h-214v153q-97 -184 -335 -184q-205 0 -323 122t-118 365v650h214z" />
    <glyph glyph-name="yacute" unicode="&#xfd;" horiz-adv-x="1123" 
d="M801 1628l-147 -358h-168l147 358h168zM497 -492h-204l182 497l-447 1101h223l328 -831l311 831h217z" />
    <glyph glyph-name="thorn" unicode="&#xfe;" horiz-adv-x="1295" 
d="M356 -492h-214v1968h214v-531q110 192 356 192q223 0 362 -163t139 -420q0 -260 -139 -422.5t-362 -162.5q-246 0 -356 192v-653zM671 171q154 0 234.5 104t80.5 279q0 177 -80.5 279t-234.5 102q-156 0 -235.5 -103t-79.5 -278q0 -178 81.5 -280.5t233.5 -102.5z" />
    <glyph glyph-name="ydieresis" unicode="&#xff;" horiz-adv-x="1123" 
d="M883 1291h-205v205h205v-205zM470 1291h-205v205h205v-205zM497 -492h-204l182 497l-447 1101h223l328 -831l311 831h217z" />
    <glyph glyph-name="Amacron" unicode="&#x100;" horiz-adv-x="1348" 
d="M408 1720v171h535v-171h-535zM815 1475l498 -1475h-227l-111 333h-601l-111 -333h-227l498 1475h281zM440 534h468l-234 700z" />
    <glyph glyph-name="amacron" unicode="&#x101;" horiz-adv-x="1166" 
d="M357 1352v171h536v-171h-536zM585 1137q231 0 344.5 -118t113.5 -359v-660h-215v162q-114 -193 -371 -193q-171 0 -273 89t-102 239q0 162 112.5 250.5t329.5 115.5l304 37q-2 126 -62 185.5t-183 59.5q-108 0 -172.5 -41.5t-91.5 -129.5l-197 52q42 151 161.5 231
t301.5 80zM828 539l-277 -35q-134 -16 -196 -62t-62 -129q0 -162 213 -162q114 0 194.5 58.5t107.5 154.5q20 53 20 167v8z" />
    <glyph glyph-name="Abreve" unicode="&#x102;" horiz-adv-x="1348" 
d="M675 1602q-79 0 -147.5 39t-107.5 107q-40 67 -40 148h170q0 -51 37 -87.5t88 -36.5q53 0 89 36.5t36 87.5h170q0 -80 -39.5 -148t-107.5 -107q-65 -39 -148 -39zM815 1475l498 -1475h-227l-111 333h-601l-111 -333h-227l498 1475h281zM440 534h468l-234 700z" />
    <glyph glyph-name="abreve" unicode="&#x103;" horiz-adv-x="1166" 
d="M595 1233q-79 0 -147.5 39t-107.5 107q-40 67 -40 149h170q0 -51 37 -88t88 -37q53 0 89 36.5t36 88.5h170q0 -80 -39.5 -148t-107.5 -107q-67 -40 -148 -40zM585 1137q231 0 344.5 -118t113.5 -359v-660h-215v162q-114 -193 -371 -193q-171 0 -273 89t-102 239
q0 162 112.5 250.5t329.5 115.5l304 37q-2 126 -62 185.5t-183 59.5q-108 0 -172.5 -41.5t-91.5 -129.5l-197 52q42 151 161.5 231t301.5 80zM828 539l-277 -35q-134 -16 -196 -62t-62 -129q0 -162 213 -162q114 0 194.5 58.5t107.5 154.5q20 53 20 167v8z" />
    <glyph glyph-name="Aogonek" unicode="&#x104;" horiz-adv-x="1348" 
d="M1118 -492q-88 0 -150 65t-62 152q0 139 149 278q15 15 23 22l-103 308h-601l-111 -333h-227l498 1475h281l498 -1475h-5q-95 -53 -162.5 -129t-67.5 -132q0 -28 19.5 -48t46.5 -20q42 0 82 40l82 -103q-74 -100 -190 -100zM440 534h468l-234 700z" />
    <glyph glyph-name="aogonek" unicode="&#x105;" horiz-adv-x="1166" 
d="M854 -492q-88 0 -150 65t-62 152q0 139 149 278q4 4 11.5 11t13.5 12.5t12 10.5v125q-114 -193 -371 -193q-171 0 -273 89t-102 239q0 162 112.5 250.5t329.5 115.5l304 37q-2 126 -62 185.5t-183 59.5q-108 0 -172.5 -41.5t-91.5 -129.5l-197 52q42 151 161.5 231
t301.5 80q231 0 344.5 -118t113.5 -359v-660q-95 -53 -162 -129t-67 -132q0 -28 19.5 -48t46.5 -20q42 0 82 40l81 -103q-74 -100 -189 -100zM828 539l-277 -35q-134 -16 -196 -62t-62 -129q0 -162 213 -162q114 0 194.5 58.5t107.5 154.5q20 53 20 167v8z" />
    <glyph glyph-name="Cacute" unicode="&#x106;" horiz-adv-x="1496" 
d="M862 1638h-168l147 359h168zM759 -31q-217 0 -376 97t-240.5 270t-81.5 401t81.5 401t240.5 270t376 97q250 0 419 -126.5t236 -349.5l-217 -58q-44 158 -155.5 244.5t-282.5 86.5q-226 0 -348.5 -153t-122.5 -412q0 -260 121 -412t350 -152q171 0 282.5 86.5
t155.5 244.5l217 -59q-67 -223 -236 -349.5t-419 -126.5z" />
    <glyph glyph-name="cacute" unicode="&#x107;" horiz-adv-x="1164" 
d="M709 1270h-168l146 358h168zM616 -31q-164 0 -286 75t-185 206.5t-63 302.5q0 262 145.5 423t392.5 161q181 0 309.5 -90.5t169.5 -246.5l-213 -62q-31 92 -103.5 144.5t-166.5 52.5q-150 0 -228.5 -103t-78.5 -279q0 -177 80 -279.5t227 -102.5q197 0 266 184l217 -51
q-55 -162 -179.5 -248.5t-303.5 -86.5z" />
    <glyph glyph-name="Ccircumflex" unicode="&#x108;" horiz-adv-x="1496" 
d="M399 1638l265 308h184l265 -308h-205l-152 182l-152 -182h-205zM759 -31q-217 0 -376 97t-240.5 270t-81.5 401t81.5 401t240.5 270t376 97q250 0 419 -126.5t236 -349.5l-217 -58q-44 158 -155.5 244.5t-282.5 86.5q-226 0 -348.5 -153t-122.5 -412q0 -260 121 -412
t350 -152q171 0 282.5 86.5t155.5 244.5l217 -59q-67 -223 -236 -349.5t-419 -126.5z" />
    <glyph glyph-name="ccircumflex" unicode="&#x109;" horiz-adv-x="1164" 
d="M265 1270l264 307h185l265 -307h-205l-152 181l-152 -181h-205zM616 -31q-164 0 -286 75t-185 206.5t-63 302.5q0 262 145.5 423t392.5 161q181 0 309.5 -90.5t169.5 -246.5l-213 -62q-31 92 -103.5 144.5t-166.5 52.5q-150 0 -228.5 -103t-78.5 -279q0 -177 80 -279.5
t227 -102.5q197 0 266 184l217 -51q-55 -162 -179.5 -248.5t-303.5 -86.5z" />
    <glyph glyph-name="Cdotaccent" unicode="&#x10a;" horiz-adv-x="1496" 
d="M657 1699v226h227v-226h-227zM759 -31q-217 0 -376 97t-240.5 270t-81.5 401t81.5 401t240.5 270t376 97q250 0 419 -126.5t236 -349.5l-217 -58q-44 158 -155.5 244.5t-282.5 86.5q-226 0 -348.5 -153t-122.5 -412q0 -260 121 -412t350 -152q171 0 282.5 86.5
t155.5 244.5l217 -59q-67 -223 -236 -349.5t-419 -126.5z" />
    <glyph glyph-name="cdotaccent" unicode="&#x10b;" horiz-adv-x="1164" 
d="M497 1330v226h227v-226h-227zM616 -31q-164 0 -286 75t-185 206.5t-63 302.5q0 262 145.5 423t392.5 161q181 0 309.5 -90.5t169.5 -246.5l-213 -62q-31 92 -103.5 144.5t-166.5 52.5q-150 0 -228.5 -103t-78.5 -279q0 -177 80 -279.5t227 -102.5q197 0 266 184l217 -51
q-55 -162 -179.5 -248.5t-303.5 -86.5z" />
    <glyph glyph-name="Ccaron" unicode="&#x10c;" horiz-adv-x="1496" 
d="M415 1946h205l151 -182l153 182h204l-265 -308h-184zM759 -31q-217 0 -376 97t-240.5 270t-81.5 401t81.5 401t240.5 270t376 97q250 0 419 -126.5t236 -349.5l-217 -58q-44 158 -155.5 244.5t-282.5 86.5q-226 0 -348.5 -153t-122.5 -412q0 -260 121 -412t350 -152
q171 0 282.5 86.5t155.5 244.5l217 -59q-67 -223 -236 -349.5t-419 -126.5z" />
    <glyph glyph-name="ccaron" unicode="&#x10d;" horiz-adv-x="1164" 
d="M259 1577h205l152 -181l153 181h205l-265 -307h-185zM616 -31q-164 0 -286 75t-185 206.5t-63 302.5q0 262 145.5 423t392.5 161q181 0 309.5 -90.5t169.5 -246.5l-213 -62q-31 92 -103.5 144.5t-166.5 52.5q-150 0 -228.5 -103t-78.5 -279q0 -177 80 -279.5t227 -102.5
q197 0 266 184l217 -51q-55 -162 -179.5 -248.5t-303.5 -86.5z" />
    <glyph glyph-name="Dcaron" unicode="&#x10e;" horiz-adv-x="1416" 
d="M269 1946h205l153 -182l152 182h205l-265 -308h-184zM597 0h-454v1475h454q349 0 536 -191t187 -547t-187 -546.5t-536 -190.5zM361 1271v-1067h211q262 0 391.5 132.5t129.5 400.5q0 269 -129.5 401.5t-391.5 132.5h-211z" />
    <glyph glyph-name="dcaron" unicode="&#x10f;" horiz-adv-x="1562" 
d="M1283 989l13 95q4 -1 13 -1q45 0 69.5 30.5t24.5 84.5v7q0 11 -2 29h-118v247h226v-268q0 -79 -25.5 -134t-67.5 -75q-43 -20 -84 -20q-21 0 -49 5zM998 1475h215v-1475h-215v161q-110 -192 -354 -192q-223 0 -362.5 163t-139.5 420q0 260 139.5 422.5t362.5 162.5
q244 0 354 -192v530zM685 935q-154 0 -234.5 -104t-80.5 -279q0 -178 80.5 -279.5t234.5 -101.5q156 0 234.5 102.5t78.5 278.5q0 179 -80.5 281t-232.5 102z" />
    <glyph glyph-name="Dcroat" unicode="&#x110;" horiz-adv-x="1412" 
d="M20 652v172h122v651h453q350 0 537 -191t187 -547t-187 -546.5t-537 -190.5h-453v652h-122zM359 1271v-447h337v-172h-337v-448h212q262 0 391.5 132.5t129.5 400.5q0 269 -129.5 401.5t-391.5 132.5h-212z" />
    <glyph glyph-name="dcroat" unicode="&#x111;" 
d="M939 1201h-186v171h186v103h214v-103h135v-171h-135v-1201h-214v161q-110 -192 -355 -192q-223 0 -362.5 163t-139.5 420q0 260 139.5 422.5t362.5 162.5q245 0 355 -192v256zM625 935q-154 0 -235 -104t-81 -279q0 -177 81 -279t235 -102q156 0 235 102.5t79 278.5
q0 178 -81 280.5t-233 102.5z" />
    <glyph glyph-name="Emacron" unicode="&#x112;" horiz-adv-x="1188" 
d="M890 1720h-535v171h535v-171zM1086 0h-943v1475h943v-202h-727v-414h605v-202h-605v-455h727v-202z" />
    <glyph glyph-name="emacron" unicode="&#x113;" horiz-adv-x="1221" 
d="M376 1352v171h535v-171h-535zM626 169q202 0 284 176l211 -64q-65 -149 -194 -230.5t-301 -81.5q-245 0 -394.5 161t-149.5 423q0 263 149.5 423.5t392.5 160.5q257 0 393 -172.5t119 -471.5h-824q14 -154 97 -239t217 -85zM317 659h598q-11 136 -87 210.5t-204 74.5
q-126 0 -205.5 -74.5t-101.5 -210.5z" />
    <glyph glyph-name="Edotaccent" unicode="&#x116;" horiz-adv-x="1188" 
d="M731 1699h-226v226h226v-226zM1086 0h-943v1475h943v-202h-727v-414h605v-202h-605v-455h727v-202z" />
    <glyph glyph-name="edotaccent" unicode="&#x117;" horiz-adv-x="1221" 
d="M511 1330v226h227v-226h-227zM626 169q202 0 284 176l211 -64q-65 -149 -194 -230.5t-301 -81.5q-245 0 -394.5 161t-149.5 423q0 263 149.5 423.5t392.5 160.5q257 0 393 -172.5t119 -471.5h-824q14 -154 97 -239t217 -85zM317 659h598q-11 136 -87 210.5t-204 74.5
q-126 0 -205.5 -74.5t-101.5 -210.5z" />
    <glyph glyph-name="Eogonek" unicode="&#x118;" horiz-adv-x="1188" 
d="M898 -492q-89 0 -150.5 65t-61.5 152q0 71 40 142t104 133h-687v1475h943v-202h-727v-414h605v-202h-605v-455h727v-202q-95 -54 -161.5 -129.5t-66.5 -131.5q0 -29 19 -48.5t47 -19.5q39 0 82 40l80 -103q-34 -48 -84 -74t-104 -26z" />
    <glyph glyph-name="eogonek" unicode="&#x119;" horiz-adv-x="1221" 
d="M958 -472q-40 -18 -84 -18q-52 0 -96 21q-41 19 -70 56q-41 47 -45 88q-7 51 -7 61q0 43 18 95q21 59 83 152q-64 -14 -131 -14q-245 0 -394.5 161t-149.5 423q0 263 149.5 423.5t392.5 160.5q257 0 393 -172.5t119 -471.5h-824q14 -154 97 -239t217 -85q202 0 284 176
l211 -64q-23 -52 -52 -94q-6 -10 -49 -79q-1 -2 -32 -47.5t-48 -69.5l-34 -53q-59 -98 -77 -162q-5 -18 -5 -37q0 -27 17 -44q19 -21 44 -21q43 0 88 38l82 -104q-37 -55 -97 -80zM317 659h598q-11 136 -87 210.5t-204 74.5q-126 0 -205.5 -74.5t-101.5 -210.5z" />
    <glyph glyph-name="Ecaron" unicode="&#x11a;" horiz-adv-x="1188" 
d="M529 1638l-264 308h205l152 -182l152 182h205l-265 -308h-185zM1086 0h-943v1475h943v-202h-727v-414h605v-202h-605v-455h727v-202z" />
    <glyph glyph-name="ecaron" unicode="&#x11b;" horiz-adv-x="1221" 
d="M263 1577h205l153 -181l152 181h205l-265 -307h-185zM626 169q202 0 284 176l211 -64q-65 -149 -194 -230.5t-301 -81.5q-245 0 -394.5 161t-149.5 423q0 263 149.5 423.5t392.5 160.5q257 0 393 -172.5t119 -471.5h-824q14 -154 97 -239t217 -85zM317 659h598
q-11 136 -87 210.5t-204 74.5q-126 0 -205.5 -74.5t-101.5 -210.5z" />
    <glyph glyph-name="Gcircumflex" unicode="&#x11c;" horiz-adv-x="1491" 
d="M385 1638l264 308h185l265 -308h-205l-153 182l-151 -182h-205zM1195 0v213q-52 -114 -175 -179t-286 -65q-309 0 -491 204.5t-182 563.5q0 347 189 557t500 210q240 0 399.5 -114t228.5 -340l-218 -39q-40 138 -146.5 214.5t-257.5 76.5q-221 0 -344 -149.5t-123 -419.5
q0 -267 120.5 -413.5t344.5 -146.5q194 0 305.5 110t118.5 311h-509v202h741v-796h-215z" />
    <glyph glyph-name="gcircumflex" unicode="&#x11d;" 
d="M481 1270h-205l266 307h184l264 -307h-205l-151 181zM584 1137q244 0 355 -185v154h214v-1048q0 -259 -141.5 -419.5t-394.5 -160.5q-180 0 -310.5 87t-184.5 248l217 51q34 -90 105 -137.5t173 -47.5q154 0 238 103.5t84 278.5v133q-110 -184 -355 -184
q-221 0 -361.5 154t-140.5 408q0 256 140.5 410.5t361.5 154.5zM625 212q149 0 231.5 97t82.5 263q0 169 -84 266t-230 97q-147 0 -231.5 -98.5t-84.5 -264.5q0 -168 84.5 -264t231.5 -96z" />
    <glyph glyph-name="Gbreve" unicode="&#x11e;" horiz-adv-x="1491" 
d="M752 1602q-79 0 -147.5 39t-107.5 107q-40 67 -40 148h170q0 -51 37 -87.5t88 -36.5q53 0 89 36.5t36 87.5h170q0 -80 -39.5 -148t-107.5 -107q-65 -39 -148 -39zM1195 0v213q-52 -114 -175 -179t-286 -65q-309 0 -491 204.5t-182 563.5q0 347 189 557t500 210
q240 0 399.5 -114t228.5 -340l-218 -39q-40 138 -146.5 214.5t-257.5 76.5q-221 0 -344 -149.5t-123 -419.5q0 -267 120.5 -413.5t344.5 -146.5q194 0 305.5 110t118.5 311h-509v202h741v-796h-215z" />
    <glyph glyph-name="gbreve" unicode="&#x11f;" 
d="M636 1233q-79 0 -147.5 39t-107.5 107q-40 67 -40 149h170q0 -51 37 -88t88 -37q53 0 89 36.5t36 88.5h170q0 -80 -39.5 -148t-107.5 -107q-67 -40 -148 -40zM584 1137q244 0 355 -185v154h214v-1048q0 -259 -141.5 -419.5t-394.5 -160.5q-180 0 -310.5 87t-184.5 248
l217 51q34 -90 105 -137.5t173 -47.5q154 0 238 103.5t84 278.5v133q-110 -184 -355 -184q-221 0 -361.5 154t-140.5 408q0 256 140.5 410.5t361.5 154.5zM625 212q149 0 231.5 97t82.5 263q0 169 -84 266t-230 97q-147 0 -231.5 -98.5t-84.5 -264.5q0 -168 84.5 -264
t231.5 -96z" />
    <glyph glyph-name="Gdotaccent" unicode="&#x120;" horiz-adv-x="1491" 
d="M633 1699v226h226v-226h-226zM1195 0v213q-52 -114 -175 -179t-286 -65q-309 0 -491 204.5t-182 563.5q0 347 189 557t500 210q240 0 399.5 -114t228.5 -340l-218 -39q-40 138 -146.5 214.5t-257.5 76.5q-221 0 -344 -149.5t-123 -419.5q0 -267 120.5 -413.5
t344.5 -146.5q194 0 305.5 110t118.5 311h-509v202h741v-796h-215z" />
    <glyph glyph-name="gdotaccent" unicode="&#x121;" horiz-adv-x="1278" 
d="M779 1330h-227v226h227v-226zM584 1137q244 0 355 -185v154h214v-1048q0 -259 -141.5 -419.5t-394.5 -160.5q-180 0 -310.5 87t-184.5 248l217 51q34 -90 105 -137.5t173 -47.5q154 0 238 103.5t84 278.5v133q-110 -184 -355 -184q-221 0 -361.5 154t-140.5 408
q0 256 140.5 410.5t361.5 154.5zM625 212q149 0 231.5 97t82.5 263q0 169 -84 266t-230 97q-147 0 -231.5 -98.5t-84.5 -264.5q0 -168 84.5 -264t231.5 -96z" />
    <glyph glyph-name="uni0122" unicode="&#x122;" horiz-adv-x="1491" 
d="M1195 0v213q-52 -114 -175 -179t-286 -65q-309 0 -491 204.5t-182 563.5q0 347 189 557t500 210q240 0 399.5 -114t228.5 -340l-218 -39q-40 138 -146.5 214.5t-257.5 76.5q-221 0 -344 -149.5t-123 -419.5q0 -267 120.5 -413.5t344.5 -146.5q194 0 305.5 110t118.5 311
h-509v202h741v-796h-215zM670 -506q24 0 49 7.5t46.5 31t21.5 58.5v5h-117v216h216v-216q0 -90 -61.5 -145t-154.5 -55v98z" />
    <glyph glyph-name="uni0123" unicode="&#x123;" 
d="M749 1746v-98q-41 0 -79.5 -24t-38.5 -75v-4h118v-215h-215v215q0 90 61.5 145.5t153.5 55.5zM584 1137q244 0 355 -185v154h214v-1048q0 -259 -141.5 -419.5t-394.5 -160.5q-180 0 -310.5 87t-184.5 248l217 51q34 -90 105 -137.5t173 -47.5q154 0 238 103.5t84 278.5
v133q-110 -184 -355 -184q-221 0 -361.5 154t-140.5 408q0 256 140.5 410.5t361.5 154.5zM625 212q149 0 231.5 97t82.5 263q0 169 -84 266t-230 97q-147 0 -231.5 -98.5t-84.5 -264.5q0 -168 84.5 -264t231.5 -96z" />
    <glyph glyph-name="Hcircumflex" unicode="&#x124;" horiz-adv-x="1454" 
d="M571 1638h-204l265 308h184l264 -308h-204l-152 182zM359 0h-216v1475h216v-636h736v636h216v-1475h-216v637h-736v-637z" />
    <glyph glyph-name="hcircumflex" unicode="&#x125;" horiz-adv-x="1255" 
d="M493 1638h-205l265 308h184l264 -308h-204l-152 182zM919 0v608q0 160 -73.5 243.5t-206.5 83.5t-208 -83.5t-75 -243.5v-608h-214v1475h214v-522q97 184 335 184q205 0 323.5 -122t118.5 -365v-650h-214z" />
    <glyph glyph-name="Hbar" unicode="&#x126;" horiz-adv-x="1495" 
d="M380 0h-216v1015h-144v202h144v258h216v-258h735v258h216v-258h144v-202h-144v-1015h-216v637h-735v-637zM380 1015v-176h735v176h-735z" />
    <glyph glyph-name="hbar" unicode="&#x127;" horiz-adv-x="1255" 
d="M142 1201h-117v171h117v103h214v-103h204v-171h-204v-248q97 184 335 184q205 0 323.5 -122t118.5 -365v-650h-214v608q0 160 -73.5 243.5t-206.5 83.5t-208 -83.5t-75 -243.5v-608h-214v1201z" />
    <glyph glyph-name="Itilde" unicode="&#x128;" horiz-adv-x="541" 
d="M436 1642q-42 0 -82.5 18t-107.5 60q-87 57 -123 57q-52 0 -52 -66q0 -23 6 -45h-139q-11 47 -11 83q0 23 10 73q9 44 53 79t115 35q43 0 84.5 -18t107.5 -60q85 -56 123 -56q32 0 43 25q9 23 9 43q0 23 -7 44h139q11 -47 11 -85q0 -27 -9 -71q-9 -45 -53 -80
q-45 -36 -117 -36zM379 0h-216v1475h216v-1475z" />
    <glyph glyph-name="itilde" unicode="&#x129;" horiz-adv-x="541" 
d="M436 1274q-42 0 -82.5 18t-107.5 60q-85 56 -123 56q-52 0 -52 -66q0 -22 6 -45h-139q-11 47 -11 83q0 23 10 73q9 44 53 79q45 36 115 36q43 0 84 -18t108 -61q84 -55 123 -55q32 0 43 24q9 22 9 43q0 23 -7 44h139q11 -47 11 -85q0 -26 -9 -70q-9 -45 -53 -80
q-45 -36 -117 -36zM378 0h-214v1106h214v-1106z" />
    <glyph glyph-name="Imacron" unicode="&#x12a;" horiz-adv-x="541" 
d="M539 1720h-536v171h536v-171zM378 0h-214v1475h214v-1475z" />
    <glyph glyph-name="imacron" unicode="&#x12b;" horiz-adv-x="541" 
d="M539 1352h-536v171h536v-171zM378 0h-214v1106h214v-1106z" />
    <glyph glyph-name="Iogonek" unicode="&#x12e;" horiz-adv-x="542" 
d="M189 -492q-88 0 -149.5 65t-61.5 152q0 68 39 140.5t109 137.5q26 24 37 33v1439h216v-1475q-95 -53 -161.5 -129t-66.5 -132q0 -29 18.5 -48.5t46.5 -19.5q39 0 82 40l81 -103q-74 -100 -190 -100z" />
    <glyph glyph-name="iogonek" unicode="&#x12f;" horiz-adv-x="541" 
d="M378 1287h-214v208h214v-208zM189 -492q-89 0 -150.5 65t-61.5 152q0 69 39 141t110 137q26 24 38 34v1069h214v-1106q-95 -54 -161.5 -129.5t-66.5 -131.5q0 -29 18.5 -48.5t46.5 -19.5q39 0 82 40l81 -103q-34 -48 -84.5 -74t-104.5 -26z" />
    <glyph glyph-name="Idotaccent" unicode="&#x130;" horiz-adv-x="543" 
d="M386 1699h-228v226h228v-226zM380 0h-216v1475h216v-1475z" />
    <glyph glyph-name="dotlessi" unicode="&#x131;" horiz-adv-x="541" 
d="M378 0h-214v1106h214v-1106z" />
    <glyph glyph-name="Jcircumflex" unicode="&#x134;" horiz-adv-x="1000" 
d="M368 1638l264 308h184l265 -308h-204l-153 182l-152 -182h-204zM424 -30q-160 0 -270.5 85t-153.5 233l212 50q14 -69 73 -117.5t132 -48.5q53 0 103.5 26t74.5 78q11 23 16.5 56.5t6 57.5t0.5 82v1003h217v-1003q0 -195 -50 -301q-96 -201 -361 -201z" />
    <glyph glyph-name="jcircumflex" unicode="&#x135;" horiz-adv-x="564" 
d="M152 1270h-205l265 307h184l264 -307h-204l-152 181zM115 -490h-135v200h67q82 0 117.5 35.5t35.5 117.5v1243h215v-1297q0 -143 -76 -221t-224 -78z" />
    <glyph glyph-name="uni0136" unicode="&#x136;" horiz-adv-x="1290" 
d="M143 0v1475h216v-692l617 692h266l-651 -720l699 -755h-274l-657 707v-707h-216zM581 -506q24 0 48.5 7.5t46.5 31t22 58.5v5h-117v216h215v-216q0 -90 -61 -145t-154 -55v98z" />
    <glyph glyph-name="uni0137" unicode="&#x137;" horiz-adv-x="1069" 
d="M142 0v1475h214v-902l435 533h272l-459 -553l506 -553h-291l-463 532v-532h-214zM493 -506q25 0 49.5 7.5t46.5 31t22 59.5v4h-118v216h216v-216q0 -90 -61.5 -145t-154.5 -55v98z" />
    <glyph glyph-name="Lacute" unicode="&#x139;" horiz-adv-x="1078" 
d="M506 1997l-147 -359h-168l147 359h168zM1048 0h-884v1475h216v-1273h668v-202z" />
    <glyph glyph-name="lacute" unicode="&#x13a;" horiz-adv-x="541" 
d="M505 1997l-147 -359h-168l147 359h168zM378 0h-214v1505h214v-1505z" />
    <glyph glyph-name="uni013B" unicode="&#x13b;" horiz-adv-x="1078" 
d="M1048 0h-884v1475h216v-1273h668v-202zM499 -604v98q24 0 48.5 7.5t46.5 31t22 58.5v5h-117v216h215v-216q0 -90 -61 -145t-154 -55z" />
    <glyph glyph-name="uni013C" unicode="&#x13c;" horiz-adv-x="541" 
d="M378 0h-214v1505h214v-1505zM163 -604v98q25 0 49.5 7.5t47 31t22.5 59.5v4h-119v216h216v-216q0 -90 -61.5 -145t-154.5 -55z" />
    <glyph glyph-name="Lcaron" unicode="&#x13d;" horiz-adv-x="1076" 
d="M665 989l13 95q4 -1 12 -1q45 0 69.5 30.5t24.5 84.5v7q0 11 -2 29h-117v247h226v-268q0 -79 -25.5 -134t-67.5 -75q-43 -20 -84 -20q-21 0 -49 5zM1049 0h-884v1475h216v-1273h668v-202z" />
    <glyph glyph-name="lcaron" unicode="&#x13e;" horiz-adv-x="824" 
d="M378 0h-214v1505h214v-1505zM546 989l13 95q4 -1 12 -1q45 0 70 30.5t25 84.5v7q0 11 -2 29h-118v247h226v-268q0 -79 -25.5 -134t-67.5 -75q-43 -20 -84 -20q-21 0 -49 5z" />
    <glyph glyph-name="Lslash" unicode="&#x141;" horiz-adv-x="1103" 
d="M189 441l-117 -67v233l117 68v800h217v-676l336 193v-233l-336 -194v-363h667v-202h-884v441z" />
    <glyph glyph-name="lslash" unicode="&#x142;" horiz-adv-x="800" 
d="M294 574l-229 -131v234l229 131v697h214v-573l228 130v-234l-228 -131v-697h-214v574z" />
    <glyph glyph-name="Nacute" unicode="&#x143;" horiz-adv-x="1446" 
d="M970 1997l-146 -359h-168l146 359h168zM359 0h-216v1475h216l730 -1097v1097h215v-1475h-215l-730 1097v-1097z" />
    <glyph glyph-name="nacute" unicode="&#x144;" horiz-adv-x="1255" 
d="M874 1628l-146 -358h-168l147 358h167zM919 0v608q0 160 -73.5 243.5t-206.5 83.5t-208 -83.5t-75 -243.5v-608h-214v1106h214v-153q98 184 335 184q206 0 324 -122t118 -365v-650h-214z" />
    <glyph glyph-name="uni0145" unicode="&#x145;" horiz-adv-x="1446" 
d="M359 0h-216v1475h216l730 -1097v1097h215v-1475h-215l-730 1097v-1097zM637 -604v98q24 0 49 7.5t47 31t22 58.5v5h-118v216h216v-216q0 -90 -61.5 -145t-154.5 -55z" />
    <glyph glyph-name="uni0146" unicode="&#x146;" horiz-adv-x="1255" 
d="M919 0v608q0 160 -73.5 243.5t-206.5 83.5t-208 -83.5t-75 -243.5v-608h-214v1106h214v-153q97 184 335 184q205 0 323.5 -122t118.5 -365v-650h-214zM536 -604v98q24 0 48.5 7.5t46.5 31t22 58.5v5h-117v216h215v-216q0 -90 -61 -145t-154 -55z" />
    <glyph glyph-name="Ncaron" unicode="&#x147;" horiz-adv-x="1446" 
d="M652 1638l-264 308h205l151 -182l153 182h205l-265 -308h-185zM359 0h-216v1475h216l730 -1097v1097h215v-1475h-215l-730 1097v-1097z" />
    <glyph glyph-name="ncaron" unicode="&#x148;" horiz-adv-x="1255" 
d="M536 1270l-265 307h205l152 -181l152 181h205l-265 -307h-184zM919 0v608q0 160 -73.5 243.5t-206.5 83.5t-208 -83.5t-75 -243.5v-608h-214v1106h214v-153q97 184 335 184q205 0 323.5 -122t118.5 -365v-650h-214z" />
    <glyph glyph-name="Eng" unicode="&#x14a;" horiz-adv-x="1446" 
d="M1089 378v1097h215v-1660q0 -264 -256 -264q-69 0 -138 18v164l32 -3q28 -3 45 -3q71 0 103 30t32 98q0 47 -20 99q-18 46 -75 137l-668 1006v-1097h-216v1475h217z" />
    <glyph glyph-name="eng" unicode="&#x14b;" horiz-adv-x="1255" 
d="M919 -137v745q0 160 -73.5 243.5t-206.5 83.5t-208 -83.5t-75 -243.5v-608h-214v1106h214v-153q97 184 335 184q205 0 323.5 -122t118.5 -365v-841q0 -143 -75.5 -221t-223.5 -78h-137v200h68q82 0 118 35.5t36 117.5z" />
    <glyph glyph-name="Omacron" unicode="&#x14c;" horiz-adv-x="1516" 
d="M490 1720v171h536v-171h-536zM759 -31q-217 0 -376 97t-240.5 270t-81.5 401t81.5 401t240.5 270t376 97t375.5 -97t239.5 -270t81 -401t-81 -401t-239.5 -270t-375.5 -97zM759 173q229 0 349 151.5t120 412.5t-120 413t-349 152t-349 -152t-121 -413q-1 -260 120 -412
t350 -152z" />
    <glyph glyph-name="omacron" unicode="&#x14d;" horiz-adv-x="1248" 
d="M357 1352v171h535v-171h-535zM624 -31q-246 0 -394 162t-148 423q0 260 148.5 421.5t393.5 161.5q246 0 394 -161.5t148 -421.5q0 -262 -148 -423.5t-394 -161.5zM624 171q152 0 233.5 102t81.5 281q0 180 -81.5 280.5t-233.5 100.5q-153 0 -234 -100.5t-81 -280.5
t82 -281.5t233 -101.5z" />
    <glyph glyph-name="Ohungarumlaut" unicode="&#x150;" horiz-adv-x="1516" 
d="M1034 1638h-168l147 359h168zM626 1638h-168l146 359h168zM759 -31q-217 0 -376 97t-240.5 270t-81.5 401t81.5 401t240.5 270t376 97t375.5 -97t239.5 -270t81 -401t-81 -401t-239.5 -270t-375.5 -97zM759 173q229 0 349 151.5t120 412.5t-120 413t-349 152t-349 -152
t-121 -413q-1 -260 120 -412t350 -152z" />
    <glyph glyph-name="ohungarumlaut" unicode="&#x151;" horiz-adv-x="1248" 
d="M898 1270h-168l147 358h167zM489 1270h-167l145 358h168zM624 -31q-246 0 -394 162t-148 423q0 260 148.5 421.5t393.5 161.5q246 0 394 -161.5t148 -421.5q0 -262 -148 -423.5t-394 -161.5zM624 171q152 0 233.5 102t81.5 281q0 180 -81.5 280.5t-233.5 100.5
q-153 0 -234 -100.5t-81 -280.5t82 -281.5t233 -101.5z" />
    <glyph glyph-name="OE" unicode="&#x152;" horiz-adv-x="2284" 
d="M759 -31q-217 0 -376 97t-240.5 270t-81.5 401t81.5 401t240.5 270t376 97q296 0 479 -177v147h944v-202h-728v-414h605v-202h-605v-455h728v-202h-944v146q-183 -177 -479 -177zM759 173q229 0 349 151.5t120 412.5t-120 413t-349 152t-349 -152t-121 -413
q-1 -260 120 -412t350 -152z" />
    <glyph glyph-name="oe" unicode="&#x153;" horiz-adv-x="2078" 
d="M624 -31q-246 0 -394 162t-148 423q0 260 148.5 421.5t393.5 161.5q137 0 247 -52.5t181 -149.5q72 97 181.5 149.5t245.5 52.5q258 0 394 -173t119 -471h-825q14 -154 97 -239t218 -85q201 0 283 176l211 -64q-64 -149 -193.5 -230.5t-300.5 -81.5q-137 0 -247.5 53
t-182.5 150q-71 -97 -181 -150t-247 -53zM1172 659h598q-10 136 -86 210.5t-205 74.5q-126 0 -205.5 -74.5t-101.5 -210.5zM624 171q144 0 225 92.5t89 256.5v67q-8 165 -88.5 256.5t-225.5 91.5q-153 0 -234 -100.5t-81 -280.5t82 -281.5t233 -101.5z" />
    <glyph glyph-name="Racute" unicode="&#x154;" horiz-adv-x="1333" 
d="M714 1638h-168l145 359h168zM1001 0l-345 529h-297v-529h-216v1475h571q247 0 378.5 -125t131.5 -348q0 -179 -84.5 -295t-246.5 -157l358 -550h-250zM359 1273v-541h353q141 0 218 70t77 200q0 129 -77 200t-218 71h-353z" />
    <glyph glyph-name="racute" unicode="&#x155;" horiz-adv-x="789" 
d="M605 1628l-145 -358h-168l145 358h168zM738 1135v-207q-39 7 -99 7q-133 0 -208 -83.5t-75 -243.5v-608h-214v1106h214v-153q97 184 335 184q17 0 47 -2z" />
    <glyph glyph-name="uni0156" unicode="&#x156;" horiz-adv-x="1333" 
d="M1001 0l-345 529h-297v-529h-216v1475h571q247 0 378.5 -125t131.5 -348q0 -179 -84.5 -295t-246.5 -157l358 -550h-250zM359 1273v-541h353q141 0 218 70t77 200q0 129 -77 200t-218 71h-353zM552 -506q25 0 49.5 7.5t47 31t22.5 59.5v4h-119v216h216v-216
q0 -90 -61.5 -145t-154.5 -55v98z" />
    <glyph glyph-name="uni0157" unicode="&#x157;" horiz-adv-x="791" 
d="M740 1135v-207q-39 7 -100 7q-133 0 -208 -83.5t-75 -243.5v-608h-214v1106h214v-153q98 184 335 184q16 0 48 -2zM144 -604v98q24 0 49 7.5t47 31t22 58.5v5h-118v216h215v-216q0 -90 -61 -145t-154 -55z" />
    <glyph glyph-name="Rcaron" unicode="&#x158;" horiz-adv-x="1333" 
d="M257 1946h205l152 -182l153 182h205l-265 -308h-185zM1001 0l-345 529h-297v-529h-216v1475h571q247 0 378.5 -125t131.5 -348q0 -179 -84.5 -295t-246.5 -157l358 -550h-250zM359 1273v-541h353q141 0 218 70t77 200q0 129 -77 200t-218 71h-353z" />
    <glyph glyph-name="rcaron" unicode="&#x159;" horiz-adv-x="791" 
d="M347 1270l-264 307h205l151 -181l153 181h205l-266 -307h-184zM740 1135v-207q-39 7 -100 7q-133 0 -208 -83.5t-75 -243.5v-608h-214v1106h214v-153q98 184 335 184q16 0 48 -2z" />
    <glyph glyph-name="Sacute" unicode="&#x15a;" horiz-adv-x="1317" 
d="M755 1638h-168l145 359h168zM678 -31q-242 0 -405 123t-198 331l223 34q34 -139 135 -212.5t257 -73.5q145 0 237.5 67t92.5 172q0 135 -185 190l-378 112q-325 98 -325 372q0 187 146 303.5t376 116.5q229 0 381.5 -114t197.5 -318l-229 -39q-24 126 -117.5 197.5
t-234.5 71.5q-132 0 -213 -59t-81 -150q0 -70 54 -116t178 -81l270 -77q383 -108 383 -398q0 -203 -156 -327.5t-409 -124.5z" />
    <glyph glyph-name="sacute" unicode="&#x15b;" horiz-adv-x="1097" 
d="M634 1270h-168l146 358h168zM568 -30q-202 0 -327 87.5t-159 252.5l220 35q48 -186 270 -186q103 0 163.5 40t60.5 111q0 43 -22 70t-82 50q-70 24 -187 56q-97 25 -163.5 51t-119.5 63.5t-78.5 88.5t-25.5 119q0 148 119 238.5t313 90.5q188 0 312.5 -88t146.5 -237
l-219 -40q-11 82 -77.5 129.5t-169.5 47.5q-91 0 -151 -37.5t-60 -95.5q0 -22 11 -41t25 -30.5t44 -24.5t48.5 -19.5t57.5 -18.5q95 -27 208 -61q155 -46 222 -116.5t67 -185.5q0 -163 -119.5 -256t-327.5 -93z" />
    <glyph glyph-name="Scircumflex" unicode="&#x15c;" horiz-adv-x="1317" 
d="M318 1638l265 308h184l265 -308h-205l-152 182l-152 -182h-205zM678 -31q-242 0 -405 123t-198 331l223 34q34 -139 135 -212.5t257 -73.5q145 0 237.5 67t92.5 172q0 135 -185 190l-378 112q-325 98 -325 372q0 187 146 303.5t376 116.5q229 0 381.5 -114t197.5 -318
l-229 -39q-24 126 -117.5 197.5t-234.5 71.5q-132 0 -213 -59t-81 -150q0 -70 54 -116t178 -81l270 -77q383 -108 383 -398q0 -203 -156 -327.5t-409 -124.5z" />
    <glyph glyph-name="scircumflex" unicode="&#x15d;" horiz-adv-x="1097" 
d="M210 1270l264 307h184l266 -307h-205l-153 181l-151 -181h-205zM568 -30q-202 0 -327 87.5t-159 252.5l220 35q48 -186 270 -186q103 0 163.5 40t60.5 111q0 43 -22 70t-82 50q-70 24 -187 56q-97 25 -163.5 51t-119.5 63.5t-78.5 88.5t-25.5 119q0 148 119 238.5
t313 90.5q188 0 312.5 -88t146.5 -237l-219 -40q-11 82 -77.5 129.5t-169.5 47.5q-91 0 -151 -37.5t-60 -95.5q0 -22 11 -41t25 -30.5t44 -24.5t48.5 -19.5t57.5 -18.5q95 -27 208 -61q155 -46 222 -116.5t67 -185.5q0 -163 -119.5 -256t-327.5 -93z" />
    <glyph glyph-name="Scedilla" unicode="&#x15e;" horiz-adv-x="1317" 
d="M640 -494q-69 0 -138 36l49 131q47 -14 71 -14q31 0 50 18.5t19 44.5q0 46 -58 70q-35 14 -68 25q-2 0 -8 2l54 153q-216 17 -359.5 137.5t-176.5 313.5l223 34q34 -139 135 -212.5t257 -73.5q145 0 237.5 67t92.5 172q0 135 -185 190l-378 112q-325 98 -325 372
q0 187 146 303.5t376 116.5q229 0 381.5 -114t197.5 -318l-229 -39q-24 126 -117.5 197.5t-234.5 71.5q-132 0 -213 -59t-81 -150q0 -70 54 -116t178 -81l270 -77q383 -108 383 -398q0 -188 -135 -310t-360 -139l-25 -69q124 -60 124 -187q0 -89 -61 -149.5t-146 -60.5z" />
    <glyph glyph-name="scedilla" unicode="&#x15f;" horiz-adv-x="1097" 
d="M525 -494q-68 0 -137 36l49 131q45 -14 70 -14q31 0 51 18.5t20 44.5q0 45 -59 70q-38 16 -68 25q-2 0 -8 2l55 154q-172 14 -278.5 100.5t-137.5 236.5l220 35q48 -186 270 -186q103 0 163.5 40t60.5 111q0 43 -22 70t-82 50q-70 24 -187 56q-97 25 -163.5 51
t-119.5 63.5t-78.5 88.5t-25.5 119q0 148 119 238.5t313 90.5q188 0 312.5 -88t146.5 -237l-219 -40q-11 82 -77.5 129.5t-169.5 47.5q-91 0 -151 -37.5t-60 -95.5q0 -22 11 -41t25 -30.5t44 -24.5t48.5 -19.5t57.5 -18.5q95 -27 208 -61q155 -46 222 -116.5t67 -185.5
q0 -150 -100.5 -241.5t-280.5 -105.5l-25 -69q124 -60 124 -187q0 -89 -61 -149.5t-147 -60.5z" />
    <glyph glyph-name="Scaron" unicode="&#x160;" horiz-adv-x="1317" 
d="M327 1946h204l153 -182l153 182h204l-265 -308h-184zM678 -31q-242 0 -405 123t-198 331l223 34q34 -139 135 -212.5t257 -73.5q145 0 237.5 67t92.5 172q0 135 -185 190l-378 112q-325 98 -325 372q0 187 146 303.5t376 116.5q229 0 381.5 -114t197.5 -318l-229 -39
q-24 126 -117.5 197.5t-234.5 71.5q-132 0 -213 -59t-81 -150q0 -70 54 -116t178 -81l270 -77q383 -108 383 -398q0 -203 -156 -327.5t-409 -124.5z" />
    <glyph glyph-name="scaron" unicode="&#x161;" horiz-adv-x="1097" 
d="M208 1577h205l152 -181l153 181h205l-266 -307h-184zM568 -30q-202 0 -327 87.5t-159 252.5l220 35q48 -186 270 -186q103 0 163.5 40t60.5 111q0 43 -22 70t-82 50q-70 24 -187 56q-97 25 -163.5 51t-119.5 63.5t-78.5 88.5t-25.5 119q0 148 119 238.5t313 90.5
q188 0 312.5 -88t146.5 -237l-219 -40q-11 82 -77.5 129.5t-169.5 47.5q-91 0 -151 -37.5t-60 -95.5q0 -22 11 -41t25 -30.5t44 -24.5t48.5 -19.5t57.5 -18.5q95 -27 208 -61q155 -46 222 -116.5t67 -185.5q0 -163 -119.5 -256t-327.5 -93z" />
    <glyph glyph-name="uni0162" unicode="&#x162;" horiz-adv-x="1235" 
d="M546 0h-56v1273h-444v202h1102v-202h-441v-1273h-25l-36 -102q124 -60 124 -187q0 -89 -61 -149.5t-146 -60.5q-69 0 -138 36l49 131q47 -14 71 -14q31 0 50 18.5t19 44.5q0 46 -58 70q-35 14 -68 25q-2 0 -8 2z" />
    <glyph glyph-name="uni0163" unicode="&#x163;" horiz-adv-x="865" 
d="M461 -494q-69 0 -138 36l49 131q47 -14 70 -14q31 0 51 18.5t20 44.5q0 46 -59 70q-35 14 -68 25q-2 0 -8 2l68 193q-103 26 -158.5 100t-55.5 187v606h-212v201h212v307h215v-307h329v-201h-329v-558q0 -82 35.5 -118t117.5 -36h176v-193h-197l-35 -97q125 -60 125 -187
q0 -89 -61.5 -149.5t-146.5 -60.5z" />
    <glyph glyph-name="Tcaron" unicode="&#x164;" horiz-adv-x="1235" 
d="M523 1638l-265 308h205l152 -182l152 182h205l-264 -308h-185zM726 0h-216v1273h-490v202h1195v-202h-489v-1273z" />
    <glyph glyph-name="tcaron" unicode="&#x165;" horiz-adv-x="865" 
d="M675 1243l13 95q4 -1 12 -1q45 0 70 30.5t25 84.5v7q0 11 -2 29h-118v247h226v-268q0 -79 -25.5 -134.5t-67.5 -75.5q-41 -19 -84 -19q-21 0 -49 5zM20 905v201h212v369h215v-369h329v-201h-329v-558q0 -82 35.5 -118t117.5 -36h176v-193h-223q-151 0 -236 79.5
t-85 219.5v606h-212z" />
    <glyph glyph-name="Tbar" unicode="&#x166;" horiz-adv-x="1235" 
d="M510 630h-364v215h364v428h-490v202h1195v-202h-489v-428h363v-215h-363v-630h-216v630z" />
    <glyph glyph-name="tbar" unicode="&#x167;" horiz-adv-x="906" 
d="M232 453h-212v200h212v252h-212v201h212v307h215v-307h329v-201h-329v-252h357v-200h-357v-106q0 -82 35.5 -118t117.5 -36h176v-193h-223q-151 0 -236 79.5t-85 219.5v154z" />
    <glyph glyph-name="Utilde" unicode="&#x168;" horiz-adv-x="1462" 
d="M910 1642q-42 0 -83 18t-107 60q-49 32 -74.5 44.5t-48.5 12.5q-18 0 -29.5 -8.5t-16 -22.5t-5.5 -22t-1 -15q0 -21 6 -43h-139q-11 47 -11 83q0 23 10 73q9 43 54 79q44 35 115 35q43 0 85 -18t106 -60q85 -56 123 -56q32 0 43 25q9 24 9 44q0 21 -6 43h139
q11 -47 11 -83q0 -23 -10 -73q-9 -45 -53 -80q-45 -36 -117 -36zM731 -31q-270 0 -429 160.5t-159 454.5v891h216v-884q0 -208 93.5 -314t278.5 -106t278.5 106t93.5 314v884h216v-891q0 -294 -159 -454.5t-429 -160.5z" />
    <glyph glyph-name="utilde" unicode="&#x169;" horiz-adv-x="1256" 
d="M806 1274q-42 0 -83.5 18t-107.5 60q-48 31 -73.5 43.5t-48.5 12.5t-36 -16.5t-15 -28.5t-2 -23q0 -20 6 -43h-139q-10 43 -10 83q0 28 9 73q9 43 54 79t115 36q43 0 85.5 -18.5t106.5 -60.5q84 -55 123 -55q32 0 43 24q9 24 9 44t-6 43h139q10 -43 10 -83q0 -27 -9 -72
t-53 -80q-45 -36 -117 -36zM338 1106v-608q0 -161 72.5 -244t205.5 -83t208 83.5t75 243.5v608h215v-1106h-215v153q-97 -184 -334 -184q-206 0 -324 122t-118 365v650h215z" />
    <glyph glyph-name="Umacron" unicode="&#x16a;" horiz-adv-x="1462" 
d="M464 1720v171h534v-171h-534zM731 -31q-270 0 -429 160.5t-159 454.5v891h216v-884q0 -208 93.5 -314t278.5 -106t278.5 106t93.5 314v884h216v-891q0 -294 -159 -454.5t-429 -160.5z" />
    <glyph glyph-name="umacron" unicode="&#x16b;" horiz-adv-x="1256" 
d="M886 1352h-536v171h536v-171zM337 1106v-608q0 -161 73 -244t206 -83t208 83.5t75 243.5v608h214v-1106h-214v153q-97 -184 -335 -184q-205 0 -323 122t-118 365v650h214z" />
    <glyph glyph-name="Ubreve" unicode="&#x16c;" horiz-adv-x="1462" 
d="M731 1602q-80 0 -148 39t-107 107q-40 67 -40 148h170q0 -51 37 -87.5t88 -36.5q52 0 88.5 36.5t36.5 87.5h170q0 -80 -39 -148t-107 -107q-65 -39 -149 -39zM731 -31q-270 0 -429 160.5t-159 454.5v891h216v-884q0 -208 93.5 -314t278.5 -106t278.5 106t93.5 314v884
h216v-891q0 -294 -159 -454.5t-429 -160.5z" />
    <glyph glyph-name="ubreve" unicode="&#x16d;" horiz-adv-x="1256" 
d="M618 1233q-80 0 -147.5 39t-106.5 107q-40 67 -40 149h170q0 -51 36.5 -88t87.5 -37t88 37t37 88h170q0 -80 -39 -148t-107 -107q-68 -40 -149 -40zM337 1106v-608q0 -161 73 -244t206 -83t208 83.5t75 243.5v608h214v-1106h-214v153q-97 -184 -335 -184q-205 0 -323 122
t-118 365v650h214z" />
    <glyph glyph-name="Uring" unicode="&#x16e;" horiz-adv-x="1462" 
d="M736 1590q-67 0 -124.5 33.5t-91.5 92.5q-34 56 -34 125q0 102 74 176.5t176 74.5q103 0 177 -74.5t74 -176.5q0 -67 -33.5 -125t-91.5 -92q-56 -34 -126 -34zM736 1729q46 0 79.5 33t33.5 79q0 47 -33.5 80t-79.5 33t-79 -33.5t-33 -79.5t33 -79t79 -33zM731 -31
q-270 0 -429 160.5t-159 454.5v891h216v-884q0 -208 93.5 -314t278.5 -106t278.5 106t93.5 314v884h216v-891q0 -294 -159 -454.5t-429 -160.5z" />
    <glyph glyph-name="uring" unicode="&#x16f;" horiz-adv-x="1256" 
d="M618 1222q-67 0 -124.5 33.5t-91.5 92.5q-34 54 -34 125q0 101 74.5 175.5t175.5 74.5q67 0 125.5 -34t92.5 -92q33 -55 33 -124q0 -67 -33.5 -125.5t-91.5 -92.5q-56 -33 -126 -33zM618 1360q46 0 79.5 33.5t33.5 79.5t-33 79t-80 33q-46 0 -79 -33t-33 -79t33 -79.5
t79 -33.5zM337 1106v-608q0 -161 73 -244t206 -83t208 83.5t75 243.5v608h214v-1106h-214v153q-97 -184 -335 -184q-205 0 -323 122t-118 365v650h214z" />
    <glyph glyph-name="Uhungarumlaut" unicode="&#x170;" horiz-adv-x="1462" 
d="M998 1638h-168l147 359h168zM590 1638h-168l146 359h168zM731 -31q-270 0 -429 160.5t-159 454.5v891h216v-884q0 -208 93.5 -314t278.5 -106t278.5 106t93.5 314v884h216v-891q0 -294 -159 -454.5t-429 -160.5z" />
    <glyph glyph-name="uhungarumlaut" unicode="&#x171;" horiz-adv-x="1256" 
d="M1040 1628l-145 -358h-168l145 358h168zM632 1628l-147 -358h-168l147 358h168zM337 1106v-608q0 -161 73 -244t206 -83t208 83.5t75 243.5v608h214v-1106h-214v153q-97 -184 -335 -184q-205 0 -323 122t-118 365v650h214z" />
    <glyph glyph-name="Uogonek" unicode="&#x172;" horiz-adv-x="1462" 
d="M741 -31q-284 -4 -441 162t-157 453v891h216v-884q0 -208 93.5 -314t278.5 -106t278.5 106t93.5 314v884h216v-891q0 -195 -73 -333.5t-205 -210.5q-35 -21 -77 -60q-53 -46 -84 -94.5t-31 -85.5q0 -30 18.5 -49t46.5 -19q38 0 82 41l81 -105q-34 -46 -84 -72t-104 -26
q-89 0 -150.5 64t-61.5 151q0 71 40 142q13 26 24 42z" />
    <glyph glyph-name="uogonek" unicode="&#x173;" horiz-adv-x="1256" 
d="M925 -492q-89 0 -150.5 65t-61.5 152q0 69 39 141.5t109 136.5q26 24 38 34v116q-97 -184 -335 -184q-205 0 -323 122t-118 365v650h214v-608q0 -161 73 -244t206 -83t208 83.5t75 243.5v608h214v-1106q-95 -54 -161.5 -129.5t-66.5 -131.5q0 -29 18.5 -48.5t46.5 -19.5
q39 0 82 40l81 -103q-34 -48 -84 -74t-104 -26z" />
    <glyph glyph-name="Wcircumflex" unicode="&#x174;" horiz-adv-x="1971" 
d="M831 1638h-204l265 308h184l264 -308h-204l-152 182zM676 0h-226l-422 1475h225l309 -1130l310 1130h226l310 -1130l309 1130h227l-422 -1475h-227l-310 1116z" />
    <glyph glyph-name="wcircumflex" unicode="&#x175;" horiz-adv-x="1625" 
d="M654 1270h-204l265 307h184l265 -307h-205l-152 181zM1027 0l-215 765l-215 -765h-217l-339 1106h216l231 -804l232 804h184l232 -804l232 804h216l-340 -1106h-217z" />
    <glyph glyph-name="Ycircumflex" unicode="&#x176;" horiz-adv-x="1214" 
d="M453 1638h-205l265 308h184l265 -308h-205l-152 182zM716 0h-216v609l-500 866h250l357 -620l358 620h249l-498 -866v-609z" />
    <glyph glyph-name="ycircumflex" unicode="&#x177;" horiz-adv-x="1123" 
d="M423 1270h-205l265 307h185l265 -307h-205l-153 181zM497 -492h-204l182 497l-447 1101h223l328 -831l311 831h217z" />
    <glyph glyph-name="Ydieresis" unicode="&#x178;" horiz-adv-x="1214" 
d="M916 1660h-204v205h204v-205zM504 1660h-205v205h205v-205zM716 0h-216v609l-500 866h250l357 -620l358 620h249l-498 -866v-609z" />
    <glyph glyph-name="Zacute" unicode="&#x179;" horiz-adv-x="1342" 
d="M906 1997l-146 -359h-168l146 359h168zM1240 0h-1138v202l865 1071h-865v202h1138v-202l-864 -1071h864v-202z" />
    <glyph glyph-name="zacute" unicode="&#x17a;" horiz-adv-x="1070" 
d="M744 1628l-146 -358h-181l146 358h181zM988 0h-947v201l673 704h-673v201h947v-201l-674 -704h674v-201z" />
    <glyph glyph-name="Zdotaccent" unicode="&#x17b;" horiz-adv-x="1342" 
d="M786 1699h-227v226h227v-226zM1240 0h-1138v202l865 1071h-865v202h1138v-202l-864 -1071h864v-202z" />
    <glyph glyph-name="zdotaccent" unicode="&#x17c;" horiz-adv-x="1070" 
d="M628 1330h-227v226h227v-226zM988 0h-947v201l673 704h-673v201h947v-201l-674 -704h674v-201z" />
    <glyph glyph-name="Zcaron" unicode="&#x17d;" horiz-adv-x="1342" 
d="M581 1638l-266 308h205l153 -182l152 182h205l-265 -308h-184zM1240 0h-1138v202l865 1071h-865v202h1138v-202l-864 -1071h864v-202z" />
    <glyph glyph-name="zcaron" unicode="&#x17e;" horiz-adv-x="1070" 
d="M422 1270l-264 307h204l152 -181l153 181h204l-265 -307h-184zM988 0h-947v201l673 704h-673v201h947v-201l-674 -704h674v-201z" />
    <glyph glyph-name="uni018F" unicode="&#x18f;" horiz-adv-x="1480" 
d="M728 -31q-304 0 -485.5 200.5t-181.5 536.5q0 43 8 116h1120q-20 231 -139 355.5t-329 124.5q-148 0 -259 -77.5t-150 -213.5l-217 39q68 219 233 336.5t399 117.5q211 0 368 -95t240.5 -268t83.5 -404q0 -230 -85 -404.5t-242 -269t-364 -94.5zM1186 620h-893
q7 -206 121.5 -326.5t304.5 -120.5q198 0 319.5 116.5t147.5 330.5z" />
    <glyph glyph-name="florin" unicode="&#x192;" horiz-adv-x="1458" 
d="M345 -31q-131 0 -270 63l90 181q6 -3 16 -7q78 -33 149 -33q177 0 220 260l35 219h-318v172h345l40 247q22 127 73 218t143 153q93 63 237 63q77 0 152.5 -19t125.5 -45l-99 -177q-11 9 -63 23.5t-98 14.5q-84 0 -153 -45q-71 -46 -87 -147l-47 -286h400v-172h-429
l-41 -250q-35 -214 -145.5 -323.5t-275.5 -109.5z" />
    <glyph glyph-name="Ohorn" unicode="&#x1a0;" horiz-adv-x="1516" 
d="M1323 1659q5 -47 5 -76q0 -56 -18 -113q-17 -55 -82 -92q-10 -5 -32 -13q126 -100 192.5 -262t66.5 -366q0 -228 -81 -401t-239.5 -270t-375.5 -97t-376 97t-240.5 270t-81.5 401t81.5 401t240.5 270t376 97q111 0 202 -24q42 -10 68 -12h5q26 0 55 12q24 11 39 27.5
t20.5 38t7 36t1.5 36.5q0 19 -1 30v9zM759 173q229 0 349 151.5t120 412.5t-120 413t-349 152t-349 -152t-121 -413q-1 -260 120 -412t350 -152z" />
    <glyph glyph-name="ohorn" unicode="&#x1a1;" horiz-adv-x="1248" 
d="M1160 1290q5 -47 5 -76q0 -55 -18 -112q-17 -55 -82 -92q-28 -15 -59 -22q160 -162 160 -434q0 -262 -148 -423.5t-394 -161.5t-394 162t-148 423q0 260 148.5 421.5t393.5 161.5q83 0 167 -23q54 -12 75 -13h5q28 0 55 11q24 11 39 27t20.5 39.5t7 39t1.5 44.5v18l-1 9z
M624 171q152 0 233.5 102t81.5 281q0 180 -81.5 280.5t-233.5 100.5q-153 0 -234 -100.5t-81 -280.5t82 -281.5t233 -101.5z" />
    <glyph glyph-name="Uhorn" unicode="&#x1af;" horiz-adv-x="1462" 
d="M1551 1659q5 -43 5 -73q0 -56 -18 -111q-19 -55 -81 -94q-50 -29 -117 -34q-14 0 -21 -1v-762q0 -294 -159 -454.5t-429 -160.5t-429 160.5t-159 454.5v891h216v-884q0 -208 93.5 -314t278.5 -106t278.5 106t93.5 314v884h111q42 0 67 5q34 6 56.5 22t32 40t12.5 44.5
t3 48.5q0 16 -1 23z" />
    <glyph glyph-name="uhorn" unicode="&#x1b0;" horiz-adv-x="1258" 
d="M1140 1289l167 1q5 -43 5 -72q0 -53 -19 -112q-19 -54 -81 -93q-48 -27 -99 -33v-980h-214v153q-97 -184 -335 -184q-205 0 -323 122t-118 365v650h214v-608q0 -161 73 -244t206 -83t208 83.5t75 243.5v608h70q42 0 66 5q34 6 57 22t33 40.5t13 45.5t3 48q0 15 -1 22z
" />
    <glyph glyph-name="uni0218" unicode="&#x218;" horiz-adv-x="1317" 
d="M678 -31q-242 0 -405 123t-198 331l223 34q34 -139 135 -212.5t257 -73.5q145 0 237.5 67t92.5 172q0 135 -185 190l-378 112q-325 98 -325 372q0 187 146 303.5t376 116.5q229 0 381.5 -114t197.5 -318l-229 -39q-24 126 -117.5 197.5t-234.5 71.5q-132 0 -213 -59
t-81 -150q0 -70 54 -116t178 -81l270 -77q383 -108 383 -398q0 -203 -156 -327.5t-409 -124.5zM599 -506q24 0 49 7.5t47 31t22 58.5v5h-118v216h215v-216q0 -90 -61 -145t-154 -55v98z" />
    <glyph glyph-name="uni0219" unicode="&#x219;" horiz-adv-x="1097" 
d="M568 -30q-202 0 -327 87.5t-159 252.5l220 35q48 -186 270 -186q103 0 163.5 40t60.5 111q0 43 -22 70t-82 50q-70 24 -187 56q-97 25 -163.5 51t-119.5 63.5t-78.5 88.5t-25.5 119q0 148 119 238.5t313 90.5q188 0 312.5 -88t146.5 -237l-219 -40q-11 82 -77.5 129.5
t-169.5 47.5q-91 0 -151 -37.5t-60 -95.5q0 -22 11 -41t25 -30.5t44 -24.5t48.5 -19.5t57.5 -18.5q95 -27 208 -61q155 -46 222 -116.5t67 -185.5q0 -163 -119.5 -256t-327.5 -93zM454 -506q24 0 48.5 7.5t46.5 31t22 58.5v5h-117v216h215v-216q0 -90 -61 -145t-154 -55v98z
" />
    <glyph glyph-name="uni021A" unicode="&#x21a;" horiz-adv-x="1235" 
d="M726 0h-216v1273h-490v202h1195v-202h-489v-1273zM510 -604v98q24 0 49 7.5t47 31t22 58.5v5h-118v216h216v-216q0 -90 -61.5 -145t-154.5 -55z" />
    <glyph glyph-name="uni021B" unicode="&#x21b;" horiz-adv-x="865" 
d="M232 905h-212v201h212v307h215v-307h329v-201h-329v-558q0 -82 35.5 -118t117.5 -36h176v-193h-223q-151 0 -236 79.5t-85 219.5v606zM361 -604v98q25 0 49.5 7.5t47 31t22.5 59.5v4h-119v216h217v-216q0 -90 -62 -145t-155 -55z" />
    <glyph glyph-name="uni0259" unicode="&#x259;" horiz-adv-x="1221" 
d="M596 937q-203 0 -285 -176l-211 64q65 149 194.5 230.5t301.5 81.5q245 0 394.5 -161t149.5 -423q0 -263 -149.5 -423.5t-392.5 -160.5q-257 0 -393 172.5t-119 471.5h823q-14 154 -96.5 239t-216.5 85zM904 446h-598q10 -136 87 -210t205 -74q126 0 205 74t101 210z" />
    <glyph glyph-name="circumflex" unicode="&#x2c6;" horiz-adv-x="1150" 
d="M421 1638h-205l264 308h185l265 -308h-205l-153 182z" />
    <glyph glyph-name="caron" unicode="&#x2c7;" horiz-adv-x="1142" 
d="M480 1638l-264 308h205l151 -182l153 182h205l-265 -308h-185z" />
    <glyph glyph-name="breve" unicode="&#x2d8;" horiz-adv-x="1081" 
d="M541 1602q-80 0 -148 39t-107 107q-40 67 -40 148h170q0 -51 37 -87.5t88 -36.5q52 0 88.5 36.5t36.5 87.5h170q0 -80 -39.5 -148t-107.5 -107q-65 -39 -148 -39z" />
    <glyph glyph-name="dotaccent" unicode="&#x2d9;" horiz-adv-x="717" 
d="M472 1699h-226v226h226v-226z" />
    <glyph glyph-name="ring" unicode="&#x2da;" horiz-adv-x="1077" 
d="M539 1590q-67 0 -124.5 33.5t-91.5 92.5q-35 55 -35 125q0 101 75 176t176 75q67 0 125 -34t92 -92q34 -56 34 -125q0 -67 -33.5 -125t-91.5 -92t-126 -34zM539 1729q46 0 79 33t33 79q0 47 -33 80t-79 33t-79.5 -33.5t-33.5 -79.5t33.5 -79t79.5 -33z" />
    <glyph glyph-name="ogonek" unicode="&#x2db;" horiz-adv-x="892" 
d="M456 -492q-88 0 -149.5 65t-61.5 152q0 103 85.5 211t215.5 177l99 -113q-95 -53 -161.5 -129t-66.5 -132q0 -29 18.5 -48.5t46.5 -19.5q39 0 82 40l81 -103q-74 -100 -189 -100z" />
    <glyph glyph-name="tilde" unicode="&#x2dc;" horiz-adv-x="1157" 
d="M743 1642q-42 0 -83 18t-107 60q-49 32 -74.5 44.5t-48.5 12.5q-18 0 -29.5 -8.5t-16 -22.5t-5.5 -22t-1 -15q0 -21 6 -43h-139q-11 47 -11 83q0 23 10 73q9 43 54 79q44 35 115 35q43 0 85 -18t106 -60q85 -56 123 -56q32 0 43 25q9 24 9 44q0 21 -6 43h139
q11 -47 11 -83q0 -23 -10 -73q-9 -45 -53 -80q-45 -36 -117 -36z" />
    <glyph glyph-name="hungarumlaut" unicode="&#x2dd;" horiz-adv-x="1156" 
d="M936 1997l-146 -359h-168l146 359h168zM526 1997l-145 -359h-168l145 359h168z" />
    <glyph glyph-name="uni0374" unicode="&#x374;" horiz-adv-x="601" 
d="M437 1475l-146 -359h-168l146 359h168z" />
    <glyph glyph-name="uni0375" unicode="&#x375;" horiz-adv-x="601" 
d="M437 -125l-146 -358h-168l146 358h168z" />
    <glyph glyph-name="uni037E" unicode="&#x37e;" horiz-adv-x="676" 
d="M452 880h-227v226h227v-226zM225 -245l14 95q4 -1 12 -1q45 0 69.5 30.5t24.5 84.5v7q0 11 -2 29h-118v247h227v-267q0 -79 -26 -134.5t-68 -75.5q-43 -20 -84 -20q-21 0 -49 5z" />
    <glyph glyph-name="tonos" unicode="&#x384;" horiz-adv-x="1228" 
d="M760 1475l-147 -359h-168l147 359h168z" />
    <glyph glyph-name="dieresistonos" unicode="&#x385;" horiz-adv-x="1228" 
d="M797 1628l-147 -358h-168l147 358h168zM1012 1290h-185v205h185v-205zM402 1290h-184v205h184v-205z" />
    <glyph glyph-name="Alphatonos" unicode="&#x386;" horiz-adv-x="1372" 
d="M839 1475l497 -1475h-226l-112 333h-601l-110 -333h-228l498 1475h282zM388 1475l-146 -359h-168l146 359h168zM464 534h468l-235 700z" />
    <glyph glyph-name="anoteleia" unicode="&#x387;" horiz-adv-x="1228" 
d="M263 509q-59 0 -99.5 39t-40.5 97t40.5 97t99.5 39q55 0 94 -39.5t39 -96.5t-39 -96.5t-94 -39.5z" />
    <glyph glyph-name="Epsilontonos" unicode="&#x388;" horiz-adv-x="1507" 
d="M1405 0h-943v1475h943v-202h-727v-414h604v-202h-604v-455h727v-202zM349 1475l-146 -359h-168l146 359h168z" />
    <glyph glyph-name="Etatonos" unicode="&#x389;" horiz-adv-x="1754" 
d="M660 0h-216v1475h216v-636h736v636h216v-1475h-216v637h-736v-637zM335 1475l-147 -359h-168l147 359h168z" />
    <glyph glyph-name="Iotatonos" unicode="&#x38a;" horiz-adv-x="799" 
d="M656 0h-215v1475h215v-1475zM335 1475l-147 -359h-168l147 359h168z" />
    <glyph glyph-name="Omicrontonos" unicode="&#x38c;" horiz-adv-x="1733" 
d="M975 -31q-217 0 -376 97t-240 270t-81 401t81 401t240 270t376 97t375.5 -97t239.5 -270t81 -401t-81 -401t-239.5 -270t-375.5 -97zM347 1475l-146 -359h-168l146 359h168zM975 173q229 0 349 151.5t120 412.5t-120 413t-349 152t-349 -152t-121 -413q-1 -260 120 -412
t350 -152z" />
    <glyph glyph-name="Upsilontonos" unicode="&#x38e;" horiz-adv-x="1646" 
d="M1148 0h-216v609l-500 866h250l357 -620l358 620h250l-499 -866v-609zM364 1475l-147 -359h-168l147 359h168z" />
    <glyph glyph-name="Omegatonos" unicode="&#x38f;" horiz-adv-x="1759" 
d="M813 0h-510v202h235q-119 101 -183.5 249t-64.5 326q0 205 87 372q85 165 244 260q158 95 366 95q209 0 367 -95q157 -94 243 -260q86 -167 86 -372q0 -178 -64 -326t-183 -249h233v-202h-504l1 202q75 39 140.5 116t106.5 183q41 108 43 240v11q0 151 -56.5 276
t-161.5 199q-108 75 -251 75q-139 0 -247 -74t-166 -202q-57 -128 -57 -280q0 -130 42.5 -242t113.5 -190q62 -71 140 -112v-202zM359 1475l-146 -359h-168l146 359h168z" />
    <glyph glyph-name="iotadieresistonos" unicode="&#x390;" horiz-adv-x="930" 
d="M620 1628l-147 -358h-168l147 358h168zM835 1290h-185v205h185v-205zM225 1290h-184v205h184v-205zM842 193v-193h-224q-151 0 -235.5 79.5t-84.5 219.5v806h215v-758q0 -82 35.5 -118t117.5 -36h176z" />
    <glyph glyph-name="Alpha" unicode="&#x391;" horiz-adv-x="1348" 
d="M815 1475l498 -1475h-227l-111 333h-601l-111 -333h-227l498 1475h281zM440 534h468l-234 700z" />
    <glyph glyph-name="Beta" unicode="&#x392;" horiz-adv-x="1280" 
d="M665 0h-551v1475h535q142 0 250.5 -41t173.5 -129.5t65 -214.5q0 -130 -65 -213.5t-154 -112.5q104 -20 185 -113t81 -241q0 -105 -39.5 -185t-111 -128.5t-164.5 -72.5t-205 -24zM653 1273h-323v-414h344q111 0 178 50.5t67 159.5q0 204 -266 204zM330 202h335
q66 0 117.5 10.5t95.5 35t67.5 71t23.5 113.5q0 63 -24 109t-66 71t-91 36.5t-108 11.5h-350v-458z" />
    <glyph glyph-name="Gamma" unicode="&#x393;" horiz-adv-x="1105" 
d="M357 0h-215v1475h943v-202h-728v-1273z" />
    <glyph glyph-name="uni0394" unicode="&#x394;" horiz-adv-x="1348" 
d="M41 0l479 1475h308l480 -1475h-1267zM672 1258l-343 -1056h690z" />
    <glyph glyph-name="Epsilon" unicode="&#x395;" horiz-adv-x="1187" 
d="M1074 0h-943v1475h943v-202h-727v-414h604v-202h-604v-455h727v-202z" />
    <glyph glyph-name="Zeta" unicode="&#x396;" horiz-adv-x="1325" 
d="M1240 0h-1138v202l865 1071h-865v202h1138v-202l-864 -1071h864v-202z" />
    <glyph glyph-name="Eta" unicode="&#x397;" horiz-adv-x="1453" 
d="M359 0h-216v1475h216v-636h736v636h216v-1475h-216v637h-736v-637z" />
    <glyph glyph-name="Theta" unicode="&#x398;" horiz-adv-x="1516" 
d="M759 -31q-217 0 -376 97t-240.5 270t-81.5 401t81.5 401t240.5 270t376 97t375.5 -97t239.5 -270t81 -401t-81 -401t-239.5 -270t-375.5 -97zM759 173q229 0 349 151.5t120 412.5t-120 413t-349 152t-349 -152t-121 -413q-1 -260 120 -412t350 -152zM490 652v170h536
v-170h-536z" />
    <glyph glyph-name="Iota" unicode="&#x399;" horiz-adv-x="541" 
d="M378 0h-215v1475h215v-1475z" />
    <glyph glyph-name="Kappa" unicode="&#x39a;" horiz-adv-x="1289" 
d="M142 0v1475h215v-692l618 692h266l-652 -720l700 -755h-274l-658 707v-707h-215z" />
    <glyph glyph-name="Lambda" unicode="&#x39b;" horiz-adv-x="1297" 
d="M518 1475h282l497 -1475h-226l-413 1234l-410 -1234h-228z" />
    <glyph glyph-name="Mu" unicode="&#x39c;" horiz-adv-x="1741" 
d="M376 0h-215v1475h214l496 -1042l494 1042h216v-1474h-216v1036l-401 -849h-187l-401 849v-1037z" />
    <glyph glyph-name="Nu" unicode="&#x39d;" horiz-adv-x="1446" 
d="M359 0h-216v1475h216l730 -1103v1103h215v-1475h-215l-730 1103v-1103z" />
    <glyph glyph-name="Xi" unicode="&#x39e;" horiz-adv-x="1459" 
d="M1316 1273h-1173v202h1173v-202zM1213 637h-967v202h967v-202zM1316 0h-1173v202h1173v-202z" />
    <glyph glyph-name="Omicron" unicode="&#x39f;" horiz-adv-x="1516" 
d="M759 -31q-217 0 -376 97t-240.5 270t-81.5 401t81.5 401t240.5 270t376 97t375.5 -97t239.5 -270t81 -401t-81 -401t-239.5 -270t-375.5 -97zM759 173q229 0 349 151.5t120 412.5t-120 413t-349 152t-349 -152t-121 -413q-1 -260 120 -412t350 -152z" />
    <glyph glyph-name="Pi" unicode="&#x3a0;" horiz-adv-x="1459" 
d="M397 0h-216v1475h1134v-1475h-216v1273h-702v-1273z" />
    <glyph glyph-name="Rho" unicode="&#x3a1;" horiz-adv-x="1284" 
d="M357 0h-215v1475h570q248 0 379.5 -125t131.5 -348t-131.5 -348t-379.5 -125h-355v-529zM357 1273v-541h354q141 0 217.5 70t76.5 200q0 129 -76.5 200t-217.5 71h-354z" />
    <glyph glyph-name="Sigma" unicode="&#x3a3;" horiz-adv-x="1310" 
d="M415 1273l508 -518v-35l-508 -518h739v-202h-1011v201l535 536l-535 537v201h1011v-202h-739z" />
    <glyph glyph-name="Tau" unicode="&#x3a4;" horiz-adv-x="1235" 
d="M707 0h-217v1273h-444v202h1102v-202h-441v-1273z" />
    <glyph glyph-name="Upsilon" unicode="&#x3a5;" horiz-adv-x="1214" 
d="M716 0h-216v609l-500 866h250l357 -620l358 620h249l-498 -866v-609z" />
    <glyph glyph-name="Phi" unicode="&#x3a6;" horiz-adv-x="1586" 
d="M687 0v135q-125 4 -237 45.5t-199.5 115.5t-138.5 188t-51 252q0 111 33.5 207t92 166.5t137.5 122t171 78t192 29.5v136h216v-136q125 -4 237 -46t199 -116t138 -188.5t51 -252.5t-51 -252t-138 -188t-199 -115.5t-237 -45.5v-135h-216zM903 1142v-809q176 6 291 115.5
t115 287.5t-115 289t-291 117zM687 333v809q-176 -6 -291 -117t-115 -289t115 -287.5t291 -115.5z" />
    <glyph glyph-name="Chi" unicode="&#x3a7;" horiz-adv-x="1308" 
d="M284 0h-264l503 746l-489 729h262l359 -547l358 547h263l-490 -729l502 -746h-262l-371 564z" />
    <glyph glyph-name="Psi" unicode="&#x3a8;" horiz-adv-x="1516" 
d="M651 0v334q-190 7 -315.5 94t-169.5 251q-23 78 -23 171v625h202v-572q0 -88 15 -148q52 -218 291 -221v941h214v-941q115 2 192.5 61t101.5 170q12 53 12 138v572h202v-625q0 -90 -22 -168q-45 -165 -170.5 -252.5t-315.5 -95.5v-334h-214z" />
    <glyph glyph-name="uni03A9" unicode="&#x3a9;" horiz-adv-x="1516" 
d="M585 0h-510v202h234q-119 101 -183.5 249t-64.5 326q0 205 87 372q85 165 244 260q158 95 367 95q208 0 366 -95q159 -95 244 -260q86 -167 86 -372q0 -178 -64.5 -326t-183.5 -249h234v-202h-504l1 202q75 39 140.5 116t106.5 183q41 108 43 240v11q0 151 -56.5 276
t-161.5 199q-108 75 -251 75q-139 0 -247 -74t-166 -202q-57 -128 -57 -280q0 -131 42 -242.5t113 -189.5q61 -70 141 -112v-202z" />
    <glyph glyph-name="Iotadieresis" unicode="&#x3aa;" horiz-adv-x="541" 
d="M580 1660h-205v205h205v-205zM167 1660h-205v205h205v-205zM378 0h-214v1475h214v-1475z" />
    <glyph glyph-name="Upsilondieresis" unicode="&#x3ab;" horiz-adv-x="1214" 
d="M916 1660h-204v205h204v-205zM504 1660h-205v205h205v-205zM716 0h-217v609l-499 866h250l357 -620l358 620h249l-498 -866v-609z" />
    <glyph glyph-name="alphatonos" unicode="&#x3ac;" 
d="M856 1628l-146 -358h-168l146 358h168zM939 1106h214v-1106h-214v161q-110 -192 -355 -192q-223 0 -362.5 163t-139.5 420q0 260 139.5 422.5t362.5 162.5q245 0 355 -192v161zM625 935q-154 0 -235 -104t-81 -279q0 -177 81 -279t235 -102q156 0 235 102.5t79 278.5
q0 178 -81 280.5t-233 102.5z" />
    <glyph glyph-name="epsilontonos" unicode="&#x3ad;" horiz-adv-x="1065" 
d="M757 1628l-146 -358h-168l146 358h168zM535 -31q-211 0 -332 98t-121 256q0 91 46 158.5t121 91.5q-137 63 -137 225q0 159 112.5 249t313.5 90q84 0 155.5 -17.5t133.5 -54.5t106.5 -102t65.5 -154l-202 -37q-42 176 -255 176q-104 0 -162.5 -42.5t-58.5 -119.5
q0 -63 45.5 -97t130.5 -34h167v-173h-167q-95 0 -150 -37.5t-55 -117.5q0 -79 65.5 -124t183.5 -45q241 0 275 210l202 -36q-30 -180 -155 -271.5t-328 -91.5z" />
    <glyph glyph-name="etatonos" unicode="&#x3ae;" horiz-adv-x="1259" 
d="M876 1628l-147 -358h-168l147 358h168zM920 0v608q0 160 -73.5 243.5t-206.5 83.5t-208 -83.5t-75 -243.5v-608h-214v1106h214v-153q98 184 335 184q206 0 324 -122t118 -365v-650h-214z" />
    <glyph glyph-name="iotatonos" unicode="&#x3af;" horiz-adv-x="795" 
d="M358 1270h-168l147 358h168zM707 193v-193h-224q-151 0 -235.5 79.5t-84.5 219.5v806h215v-758q0 -83 35 -118.5t117 -35.5h177z" />
    <glyph glyph-name="upsilondieresistonos" unicode="&#x3b0;" horiz-adv-x="1238" 
d="M801 1628l-147 -358h-168l147 358h168zM1016 1290h-185v205h185v-205zM407 1290h-185v205h185v-205zM123 505v601h217v-544q0 -115 24 -196t83 -136q61 -57 173 -57q109 0 172 57q62 56 85 142q21 83 21 190v544h217v-601q0 -146 -36 -260q-38 -116 -146 -195
q-112 -80 -313 -80q-204 0 -314 80q-108 79 -146 195q-37 112 -37 260z" />
    <glyph glyph-name="alpha" unicode="&#x3b1;" 
d="M939 1106h214v-1106h-214v161q-110 -192 -355 -192q-223 0 -362.5 163t-139.5 420q0 260 139.5 422.5t362.5 162.5q245 0 355 -192v161zM625 935q-154 0 -235 -104t-81 -279q0 -177 81 -279t235 -102q156 0 235 102.5t79 278.5q0 178 -81 280.5t-233 102.5z" />
    <glyph glyph-name="beta" unicode="&#x3b2;" horiz-adv-x="1211" 
d="M142 -492v1598q0 63 21 134q40 128 152.5 196.5t263.5 68.5q129 0 231.5 -51.5t160.5 -144.5q57 -93 57 -214q0 -94 -36 -167.5t-106 -115.5q115 -34 190 -138t75 -253q0 -207 -140 -329.5t-377 -122.5q-168 0 -277 74v-535h-215zM644 171q129 0 210 71t81 189
q0 123 -93 189t-257 68v190q106 10 165.5 65t59.5 149q0 98 -64 155t-163 57q-68 0 -121 -29.5t-78 -87.5q-25 -61 -25 -158v-583q0 -80 16 -128q22 -70 98.5 -108.5t170.5 -38.5z" />
    <glyph glyph-name="gamma" unicode="&#x3b3;" horiz-adv-x="1101" 
d="M659 -369h-217v369l-401 1106h216l294 -838l294 838h216l-402 -1106v-369z" />
    <glyph glyph-name="delta" unicode="&#x3b4;" horiz-adv-x="1248" 
d="M620 -30q-161 0 -283 64.5t-189 182.5q-66 117 -66 271q0 155 66 273t188 174q52 22 97 31q-70 36 -120 87q-70 70 -70 182q0 97 57.5 171.5t176.5 91.5q34 7 128 7h418v-176h-370q-71 0 -108 -9q-88 -24 -88 -94q0 -76 131 -130q66 -28 167 -61q51 -17 79 -29
q30 -10 76 -34q123 -68 189.5 -188.5t66.5 -277.5t-67 -278.5t-191 -189.5q-125 -68 -288 -68zM625 172q144 0 221 89.5t77 245.5q0 158 -77 245t-221 87q-145 0 -221.5 -88t-76.5 -245q0 -159 77 -246.5t221 -87.5z" />
    <glyph glyph-name="epsilon" unicode="&#x3b5;" horiz-adv-x="1055" 
d="M517 -31q-210 0 -331 98t-121 256q0 91 46 158t120 92q-136 62 -136 225q0 159 112 249t313 90q84 0 155.5 -17.5t134 -54.5t107 -102t65.5 -154l-203 -37q-41 176 -255 176q-103 0 -161.5 -42.5t-58.5 -119.5q0 -63 45 -97t131 -34h166v-173h-166q-95 0 -150 -37.5
t-55 -117.5q0 -79 65 -124t183 -45q117 0 188.5 52.5t87.5 157.5l201 -36q-30 -180 -155 -271.5t-328 -91.5z" />
    <glyph glyph-name="zeta" unicode="&#x3b6;" horiz-adv-x="1061" 
d="M1037 -246h-188v19q0 184 -124 213q-62 14 -168 14h-13q-151 0 -249.5 37.5t-154.5 123.5q-58 86 -58 234q0 92 26 172t89 171q62 91 180 214q69 69 98 96q17 15 58 50.5t55 47.5q68 72 132 136h-577v193h906v-163l-126 -125q-7 -7 -50.5 -48.5t-74.5 -69.5
q-143 -134 -215 -202q-194 -185 -248 -320q-27 -70 -27 -132q0 -165 156 -198q70 -16 190 -16q119 0 196 -24q71 -24 120 -78t63 -121q14 -68 14 -115q0 -46 -10 -109z" />
    <glyph glyph-name="eta" unicode="&#x3b7;" horiz-adv-x="1256" 
d="M920 -388v996q0 160 -73.5 243.5t-206.5 83.5t-208 -83.5t-75 -243.5v-608h-214v1106h214v-153q98 184 335 184q206 0 324 -122t118 -365v-1038h-214z" />
    <glyph glyph-name="theta" unicode="&#x3b8;" horiz-adv-x="1385" 
d="M693 -31q-190 0 -328.5 96.5t-210.5 272.5q-72 174 -72 399q0 228 72.5 401.5t209.5 269.5q134 96 329 96q190 0 329 -95.5t211 -270.5q71 -175 71 -401q0 -230 -71.5 -402.5t-208.5 -268.5q-137 -97 -331 -97zM312 822h762q-8 115 -40 206q-44 131 -131 202.5t-210 71.5
q-124 0 -210.5 -71.5t-129.5 -201.5q-32 -89 -41 -207zM693 173q123 0 209.5 71.5t130.5 200.5q31 97 40 207h-761q7 -107 39 -206q43 -130 130.5 -201.5t211.5 -71.5z" />
    <glyph glyph-name="iota" unicode="&#x3b9;" horiz-adv-x="795" 
d="M707 193v-193h-224q-151 0 -235.5 79.5t-84.5 219.5v806h215v-758q0 -83 35 -118.5t117 -35.5h177z" />
    <glyph glyph-name="kappa" unicode="&#x3ba;" horiz-adv-x="1073" 
d="M143 0v1106h214v-533l435 533h272l-459 -553l506 -553h-291l-463 534v-534h-214z" />
    <glyph glyph-name="lambda" unicode="&#x3bb;" horiz-adv-x="1142" 
d="M82 0l401 1106q-3 6 -9.5 23.5t-10.5 26.5q-28 63 -55.5 95.5t-67.5 48.5q-43 17 -106 17h-53v188h74q96 0 152 -13q132 -33 207 -175q33 -63 69 -162q2 -8 8 -24.5t9 -24.5l402 -1106h-216l-294 838l-294 -838h-216z" />
    <glyph glyph-name="uni03BC" unicode="&#x3bc;" horiz-adv-x="1278" 
d="M920 1106h216v-1106h-216v153q-97 -184 -335 -184q-130 0 -227 49v-510h-216v1598h216v-639q7 -146 79.5 -221t199.5 -75q133 0 208 83.5t75 243.5v608z" />
    <glyph glyph-name="nu" unicode="&#x3bd;" horiz-adv-x="1101" 
d="M659 0h-217l-401 1106h216l294 -839l294 839h216z" />
    <glyph glyph-name="xi" unicode="&#x3be;" horiz-adv-x="1176" 
d="M646 0q-261 -1 -407.5 114t-146.5 321q0 115 62 204.5t177 117.5q-92 42 -143 119.5t-51 182.5q0 121 80 214h-125v202h888v-202h-381q-116 0 -179.5 -53.5t-63.5 -153.5t63 -155.5t176 -55.5h245v-204h-258q-128 0 -197 -55.5t-69 -159.5q0 -236 369 -234
q148 2 236.5 -10t148.5 -51q144 -95 84 -379h-185q10 88 -4.5 136.5t-56.5 71.5q-60 32 -262 30z" />
    <glyph glyph-name="omicron" unicode="&#x3bf;" horiz-adv-x="1248" 
d="M624 -31q-246 0 -394 162t-148 423q0 260 148.5 421.5t393.5 161.5q246 0 394 -161.5t148 -421.5q0 -262 -148 -423.5t-394 -161.5zM624 171q152 0 233.5 102t81.5 281q0 180 -81.5 280.5t-233.5 100.5q-153 0 -234 -100.5t-81 -280.5t82 -281.5t233 -101.5z" />
    <glyph glyph-name="pi" unicode="&#x3c0;" horiz-adv-x="1368" 
d="M474 0h-215v913h-190v193h1230v-193h-190v-913h-215v913h-420v-913z" />
    <glyph glyph-name="rho" unicode="&#x3c1;" horiz-adv-x="1307" 
d="M356 -492h-214v1046q0 260 148.5 421.5t392.5 161.5q247 0 395 -162t148 -421q0 -260 -139.5 -422.5t-362.5 -162.5q-260 0 -368 216v-677zM683 171q154 0 234.5 104t80.5 279q0 178 -80.5 279.5t-234.5 101.5q-156 0 -234.5 -102.5t-78.5 -278.5q0 -179 80.5 -281
t232.5 -102z" />
    <glyph glyph-name="uni03C2" unicode="&#x3c2;" horiz-adv-x="1164" 
d="M1065 -246h-189v24q0 178 -124 204q-60 13 -184 18h-10q-232 7 -354 148.5t-122 380.5q0 187 64.5 324t185.5 211q123 73 284 73q183 0 312.5 -90.5t170.5 -246.5l-213 -62q-33 94 -105 145.5t-172 51.5q-142 0 -213 -103.5t-73 -282.5q0 -106 26 -179t91 -119
q68 -48 193 -50h8q153 0 235 -24q112 -35 156 -126q42 -92 42 -188q0 -52 -9 -109z" />
    <glyph glyph-name="sigma" unicode="&#x3c3;" horiz-adv-x="1282" 
d="M624 -31q-158 0 -282 74t-192 205t-68 291q0 140 50.5 255.5t143.5 192.5q95 78 219 105q70 14 265 14h468v-193h-188q41 -49 76 -126q50 -112 50 -248q0 -162 -68 -292t-192 -203q-124 -75 -282 -75zM624 171q149 0 232 101t83 267q0 164 -83 264t-232 101
q-152 0 -233.5 -101t-81.5 -264q0 -168 83 -268t232 -100z" />
    <glyph glyph-name="tau" unicode="&#x3c4;" horiz-adv-x="1108" 
d="M51 913v193h970v-193h-378v-566q0 -82 36 -118t117 -36h176v-193h-223q-151 0 -235.5 79.5t-84.5 219.5v614h-378z" />
    <glyph glyph-name="upsilon" unicode="&#x3c5;" horiz-adv-x="1238" 
d="M123 505v601h217v-544q0 -115 24 -196t83 -136q61 -57 173 -57q109 0 172 57q62 56 85 142q21 83 21 190v544h217v-601q0 -146 -36 -260q-38 -116 -146 -195q-112 -80 -313 -80q-204 0 -314 80q-108 79 -146 195q-37 112 -37 260z" />
    <glyph glyph-name="phi" unicode="&#x3c6;" horiz-adv-x="1583" 
d="M684 -461v443q-126 3 -234 41t-191 107.5t-130 178t-47 243.5q0 181 82 310t224 197l96 -180q-87 -45 -135 -129t-48 -198q0 -170 104.5 -269.5t278.5 -104.5v946h215q126 -3 234 -41t191 -108t130 -178.5t47 -244.5q0 -109 -31 -201t-85.5 -158.5t-130.5 -113.5
t-165.5 -71t-189.5 -26v-443h-215zM899 928v-750q174 4 278.5 104t104.5 270q0 171 -104.5 271.5t-278.5 104.5z" />
    <glyph glyph-name="chi" unicode="&#x3c7;" horiz-adv-x="1116" 
d="M275 0h-255l414 559l-404 547h254l275 -380l272 380h254l-404 -547l415 -559h-255l-282 392z" />
    <glyph glyph-name="psi" unicode="&#x3c8;" horiz-adv-x="1475" 
d="M635 -461v411q-189 8 -318 94t-172 252q-22 74 -22 170v640h202v-587q0 -88 15 -148q27 -110 105 -164.5t190 -56.5v956h206v-956q114 2 194 61t104 171q12 55 12 137v587h202v-640q0 -87 -23 -168q-43 -165 -172.5 -252.5t-316.5 -95.5v-411h-206z" />
    <glyph glyph-name="omega" unicode="&#x3c9;" horiz-adv-x="1618" 
d="M510 -32q-133 0 -230.5 71.5t-148.5 197.5q-49 122 -49 277q0 205 84 366.5t243 256.5l143 -173q-128 -88 -186 -192q-57 -104 -57 -249q0 -156 60.5 -253.5t167.5 -97.5q135 0 161 169q12 84 12 200v160h199v-151q0 -120 12 -206q11 -77 49 -124q39 -48 112 -48
q110 0 169 98t59 253q0 150 -56.5 250.5t-185.5 190.5l143 173q160 -95 243 -257t83 -367q0 -158 -50.5 -281t-145.5 -193q-98 -71 -231 -71q-116 0 -201 59q-64 44 -99 127q-36 -83 -99 -127q-85 -59 -201 -59z" />
    <glyph glyph-name="iotadieresis" unicode="&#x3ca;" horiz-adv-x="781" 
d="M375 1291v205h205v-205h-205zM-38 1291v205h205v-205h-205zM707 193v-193h-224q-151 0 -235.5 79.5t-84.5 219.5v806h215v-758q0 -83 35 -118.5t117 -35.5h177z" />
    <glyph glyph-name="upsilondieresis" unicode="&#x3cb;" horiz-adv-x="1238" 
d="M928 1291h-205v205h205v-205zM515 1291h-205v205h205v-205zM123 505v601h217v-544q0 -115 24 -196t83 -136q61 -57 173 -57q109 0 172 57q62 56 85 142q21 83 21 190v544h217v-601q0 -146 -36 -260q-38 -116 -146 -195q-112 -80 -313 -80q-204 0 -314 80
q-108 79 -146 195q-37 112 -37 260z" />
    <glyph glyph-name="omicrontonos" unicode="&#x3cc;" horiz-adv-x="1248" 
d="M709 1270h-168l146 358h168zM624 -31q-246 0 -394 162t-148 423q0 260 148.5 421.5t393.5 161.5q246 0 394 -161.5t148 -421.5q0 -262 -148 -423.5t-394 -161.5zM624 171q152 0 233.5 102t81.5 281q0 180 -81.5 280.5t-233.5 100.5q-153 0 -234 -100.5t-81 -280.5
t82 -281.5t233 -101.5z" />
    <glyph glyph-name="upsilontonos" unicode="&#x3cd;" horiz-adv-x="1238" 
d="M820 1628l-146 -358h-168l146 358h168zM123 505v601h217v-544q0 -115 24 -196t83 -136q61 -57 173 -57q109 0 172 57q62 56 85 142q21 83 21 190v544h217v-601q0 -146 -36 -260q-38 -116 -146 -195q-112 -80 -313 -80q-204 0 -314 80q-108 79 -146 195q-37 112 -37 260z
" />
    <glyph glyph-name="omegatonos" unicode="&#x3ce;" horiz-adv-x="1618" 
d="M993 1628l-145 -358h-168l145 358h168zM510 -32q-133 0 -230.5 71.5t-148.5 197.5q-49 122 -49 277q0 205 84 366.5t243 256.5l143 -173q-128 -88 -186 -192q-57 -104 -57 -249q0 -156 60.5 -253.5t167.5 -97.5q135 0 161 169q12 84 12 200v160h199v-151q0 -120 12 -206
q11 -77 49 -124q39 -48 112 -48q110 0 169 98t59 253q0 150 -56.5 250.5t-185.5 190.5l143 173q160 -95 243 -257t83 -367q0 -158 -50.5 -281t-145.5 -193q-98 -71 -231 -71q-116 0 -201 59q-64 44 -99 127q-36 -83 -99 -127q-85 -59 -201 -59z" />
    <glyph glyph-name="uni0400" unicode="&#x400;" horiz-adv-x="1188" 
d="M724 1638h-168l-146 359h168zM1086 0h-943v1475h943v-202h-728v-414h606v-202h-606v-455h728v-202z" />
    <glyph glyph-name="uni0401" unicode="&#x401;" horiz-adv-x="1188" 
d="M912 1660h-204v205h204v-205zM500 1660h-205v205h205v-205zM1086 0h-943v1475h943v-202h-728v-414h606v-202h-606v-455h728v-202z" />
    <glyph glyph-name="uni0402" unicode="&#x402;" horiz-adv-x="1467" 
d="M256 1282h-256v193h790v-193h-318v-411q70 57 171.5 83t207.5 26q249 0 391.5 -131.5t142.5 -361.5q0 -238 -140 -362.5t-418 -124.5h-82v202h66q183 0 269.5 69t86.5 216q0 288 -356 288q-232 0 -339 -111v-664h-216v1282z" />
    <glyph glyph-name="uni0403" unicode="&#x403;" horiz-adv-x="1106" 
d="M830 1997l-146 -359h-168l147 359h167zM359 0h-216v1475h943v-202h-727v-1273z" />
    <glyph glyph-name="uni0404" unicode="&#x404;" horiz-adv-x="1475" 
d="M760 -31q-214 0 -368 102q-156 102 -236 273q-81 172 -81 383v10q2 231 84 404t236 269q154 95 365 95q255 0 427 -133t227 -374l-216 -30q-38 153 -151 242t-275 92h-9q-128 0 -226.5 -56.5t-157.5 -162.5q-60 -109 -73 -244h657v-202h-656q17 -184 106 -300
q116 -159 359 -164h10q145 0 256.5 85t155.5 232l210 -53q-64 -228 -231 -348t-413 -120z" />
    <glyph glyph-name="uni0405" unicode="&#x405;" horiz-adv-x="1317" 
d="M678 -31q-242 0 -405 123t-198 331l223 34q34 -139 135 -212.5t257 -73.5q145 0 237.5 67t92.5 172q0 135 -185 190l-378 112q-325 98 -325 372q0 187 146 303.5t376 116.5q229 0 381.5 -114t197.5 -318l-229 -39q-24 126 -117.5 197.5t-234.5 71.5q-132 0 -213 -59
t-81 -150q0 -70 54 -116t178 -81l270 -77q383 -108 383 -398q0 -203 -156 -327.5t-409 -124.5z" />
    <glyph glyph-name="uni0406" unicode="&#x406;" horiz-adv-x="541" 
d="M378 0h-215v1475h215v-1475z" />
    <glyph glyph-name="uni0407" unicode="&#x407;" horiz-adv-x="541" 
d="M580 1660h-205v205h205v-205zM167 1660h-205v205h205v-205zM379 0h-216v1475h216v-1475z" />
    <glyph glyph-name="uni0408" unicode="&#x408;" horiz-adv-x="1000" 
d="M424 -30q-160 0 -270.5 85t-153.5 233l212 50q14 -69 73 -117.5t132 -48.5q53 0 103.5 26t74.5 78q11 23 16.5 56.5t6 57.5t0.5 82v1003h217v-1003q0 -195 -50 -301q-96 -201 -361 -201z" />
    <glyph glyph-name="uni0409" unicode="&#x409;" horiz-adv-x="2238" 
d="M1291 1475v-530h355q248 0 379.5 -125t131.5 -348t-131.5 -347.5t-379.5 -124.5h-570v1273h-595v-549q0 -173 -15 -304.5t-42 -216t-67 -137.5t-86 -74.5t-104 -21.5q-49 0 -126 21v185q28 -7 55 -7q104 0 146 139q36 121 39 445v182v540h1010zM1291 202h354
q141 0 217 70.5t76 199.5q0 130 -76 200t-217 70h-354v-540z" />
    <glyph glyph-name="uni040A" unicode="&#x40a;" horiz-adv-x="2255" 
d="M359 0h-216v1475h216v-636h735v636h216v-530h354q247 0 378.5 -125t131.5 -348t-131 -347.5t-379 -124.5h-570v637h-735v-637zM1310 202h352q141 0 218 70.5t77 199.5q0 130 -77 200t-218 70h-352v-540z" />
    <glyph glyph-name="uni040B" unicode="&#x40b;" horiz-adv-x="1496" 
d="M257 1282h-257v193h790v-193h-317v-411q70 57 172 83t207 26q258 0 396 -137.5t138 -412.5v-430h-217v348q0 223 -81 325t-276 102q-231 0 -339 -111v-664h-216v1282z" />
    <glyph glyph-name="uni040C" unicode="&#x40c;" horiz-adv-x="1290" 
d="M743 1638h-168l147 359h168zM143 0v1475h216v-692l617 692h266l-651 -720l699 -755h-274l-657 707v-707h-216z" />
    <glyph glyph-name="uni040D" unicode="&#x40d;" horiz-adv-x="1446" 
d="M830 1638h-167l-146 359h168zM1304 0h-217v1103l-729 -1103h-215v1475h215v-1103l729 1103h217v-1475z" />
    <glyph glyph-name="uni040E" unicode="&#x40e;" horiz-adv-x="1245" 
d="M646 1602q-79 0 -147.5 39t-107.5 107q-40 67 -40 148h170q0 -51 37 -87.5t88 -36.5q53 0 89 36.5t36 87.5h170q0 -80 -39 -148t-107 -107q-65 -39 -149 -39zM1228 1475l-701 -1475h-232l229 483l-496 992h235l371 -760l360 760h234z" />
    <glyph glyph-name="uni040F" unicode="&#x40f;" horiz-adv-x="1420" 
d="M817 -280h-214v280h-460v1475h216v-1273h702v1273h216v-1475h-460v-280z" />
    <glyph glyph-name="uni0410" unicode="&#x410;" horiz-adv-x="1348" 
d="M815 1476l498 -1475h-227l-111 333h-601l-111 -333h-227l498 1475h281zM440 535h468l-234 700z" />
    <glyph glyph-name="uni0411" unicode="&#x411;" horiz-adv-x="1285" 
d="M143 0v1475h963v-202h-747v-355h367q236 0 367 -126t131 -333t-131 -333t-367 -126h-583zM359 202h342q151 0 228.5 69.5t77.5 187.5t-77.5 187.5t-228.5 69.5h-342v-514z" />
    <glyph glyph-name="uni0412" unicode="&#x412;" horiz-adv-x="1274" 
d="M694 0h-551v1475h536q142 0 250 -41t173 -129.5t65 -214.5q0 -130 -65 -213.5t-154 -112.5q104 -20 185 -113t81 -241q0 -105 -39.5 -185t-111 -128.5t-164.5 -72.5t-205 -24zM683 1273h-324v-414h344q111 0 178 50.5t67 159.5q0 204 -265 204zM359 202h335
q66 0 117.5 10.5t95.5 35t67.5 71t23.5 113.5q0 63 -23.5 109t-65.5 71t-91 36.5t-108 11.5h-351v-458z" />
    <glyph glyph-name="uni0413" unicode="&#x413;" horiz-adv-x="1106" 
d="M358 0h-215v1475h943v-202h-728v-1273z" />
    <glyph glyph-name="uni0414" unicode="&#x414;" horiz-adv-x="1571" 
d="M69 -280v482h122q45 52 71 180.5t33 267.5t7 338v487h1022v-1273h166v-482h-216v280h-991v-280h-214zM420 202h688v1071h-604v-405q0 -239 -23 -415t-61 -251z" />
    <glyph glyph-name="uni0415" unicode="&#x415;" horiz-adv-x="1188" 
d="M1086 0h-943v1475h943v-202h-727v-414h605v-202h-605v-455h727v-202z" />
    <glyph glyph-name="uni0416" unicode="&#x416;" horiz-adv-x="2118" 
d="M951 0v707l-656 -707h-275l700 755l-652 720h266l617 -692v692h216v-692l617 692h266l-651 -720l699 -755h-274l-657 707v-707h-216z" />
    <glyph glyph-name="uni0417" unicode="&#x417;" horiz-adv-x="1317" 
d="M1243 428q0 -150 -74 -255t-198.5 -154.5t-288.5 -49.5q-113 0 -210.5 27t-178.5 81t-137 142t-81 204l222 34q40 -142 133 -214t256 -72q146 0 238.5 65t92.5 184q0 111 -74.5 170.5t-192.5 59.5h-261v204h246q116 0 178 62t62 158q0 111 -86.5 169.5t-216.5 58.5
q-140 0 -226 -69t-116 -200l-230 39q52 220 202.5 326t374.5 106q232 0 375.5 -112.5t143.5 -320.5q0 -106 -50 -191t-130 -125q92 -27 159.5 -119.5t67.5 -207.5z" />
    <glyph glyph-name="uni0418" unicode="&#x418;" horiz-adv-x="1446" 
d="M1304 0h-217v1103l-729 -1103h-215v1475h215v-1103l729 1103h217v-1475z" />
    <glyph glyph-name="uni0419" unicode="&#x419;" horiz-adv-x="1446" 
d="M727 1602q-80 0 -148 39t-107 107q-40 67 -40 148h170q0 -51 37 -87.5t88 -36.5q52 0 88.5 36.5t36.5 87.5h170q0 -80 -39 -148t-107 -107q-65 -39 -149 -39zM1304 0h-217v1103l-729 -1103h-215v1475h215v-1103l729 1103h217v-1475z" />
    <glyph glyph-name="uni041A" unicode="&#x41a;" horiz-adv-x="1290" 
d="M143 0v1475h215v-692l618 692h266l-652 -720l700 -755h-274l-658 707v-707h-215z" />
    <glyph glyph-name="uni041B" unicode="&#x41b;" horiz-adv-x="1434" 
d="M41 -9v185q28 -7 55 -7q104 0 146 139q36 121 39 445v182v540h1011v-1475h-216v1273h-594v-549q0 -215 -22.5 -365.5t-66 -233.5t-98.5 -119t-128 -36q-49 0 -126 21z" />
    <glyph glyph-name="uni041C" unicode="&#x41c;" horiz-adv-x="1707" 
d="M358 0h-215v1475h214l497 -1042l494 1042h216v-1474h-216v1036l-402 -849h-186l-402 849v-1037z" />
    <glyph glyph-name="uni041D" unicode="&#x41d;" horiz-adv-x="1454" 
d="M359 0h-216v1475h216v-636h736v636h216v-1475h-216v637h-736v-637z" />
    <glyph glyph-name="uni041E" unicode="&#x41e;" horiz-adv-x="1516" 
d="M759 -31q-217 0 -376 97t-240.5 270t-81.5 401t81.5 401t240.5 270t376 97t375.5 -97t239.5 -270t81 -401t-81 -401t-239.5 -270t-375.5 -97zM759 173q229 0 349 151.5t120 412.5t-120 413t-349 152t-349 -152t-121 -413q-1 -260 120 -412t350 -152z" />
    <glyph glyph-name="uni041F" unicode="&#x41f;" horiz-adv-x="1420" 
d="M359 0h-216v1475h1134v-1475h-216v1273h-702v-1273z" />
    <glyph glyph-name="uni0420" unicode="&#x420;" horiz-adv-x="1285" 
d="M358 0h-215v1475h570q248 0 379.5 -125t131.5 -348t-131.5 -348t-379.5 -125h-355v-529zM358 1273v-541h354q141 0 217.5 70t76.5 200q0 129 -76.5 200t-217.5 71h-354z" />
    <glyph glyph-name="uni0421" unicode="&#x421;" horiz-adv-x="1496" 
d="M759 -31q-217 0 -376 97t-240.5 270t-81.5 401t81.5 401t240.5 270t376 97q250 0 419 -126.5t236 -349.5l-217 -58q-44 158 -155.5 244.5t-282.5 86.5q-226 0 -348.5 -153t-122.5 -412q0 -260 121 -412t350 -152q171 0 282.5 86.5t155.5 244.5l217 -59
q-67 -223 -236 -349.5t-419 -126.5z" />
    <glyph glyph-name="uni0422" unicode="&#x422;" horiz-adv-x="1235" 
d="M707 0h-217v1273h-444v202h1102v-202h-441v-1273z" />
    <glyph glyph-name="uni0423" unicode="&#x423;" horiz-adv-x="1245" 
d="M1228 1475l-701 -1475h-232l229 483l-496 992h235l371 -760l360 760h234z" />
    <glyph glyph-name="uni0424" unicode="&#x424;" horiz-adv-x="1589" 
d="M687 0v135q-125 4 -237 45.5t-199.5 115.5t-138.5 188t-51 252q0 111 33.5 207t92 166.5t137.5 122t171 78t192 29.5v136h216v-136q125 -4 237 -46t199 -116t138 -188.5t51 -252.5t-51 -252t-138 -188t-199 -115.5t-237 -45.5v-135h-216zM903 1142v-809q176 6 291 115.5
t115 287.5t-115 289t-291 117zM687 333v809q-176 -6 -291 -117t-115 -289t115 -287.5t291 -115.5z" />
    <glyph glyph-name="uni0425" unicode="&#x425;" horiz-adv-x="1308" 
d="M284 0h-264l503 746l-489 729h262l359 -547l358 547h263l-490 -729l502 -746h-262l-371 564z" />
    <glyph glyph-name="uni0426" unicode="&#x426;" horiz-adv-x="1517" 
d="M1497 -280h-216v280h-1138v1475h216v-1273h756v1273h216v-1273h166v-482z" />
    <glyph glyph-name="uni0427" unicode="&#x427;" horiz-adv-x="1416" 
d="M1273 0h-216v603q-70 -56 -171.5 -82t-207.5 -26q-259 0 -397 137t-138 412v431h217v-349q0 -223 81 -325t277 -102q99 0 190 26t149 86v664h216v-1475z" />
    <glyph glyph-name="uni0428" unicode="&#x428;" horiz-adv-x="2132" 
d="M143 0v1475h216v-1273h599v1273h217v-1273h599v1273h216v-1475h-1847z" />
    <glyph glyph-name="uni0429" unicode="&#x429;" horiz-adv-x="2176" 
d="M2156 -280h-217v280h-1796v1475h216v-1273h599v1273h217v-1273h599v1273h216v-1273h166v-482z" />
    <glyph glyph-name="uni042A" unicode="&#x42a;" horiz-adv-x="1380" 
d="M249 1273h-256v202h472v-530h354q248 0 379.5 -125t131.5 -348t-131.5 -347.5t-379.5 -124.5h-570v1273zM465 202h353q141 0 217.5 70.5t76.5 199.5q0 130 -76.5 200t-217.5 70h-353v-540z" />
    <glyph glyph-name="uni042B" unicode="&#x42b;" horiz-adv-x="1778" 
d="M359 1475v-530h355q248 0 379.5 -125t131.5 -348t-131.5 -347.5t-379.5 -124.5h-571v1475h216zM1635 0h-215v1475h215v-1475zM359 202h354q141 0 217.5 70.5t76.5 199.5q0 130 -76.5 200t-217.5 70h-354v-540z" />
    <glyph glyph-name="uni042C" unicode="&#x42c;" horiz-adv-x="1304" 
d="M357 1475v-530h355q248 0 379.5 -125t131.5 -348t-131.5 -347.5t-379.5 -124.5h-571v1475h216zM357 202h354q141 0 217.5 70.5t76.5 199.5q0 130 -76.5 200t-217.5 70h-354v-540z" />
    <glyph glyph-name="uni042D" unicode="&#x42d;" horiz-adv-x="1462" 
d="M716 -31q-246 0 -413 120t-231 348l210 53q44 -147 155 -232t256 -85h10q244 5 360 164q88 114 105 300h-655v202h656q-14 140 -73 245t-156 161q-99 57 -227 57h-10q-162 -3 -274.5 -91.5t-150.5 -242.5l-217 30q55 241 227.5 374t427.5 133q210 0 364 -94.5t237 -269.5
q83 -177 84 -404v-10q0 -211 -81 -383q-80 -171 -236 -273q-154 -102 -368 -102z" />
    <glyph glyph-name="uni042E" unicode="&#x42e;" horiz-adv-x="2092" 
d="M359 0h-216v1475h216v-630h282q28 303 210 481.5t482 178.5q217 0 375.5 -97t240 -270t81.5 -401t-81.5 -401t-240 -270t-375.5 -97q-300 0 -482 179t-210 482h-282v-630zM1333 173q229 0 349 151.5t120 412.5t-120 413t-349 152t-349 -152t-121 -413q-1 -260 120 -412
t350 -152z" />
    <glyph glyph-name="uni042F" unicode="&#x42f;" horiz-adv-x="1333" 
d="M677 529l-345 -529h-250l358 550q-162 41 -246 157t-84 295q0 223 131.5 348t379.5 125h569v-1475h-215v529h-298zM975 732v541h-353q-141 0 -217.5 -71t-76.5 -200q0 -130 76.5 -200t217.5 -70h353z" />
    <glyph glyph-name="uni0430" unicode="&#x430;" horiz-adv-x="1166" 
d="M585 1137q231 0 344.5 -118t113.5 -359v-660h-215v162q-114 -193 -371 -193q-171 0 -273 89t-102 239q0 162 112.5 250.5t329.5 115.5l304 37q-2 126 -62 185.5t-183 59.5q-108 0 -172.5 -41.5t-91.5 -129.5l-197 52q42 151 161.5 231t301.5 80zM828 539l-277 -35
q-134 -16 -196 -62t-62 -129q0 -162 213 -162q114 0 194.5 58.5t107.5 154.5q20 53 20 167v8z" />
    <glyph glyph-name="uni0431" unicode="&#x431;" horiz-adv-x="1206" 
d="M594 -32q-232 1 -363 152t-146 420q-11 159 9 326q20 174 69 289t154 184q70 46 163.5 73.5t173.5 35.5t198 22.5t205 33.5l15 -199q-111 -24 -246.5 -38t-222.5 -29.5t-154 -53.5q-76 -44 -110.5 -118t-45.5 -218q118 182 357 182q211 0 342.5 -145.5t131.5 -379.5
q0 -243 -146.5 -391t-383.5 -146zM602 170q140 0 218 88.5t78 238.5q0 153 -77 241t-213 88q-140 0 -217.5 -87.5t-77.5 -241.5q0 -151 77 -239t212 -88z" />
    <glyph glyph-name="uni0432" unicode="&#x432;" horiz-adv-x="1091" 
d="M627 0h-485v1106h458q193 0 294.5 -76t101.5 -222q0 -89 -39 -149t-109 -87q81 -22 131.5 -93.5t50.5 -172.5q0 -150 -103 -228t-300 -78zM601 934h-259v-285h280q79 0 125 34t46 104q0 78 -47 112.5t-145 34.5zM343 172h282q202 0 202 153q0 79 -49 116.5t-131 37.5
h-304v-307z" />
    <glyph glyph-name="uni0433" unicode="&#x433;" horiz-adv-x="921" 
d="M359 0h-216v1106h727v-201h-511v-905z" />
    <glyph glyph-name="uni0434" unicode="&#x434;" horiz-adv-x="1298" 
d="M61 -239v440h108q48 55 63.5 187t15.5 326v392h846v-905h143v-440h-214v239h-748v-239h-214zM393 201h487v704h-433v-300q0 -272 -54 -404z" />
    <glyph glyph-name="uni0435" unicode="&#x435;" horiz-adv-x="1221" 
d="M626 169q202 0 284 176l211 -64q-65 -149 -194 -230.5t-301 -81.5q-245 0 -394.5 161t-149.5 423q0 263 149.5 423.5t392.5 160.5q257 0 393 -172.5t119 -471.5h-824q14 -154 97 -239t217 -85zM317 659h598q-11 136 -87 210.5t-204 74.5q-126 0 -205.5 -74.5
t-101.5 -210.5z" />
    <glyph glyph-name="uni0436" unicode="&#x436;" horiz-adv-x="1762" 
d="M774 0v532l-463 -532h-291l506 553l-458 553h272l434 -533v533h214v-533l434 533h273l-459 -553l506 -553h-291l-463 534v-534h-214z" />
    <glyph glyph-name="uni0437" unicode="&#x437;" horiz-adv-x="1065" 
d="M531 -31q-203 0 -328 91.5t-155 271.5l202 36q16 -105 87 -157.5t188 -52.5q118 0 183 45t65 124q0 80 -55 117.5t-150 37.5h-166v173h166q86 0 131 34t45 97q0 77 -58.5 119.5t-161.5 42.5q-214 0 -255 -176l-202 37q21 89 65.5 154t106.5 102t133.5 54.5t155.5 17.5
q201 0 313 -90t112 -249q0 -163 -136 -225q74 -25 120.5 -92t46.5 -158q0 -158 -121.5 -256t-331.5 -98z" />
    <glyph glyph-name="uni0438" unicode="&#x438;" horiz-adv-x="1218" 
d="M861 1106h214v-1106h-214v773l-505 -773h-214v1106h214v-773z" />
    <glyph glyph-name="uni0439" unicode="&#x439;" horiz-adv-x="1218" 
d="M637 1233q-80 0 -148 39t-107 107q-40 67 -40 149h170q0 -51 37 -88t88 -37q52 0 88.5 37t36.5 88h170q0 -80 -39.5 -148t-107.5 -107q-67 -40 -148 -40zM861 1106h214v-1106h-214v773l-505 -773h-214v1106h214v-773z" />
    <glyph glyph-name="uni043A" unicode="&#x43a;" horiz-adv-x="1069" 
d="M142 0v1106h214v-533l435 533h272l-459 -553l506 -553h-291l-463 534v-534h-214z" />
    <glyph glyph-name="uni043B" unicode="&#x43b;" horiz-adv-x="1209" 
d="M41 -13v184q22 -7 46 -7q41 0 69 27.5t44 84.5t23 133.5t7 184.5v512h836v-1106h-214v905h-422v-380q0 -556 -279 -556q-45 0 -110 18z" />
    <glyph glyph-name="uni043C" unicode="&#x43c;" horiz-adv-x="1420" 
d="M356 0h-214v1106h214l354 -687l352 687h215v-1106h-215v695l-266 -521h-173l-267 521v-695z" />
    <glyph glyph-name="uni043D" unicode="&#x43d;" horiz-adv-x="1253" 
d="M356 0h-214v1106h214v-453h540v453h214v-1106h-214v453h-540v-453z" />
    <glyph glyph-name="uni043E" unicode="&#x43e;" horiz-adv-x="1248" 
d="M624 -31q-246 0 -394 162t-148 423q0 260 148.5 421.5t393.5 161.5q246 0 394 -161.5t148 -421.5q0 -262 -148 -423.5t-394 -161.5zM624 171q152 0 233.5 102t81.5 281q0 180 -81.5 280.5t-233.5 100.5q-153 0 -234 -100.5t-81 -280.5t82 -281.5t233 -101.5z" />
    <glyph glyph-name="uni043F" unicode="&#x43f;" horiz-adv-x="1208" 
d="M356 0h-214v1106h923v-1106h-214v905h-495v-905z" />
    <glyph glyph-name="uni0440" unicode="&#x440;" 
d="M357 -492h-214v1598h214v-161q110 192 356 192q223 0 362 -163t139 -420q0 -260 -139 -422.5t-362 -162.5q-246 0 -356 192v-653zM672 171q154 0 234.5 104t80.5 279q0 177 -80.5 279t-234.5 102q-156 0 -235.5 -103t-79.5 -278q0 -178 81.5 -280.5t233.5 -102.5z" />
    <glyph glyph-name="uni0441" unicode="&#x441;" horiz-adv-x="1164" 
d="M616 -31q-164 0 -286 75t-185 206.5t-63 302.5q0 262 145.5 423t392.5 161q181 0 309.5 -90.5t169.5 -246.5l-213 -62q-31 92 -103.5 144.5t-166.5 52.5q-150 0 -228.5 -103t-78.5 -279t79 -279t228 -103q197 0 266 184l217 -51q-55 -162 -179.5 -248.5t-303.5 -86.5z
" />
    <glyph glyph-name="uni0442" unicode="&#x442;" horiz-adv-x="1057" 
d="M636 0h-214v905h-371v201h956v-201h-371v-905z" />
    <glyph glyph-name="uni0443" unicode="&#x443;" horiz-adv-x="1123" 
d="M497 -492h-204l182 497l-447 1101h223l328 -831l311 831h217z" />
    <glyph glyph-name="uni0444" unicode="&#x444;" horiz-adv-x="1583" 
d="M684 -461v443q-126 3 -234 41t-191 107.5t-130 178t-47 243.5q0 109 31 201t86 158.5t130.5 114t165 72t189.5 26.5v330h215v-330q126 -3 234 -41t191 -108t130 -178.5t47 -244.5q0 -109 -31 -201t-85.5 -158.5t-130.5 -113.5t-165.5 -71t-189.5 -26v-443h-215zM899 928
v-750q174 4 278.5 104t104.5 270q0 171 -104.5 271.5t-278.5 104.5zM684 178v750q-174 -5 -278.5 -105t-104.5 -271q0 -170 104.5 -269.5t278.5 -104.5z" />
    <glyph glyph-name="uni0445" unicode="&#x445;" horiz-adv-x="1116" 
d="M275 0h-255l414 559l-404 547h254l275 -380l272 380h254l-404 -547l415 -559h-255l-282 392z" />
    <glyph glyph-name="uni0446" unicode="&#x446;" horiz-adv-x="1239" 
d="M1219 -239h-214v239h-863v1106h214v-905h505v905h214v-905h144v-440z" />
    <glyph glyph-name="uni0447" unicode="&#x447;" horiz-adv-x="1108" 
d="M966 0h-215v418q-110 -67 -282 -67q-197 0 -292 104t-95 319v332h214v-301q0 -138 48.5 -201t170.5 -63q135 0 236 71v494h215v-1106z" />
    <glyph glyph-name="uni0448" unicode="&#x448;" horiz-adv-x="1773" 
d="M142 0v1106h214v-905h423v905h214v-905h423v905h214v-1106h-1488z" />
    <glyph glyph-name="uni0449" unicode="&#x449;" horiz-adv-x="1795" 
d="M1775 -239h-214v239h-1418v1106h214v-905h423v905h214v-905h423v905h214v-905h144v-440z" />
    <glyph glyph-name="uni044A" unicode="&#x44a;" horiz-adv-x="1280" 
d="M297 0v904h-256v202h470v-392h287q195 0 297.5 -100t102.5 -258t-102.5 -257t-297.5 -99h-501zM511 177h256q108 0 162 49t54 130t-54 131t-162 50h-256v-360z" />
    <glyph glyph-name="uni044B" unicode="&#x44b;" horiz-adv-x="1522" 
d="M1379 0h-214v1106h214v-1106zM644 0h-501v1106h214v-392h287q195 0 297.5 -100t102.5 -258t-102.5 -257t-297.5 -99zM357 177h256q108 0 162 49t54 130t-54 131t-162 50h-256v-360z" />
    <glyph glyph-name="uni044C" unicode="&#x44c;" horiz-adv-x="1126" 
d="M643 0h-501v1106h215v-392h286q195 0 298 -100t103 -258t-103 -257t-298 -99zM357 177h256q108 0 162 49t54 130t-54 131t-162 50h-256v-360z" />
    <glyph glyph-name="uni044D" unicode="&#x44d;" horiz-adv-x="1165" 
d="M550 -31q-179 0 -303.5 86t-179.5 249l217 51q68 -184 265 -184q128 0 204.5 78t95.5 219h-431v172h431q-18 138 -94 216.5t-201 78.5q-98 0 -170.5 -51.5t-103.5 -145.5l-213 62q41 156 170 246.5t312 90.5q161 0 282.5 -73.5t187.5 -207.5q64 -132 64 -304
q0 -171 -64 -303t-184 -205q-121 -75 -285 -75z" />
    <glyph glyph-name="uni044E" unicode="&#x44e;" horiz-adv-x="1728" 
d="M1104 -31q-219 0 -362 130t-173 346h-213v-445h-214v1106h214v-446h213q30 217 174 347t361 130q247 0 395 -162t148 -421q0 -261 -148.5 -423t-394.5 -162zM1104 171q154 0 234.5 104t80.5 279q0 178 -80.5 279.5t-234.5 101.5q-156 0 -235 -102.5t-79 -278.5
q0 -178 81 -280.5t233 -102.5z" />
    <glyph glyph-name="uni044F" unicode="&#x44f;" horiz-adv-x="1138" 
d="M312 0h-224l211 427q-101 42 -153 127t-52 196q0 158 103 257t298 99h500v-1106h-214v392h-273zM781 929h-256q-108 0 -162 -49t-54 -130t54 -131t162 -50h256v360z" />
    <glyph glyph-name="uni0450" unicode="&#x450;" horiz-adv-x="1221" 
d="M546 1270l-147 358h168l147 -358h-168zM626 169q202 0 284 176l211 -64q-65 -149 -194 -230.5t-301 -81.5q-245 0 -394.5 161t-149.5 423q0 263 149.5 423.5t392.5 160.5q257 0 393 -172.5t119 -471.5h-824q14 -154 97 -239t217 -85zM317 659h598q-11 136 -87 210.5
t-204 74.5q-126 0 -205.5 -74.5t-101.5 -210.5z" />
    <glyph glyph-name="uni0451" unicode="&#x451;" horiz-adv-x="1221" 
d="M727 1291v205h205v-205h-205zM314 1291v205h205v-205h-205zM626 169q202 0 284 176l211 -64q-65 -149 -194 -230.5t-301 -81.5q-245 0 -394.5 161t-149.5 423q0 263 149.5 423.5t392.5 160.5q257 0 393 -172.5t119 -471.5h-824q14 -154 97 -239t217 -85zM317 659h598
q-11 136 -87 210.5t-204 74.5q-126 0 -205.5 -74.5t-101.5 -210.5z" />
    <glyph glyph-name="uni0452" unicode="&#x452;" horiz-adv-x="1258" 
d="M144 1201h-116v171h116v103h215v-103h202v-171h-202v-248q97 184 334 184q206 0 324.5 -122t118.5 -365v-841q0 -143 -76 -221t-224 -78h-136v200h68q82 0 117.5 35.5t35.5 117.5v745q0 161 -73 244t-206 83t-208 -83.5t-75 -243.5v-608h-215v1201z" />
    <glyph glyph-name="uni0453" unicode="&#x453;" horiz-adv-x="921" 
d="M702 1628l-145 -358h-168l146 358h167zM359 0h-216v1106h727v-201h-511v-905z" />
    <glyph glyph-name="uni0454" unicode="&#x454;" horiz-adv-x="1165" 
d="M615 -31q-162 0 -283.5 74t-185.5 207q-64 131 -64 302t65 304t186 207q122 74 283 74q183 0 312.5 -90.5t170.5 -246.5l-213 -62q-31 94 -104 145.5t-171 51.5q-125 0 -201 -78.5t-94 -216.5h432v-172h-432q19 -141 95.5 -219t204.5 -78q198 0 266 184l217 -51
q-55 -162 -179.5 -248.5t-304.5 -86.5z" />
    <glyph glyph-name="uni0455" unicode="&#x455;" horiz-adv-x="1097" 
d="M568 -30q-202 0 -327 87.5t-159 252.5l220 35q48 -186 270 -186q103 0 163.5 40t60.5 111q0 43 -22 70t-82 50q-70 24 -187 56q-97 25 -163.5 51t-119.5 63.5t-78.5 88.5t-25.5 119q0 148 119 238.5t313 90.5q188 0 312.5 -88t146.5 -237l-219 -40q-11 82 -77.5 129.5
t-169.5 47.5q-91 0 -151 -37.5t-60 -95.5q0 -22 11 -41t25 -30.5t44 -24.5t48.5 -19.5t57.5 -18.5q95 -27 208 -61q155 -46 222 -116.5t67 -185.5q0 -163 -119.5 -256t-327.5 -93z" />
    <glyph glyph-name="uni0456" unicode="&#x456;" horiz-adv-x="541" 
d="M378 1287h-214v208h214v-208zM378 0h-214v1106h214v-1106z" />
    <glyph glyph-name="uni0457" unicode="&#x457;" horiz-adv-x="541" 
d="M580 1291h-205v205h205v-205zM167 1291h-205v205h205v-205zM378 0h-214v1106h214v-1106z" />
    <glyph glyph-name="uni0458" unicode="&#x458;" horiz-adv-x="564" 
d="M408 1287h-215v208h215v-208zM108 -490h-136v200h68q82 0 117.5 35.5t35.5 117.5v1243h215v-1297q0 -143 -76 -221t-224 -78z" />
    <glyph glyph-name="uni0459" unicode="&#x459;" horiz-adv-x="1836" 
d="M41 -12v184q26 -8 46 -8q80 0 111.5 108t31.5 328v506h837v-392h287q195 0 297.5 -100t102.5 -258t-102.5 -257t-297.5 -99h-502v905h-422v-388q0 -269 -72.5 -408t-210.5 -139q-49 0 -106 18zM1067 177h256q108 0 162 49t54 130t-54 131t-162 50h-256v-360z" />
    <glyph glyph-name="uni045A" unicode="&#x45a;" horiz-adv-x="1879" 
d="M356 0h-214v1106h214v-453h540v453h214v-392h287q195 0 297.5 -100t102.5 -258t-102.5 -257t-297.5 -99h-501v453h-540v-453zM1110 177h256q108 0 162 49t54 130t-54 131t-162 50h-256v-360z" />
    <glyph glyph-name="uni045B" unicode="&#x45b;" horiz-adv-x="1260" 
d="M145 1201h-117v171h117v103h214v-103h204v-171h-204v-248q97 184 335 184q205 0 323.5 -122t118.5 -365v-650h-214v608q0 160 -73.5 243.5t-206.5 83.5t-208 -83.5t-75 -243.5v-608h-214v1201z" />
    <glyph glyph-name="uni045C" unicode="&#x45c;" horiz-adv-x="1069" 
d="M593 1270h-168l146 358h168zM142 0v1106h214v-533l435 533h272l-459 -553l506 -553h-291l-463 532v-532h-214z" />
    <glyph glyph-name="uni045D" unicode="&#x45d;" horiz-adv-x="1218" 
d="M778 1270h-168l-145 358h168zM861 1106h214v-1106h-214v773l-505 -773h-214v1106h214v-773z" />
    <glyph glyph-name="uni045E" unicode="&#x45e;" horiz-adv-x="1123" 
d="M591 1233q-79 0 -147.5 39t-107.5 107q-40 67 -40 149h170q0 -51 37 -88t88 -37q53 0 89 36.5t36 88.5h170q0 -80 -39.5 -148t-107.5 -107q-67 -40 -148 -40zM497 -492h-204l182 497l-447 1101h223l328 -831l311 831h217z" />
    <glyph glyph-name="uni045F" unicode="&#x45f;" horiz-adv-x="1208" 
d="M711 -239h-214v239h-355v1106h214v-904h495v904h214v-1106h-354v-239z" />
    <glyph glyph-name="uni0490" unicode="&#x490;" horiz-adv-x="1127" 
d="M359 0h-216v1475h749v279h215v-481h-748v-1273z" />
    <glyph glyph-name="uni0491" unicode="&#x491;" horiz-adv-x="920" 
d="M357 0h-214v1106h511v239h215v-441h-512v-904z" />
    <glyph glyph-name="uni04AE" unicode="&#x4ae;" horiz-adv-x="1214" 
d="M716 0h-216v609l-500 866h250l357 -620l358 620h249l-498 -866v-609z" />
    <glyph glyph-name="uni04AF" unicode="&#x4af;" horiz-adv-x="1101" 
d="M659 -369h-217v369l-401 1106h216l294 -838l294 838h216l-402 -1106v-369z" />
    <glyph glyph-name="uni04BA" unicode="&#x4ba;" horiz-adv-x="1364" 
d="M41 1475h216v-604q70 57 172 83t207 26q258 0 396 -137.5t138 -412.5v-430h-217v348q0 223 -81 325t-276 102q-231 0 -339 -111v-664h-216v1475z" />
    <glyph glyph-name="uni04BB" unicode="&#x4bb;" horiz-adv-x="1170" 
d="M467 0h-215v1106h215v-418q110 67 282 67q197 0 292 -104t95 -319v-332h-214v301q0 138 -49 201t-171 63q-134 0 -235 -71v-494z" />
    <glyph glyph-name="uni04E8" unicode="&#x4e8;" horiz-adv-x="1557" 
d="M759 -31q-215 0 -373.5 96t-241.5 271t-83 401q0 229 83 402.5t240 269.5q155 96 375 96q215 0 372.5 -95t241.5 -270q82 -176 82 -403q0 -229 -82.5 -402t-238.5 -269q-157 -97 -375 -97zM294 839h929q-10 106 -47 195q-54 129 -159.5 198t-257.5 70h-8q-147 0 -251 -69
t-158 -197q-36 -87 -48 -197zM759 173h8q146 0 250.5 68.5t158.5 196.5q37 90 47 198h-929q11 -112 47 -196q54 -129 160 -197.5t258 -69.5z" />
    <glyph glyph-name="uni04E9" unicode="&#x4e9;" horiz-adv-x="1248" 
d="M624 -31q-162 0 -285.5 74t-190.5 208q-66 132 -66 303t67.5 303.5t190.5 206.5q125 73 284 73q162 0 285.5 -73.5t190.5 -206.5q66 -133 66 -303q0 -172 -67 -304.5t-190 -206.5q-125 -74 -285 -74zM314 640h619q-15 118 -75 193q-80 102 -234 102q-104 0 -175 -46.5
t-105 -133.5q-23 -58 -30 -115zM624 171q102 0 173 47t106 135q23 58 30 115h-619q8 -60 31 -118q75 -179 279 -179z" />
    <glyph glyph-name="Wgrave" unicode="&#x1e80;" horiz-adv-x="1971" 
d="M1058 1638h-168l-146 359h168zM676 0h-226l-422 1475h225l309 -1130l310 1130h226l310 -1130l309 1130h227l-422 -1475h-227l-310 1116z" />
    <glyph glyph-name="wgrave" unicode="&#x1e81;" horiz-adv-x="1625" 
d="M883 1270h-168l-147 358h168zM1027 0l-215 765l-215 -765h-217l-339 1106h216l231 -804l232 804h184l232 -804l232 804h216l-340 -1106h-217z" />
    <glyph glyph-name="Wacute" unicode="&#x1e82;" horiz-adv-x="1971" 
d="M1227 1997l-147 -359h-168l147 359h168zM676 0h-226l-422 1475h225l309 -1130l310 1130h226l310 -1130l309 1130h227l-422 -1475h-227l-310 1116z" />
    <glyph glyph-name="wacute" unicode="&#x1e83;" horiz-adv-x="1625" 
d="M1051 1628l-146 -358h-168l146 358h168zM1027 0l-215 765l-215 -765h-217l-339 1106h216l231 -804l232 804h184l232 -804l232 804h216l-340 -1106h-217z" />
    <glyph glyph-name="Wdieresis" unicode="&#x1e84;" horiz-adv-x="1971" 
d="M1295 1660h-204v205h204v-205zM883 1660h-205v205h205v-205zM676 0h-226l-422 1475h225l309 -1130l310 1130h226l310 -1130l309 1130h227l-422 -1475h-227l-310 1116z" />
    <glyph glyph-name="wdieresis" unicode="&#x1e85;" horiz-adv-x="1625" 
d="M1118 1291h-205v205h205v-205zM706 1291h-205v205h205v-205zM1027 0l-215 765l-215 -765h-217l-339 1106h216l231 -804l232 804h184l232 -804l232 804h216l-340 -1106h-217z" />
    <glyph glyph-name="Germandbls" unicode="&#x1e9e;" horiz-adv-x="1507" 
d="M916 -31q-121 0 -208 31v210q84 -29 182 -29q129 0 206.5 64.5t77.5 188.5q0 129 -98.5 197t-257.5 70l-34 142l241 398q-108 61 -248 61q-153 0 -255 -70.5t-137 -198.5q-25 -99 -25 -247v-786h-218v851q0 173 35 277q64 197 220 286q159 91 364 91q213 0 383 -83
q79 -41 146 -85q2 -2 5 -3l-276 -481q218 -41 316 -215q49 -89 49 -210q0 -213 -124 -336t-344 -123z" />
    <glyph glyph-name="uni1EA0" unicode="&#x1ea0;" horiz-adv-x="1348" 
d="M815 1475l498 -1475h-227l-111 333h-601l-111 -333h-227l498 1475h281zM440 534h468l-234 700zM561 -396v208h226v-208h-226z" />
    <glyph glyph-name="uni1EA1" unicode="&#x1ea1;" horiz-adv-x="1166" 
d="M585 1137q231 0 344.5 -118t113.5 -359v-660h-215v162q-114 -193 -371 -193q-171 0 -273 89t-102 239q0 162 112.5 250.5t329.5 115.5l304 37q-2 126 -62 185.5t-183 59.5q-108 0 -172.5 -41.5t-91.5 -129.5l-197 52q42 151 161.5 231t301.5 80zM828 539l-277 -35
q-134 -16 -196 -62t-62 -129q0 -162 213 -162q114 0 194.5 58.5t107.5 154.5q20 53 20 167v8zM473 -396v208h226v-208h-226z" />
    <glyph glyph-name="uni1EA2" unicode="&#x1ea2;" horiz-adv-x="1348" 
d="M476 2013q54 49 103 60q46 10 71 10q40 0 98 -24q52 -22 85 -95q22 -48 22 -95q0 -27 -13 -72t-68 -91q-55 -45 -122 -57l-46 91q40 14 68.5 38t34.5 46q5 22 5 31q0 19 -11 43q-23 46 -67 46q-12 0 -29 -1q-25 -1 -71 -37zM815 1475l498 -1475h-227l-111 333h-601
l-111 -333h-227l498 1475h281zM440 534h468l-234 700z" />
    <glyph glyph-name="uni1EA3" unicode="&#x1ea3;" horiz-adv-x="1166" 
d="M416 1650q53 48 101 59q46 10 73 10q45 0 96 -22q50 -22 86 -96q22 -50 22 -94q0 -23 -14 -71q-14 -49 -67 -93q-55 -44 -121 -58l-47 91q40 14 68.5 38t34.5 46q5 22 5 31q0 20 -11 44q-22 45 -67 45q-11 0 -28 -1q-27 -2 -73 -37zM585 1137q231 0 344.5 -118
t113.5 -359v-660h-215v162q-114 -193 -371 -193q-171 0 -273 89t-102 239q0 162 112.5 250.5t329.5 115.5l304 37q-2 126 -62 185.5t-183 59.5q-108 0 -172.5 -41.5t-91.5 -129.5l-197 52q42 151 161.5 231t301.5 80zM828 539l-277 -35q-134 -16 -196 -62t-62 -129
q0 -162 213 -162q114 0 194.5 58.5t107.5 154.5q20 53 20 167v8z" />
    <glyph glyph-name="uni1EA4" unicode="&#x1ea4;" horiz-adv-x="1348" 
d="M1154 1853h-168l147 359h167zM314 1638l266 308h184l264 -308h-205l-151 182l-153 -182h-205zM815 1475l498 -1475h-227l-111 333h-601l-111 -333h-227l498 1475h281zM440 534h468l-234 700z" />
    <glyph glyph-name="uni1EA5" unicode="&#x1ea5;" horiz-adv-x="1166" 
d="M1089 1485h-168l146 358h168zM249 1270l265 307h184l265 -307h-205l-152 181l-152 -181h-205zM585 1137q231 0 344.5 -118t113.5 -359v-660h-215v162q-114 -193 -371 -193q-171 0 -273 89t-102 239q0 162 112.5 250.5t329.5 115.5l304 37q-2 126 -62 185.5t-183 59.5
q-108 0 -172.5 -41.5t-91.5 -129.5l-197 52q42 151 161.5 231t301.5 80zM828 539l-277 -35q-134 -16 -196 -62t-62 -129q0 -162 213 -162q114 0 194.5 58.5t107.5 154.5q20 53 20 167v8z" />
    <glyph glyph-name="uni1EA6" unicode="&#x1ea6;" horiz-adv-x="1348" 
d="M994 1853l-146 359h168l146 -359h-168zM314 1638l266 308h184l264 -308h-205l-151 182l-153 -182h-205zM815 1475l498 -1475h-227l-111 333h-601l-111 -333h-227l498 1475h281zM440 534h468l-234 700z" />
    <glyph glyph-name="uni1EA7" unicode="&#x1ea7;" horiz-adv-x="1166" 
d="M927 1485l-147 358h168l147 -358h-168zM247 1270l265 307h184l265 -307h-205l-152 181l-152 -181h-205zM585 1137q231 0 344.5 -118t113.5 -359v-660h-215v162q-114 -193 -371 -193q-171 0 -273 89t-102 239q0 162 112.5 250.5t329.5 115.5l304 37q-2 126 -62 185.5
t-183 59.5q-108 0 -172.5 -41.5t-91.5 -129.5l-197 52q42 151 161.5 231t301.5 80zM828 539l-277 -35q-134 -16 -196 -62t-62 -129q0 -162 213 -162q114 0 194.5 58.5t107.5 154.5q20 53 20 167v8z" />
    <glyph glyph-name="uni1EA8" unicode="&#x1ea8;" horiz-adv-x="1348" 
d="M944 2013q54 49 102 60q46 10 71 10q40 0 98 -24q52 -22 85 -95q22 -52 22 -95q0 -25 -12 -72q-13 -46 -69 -91t-121 -57l-46 91q39 14 68 38t35 46q5 22 5 30q0 18 -12 44q-23 46 -66 46q-12 0 -29 -1q-27 -2 -73 -37zM315 1638l266 308h184l264 -308h-205l-151 182
l-153 -182h-205zM815 1475l498 -1475h-227l-111 333h-601l-111 -333h-227l498 1475h281zM440 534h468l-234 700z" />
    <glyph glyph-name="uni1EA9" unicode="&#x1ea9;" horiz-adv-x="1166" 
d="M861 1645q53 48 102 59q46 10 71 10q43 0 98 -23q50 -22 86 -96q21 -50 21 -94q0 -26 -13 -71q-13 -47 -68 -93q-56 -45 -121 -57l-47 91q40 14 69 38t35 46q5 22 5 31q0 18 -12 44q-23 45 -66 45q-12 0 -29 -1q-26 -2 -72 -37zM232 1270l265 307h184l265 -307h-205
l-152 181l-152 -181h-205zM585 1137q231 0 344.5 -118t113.5 -359v-660h-215v162q-114 -193 -371 -193q-171 0 -273 89t-102 239q0 162 112.5 250.5t329.5 115.5l304 37q-2 126 -62 185.5t-183 59.5q-108 0 -172.5 -41.5t-91.5 -129.5l-197 52q42 151 161.5 231t301.5 80z
M828 539l-277 -35q-134 -16 -196 -62t-62 -129q0 -162 213 -162q114 0 194.5 58.5t107.5 154.5q20 53 20 167v8z" />
    <glyph glyph-name="uni1EAA" unicode="&#x1eaa;" horiz-adv-x="1348" 
d="M845 1997q-42 0 -83.5 18t-106.5 60q-50 32 -75.5 44t-48.5 12t-36 -17t-14.5 -28.5t-1.5 -21.5q0 -23 7 -44h-139q-11 47 -11 84q0 27 9 72q9 43 54 79t116 36q43 0 85 -18.5t106 -60.5q49 -31 74 -43t48 -12q32 0 43 24t11 44q0 19 -8 43h140q10 -43 10 -83
q0 -27 -9 -72t-53 -80q-45 -36 -117 -36zM313 1638l266 308h184l264 -308h-205l-151 182l-153 -182h-205zM815 1475l498 -1475h-227l-111 333h-601l-111 -333h-227l498 1475h281zM440 534h468l-234 700z" />
    <glyph glyph-name="uni1EAB" unicode="&#x1eab;" horiz-adv-x="1166" 
d="M763 1628q-43 0 -83.5 18t-107.5 60q-85 56 -122 56q-18 0 -30 -8.5t-16.5 -22t-5.5 -20.5t-1 -14q0 -23 6 -45h-139q-10 43 -10 83q0 27 9 72q9 44 53 79q45 36 116 36q43 0 84 -18t108 -61q84 -55 122 -55q34 0 44 24q9 22 9 43q0 24 -7 45h139q11 -47 11 -85
q0 -27 -9 -71q-9 -45 -53 -80q-45 -36 -117 -36zM230 1270l266 307h184l265 -307h-205l-152 181l-153 -181h-205zM585 1137q231 0 344.5 -118t113.5 -359v-660h-215v162q-114 -193 -371 -193q-171 0 -273 89t-102 239q0 162 112.5 250.5t329.5 115.5l304 37
q-2 126 -62 185.5t-183 59.5q-108 0 -172.5 -41.5t-91.5 -129.5l-197 52q42 151 161.5 231t301.5 80zM828 539l-277 -35q-134 -16 -196 -62t-62 -129q0 -162 213 -162q114 0 194.5 58.5t107.5 154.5q20 53 20 167v8z" />
    <glyph glyph-name="uni1EAC" unicode="&#x1eac;" horiz-adv-x="1348" 
d="M315 1638l266 308h184l264 -308h-205l-151 182l-153 -182h-205zM815 1475l498 -1475h-227l-111 333h-601l-111 -333h-227l498 1475h281zM440 534h468l-234 700zM561 -396v208h226v-208h-226z" />
    <glyph glyph-name="uni1EAD" unicode="&#x1ead;" horiz-adv-x="1166" 
d="M241 1270l264 307h184l265 -307h-204l-153 181l-152 -181h-204zM585 1137q231 0 344.5 -118t113.5 -359v-660h-215v162q-114 -193 -371 -193q-171 0 -273 89t-102 239q0 162 112.5 250.5t329.5 115.5l304 37q-2 126 -62 185.5t-183 59.5q-108 0 -172.5 -41.5
t-91.5 -129.5l-197 52q42 151 161.5 231t301.5 80zM828 539l-277 -35q-134 -16 -196 -62t-62 -129q0 -162 213 -162q114 0 194.5 58.5t107.5 154.5q20 53 20 167v8zM473 -396v208h226v-208h-226z" />
    <glyph glyph-name="uni1EAE" unicode="&#x1eae;" horiz-adv-x="1348" 
d="M760 1976h-168l146 359h168zM674 1602q-79 0 -147.5 39t-107.5 107q-40 67 -40 148h170q0 -51 37 -87.5t88 -36.5q53 0 89 36.5t36 87.5h170q0 -80 -39.5 -148t-107.5 -107q-65 -39 -148 -39zM815 1475l498 -1475h-227l-111 333h-601l-111 -333h-227l498 1475h281z
M440 534h468l-234 700z" />
    <glyph glyph-name="uni1EAF" unicode="&#x1eaf;" horiz-adv-x="1166" 
d="M679 1608h-168l146 358h168zM593 1233q-80 0 -148 39t-107 107q-40 67 -40 149h170q0 -51 37 -88t88 -37q52 0 88.5 37t36.5 88h170q0 -80 -39.5 -148t-107.5 -107q-67 -40 -148 -40zM585 1137q231 0 344.5 -118t113.5 -359v-660h-215v162q-114 -193 -371 -193
q-171 0 -273 89t-102 239q0 162 112.5 250.5t329.5 115.5l304 37q-2 126 -62 185.5t-183 59.5q-108 0 -172.5 -41.5t-91.5 -129.5l-197 52q42 151 161.5 231t301.5 80zM828 539l-277 -35q-134 -16 -196 -62t-62 -129q0 -162 213 -162q114 0 194.5 58.5t107.5 154.5
q20 53 20 167v8z" />
    <glyph glyph-name="uni1EB0" unicode="&#x1eb0;" horiz-adv-x="1348" 
d="M588 1976l-146 359h168l146 -359h-168zM674 1602q-79 0 -147.5 39t-107.5 107q-40 67 -40 148h170q0 -51 37 -87.5t88 -36.5q52 0 88.5 36.5t36.5 87.5h170q0 -80 -39.5 -148t-107.5 -107q-65 -39 -148 -39zM815 1475l498 -1475h-227l-111 333h-601l-111 -333h-227
l498 1475h281zM440 534h468l-234 700z" />
    <glyph glyph-name="uni1EB1" unicode="&#x1eb1;" horiz-adv-x="1166" 
d="M512 1608l-145 358h168l145 -358h-168zM598 1233q-79 0 -147.5 39t-107.5 107q-40 67 -40 149h170q0 -51 37 -88t88 -37q52 0 88.5 37t36.5 88h170q0 -80 -39.5 -148t-107.5 -107q-67 -40 -148 -40zM585 1137q231 0 344.5 -118t113.5 -359v-660h-215v162
q-114 -193 -371 -193q-171 0 -273 89t-102 239q0 162 112.5 250.5t329.5 115.5l304 37q-2 126 -62 185.5t-183 59.5q-108 0 -172.5 -41.5t-91.5 -129.5l-197 52q42 151 161.5 231t301.5 80zM828 539l-277 -35q-134 -16 -196 -62t-62 -129q0 -162 213 -162q114 0 194.5 58.5
t107.5 154.5q20 53 20 167v8z" />
    <glyph glyph-name="uni1EB2" unicode="&#x1eb2;" horiz-adv-x="1348" 
d="M453 2328q53 48 102 59q46 10 72 10q42 0 97 -23q51 -22 85 -96q22 -48 22 -95q0 -27 -13 -72q-13 -46 -67 -91q-55 -45 -122 -57l-46 91q39 14 67.5 38t34.5 46q5 22 5 32q0 22 -10 43q-22 45 -68 45q-11 0 -28 -1q-26 -2 -72 -37zM674 1602q-79 0 -147.5 39t-107.5 107
q-40 67 -40 148h170q0 -51 37 -87.5t88 -36.5q53 0 89 36.5t36 87.5h170q0 -80 -39.5 -148t-107.5 -107q-65 -39 -148 -39zM815 1475l498 -1475h-227l-111 333h-601l-111 -333h-227l498 1475h281zM440 534h468l-234 700z" />
    <glyph glyph-name="uni1EB3" unicode="&#x1eb3;" horiz-adv-x="1166" 
d="M399 1959q52 48 103 59q50 11 71 11q40 0 98 -24q52 -22 85 -95q22 -48 22 -95q0 -27 -13 -72t-68 -91q-57 -46 -122 -58l-46 92q40 14 68.5 37.5t34.5 45.5q5 22 5 32q0 22 -10 43q-23 45 -68 45q-12 0 -29 -1q-25 -1 -71 -37zM621 1233q-79 0 -147.5 39t-107.5 107
q-40 67 -40 149h170q0 -51 37 -88t88 -37q53 0 88.5 36.5t35.5 88.5h170q0 -80 -39 -148t-107 -107q-67 -40 -148 -40zM585 1137q231 0 344.5 -118t113.5 -359v-660h-215v162q-114 -193 -371 -193q-171 0 -273 89t-102 239q0 162 112.5 250.5t329.5 115.5l304 37
q-2 126 -62 185.5t-183 59.5q-108 0 -172.5 -41.5t-91.5 -129.5l-197 52q42 151 161.5 231t301.5 80zM828 539l-277 -35q-134 -16 -196 -62t-62 -129q0 -162 213 -162q114 0 194.5 58.5t107.5 154.5q20 53 20 167v8z" />
    <glyph glyph-name="uni1EB4" unicode="&#x1eb4;" horiz-adv-x="1348" 
d="M821 1963q-42 0 -83 18t-106 60q-49 31 -75 43t-49 12t-36 -16t-14.5 -27.5t-1.5 -22.5q0 -22 7 -43h-139q-12 51 -12 84q0 21 10 71q9 43 54 79q44 35 116 35q42 0 83 -18t107 -60q49 -31 74.5 -43t48.5 -12q33 0 43 24q10 21 10 43t-7 43h139q10 -41 10 -83
q0 -26 -9 -71t-53 -80q-45 -36 -117 -36zM653 1602q-80 0 -148 39t-107 107q-40 67 -40 148h170q0 -51 37 -87.5t88 -36.5q52 0 88.5 36.5t36.5 87.5h170q0 -80 -39 -148t-107 -107q-65 -39 -149 -39zM815 1475l498 -1475h-227l-111 333h-601l-111 -333h-227l498 1475h281z
M440 534h468l-234 700z" />
    <glyph glyph-name="uni1EB5" unicode="&#x1eb5;" horiz-adv-x="1166" 
d="M752 1594q-42 0 -83.5 18t-106.5 60q-49 31 -75 43t-49 12t-36 -16t-14.5 -27.5t-1.5 -22.5q0 -22 7 -43h-139q-11 47 -11 84q0 27 9 72q9 42 54 78q44 35 116 35q42 0 83 -18t107 -60q49 -31 74.5 -43t48.5 -12q32 0 43 25q10 21 10 43t-7 43h140q10 -41 10 -83
q0 -27 -9 -72q-9 -44 -54 -80t-116 -36zM584 1233q-80 0 -148 39t-107 107q-40 67 -40 149h170q0 -51 37 -88t88 -37q52 0 88.5 37t36.5 88h170q0 -80 -39.5 -148t-107.5 -107q-67 -40 -148 -40zM585 1137q231 0 344.5 -118t113.5 -359v-660h-215v162q-114 -193 -371 -193
q-171 0 -273 89t-102 239q0 162 112.5 250.5t329.5 115.5l304 37q-2 126 -62 185.5t-183 59.5q-108 0 -172.5 -41.5t-91.5 -129.5l-197 52q42 151 161.5 231t301.5 80zM828 539l-277 -35q-134 -16 -196 -62t-62 -129q0 -162 213 -162q114 0 194.5 58.5t107.5 154.5
q20 53 20 167v8z" />
    <glyph glyph-name="uni1EB6" unicode="&#x1eb6;" horiz-adv-x="1348" 
d="M675 1602q-79 0 -147.5 39t-107.5 107q-40 67 -40 148h170q0 -51 37 -87.5t88 -36.5q53 0 89 36.5t36 87.5h170q0 -80 -39.5 -148t-107.5 -107q-65 -39 -148 -39zM815 1475l498 -1475h-227l-111 333h-601l-111 -333h-227l498 1475h281zM440 534h468l-234 700zM561 -396
v208h226v-208h-226z" />
    <glyph glyph-name="uni1EB7" unicode="&#x1eb7;" horiz-adv-x="1166" 
d="M595 1233q-79 0 -147.5 39t-107.5 107q-40 67 -40 149h170q0 -51 37 -88t88 -37q53 0 89 36.5t36 88.5h170q0 -80 -39.5 -148t-107.5 -107q-67 -40 -148 -40zM585 1137q231 0 344.5 -118t113.5 -359v-660h-215v162q-114 -193 -371 -193q-171 0 -273 89t-102 239
q0 162 112.5 250.5t329.5 115.5l304 37q-2 126 -62 185.5t-183 59.5q-108 0 -172.5 -41.5t-91.5 -129.5l-197 52q42 151 161.5 231t301.5 80zM828 539l-277 -35q-134 -16 -196 -62t-62 -129q0 -162 213 -162q114 0 194.5 58.5t107.5 154.5q20 53 20 167v8zM473 -396v208h226
v-208h-226z" />
    <glyph glyph-name="uni1EB8" unicode="&#x1eb8;" horiz-adv-x="1229" 
d="M1086 0h-943v1475h943v-202h-727v-414h605v-202h-605v-455h727v-202zM729 -396h-226v208h226v-208z" />
    <glyph glyph-name="uni1EB9" unicode="&#x1eb9;" horiz-adv-x="1221" 
d="M626 169q202 0 284 176l211 -64q-65 -149 -194 -230.5t-301 -81.5q-245 0 -394.5 161t-149.5 423q0 263 149.5 423.5t392.5 160.5q257 0 393 -172.5t119 -471.5h-824q14 -154 97 -239t217 -85zM317 659h598q-11 136 -87 210.5t-204 74.5q-126 0 -205.5 -74.5
t-101.5 -210.5zM525 -396v208h227v-208h-227z" />
    <glyph glyph-name="uni1EBA" unicode="&#x1eba;" horiz-adv-x="1188" 
d="M500 1906l-60 107q54 49 103 60q46 10 71 10q40 0 98 -24q52 -22 85 -95q22 -48 22 -95q0 -27 -13 -72t-68 -91q-55 -45 -122 -57l-46 91q40 14 68.5 38t34.5 46q5 22 5 31q0 22 -10 43q-23 46 -68 46q-12 0 -29 -1q-25 -1 -71 -37zM1086 0h-943v1475h943v-202h-727v-414
h605v-202h-605v-455h727v-202z" />
    <glyph glyph-name="uni1EBB" unicode="&#x1ebb;" horiz-adv-x="1228" 
d="M446 1650q53 48 102 59q46 10 73 10q45 0 96 -22q50 -22 86 -96q21 -48 21 -94q0 -26 -13 -71q-13 -47 -68 -93q-55 -45 -120 -58l-48 91q40 14 69 38t35 46q5 22 5 31q0 20 -11 44q-23 45 -67 45q-11 0 -28 -1q-27 -2 -73 -37zM626 169q202 0 284 176l211 -64
q-65 -149 -194 -230.5t-301 -81.5q-245 0 -394.5 161t-149.5 423q0 263 149.5 423.5t392.5 160.5q257 0 393 -172.5t119 -471.5h-824q14 -154 97 -239t217 -85zM317 659h598q-11 136 -87 210.5t-204 74.5q-126 0 -205.5 -74.5t-101.5 -210.5z" />
    <glyph glyph-name="uni1EBC" unicode="&#x1ebc;" horiz-adv-x="1188" 
d="M767 1642q-42 0 -83 18t-107 60q-49 32 -74.5 44.5t-48.5 12.5t-36 -16.5t-15 -28.5t-2 -23q0 -17 7 -43h-140q-10 43 -10 83q0 28 9 73q9 42 55 79q44 35 114 35q44 0 86.5 -18t105.5 -60q85 -56 123 -56q32 0 43 25q9 24 9 44q0 21 -6 43h139q10 -43 10 -83
q0 -28 -9 -73t-53 -80q-45 -36 -117 -36zM1086 0h-943v1475h943v-202h-727v-414h605v-202h-605v-455h727v-202z" />
    <glyph glyph-name="uni1EBD" unicode="&#x1ebd;" horiz-adv-x="1221" 
d="M803 1274q-42 0 -83.5 18t-107.5 60q-85 56 -123 56q-18 0 -29.5 -8.5t-16 -22.5t-5.5 -22t-1 -15q0 -20 6 -43h-139q-10 43 -10 83q0 28 9 73q9 43 54 79t115 36q43 0 85.5 -18.5t106.5 -60.5q84 -55 122 -55q32 0 43 24q10 27 10 44q0 20 -6 43h139q10 -43 10 -83
q0 -27 -9 -72t-53 -80q-45 -36 -117 -36zM626 169q202 0 284 176l211 -64q-65 -149 -194 -230.5t-301 -81.5q-245 0 -394.5 161t-149.5 423q0 263 149.5 423.5t392.5 160.5q257 0 393 -172.5t119 -471.5h-824q14 -154 97 -239t217 -85zM317 659h598q-11 136 -87 210.5
t-204 74.5q-126 0 -205.5 -74.5t-101.5 -210.5z" />
    <glyph glyph-name="uni1EBE" unicode="&#x1ebe;" horiz-adv-x="1188" 
d="M1243 2212l-146 -359h-168l146 359h168zM462 1638h-205l265 308h185l264 -308h-205l-152 182zM1086 0h-943v1475h943v-202h-727v-414h605v-202h-605v-455h727v-202z" />
    <glyph glyph-name="uni1EBF" unicode="&#x1ebf;" horiz-adv-x="1221" 
d="M1115 1485h-168l147 358h168zM275 1270l266 307h184l265 -307h-205l-152 181l-153 -181h-205zM626 169q202 0 284 176l211 -64q-65 -149 -194 -230.5t-301 -81.5q-245 0 -394.5 161t-149.5 423q0 263 149.5 423.5t392.5 160.5q257 0 393 -172.5t119 -471.5h-824
q14 -154 97 -239t217 -85zM317 659h598q-11 136 -87 210.5t-204 74.5q-126 0 -205.5 -74.5t-101.5 -210.5z" />
    <glyph glyph-name="uni1EC0" unicode="&#x1ec0;" horiz-adv-x="1188" 
d="M1138 1853h-168l-147 359h168zM495 1638h-205l264 308h184l266 -308h-205l-153 182zM1086 0h-943v1475h943v-202h-727v-414h605v-202h-605v-455h727v-202z" />
    <glyph glyph-name="uni1EC1" unicode="&#x1ec1;" horiz-adv-x="1221" 
d="M943 1485l-146 358h168l146 -358h-168zM263 1270l265 307h185l264 -307h-205l-151 181l-153 -181h-205zM626 169q202 0 284 176l211 -64q-65 -149 -194 -230.5t-301 -81.5q-245 0 -394.5 161t-149.5 423q0 263 149.5 423.5t392.5 160.5q257 0 393 -172.5t119 -471.5h-824
q14 -154 97 -239t217 -85zM317 659h598q-11 136 -87 210.5t-204 74.5q-126 0 -205.5 -74.5t-101.5 -210.5z" />
    <glyph glyph-name="uni1EC2" unicode="&#x1ec2;" horiz-adv-x="1229" 
d="M953 1906l-58 107q54 50 101 60q46 10 72 10q39 0 97 -24q51 -22 86 -95q22 -52 22 -94q0 -27 -13 -72q-13 -46 -68 -92q-56 -45 -121 -57l-47 91q40 14 68.5 38t34.5 46q6 26 6 30q0 18 -12 44q-23 46 -66 46q-12 0 -29 -1q-27 -2 -73 -37zM471 1638h-205l264 308h185
l265 -308h-205l-152 182zM1086 0h-943v1475h943v-202h-727v-414h605v-202h-605v-455h727v-202z" />
    <glyph glyph-name="uni1EC3" unicode="&#x1ec3;" horiz-adv-x="1221" 
d="M898 1645q53 48 101 59q46 10 72 10q42 0 97 -23q50 -22 86 -96q22 -52 22 -94q0 -26 -13 -71q-13 -47 -68 -93q-56 -45 -121 -57l-47 91q40 14 68.5 38t34.5 46q6 26 6 31q0 18 -12 44q-22 45 -66 45q-12 0 -29 -1q-27 -2 -73 -37zM269 1270l265 307h184l265 -307h-205
l-152 181l-152 -181h-205zM626 169q202 0 284 176l211 -64q-65 -149 -194 -230.5t-301 -81.5q-245 0 -394.5 161t-149.5 423q0 263 149.5 423.5t392.5 160.5q257 0 393 -172.5t119 -471.5h-824q14 -154 97 -239t217 -85zM317 659h598q-11 136 -87 210.5t-204 74.5
q-126 0 -205.5 -74.5t-101.5 -210.5z" />
    <glyph glyph-name="uni1EC4" unicode="&#x1ec4;" horiz-adv-x="1188" 
d="M786 1997q-42 0 -82.5 18t-107.5 60q-85 56 -123 56q-52 0 -52 -66q0 -23 6 -45h-139q-10 43 -10 83q0 28 9 73q9 44 53 79q45 36 116 36q43 0 83.5 -18t107.5 -61q84 -55 123 -55q32 0 43 24q9 23 9 43q0 23 -7 44h139q12 -51 12 -85q0 -22 -10 -70q-9 -45 -53 -80
q-45 -36 -117 -36zM459 1638h-205l265 308h184l266 -308h-205l-153 182zM1086 0h-943v1475h943v-202h-727v-414h605v-202h-605v-455h727v-202z" />
    <glyph glyph-name="uni1EC5" unicode="&#x1ec5;" horiz-adv-x="1221" 
d="M799 1628q-43 0 -83.5 18t-107.5 60q-85 56 -123 56q-52 0 -52 -65q0 -23 6 -45h-139q-10 43 -10 83q0 27 9 72q9 44 53 79q45 36 116 36q43 0 83.5 -18t107.5 -61q84 -55 123 -55q32 0 43 24q10 25 10 43q0 21 -8 45h140q11 -47 11 -85q0 -27 -9 -71t-54 -80t-116 -36z
M266 1270l265 307h185l265 -307h-205l-152 181l-153 -181h-205zM626 169q202 0 284 176l211 -64q-65 -149 -194 -230.5t-301 -81.5q-245 0 -394.5 161t-149.5 423q0 263 149.5 423.5t392.5 160.5q257 0 393 -172.5t119 -471.5h-824q14 -154 97 -239t217 -85zM317 659h598
q-11 136 -87 210.5t-204 74.5q-126 0 -205.5 -74.5t-101.5 -210.5z" />
    <glyph glyph-name="uni1EC6" unicode="&#x1ec6;" horiz-adv-x="1188" 
d="M451 1638h-205l265 308h184l264 -308h-204l-152 182zM1086 0h-943v1475h943v-202h-727v-414h605v-202h-605v-455h727v-202zM729 -396h-226v208h226v-208z" />
    <glyph glyph-name="uni1EC7" unicode="&#x1ec7;" horiz-adv-x="1221" 
d="M263 1270l265 307h185l265 -307h-205l-152 181l-153 -181h-205zM626 169q202 0 284 176l211 -64q-65 -149 -194 -230.5t-301 -81.5q-245 0 -394.5 161t-149.5 423q0 263 149.5 423.5t392.5 160.5q257 0 393 -172.5t119 -471.5h-824q14 -154 97 -239t217 -85zM317 659h598
q-11 136 -87 210.5t-204 74.5q-126 0 -205.5 -74.5t-101.5 -210.5zM497 -396v208h226v-208h-226z" />
    <glyph glyph-name="uni1EC8" unicode="&#x1ec8;" horiz-adv-x="541" 
d="M120 1906l-59 107q54 49 102 60q46 10 71 10q41 0 99 -24q52 -22 85 -95q21 -50 21 -95q0 -25 -12 -72q-13 -46 -69 -91t-120 -57l-47 91q39 14 68 38t35 46q5 22 5 30q0 20 -11 44q-23 46 -67 46q-11 0 -28 -1q-27 -2 -73 -37zM379 0h-216v1475h216v-1475z" />
    <glyph glyph-name="uni1EC9" unicode="&#x1ec9;" horiz-adv-x="541" 
d="M122 1542l-59 108q53 48 102 59q46 10 73 10q45 0 96 -22q50 -22 86 -96q21 -48 21 -94q0 -26 -13 -71q-13 -47 -68 -93q-55 -45 -120 -58l-47 91q40 14 68.5 38t34.5 46q5 22 5 31q0 20 -11 44q-22 45 -67 45q-11 0 -28 -1q-27 -2 -73 -37zM378 0h-214v1106h214v-1106z
" />
    <glyph glyph-name="uni1ECA" unicode="&#x1eca;" horiz-adv-x="543" 
d="M380 0h-216v1475h216v-1475zM386 -396h-228v208h228v-208z" />
    <glyph glyph-name="uni1ECB" unicode="&#x1ecb;" horiz-adv-x="541" 
d="M378 1287h-214v208h214v-208zM378 0h-214v1106h214v-1106zM384 -396h-226v208h226v-208z" />
    <glyph glyph-name="uni1ECC" unicode="&#x1ecc;" horiz-adv-x="1516" 
d="M759 -31q-217 0 -376 97t-240.5 270t-81.5 401t81.5 401t240.5 270t376 97t375.5 -97t239.5 -270t81 -401t-81 -401t-239.5 -270t-375.5 -97zM759 173q229 0 349 151.5t120 412.5t-120 413t-349 152t-349 -152t-121 -413q-1 -260 120 -412t350 -152zM637 -396v208h226
v-208h-226z" />
    <glyph glyph-name="uni1ECD" unicode="&#x1ecd;" horiz-adv-x="1248" 
d="M624 -31q-246 0 -394 162t-148 423q0 260 148.5 421.5t393.5 161.5q246 0 394 -161.5t148 -421.5q0 -262 -148 -423.5t-394 -161.5zM624 171q152 0 233.5 102t81.5 281q0 180 -81.5 280.5t-233.5 100.5q-153 0 -234 -100.5t-81 -280.5t82 -281.5t233 -101.5zM511 -396
v208h226v-208h-226z" />
    <glyph glyph-name="uni1ECE" unicode="&#x1ece;" horiz-adv-x="1516" 
d="M604 2013q54 49 103 60q46 10 71 10q40 0 98 -24q52 -22 85 -95q22 -48 22 -95q0 -27 -13 -72t-68 -91q-55 -45 -122 -57l-46 91q40 14 68.5 38t34.5 46q5 22 5 31q0 19 -11 43q-23 46 -67 46q-12 0 -29 -1q-25 -1 -71 -37zM759 -31q-217 0 -376 97t-240.5 270t-81.5 401
t81.5 401t240.5 270t376 97t375.5 -97t239.5 -270t81 -401t-81 -401t-239.5 -270t-375.5 -97zM759 173q229 0 349 151.5t120 412.5t-120 413t-349 152t-349 -152t-121 -413q-1 -260 120 -412t350 -152z" />
    <glyph glyph-name="uni1ECF" unicode="&#x1ecf;" horiz-adv-x="1248" 
d="M446 1650q53 48 102 59q46 10 73 10q45 0 96 -22q50 -22 86 -96q21 -48 21 -94q0 -26 -13 -71q-13 -47 -68 -93q-55 -45 -120 -58l-48 91q40 14 69 38t35 46q5 22 5 31q0 20 -11 44q-23 45 -67 45q-11 0 -28 -1q-27 -2 -73 -37zM624 -31q-246 0 -394 162t-148 423
q0 260 148.5 421.5t393.5 161.5q246 0 394 -161.5t148 -421.5q0 -262 -148 -423.5t-394 -161.5zM624 171q152 0 233.5 102t81.5 281q0 180 -81.5 280.5t-233.5 100.5q-153 0 -234 -100.5t-81 -280.5t82 -281.5t233 -101.5z" />
    <glyph glyph-name="uni1ED0" unicode="&#x1ed0;" horiz-adv-x="1516" 
d="M1255 1853h-168l147 359h168zM416 1638l265 308h184l265 -308h-204l-153 182l-152 -182h-205zM759 -31q-217 0 -376 97t-240.5 270t-81.5 401t81.5 401t240.5 270t376 97t375.5 -97t239.5 -270t81 -401t-81 -401t-239.5 -270t-375.5 -97zM759 173q229 0 349 151.5
t120 412.5t-120 413t-349 152t-349 -152t-121 -413q-1 -260 120 -412t350 -152z" />
    <glyph glyph-name="uni1ED1" unicode="&#x1ed1;" horiz-adv-x="1248" 
d="M1117 1485h-168l147 358h168zM278 1270l265 307h184l265 -307h-205l-152 181l-153 -181h-204zM624 -31q-246 0 -394 162t-148 423q0 260 148.5 421.5t393.5 161.5q246 0 394 -161.5t148 -421.5q0 -262 -148 -423.5t-394 -161.5zM624 171q152 0 233.5 102t81.5 281
q0 180 -81.5 280.5t-233.5 100.5q-153 0 -234 -100.5t-81 -280.5t82 -281.5t233 -101.5z" />
    <glyph glyph-name="uni1ED2" unicode="&#x1ed2;" horiz-adv-x="1516" 
d="M1079 1853l-146 359h168l146 -359h-168zM399 1638l265 308h184l265 -308h-205l-152 182l-152 -182h-205zM759 -31q-217 0 -376 97t-240.5 270t-81.5 401t81.5 401t240.5 270t376 97t375.5 -97t239.5 -270t81 -401t-81 -401t-239.5 -270t-375.5 -97zM759 173
q229 0 349 151.5t120 412.5t-120 413t-349 152t-349 -152t-121 -413q-1 -260 120 -412t350 -152z" />
    <glyph glyph-name="uni1ED3" unicode="&#x1ed3;" horiz-adv-x="1248" 
d="M963 1485l-146 358h168l145 -358h-167zM283 1270l265 307h184l265 -307h-204l-153 181l-153 -181h-204zM624 -31q-246 0 -394 162t-148 423q0 260 148.5 421.5t393.5 161.5q246 0 394 -161.5t148 -421.5q0 -262 -148 -423.5t-394 -161.5zM624 171q152 0 233.5 102
t81.5 281q0 180 -81.5 280.5t-233.5 100.5q-153 0 -234 -100.5t-81 -280.5t82 -281.5t233 -101.5z" />
    <glyph glyph-name="uni1ED4" unicode="&#x1ed4;" horiz-adv-x="1516" 
d="M1039 2013q54 49 102 60q46 10 71 10q41 0 99 -24q52 -22 85 -95q21 -50 21 -95q0 -25 -12 -72q-13 -46 -69 -91t-121 -57l-46 91q39 14 68 38t35 46q5 22 5 30q0 20 -11 44q-23 46 -67 46q-12 0 -29 -1q-26 -2 -72 -37zM411 1638l265 308h184l264 -308h-204l-152 182
l-153 -182h-204zM759 -31q-217 0 -376 97t-240.5 270t-81.5 401t81.5 401t240.5 270t376 97t375.5 -97t239.5 -270t81 -401t-81 -401t-239.5 -270t-375.5 -97zM759 173q229 0 349 151.5t120 412.5t-120 413t-349 152t-349 -152t-121 -413q-1 -260 120 -412t350 -152z" />
    <glyph glyph-name="uni1ED5" unicode="&#x1ed5;" horiz-adv-x="1248" 
d="M893 1645q53 48 101 59q46 10 72 10q42 0 97 -23q50 -22 86 -96q22 -52 22 -94q0 -23 -14 -71q-14 -49 -67 -93q-56 -45 -121 -57l-47 91q40 14 68.5 38t34.5 46q5 22 5 31q0 20 -11 44q-23 45 -66 45q-12 0 -29 -1q-27 -2 -73 -37zM264 1270l264 307h185l265 -307h-205
l-152 181l-152 -181h-205zM624 -31q-246 0 -394 162t-148 423q0 260 148.5 421.5t393.5 161.5q246 0 394 -161.5t148 -421.5q0 -262 -148 -423.5t-394 -161.5zM624 171q152 0 233.5 102t81.5 281q0 180 -81.5 280.5t-233.5 100.5q-153 0 -234 -100.5t-81 -280.5t82 -281.5
t233 -101.5z" />
    <glyph glyph-name="uni1ED6" unicode="&#x1ed6;" horiz-adv-x="1516" 
d="M924 1997q-43 0 -83.5 18t-107.5 60q-85 56 -123 56q-52 0 -52 -66q0 -23 6 -45h-139q-10 43 -10 83q0 28 9 73q9 44 53 79q45 36 116 36q43 0 83.5 -18t107.5 -61q84 -55 123 -55q32 0 43 24q9 23 9 43q0 23 -7 44h140q11 -47 11 -85q0 -27 -9 -70q-9 -44 -54 -80
t-116 -36zM391 1638l265 308h185l265 -308h-205l-152 182l-153 -182h-205zM759 -31q-217 0 -376 97t-240.5 270t-81.5 401t81.5 401t240.5 270t376 97t375.5 -97t239.5 -270t81 -401t-81 -401t-239.5 -270t-375.5 -97zM759 173q229 0 349 151.5t120 412.5t-120 413t-349 152
t-349 -152t-121 -413q-1 -260 120 -412t350 -152z" />
    <glyph glyph-name="uni1ED7" unicode="&#x1ed7;" horiz-adv-x="1248" 
d="M819 1628q-42 0 -83 18t-107 60q-85 56 -123 56q-23 0 -36 -16.5t-14.5 -28t-1.5 -22.5q0 -21 6 -43h-139q-11 47 -11 83q0 27 9 72q9 42 55 79q45 36 114 36q43 0 85.5 -18.5t106.5 -60.5q84 -55 123 -55q33 0 43 24q9 24 9 45t-6 43h139q10 -43 10 -83q0 -28 -9 -73
t-53 -80q-45 -36 -117 -36zM288 1270l264 307h184l265 -307h-204l-153 181l-151 -181h-205zM624 -31q-246 0 -394 162t-148 423q0 260 148.5 421.5t393.5 161.5q246 0 394 -161.5t148 -421.5q0 -262 -148 -423.5t-394 -161.5zM624 171q152 0 233.5 102t81.5 281
q0 180 -81.5 280.5t-233.5 100.5q-153 0 -234 -100.5t-81 -280.5t82 -281.5t233 -101.5z" />
    <glyph glyph-name="uni1ED8" unicode="&#x1ed8;" horiz-adv-x="1516" 
d="M398 1638l266 308h184l265 -308h-205l-152 182l-153 -182h-205zM759 -31q-217 0 -376 97t-240.5 270t-81.5 401t81.5 401t240.5 270t376 97t375.5 -97t239.5 -270t81 -401t-81 -401t-239.5 -270t-375.5 -97zM759 173q229 0 349 151.5t120 412.5t-120 413t-349 152
t-349 -152t-121 -413q-1 -260 120 -412t350 -152zM645 -396v208h226v-208h-226z" />
    <glyph glyph-name="uni1ED9" unicode="&#x1ed9;" horiz-adv-x="1248" 
d="M265 1270l264 307h185l265 -307h-205l-152 181l-152 -181h-205zM624 -31q-246 0 -394 162t-148 423q0 260 148.5 421.5t393.5 161.5q246 0 394 -161.5t148 -421.5q0 -262 -148 -423.5t-394 -161.5zM624 171q152 0 233.5 102t81.5 281q0 180 -81.5 280.5t-233.5 100.5
q-153 0 -234 -100.5t-81 -280.5t82 -281.5t233 -101.5zM526 -396v208h227v-208h-227z" />
    <glyph glyph-name="uni1EDA" unicode="&#x1eda;" horiz-adv-x="1516" 
d="M855 1638h-168l147 359h167zM1323 1659q5 -47 5 -76q0 -56 -18 -113q-17 -55 -82 -92q-10 -5 -32 -13q126 -100 192.5 -262t66.5 -366q0 -228 -81 -401t-239.5 -270t-375.5 -97t-376 97t-240.5 270t-81.5 401t81.5 401t240.5 270t376 97q111 0 202 -24q42 -10 68 -12h5
q26 0 55 12q24 11 39 27.5t20.5 38t7 36t1.5 36.5q0 19 -1 30v9zM759 173q229 0 349 151.5t120 412.5t-120 413t-349 152t-349 -152t-121 -413q-1 -260 120 -412t350 -152z" />
    <glyph glyph-name="uni1EDB" unicode="&#x1edb;" horiz-adv-x="1265" 
d="M709 1270h-168l146 358h168zM1160 1290q5 -47 5 -76q0 -55 -18 -112q-17 -55 -82 -92q-28 -15 -59 -22q160 -162 160 -434q0 -262 -148 -423.5t-394 -161.5t-394 162t-148 423q0 260 148.5 421.5t393.5 161.5q83 0 167 -23q54 -12 75 -13h5q28 0 55 11q24 11 39 27
t20.5 39.5t7 39t1.5 44.5v18l-1 9zM624 171q152 0 233.5 102t81.5 281q0 180 -81.5 280.5t-233.5 100.5q-153 0 -234 -100.5t-81 -280.5t82 -281.5t233 -101.5z" />
    <glyph glyph-name="uni1EDC" unicode="&#x1edc;" horiz-adv-x="1516" 
d="M658 1638l-146 359h168l146 -359h-168zM1323 1659q5 -47 5 -76q0 -56 -18 -113q-17 -55 -82 -92q-10 -5 -32 -13q126 -100 192.5 -262t66.5 -366q0 -228 -81 -401t-239.5 -270t-375.5 -97t-376 97t-240.5 270t-81.5 401t81.5 401t240.5 270t376 97q111 0 202 -24
q42 -10 68 -12h5q26 0 55 12q24 11 39 27.5t20.5 38t7 36t1.5 36.5q0 19 -1 30v9zM759 173q229 0 349 151.5t120 412.5t-120 413t-349 152t-349 -152t-121 -413q-1 -260 120 -412t350 -152z" />
    <glyph glyph-name="uni1EDD" unicode="&#x1edd;" horiz-adv-x="1265" 
d="M528 1270l-145 358h168l145 -358h-168zM1160 1290q5 -47 5 -76q0 -55 -18 -112q-17 -55 -82 -92q-28 -15 -59 -22q160 -162 160 -434q0 -262 -148 -423.5t-394 -161.5t-394 162t-148 423q0 260 148.5 421.5t393.5 161.5q83 0 167 -23q54 -12 75 -13h5q28 0 55 11
q24 11 39 27t20.5 39.5t7 39t1.5 44.5v18l-1 9zM624 171q152 0 233.5 102t81.5 281q0 180 -81.5 280.5t-233.5 100.5q-153 0 -234 -100.5t-81 -280.5t82 -281.5t233 -101.5z" />
    <glyph glyph-name="uni1EDE" unicode="&#x1ede;" horiz-adv-x="1516" 
d="M604 2013q54 49 103 60q46 10 71 10q40 0 98 -24q52 -22 85 -95q22 -48 22 -95q0 -27 -13 -72t-68 -91q-55 -45 -122 -57l-46 91q40 14 68.5 38t34.5 46q5 22 5 31q0 19 -11 43q-23 46 -67 46q-12 0 -29 -1q-25 -1 -71 -37zM1323 1659q5 -47 5 -76q0 -56 -18 -113
q-17 -55 -82 -92q-10 -5 -32 -13q126 -100 192.5 -262t66.5 -366q0 -228 -81 -401t-239.5 -270t-375.5 -97t-376 97t-240.5 270t-81.5 401t81.5 401t240.5 270t376 97q111 0 202 -24q42 -10 68 -12h5q26 0 55 12q24 11 39 27.5t20.5 38t7 36t1.5 36.5q0 19 -1 30v9zM759 173
q229 0 349 151.5t120 412.5t-120 413t-349 152t-349 -152t-121 -413q-1 -260 120 -412t350 -152z" />
    <glyph glyph-name="uni1EDF" unicode="&#x1edf;" horiz-adv-x="1248" 
d="M446 1650q53 48 102 59q46 10 73 10q45 0 96 -22q50 -22 86 -96q21 -48 21 -94q0 -26 -13 -71q-13 -47 -68 -93q-55 -45 -120 -58l-48 91q40 14 69 38t35 46q5 22 5 31q0 20 -11 44q-23 45 -67 45q-11 0 -28 -1q-27 -2 -73 -37zM1160 1290q5 -47 5 -76q0 -55 -18 -112
q-17 -55 -82 -92q-28 -15 -59 -22q160 -162 160 -434q0 -262 -148 -423.5t-394 -161.5t-394 162t-148 423q0 260 148.5 421.5t393.5 161.5q83 0 167 -23q54 -12 75 -13h5q28 0 55 11q24 11 39 27t20.5 39.5t7 39t1.5 44.5v18l-1 9zM624 171q152 0 233.5 102t81.5 281
q0 180 -81.5 280.5t-233.5 100.5q-153 0 -234 -100.5t-81 -280.5t82 -281.5t233 -101.5z" />
    <glyph glyph-name="uni1EE0" unicode="&#x1ee0;" horiz-adv-x="1516" 
d="M922 1642q-42 0 -83.5 18t-106.5 60q-52 33 -76.5 45t-47.5 12t-36 -17t-14.5 -28.5t-1.5 -21.5q0 -23 7 -44h-139q-11 47 -11 84q0 27 9 72q9 43 54 79q44 35 116 35q43 0 84.5 -18t105.5 -60q50 -32 75.5 -44t47.5 -12q32 0 43 25q10 21 10 44q0 22 -7 43h140
q10 -43 10 -83q0 -28 -9 -73q-9 -44 -54 -80t-116 -36zM1323 1659q5 -47 5 -76q0 -56 -18 -113q-17 -55 -82 -92q-10 -5 -32 -13q126 -100 192.5 -262t66.5 -366q0 -228 -81 -401t-239.5 -270t-375.5 -97t-376 97t-240.5 270t-81.5 401t81.5 401t240.5 270t376 97
q111 0 202 -24q42 -10 68 -12h5q26 0 55 12q24 11 39 27.5t20.5 38t7 36t1.5 36.5q0 19 -1 30v9zM759 173q229 0 349 151.5t120 412.5t-120 413t-349 152t-349 -152t-121 -413q-1 -260 120 -412t350 -152z" />
    <glyph glyph-name="uni1EE1" unicode="&#x1ee1;" horiz-adv-x="1248" 
d="M803 1274q-42 0 -83.5 18t-107.5 60q-85 56 -123 56q-18 0 -29.5 -8.5t-16 -22.5t-5.5 -22t-1 -15q0 -20 6 -43h-139q-10 43 -10 83q0 28 9 73q9 43 54 79t115 36q43 0 85.5 -18.5t106.5 -60.5q84 -55 122 -55q32 0 43 24q10 27 10 44q0 20 -6 43h139q10 -43 10 -83
q0 -27 -9 -72t-53 -80q-45 -36 -117 -36zM1160 1290q5 -47 5 -76q0 -55 -18 -112q-17 -55 -82 -92q-28 -15 -59 -22q160 -162 160 -434q0 -262 -148 -423.5t-394 -161.5t-394 162t-148 423q0 260 148.5 421.5t393.5 161.5q83 0 167 -23q54 -12 75 -13h5q28 0 55 11
q24 11 39 27t20.5 39.5t7 39t1.5 44.5v18l-1 9zM624 171q152 0 233.5 102t81.5 281q0 180 -81.5 280.5t-233.5 100.5q-153 0 -234 -100.5t-81 -280.5t82 -281.5t233 -101.5z" />
    <glyph glyph-name="uni1EE2" unicode="&#x1ee2;" horiz-adv-x="1516" 
d="M1323 1659q5 -47 5 -76q0 -56 -18 -113q-17 -55 -82 -92q-10 -5 -32 -13q126 -100 192.5 -262t66.5 -366q0 -228 -81 -401t-239.5 -270t-375.5 -97t-376 97t-240.5 270t-81.5 401t81.5 401t240.5 270t376 97q111 0 202 -24q42 -10 68 -12h5q26 0 55 12q24 11 39 27.5
t20.5 38t7 36t1.5 36.5q0 19 -1 30v9zM759 173q229 0 349 151.5t120 412.5t-120 413t-349 152t-349 -152t-121 -413q-1 -260 120 -412t350 -152zM662 -396v208h226v-208h-226z" />
    <glyph glyph-name="uni1EE3" unicode="&#x1ee3;" horiz-adv-x="1248" 
d="M1160 1290q5 -47 5 -76q0 -55 -18 -112q-17 -55 -82 -92q-28 -15 -59 -22q160 -162 160 -434q0 -262 -148 -423.5t-394 -161.5t-394 162t-148 423q0 260 148.5 421.5t393.5 161.5q83 0 167 -23q54 -12 75 -13h5q28 0 55 11q24 11 39 27t20.5 39.5t7 39t1.5 44.5v18l-1 9z
M624 171q152 0 233.5 102t81.5 281q0 180 -81.5 280.5t-233.5 100.5q-153 0 -234 -100.5t-81 -280.5t82 -281.5t233 -101.5zM525 -396v208h227v-208h-227z" />
    <glyph glyph-name="uni1EE4" unicode="&#x1ee4;" horiz-adv-x="1462" 
d="M731 -31q-270 0 -429 160.5t-159 454.5v891h216v-884q0 -208 93.5 -314t278.5 -106t278.5 106t93.5 314v884h216v-891q0 -294 -159 -454.5t-429 -160.5zM645 -396v208h226v-208h-226z" />
    <glyph glyph-name="uni1EE5" unicode="&#x1ee5;" horiz-adv-x="1256" 
d="M337 1106v-608q0 -161 73 -244t206 -83t208 83.5t75 243.5v608h214v-1106h-214v153q-97 -184 -335 -184q-205 0 -323 122t-118 365v650h214zM740 -396h-226v208h226v-208z" />
    <glyph glyph-name="uni1EE6" unicode="&#x1ee6;" horiz-adv-x="1462" 
d="M564 2013q54 49 103 60q46 10 71 10q40 0 98 -24q52 -22 85 -95q22 -48 22 -95q0 -27 -13 -72t-68 -91q-55 -45 -122 -57l-46 91q40 14 68.5 38t34.5 46q5 22 5 31q0 22 -10 43q-23 46 -68 46q-12 0 -29 -1q-25 -1 -71 -37zM731 -31q-270 0 -429 160.5t-159 454.5v891
h216v-884q0 -208 93.5 -314t278.5 -106t278.5 106t93.5 314v884h216v-891q0 -294 -159 -454.5t-429 -160.5z" />
    <glyph glyph-name="uni1EE7" unicode="&#x1ee7;" horiz-adv-x="1256" 
d="M504 1542l-60 108q52 48 103 59q46 10 73 10q45 0 96 -22t85 -96q22 -47 22 -95q0 -26 -13 -71q-14 -47 -68 -92q-55 -44 -121 -58l-47 91q40 14 68.5 38t34.5 46q5 22 5 32q0 22 -10 43q-22 45 -68 45q-12 0 -29 -1q-25 -1 -71 -37zM337 1106v-608q0 -161 73 -244
t206 -83t208 83.5t75 243.5v608h214v-1106h-214v153q-97 -184 -335 -184q-205 0 -323 122t-118 365v650h214z" />
    <glyph glyph-name="uni1EE8" unicode="&#x1ee8;" horiz-adv-x="1462" 
d="M806 1638h-168l146 359h168zM1551 1659q5 -43 5 -73q0 -56 -18 -111q-19 -55 -81 -94q-50 -29 -117 -34q-14 0 -21 -1v-762q0 -294 -159 -454.5t-429 -160.5t-429 160.5t-159 454.5v891h216v-884q0 -208 93.5 -314t278.5 -106t278.5 106t93.5 314v884h111q42 0 67 5
q34 6 56.5 22t32 40t12.5 44.5t3 48.5q0 16 -1 23z" />
    <glyph glyph-name="uni1EE9" unicode="&#x1ee9;" horiz-adv-x="1258" 
d="M839 1628l-146 -358h-168l146 358h168zM1140 1289l167 1q5 -43 5 -72q0 -53 -19 -112q-19 -54 -81 -93q-48 -27 -99 -33v-980h-214v153q-97 -184 -335 -184q-205 0 -323 122t-118 365v650h214v-608q0 -161 73 -244t206 -83t208 83.5t75 243.5v608h70q42 0 66 5
q34 6 57 22t33 40.5t13 45.5t3 48q0 15 -1 22z" />
    <glyph glyph-name="uni1EEA" unicode="&#x1eea;" horiz-adv-x="1462" 
d="M667 1638l-147 359h168l147 -359h-168zM1551 1659q5 -43 5 -73q0 -56 -18 -111q-19 -55 -81 -94q-50 -29 -117 -34q-14 0 -21 -1v-762q0 -294 -159 -454.5t-429 -160.5t-429 160.5t-159 454.5v891h216v-884q0 -208 93.5 -314t278.5 -106t278.5 106t93.5 314v884h111
q42 0 67 5q34 6 56.5 22t32 40t12.5 44.5t3 48.5q0 16 -1 23z" />
    <glyph glyph-name="uni1EEB" unicode="&#x1eeb;" horiz-adv-x="1258" 
d="M710 1270h-168l-147 358h168zM1140 1288l167 1q5 -43 5 -72q0 -53 -19 -112q-19 -54 -81 -93q-47 -27 -99 -34v-978h-214v153q-97 -184 -335 -184q-205 0 -323 122t-118 365v650h214v-608q0 -161 73 -244t206 -83t208 83.5t75 243.5v608h105q22 2 31 4q34 6 57 22t33 40
t13 45t3 48q0 15 -1 23z" />
    <glyph glyph-name="uni1EEC" unicode="&#x1eec;" horiz-adv-x="1462" 
d="M564 2013q54 49 103 60q46 10 71 10q40 0 98 -24q52 -22 85 -95q22 -48 22 -95q0 -27 -13 -72t-68 -91q-55 -45 -122 -57l-46 91q40 14 68.5 38t34.5 46q5 22 5 31q0 22 -10 43q-23 46 -68 46q-12 0 -29 -1q-25 -1 -71 -37zM1551 1659q50 -14 50 -57q0 -34 -41 -107
q-42 -75 -103 -114q-50 -29 -117 -34q-14 0 -21 -1v-762q0 -294 -159 -454.5t-429 -160.5t-429 160.5t-159 454.5v891h216v-884q0 -208 93.5 -314t278.5 -106t278.5 106t93.5 314v884h111q42 0 67 5q34 6 56.5 22t32 40t12.5 44.5t3 48.5q0 16 -1 23z" />
    <glyph glyph-name="uni1EED" unicode="&#x1eed;" horiz-adv-x="1258" 
d="M504 1542l-60 108q52 48 103 59q46 10 73 10q45 0 96 -22t85 -96q22 -47 22 -95q0 -26 -13 -71q-14 -47 -68 -92q-55 -44 -121 -58l-47 91q40 14 68.5 38t34.5 46q5 22 5 32q0 22 -10 43q-22 45 -68 45q-12 0 -29 -1q-25 -1 -71 -37zM1140 1289l167 1q5 -43 5 -72
q0 -53 -19 -112q-19 -54 -81 -93q-48 -27 -99 -33v-980h-214v153q-97 -184 -335 -184q-205 0 -323 122t-118 365v650h214v-608q0 -161 73 -244t206 -83t208 83.5t75 243.5v608h70q42 0 66 5q34 6 57 22t33 40.5t13 45.5t3 48q0 15 -1 22z" />
    <glyph glyph-name="uni1EEE" unicode="&#x1eee;" horiz-adv-x="1462" 
d="M916 1642q-42 0 -83 18t-107 60q-49 32 -74.5 44.5t-48.5 12.5q-18 0 -29.5 -8.5t-16 -22.5t-5.5 -22t-1 -15q0 -21 6 -43h-139q-10 43 -10 83q0 28 9 73q9 43 54 79q44 35 115 35q43 0 85 -18t106 -60q85 -56 123 -56q32 0 43 25q9 24 9 44q0 21 -6 43h139
q11 -47 11 -83q0 -23 -10 -73q-9 -45 -53 -80q-45 -36 -117 -36zM1551 1659q5 -43 5 -73q0 -56 -18 -111q-19 -55 -81 -94q-50 -29 -117 -34q-14 0 -21 -1v-762q0 -294 -159 -454.5t-429 -160.5t-429 160.5t-159 454.5v891h216v-884q0 -208 93.5 -314t278.5 -106t278.5 106
t93.5 314v884h111q42 0 67 5q34 6 56.5 22t32 40t12.5 44.5t3 48.5q0 16 -1 23z" />
    <glyph glyph-name="uni1EEF" unicode="&#x1eef;" horiz-adv-x="1258" 
d="M802 1274q-43 0 -83.5 18t-107.5 60q-85 56 -123 56q-52 0 -52 -66q0 -22 6 -45h-139q-10 43 -10 83q0 28 9 73q9 44 53 79q45 36 116 36q43 0 84 -18t108 -61q84 -55 122 -55q33 0 43 24q10 25 10 43q0 20 -8 44h140q11 -47 11 -85q0 -26 -9 -70q-9 -45 -53 -80
q-45 -36 -117 -36zM1140 1289l167 1q5 -43 5 -72q0 -53 -19 -112q-19 -54 -81 -93q-48 -27 -99 -33v-980h-214v153q-97 -184 -335 -184q-205 0 -323 122t-118 365v650h214v-608q0 -161 73 -244t206 -83t208 83.5t75 243.5v608h70q42 0 66 5q34 6 57 22t33 40.5t13 45.5t3 48
q0 15 -1 22z" />
    <glyph glyph-name="uni1EF0" unicode="&#x1ef0;" horiz-adv-x="1462" 
d="M1551 1659q5 -43 5 -73q0 -56 -18 -111q-19 -55 -81 -94q-50 -29 -117 -34q-14 0 -21 -1v-762q0 -294 -159 -454.5t-429 -160.5t-429 160.5t-159 454.5v891h216v-884q0 -208 93.5 -314t278.5 -106t278.5 106t93.5 314v884h111q42 0 67 5q34 6 56.5 22t32 40t12.5 44.5
t3 48.5q0 16 -1 23zM624 -396v208h226v-208h-226z" />
    <glyph glyph-name="uni1EF1" unicode="&#x1ef1;" horiz-adv-x="1258" 
d="M1141 1289l166 1q5 -45 5 -73q0 -54 -19 -111q-17 -54 -81 -93q-49 -28 -99 -33v-980h-214v153q-97 -184 -335 -184q-205 0 -323 122t-118 365v650h214v-608q0 -161 73 -244t206 -83t208 83.5t75 243.5v608h71q41 0 66 5q34 6 57 22t32.5 40.5t12.5 45.5t3 49v21z
M751 -396h-227v208h227v-208z" />
    <glyph glyph-name="Ygrave" unicode="&#x1ef2;" horiz-adv-x="1214" 
d="M695 1638h-168l-146 359h168zM716 0h-216v609l-500 866h250l357 -620l358 620h249l-498 -866v-609z" />
    <glyph glyph-name="ygrave" unicode="&#x1ef3;" horiz-adv-x="1123" 
d="M664 1270h-168l-147 358h168zM497 -492h-204l182 497l-447 1101h223l328 -831l311 831h217z" />
    <glyph glyph-name="uni1EF4" unicode="&#x1ef4;" horiz-adv-x="1214" 
d="M716 0h-216v609l-500 866h250l357 -620l358 620h249l-498 -866v-609zM721 -396h-227v208h227v-208z" />
    <glyph glyph-name="uni1EF5" unicode="&#x1ef5;" horiz-adv-x="1123" 
d="M497 -492h-204l182 497l-447 1101h223l328 -831l311 831h217zM980 -396h-205v205h205v-205z" />
    <glyph glyph-name="uni1EF6" unicode="&#x1ef6;" horiz-adv-x="1214" 
d="M477 1906l-58 107q54 50 101 60q46 10 72 10q39 0 97 -24q51 -22 86 -95q22 -52 22 -94q0 -24 -14 -72q-13 -47 -67 -92q-56 -45 -121 -57l-47 91q40 14 68.5 38t34.5 46q5 22 5 30q0 20 -11 44q-23 46 -66 46q-12 0 -29 -1q-27 -2 -73 -37zM716 0h-216v609l-500 866h250
l357 -620l358 620h249l-498 -866v-609z" />
    <glyph glyph-name="uni1EF7" unicode="&#x1ef7;" horiz-adv-x="1123" 
d="M443 1542l-58 108q53 48 101 59q46 10 73 10q45 0 96 -22q50 -22 86 -96q22 -50 22 -94q0 -26 -13 -71q-13 -47 -68 -93q-55 -44 -121 -58l-47 91q40 14 68.5 38t34.5 46q6 26 6 31q0 18 -12 44q-23 45 -66 45q-12 0 -29 -1q-27 -2 -73 -37zM497 -492h-204l182 497
l-447 1101h223l328 -831l311 831h217z" />
    <glyph glyph-name="uni1EF8" unicode="&#x1ef8;" horiz-adv-x="1214" 
d="M781 1642q-42 0 -82.5 18t-107.5 60q-87 57 -123 57q-52 0 -52 -66q0 -23 6 -45h-139q-11 47 -11 83q0 23 10 73q9 44 53 79t116 35q43 0 84 -17.5t107 -60.5q85 -56 123 -56q32 0 43 25q9 23 9 43q0 23 -7 44h139q12 -51 12 -85q0 -23 -10 -71q-9 -45 -53 -80
q-45 -36 -117 -36zM716 0h-216v609l-500 866h250l357 -620l358 620h249l-498 -866v-609z" />
    <glyph glyph-name="uni1EF9" unicode="&#x1ef9;" horiz-adv-x="1123" 
d="M738 1274q-42 0 -83 18t-107 60q-85 56 -123 56q-18 0 -29.5 -8.5t-16 -22.5t-5.5 -22t-1 -15q0 -20 6 -43h-139q-11 47 -11 83q0 23 10 73q9 43 54 79t115 36q43 0 84.5 -18.5t106.5 -60.5q84 -55 123 -55q32 0 43 24q9 24 9 44t-6 43h139q11 -47 11 -83q0 -22 -10 -72
q-9 -45 -53 -80q-45 -36 -117 -36zM497 -492h-204l182 497l-447 1101h223l328 -831l311 831h217z" />
    <glyph glyph-name="uni2011" unicode="&#x2011;" horiz-adv-x="860" 
d="M737 560h-614v172h614v-172z" />
    <glyph glyph-name="endash" unicode="&#x2013;" horiz-adv-x="1105" 
d="M983 560h-860v172h860v-172z" />
    <glyph glyph-name="emdash" unicode="&#x2014;" horiz-adv-x="1597" 
d="M1475 560h-1352v172h1352v-172z" />
    <glyph glyph-name="quoteleft" unicode="&#x2018;" horiz-adv-x="539" 
d="M362 1078l14 -95q-28 -5 -49 -5q-107 0 -151 94q-26 55 -26 135v268h226v-247h-118q-2 -18 -2 -29v-7q0 -54 24.5 -84.5t69.5 -30.5q8 0 12 1z" />
    <glyph glyph-name="quoteright" unicode="&#x2019;" horiz-adv-x="539" 
d="M164 983l13 95q4 -1 12 -1q45 0 70 30.5t25 84.5v7q0 11 -2 29h-118v247h226v-268q0 -79 -25.5 -134.5t-67.5 -75.5q-41 -19 -84 -19q-21 0 -49 5z" />
    <glyph glyph-name="quotesinglbase" unicode="&#x201a;" horiz-adv-x="594" 
d="M123 -245l13 95q4 -1 12 -1q45 0 70 30.5t25 84.5v7q0 11 -2 29h-118v247h226v-267q0 -79 -25.5 -134.5t-67.5 -75.5q-43 -20 -84 -20q-21 0 -49 5z" />
    <glyph glyph-name="quotedblleft" unicode="&#x201c;" horiz-adv-x="869" 
d="M706 1480l-14 -96q-4 1 -12 1q-45 0 -69.5 -30t-24.5 -84v-7q0 -11 2 -29h118v-247h-227v267q0 79 26 134.5t68 75.5q43 20 83 20q22 0 50 -5zM390 1480l-13 -96q-4 1 -12 1q-45 0 -70 -30t-25 -84v-7q0 -11 2 -29h118v-247h-226v267q0 79 26 134.5t68 75.5q43 20 83 20
q21 0 49 -5z" />
    <glyph glyph-name="quotedblright" unicode="&#x201d;" horiz-adv-x="869" 
d="M164 989l13 95q4 -1 12 -1q45 0 70 30.5t25 84.5v7q0 11 -2 29h-118v247h226v-268q0 -79 -25.5 -134t-67.5 -75q-43 -20 -84 -20q-21 0 -49 5zM479 989l14 95q4 -1 12 -1q45 0 69.5 30.5t24.5 84.5v7q0 11 -2 29h-118v247h227v-268q0 -79 -26 -134t-68 -75
q-43 -20 -84 -20q-21 0 -49 5z" />
    <glyph glyph-name="quotedblbase" unicode="&#x201e;" horiz-adv-x="869" 
d="M164 -245l13 95q4 -1 12 -1q45 0 70 30.5t25 84.5v7q0 11 -2 29h-118v247h226v-267q0 -79 -25.5 -134.5t-67.5 -75.5q-43 -20 -84 -20q-21 0 -49 5zM479 -245l14 95q4 -1 12 -1q45 0 69.5 30.5t24.5 84.5v7q0 11 -2 29h-118v247h227v-267q0 -79 -26 -134.5t-68 -75.5
q-43 -20 -84 -20q-21 0 -49 5z" />
    <glyph glyph-name="uni201F" unicode="&#x201f;" horiz-adv-x="869" 
d="M692 1084l14 -95q-28 -5 -50 -5q-106 0 -150 94q-27 57 -27 135v268h227v-247h-118q-2 -18 -2 -29v-7q0 -54 24.5 -84.5t69.5 -30.5q8 0 12 1zM377 1084l13 -95q-28 -5 -49 -5q-107 0 -151 94q-26 55 -26 135v268h226v-247h-118q-2 -18 -2 -29v-7q0 -54 25 -84.5
t70 -30.5q8 0 12 1z" />
    <glyph glyph-name="dagger" unicode="&#x2020;" horiz-adv-x="1105" 
d="M659 0h-214v934h-322v172h322v369h214v-369h324v-172h-324v-934z" />
    <glyph glyph-name="daggerdbl" unicode="&#x2021;" horiz-adv-x="910" 
d="M562 0h-214v459h-224v172h224v269h-224v172h224v403h214v-403h225v-172h-225v-269h225v-172h-225v-459z" />
    <glyph glyph-name="bullet" unicode="&#x2022;" horiz-adv-x="1405" 
d="M709 372q-76 0 -140 36t-101 99q-38 61 -38 138q0 116 81.5 195t197.5 79q108 0 187.5 -80.5t79.5 -193.5q0 -75 -36 -137.5t-98 -98.5q-61 -37 -133 -37z" />
    <glyph glyph-name="ellipsis" unicode="&#x2026;" horiz-adv-x="1400" 
d="M390 0h-226v226h226v-226zM813 0h-226v226h226v-226zM1237 0h-226v226h226v-226z" />
    <glyph glyph-name="perthousand" unicode="&#x2030;" horiz-adv-x="2691" 
d="M492 768q-100 0 -184.5 48.5t-134.5 134.5q-50 82 -50 186q0 98 50 182.5t136 135.5q82 50 183 50q100 0 184.5 -48.5t134.5 -134.5q49 -83 49 -185q0 -100 -49 -185t-134 -135q-83 -49 -185 -49zM1660 1330l-1332 -1330l-144 143l1333 1332zM492 953q73 0 128 55.5
t55 128.5t-55 128t-128 55t-128.5 -55t-55.5 -128t55.5 -128.5t128.5 -55.5zM1353 -31q-100 0 -184.5 49t-134.5 135q-50 82 -50 185q0 98 50 182.5t136 135.5q84 51 183 51q100 0 184 -49t135 -135q49 -83 49 -185q0 -100 -49 -185t-134 -135q-83 -49 -185 -49zM2200 -31
q-100 0 -184.5 49t-134.5 135q-50 82 -50 185q0 98 50 182.5t136 135.5q84 51 183 51q100 0 184 -49t135 -135q49 -83 49 -185q0 -100 -49 -185t-134 -135q-83 -49 -185 -49zM1353 155q73 0 128 55t55 128t-55 128t-128 55t-128 -55t-55 -128t55 -128t128 -55zM2200 155
q73 0 128 55t55 128t-55 128t-128 55t-128.5 -55t-55.5 -128t55.5 -128t128.5 -55z" />
    <glyph glyph-name="guilsinglleft" unicode="&#x2039;" horiz-adv-x="1289" 
d="M908 290l-133 -133l-488 488l488 489l133 -134l-362 -355z" />
    <glyph glyph-name="guilsinglright" unicode="&#x203a;" horiz-adv-x="1289" 
d="M514 157l-133 133l362 355l-362 355l133 134l488 -489z" />
    <glyph glyph-name="fraction" unicode="&#x2044;" horiz-adv-x="497" 
d="M829 1385l-1031 -1385l-130 98l1031 1386z" />
    <glyph glyph-name="uni2060" unicode="&#x2060;" horiz-adv-x="0" 
 />
    <glyph glyph-name="uni2070" unicode="&#x2070;" horiz-adv-x="1030" 
d="M515 529q-175 0 -273.5 127t-98.5 357t98.5 356t273.5 126t273.5 -126t98.5 -356t-98.5 -357t-273.5 -127zM515 667q105 0 161.5 91t56.5 255t-56.5 254.5t-161.5 90.5q-106 0 -162.5 -91t-56.5 -254q0 -164 56.5 -255t162.5 -91z" />
    <glyph glyph-name="uni2074" unicode="&#x2074;" horiz-adv-x="893" 
d="M701 553h-144v167h-455v134l299 621h159l-299 -621h296v294h144v-294h91v-134h-91v-167z" />
    <glyph glyph-name="uni2075" unicode="&#x2075;" horiz-adv-x="905" 
d="M804 837q0 -140 -94 -222.5t-245 -82.5q-139 0 -236.5 71t-126.5 217l150 23q20 -87 70.5 -131t145.5 -44q82 0 133 47t51 115q0 75 -48.5 115.5t-138.5 40.5h-299l31 489h543v-136h-407l-14 -217h149q161 0 248.5 -75.5t87.5 -209.5z" />
    <glyph glyph-name="uni2076" unicode="&#x2076;" horiz-adv-x="970" 
d="M502 526q-96 0 -166 31.5t-111 89.5t-60.5 131t-20.5 164q-5 287 82 419t279 132q139 0 226 -65.5t119 -192.5l-148 -25q-21 77 -67 112t-127 35q-216 0 -220 -293l-1 -32q68 107 243 107q143 0 232.5 -77.5t89.5 -226.5q0 -148 -99 -228.5t-251 -80.5zM502 663
q93 0 144.5 44.5t51.5 122.5q0 77 -51.5 122t-144.5 45t-145.5 -45t-52.5 -122q0 -78 52 -122.5t146 -44.5z" />
    <glyph glyph-name="uni2077" unicode="&#x2077;" horiz-adv-x="783" 
d="M315 553h-158l366 786h-441v136h599v-136z" />
    <glyph glyph-name="uni2078" unicode="&#x2078;" horiz-adv-x="931" 
d="M466 1493q142 0 228.5 -71.5t86.5 -203.5q0 -65 -30.5 -118.5t-85.5 -76.5q63 -19 103.5 -78t40.5 -128q0 -140 -94 -215.5t-249 -75.5t-249 76t-94 215q0 69 40.5 128t103.5 78q-55 23 -85 76.5t-30 118.5q0 132 86.5 203.5t227.5 71.5zM466 1087q83 0 125 38t42 95
q0 64 -46 100.5t-121 36.5t-120 -36.5t-45 -100.5q0 -57 41 -95t124 -38zM466 950q-93 0 -142.5 -36.5t-49.5 -102.5q0 -69 50.5 -108.5t141.5 -39.5t141 39.5t50 108.5q0 66 -49.5 102.5t-141.5 36.5z" />
    <glyph glyph-name="uni2079" unicode="&#x2079;" horiz-adv-x="970" 
d="M469 1493q95 0 165 -31.5t110.5 -89.5t60 -131t21.5 -164q5 -287 -82 -419t-279 -132q-139 0 -226 65.5t-119 192.5l147 25q22 -77 68.5 -111.5t127.5 -34.5q216 0 220 292v32q-68 -106 -243 -106q-144 0 -233 77.5t-89 226.5q0 148 99 228t252 80zM469 1357
q-94 0 -145.5 -45t-51.5 -123q0 -77 52 -122t145 -45t145 45t52 122q0 78 -52 123t-145 45z" />
    <glyph glyph-name="uni2080" unicode="&#x2080;" horiz-adv-x="1030" 
d="M515 -24q-175 0 -273.5 127t-98.5 357t98.5 356t273.5 126t273.5 -126t98.5 -356t-98.5 -357t-273.5 -127zM515 114q105 0 161.5 91t56.5 255t-56.5 254.5t-161.5 90.5q-106 0 -162.5 -91t-56.5 -254q0 -164 56.5 -255t162.5 -91z" />
    <glyph glyph-name="uni2081" unicode="&#x2081;" horiz-adv-x="756" 
d="M511 0h-144v755l-172 -104l-72 124l244 147h144v-922z" />
    <glyph glyph-name="uni2082" unicode="&#x2082;" horiz-adv-x="867" 
d="M118 0v136l389 350q57 51 81 92t24 89q0 69 -46 104.5t-120 35.5q-76 0 -126 -43t-64 -119l-154 27q28 128 118.5 199t224.5 71q142 0 231.5 -70.5t87.5 -206.5q-3 -144 -137 -266l-294 -263h431v-136h-646z" />
    <glyph glyph-name="uni2083" unicode="&#x2083;" horiz-adv-x="906" 
d="M783 282q0 -140 -94 -222t-245 -82q-139 0 -236 71t-126 217l149 23q19 -87 70.5 -131t145.5 -44q82 0 134 47t52 115q0 76 -49.5 116t-139.5 40h-103v117l228 237h-436v136h613v-136l-234 -240q271 -25 271 -264z" />
    <glyph glyph-name="uni2084" unicode="&#x2084;" horiz-adv-x="893" 
d="M701 0h-144v167h-455v134l299 621h159l-299 -621h296v294h144v-294h91v-134h-91v-167z" />
    <glyph glyph-name="uni2085" unicode="&#x2085;" horiz-adv-x="905" 
d="M804 284q0 -140 -94 -222t-245 -82q-139 0 -236.5 71t-126.5 216l150 23q20 -87 70.5 -131t145.5 -44q81 0 132.5 47.5t51.5 115.5q0 75 -48.5 115t-138.5 40h-299l31 489h543v-136h-407l-14 -217h149q161 0 248.5 -75.5t87.5 -209.5z" />
    <glyph glyph-name="uni2086" unicode="&#x2086;" horiz-adv-x="970" 
d="M502 -27q-96 0 -166 31.5t-111 89.5t-60.5 131t-20.5 164q-5 287 82 419t279 132q139 0 226 -65.5t119 -192.5l-148 -25q-21 77 -67 112t-127 35q-216 0 -220 -293l-1 -32q68 107 243 107q143 0 232.5 -77.5t89.5 -226.5q0 -148 -99 -228.5t-251 -80.5zM502 110
q93 0 144.5 45t51.5 123q0 77 -51.5 121.5t-144.5 44.5t-145.5 -44.5t-52.5 -121.5q0 -78 52 -123t146 -45z" />
    <glyph glyph-name="uni2087" unicode="&#x2087;" horiz-adv-x="783" 
d="M315 0h-158l366 786h-441v136h599v-136z" />
    <glyph glyph-name="uni2088" unicode="&#x2088;" horiz-adv-x="931" 
d="M466 940q142 0 228.5 -71.5t86.5 -203.5q0 -65 -30.5 -118.5t-85.5 -76.5q63 -19 103.5 -78t40.5 -128q0 -140 -94 -215.5t-249 -75.5t-249 76t-94 215q0 69 40.5 128t103.5 78q-55 23 -85 76.5t-30 118.5q0 132 86.5 203.5t227.5 71.5zM466 535q83 0 125 38t42 94
q0 64 -46 100.5t-121 36.5t-120 -36.5t-45 -100.5q0 -57 41 -94.5t124 -37.5zM466 397q-93 0 -142.5 -36.5t-49.5 -102.5q0 -69 50.5 -108.5t141.5 -39.5t141 39.5t50 108.5q0 66 -49.5 102.5t-141.5 36.5z" />
    <glyph glyph-name="uni2089" unicode="&#x2089;" horiz-adv-x="970" 
d="M469 940q95 0 165 -31.5t110.5 -89.5t60 -131t21.5 -164q5 -287 -82 -419t-279 -132q-139 0 -226 65.5t-119 192.5l147 25q22 -77 68.5 -111.5t127.5 -34.5q216 0 220 292v32q-68 -106 -243 -106q-144 0 -233 77.5t-89 226.5q0 148 99 228t252 80zM469 804
q-94 0 -145.5 -45t-51.5 -123q0 -77 52 -122t145 -45t145 45t52 122q0 78 -52 123t-145 45z" />
    <glyph glyph-name="franc" unicode="&#x20a3;" horiz-adv-x="1149" 
d="M234 233h-173v173h173v1069h875v-202h-659v-463h536v-202h-536v-202h292v-173h-292v-233h-216v233z" />
    <glyph glyph-name="uni20A9" unicode="&#x20a9;" horiz-adv-x="2038" 
d="M301 651h-240v172h190l-190 652h225l181 -652h259l180 651l226 1l181 -652h259l180 652h225l-189 -652h189v-172h-238l-190 -651h-213l-187 651h-259l-187 -651h-213zM1019 1103l-80 -280h161zM515 651l82 -292l81 292h-163zM1361 651l82 -292l81 292h-163z" />
    <glyph glyph-name="uni20AA" unicode="&#x20aa;" horiz-adv-x="1713" 
d="M337 0h-214v1475h568q53 0 114 -9q178 -27 274 -152.5t96 -311.5v-599h-218v599q0 92 -46 166.5t-135 94.5q-37 10 -93 10h-346v-1273zM1376 1475h214v-1475h-568q-60 0 -114 8q-178 29 -273.5 153.5t-95.5 310.5v599h217v-599q0 -93 46 -165.5t135 -94.5q37 -10 93 -10
h346v1273z" />
    <glyph glyph-name="dong" unicode="&#x20ab;" horiz-adv-x="1246" 
d="M583 263q-303 0 -432 187q-69 98 -69 247q0 112 39 198t109 138t159.5 78t197.5 26q191 0 301 -75v209h-185v171h185v92h215v-92h135v-171h-135v-984h-191v73q-112 -97 -329 -97zM605 450q144 0 225.5 59.5t81.5 187.5t-82 187t-225 59q-135 0 -215 -58q-81 -59 -81 -188
q0 -126 80.5 -186.5t215.5 -60.5zM1139 0h-968v167h968v-167z" />
    <glyph glyph-name="Euro" unicode="&#x20ac;" horiz-adv-x="1500" 
d="M227 468h-166v185h139q-3 42 -3 84q0 27 2 81h-138v187h165q57 234 212.5 367t386.5 133t381 -124t211 -352l-217 -58q-76 331 -375 331q-140 0 -233 -76.5t-135 -220.5h481v-187h-513q-2 -52 -2 -81q0 -30 2 -84h513v-185h-481q43 -143 135.5 -219t232.5 -76
q301 0 375 331l217 -59q-61 -228 -211 -352t-381 -124t-386 133t-212 366z" />
    <glyph glyph-name="uni20AE" unicode="&#x20ae;" horiz-adv-x="1235" 
d="M511 284l-249 -107v213l249 107v184l-249 -106v213l249 106v379h-491v202h1195v-202h-490v-287l249 106v-213l-249 -106v-185l249 105v-213l-249 -105v-375h-214v284z" />
    <glyph glyph-name="uni20B1" unicode="&#x20b1;" horiz-adv-x="1272" 
d="M174 1023h-123v128h123v324h476q62 0 127 -9q118 -18 197.5 -86t116.5 -177l15 -52h130v-128h-111q2 -38 2 -60q0 -24 -2 -62h111v-128h-132q-8 -30 -13 -45q-79 -219 -314 -254q-58 -8 -127 -8h-262v-466h-214v773h-123v128h123v122zM388 1273v-122h491q-12 25 -31 49
q-39 50 -99 63q-37 10 -107 10h-254zM388 1023v-122h524q4 25 4 61q0 32 -3 61h-525zM388 773v-122h254q59 0 107 12q58 13 97 61q18 22 32 49h-490z" />
    <glyph glyph-name="uni20B4" unicode="&#x20b4;" horiz-adv-x="1386" 
d="M75 814v152h869q72 49 72 126q0 91 -85.5 151.5t-213.5 58.5q-130 -2 -226.5 -74t-119.5 -195l-230 39q45 203 196.5 316.5t376.5 115.5q112 0 208 -28t167.5 -80.5t112 -133.5t40.5 -181q0 -59 -16 -115h86v-152h-1237zM75 536v151h1237v-151h-888q-60 -48 -60 -129
q0 -103 92.5 -169.5t236.5 -66.5q145 0 252 76t140 210l223 -34q-35 -209 -199 -331.5t-403 -122.5q-116 0 -217.5 29.5t-179.5 84.5t-123.5 142.5t-45.5 195.5q0 61 16 115h-81z" />
    <glyph glyph-name="uni20B9" unicode="&#x20b9;" horiz-adv-x="1254" 
d="M736 0l-593 529v203h354q53 0 92 9q61 15 102.5 54t60.5 96q5 16 8 28h-612v166h612q-3 15 -8 29q-20 55 -61.5 94.5t-101.5 54.5q-37 10 -92 10h-354v202h1003v-167h-250q34 -46 50 -86q27 -66 37 -137h169v-166h-169q-16 -121 -80 -212q-83 -120 -247 -161
q-71 -17 -153 -17h-62l598 -529h-303z" />
    <glyph glyph-name="uni20BA" unicode="&#x20ba;" horiz-adv-x="1317" 
d="M280 0v586l-198 -85v211l198 84v187l-198 -84v210l198 85v281h215v-190l299 127v-210l-299 -128v-187l299 128v-211l-299 -127v-478q23 -6 54 -6q42 0 79 8q179 32 267.5 171t88.5 362h211q0 -203 -56.5 -356.5t-178.5 -255.5t-304 -135q-85 -15 -159 -15q-110 0 -217 28
z" />
    <glyph glyph-name="uni20BD" unicode="&#x20bd;" horiz-adv-x="1393" 
d="M251 0v217h-149v172h149v171h-149v172h149v743h570q249 0 380 -117.5t131 -340.5q0 -222 -131 -339.5t-380 -117.5h-354v-171h523v-172h-523v-217h-216zM467 1273v-541h353q141 0 217.5 70t76.5 200q0 129 -76.5 200t-217.5 71h-353z" />
    <glyph glyph-name="uni20BF" unicode="&#x20bf;" horiz-adv-x="1274" 
d="M505 -204h-180v204h-182v1475h182v203h180v-203h168v203h180v-222q146 -34 230 -126.5t84 -239.5q0 -123 -64.5 -210.5t-154.5 -118.5q44 -7 89.5 -34.5t85.5 -70.5t65.5 -108t25.5 -138q0 -168 -97 -267t-264 -130v-217h-180v204h-168v-204zM683 1273h-324v-414h344
q111 0 178 50.5t67 159.5q0 204 -265 204zM359 202h335q66 0 117.5 10.5t95.5 35t67.5 71t23.5 113.5q0 63 -23.5 109t-65.5 71t-91 36.5t-108 11.5h-351v-458z" />
    <glyph glyph-name="uni2116" unicode="&#x2116;" horiz-adv-x="2300" 
d="M1830 768q-100 0 -184.5 48.5t-134.5 134.5q-50 82 -50 186q0 98 50.5 182.5t136.5 135.5q82 50 182 50t184.5 -48.5t134.5 -134.5q50 -85 50 -185t-49.5 -185t-134.5 -135q-83 -49 -185 -49zM359 0h-216v1475h216l730 -1103v1103h215v-1475h-215l-730 1103v-1103z
M1830 953q73 0 128 55.5t55 128.5t-55 128t-128 55t-128 -55t-55 -128t55 -128.5t128 -55.5zM2137 508h-614v172h614v-172z" />
    <glyph glyph-name="trademark" unicode="&#x2122;" horiz-adv-x="1866" 
d="M1094 707h-151v768h128l272 -442l273 442h128v-768h-150v471l-204 -340h-93l-203 340v-471zM540 707h-157v624h-260v144h677v-144h-260v-624z" />
    <glyph glyph-name="arrowleft" unicode="&#x2190;" horiz-adv-x="2064" 
d="M634 731h1144v-172h-1145l275 -269l-133 -133l-488 488l488 488l133 -134z" />
    </font>
</defs>
</svg>
