<svg width="24" height="24" viewBox="0 0 24 24" fill="none" xmlns="http://www.w3.org/2000/svg">
<g id="akar-icons:check-in">
<g id="Group">
<path id="Vector" d="M12 2C10.4087 2 8.88258 2.63214 7.75736 3.75736C6.63214 4.88258 6 6.4087 6 8C6 9.419 6.302 10.348 7.125 11.375L12 17L16.875 11.375C17.698 10.348 18 9.419 18 8C18 6.4087 17.3679 4.88258 16.2426 3.75736C15.1174 2.63214 13.5913 2 12 2Z" stroke="#0D9DEA" stroke-linecap="round" stroke-linejoin="round"/>
<path id="Vector_2" d="M5 15.1426C3.149 15.8696 2 16.8806 2 17.9996C2 20.2096 6.477 21.9996 12 21.9996C17.523 21.9996 22 20.2096 22 17.9996C22 16.8806 20.851 15.8696 19 15.1426" stroke="#0D9DEA" stroke-linecap="round" stroke-linejoin="round"/>
<path id="Vector_3" d="M12 9C12.5523 9 13 8.55228 13 8C13 7.44772 12.5523 7 12 7C11.4477 7 11 7.44772 11 8C11 8.55228 11.4477 9 12 9Z" stroke="#0D9DEA" stroke-linecap="round" stroke-linejoin="round"/>
</g>
</g>
</svg>
