<svg width="50" height="50" viewBox="0 0 50 50" fill="none" xmlns="http://www.w3.org/2000/svg">
<path d="M18.3622 49.7032C18.7476 49.7032 19.1172 49.5501 19.3897 49.2776C19.6622 49.0051 19.8153 48.6355 19.8153 48.2501V41.6122C20.0585 34.7515 29.9417 34.7515 30.1838 41.6122V48.2491C30.2129 50.1556 33.0591 50.1614 33.0901 48.2491V41.6122C32.6464 30.8804 17.3518 30.8814 16.9091 41.6122V48.2491C16.9089 48.44 16.9464 48.6291 17.0194 48.8055C17.0924 48.9819 17.1994 49.1422 17.3343 49.2773C17.4693 49.4123 17.6295 49.5194 17.8059 49.5925C17.9822 49.6656 18.1713 49.7032 18.3622 49.7032Z" fill="white"/>
<path d="M2.43298 49.7032H47.568C47.9534 49.7032 48.323 49.5501 48.5955 49.2776C48.868 49.005 49.0211 48.6354 49.0211 48.25V19.0451C49.0212 18.835 48.9756 18.6274 48.8877 18.4365C48.7997 18.2457 48.6714 18.0762 48.5116 17.9398L29.9997 2.14045C28.6087 0.944358 26.835 0.286621 25.0005 0.286621C23.166 0.286621 21.3923 0.944358 20.0013 2.14045L1.48942 17.9388C1.32962 18.0753 1.20131 18.2447 1.11333 18.4356C1.02536 18.6264 0.979824 18.834 0.979858 19.0442V48.25C0.979858 48.6354 1.13296 49.005 1.40547 49.2776C1.67798 49.5501 2.04759 49.7032 2.43298 49.7032ZM3.88611 19.7145L21.8884 4.35114C22.7544 3.60625 23.8587 3.19661 25.001 3.19661C26.1432 3.19661 27.2476 3.60625 28.1136 4.35114L46.1149 19.7145V46.7969H3.88611V19.7145Z" fill="white"/>
</svg>
