<svg width="64" height="64" viewBox="0 0 64 64" fill="none" xmlns="http://www.w3.org/2000/svg">
<path d="M45.4549 32.7834C45.3998 32.5956 45.3015 32.4233 45.1676 32.2804C45.0338 32.1375 44.8683 32.028 44.6845 31.9608C44.6085 31.9331 43.9924 31.7151 43.0354 31.5751C47.1239 27.2247 45.774 22.1421 45.4549 21.1494C45.3999 20.9615 45.3015 20.7892 45.1677 20.6463C45.0339 20.5034 44.8684 20.3939 44.6845 20.3267C44.509 20.2624 41.4489 19.1834 37.9624 20.3968C38.1592 19.5892 38.2744 18.7013 38.2744 17.7271C38.2744 11.4937 33.554 8.75393 32.6067 8.26756C32.435 8.17356 32.2436 8.12124 32.0479 8.11481C31.8522 8.10838 31.6578 8.14803 31.4802 8.23056C31.2459 8.33943 25.7391 10.9748 25.7391 17.7271C25.7391 18.7033 25.8547 19.5931 26.0524 20.4019C22.5597 19.1804 19.4914 20.2623 19.3156 20.3267C19.1318 20.3939 18.9662 20.5034 18.8324 20.6463C18.6986 20.7892 18.6003 20.9615 18.5452 21.1494C18.2261 22.1421 16.8762 27.2247 20.9647 31.5751C20.0077 31.7151 19.3916 31.9331 19.3156 31.9608C19.1317 32.0281 18.9662 32.1375 18.8324 32.2804C18.6986 32.4233 18.6002 32.5957 18.5451 32.7836C18.2194 33.7969 16.8186 39.0724 21.2264 43.4802C23.7771 46.0309 26.6081 46.6394 28.7291 46.6394C29.5144 46.6394 30.2007 46.5558 30.7411 46.4566V54.6357C30.7411 55.3259 31.3007 55.8857 31.9911 55.8857C32.6815 55.8857 33.2411 55.3259 33.2411 54.6357V46.4534C33.9106 46.577 34.59 46.6392 35.2709 46.6393C37.3917 46.6393 40.2231 46.0306 42.7736 43.4801C47.1814 39.0722 45.7806 33.7968 45.4549 32.7834ZM30.7411 42.5599C30.7189 43.0266 30.6576 43.4906 30.5576 43.9471C29.2215 44.2439 25.8785 44.5967 22.9942 41.7123C20.1534 38.8717 20.4511 35.5841 20.7656 34.1496C21.6057 33.9669 23.2451 33.7634 25.0601 34.3524C25.1796 34.3972 25.2987 34.4394 25.4172 34.4788C26.3785 34.8433 27.3765 35.4383 28.3224 36.3841C30.1247 38.1864 30.663 40.1677 30.7411 41.7259V42.5599ZM30.7411 30.9261C30.719 31.3927 30.6576 31.8567 30.5576 32.3131C29.7297 32.4972 28.1315 32.7016 26.3494 32.1453C26.1717 32.0768 25.992 32.0133 25.8107 31.9549C24.8785 31.5867 23.9131 30.9972 22.9941 30.0783C20.1534 27.2376 20.4511 23.9501 20.7656 22.5157C22.1005 22.2254 25.4529 21.8807 28.3224 24.7502C28.3406 24.7684 28.3571 24.7868 28.375 24.8049C28.4823 24.9252 28.5921 25.0431 28.7045 25.1586C30.2006 26.8474 30.6689 28.6507 30.7411 30.0921V30.9261ZM32.0087 24.6543C31.617 24.4031 31.0525 23.9889 30.4791 23.3903C30.4203 23.3256 30.3609 23.2616 30.3007 23.1982C29.2564 22.0381 28.239 20.2584 28.239 17.7271C28.239 13.6524 30.8465 11.5383 32.0004 10.8023C33.2361 11.5931 35.7742 13.7072 35.7742 17.7271C35.7742 20.1158 34.8779 21.8298 33.9039 22.9883C33.7066 23.186 33.5162 23.3906 33.3332 23.6016C32.8335 24.0874 32.3549 24.4338 32.0087 24.6543ZM33.2489 30.5209C33.2471 29.0534 33.6267 27.1114 35.181 25.2877C35.3725 25.0974 35.5569 24.9001 35.7337 24.6962C38.6021 21.8748 41.9061 22.2194 43.2339 22.5132C43.5485 23.9463 43.8482 27.2359 41.0057 30.0783C40.0885 30.9957 39.125 31.5847 38.1944 31.9532C38.01 32.0124 37.8273 32.077 37.6466 32.1467C35.8647 32.7021 34.2675 32.4969 33.4429 32.3134C33.3504 31.8968 33.2524 31.2849 33.2487 30.5528L33.2489 30.5209ZM41.0057 41.7123C38.121 44.5972 34.7779 44.2438 33.4449 43.9481C33.1542 42.6183 32.8029 39.2588 35.6776 36.3841C36.5974 35.4643 37.5635 34.8747 38.4965 34.5064C38.6773 34.4483 38.8565 34.385 39.0337 34.3167C40.812 33.7617 42.4066 33.9642 43.2339 34.1471C43.5485 35.5803 43.8482 38.8699 41.0057 41.7123Z" fill="white"/>
<path d="M38.6695 0.696375C36.4906 0.234375 34.2466 0 32 0C23.4525 0 15.4166 3.3285 9.37263 9.37263C3.32863 15.4166 0 23.4525 0 32C0 39.1223 2.39625 46.0746 6.762 51.6726C6.27088 52.4324 6.0065 53.3174 6.0065 54.2436C6.0065 55.5124 6.50062 56.7051 7.39775 57.6024C8.29487 58.4995 9.48775 58.9936 10.7565 58.9936C12.0253 58.9936 13.2181 58.4995 14.1152 57.6024C15.0125 56.7051 15.5065 55.5124 15.5065 54.2436C15.5065 52.9749 15.0124 51.7821 14.1152 50.8849C13.2181 49.9876 12.0253 49.4935 10.7565 49.4935C10.017 49.4924 9.28755 49.6647 8.62675 49.9966C4.67025 44.8606 2.5 38.5076 2.5 32C2.5 15.7336 15.7336 2.5 32 2.5C34.0728 2.5 36.1421 2.716 38.1509 3.142C38.8266 3.28512 39.4897 2.85375 39.633 2.1785C39.7762 1.50312 39.3449 0.839625 38.6695 0.696375ZM9.1655 52.6525C9.60412 52.2138 10.1803 51.9945 10.7565 51.9945C11.3328 51.9945 11.9089 52.2139 12.3475 52.6525C12.7725 53.0774 13.0065 53.6425 13.0065 54.2435C13.0065 54.8445 12.7725 55.4095 12.3475 55.8345C11.4702 56.712 10.0427 56.7117 9.1655 55.8345C8.7405 55.4096 8.5065 54.8445 8.5065 54.2435C8.5065 53.6425 8.7405 53.0775 9.1655 52.6525ZM57.238 12.3274C57.7291 11.5676 57.9935 10.6826 57.9935 9.75638C57.9935 8.48763 57.4994 7.29475 56.6022 6.39762C55.7051 5.50037 54.5122 5.00637 53.2435 5.00637C51.9747 5.00637 50.7819 5.5005 49.8848 6.39762C48.9876 7.29475 48.4935 8.48763 48.4935 9.75638C48.4935 11.0251 48.9876 12.218 49.8848 13.1151C50.7819 14.0124 51.9747 14.5064 53.2435 14.5064C53.983 14.5075 54.7125 14.3352 55.3734 14.0033C59.3297 19.1394 61.5 25.4924 61.5 32C61.5 48.2664 48.2664 61.5 32 61.5C30.2529 61.5003 28.5092 61.3468 26.789 61.0414C26.1097 60.9205 25.4601 61.3729 25.3391 62.0527C25.218 62.7324 25.6707 63.3815 26.3504 63.5026C28.2154 63.8338 30.1059 64.0002 32 64C40.5475 64 48.5834 60.6714 54.6275 54.6275C60.6716 48.5836 64 40.5475 64 32C64 24.8777 61.6037 17.9254 57.238 12.3274ZM54.8346 11.3474C54.4098 11.7724 53.8446 12.0064 53.2436 12.0064C52.6426 12.0064 52.0775 11.7725 51.6526 11.3474C50.7753 10.4701 50.7753 9.04275 51.6526 8.16537C52.0775 7.74037 52.6426 7.50637 53.2436 7.50637C53.8446 7.50637 54.4096 7.74037 54.8346 8.16537C55.0442 8.37381 55.2104 8.62176 55.3235 8.89486C55.4366 9.16795 55.4945 9.46078 55.4936 9.75638C55.4936 10.3574 55.2596 10.9224 54.8346 11.3474ZM21.0168 59.3877L20.5448 60.5452L21.0133 59.3864C20.3729 59.1279 19.6446 59.4368 19.3859 60.0768C19.1271 60.7168 19.4363 61.4454 20.0763 61.7043L20.1149 61.7195C20.2623 61.7759 20.414 61.8026 20.5632 61.8026C21.0667 61.8026 21.5426 61.4979 21.7331 61.0008C21.9801 60.3559 21.6615 59.6346 21.0168 59.3877ZM43.978 2.31787L43.9557 2.309C43.3149 2.0525 42.5874 2.36437 42.3309 3.00537C42.0744 3.64637 42.3862 4.37363 43.0272 4.63013L43.0415 4.63588C43.1901 4.69611 43.349 4.7271 43.5094 4.72713C44.0039 4.72713 44.4721 4.43175 44.6688 3.94513C44.9274 3.305 44.6181 2.5765 43.978 2.31787Z" fill="white"/>
</svg>
