<svg width="50" height="52" viewBox="0 0 50 52" fill="none" xmlns="http://www.w3.org/2000/svg">
<path d="M48.3875 42.9118L46.9736 41.4244C46.9076 34.6268 45.1994 27.8706 42.0228 21.8586L41.3035 20.4973L44.1143 16.1413C44.3645 15.7538 44.5056 15.3059 44.5227 14.8449C44.5399 14.3839 44.4323 13.9268 44.2115 13.5217C43.9909 13.1166 43.6651 12.7784 43.2685 12.5429C42.8719 12.3073 42.4191 12.183 41.9578 12.1831H40.5481L30.7565 2.39149C29.2143 0.849367 27.1641 0 24.9832 0C22.8021 0 20.7517 0.849367 19.2097 2.39149L9.41808 12.1831H8.07654C7.61089 12.1826 7.15391 12.3091 6.75472 12.5488C6.35553 12.7886 6.02922 13.1326 5.81089 13.5439C5.59158 13.9548 5.48844 14.4177 5.51254 14.8828C5.53665 15.348 5.68709 15.7977 5.94769 16.1838L8.74676 20.3383L7.94329 21.8586C4.76683 27.8702 3.05844 34.6264 2.99263 41.4243L1.57908 42.9112C0.607842 43.9331 0.0830683 45.272 0.102061 46.6816C0.121053 48.0912 0.681983 49.4178 1.68136 50.4171L1.74057 50.4763C2.9839 51.72 4.75413 52.2473 6.47541 51.8879L8.75783 51.4109C9.74783 51.2038 10.7642 51.1531 11.7699 51.2606L12.5002 51.3383C16.6466 51.7794 20.8135 52.0003 24.9832 52C29.1533 52 33.3249 51.7794 37.466 51.3382L38.1962 51.2605C39.2019 51.153 40.2183 51.2037 41.2083 51.4108L43.3979 51.8683C45.1767 52.24 47.0073 51.6946 48.2931 50.4087C49.2893 49.4125 49.8475 48.0882 49.8652 46.6794C49.8831 45.2708 49.3582 43.9325 48.3875 42.9118ZM20.6462 3.82759C21.8046 2.66927 23.3447 2.03125 24.9832 2.03125C26.6215 2.03125 28.1619 2.66916 29.3203 3.82769L37.6754 12.1831H12.2908L20.6462 3.82759ZM46.857 48.9726C46.0577 49.772 44.9202 50.1108 43.8133 49.88L41.6242 49.4225C40.4268 49.1723 39.1977 49.111 37.9814 49.2409L37.251 49.3186C29.111 50.1859 20.8557 50.1855 12.7157 49.3186L11.9854 49.2409C10.7691 49.1108 9.53994 49.1722 8.34264 49.4226L6.06022 49.8994C5.54615 50.0077 5.01317 49.9859 4.50968 49.8359C4.00619 49.6859 3.54815 49.4125 3.17717 49.0405L3.11806 48.981C1.82233 47.6857 1.79297 45.6342 3.05144 44.3111L4.74265 42.5321C4.92227 42.3434 5.02242 42.0929 5.02236 41.8324C5.02236 35.2267 6.65376 28.6482 9.73953 22.8077L10.3103 21.7274H20.9225C21.4834 21.7274 21.9381 21.2727 21.9381 20.7117C21.9381 20.1507 21.4834 19.6961 20.9225 19.6961H10.763L7.63282 15.0488C7.47052 14.8084 7.55858 14.5839 7.60418 14.4986C7.64937 14.4132 7.78669 14.2145 8.07665 14.2145H41.9577C42.2449 14.2145 42.3822 14.4097 42.4278 14.4938C42.4738 14.5779 42.5631 14.7989 42.4075 15.0401L39.4036 19.6961H29.0446C28.4836 19.6961 28.029 20.1507 28.029 20.7117C28.029 21.2727 28.4836 21.7274 29.0446 21.7274H34.6277V25.1995C34.6277 25.7605 35.0824 26.2151 35.6434 26.2151C36.2044 26.2151 36.659 25.7605 36.659 25.1995V21.7273H38.941V31.557C38.941 32.1179 39.396 32.5726 39.957 32.5726C40.5176 32.5726 40.9726 32.1179 40.9726 31.557V24.2948C43.5744 29.7537 44.9442 35.7816 44.9442 41.8322C44.9442 42.0928 45.0443 42.3435 45.2239 42.5323L46.9156 44.3113C48.1732 45.6344 48.1475 47.6815 46.8569 48.9724L46.857 48.9726Z" fill="white"/>
<path d="M23.1203 5.24748C22.7235 4.85078 22.0804 4.85078 21.6837 5.24748C21.2874 5.64418 21.2874 6.28728 21.6837 6.68408L22.0344 7.03478C22.1286 7.12909 22.2406 7.20388 22.3638 7.25485C22.487 7.30583 22.6191 7.332 22.7524 7.33185C22.8859 7.33205 23.0181 7.30587 23.1414 7.2548C23.2647 7.20373 23.3767 7.12878 23.471 7.03427C23.8673 6.63797 23.8673 5.99488 23.4706 5.59817L23.1203 5.24748ZM20.0849 8.46498H19.7167C19.1561 8.46498 18.7011 8.91957 18.7011 9.4806C18.7011 10.0415 19.1561 10.4962 19.7167 10.4962H20.0849C20.6455 10.4962 21.1005 10.0415 21.1005 9.4806C21.1005 8.91957 20.6458 8.46498 20.0849 8.46498ZM33.1436 43.0922C33.9596 42.127 35.2312 40.2591 35.1114 38.097C34.959 35.3655 32.5223 33.3208 31.8817 32.83C31.7932 32.7502 31.6914 32.6867 31.5808 32.6423C31.4258 32.5799 31.2577 32.5567 31.0915 32.5748C30.9253 32.593 30.7662 32.6519 30.6283 32.7463C30.0364 30.5409 28.1237 28.9413 27.5668 28.5156C27.4783 28.4357 27.3763 28.372 27.2656 28.3276C27.1109 28.2656 26.9433 28.2427 26.7776 28.2607C26.6119 28.2788 26.4532 28.3373 26.3154 28.4312C25.7228 26.2272 23.8121 24.6297 23.2556 24.2039C23.0695 24.0361 22.8279 23.9431 22.5774 23.9428C22.3268 23.9424 22.085 24.0347 21.8984 24.2019C21.7796 24.3079 18.9974 26.8354 19.1684 29.8974C19.1827 30.1554 19.2188 30.4073 19.272 30.652C19.0234 30.598 18.7709 30.5633 18.517 30.5484C15.4566 30.3767 12.928 33.1597 12.8215 33.2784C12.6953 33.4197 12.6111 33.5934 12.5784 33.78C12.5458 33.9666 12.566 34.1586 12.6367 34.3344C12.6774 34.4358 12.7342 34.53 12.8049 34.6134C13.1953 35.1374 14.7862 37.0988 17.0492 37.6983C16.9562 37.8359 16.8983 37.9943 16.8807 38.1594C16.863 38.3246 16.8861 38.4915 16.9479 38.6457C16.9896 38.7488 17.0467 38.8424 17.1165 38.9246C17.5069 39.4491 19.0994 41.4129 21.3643 42.0108C21.269 42.1512 21.2104 42.3134 21.1938 42.4823C21.1773 42.6512 21.2033 42.8216 21.2695 42.9779C21.3126 43.0794 21.372 43.1732 21.4452 43.2556C21.928 43.8884 23.9751 46.3386 26.717 46.4914C26.8121 46.4968 26.9073 46.4994 27.0026 46.4993C29.0379 46.4993 30.7831 45.3068 31.7063 44.528L33.6959 46.5176C33.8942 46.716 34.154 46.8147 34.4139 46.8147C34.6738 46.8147 34.9339 46.716 35.132 46.5176C35.5287 46.1208 35.5287 45.4777 35.132 45.081L33.1436 43.0922ZM31.2797 34.9779C32.0407 35.7075 33.0114 36.9211 33.0833 38.2101C33.159 39.5744 32.312 40.8832 31.7063 41.6358C30.8711 40.8741 29.892 39.6657 29.8222 38.41C29.746 37.0457 30.6453 35.7285 31.2797 34.9779ZM26.9657 30.6643C27.7266 31.3935 28.6974 32.6071 28.7693 33.896C28.845 35.2604 27.9976 36.57 27.3922 37.3221C26.5566 36.5601 25.578 35.352 25.5082 34.096C25.4772 33.5453 25.6069 33.003 25.8124 32.502C25.8718 32.3796 25.9279 32.2557 25.9807 32.1303C26.2742 31.5451 26.6523 31.0352 26.9657 30.6643ZM22.6544 26.3527C23.4154 27.0819 24.3857 28.2955 24.458 29.5844C24.5334 30.9488 23.6868 32.2575 23.081 33.0101C22.2454 32.2481 21.2668 31.0396 21.1965 29.7844C21.1207 28.42 22.0202 27.1032 22.6545 26.3526L22.6544 26.3527ZM14.9738 34.0361C15.7272 33.4025 17.0475 32.5015 18.4043 32.5769C19.5786 32.6423 20.7108 33.5025 21.4758 34.2967C21.4785 34.2995 21.4805 34.3019 21.4829 34.3047L21.492 34.3133C21.5393 34.363 21.5857 34.4126 21.6302 34.4614C20.8783 35.0667 19.5667 35.913 18.2044 35.838C16.9162 35.7662 15.7034 34.797 14.9737 34.0361H14.9738ZM19.2855 38.3477C19.6684 38.0256 20.1975 37.6353 20.8033 37.3381C20.89 37.3005 20.976 37.2613 21.0613 37.2206C21.5801 36.9989 22.1443 36.8565 22.7155 36.8882C23.784 36.9477 24.8167 37.6649 25.5705 38.3918L25.8033 38.6251C25.851 38.6746 25.8973 38.7238 25.9418 38.7727C25.1896 39.378 23.882 40.225 22.5161 40.1492C21.2279 40.0774 20.0151 39.1082 19.2855 38.3477ZM30.2558 43.0866C29.5036 43.692 28.1951 44.5387 26.83 44.4637C25.5407 44.3915 24.327 43.4211 23.5979 42.6602C23.9843 42.3336 24.5214 41.9377 25.1372 41.6398C25.2129 41.6068 25.288 41.5727 25.3626 41.5374C25.8838 41.314 26.4523 41.1704 27.0296 41.2022C28.0952 41.2617 29.1248 41.9746 29.8781 42.6995L30.1209 42.9426C30.1673 42.9911 30.2126 43.0391 30.2558 43.0866ZM25.0174 21.7276C25.2845 21.7276 25.5466 21.6189 25.7354 21.43C25.9252 21.2388 26.0321 20.9806 26.033 20.7112C26.033 20.4438 25.9243 20.1831 25.7354 19.9931C25.5445 19.8034 25.2865 19.6965 25.0174 19.6956C24.7504 19.6956 24.4882 19.8042 24.2993 19.9931C24.1104 20.182 24.0017 20.4438 24.0017 20.7112C24.0022 20.9807 24.1092 21.239 24.2993 21.43C24.4902 21.6198 24.7482 21.7267 25.0174 21.7276Z" fill="white"/>
</svg>
