<svg width="90" height="90" viewBox="0 0 90 90" fill="none" xmlns="http://www.w3.org/2000/svg">
<g clip-path="url(#clip0_738_502)">
<path d="M59.8695 66.5217H23.8881L23.2563 39.46H59.8695V66.5217Z" stroke="white" stroke-width="2" stroke-miterlimit="10"/>
<path d="M41.1779 55.1377C41.259 55.8881 41.1796 56.647 40.9455 57.365C40.7113 58.0831 40.3278 58.7442 39.8191 59.3055C39.3104 59.8668 38.688 60.3157 37.993 60.6229C37.2979 60.9302 36.5456 61.089 35.7846 61.089C35.0236 61.089 34.2713 60.9302 33.5762 60.6229C32.8812 60.3157 32.2588 59.8668 31.7501 59.3055C31.2414 58.7442 30.8571 58.0831 30.623 57.365C30.3889 56.647 30.3102 55.8881 30.3913 55.1377C30.3913 52.158 35.8154 44.3497 35.8154 44.3497C35.8154 44.3497 41.1779 52.1886 41.1779 55.1377Z" stroke="white" stroke-width="2" stroke-miterlimit="10"/>
<path d="M48.2196 49.7743C48.2196 50.4875 47.9337 51.1716 47.4251 51.6759C46.9164 52.1803 46.2272 52.4636 45.5079 52.4636C44.7886 52.4636 44.0986 52.1803 43.59 51.6759C43.0814 51.1716 42.7954 50.4875 42.7954 49.7743C42.7954 48.2462 45.5079 44.3802 45.5079 44.3802C45.5079 44.3802 48.2196 48.292 48.2196 49.7743Z" stroke="white" stroke-width="2" stroke-miterlimit="10"/>
<path d="M69.485 19.6106H21.515C19.447 19.6106 17.7705 21.273 17.7705 23.3237C17.7705 25.3745 19.447 27.0369 21.515 27.0369H69.485C71.5531 27.0369 73.2295 25.3745 73.2295 23.3237C73.2295 21.273 71.5531 19.6106 69.485 19.6106Z" stroke="white" stroke-width="2" stroke-miterlimit="10"/>
<path d="M28.7114 7.26392H62.2888C63.0598 7.26392 63.8233 7.4145 64.5356 7.70708C65.2479 7.99965 65.8951 8.42849 66.4403 8.9691C66.9855 9.50971 67.4179 10.1515 67.713 10.8578C68.008 11.5642 68.1599 12.3212 68.1599 13.0858V19.6105H22.8403V13.0858C22.8403 11.5417 23.4589 10.0609 24.5599 8.9691C25.661 7.87729 27.1543 7.26392 28.7114 7.26392V7.26392Z" stroke="white" stroke-width="2" stroke-miterlimit="10"/>
<path d="M45.4921 7.26392H38.9893V19.6105H45.4921V7.26392Z" stroke="white" stroke-width="2" stroke-miterlimit="10"/>
<path d="M38.9897 7.26392H32.4868V19.6105H38.9897V7.26392Z" stroke="white" stroke-width="2" stroke-miterlimit="10"/>
<path d="M28.1258 7.26392H32.4867V19.6105H25.9839V9.3879C25.9839 8.82458 26.2096 8.28434 26.6112 7.88602C27.0129 7.48769 27.5577 7.26392 28.1258 7.26392Z" stroke="white" stroke-width="2" stroke-miterlimit="10"/>
<path d="M52.0106 7.26392H45.5078V19.6105H52.0106V7.26392Z" stroke="white" stroke-width="2" stroke-miterlimit="10"/>
<path d="M58.5136 7.26392H52.0107V19.6105H58.5136V7.26392Z" stroke="white" stroke-width="2" stroke-miterlimit="10"/>
<path d="M58.5132 7.26392H62.8741C63.4422 7.26392 63.987 7.48769 64.3887 7.88602C64.7904 8.28434 65.016 8.82458 65.016 9.3879V19.6105H58.5132V7.26392Z" stroke="white" stroke-width="2" stroke-miterlimit="10"/>
<path d="M66.6189 84.736H24.3813L22.8403 27.0522H68.1599L66.6189 84.736Z" stroke="white" stroke-width="2" stroke-miterlimit="10"/>
</g>
<defs>
<clipPath id="clip0_738_502">
<rect width="57" height="79" fill="white" transform="translate(17 6.5)"/>
</clipPath>
</defs>
</svg>
