<svg width="94" height="95" viewBox="0 0 94 95" fill="none" xmlns="http://www.w3.org/2000/svg">
<g clip-path="url(#clip0_738_467)">
<path fill-rule="evenodd" clip-rule="evenodd" d="M19.751 8.75244H18.751V9.75244V86.2472V87.2472H19.751H74.2488H75.2488V86.2472V9.75244V8.75244H74.2488H19.751ZM20.751 85.2472V10.7524H73.2488V85.2472H20.751ZM25.8799 19.3793H24.8799V20.3793V78.1944V79.1944H25.8799H68.1352H69.1352V78.1944V20.3793V19.3793H68.1352H58.9958V16.3453V15.3453H57.9958H36.0044H35.0044V16.3453V19.3793H25.8799ZM58.9958 24.0821V21.3793H67.1352V77.1944H26.8799V21.3793H35.0044V24.0821V25.0821H36.0044H57.9958H58.9958V24.0821ZM37.0044 17.3453V23.0821H56.9958V17.3453H37.0044ZM32.8496 53.4873H31.8496V54.4873V70.8188V71.8188H32.8496H61.15H62.15V70.8188V54.4873V53.4873H61.15H32.8496ZM33.8496 69.8188V55.4873H60.15V69.8188H33.8496ZM60.2337 48.9999H32.8496V46.9999H60.2337V48.9999ZM32.8496 43.4457H60.2337V41.4457H32.8496V43.4457ZM60.2337 38.2225H32.8496V36.2225H60.2337V38.2225ZM32.8496 32.9845H43.1994V30.9845H32.8496V32.9845Z" fill="white"/>
</g>
<defs>
<clipPath id="clip0_738_467">
<rect width="56" height="78" fill="white" transform="translate(19 9)"/>
</clipPath>
</defs>
</svg>
