<svg width="78" height="237" viewBox="0 0 78 237" fill="none" xmlns="http://www.w3.org/2000/svg">
<path d="M41.5576 58L41.5576 231" stroke="#73A2E1" stroke-width="3" stroke-miterlimit="10"/>
<path d="M39 78C60.5391 78 78 60.5391 78 39C78 17.4609 60.5391 0 39 0C17.4609 0 0 17.4609 0 39C0 60.5391 17.4609 78 39 78Z" fill="url(#paint0_linear_738_303)"/>
<circle cx="39.5" cy="39.5" r="20.5" stroke="white" stroke-width="2"/>
<path d="M41.0927 56C41.0927 56 41.4177 50.7612 42.2743 49.5778C44.726 46.2003 48.0817 42.1508 48.0817 38.9159C48.0817 37.132 47.4023 35.021 45.6299 34.3134C42.9242 33.2193 36.721 33.362 33.962 34.3134C32.1542 34.9081 31.5103 37.1142 31.5103 38.9159C31.5103 42.1508 34.8659 46.2003 37.3176 49.5778C38.1743 50.7671 38.4992 56 38.4992 56" stroke="white" stroke-miterlimit="10"/>
<path d="M53.9999 30V36.4616C53.9984 37.2559 53.689 38.0172 53.1395 38.5783C52.59 39.1394 51.8454 39.4545 51.0691 39.4545H48.0815" stroke="white" stroke-miterlimit="10"/>
<path d="M51.6326 30V35.9422C51.6309 36.2474 51.49 36.5395 51.2408 36.7548C50.9915 36.9701 50.6542 37.0909 50.3025 37.0909H48.0815" stroke="white" stroke-miterlimit="10"/>
<path d="M25 30V36.4616C25 37.2554 25.3085 38.0166 25.8576 38.5779C26.4067 39.1392 27.1514 39.4545 27.928 39.4545H31.5102" stroke="white" stroke-miterlimit="10"/>
<path d="M27.3672 30V35.9422C27.3672 36.0931 27.3971 36.2424 27.4551 36.3818C27.5132 36.5212 27.5983 36.6478 27.7055 36.7545C27.8128 36.8611 27.9401 36.9457 28.0803 37.0035C28.2204 37.0612 28.3706 37.0909 28.5223 37.0909H31.51" stroke="white" stroke-miterlimit="10"/>
<path d="M31.5103 40.5246C35.6516 41.2048 37.1603 38.6045 41.9051 37.3766C45.7211 36.3835 48.0817 38.2976 48.0817 38.2976" stroke="white" stroke-miterlimit="10"/>
<path d="M47.1638 230.995C47.1638 232.588 46.5726 234.115 45.5203 235.241C44.4681 236.367 43.0409 237 41.5527 237C40.0661 236.997 38.6412 236.364 37.5909 235.238C36.5406 234.112 35.9507 232.586 35.9507 230.995C35.9507 229.405 36.5409 227.88 37.5915 226.756C38.6421 225.632 40.067 225 41.5527 225C43.0393 225 44.4651 225.631 45.5171 226.755C46.5692 227.879 47.1614 229.404 47.1638 230.995Z" fill="#73A2E1"/>
<defs>
<linearGradient id="paint0_linear_738_303" x1="39" y1="5.35061" x2="39" y2="75.3841" gradientUnits="userSpaceOnUse">
<stop stop-color="#F2B3BA"/>
<stop offset="1" stop-color="#73A2E1"/>
</linearGradient>
</defs>
</svg>
