<svg width="238" height="257" viewBox="0 0 238 257" fill="none" xmlns="http://www.w3.org/2000/svg">
<path d="M36.8858 244.562C36.0413 243.375 35.7196 241.885 35.418 240.456C30.4617 216.732 25.5154 193.018 20.5591 169.294C20.1067 167.12 19.6442 164.946 19.2119 162.772C9.09822 181.533 0.341726 201.805 0.854449 223.063C0.985143 228.347 1.71903 233.702 3.8604 238.533C7.83149 247.461 16.397 253.802 25.7366 256.671C31.9797 258.583 38.7356 259.097 45.0793 257.517C48.8192 256.591 52.4082 254.91 55.4745 252.574C51.0912 251.024 46.708 249.454 42.3247 247.884C40.2939 247.159 38.1324 246.334 36.8858 244.562ZM85.3029 129.375C82.4377 130.905 79.6127 132.525 76.8581 134.257C66.6639 140.618 57.3042 148.328 49.6938 157.598C53.3834 158.373 57.073 159.138 60.7525 159.913C62.6024 160.296 64.5226 160.718 66.0306 161.856C67.056 162.641 67.8301 163.859 67.9809 165.107C74.6765 166.828 81.3419 168.69 87.957 170.693C90.018 165.409 92.1091 160.145 94.2605 154.901C97.2564 147.603 100.403 140.286 104.605 133.643C105.953 131.509 107.4 129.445 108.999 127.473C110.034 126.184 111.14 124.936 112.045 123.547C112.91 122.229 113.583 120.82 114.136 119.35C104.022 120.588 94.3208 124.554 85.2929 129.375H85.3029ZM222.813 168.912C217.857 161.03 211.704 153.934 204.687 147.825C193.89 138.414 181.031 131.328 167.268 127.322C164.041 133.15 160.824 138.977 157.728 144.866C153.294 153.33 149.122 161.916 145.583 170.784C140.275 184.12 136.414 198.171 135.489 212.474C135.168 212.353 134.846 212.243 134.524 212.132C133.157 213.793 131.84 215.494 130.583 217.235C124.511 225.559 119.585 234.739 116.006 244.411C115.101 246.837 114.287 249.303 113.553 251.789C117.544 254.316 121.576 256.752 125.647 259.046C134.615 264.109 143.834 268.498 153.495 271.749C167.54 276.47 182.61 278.714 197.268 276.54C202.908 275.705 208.517 274.195 213.494 271.387C225.638 264.532 232.424 250.813 235.289 237.144C240.165 213.944 235.43 188.962 222.803 168.902L222.813 168.912Z" fill="white"/>
<path d="M125.647 259.046C118.951 258.151 112.276 257.053 105.651 255.765C104.515 249.585 103.137 243.455 101.559 237.376C102.856 237.627 104.153 237.909 105.43 238.272C109.411 239.399 113.312 241.321 116.016 244.401C115.111 246.827 114.297 249.293 113.563 251.779C117.554 254.306 121.585 256.741 125.657 259.036L125.647 259.046Z" fill="#00CDCC"/>
<path d="M157.727 144.866C153.294 153.33 149.122 161.916 145.583 170.784C140.275 184.12 136.414 198.171 135.489 212.474C135.167 212.353 134.846 212.243 134.524 212.132C133.157 213.793 131.84 215.494 130.583 217.235C126.984 216.118 123.385 214.96 119.997 213.33C111.813 209.374 104.575 202.54 95.7682 201.131C93.9385 191.216 92.1188 181.312 90.2891 171.398C89.515 171.166 88.7409 170.925 87.9668 170.693C90.0277 165.409 92.1189 160.145 94.2703 154.901C97.2662 147.603 100.413 140.286 104.615 133.643C106.656 138.635 109.622 143.396 114.266 146.043C117.383 147.815 120.982 148.489 124.521 149.002C131.096 149.949 137.791 150.452 144.356 149.486C149.051 148.801 153.686 147.301 157.727 144.866Z" fill="#00CDCC"/>
<path d="M19.2119 162.782C18.8902 161.242 18.5785 159.702 18.2669 158.172C18.1462 157.568 18.0356 156.884 18.4076 156.39C18.7897 155.877 19.5135 155.807 20.1469 155.796C20.6797 155.786 21.2125 155.796 21.7353 155.817C24.2486 155.917 26.7419 156.33 29.2251 156.763C31.2056 157.105 33.176 157.457 35.1465 157.84C46.165 159.903 57.1232 162.329 67.991 165.127C74.6865 166.848 81.3519 168.71 87.967 170.713C88.7411 170.945 89.5153 171.186 90.2894 171.418C92.1191 181.332 93.9387 191.236 95.7685 201.151C96.3415 204.241 96.9045 207.321 97.4775 210.411C87.9268 210.954 78.4163 208.398 68.8455 207.633C68.4534 207.603 68.0211 207.572 67.6793 207.774C66.6941 208.317 67.1967 209.847 67.9407 210.683C68.0613 210.813 68.182 210.954 68.3127 211.075C67.3877 211.498 66.5332 212.132 66.4829 213.098C66.4628 213.622 66.7041 214.125 66.9856 214.568C67.2872 215.041 67.629 215.484 68.011 215.896C67.3777 216.48 66.8449 217.145 66.7343 217.98C66.5734 219.168 67.3274 220.275 68.1417 221.161C68.4836 221.533 68.8354 221.885 69.2074 222.228C68.5841 223.556 68.8857 225.297 69.7503 226.535C70.7657 228.005 72.3742 228.941 73.9727 229.756C79.4518 232.575 85.333 234.598 91.3751 235.745C94.7531 236.389 98.1913 236.762 101.559 237.406C103.138 243.485 104.505 249.615 105.651 255.795C106.345 259.55 106.968 263.314 107.491 267.099C107.571 267.632 107.631 268.216 107.41 268.699C106.827 269.967 104.987 269.726 103.67 269.283C87.5548 263.858 71.4895 258.302 55.4644 252.615C51.0811 251.065 46.6979 249.494 42.3146 247.924C40.2838 247.2 38.1223 246.374 36.8757 244.603C36.0312 243.415 35.7095 241.925 35.4079 240.496C30.4516 216.772 25.5053 193.058 20.549 169.334C20.0966 167.16 19.6341 164.986 19.2018 162.812L19.2119 162.782Z" fill="#3F2532"/>
<path d="M49.6935 157.598C53.3831 158.373 57.0727 159.138 60.7523 159.913C62.6021 160.296 64.5223 160.718 66.0303 161.856C67.0557 162.641 67.8299 163.859 67.9807 165.107C57.123 162.309 46.1648 159.883 35.1362 157.82C35.1764 157.014 35.6791 156.149 36.413 155.766C37.6596 155.122 39.1576 155.394 40.545 155.676C40.937 155.756 41.3392 155.847 41.7313 155.927C44.3753 156.481 47.0294 157.035 49.6734 157.588L49.6935 157.598Z" fill="#C0DBF9"/>
<path d="M139.289 23.8C132.101 21.8372 124.37 21.5856 117.222 23.7194C109.984 25.8633 103.409 30.5638 99.5584 37.056C97.1154 41.1928 95.8185 45.8832 94.6222 50.5334C92.9131 57.2168 91.3548 63.9404 89.8066 70.664C88.8013 75.0022 87.7959 79.4007 87.8763 83.8597C88.0473 92.8882 93.0639 101.695 100.735 106.436C105.369 109.305 110.728 110.694 116.136 111.509C115.644 114.166 115.071 116.834 114.126 119.34C104.012 120.578 94.3105 124.544 85.2826 129.365C82.4173 130.895 79.5923 132.515 76.8377 134.247C64.9848 123.718 58.2088 106.446 63.7884 91.6603C68.222 79.9241 79.3109 71.7108 83.9153 60.0351C87.0017 52.1942 86.9012 43.4877 88.9822 35.3147C92.3099 22.3002 101.479 10.9164 113.472 4.90738C125.466 -1.10161 140.063 -1.62502 152.449 3.51836C153.354 3.89077 154.279 4.30346 155.264 4.2632C156.31 4.22294 157.265 3.6794 158.2 3.19626C167.278 -1.45391 178.669 -0.517832 187.526 4.52489C196.383 9.57767 202.797 18.3446 206.185 27.9771C209 35.979 209.884 44.6653 213.695 52.2445C216.58 57.9717 220.983 62.7728 224.341 68.2383C232.716 81.8567 234.033 99.2797 229.056 114.478C224.713 127.775 215.816 139.32 204.667 147.805C193.869 138.394 181.011 131.308 167.248 127.302C167.208 127.291 167.167 127.281 167.127 127.271C164.835 114.337 164.232 100.93 165.428 87.6845C170.606 88.9225 176.226 89.6674 181.101 87.5335C185.977 85.3997 189.486 79.3907 187.204 74.5795C186.43 72.9287 185.073 71.6001 183.565 70.5734C177.352 66.3661 168.062 67.6646 163.237 73.4018C164.111 68.0772 162.995 62.4508 160.15 57.861C155.154 49.7886 145.422 45.3297 141.179 36.8245C139.199 32.8487 138.616 28.2086 139.551 23.8704C139.46 23.8503 139.38 23.8201 139.289 23.8C139.289 23.8 139.279 23.8 139.269 23.8H139.289Z" fill="#3F2532"/>
<path d="M9.6206 141.091C7.89142 143.627 6.16224 146.184 4.44311 148.741C4.16162 150.613 3.88013 152.475 3.59863 154.347C5.36803 153.159 7.12737 151.982 8.62533 150.814C10.0429 149.194 11.3699 147.513 12.6366 145.792C12.5763 145.721 12.516 145.651 12.4557 145.57C11.3297 144.201 10.2238 142.742 9.63067 141.091H9.6206ZM37.3177 102.803C34.6334 106.275 31.9794 109.788 29.3554 113.321C28.2093 114.861 27.0733 116.411 25.9373 117.971C27.2643 119.179 28.4506 120.548 29.3755 122.068C30.4211 120.729 31.4767 119.38 32.5021 118.021C32.6328 117.85 32.7635 117.679 32.8842 117.508C35.9303 113.432 38.7352 109.194 41.7513 105.057C40.3237 104.212 38.8358 103.467 37.3177 102.803Z" fill="#00CDCC"/>
<path d="M95.7684 201.12C96.3415 204.211 96.9045 207.291 97.4775 210.381C87.9268 210.924 78.4163 208.368 68.8455 207.603C68.4534 207.572 68.0211 207.542 67.6793 207.743C66.694 208.287 67.1967 209.817 67.9407 210.652C68.0613 210.783 68.1819 210.924 68.3126 211.045C67.3877 211.468 66.5332 212.102 66.4829 213.068C66.4628 213.591 66.7041 214.095 66.9856 214.538C67.2872 215.011 67.629 215.454 68.011 215.866C67.3777 216.45 66.8448 217.114 66.7343 217.95C66.5734 219.137 67.3274 220.245 68.1417 221.13C68.4835 221.503 68.8354 221.855 69.2074 222.197C68.5841 223.526 68.8857 225.267 69.7503 226.505C70.7657 227.975 72.3742 228.911 73.9727 229.726C79.4518 232.544 85.333 234.568 91.3751 235.715C94.7531 236.359 98.1913 236.732 101.559 237.376C102.856 237.627 104.153 237.909 105.43 238.272C109.411 239.399 113.312 241.321 116.016 244.401C119.595 234.729 124.521 225.559 130.593 217.225C126.994 216.108 123.395 214.95 120.007 213.32C111.824 209.364 104.585 202.53 95.7785 201.12H95.7684ZM39.4091 140.296C39.7208 137.9 40.4848 135.595 40.8669 133.21C41.2489 130.824 41.2288 128.268 40.0727 126.144C38.8763 123.95 36.6444 122.561 34.865 120.809C33.9904 119.954 33.2163 119.008 32.5025 118.021C31.477 119.38 30.4214 120.719 29.3759 122.068C28.4509 120.548 27.2646 119.179 25.9376 117.971C27.0736 116.421 28.2097 114.871 29.3557 113.321C28.9436 112.707 28.5213 112.103 28.0689 111.509C27.2244 110.402 26.008 109.244 24.6508 109.546C23.8163 109.727 23.183 110.422 22.811 111.187C22.1274 112.586 22.1475 114.317 22.8713 115.696C22.4993 115.515 22.0972 115.374 21.685 115.294C20.6093 115.082 19.3627 115.414 18.7595 116.34C17.9854 117.528 18.5383 119.108 19.2018 120.356C19.3727 120.679 19.5436 120.991 19.7347 121.303L19.3727 121.514C17.8145 120.668 15.7736 121.967 15.2307 123.658C14.718 125.278 15.1905 127.01 15.7937 128.6L15.5625 128.691C14.1148 128.912 12.637 129.657 11.9935 130.975C11.4708 132.032 11.5613 133.23 11.9131 134.377L11.6316 134.418C9.68126 135.334 8.88705 137.84 9.29924 139.964C9.36961 140.346 9.48019 140.709 9.61089 141.081C10.204 142.732 11.2999 144.191 12.4359 145.56C12.4962 145.63 12.5565 145.701 12.6169 145.781C14.0746 147.533 15.7032 149.234 17.7943 150.109C18.7595 150.522 19.996 150.693 20.75 149.969C20.7702 149.948 20.7903 149.928 20.8104 149.908C21.0315 151.831 21.3935 154.166 21.7353 155.716V155.796C24.2386 155.897 26.7419 156.31 29.225 156.743C31.2056 157.085 33.176 157.437 35.1465 157.82C35.1867 157.014 35.6894 156.149 36.4233 155.766C37.6699 155.122 39.1679 155.394 40.5552 155.676C40.9473 155.756 41.3494 155.847 41.7415 155.927C41.1182 151.418 38.816 144.775 39.4091 140.286V140.296ZM187.224 74.5895C186.45 72.9388 185.093 71.6102 183.585 70.5835C177.372 66.3762 168.082 67.6746 163.257 73.4119C164.131 68.0873 163.016 62.4608 160.17 57.871C155.174 49.7986 145.442 45.3397 141.2 36.8345C139.219 32.8587 138.636 28.2186 139.571 23.8805C139.481 23.8603 139.4 23.8301 139.31 23.81C139.29 23.8201 139.269 23.8301 139.239 23.8402C139.259 23.8301 139.269 23.8201 139.28 23.81C132.091 21.8473 124.36 21.5956 117.212 23.7295C109.974 25.8734 103.399 30.5739 99.5485 37.066C97.1055 41.2029 95.8087 45.8933 94.6123 50.5435C92.9032 57.2268 91.3449 63.9505 89.7967 70.6741C88.7914 75.0122 87.7861 79.4108 87.8665 83.8697C88.0374 92.8983 93.054 101.705 100.725 106.446C105.359 109.315 110.718 110.704 116.127 111.519C115.634 114.176 115.061 116.844 114.116 119.35C113.563 120.819 112.889 122.229 112.025 123.547C111.11 124.926 110.014 126.184 108.979 127.473C107.39 129.445 105.932 131.509 104.585 133.643C106.626 138.635 109.592 143.396 114.237 146.043C117.353 147.815 120.952 148.489 124.491 149.002C131.066 149.948 137.761 150.452 144.326 149.485C149.021 148.801 153.656 147.301 157.697 144.865C160.784 138.967 164.011 133.139 167.238 127.322C167.198 127.312 167.158 127.302 167.117 127.291C164.825 114.358 164.222 100.951 165.418 87.7046C170.596 88.9426 176.216 89.6875 181.092 87.5536C185.967 85.4198 189.476 79.4108 187.194 74.5996L187.224 74.5895Z" fill="#FBC9B4"/>
<g style="mix-blend-mode:multiply">
<path d="M40.1228 247.028C14.5872 252.514 4.50363 231.206 0.864306 218.906C0.824093 220.285 0.814035 221.674 0.844195 223.063C0.974889 228.347 1.70879 233.702 3.85016 238.533C7.82125 247.461 16.3867 253.802 25.7263 256.671C31.9695 258.583 38.7254 259.097 45.0691 257.516C48.8089 256.59 52.398 254.91 55.4643 252.574C51.081 251.024 46.6977 249.454 42.3144 247.884C41.5805 247.622 40.8366 247.35 40.1228 247.028ZM179.895 267.189C147.835 261.945 126.26 242.892 119.454 236.128C118.197 238.845 117.041 241.613 116.006 244.411C115.101 246.837 114.287 249.303 113.553 251.789C117.544 254.316 121.575 256.751 125.647 259.046C134.615 264.109 143.834 268.498 153.495 271.749C167.539 276.469 182.61 278.714 197.267 276.54C202.907 275.704 208.517 274.195 213.494 271.386C220.38 267.501 225.548 261.392 229.247 254.346C219.304 262.257 202.666 270.903 179.895 267.179V267.189ZM159.627 223.043C160.763 223.526 161.91 223.989 163.056 224.442C166.876 225.942 170.857 227.22 174.909 228.045C178.337 219.651 181.303 211.085 183.816 202.379C183.444 203.244 174.657 223.486 159.627 223.043ZM158.411 201.775C155.073 207.16 151.736 212.545 148.398 217.93L150.77 219.027C151.605 218.282 152.359 217.356 153.002 216.48C155.144 213.561 157.285 210.642 159.436 207.723C160.794 205.871 162.191 203.939 162.654 201.684C163.146 199.258 162.503 196.762 161.869 194.377C161.055 191.347 160.241 188.317 159.436 185.288C159.145 184.191 158.853 183.003 159.255 181.936C159.627 180.94 160.542 180.255 161.407 179.631C165.318 176.803 169.228 173.964 173.149 171.136C174.014 170.512 174.919 169.838 175.361 168.851C175.793 167.875 175.683 166.758 175.562 165.701C174.607 157.588 173.149 149.536 171.681 141.121C172.094 149.707 172.506 158.283 172.918 166.868C172.958 167.633 172.988 168.418 172.687 169.123C172.305 170.009 171.46 170.592 170.656 171.116C166.956 173.521 163.086 175.675 159.105 177.578C158.582 177.829 158.029 178.091 157.687 178.564C157.325 179.067 157.265 179.722 157.245 180.336C157.064 185.398 158.723 190.31 159.718 195.273C159.939 196.36 160.12 197.477 159.919 198.564C159.708 199.742 159.064 200.788 158.431 201.805L158.411 201.775ZM82.6989 150.361C87.615 144.493 92.5311 138.615 97.4472 132.747C91.7771 137.669 85.9864 142.953 80.3062 148.348C79.7935 148.841 79.2607 149.365 79.0495 150.039C78.8183 150.824 79.0696 151.66 79.321 152.435L80.829 157.105C81.2512 158.413 81.6735 159.742 81.6634 161.111C81.6433 163.567 80.2459 165.751 79.3913 168.066L80.3464 168.287C81.3719 166.848 82.3873 165.419 83.4127 163.98C83.7646 163.486 84.1164 162.983 84.2572 162.399C84.4482 161.594 84.217 160.759 83.9857 159.974C83.3323 157.749 82.6889 155.535 82.0354 153.31C81.8946 152.827 81.7539 152.324 81.8343 151.831C81.9348 151.267 82.3169 150.794 82.6889 150.351L82.6989 150.361Z" fill="#C0DBF9"/>
</g>
<g style="mix-blend-mode:multiply">
<path d="M138.194 111.247C131.991 112.898 125.426 112.667 119.052 111.912C118.087 111.791 117.122 111.67 116.167 111.519C115.674 114.176 115.101 116.844 114.156 119.35C113.794 120.296 113.392 121.222 112.919 122.098C121.043 122.712 129.407 121.866 136.776 118.394C143.844 115.072 149.886 109.144 152.399 101.796C149.142 106.557 143.803 109.758 138.194 111.247ZM182.107 76.5322C181.504 75.1532 180.197 74.1668 178.759 73.734C177.321 73.3012 175.773 73.3817 174.305 73.7239C171.561 74.3681 168.907 76.0994 167.932 78.7465C167.992 78.817 168.434 79.2397 168.877 79.28C169.319 79.3203 169.731 79.0888 170.113 78.8573C171.199 78.193 172.255 77.4481 173.431 76.9549C174.607 76.4617 175.954 76.2403 177.161 76.663C178.196 77.0254 179 77.8105 179.875 78.4748C180.327 78.817 180.89 79.1391 181.433 78.9982C181.896 78.8774 182.238 78.4345 182.318 77.9514C182.398 77.4682 182.288 76.9851 182.097 76.5422L182.107 76.5322Z" fill="#F8A3A8"/>
</g>
<path d="M107.762 53.1102C107.149 52.7881 106.395 52.8887 105.742 53.1303C103.52 53.9255 101.941 56.2304 102.002 58.5857C102.012 59.0286 102.082 59.4815 102.253 59.8841C102.545 60.5484 103.138 61.0718 103.831 61.2732C104.525 61.4745 105.309 61.3537 105.912 60.9511C107.38 59.9647 108.858 57.9214 108.898 55.6064C108.908 54.6401 108.627 53.5531 107.772 53.1102H107.762ZM138.264 57.549C137.641 57.2571 136.887 57.3879 136.244 57.6496C134.062 58.5253 132.574 60.9007 132.725 63.256C132.755 63.6989 132.835 64.1418 133.026 64.5444C133.338 65.1986 133.951 65.6918 134.655 65.873C135.359 66.0441 136.133 65.8931 136.716 65.4704C138.144 64.4337 139.541 62.3199 139.481 60.0049C139.461 59.0386 139.129 57.9617 138.254 57.5591L138.264 57.549Z" fill="black"/>
<path d="M113.1 39.3911C111.854 38.7771 110.446 38.5557 109.059 38.4953C107.631 38.4349 106.184 38.5356 104.776 38.8073C103.841 38.9885 102.896 39.2502 102.122 39.8139C101.348 40.3775 100.775 41.2834 100.845 42.2396C100.855 42.4409 100.906 42.6523 101.046 42.8033C101.257 43.0348 101.619 43.0549 101.941 43.0348C103.178 42.9341 104.354 42.4409 105.57 42.1792C107.943 41.676 110.507 42.149 112.547 43.4575C113.583 44.1218 114.659 45.0378 115.865 44.8264C116.187 44.2325 116.207 43.1757 115.905 42.3201C115.443 41.0116 114.357 39.985 113.11 39.371L113.1 39.3911ZM147.624 49.7383C147.523 47.1012 145.181 45.0579 142.718 44.1118C139.531 42.8838 135.851 42.9844 132.765 44.4338C132.222 44.6855 131.689 44.9975 131.327 45.4706C130.965 45.9537 130.824 46.6382 131.126 47.1515C131.428 47.6648 132.232 47.856 132.433 47.6145C135.459 46.7992 138.867 46.5073 141.582 48.0876C142.868 48.8324 143.904 49.9496 145.11 50.8153C145.683 51.2279 146.467 51.5903 147.061 51.2078C147.523 50.9058 147.644 50.2818 147.624 49.7282V49.7383Z" fill="#3F2532"/>
<path d="M105.5 238.01C104.364 237.688 103.127 237.396 101.609 237.104C99.9102 236.782 98.171 236.52 96.4921 236.269C94.8232 236.017 93.1041 235.765 91.4251 235.443C85.3931 234.296 79.5621 232.293 74.0931 229.485C72.6353 228.73 70.9866 227.814 69.9813 226.354C69.2071 225.237 68.9659 223.808 69.3278 222.68C71.6803 224.764 74.7265 226.455 78.4261 227.693C80.5976 228.418 82.8395 228.971 85.1116 229.313C85.1217 229.313 85.1418 229.313 85.1518 229.313C85.2926 229.313 85.4032 229.213 85.4233 229.072C85.4434 228.921 85.3428 228.78 85.192 228.75C82.9602 228.408 80.7384 227.874 78.597 227.159C74.8169 225.891 71.7205 224.15 69.3881 221.996C69.0463 221.674 68.7045 221.332 68.3425 220.939C67.3272 219.832 66.8848 218.866 67.0054 217.99C67.0859 217.406 67.4076 216.853 68.0007 216.259C68.9055 217.185 69.941 217.94 70.7654 218.503C75.6815 221.835 81.3818 224.029 87.263 224.855C87.2731 224.855 87.2932 224.855 87.3032 224.855C87.444 224.855 87.5646 224.754 87.5747 224.613C87.5948 224.462 87.4943 224.321 87.3334 224.301C81.5427 223.486 75.9228 221.322 71.0771 218.04C70.2125 217.457 69.1167 216.661 68.2018 215.675C67.8198 215.272 67.488 214.84 67.2065 214.387C66.8748 213.863 66.734 213.461 66.7441 213.088C66.7742 212.424 67.2668 211.87 68.242 211.387C69.9511 213.058 72.1528 214.155 74.1031 215.001C79.4616 217.356 85.1217 218.956 90.9124 219.782C90.9225 219.782 90.9426 219.782 90.9526 219.782C91.0934 219.782 91.214 219.681 91.2241 219.54C91.2442 219.389 91.1436 219.248 90.9828 219.228C85.2323 218.413 79.6325 216.822 74.3143 214.487C72.3639 213.642 70.1421 212.545 68.4833 210.854C68.3627 210.733 68.242 210.602 68.1214 210.471C67.6891 209.978 67.297 209.163 67.4076 208.549C67.4478 208.297 67.5785 208.106 67.7997 207.985C68.0711 207.834 68.433 207.854 68.805 207.884C72.3136 208.166 75.8725 208.69 79.3209 209.203C85.2624 210.089 91.405 211.005 97.4773 210.652C98.0403 210.632 98.5932 210.582 99.116 210.532C99.2668 210.522 99.3874 210.381 99.3673 210.23C99.3573 210.079 99.2165 209.968 99.0657 209.978C98.563 210.028 98.0101 210.069 97.4572 210.099C91.4453 210.441 85.3227 209.535 79.4113 208.649C75.953 208.136 72.384 207.603 68.8653 207.321C68.4129 207.281 67.9404 207.26 67.5383 207.492C67.1763 207.693 66.9451 208.025 66.8748 208.448C66.734 209.263 67.2166 210.26 67.7394 210.844C67.7796 210.884 67.8097 210.924 67.8499 210.964C66.7943 211.528 66.2414 212.233 66.2012 213.058C66.1811 213.702 66.5028 214.296 66.7441 214.679C66.9954 215.081 67.297 215.464 67.6187 215.836C67.1361 216.319 66.5732 217.004 66.4525 217.909C66.3118 218.966 66.7943 220.084 67.9304 221.312C68.2521 221.664 68.5637 221.976 68.8754 222.268C68.3526 223.586 68.5838 225.328 69.5087 226.656C70.5945 228.226 72.3036 229.183 73.8317 229.968C79.351 232.806 85.2323 234.829 91.3146 235.977C93.0035 236.299 94.7327 236.56 96.4016 236.802C98.0805 237.054 99.8097 237.315 101.499 237.637C102.997 237.929 104.213 238.211 105.339 238.533C109.813 239.801 113.422 241.885 115.785 244.583C115.835 244.643 115.915 244.673 115.996 244.673C116.066 244.673 116.126 244.653 116.177 244.603C116.297 244.502 116.307 244.321 116.207 244.21C113.774 241.442 110.074 239.288 105.49 238L105.5 238.01ZM29.6068 121.927C28.7121 120.457 27.5459 119.068 26.1183 117.77C25.6961 117.377 25.2336 116.995 24.751 116.612C24.2484 116.22 23.6452 115.777 22.9917 115.465C22.5795 115.263 22.1573 115.123 21.735 115.042C21.5842 115.012 21.4334 115.112 21.4133 115.263C21.3832 115.414 21.4837 115.565 21.6345 115.586C22.0065 115.656 22.3785 115.787 22.7504 115.968C23.3536 116.26 23.9267 116.683 24.4092 117.055C24.8817 117.427 25.3341 117.8 25.7463 118.182C27.1337 119.441 28.2697 120.799 29.1343 122.219C29.6873 123.134 30.1296 124.071 30.4513 125.017C30.8434 126.174 31.2556 127.825 30.2704 128.67C29.1645 129.627 27.385 128.751 26.8623 128.469C26.822 128.449 26.7718 128.419 26.7215 128.389C26.2289 128.107 25.7363 127.775 25.2738 127.402C24.6606 126.919 24.0373 126.355 23.424 125.711C22.861 125.117 22.3081 124.493 21.7853 123.829C21.1117 122.984 20.5085 122.088 19.9757 121.182C19.8953 121.051 19.7244 121.001 19.5937 121.081C19.463 121.162 19.4127 121.333 19.4931 121.464C20.036 122.39 20.6593 123.306 21.3429 124.171C21.8758 124.846 22.4388 125.49 23.0118 126.094C23.6351 126.748 24.2785 127.342 24.9219 127.835C25.3442 128.167 25.7865 128.469 26.2289 128.741C26.2289 128.781 26.2289 128.821 26.249 128.852C27.2242 130.975 27.6364 133.321 27.4454 135.646C27.375 136.491 27.0533 138.504 25.5955 139.058C24.9823 139.289 24.2785 139.229 23.5145 138.867C22.9917 138.625 22.4388 138.232 21.8758 137.719C21.1419 137.035 20.4482 136.28 19.8048 135.444C18.7492 134.086 17.8042 132.485 16.9798 130.694C16.6782 130.049 16.3967 129.395 16.1453 128.761C16.1152 128.68 16.085 128.6 16.0549 128.53C16.0046 128.379 15.8437 128.308 15.703 128.348C15.5522 128.399 15.4818 128.56 15.522 128.701C15.5522 128.791 15.5823 128.882 15.6226 128.962C15.8739 129.617 16.1655 130.281 16.4671 130.925C17.3115 132.757 18.2767 134.388 19.3624 135.777C20.0259 136.632 20.7397 137.417 21.4938 138.112C22.0567 138.625 22.6097 139.007 23.1425 139.279C23.5547 140.266 23.7759 141.353 23.7859 142.42C23.7859 143.275 23.615 143.869 23.243 144.211C22.851 144.584 22.288 144.674 21.5742 144.483C21.0011 144.332 20.4784 144.06 20.1365 143.849C18.709 142.953 17.402 141.896 16.2559 140.688C14.9791 139.35 13.9034 137.87 13.0489 136.27C12.9986 136.179 12.9484 136.089 12.8981 135.988L12.8478 135.887C12.5563 135.293 12.3351 134.77 12.1743 134.267C12.124 134.116 11.9732 134.035 11.8224 134.086C11.6716 134.136 11.5912 134.287 11.6414 134.438C11.8023 134.971 12.0335 135.525 12.3452 136.149L12.3954 136.25C12.4457 136.35 12.496 136.451 12.5462 136.541C13.4209 138.182 14.5267 139.702 15.8437 141.081C17.03 142.319 18.3671 143.406 19.8349 144.322C20.2069 144.553 20.78 144.855 21.4234 145.016C21.7049 145.087 21.9763 145.127 22.2276 145.127C22.7806 145.127 23.2531 144.956 23.615 144.614C24.1076 144.151 24.3388 143.426 24.3388 142.4C24.3388 141.433 24.1478 140.467 23.8362 139.551C24.178 139.662 24.5098 139.712 24.8214 139.712C25.1331 139.712 25.4749 139.652 25.7865 139.531C27.4755 138.887 27.8978 136.813 27.9882 135.636C28.1792 133.411 27.8274 131.157 26.9728 129.093C27.6766 129.425 28.3502 129.596 28.9534 129.596C29.5968 129.596 30.1698 129.405 30.6122 129.033C31.8588 127.956 31.4064 126.084 30.954 124.775C30.6222 123.799 30.1598 122.812 29.5867 121.866L29.6068 121.927ZM193.698 227.894C193.658 227.743 193.507 227.653 193.356 227.693C187.978 229.102 181.906 229.152 175.301 227.844C179.231 218.181 182.599 208.146 185.334 198.01C185.374 197.859 185.284 197.708 185.133 197.668C184.982 197.628 184.831 197.718 184.791 197.869C182.056 208.015 178.679 218.06 174.748 227.733C171.078 226.968 167.298 225.811 163.176 224.19C159.024 222.56 154.902 220.637 150.921 218.775C145.965 216.46 140.838 214.065 135.6 212.212C135.298 212.102 134.997 212.001 134.695 211.89L134.635 211.87C134.484 211.82 134.333 211.9 134.283 212.041C134.232 212.182 134.313 212.343 134.454 212.394L134.514 212.414C134.816 212.514 135.117 212.625 135.419 212.736C140.637 214.578 145.754 216.973 150.7 219.278C154.691 221.14 158.813 223.063 162.985 224.704C167.228 226.364 171.118 227.552 174.878 228.317C178.206 229.001 181.413 229.344 184.459 229.344C187.505 229.344 190.672 228.971 193.507 228.226C193.658 228.186 193.749 228.035 193.708 227.884L193.698 227.894ZM139.229 24.2126C138.385 28.5206 138.998 33.0399 140.958 36.9654C143.24 41.5451 147.151 45.0076 150.931 48.3593C154.229 51.2783 157.627 54.2878 159.939 58.0321C162.734 62.5413 163.84 68.1377 162.985 73.3817C162.965 73.5327 163.066 73.6736 163.216 73.7038C163.237 73.7038 163.247 73.7038 163.267 73.7038C163.397 73.7038 163.518 73.6031 163.538 73.4723C164.413 68.0974 163.277 62.3702 160.411 57.7402C158.059 53.9355 154.621 50.8857 151.293 47.9466C147.553 44.6351 143.683 41.2129 141.451 36.7238C139.49 32.7883 138.927 28.2589 139.852 23.9509C139.852 23.9409 139.852 23.9207 139.852 23.9107C139.872 23.9107 139.893 23.8905 139.913 23.8905C140.053 23.8402 140.134 23.6792 140.073 23.5282C140.023 23.3873 139.862 23.3068 139.712 23.3671C139.591 23.4175 139.47 23.4577 139.35 23.5081C139.289 23.5081 139.239 23.5081 139.189 23.5483L139.149 23.5785C139.149 23.5785 139.149 23.5785 139.139 23.5785C132.825 26.1452 127.376 31.057 124.179 37.066C124.109 37.207 124.159 37.368 124.29 37.4485C124.33 37.4686 124.38 37.4787 124.42 37.4787C124.521 37.4787 124.621 37.4284 124.672 37.3277C127.477 32.0636 132.041 27.665 137.399 24.9877C132.936 28.9635 130.151 34.6705 129.829 40.6694C129.829 40.8204 129.94 40.9512 130.09 40.9613C130.09 40.9613 130.09 40.9613 130.101 40.9613C130.251 40.9613 130.372 40.8405 130.382 40.6996C130.714 34.3081 134.112 28.0073 139.249 24.2026L139.229 24.2126ZM111.462 75.8175C111.512 75.8879 111.602 75.9282 111.683 75.9282C111.743 75.9282 111.803 75.9081 111.854 75.8678C111.974 75.7772 112.004 75.5961 111.914 75.4753L109.783 72.6368C109.481 72.2443 109.24 71.8819 109.24 71.4995C109.24 70.9459 109.773 70.4829 110.195 70.1004C112.487 68.0672 114.377 65.6817 115.835 62.9943C115.905 62.8634 115.855 62.6923 115.724 62.6118C115.593 62.5413 115.423 62.5917 115.342 62.7225C113.915 65.3596 112.055 67.6948 109.823 69.6776C109.34 70.1004 108.687 70.6842 108.677 71.4894C108.677 72.0933 109.049 72.5966 109.33 72.969L111.462 75.8074V75.8175ZM122.53 84.8863C122.39 84.8159 122.229 84.8662 122.158 85.0071C121.555 86.1545 120.369 87.0806 118.911 87.5536C117.735 87.9361 116.368 88.0468 114.608 87.926C112.286 87.765 110.436 87.2617 108.968 86.3961C107.169 85.3393 105.922 83.6584 105.641 81.8969C105.621 81.7459 105.47 81.6352 105.319 81.6654C105.168 81.6856 105.068 81.8365 105.088 81.9875C105.399 83.91 106.746 85.7419 108.687 86.8792C110.235 87.7851 112.155 88.3085 114.568 88.4897C115.03 88.5199 115.473 88.54 115.885 88.54C117.112 88.54 118.147 88.3991 119.082 88.0972C120.681 87.5838 121.987 86.5572 122.661 85.2789C122.731 85.138 122.681 84.9769 122.54 84.8964L122.53 84.8863Z" fill="black"/>
<g style="mix-blend-mode:multiply">
<path d="M150.633 87.8993C156.388 86.4231 159.858 80.5554 158.384 74.7934C156.909 69.0315 151.049 65.5572 145.294 67.0334C139.538 68.5096 136.068 74.3773 137.543 80.1392C139.017 85.9012 144.878 89.3755 150.633 87.8993Z" fill="#F8A3A8"/>
<path d="M92.7123 81.9271C98.6539 81.9271 103.469 77.1059 103.469 71.1573C103.469 65.2087 98.6539 60.3874 92.7123 60.3874C92.5414 60.3874 92.3806 60.4075 92.2197 60.4075C91.4054 63.8297 90.6212 67.2519 89.827 70.6741C89.0529 74.0259 88.2788 77.4078 88.0073 80.83C89.4349 81.5245 91.0233 81.9271 92.7224 81.9271H92.7123Z" fill="#F8A3A8"/>
</g>
<path d="M146.276 81.2931C146.347 81.2931 146.417 81.2629 146.467 81.2126C148.649 79.1391 151.082 77.3072 153.686 75.7773C153.816 75.6968 153.867 75.5257 153.786 75.3948C153.706 75.264 153.535 75.2136 153.404 75.2941C150.77 76.8442 148.307 78.6962 146.085 80.7999C145.975 80.9106 145.965 81.0817 146.075 81.1924C146.125 81.2528 146.206 81.283 146.276 81.283V81.2931Z" fill="#EE5952"/>
<path d="M150.117 73.6435C150.046 73.5026 149.875 73.4522 149.745 73.5126C146.658 75.0325 143.813 76.9952 141.29 79.3304C141.179 79.431 141.169 79.6122 141.28 79.7229C141.33 79.7833 141.41 79.8135 141.481 79.8135C141.551 79.8135 141.622 79.7934 141.672 79.743C144.155 77.4381 146.96 75.5055 149.996 74.0159C150.137 73.9454 150.187 73.7844 150.127 73.6435H150.117Z" fill="#EE5952"/>
<path d="M93.0033 74.7708C93.0636 74.7708 93.134 74.7506 93.1843 74.7003C95.1145 73.0093 97.2458 71.5499 99.5179 70.3521C99.6586 70.2816 99.7089 70.1105 99.6385 69.9696C99.5682 69.8287 99.3973 69.7784 99.2565 69.8488C96.9543 71.0667 94.7827 72.5564 92.8223 74.2776C92.7017 74.3782 92.6916 74.5594 92.7922 74.6701C92.8424 74.7305 92.9229 74.7708 93.0033 74.7708Z" fill="#EE5952"/>
<path d="M97.1454 67.4331C97.0751 67.2922 96.9142 67.2419 96.7734 67.3123C94.1193 68.6409 91.6563 70.3319 89.4445 72.3148C89.3742 72.6268 89.3038 72.9489 89.2334 73.2609C91.5557 71.0767 94.1696 69.2348 97.0248 67.8055C97.1655 67.7351 97.2158 67.5639 97.1454 67.4331Z" fill="#EE5952"/>
<path d="M176.568 170.381C176.105 170.311 175.683 170.623 175.613 171.076C173.823 182.349 170.526 192.615 165.821 201.573C164.323 204.432 162.553 207.291 159.819 208.81C157.034 210.35 153.204 210.371 149.564 208.841C149.142 208.659 148.649 208.861 148.468 209.294C148.287 209.716 148.489 210.21 148.921 210.391C150.932 211.236 153.002 211.649 154.973 211.649C156.943 211.649 158.984 211.186 160.633 210.28C163.75 208.559 165.68 205.449 167.308 202.359C172.104 193.229 175.452 182.792 177.271 171.337C177.342 170.884 177.03 170.452 176.578 170.381H176.568ZM142.527 204.845C139.833 203.375 137.852 200.245 137.359 196.682C136.947 193.682 137.44 190.351 138.867 186.506C142.326 177.215 149.142 169.697 155.998 162.953C156.33 162.631 156.33 162.097 156.008 161.765C155.687 161.433 155.154 161.433 154.822 161.765C147.835 168.64 140.868 176.33 137.299 185.922C135.771 190.039 135.238 193.632 135.701 196.913C136.274 201.06 138.526 204.573 141.733 206.324C141.863 206.395 141.994 206.425 142.135 206.425C142.436 206.425 142.718 206.264 142.869 205.992C143.09 205.59 142.939 205.076 142.537 204.855L142.527 204.845ZM170.576 154.256C170.355 154.83 170.646 155.484 171.219 155.696C171.35 155.746 171.481 155.766 171.621 155.766C172.074 155.766 172.496 155.494 172.667 155.052C172.788 154.73 175.703 147.019 176.125 137.89C176.648 126.426 172.928 117.971 165.348 113.271C165.428 114.237 165.509 115.193 165.609 116.149C180.599 127.382 170.686 153.965 170.576 154.246V154.256ZM79.9747 158.444C78.8487 158.273 77.6925 158.353 76.6168 158.725C73.7215 159.732 71.6505 162.752 71.7611 165.821L84.7601 169.898C86.5999 167.442 86.62 163.778 84.8104 161.302C84.1167 160.356 83.1817 159.611 82.116 159.108C84.5992 152.716 98.1613 119.753 115.172 116.018C115.373 115.233 115.564 114.438 115.725 113.643C96.7136 116.632 82.4378 151.962 79.9646 158.444H79.9747Z" fill="#EE5952"/>
<path d="M77.4409 162.178C75.6916 162.802 74.4751 164.674 74.6058 166.526V166.848L82.2162 168.932C83.3824 167.492 83.4628 165.258 82.3871 163.738C81.3114 162.218 79.1901 161.554 77.4409 162.178ZM175.592 157.598C174.738 156.441 173.652 155.364 172.274 154.921C171.45 154.659 170.565 154.639 169.701 154.659C163.679 154.85 157.757 157.387 153.455 161.604C153.455 162.289 155.244 163.305 156.109 164.292C156.31 164.523 156.571 164.775 156.883 164.734C157.064 164.714 157.215 164.583 157.355 164.463C159.386 162.721 161.397 160.889 163.86 159.843C166.313 158.796 169.359 158.695 171.49 160.316C172.938 161.413 173.772 163.164 174.144 164.946C174.516 166.727 174.486 168.559 174.496 170.371C174.496 170.653 174.526 170.985 174.758 171.146C174.878 171.227 175.019 171.247 175.16 171.267C176.004 171.388 176.758 171.488 177.703 171.619C178.648 171.75 178.528 161.524 175.602 157.568L175.592 157.598ZM144.598 204.976C144.437 204.905 144.256 204.905 144.085 204.885C143.773 204.845 143.461 204.774 143.17 204.664C142.929 204.573 142.647 204.462 142.446 204.613C142.315 204.704 142.275 204.865 142.195 205.006C142.124 205.116 142.044 205.197 141.964 205.298C141.742 205.579 141.582 205.902 141.32 206.163C141.27 206.214 141.22 206.264 141.199 206.334C141.179 206.435 141.24 206.526 141.3 206.606C141.642 207.009 142.124 207.28 142.476 207.683C142.647 207.874 142.808 208.116 143.069 208.126C143.291 208.136 143.482 207.975 143.622 207.804C144.185 207.18 144.618 206.435 144.879 205.64C144.909 205.549 144.939 205.459 144.929 205.368C144.909 205.197 144.768 205.056 144.608 204.986L144.598 204.976ZM148.599 207.522C148.428 207.331 148.257 207.089 148.006 207.079C147.784 207.069 147.603 207.24 147.453 207.401C146.9 208.035 146.478 208.78 146.216 209.585C146.186 209.676 146.166 209.767 146.176 209.857C146.196 210.028 146.347 210.169 146.508 210.23C146.669 210.29 146.849 210.3 147.02 210.32C147.332 210.35 147.644 210.421 147.945 210.532C148.187 210.622 148.468 210.723 148.669 210.572C148.8 210.471 148.84 210.32 148.92 210.179C148.981 210.069 149.071 209.988 149.152 209.887C149.373 209.596 149.534 209.283 149.785 209.022C149.835 208.971 149.886 208.921 149.906 208.851C149.926 208.75 149.865 208.659 149.795 208.579C149.443 208.176 148.961 207.915 148.609 207.522H148.599Z" fill="black"/>
</svg>
