<svg width="502" height="552" viewBox="0 0 502 552" fill="none" xmlns="http://www.w3.org/2000/svg">
<path d="M251 551.012C389.624 551.012 502 544.458 502 536.374C502 528.29 389.624 521.737 251 521.737C112.377 521.737 0 528.29 0 536.374C0 544.458 112.377 551.012 251 551.012Z" fill="#F1F2F4"/>
<path d="M36.613 217.219H79.2083C104.444 217.219 124.932 237.708 124.932 262.943V402.798C124.932 405.751 122.539 408.144 119.586 408.144H36.613C33.6602 408.144 31.2673 405.751 31.2673 402.798V222.565C31.2673 219.612 33.6602 217.219 36.613 217.219Z" fill="#313163"/>
<path d="M183.026 397.375H41.7117V408.144H183.026V397.375Z" fill="#313163"/>
<path d="M51.3766 408.144L39.6534 540.051H34.7358L46.4645 408.144H51.3766Z" fill="#272443"/>
<path d="M116.897 540.051H111.985L100.256 408.144H105.168L116.897 540.051Z" fill="#272443"/>
<path d="M170.047 235.595C170.81 236.945 171.589 238.289 172.39 239.618C177.176 247.537 183.438 254.442 188.257 262.339C191.956 268.404 199.228 280.308 192.966 286.763C191.051 288.738 188.032 289.167 185.288 288.942C180.315 288.535 175.601 286.357 171.622 283.349C167.643 280.341 164.333 276.532 161.326 272.559C151.43 259.485 143.302 244.305 138.274 228.685C136.782 224.047 134.915 205.09 144.103 205.765C145.514 205.869 146.803 206.566 147.994 207.318C158.812 214.113 164.042 225.018 170.041 235.606L170.047 235.595Z" fill="#F7967C"/>
<path d="M182.06 251.472C181.95 251.686 181.753 251.84 181.566 251.983C171.435 259.645 160.699 266.889 151.023 275.111C150.321 269.31 150.321 263.289 149.662 257.427C148.993 251.467 148.12 245.534 147.105 239.623C145.08 227.861 142.478 216.215 139.646 204.629C138.631 200.469 142.264 200.244 145.277 201.731C148.921 203.531 152.214 205.842 155.195 208.515C155.842 209.091 156.473 209.684 157.088 210.293C157.664 210.858 158.219 211.44 158.773 212.027C162.33 215.842 165.414 220.145 168.142 224.574C171.045 229.283 173.586 234.201 176.04 239.157C177.911 242.817 179.931 246.39 181.824 250.045C182.055 250.49 182.291 251.033 182.06 251.483V251.472Z" fill="#67CAEA"/>
<path d="M216.769 212.296C205.265 229.491 193.751 246.626 181.725 263.465C176.808 270.352 172.132 280.226 180.337 286.818C186.424 291.713 194.898 289.029 199.634 283.59C202.477 280.325 204.294 276.313 206.072 272.361C208.476 267.021 210.699 261.555 213.097 256.253C219.376 242.356 225.04 228.185 230.067 213.789C230.243 213.29 230.693 212.362 230.55 211.83C230.413 211.314 229.546 210.644 229.173 210.266C227.515 208.575 223.179 205.024 220.649 206.846C220.188 207.176 219.864 207.659 219.546 208.131C218.618 209.519 217.691 210.902 216.763 212.291L216.769 212.296Z" fill="#F7967C"/>
<path d="M252.377 180.996V190.129C252.377 197.763 246.587 204.08 239.161 204.893V220.161H235.572V204.98C227.532 204.799 221.05 198.208 221.05 190.129V180.996H252.383H252.377Z" fill="#D83F4E"/>
<path d="M221.05 169.41V190.129C221.05 198.208 227.537 204.805 235.572 204.98C235.682 204.98 235.792 204.98 235.907 204.98H237.526C238.08 204.98 238.624 204.953 239.167 204.887C246.593 204.069 252.383 197.758 252.383 190.123V169.405H221.05V169.41ZM250.094 190.129C250.094 196.506 245.325 201.792 239.161 202.593C238.624 202.664 238.08 202.703 237.52 202.703H235.901C235.792 202.703 235.682 202.703 235.567 202.703C228.788 202.522 223.327 196.956 223.327 190.134V171.699H250.089V190.134L250.094 190.129Z" fill="#DFDFDF"/>
<path d="M239.162 202.593V231.582H235.572V202.697C235.682 202.697 235.792 202.697 235.907 202.697H237.526C238.08 202.697 238.629 202.659 239.167 202.587L239.162 202.593Z" fill="#DFDFDF"/>
<path d="M237.367 227.741L243.728 232.773L250.094 237.801H237.367H224.639L231 232.773L237.367 227.741Z" fill="#DFDFDF"/>
<path d="M227.609 204.267C230.968 203.817 234.403 204.382 237.762 204.646C238.679 204.717 239.595 204.788 240.512 204.744C242.565 204.64 244.584 203.938 246.253 202.741C247.46 201.879 248.497 200.76 249.837 200.134C252.219 199.02 250.539 203.548 250.007 204.3C249.238 205.392 248.163 206.237 247.043 206.962C245.018 208.268 242.768 209.228 240.424 209.783C238.081 210.337 235.66 210.359 233.306 210.886C230.325 211.555 228.47 213.707 225.726 214.761C223.986 215.43 221.807 215.046 220.606 213.619C219.914 212.801 219.733 211.709 219.832 210.672C219.936 209.585 219.821 208.356 220.529 207.45C221.034 206.802 221.747 206.352 222.455 205.935C224.167 204.92 225.682 204.536 227.62 204.272L227.609 204.267Z" fill="#F7967C"/>
<path d="M204.601 536.874C203.246 534.629 198.092 531.336 197.384 530.82C189.003 524.7 189.031 509.761 192.143 500.985C192.444 500.134 192.79 499.267 192.774 498.362C192.686 494.004 186.533 495.184 183.872 495.31C182.209 495.387 180.205 494.531 178.592 494.833C177.571 495.025 176.77 495.875 176.352 496.825C175.93 497.774 175.826 498.834 175.699 499.865C174.629 508.773 171.462 516.402 168.356 524.662C167.533 526.852 167.066 529.497 168.438 531.391C169.388 532.697 171.018 533.328 172.615 533.592C174.207 533.85 175.842 533.8 177.434 534.08C181.495 534.788 184.92 537.549 188.899 538.635C191.495 539.343 194.234 539.31 196.928 539.195C199.25 539.096 201.572 538.937 203.882 538.723C204.091 538.701 204.316 538.679 204.491 538.564C205.084 538.185 205.035 537.582 204.601 536.874Z" fill="#F7967C"/>
<path d="M167.955 534.826C168.548 536.38 168.757 538.081 168.521 539.728C168.51 539.815 168.499 539.909 168.499 540.002H173.949C173.696 538.943 173.356 537.829 173.356 536.769C173.444 533.043 177.675 535.436 179.596 535.985C181.55 536.539 183.487 537.175 185.31 538.092C186.857 538.871 188.372 539.689 190.139 539.975C191.127 540.134 192.241 540.002 193.24 540.002H205.847C206.676 540.002 207.51 540.002 208.339 540.002C208.805 540.002 209.771 540.183 210.057 539.656C210.556 538.729 208.745 537.713 208.136 537.23C206.917 536.27 205.633 535.397 204.283 534.629C202.955 533.872 201.539 533.125 200.084 532.637C198.833 532.214 197.455 532.22 196.149 531.967C191.577 531.089 187.121 529.602 182.933 527.565C178.822 525.562 175.392 522.785 171.611 520.255C171.221 519.991 170.787 519.722 170.321 519.766C169.712 519.832 169.3 520.403 168.987 520.935C167.401 523.619 165.167 527.434 165.886 530.688C166.232 532.258 167.379 533.339 167.95 534.832L167.955 534.826Z" fill="#67CAEA"/>
<path d="M183.328 431.398C183.938 429.746 184.679 428.143 185.601 426.623C189.053 420.91 194.173 421.014 200.183 421.53C203.152 421.782 205.946 422.984 207.801 425.377C210.243 428.528 209.87 431.178 209.266 434.944C207.829 443.879 205.43 452.622 203.043 461.343C197.373 482.028 191.698 502.714 186.029 523.405C184.975 527.242 180.798 523.795 178.839 522.17C176.391 520.145 173.834 516.89 174.092 513.521C175.809 491.227 177.889 468.96 180.337 446.738C180.908 441.562 181.545 436.25 183.328 431.403V431.398Z" fill="#F7967C"/>
<path d="M174.574 536.874C173.219 534.629 168.065 531.336 167.357 530.82C158.976 524.7 159.004 509.761 162.116 500.985C162.418 500.134 162.763 499.267 162.747 498.362C162.659 494.004 156.507 495.184 153.845 495.31C152.182 495.387 150.178 494.531 148.565 494.833C147.544 495.025 146.743 495.875 146.326 496.825C145.908 497.774 145.799 498.834 145.672 499.865C144.602 508.773 141.435 516.402 138.329 524.662C137.506 526.852 137.039 529.497 138.411 531.391C139.361 532.697 140.991 533.328 142.588 533.592C144.18 533.85 145.815 533.8 147.407 534.08C151.468 534.788 154.893 537.549 158.872 538.635C161.468 539.343 164.207 539.31 166.902 539.195C169.223 539.096 171.545 538.937 173.855 538.723C174.064 538.701 174.289 538.679 174.465 538.564C175.057 538.185 175.008 537.582 174.574 536.874Z" fill="#F7967C"/>
<path d="M137.928 534.826C138.521 536.38 138.73 538.081 138.494 539.728C138.483 539.815 138.472 539.909 138.472 540.002H143.922C143.669 538.943 143.329 537.829 143.329 536.769C143.417 533.043 147.648 535.436 149.569 535.985C151.523 536.539 153.46 537.175 155.282 538.092C156.83 538.871 158.345 539.689 160.112 539.975C161.1 540.134 162.214 540.002 163.213 540.002H175.82C176.649 540.002 177.483 540.002 178.312 540.002C178.778 540.002 179.744 540.183 180.03 539.656C180.529 538.729 178.718 537.713 178.109 537.23C176.89 536.27 175.6 535.397 174.256 534.629C172.928 533.872 171.512 533.125 170.057 532.637C168.806 532.214 167.428 532.22 166.122 531.967C161.55 531.089 157.094 529.602 152.906 527.565C148.795 525.562 145.365 522.785 141.583 520.255C141.194 519.991 140.76 519.722 140.294 519.766C139.685 519.832 139.273 520.403 138.96 520.935C137.374 523.619 135.14 527.434 135.859 530.688C136.205 532.258 137.352 533.339 137.923 534.832L137.928 534.826Z" fill="#67CAEA"/>
<path d="M153.307 431.398C153.916 429.746 154.657 428.143 155.579 426.623C159.032 420.91 164.152 421.014 170.162 421.53C173.131 421.782 175.925 422.984 177.78 425.377C180.222 428.528 179.849 431.178 179.245 434.944C177.807 443.879 175.409 452.622 173.021 461.343C167.352 482.028 161.677 502.714 156.007 523.405C154.954 527.242 150.777 523.795 148.818 522.17C146.37 520.145 143.812 516.89 144.07 513.521C145.788 491.227 147.868 468.96 150.316 446.738C150.887 441.562 151.523 436.25 153.307 431.403V431.398Z" fill="#F7967C"/>
<path d="M215.951 378.77C215.43 371.119 214.382 363.457 211.72 356.268C208.054 346.383 201.248 340.362 192.269 335.121C181.627 328.913 168.965 323.645 156.666 322.305C149.805 321.559 142.874 322.196 136.013 322.926C114.597 325.203 93.2806 328.337 71.9692 331.466C64.8837 332.508 56.2175 332.316 50.7456 337.662C43.8193 344.429 46.1958 359.742 49.4504 367.727C54.1265 379.192 67.7047 384.818 78.676 388.188C99.5922 394.62 122.171 399.329 144.108 399.489C140.876 419.647 137.544 439.784 134.114 459.91C138.444 459.394 142.791 460.947 147.143 460.7C153.439 460.338 157.396 456.079 161.474 451.864C166.419 446.749 170.398 440.168 173.625 433.873C170.458 440.048 175.211 451.008 178.751 456.074C181.934 460.629 186.468 462.819 191.907 463.143C196.55 463.417 203.438 465.19 207.927 464.081C209.069 457.451 210.21 450.821 211.352 444.186C213.816 429.861 216.286 415.476 216.577 400.948C216.67 396.157 216.528 391.366 216.346 386.58C216.248 383.995 216.132 381.388 215.957 378.781L215.951 378.77Z" fill="#67CAEA"/>
<path d="M102.512 191.27C101.804 191.342 101.102 191.424 100.405 191.517C101.102 191.419 101.804 191.336 102.512 191.27Z" fill="#BC3841"/>
<path d="M167.61 342.744C166.117 347.541 163.087 351.564 161.441 356.246C159.723 361.119 157.242 362.327 151.874 363.101C119.811 367.722 87.15 368.166 54.9717 364.423C52.3976 364.121 49.5327 363.633 48.0124 361.536C44.9444 357.338 46.2342 345.637 47.4855 340.949C47.8752 339.501 48.4076 338.096 48.94 336.696C51.0695 331.12 53.2209 325.555 55.515 320.044C57.886 314.342 59.9551 307.168 63.3744 302.042C64.0495 300.478 64.7245 298.859 64.7465 297.152C64.7739 295.467 64.1647 293.848 63.5939 292.262C58.1989 277.29 55.312 261.417 55.0485 245.501C54.8345 232.521 54.4338 217.39 64.5873 207.714C67.8694 204.585 71.854 202.286 75.9208 200.271C80.2731 198.114 85.1139 195.842 90.0644 194.086C93.9062 192.719 97.8195 191.66 101.601 191.216C110.723 190.134 121.063 193.307 129.74 195.738C130.678 196.001 131.628 196.27 132.566 196.55C136.655 197.78 140.684 199.245 144.224 201.611C147.369 203.707 149.921 206.517 151.562 209.925C152.643 212.181 154.273 213.844 155.31 216.111C156.754 219.25 157.983 222.51 159.125 225.765C161.413 232.296 163.186 239.014 164.421 245.825C165.173 249.991 165.727 254.211 165.672 258.448C165.502 272.328 159.053 285.056 156.918 298.607C156.649 300.324 156.551 302.07 156.616 303.81C156.847 310.182 159.212 316.543 162.912 321.652C164.19 323.425 165.65 325.077 166.71 326.987C169.333 331.713 169.218 337.58 167.61 342.739V342.744Z" fill="#67CAEA"/>
<path d="M145.689 298.634C136.606 297.218 127.528 295.796 118.456 294.32C110.086 292.953 101.414 291.23 93.2694 288.738C89.7184 287.652 86.1948 286.274 82.4847 286.049C78.4617 285.808 74.4936 286.999 71.0359 289.002C67.1337 291.263 61.541 294.765 62.7979 299.995C63.2315 301.812 64.0492 303.584 65.4213 304.852C68.7802 307.97 74.6912 310.044 79.0654 311.098C90.1245 313.76 102.084 313.431 113.379 313.612C123.741 313.782 134.119 313.952 144.459 313.162C146.347 313.019 150.469 313.381 152.066 312.366C153.159 311.674 153.362 309.572 153.691 308.206C154.245 305.884 154.838 301.312 152.264 299.863C151.77 299.583 151.194 299.496 150.634 299.408C148.987 299.15 147.335 298.897 145.689 298.639V298.634Z" fill="#F7967C"/>
<path d="M159.981 300.511C162.835 301.022 165.639 301.735 168.285 302.904C170.376 303.826 172.33 305.017 174.283 306.203C176.347 307.459 178.493 308.793 179.755 310.857C180.156 311.51 180.463 312.267 180.354 313.03C179.865 316.4 172.373 314.495 170.343 314.216C168.345 313.941 166.177 313.315 164.152 313.348C160.123 313.42 156.188 313.42 152.165 312.865C150.464 312.629 148.625 312.256 147.495 310.972C145.705 308.941 145.678 305.994 146.743 303.612C148.054 300.687 150.173 299.199 153.367 299.584C155.568 299.847 157.791 300.121 159.975 300.511H159.981Z" fill="#F7967C"/>
<path d="M82.759 244.003C84.2244 256.533 86.6393 268.947 89.9817 281.11C91.1836 285.484 94.7291 290.133 92.66 294.803C91.8642 296.598 90.322 297.937 88.7468 299.106C84.0487 302.591 78.6152 305.072 72.9073 306.334C70.9754 306.762 68.8843 307.037 67.0842 306.224C65.3663 305.451 64.2028 303.826 63.1819 302.245C48.5773 279.595 46.113 250.441 54.3127 224.969C56.5465 218.026 64.318 200.935 74.241 203.603C80.8435 205.375 81.0192 216.166 81.1564 221.561C81.3485 229.063 81.8863 236.555 82.759 244.008V244.003Z" fill="#F7967C"/>
<path d="M56.4424 214.876C52.2822 221.588 49.6917 229.64 48.3471 236.495C45.9267 248.811 46.4371 261.483 46.9585 274.024C46.975 274.397 47.0134 274.814 47.2988 275.05C47.5183 275.232 47.8202 275.254 48.1056 275.265C53.3689 275.462 58.6048 274.524 63.8133 273.75C73.0612 272.372 82.3805 271.489 91.7217 271.093C91.7217 261.335 91.0576 251.686 90.5527 241.978C90.0313 231.939 88.736 221.95 86.7383 212.099C86.0906 208.926 85.2839 205.595 83.0391 203.262C79.532 199.624 72.7704 201.067 68.7419 203.01C63.6487 205.463 59.5927 209.788 56.4424 214.876Z" fill="#67CAEA"/>
<path d="M132.566 196.561C132.413 198.718 132.193 200.859 132.105 202.834C131.677 212.84 130.892 222.823 129.751 232.773C129.806 232.312 127.44 230.32 127.023 229.925C125.508 228.487 123.79 227.219 122.182 225.886C119.054 223.295 115.931 220.694 112.989 217.889C107.726 212.867 102.742 207.571 97.759 202.28C95.1905 199.552 92.6219 196.825 90.0588 194.097C93.9007 192.73 97.8139 191.671 101.595 191.226C110.717 190.145 121.057 193.318 129.734 195.749C130.673 196.012 131.622 196.281 132.561 196.561H132.566Z" fill="#F7967C"/>
<path d="M115.431 114.038C107.034 116.436 100.179 122.957 95.4428 130.212C90.7337 137.424 87.8359 145.662 85.5417 153.966C84.3398 158.313 83.286 162.736 83.0884 167.242C82.7866 174.075 84.5319 181.111 90.5471 185.052C92.501 186.331 94.7403 187.105 96.9905 187.752C103.73 189.695 110.421 189.942 117.319 190.288C121.002 190.475 124.833 191.589 128.488 192.132C132.111 192.67 135.744 193.142 139.383 193.554C141.062 193.74 142.818 193.91 144.388 193.285C146.688 192.374 148.043 189.992 148.922 187.676C149.992 184.844 150.628 181.869 151.205 178.9C152.313 173.203 153.23 167.473 153.949 161.715C154.284 159.065 154.992 156.068 154.822 153.395C154.701 151.474 154.361 149.608 154.3 147.649C154.037 138.9 152.692 129.241 146.177 122.792C142.676 119.323 138.082 117.282 133.422 115.866C129.224 114.592 124.07 112.732 119.657 113.209C118.209 113.368 116.804 113.648 115.437 114.038H115.431Z" fill="white"/>
<path d="M131.529 183.493C131.496 185.003 131.463 186.512 131.43 188.021C131.414 188.85 131.392 189.679 131.375 190.507L131.332 192.236L131.321 192.67C131.277 194.646 131.227 196.627 131.189 198.608C131.172 199.344 131.15 200.101 130.887 200.787C130.223 202.544 128.236 203.361 126.425 203.855C118.154 206.127 109.142 205.655 101.156 202.527C100.004 202.077 98.4287 201.605 97.545 200.71C96.409 199.558 97.0291 197.527 97.331 196.062C98.8238 188.856 101.118 181.874 102.024 174.575C102.419 171.359 104.356 169.52 107.578 169.278L107.885 169.257C108.028 169.251 108.176 169.246 108.319 169.235C108.461 169.235 108.604 169.229 108.747 169.224H108.84C108.966 169.218 109.087 169.218 109.197 169.218C109.34 169.218 109.477 169.218 109.614 169.218C109.894 169.218 110.168 169.224 110.448 169.246C110.591 169.251 110.723 169.257 110.865 169.267C111.008 169.278 111.14 169.284 111.282 169.3C111.398 169.311 111.518 169.322 111.634 169.328C111.793 169.339 111.952 169.355 112.117 169.377C112.139 169.377 112.161 169.383 112.183 169.388C112.292 169.405 112.408 169.416 112.523 169.432C112.786 169.46 113.05 169.498 113.313 169.542C113.352 169.547 113.39 169.553 113.428 169.564C113.675 169.602 113.922 169.646 114.169 169.696C114.718 169.805 115.262 169.926 115.805 170.069C115.937 170.102 116.068 170.135 116.195 170.173C116.623 170.288 117.045 170.42 117.457 170.557C117.567 170.59 117.671 170.623 117.775 170.662C117.989 170.733 118.198 170.81 118.406 170.887C118.56 170.941 118.708 171.002 118.862 171.062C118.972 171.101 119.076 171.145 119.18 171.188C119.367 171.26 119.553 171.337 119.735 171.419C119.762 171.43 119.789 171.441 119.811 171.452C120.009 171.54 120.207 171.627 120.399 171.715C120.476 171.748 120.541 171.781 120.618 171.82C120.821 171.913 121.024 172.012 121.222 172.11C121.233 172.116 121.233 172.121 121.244 172.121C121.387 172.193 121.524 172.27 121.666 172.341C122.314 172.681 122.951 173.049 123.571 173.45C123.587 173.461 123.604 173.466 123.62 173.477C126.15 175.085 128.406 177.105 130.239 179.481C130.728 180.118 131.2 180.788 131.403 181.561C131.568 182.187 131.562 182.846 131.54 183.499L131.529 183.493Z" fill="#F7967C"/>
<path d="M146.007 177.978C145.804 177.072 145.557 176.177 145.25 175.294C145.03 174.674 144.762 174.031 144.235 173.636C142.692 172.478 141.628 174.652 141.007 175.683C139.405 178.34 138.34 181.326 137.901 184.394C137.824 184.915 137.769 185.453 137.896 185.969C138.104 186.825 138.807 187.505 139.608 187.873C142.204 189.053 147.379 189.168 147.001 185.2C146.77 182.78 146.54 180.343 146.007 177.983V177.978Z" fill="#272443"/>
<path d="M131.529 183.493C131.496 185.003 131.463 186.512 131.43 188.021C131.414 188.85 131.392 189.679 131.375 190.508L131.331 192.236C129.8 193.274 127.846 193.861 125.783 193.899C121.156 193.982 115.827 192.198 112.391 189.031C108.774 185.7 106.749 180.628 107.38 175.749C107.737 172.972 109.12 169.432 112.183 169.388C112.292 169.405 112.408 169.416 112.523 169.432C112.786 169.46 113.05 169.498 113.313 169.542C113.352 169.547 113.39 169.553 113.428 169.564C113.675 169.602 113.922 169.646 114.169 169.696C114.718 169.805 115.262 169.926 115.805 170.069C115.937 170.102 116.068 170.135 116.195 170.173C116.623 170.288 117.045 170.42 117.457 170.557C117.567 170.59 117.671 170.623 117.775 170.662C117.989 170.733 118.198 170.81 118.406 170.887C118.56 170.941 118.708 171.002 118.862 171.062C118.972 171.101 119.076 171.145 119.18 171.188C119.367 171.26 119.553 171.337 119.735 171.419C119.762 171.43 119.789 171.441 119.811 171.452C120.009 171.54 120.207 171.627 120.399 171.715C120.475 171.748 120.541 171.781 120.618 171.82C120.821 171.913 121.024 172.012 121.222 172.11C121.233 172.116 121.233 172.121 121.244 172.121C121.387 172.193 121.524 172.27 121.666 172.341C122.314 172.681 122.951 173.049 123.571 173.45C123.587 173.461 123.604 173.466 123.62 173.477C126.15 175.085 128.406 177.105 130.239 179.481C130.728 180.118 131.2 180.788 131.403 181.561C131.567 182.187 131.562 182.846 131.54 183.499L131.529 183.493Z" fill="#DB6357"/>
<path d="M148.84 135.991C145.162 129.372 137.385 125.476 129.762 125.377C111.683 125.13 99.7076 140.256 99.1094 157.402C98.6703 169.943 104.384 183.521 116.892 187.385C123.681 189.481 131.365 191.034 137.599 186.66C145.173 181.353 147.665 170.244 149.822 161.792C151.858 153.807 152.994 144.833 149.399 137.1C149.224 136.727 149.037 136.359 148.84 135.997V135.991Z" fill="#F7967C"/>
<path d="M108.291 145.997C109.608 143.346 110.931 140.695 112.248 138.039C113.961 134.597 115.695 131.101 116.452 127.331C117.451 131.59 119.806 135.443 122.715 138.719C125.624 141.996 129.07 144.729 132.572 147.358C138.143 151.54 143.883 155.492 149.783 159.196C150.168 159.438 150.579 159.685 151.035 159.707C153.362 159.811 152.906 149.712 152.769 148.038C152.429 143.873 151.364 139.767 149.624 135.969C146.282 128.692 140.481 122.594 133.423 118.807C129.07 116.475 124.542 115.059 119.592 114.954C115.064 114.856 111.101 118.083 107.731 120.876C102.649 125.092 98.1597 130.119 95.1302 135.98C91.7603 142.501 89.4771 151.639 92.4134 158.697C92.9732 160.042 93.6373 161.408 94.6252 162.495C98.736 167.023 106.958 148.664 108.203 146.167C108.231 146.107 108.264 146.052 108.291 145.991V145.997Z" fill="white"/>
<path d="M95.4428 161.073C95.1244 161.644 94.9488 162.281 94.8555 162.928C94.3067 166.606 96.3813 170.53 99.7347 172.143C101.403 172.945 103.67 173.087 104.883 171.688C109.455 166.43 99.5042 153.856 95.4428 161.073Z" fill="#F7967C"/>
<path d="M121.546 161.326C120.689 160.547 119.691 159.86 118.516 159.943C117.171 160.036 116.024 160.486 114.894 161.222C114.394 161.545 115.218 161.935 115.569 161.705C116.282 161.238 117.018 160.826 117.841 160.634C117.819 160.662 117.797 160.695 117.781 160.733C117.781 160.733 117.781 160.744 117.775 160.75C117.567 160.936 117.402 161.167 117.314 161.441C117.199 161.803 117.149 162.923 117.545 163.159C117.643 163.219 117.77 163.23 117.885 163.241C118.472 163.291 119.614 163.625 120.163 163.444C120.744 163.252 120.931 162.347 120.893 161.792C121.024 161.864 121.167 161.897 121.326 161.853C121.584 161.776 121.815 161.567 121.551 161.326H121.546Z" fill="#272443"/>
<path d="M144.355 164.13C142.605 161.721 139.284 161.99 137.33 163.971C136.963 164.344 137.879 164.619 138.165 164.328C138.9 163.582 139.564 163.236 140.475 163.099C140.442 163.142 140.415 163.186 140.398 163.236C140.316 163.477 140.239 163.741 140.184 164.01C140.047 164.355 139.882 164.871 140.014 165.239C140.118 165.519 140.453 165.629 140.75 165.629C141.046 165.629 141.342 165.552 141.633 165.596C141.875 165.634 142.089 165.755 142.325 165.821C142.983 166.013 143.329 165.612 143.461 165.009C143.499 164.827 143.521 164.635 143.521 164.449C143.785 164.745 144.663 164.553 144.361 164.13H144.355Z" fill="#272443"/>
<path d="M124.378 155.3C122.885 153.889 120.141 153.488 117.978 153.521C115.564 153.56 113.198 154.339 111.403 156.002C111.392 156.013 111.387 156.024 111.376 156.035C111.327 156.079 111.299 156.123 111.294 156.172C111.266 156.298 111.348 156.419 111.491 156.513C111.716 156.699 112.095 156.831 112.38 156.754C115.514 155.92 118.675 156.156 121.694 156.759C122.451 156.913 123.873 157.566 124.669 157.149C125.563 156.677 124.8 155.689 124.378 155.289V155.3Z" fill="white"/>
<path d="M136.474 156.803C138.06 155.799 140.585 156.095 142.512 156.672C144.668 157.314 146.644 158.675 147.961 160.744C147.972 160.761 147.972 160.772 147.983 160.788C148.016 160.843 148.033 160.892 148.033 160.942C148.033 161.073 147.94 161.167 147.797 161.227C147.561 161.353 147.204 161.386 146.957 161.244C144.295 159.641 141.425 159.081 138.62 158.911C137.918 158.867 136.529 159.152 135.893 158.543C135.174 157.857 136.035 157.083 136.48 156.798L136.474 156.803Z" fill="white"/>
<path d="M132.363 171.348C131.864 168.477 130.371 165.804 131.485 162.874C131.655 162.429 130.689 162.308 130.541 162.692C129.943 164.268 130.009 165.876 130.377 167.5C130.794 169.344 132.868 173.691 130.091 174.542C129.482 174.728 130.152 175.233 130.58 175.107C132.276 174.591 132.638 172.939 132.363 171.342V171.348Z" fill="#DB6357"/>
<path d="M132.385 179.833C132.413 179.547 132.237 179.24 131.979 179.031C131.688 178.79 131.304 178.653 130.925 178.543C129.987 178.279 129.004 178.186 128.055 177.956C126.266 177.528 124.581 176.627 122.753 176.474C122.199 176.43 121.216 176.474 120.964 176.973C120.739 177.412 121.211 178.208 121.48 178.609C122.539 180.151 124.4 181.309 126.408 181.677C127.616 181.896 128.862 181.825 129.987 181.501C130.783 181.271 131.414 180.963 131.99 180.442C132.149 180.299 132.303 180.14 132.363 179.942C132.374 179.904 132.38 179.866 132.385 179.827V179.833Z" fill="white"/>
<path d="M145.985 148.593C136.924 144.004 129.087 137.325 123.082 129.136C122.83 128.791 121.913 129.038 122.237 129.482C128.329 137.792 136.298 144.526 145.491 149.18C145.925 149.4 146.556 148.878 145.985 148.587V148.593Z" fill="#C4B4BB"/>
<path d="M145.546 139.542C141.852 136.579 138.269 133.489 134.8 130.267C134.492 129.982 133.565 130.251 133.955 130.613C137.478 133.878 141.111 137.018 144.855 140.025C145.2 140.3 146.018 139.916 145.546 139.542Z" fill="#C4B4BB"/>
<path d="M102.506 126.447C92.9454 136.414 90.4372 150.453 90.1573 163.779C90.1463 164.235 91.1288 164.24 91.1343 163.779C91.4142 150.574 93.873 136.677 103.351 126.793C103.725 126.409 102.803 126.14 102.506 126.447Z" fill="#C4B4BB"/>
<path d="M105.026 138.483C103.654 141.463 102.496 144.52 101.552 147.665C101.409 148.143 102.369 148.263 102.496 147.846C103.44 144.701 104.592 141.644 105.97 138.664C106.173 138.22 105.212 138.082 105.026 138.483Z" fill="#C4B4BB"/>
<path d="M102.276 173.735C102.073 172.829 101.826 171.935 101.519 171.051C101.299 170.431 101.03 169.789 100.503 169.394C98.961 168.236 97.8962 170.409 97.276 171.441C95.6734 174.097 94.6087 177.083 94.1696 180.151C94.0928 180.672 94.0379 181.21 94.1641 181.726C94.3727 182.582 95.0752 183.263 95.8765 183.631C98.4725 184.811 103.648 184.926 103.269 180.958C103.039 178.537 102.808 176.101 102.276 173.741V173.735Z" fill="#272443"/>
<path d="M118.889 276.538C118.368 276.313 117.759 276.22 117.16 276.274C116.661 276.263 116.161 276.395 115.838 276.675C115.519 276.856 115.234 277.103 115.025 277.416C114.262 278.536 114.57 279.886 115.585 280.715C115.733 280.835 115.909 280.923 116.101 280.978C116.288 281.082 116.496 281.154 116.688 281.203C118.071 281.571 119.872 280.923 120.437 279.535C120.964 278.239 120.064 277.037 118.895 276.532L118.889 276.538Z" fill="#EEE1E0"/>
<path d="M103.862 241.868C103.105 241.456 102.046 241.412 101.008 241.895C99.2465 242.713 97.9897 244.941 100.026 246.253C100.405 246.494 100.844 246.615 101.283 246.698C101.563 246.752 101.848 246.791 102.139 246.78C103.116 246.747 104.021 246.116 104.499 245.265C105.388 243.695 104.905 242.428 103.862 241.862V241.868Z" fill="#EEE1E0"/>
<path d="M136.337 253.459C136.348 252.872 135.662 252.416 135.14 252.356C133.231 252.131 129.685 253.41 131.562 255.94C132.347 256.999 135.272 256.966 136.073 255.929C136.364 255.556 136.304 255.067 136.309 254.623C136.32 254.233 136.326 253.843 136.337 253.454V253.459Z" fill="#EEE1E0"/>
<path d="M155.843 229.854C155.7 228.279 154.075 227.417 152.599 227.713C151.139 228.01 150.025 229.31 150.442 230.825C150.53 231.132 150.919 231.396 151.194 231.506C151.474 231.621 151.836 231.681 152.165 231.659C152.253 231.703 152.341 231.742 152.434 231.775C153.296 232.076 154.399 232.033 155.124 231.418C155.585 231.028 155.903 230.474 155.848 229.854H155.843Z" fill="#EEE1E0"/>
<path d="M137.276 214.755C136.145 214.289 134.548 214.481 133.829 215.562C133.253 216.429 133.401 217.483 134.153 218.147C134.169 218.262 134.191 218.383 134.224 218.504C134.367 219.08 135.289 219.365 135.799 219.343C136.985 219.289 138.39 218.729 138.763 217.472C139.114 216.286 138.362 215.205 137.276 214.761V214.755Z" fill="#EEE1E0"/>
<path d="M158.773 212.016C158.235 212.313 157.593 212.461 157.011 212.489C156.506 212.51 155.584 212.225 155.436 211.649C155.409 211.523 155.381 211.407 155.365 211.292C154.613 210.628 154.465 209.569 155.041 208.702C155.09 208.63 155.14 208.559 155.195 208.498C155.842 209.075 156.473 209.667 157.088 210.277C157.664 210.842 158.219 211.424 158.773 212.011V212.016Z" fill="#EEE1E0"/>
<path d="M176.407 241.983C175.474 240.798 173.427 240.781 172.318 241.709C171.803 242.142 171.473 242.762 171.539 243.448C171.605 244.178 171.978 244.7 172.516 245.166C173.081 245.66 174.25 245.611 174.821 245.166C174.887 245.117 174.936 245.062 174.986 245.013C174.997 245.013 175.008 245.013 175.019 245.013C175.743 244.859 176.446 244.403 176.687 243.673C176.874 243.103 176.781 242.455 176.407 241.983Z" fill="#EEE1E0"/>
<path d="M156.562 282.35C155.859 281.472 154.542 281.143 153.477 281.384C152.528 281.598 151.578 282.317 151.688 283.393C151.787 284.348 152.561 284.984 153.45 285.166C153.834 285.522 154.333 285.764 154.844 285.835C155.535 285.928 156.562 285.802 156.852 285.039C157.187 284.156 157.176 283.113 156.562 282.35Z" fill="#EEE1E0"/>
<path d="M68.6046 208.482C66.6013 208.4 64.62 210.469 65.8549 212.472C66.9635 214.272 70.9371 213.443 71.4146 211.435C71.8153 209.761 70.1029 208.548 68.6046 208.487V208.482Z" fill="#EEE1E0"/>
<path d="M83.6044 259.886C83.4562 259.337 83.0884 258.915 82.4353 258.777C81.162 258.514 79.7844 258.41 78.6318 259.118C77.5616 259.776 77.0512 261.28 77.7153 262.405C78.0666 263.003 78.6703 263.421 79.3234 263.651C80.3826 264.024 81.6395 263.904 82.5286 263.218C83.3409 262.586 83.9117 260.995 83.6044 259.886Z" fill="#EEE1E0"/>
<path d="M57.6006 237.96C56.3493 236.923 54.2088 237.054 53.0617 238.174C51.9531 239.261 52.3099 241.143 53.5886 241.923C54.1869 242.285 54.9992 242.378 55.6413 242.071C56.4481 242.115 57.2823 241.829 57.8421 241.253C58.7752 240.287 58.5995 238.789 57.6006 237.96Z" fill="#EEE1E0"/>
<path d="M52.1065 266.379C50.7783 266.055 48.7092 266.242 48.1659 267.745C47.9628 268.305 48.1 268.964 48.4512 269.43C48.8135 269.902 49.3129 270.122 49.8508 270.199C50.2405 270.534 50.7179 270.753 51.2338 270.852C51.9528 270.989 53.2975 270.72 53.2975 269.749C53.2975 268.991 53.2975 268.234 53.2975 267.477C53.2975 266.834 52.6279 266.505 52.101 266.373L52.1065 266.379Z" fill="#EEE1E0"/>
<path d="M96.6335 213.509C96.6335 213.054 96.6335 212.598 96.6335 212.143C96.6335 211.49 95.9585 211.188 95.4371 211.04C94.0375 210.644 91.9465 211.512 91.8202 213.103C91.7873 213.218 91.7654 213.339 91.7599 213.465C91.6995 214.382 92.3745 215.117 93.1813 215.447C94.1363 215.831 95.492 215.798 96.2823 215.057C96.7268 214.64 96.6335 214.069 96.6335 213.509Z" fill="#EEE1E0"/>
<path d="M80.3389 316.115C80.2895 315.467 79.7077 315.149 79.1424 315.011C76.7385 314.43 73.901 316.389 74.5706 319.012C74.6858 319.462 75.1962 319.688 75.6682 319.786C76.1896 320.253 76.9086 320.489 77.6056 320.483C79.8394 320.461 80.487 317.937 80.3443 316.115H80.3389Z" fill="#EEE1E0"/>
<path d="M56.8597 340.785C56.7115 340.159 55.8004 339.984 55.2845 339.945C54.6753 339.901 54.0277 340.044 53.4459 340.318C53.0069 340.412 52.6282 340.631 52.447 340.988C51.7829 341.603 51.3713 342.448 51.5085 343.403C51.5963 344.006 52.1013 344.38 52.672 344.5C52.8147 344.61 52.9904 344.704 53.1935 344.786C53.7258 344.989 54.3241 345.016 54.8784 344.907C55.7236 344.736 56.5523 344.193 56.9036 343.381C57.2658 342.541 57.0628 341.63 56.8597 340.785Z" fill="#EEE1E0"/>
<path d="M90.0588 352.656C89.0709 352.442 87.9842 352.722 87.2652 353.441C87.1664 353.54 87.0896 353.639 87.0182 353.743C86.2993 354.72 86.6011 356.086 87.6439 356.855C88.9611 357.821 91.3321 357.502 91.9193 355.828C92.4188 354.396 91.5023 352.974 90.0533 352.656H90.0588Z" fill="#EEE1E0"/>
<path d="M127.709 319.715C126.94 318.7 125.53 318.392 124.35 318.722C123.285 319.023 122.259 319.945 122.38 321.136C122.396 321.307 122.451 321.455 122.528 321.581C122.511 322.064 122.643 322.53 123.011 322.92C123.071 322.986 123.137 323.046 123.208 323.101C123.455 323.683 124.103 323.952 124.756 323.952C125.87 323.952 127.1 323.535 127.769 322.591C128.4 321.702 128.378 320.577 127.72 319.709L127.709 319.715Z" fill="#EEE1E0"/>
<path d="M136.046 347.799C136.002 347.349 135.953 346.668 135.656 346.312C135.382 345.977 134.943 345.73 134.542 345.571C133.993 345.346 133.373 345.28 132.769 345.34C131.869 345.192 130.788 345.549 130.711 346.284C129.723 347.349 129.866 349.034 131.134 350.022C131.15 350.033 131.167 350.038 131.183 350.049C131.386 350.274 131.644 350.466 131.946 350.593C133.933 351.449 136.243 349.994 136.035 347.799H136.046Z" fill="#EEE1E0"/>
<path d="M175.957 332.86C175.068 332.119 173.696 332.091 172.67 332.53C171.803 332.898 170.952 333.743 171.067 334.759C171.1 335.077 171.265 335.324 171.495 335.51C171.539 335.648 171.611 335.79 171.704 335.933C172.033 336.427 172.598 336.74 173.202 336.85C173.4 336.899 173.603 336.926 173.767 336.937C174.887 337.036 176.007 336.4 176.506 335.401C176.956 334.506 176.72 333.491 175.963 332.854L175.957 332.86Z" fill="#EEE1E0"/>
<path d="M168.812 370.252C167 370.812 166.183 372.771 167.247 374.368C167.626 374.934 168.515 375.049 169.229 374.846C170.859 375.257 172.955 374.324 172.977 372.48C172.999 370.439 170.392 369.769 168.812 370.257V370.252Z" fill="#EEE1E0"/>
<path d="M121.568 385.043C119.817 382.875 115.481 384.165 116.178 387.178C116.249 387.485 116.496 387.694 116.804 387.826C116.869 388.248 117.226 388.512 117.599 388.693C118.84 389.28 120.475 389.011 121.452 388.051C122.297 387.216 122.303 385.954 121.568 385.043Z" fill="#EEE1E0"/>
<path d="M70.8878 374.302C70.0591 372.738 67.5509 372.458 66.327 373.682C65.855 374.154 65.7123 374.84 65.8989 375.477C65.9922 375.812 66.1788 376.07 66.4093 376.273C66.4313 376.366 66.4532 376.459 66.4862 376.547C66.8374 377.475 67.8747 377.853 68.7967 377.765C70.3719 377.617 71.7001 375.806 70.8933 374.297L70.8878 374.302Z" fill="#EEE1E0"/>
<path d="M156.479 415.761C154.981 415.394 152.846 416.327 152.895 417.973C152.692 418.626 152.791 419.367 153.285 419.966C154.47 421.398 157.077 421.085 158.136 419.664C159.278 418.132 158.208 416.184 156.479 415.761Z" fill="#EEE1E0"/>
<path d="M201.983 361.218C200.776 360.57 199.069 360.631 197.982 361.509C196.286 362.886 196.852 365.109 198.822 365.73C199.349 365.894 199.892 366.048 200.441 366.015C202.609 365.878 204.266 362.436 201.989 361.218H201.983Z" fill="#EEE1E0"/>
<path d="M188.405 407.293C187.631 407.304 186.868 407.557 186.275 407.99C185.985 408.078 185.732 408.243 185.578 408.489C185.381 408.808 185.26 409.137 185.205 409.466C185.101 409.84 185.073 410.251 185.167 410.685C185.216 410.921 185.37 411.096 185.573 411.228C185.897 411.744 186.391 412.178 187.016 412.436C188.718 413.144 190.93 412.348 191.308 410.438C191.665 408.627 190.167 407.277 188.405 407.293Z" fill="#EEE1E0"/>
<path d="M204.277 444.296C203.602 443.324 202.28 443.05 201.176 443.258C200.227 443.434 199.124 444.114 198.926 445.13C198.871 445.421 198.921 445.673 199.041 445.887C198.992 446.255 199.03 446.634 199.184 446.996C199.426 447.578 200.172 447.841 200.759 447.836C201.961 447.825 203.514 448.072 204.294 446.952C204.854 446.145 204.837 445.097 204.283 444.296H204.277Z" fill="#EEE1E0"/>
<path d="M145.711 443.286C143.768 441.919 139.866 443.467 140.739 446.206C141.134 447.44 142.544 448.247 143.807 447.973C145.826 447.528 148.038 444.927 145.706 443.286H145.711Z" fill="#EEE1E0"/>
<path d="M160.304 275.38C151.891 260.418 142.028 246.313 130.859 233.284C130.579 232.96 129.663 233.218 130.014 233.63C141.145 246.61 150.98 260.66 159.36 275.561C159.575 275.94 160.54 275.797 160.304 275.38Z" fill="#5B9FEF"/>
<path d="M162.533 239.557C162.412 239.14 161.452 239.255 161.589 239.738C163.537 246.494 164.778 253.41 165.299 260.418C165.332 260.88 166.314 260.874 166.276 260.418C165.754 253.349 164.498 246.368 162.533 239.557Z" fill="#5B9FEF"/>
<path d="M92.9181 268.393C92.3857 265.473 91.8424 262.553 91.2826 259.639C90.1575 253.778 88.9775 247.921 87.7481 242.082C87.6603 241.665 86.6998 241.769 86.804 242.263C87.9621 247.762 89.0762 253.273 90.141 258.794C90.6953 261.681 91.2386 264.568 91.771 267.46C91.8533 267.921 92.3473 269.244 92.1717 269.65C91.9247 270.226 91.8589 270.056 91.2771 270.067C90.7722 270.078 90.4429 270.155 90.0806 270.523C89.7019 270.901 90.624 271.17 90.9258 270.868C91.3375 270.457 92.2705 271.011 92.7919 270.621C93.4944 270.105 93.0553 269.101 92.9236 268.393H92.9181Z" fill="#5B9FEF"/>
<path d="M82.578 235.803C79.2685 229.365 74.2686 224.179 66.8263 223.136C63.7254 222.702 60.5367 222.977 57.562 223.981C56.4807 224.343 55.4215 224.793 54.4061 225.315C54.0713 225.485 51.0363 227.225 51.8485 227.801C51.9803 227.894 52.1614 227.878 52.3151 227.818C52.6883 227.675 52.8803 227.269 53.1822 227.022C53.4676 226.786 53.7859 226.588 54.1097 226.407C54.8946 225.957 55.7288 225.6 56.5631 225.26C57.8034 224.761 59.1316 224.201 60.4543 223.948C63.1656 223.432 65.9811 223.526 68.6539 224.212C74.8009 225.787 78.8294 230.545 81.634 235.99C81.8316 236.379 82.7975 236.237 82.578 235.809V235.803Z" fill="#5B9FEF"/>
<path d="M164.091 219.108C164.047 218.646 163.071 218.657 163.114 219.108C163.537 223.537 163.63 227.977 163.394 232.417C163.372 232.872 164.349 232.878 164.371 232.417C164.607 227.971 164.514 223.537 164.097 219.108H164.091Z" fill="#5B9FEF"/>
<path d="M148.867 325.895C131.847 324.237 114.658 325.231 97.9509 328.881C97.3197 329.018 97.682 329.654 98.2089 329.539C114.74 325.928 131.759 324.912 148.603 326.553C149.125 326.603 149.509 325.955 148.861 325.895H148.867Z" fill="#5B9FEF"/>
<path d="M204.508 348.809C200.161 372.003 193.065 394.659 183.389 416.179C180.65 422.271 177.703 428.264 174.563 434.159C174.338 434.581 175.304 434.729 175.507 434.34C186.66 413.396 195.32 391.146 201.209 368.161C202.85 361.756 204.272 355.302 205.49 348.803C205.573 348.37 204.596 348.348 204.513 348.803L204.508 348.809Z" fill="#5B9FEF"/>
<path d="M138.67 246.291C130.618 240.391 121.804 235.699 113.198 230.682C108.944 228.202 104.735 225.639 100.712 222.801C99.7075 222.093 98.7141 221.369 97.7372 220.622C96.8097 219.92 95.2839 219.201 95.5199 217.944C95.7614 216.665 96.4968 215.299 96.9523 214.069L98.4946 209.898C98.6153 209.569 98.1324 209.415 97.8909 209.475C94.3509 210.364 90.7615 210.996 87.1337 211.38C86.4092 206.567 85.6847 201.748 84.9657 196.934C84.8944 196.473 83.9229 196.495 83.9888 196.934L86.2171 211.77C86.261 212.071 86.5793 212.126 86.8373 212.099C90.3773 211.753 93.8679 211.166 97.3256 210.337C96.2993 213.109 95.2784 215.886 94.2521 218.657C94.2027 218.795 94.274 218.904 94.3783 218.992C107.781 229.969 124.048 236.566 137.978 246.78C138.335 247.038 139.158 246.654 138.67 246.297V246.291Z" fill="#5B9FEF"/>
<path d="M143.883 204.684C143.384 203.345 142.884 202.006 142.38 200.661C142.226 200.249 141.26 200.376 141.436 200.842C141.902 202.088 142.369 203.334 142.83 204.58C140.382 205.376 137.907 206.073 135.404 206.665C135.075 206.742 134.882 207.143 135.289 207.291C136.82 207.851 138.357 208.411 139.888 208.97C140.728 209.278 142.176 209.481 142.341 210.622C142.445 211.347 141.897 212.653 141.743 213.394C141.106 216.407 140.563 219.437 140.107 222.483C139.125 229.036 138.582 235.638 138.433 242.263C138.422 242.718 139.399 242.724 139.41 242.263C139.58 234.799 140.256 227.357 141.479 219.991C141.803 218.054 142.16 216.116 142.561 214.195C142.791 213.081 143.565 211.303 143.313 210.139C143.11 209.201 142.023 208.981 141.249 208.702L136.759 207.06C139.081 206.484 141.381 205.82 143.658 205.074C143.812 205.024 143.944 204.854 143.883 204.684Z" fill="#5B9FEF"/>
<path d="M434.202 408.149H351.229C348.276 408.149 345.883 405.756 345.883 402.803V262.949C345.883 237.713 366.371 217.225 391.607 217.225H434.202C437.155 217.225 439.548 219.618 439.548 222.571V402.803C439.548 405.756 437.155 408.149 434.202 408.149Z" fill="#313163"/>
<path d="M287.794 408.144H429.109V397.376H287.794V408.144Z" fill="#313163"/>
<path d="M436.084 540.051H431.167L419.444 408.144H424.356L436.084 540.051Z" fill="#272443"/>
<path d="M370.564 408.144L358.836 540.051H353.924L365.652 408.144H370.564Z" fill="#272443"/>
<path d="M424.499 333.211C424.312 335.258 424.054 337.377 422.978 339.127C420.618 342.969 415.415 343.65 410.915 343.875C380.926 345.373 350.877 344.336 320.872 343.304C315.774 343.128 309.83 342.486 307.163 338.139C305.615 335.62 305.631 332.475 305.692 329.523C305.845 322.349 305.999 315.176 306.153 308.003C306.295 301.23 306.444 294.441 307.195 287.707C308.397 276.928 311.136 266.368 312.481 255.605C313.244 249.497 313.535 243.284 312.838 237.148C312.667 235.66 312.36 234.222 311.987 232.806C310.982 229.009 309.49 225.386 308.891 221.528C308.293 217.659 306.844 215.359 309.298 211.621C315.856 201.649 326.224 194.734 337.31 190.189C343.413 187.665 350.932 186.303 357.458 184.92C370.701 182.11 381.788 185.541 394.23 189.289C410.761 194.267 420.563 211.133 421.826 227.576C423.824 253.531 424.603 279.502 425.058 305.522C425.223 314.732 425.344 324.034 424.499 333.222V333.211Z" fill="#67CAEA"/>
<path d="M373.89 183.806C373.764 187.127 373.089 190.431 372.101 193.598C370.526 198.652 368.155 203.411 365.795 208.153C364.132 211.495 362.464 214.838 360.801 218.18C359.813 220.172 358.913 223.657 355.916 222.702C354.434 222.225 353.408 220.908 352.502 219.64C348.841 214.508 345.592 209.097 342.568 203.57C341.641 201.869 340.34 199.437 339.248 196.786C338.364 194.64 337.612 192.352 337.305 190.189C337.991 189.904 338.677 189.635 339.369 189.372C342.996 187.988 346.438 188.202 350.082 187.483C354.506 186.605 358.66 184.931 363.194 184.328C366.701 183.861 370.29 183.697 373.89 183.812V183.806Z" fill="#F7967C"/>
<path d="M290.28 247.724C284.863 260.605 279.655 273.585 273.382 286.066C272.465 287.893 271.505 289.77 271.373 291.807C271.148 295.209 273.996 297.278 276.455 299.101C281.153 302.586 286.587 305.066 292.295 306.329C294.226 306.757 296.318 307.031 298.118 306.219C299.836 305.445 300.999 303.821 302.02 302.24C311.218 287.976 317.267 271.203 323.178 255.364C326.295 247.016 329.204 238.481 330.077 229.612C330.949 220.743 329.627 211.407 324.813 203.905C324.517 203.444 324.193 202.977 323.732 202.692C323.156 202.335 322.437 202.302 321.762 202.335C317.876 202.533 313.441 204.958 310.73 207.675C308.277 210.123 306.531 213.18 304.885 216.232C299.402 226.429 294.77 237.043 290.28 247.724Z" fill="#67CAEA"/>
<path d="M220.446 301.373C223.514 300.325 226.637 299.43 229.755 298.535C239.48 295.747 249.206 292.954 258.931 290.166C265.265 288.349 271.62 286.527 278.124 285.462C280.264 285.111 282.438 284.842 284.606 285.012C288.436 285.314 291.016 287.169 294.172 289.002C298.074 291.263 303.667 294.765 302.41 299.995C301.976 301.812 301.159 303.585 299.786 304.853C296.428 307.97 290.517 310.045 286.142 311.098C275.083 313.76 263.124 313.431 251.829 313.612C241.467 313.782 231.088 313.952 220.748 313.162C218.86 313.019 214.739 313.381 213.141 312.366C212.049 311.669 211.33 308.832 211.204 307.63C210.995 305.637 212.335 304.633 214.168 303.815C216.22 302.899 218.317 302.097 220.446 301.373Z" fill="#F7967C"/>
<path d="M294.172 289.002C291.01 287.169 288.431 285.319 284.605 285.012C282.443 284.842 280.27 285.111 278.129 285.457C271.625 286.521 265.27 288.343 258.936 290.16C257.07 290.698 255.204 291.23 253.338 291.768C255.259 294.26 256.84 296.993 258.366 299.743C260.802 304.144 263.047 308.705 264.792 313.431C272.01 313.25 279.254 312.75 286.153 311.093C290.522 310.039 296.438 307.97 299.797 304.847C301.164 303.579 301.982 301.806 302.421 299.99C303.672 294.759 298.085 291.263 294.183 288.997L294.172 289.002Z" fill="#67CAEA"/>
<path d="M214.574 303.2C212.861 303.414 211.182 303.843 209.486 304.139C206.522 304.655 203.498 304.754 200.512 305.116C197.527 305.478 194.508 306.115 191.89 307.597C190.589 308.332 189.409 309.265 188.268 310.237C187.395 310.977 186.511 311.779 186.1 312.849C192.845 313.519 199.623 314.183 206.396 313.853C209.151 313.722 211.895 313.42 214.656 313.425C216.028 313.425 217.57 313.442 218.536 312.465C219.414 311.57 219.573 309.995 219.409 308.821C219.321 308.832 219.233 308.842 219.151 308.853C219.167 307.937 218.712 307.042 218.772 306.131C218.822 305.39 219.134 305.072 218.662 304.353C217.812 303.063 215.935 303.03 214.574 303.206V303.2Z" fill="#F7967C"/>
<path d="M213.91 312.344C211.873 313.486 209.607 313.211 207.378 313.052C205.671 312.931 204.052 313.058 202.362 313.239C201.643 313.316 199.645 313.744 199.031 313.217C197.779 312.147 200.287 311.422 200.897 311.148C203.097 310.171 205.392 309.463 207.828 309.715C208.355 309.77 208.734 309.122 208.086 309.057C205.172 308.755 202.488 309.589 199.859 310.807C198.965 311.224 195.447 312.569 197.872 313.59C200.562 314.726 203.707 313.546 206.5 313.678C209.316 313.815 212.033 314.265 214.601 312.827C215.117 312.536 214.283 312.13 213.91 312.344Z" fill="#DB6357"/>
<path d="M284.913 292.339C283.156 288.239 279.144 285.616 274.704 285.539C274.101 285.528 274.101 286.214 274.704 286.225C278.771 286.296 282.377 288.799 283.969 292.52C284.139 292.921 285.105 292.789 284.913 292.339Z" fill="#5C6EA0"/>
<path d="M312.332 230.677C310.137 249.7 307.942 268.717 305.746 287.74C305.697 288.184 306.674 288.201 306.723 287.74C308.919 268.717 311.114 249.7 313.309 230.677H312.332Z" fill="#5C6EA0"/>
<path d="M323.721 334.506C320.774 332.613 318.902 329.572 318.551 326.087C318.501 325.626 317.524 325.637 317.574 326.087C317.947 329.77 319.917 332.991 323.029 334.989C323.397 335.225 324.226 334.83 323.721 334.506Z" fill="#5C6EA0"/>
<path d="M403.023 325.028C402.2 328.573 400.366 331.707 397.633 334.116C397.183 334.517 397.99 334.896 398.325 334.599C401.162 332.097 403.111 328.903 403.967 325.209C404.082 324.72 403.122 324.605 403.023 325.028Z" fill="#5C6EA0"/>
<path d="M272.542 311.751C269.446 304.271 265.797 297.037 261.625 290.1C261.4 289.726 260.44 289.875 260.681 290.281C264.853 297.218 268.502 304.452 271.598 311.932C271.768 312.339 272.728 312.207 272.542 311.751Z" fill="#5C6EA0"/>
<path d="M379.823 241.56C379.554 242.126 379.28 242.691 379 243.251C373.04 255.172 368.155 267.603 362.156 279.535C361.24 281.362 360.279 283.239 360.148 285.275C359.824 290.171 366.646 294.139 370.866 294.397C373.435 294.551 375.987 293.881 378.38 292.948C387.227 289.501 394.329 282.498 399.532 274.557C404.735 266.615 408.242 257.707 411.711 248.865C414.79 241.023 419.982 234.146 419.697 225.397C419.444 217.648 416.162 210.008 411.469 203.921C405.69 196.413 397.48 198.488 393.693 206.638C388.407 218.01 385.208 230.232 379.823 241.555V241.56Z" fill="#67CAEA"/>
<path d="M322.404 233.059C325.23 234.64 327.991 236.363 330.735 238.086C339.314 243.454 347.886 248.822 356.465 254.189C362.052 257.685 367.65 261.192 372.793 265.32C374.483 266.681 376.135 268.113 377.458 269.837C379.79 272.888 380.142 276.044 380.888 279.617C381.816 284.035 382.946 290.528 378.221 293.091C376.58 293.98 374.714 294.556 372.853 294.392C368.287 293.98 362.793 290.967 359.088 288.42C349.714 281.977 341.97 272.861 334.281 264.579C327.228 256.988 320.165 249.381 313.842 241.16C312.689 239.656 309.66 236.835 309.347 234.969C309.133 233.69 310.769 231.259 311.575 230.364C312.914 228.877 314.561 229.201 316.394 230.018C318.447 230.929 320.445 231.961 322.404 233.053V233.059Z" fill="#F7967C"/>
<path d="M380.883 279.622C380.131 276.049 379.785 272.888 377.452 269.842C376.135 268.119 374.483 266.681 372.787 265.32C367.919 261.412 362.634 258.058 357.343 254.743C354.533 262.521 349.648 269.167 344.555 275.66C349.072 280.341 353.825 284.809 359.088 288.426C362.793 290.972 368.287 293.985 372.853 294.397C374.714 294.567 376.58 293.991 378.221 293.096C382.946 290.533 381.81 284.035 380.888 279.622H380.883Z" fill="#67CAEA"/>
<path d="M313.842 196.408L315.302 205.419C316.52 212.961 311.811 220.112 304.61 222.104L307.047 237.175L303.502 237.746L301.081 222.763C293.118 223.866 285.664 218.394 284.375 210.419L282.915 201.407L313.842 196.408Z" fill="#D83F4E"/>
<path d="M281.065 189.97L284.375 210.419C285.665 218.394 293.118 223.871 301.082 222.763C301.191 222.746 301.301 222.73 301.411 222.713L303.008 222.455C303.557 222.368 304.089 222.252 304.611 222.104C311.811 220.112 316.52 212.961 315.302 205.419L311.992 184.97L281.065 189.97ZM313.046 205.787C314.062 212.082 310.198 218.059 304.243 219.837C303.727 219.991 303.189 220.117 302.64 220.205L301.043 220.463C300.933 220.48 300.824 220.496 300.714 220.513C293.996 221.418 287.717 216.791 286.625 210.057L283.683 191.858L310.104 187.588L313.046 205.787Z" fill="#DFDFDF"/>
<path d="M304.243 219.837L308.87 248.459L305.324 249.03L300.714 220.512C300.824 220.496 300.933 220.48 301.043 220.463L302.64 220.205C303.189 220.117 303.721 219.991 304.243 219.837Z" fill="#DFDFDF"/>
<path d="M306.482 244.952L313.568 248.904L320.653 252.85L308.09 254.881L295.522 256.917L301.005 250.935L306.482 244.952Z" fill="#DFDFDF"/>
<path d="M297.635 226.413C297.432 226.517 297.239 226.632 297.047 226.764C295.955 227.505 295.362 228.575 295.719 229.931C295.972 230.897 296.724 231.325 297.475 231.791C296.663 232.691 296.521 234.343 296.965 235.435C297.393 236.478 298.359 237.23 299.424 237.345C298.727 238.081 298.782 239.382 299.385 240.15C299.989 240.918 301.005 241.215 301.965 241.138C301.356 241.648 301.444 242.724 301.954 243.3C302.909 244.37 304.978 244.365 306.279 244.239C309.506 243.92 312.733 243.602 315.96 243.284C316.822 243.201 317.711 243.103 318.474 242.647C323.414 239.711 319.687 231.747 316.416 229.634C314.369 228.312 312.053 227.79 309.791 227.005C306.745 225.946 303.935 225.348 300.681 225.589C299.632 225.666 298.573 225.908 297.624 226.407L297.635 226.413Z" fill="#F7967C"/>
<path d="M362.568 258.245C364.006 259.107 365.444 259.968 366.887 260.836C369.637 262.482 372.897 264.233 373.336 267.756C373.391 268.218 374.373 268.201 374.313 267.756C374.022 265.407 372.573 263.744 370.795 262.411C370.877 262.372 370.949 262.318 370.987 262.235C378.133 247.29 384.428 232 390.202 216.473C390.372 216.007 389.412 215.88 389.258 216.292C383.506 231.769 377.227 247.016 370.109 261.917C369.791 261.697 369.461 261.489 369.132 261.286C365.823 259.25 362.469 257.29 359.132 255.292C358.765 255.073 357.93 255.474 358.441 255.775C359.818 256.599 361.19 257.422 362.563 258.245H362.568Z" fill="#5C6EA0"/>
<path d="M384.867 206.1C383.374 199.102 381.261 192.275 378.545 185.656C378.38 185.25 377.414 185.381 377.601 185.837C380.23 192.231 382.282 198.833 383.764 205.584C378.72 203.91 373.391 204.366 368.161 204.909C367.82 204.849 367.403 205.008 367.562 205.304L371.229 212.088C371.459 212.51 372.03 213.175 372.041 213.63C372.068 214.558 371.47 215.161 370.768 215.573C369.73 216.177 368.704 216.802 367.689 217.445C363.786 219.92 360.071 222.675 356.542 225.666C352.327 223.454 348.655 220.677 344.857 217.84C344.16 217.318 343.446 216.83 342.678 216.424C341.608 215.858 340.049 215.65 340.466 214.13C340.779 212.999 341.778 211.813 342.442 210.858C343.084 209.936 343.781 209.064 344.511 208.213C344.654 208.048 344.588 207.906 344.44 207.818C344.478 207.67 344.39 207.516 344.116 207.456C338.43 206.226 332.453 207.593 327.903 211.16C328.386 208.262 328.979 205.381 329.72 202.533C330.099 201.062 330.516 199.602 330.96 198.147C331.196 197.374 331.449 196.605 331.707 195.837C331.778 195.617 331.987 194.668 332.19 194.245C332.267 194.245 332.343 194.223 332.404 194.19C332.437 194.174 332.47 194.152 332.503 194.135C332.607 194.075 332.689 193.916 332.629 193.801C332.607 193.757 332.579 193.713 332.558 193.669C332.431 193.433 332.075 193.345 331.839 193.466C330.977 193.905 330.851 195.387 330.571 196.232C329.973 198.06 329.424 199.904 328.93 201.764C328.013 205.222 327.294 208.723 326.74 212.258C326.685 212.62 327.388 212.67 327.574 212.499C331.904 208.586 337.788 206.929 343.512 208.054C342.656 209.058 341.855 210.107 341.125 211.21C340.521 212.126 339.605 213.295 339.325 214.366C338.82 216.303 341.317 216.506 342.557 217.236C344.835 218.581 346.789 220.458 348.951 221.972C351.223 223.564 353.605 224.98 356.059 226.27C356.158 226.319 356.267 226.33 356.372 226.319C356.558 226.434 356.86 226.467 357.036 226.319C361.234 222.746 365.696 219.514 370.422 216.676C372.107 215.666 373.775 215.183 372.776 213.043C371.585 210.485 370.087 208.026 368.731 205.546C373.896 205.013 379.192 204.591 384.143 206.495C384.428 206.605 384.944 206.501 384.862 206.106L384.867 206.1Z" fill="#5C6EA0"/>
<path d="M358.797 230.276C358.704 230.084 358.583 229.925 358.446 229.788C358.43 229.728 358.413 229.673 358.397 229.618C358.314 229.365 358.057 229.228 357.766 229.184C357.535 229.091 357.266 229.052 356.948 229.096C356.783 229.118 356.635 229.179 356.492 229.25C355.482 229.437 354.593 230.211 354.752 231.385C354.928 232.647 356.306 233.421 357.491 232.933C357.98 232.73 358.276 232.417 358.452 232.049C358.885 231.572 359.088 230.891 358.792 230.276H358.797Z" fill="#5C6EA0"/>
<path d="M357.167 248.223C357.074 248.031 356.953 247.872 356.816 247.735C356.8 247.675 356.783 247.62 356.767 247.565C356.684 247.312 356.426 247.175 356.136 247.131C355.905 247.038 355.636 246.999 355.318 247.043C355.153 247.065 355.005 247.126 354.868 247.197C353.858 247.384 352.969 248.158 353.128 249.332C353.304 250.594 354.681 251.368 355.867 250.88C356.355 250.677 356.651 250.364 356.827 249.996C357.261 249.519 357.464 248.838 357.167 248.223Z" fill="#5C6EA0"/>
<path d="M354.555 302.075C354.462 301.883 354.341 301.724 354.204 301.587C354.187 301.526 354.171 301.472 354.154 301.417C354.072 301.164 353.814 301.027 353.523 300.983C353.292 300.89 353.024 300.851 352.705 300.895C352.541 300.917 352.392 300.978 352.255 301.049C351.245 301.236 350.356 302.009 350.515 303.184C350.691 304.446 352.069 305.22 353.254 304.732C353.743 304.529 354.039 304.216 354.215 303.848C354.648 303.371 354.851 302.69 354.555 302.075Z" fill="#5C6EA0"/>
<path d="M354.555 320.022C354.462 319.83 354.341 319.671 354.204 319.534C354.187 319.473 354.171 319.419 354.154 319.364C354.072 319.111 353.814 318.974 353.523 318.93C353.292 318.831 353.024 318.798 352.705 318.842C352.541 318.864 352.392 318.925 352.255 318.996C351.245 319.183 350.356 319.956 350.515 321.131C350.691 322.393 352.069 323.167 353.254 322.679C353.743 322.476 354.039 322.163 354.215 321.795C354.648 321.318 354.851 320.637 354.555 320.022Z" fill="#5C6EA0"/>
<path d="M416.156 243.399C412.188 256.33 406.491 268.75 399.12 280.1C395.471 285.72 391.058 290.462 384.746 293.036C378.523 295.577 371.503 295.681 365.153 293.524C364.857 293.426 364.566 293.316 364.269 293.206C360.691 291.85 357.475 289.726 354.555 287.279C352.711 285.731 351.059 283.986 349.379 282.279C349.396 282.262 349.412 282.246 349.429 282.224C352.283 278.201 355.148 274.183 357.991 270.149C360.482 266.626 362.875 263.015 364.203 258.871C364.357 258.393 363.391 258.273 363.259 258.69C361.893 262.96 359.385 266.642 356.816 270.27C354.127 274.063 351.437 277.85 348.748 281.642C347.93 280.824 347.102 280.018 346.234 279.255C345.691 278.777 345.153 278.53 344.725 277.921C344.297 277.317 344.429 276.719 344.127 276.132C343.929 275.742 342.963 275.885 343.183 276.313C343.408 276.746 343.315 277.295 343.562 277.762C343.82 278.25 344.187 278.662 344.56 279.068C345.801 280.418 347.283 281.538 348.562 282.833C349.895 284.183 351.251 285.506 352.672 286.768C355.499 289.282 358.589 291.538 362.052 293.091C367.979 295.747 374.774 296.488 381.102 294.962C387.211 293.486 392.595 290.05 396.563 285.193C401.124 279.611 404.691 272.976 407.907 266.555C411.612 259.167 414.675 251.478 417.095 243.58C417.243 243.103 416.277 242.982 416.151 243.399H416.156Z" fill="#5C6EA0"/>
<path d="M279.419 537.538C279.276 537.593 279.122 537.648 278.969 537.691C276.367 538.471 272.311 537.691 269.616 537.691H238.613C238.629 537.598 238.645 537.499 238.673 537.406C239.266 535.128 242.207 534.634 244.309 533.998C245.007 533.789 245.693 533.542 246.368 533.268C248.157 532.549 249.864 531.649 251.56 530.76C253.728 529.618 256.483 528.883 258.442 527.45C261.159 525.463 263.327 521.605 265.5 519.025C268.156 515.881 278.09 517.725 279.495 521.171C281.136 525.194 285.308 535.233 279.419 537.538Z" fill="#F7967C"/>
<path d="M238.399 535.908C238.53 535.6 238.684 535.332 238.854 535.123C239.837 533.921 241.39 533.24 242.883 532.609C246.417 531.111 249.957 529.613 253.492 528.114C255.111 527.428 257.74 525.601 259.403 526.698C261.291 527.944 262.548 531.045 263.14 532.999C265.034 533.032 266.867 532.439 268.667 531.901C272.954 530.633 277.339 529.657 281.784 528.981C284.534 528.564 283.853 537.055 283.623 538.504C283.546 538.987 283.42 539.514 282.986 539.805C282.586 540.073 282.037 540.051 281.537 540.019C279.77 539.903 277.997 539.783 276.23 539.667C275.72 539.634 275.127 539.558 274.869 539.151C274.479 538.548 274.704 538.191 274.057 537.763C273.371 537.313 272.136 537.351 271.345 537.445C270.237 537.576 269.189 537.949 268.135 538.295C265.358 539.195 262.773 539.514 259.847 539.514H245.193C243.662 539.514 242.125 539.53 240.589 539.514C240.051 539.508 239.354 539.612 238.893 539.327C237.806 538.646 237.905 537.027 238.393 535.891L238.399 535.908Z" fill="#272443"/>
<path d="M279.589 515.518C279.457 517.565 279.304 519.607 279.122 521.649C274.649 521.989 270.193 522.593 265.791 523.438C263.36 503.729 259.584 484.339 257.361 464.586C257.015 461.496 256.708 458.242 257.926 455.382C259.051 452.753 261.357 450.783 263.892 449.455C268.239 447.183 276.581 446.266 278.233 452.281C279.271 456.057 279.397 460.014 279.523 463.928C279.589 465.953 279.649 467.978 279.71 470.003C280.171 485.157 280.544 500.37 279.589 515.513V515.518Z" fill="#F7967C"/>
<path d="M244.765 401.289C246.203 418.495 248.854 435.624 250.55 452.792C252.427 471.771 254.639 490.716 257.18 509.618C257.262 510.239 272.641 508.729 274.073 508.565C276.631 508.274 286.005 508.724 285.67 505.442C281.093 461.579 284.704 417.232 281.411 373.249C281.164 369.939 280.868 366.58 279.693 363.474C276.872 355.993 270.27 354.182 262.926 355.302C260.204 355.719 256.653 356.427 254.299 357.92C248.679 361.481 245.632 368.139 244.502 374.478C243.487 380.191 243.794 386.047 244.107 391.843C244.277 394.994 244.502 398.144 244.765 401.289Z" fill="#EC8161"/>
<path d="M340.296 393.254C342.875 393.298 345.455 393.364 348.034 393.451C351.794 393.583 355.581 393.764 359.302 393.204C362.732 392.694 367.118 391.47 369.373 388.654C371.805 385.625 373.44 381.443 374.812 377.837C377.743 370.137 379.499 361.668 378.972 353.238C378.715 349.105 377.853 344.874 375.669 341.636C372.392 336.795 367.277 337.327 362.612 336.378C356.981 335.236 351.201 335.324 345.51 335.39C323.869 335.626 302.014 336.213 281.016 342.426C274.232 344.435 267.569 347.118 261.647 351.037C255.621 355.022 250.748 358.468 247.883 365.411C244.233 374.247 243.464 384.061 244.211 393.594C244.546 397.875 245.901 400.959 249.787 403.04C253.069 404.796 256.971 405.564 260.676 405.526C264.139 405.493 267.547 404.812 270.895 403.967C274.298 403.105 276.521 401.448 279.551 399.779C284.83 396.865 291.307 397.732 297.234 396.629C300 396.113 302.668 395.158 305.423 394.576C308.59 393.907 311.833 393.726 315.066 393.589C323.469 393.226 331.882 393.117 340.296 393.254Z" fill="#EC8161"/>
<path d="M306.509 537.538C306.367 537.593 306.213 537.648 306.059 537.691C303.458 538.471 299.402 537.691 296.707 537.691H265.703C265.72 537.598 265.736 537.499 265.764 537.406C266.356 535.128 269.298 534.634 271.4 533.998C272.097 533.789 272.783 533.542 273.458 533.268C275.248 532.549 276.955 531.649 278.65 530.76C280.818 529.618 283.574 528.883 285.533 527.45C288.25 525.463 290.418 521.605 292.591 519.025C295.247 515.881 305.181 517.725 306.586 521.171C308.227 525.194 312.398 535.233 306.509 537.538Z" fill="#F7967C"/>
<path d="M265.49 535.908C265.621 535.6 265.775 535.332 265.945 535.123C266.927 533.921 268.481 533.24 269.974 532.609C273.508 531.111 277.048 529.613 280.583 528.114C282.202 527.428 284.831 525.601 286.494 526.698C288.382 527.944 289.638 531.045 290.231 532.999C292.125 533.032 293.958 532.439 295.758 531.901C300.044 530.633 304.43 529.657 308.875 528.981C311.625 528.564 310.944 537.055 310.714 538.504C310.637 538.987 310.511 539.514 310.077 539.805C309.676 540.073 309.128 540.051 308.628 540.019C306.861 539.903 305.088 539.783 303.321 539.667C302.81 539.634 302.218 539.558 301.96 539.151C301.57 538.548 301.795 538.191 301.148 537.763C300.461 537.313 299.227 537.351 298.436 537.445C297.328 537.576 296.279 537.949 295.226 538.295C292.448 539.195 289.863 539.514 286.938 539.514H272.284C270.753 539.514 269.216 539.53 267.679 539.514C267.142 539.508 266.445 539.612 265.983 539.327C264.897 538.646 264.996 537.027 265.484 535.891L265.49 535.908Z" fill="#272443"/>
<path d="M307.179 516.243C306.795 518.257 306.389 520.266 305.955 522.269C301.471 522.055 296.982 522.093 292.503 522.39C292.542 502.533 291.203 482.819 291.455 462.945C291.493 459.833 291.592 456.568 293.162 453.884C294.6 451.414 297.136 449.746 299.814 448.747C304.408 447.029 312.805 447.155 313.694 453.335C314.254 457.21 313.886 461.151 313.524 465.053C313.337 467.072 313.145 469.087 312.953 471.106C311.526 486.199 310.011 501.342 307.179 516.248V516.243Z" fill="#F7967C"/>
<path d="M286.789 398.567C286.586 402.809 286.449 407.052 286.361 411.3C286.284 414.949 287.047 418.248 287.157 421.804C287.558 435.476 286.23 449.34 286.169 463.055C286.103 477.621 286.389 492.187 287.014 506.753C287.152 509.591 299.583 508.619 302.568 508.652C305.143 508.68 314.39 510.293 314.462 506.995C315.373 462.901 324.462 419.346 326.662 375.301C326.827 371.986 326.948 368.616 326.174 365.389C324.308 357.618 317.98 354.994 310.554 355.192C307.799 355.263 304.193 355.532 301.668 356.718C295.653 359.555 291.8 365.779 289.89 371.926C288.172 377.469 287.75 383.32 287.338 389.105C287.113 392.271 286.932 395.416 286.784 398.556L286.789 398.567Z" fill="#EC8161"/>
<path d="M386.069 394.351C388.599 393.945 391.118 393.495 393.632 392.996C400.306 391.657 407.029 389.961 412.902 386.52C428.944 377.118 426.815 357.579 424.652 341.416C424.411 339.627 423.906 337.744 422.056 336.97C421.266 336.641 420.388 336.581 419.532 336.531C410.201 335.994 400.871 335.296 391.53 335.401C369.889 335.637 348.034 336.224 327.036 342.437C311.559 347.014 294.292 355.982 290.445 375.91C289.248 382.068 287.926 390.96 290.176 397.03C293.892 407.035 308.831 403.402 316.778 402.013C339.753 398.001 363.138 398.023 386.069 394.357V394.351Z" fill="#EC8161"/>
<path d="M351.152 344.726C338.403 345.373 325.521 347.426 313.365 351.405C308.008 353.156 302.794 355.592 298.678 359.517C294.765 363.249 291.965 368.051 290.116 373.1C287.657 379.818 286.856 386.997 286.4 394.088C286.373 394.543 287.35 394.549 287.377 394.088C288.102 382.722 289.935 370.592 297.728 361.723C301.614 357.305 306.762 354.495 312.245 352.541C317.969 350.505 323.957 349.105 329.918 347.958C336.926 346.614 344.017 345.768 351.147 345.406C351.745 345.373 351.756 344.687 351.147 344.72L351.152 344.726Z" fill="#C9644D"/>
<path d="M303.826 370.795C300.461 377.941 299.331 385.795 298.842 393.611C298.299 402.293 298.156 411.009 297.849 419.702C297.223 437.512 296.597 455.316 295.972 473.126C295.615 483.335 295.253 493.543 294.896 503.746C294.879 504.201 295.856 504.207 295.873 503.746C297.119 468.296 298.085 432.825 299.627 397.392C300.017 388.38 300.889 379.236 304.775 370.971C304.984 370.532 304.018 370.389 303.831 370.79L303.826 370.795Z" fill="#C9644D"/>
<path d="M253.371 391.355C252.465 382.184 251.269 372.184 256.126 363.853C256.362 363.446 255.402 363.293 255.182 363.671C251.027 370.801 251.274 379.275 251.993 387.227C252.833 396.569 253.838 405.893 254.803 415.224C256.779 434.356 258.865 453.472 261.055 472.583C262.284 483.318 263.552 494.048 264.847 504.772C264.902 505.233 265.879 505.217 265.824 504.772C261.258 467.018 257.109 429.208 253.376 391.36L253.371 391.355Z" fill="#C9644D"/>
<path d="M230.024 314.858H223.498V540.051H230.024V314.858Z" fill="#272443"/>
<path d="M356.772 312.898H96.7437C95.3675 312.898 94.252 314.014 94.252 315.39V319.545C94.252 320.921 95.3675 322.036 96.7437 322.036H356.772C358.148 322.036 359.264 320.921 359.264 319.545V315.39C359.264 314.014 358.148 312.898 356.772 312.898Z" fill="#272443"/>
<path d="M315.247 157.735C315.873 158.289 316.532 158.575 317.059 158.152C317.651 157.674 317.135 155.035 317.026 154.392C316.812 153.114 316.449 151.862 316.153 150.6C315.368 147.225 315.505 144.03 315.286 140.6C315.231 139.76 315.149 138.882 314.704 138.169C314.26 137.45 313.348 136.95 312.564 137.247C310.193 138.136 310.862 143.383 310.994 145.238C311.224 148.547 311.971 151.818 313.206 154.897C313.42 155.43 314.292 156.89 315.247 157.729V157.735Z" fill="white"/>
<path d="M370.395 181.697C370.96 182.943 371.333 184.271 370.757 185.451C370.472 186.044 369.978 186.505 369.478 186.933C366.109 189.842 361.954 192.114 358.024 194.167C354.643 195.928 350.851 197.833 346.938 197.427C345.544 197.284 344.144 196.779 343.167 195.775C342.278 194.853 341.828 193.612 341.4 192.405C340.346 189.436 339.292 186.472 338.244 183.503C337.382 181.066 338.014 179.771 339.298 177.685C340.483 175.759 342.015 174.063 343.573 172.438C344.012 171.977 344.473 171.533 344.94 171.105C345.055 170.995 345.176 170.89 345.297 170.786C345.417 170.676 345.538 170.578 345.659 170.479C345.78 170.375 345.906 170.276 346.027 170.171C346.153 170.067 346.274 169.968 346.4 169.875C346.499 169.793 346.603 169.71 346.707 169.634C346.855 169.518 347.004 169.403 347.157 169.293C347.278 169.206 347.399 169.118 347.525 169.03C347.662 168.931 347.799 168.832 347.937 168.745C348.041 168.673 348.151 168.602 348.255 168.53C348.414 168.421 348.573 168.316 348.738 168.218C348.87 168.135 349.001 168.053 349.138 167.971C349.138 167.965 349.144 167.96 349.149 167.965C349.418 167.801 349.693 167.641 349.973 167.488C352.053 166.324 354.287 165.435 356.614 164.875C356.926 164.798 357.234 164.732 357.552 164.672C359.286 164.321 360.801 163.646 362.398 164.875C364.177 166.247 365.406 169.079 366.114 171.159C367.201 174.365 368.238 177.482 369.808 180.495C370.011 180.879 370.219 181.285 370.406 181.697H370.395Z" fill="#F7967C"/>
<path d="M361.103 176.604C359.539 180.572 356.416 184.211 353.37 186.192C349.16 188.942 343.595 190.769 339.753 186.351C335.917 181.933 338.475 176.231 342.091 172.63C345.45 169.288 349.512 166.291 354.221 165.748C355.906 165.556 357.667 165.698 359.204 166.423C363.287 168.366 362.508 173.042 361.109 176.598L361.103 176.604Z" fill="#DB634F"/>
<path d="M314.748 133.624C317.35 125.551 324.896 119.437 333.189 117.269C340.33 115.403 348.375 116.221 354.385 120.507C360 124.508 363.304 131.023 365.395 137.592C370.115 152.461 368.051 176.104 351.229 182.718C343.688 185.682 334.539 188.151 328.096 181.779C322.201 175.951 319.067 167.383 316.471 159.672C313.908 152.071 312.569 143.761 314.183 135.798C314.331 135.062 314.523 134.338 314.748 133.63V133.624Z" fill="#F7967C"/>
<path d="M360.005 123.751C360.686 123.915 361.29 124.294 361.855 124.706C366.268 127.96 367.195 132.894 367.854 137.993C368.166 140.419 368.287 142.872 368.216 145.32C368.156 147.268 368.315 149.486 367.212 151.16C367.069 151.379 366.882 151.604 366.619 151.632C366.35 151.659 366.119 151.467 365.927 151.28C364.648 150.029 363.732 148.487 362.755 147.005C360.395 143.41 356.328 141.363 353.809 137.878C352.025 135.414 351.092 132.038 352.415 129.294C353.051 127.971 354.144 126.929 355.208 125.919C356.57 124.623 357.953 123.246 360.011 123.745L360.005 123.751Z" fill="white"/>
<path d="M365.378 147.845C366.729 147.532 369.017 148.355 369.917 149.387C370.609 150.177 370.966 151.215 371.141 152.252C371.707 155.55 370.499 159.101 368.035 161.368C367.338 162.01 366.52 162.565 365.587 162.718C361.729 163.349 360.62 157.614 360.499 154.93C360.428 153.3 360.757 151.604 361.74 150.304C362.316 149.541 363.09 148.942 363.919 148.465C364.374 148.201 364.868 147.971 365.373 147.85L365.378 147.845Z" fill="#F7967C"/>
<path d="M350 154.804C348.985 153.92 347.744 153.3 346.367 153.536C345.006 153.767 344.221 154.738 343.579 155.885C343.365 156.269 343.996 156.352 344.325 156.165C344.336 156.22 344.342 156.275 344.364 156.33C344.627 157.082 345.456 157.46 346.208 157.406C346.976 157.345 347.673 156.851 347.805 156.072C347.92 155.397 347.821 154.722 347.344 154.233C347.36 154.233 347.377 154.233 347.399 154.233C348.09 154.283 348.562 154.628 349.084 155.046C349.309 155.227 349.331 155.43 349.671 155.38C349.918 155.342 350.269 155.046 350 154.81V154.804Z" fill="#272443"/>
<path d="M330.264 160.485C330.165 160.336 330.011 160.183 329.874 160.089C328.831 159.365 327.613 159.003 326.356 159.31C325.181 159.601 323.908 160.479 323.776 161.763C323.743 162.071 324.139 162.137 324.429 162.032C324.446 162.093 324.468 162.159 324.495 162.213C324.698 162.856 325.373 163.201 326.153 163.152C326.531 163.13 326.872 163.009 327.146 162.817C327.163 162.806 327.179 162.795 327.196 162.784C327.201 162.784 327.207 162.779 327.212 162.773C327.536 162.543 327.766 162.197 327.81 161.774C327.843 161.577 327.838 161.363 327.794 161.143C327.777 161.05 327.728 160.973 327.662 160.907C327.475 160.485 327.135 160.133 326.713 159.974C327.366 159.908 328.074 160.024 328.639 160.26C329.018 160.419 329.506 160.968 329.896 160.995C330.456 161.033 330.439 160.753 330.253 160.485H330.264Z" fill="#272443"/>
<path d="M340.33 148.915C341.4 146.758 344.023 145.836 346.186 145.6C348.606 145.337 351.197 146.11 353.48 148.185C353.496 148.202 353.507 148.213 353.518 148.229C353.579 148.284 353.617 148.344 353.639 148.41C353.705 148.586 353.655 148.761 353.546 148.91C353.376 149.2 353.041 149.431 352.733 149.365C349.358 148.619 346.274 149.365 343.442 150.6C342.728 150.913 341.51 152.011 340.593 151.533C339.556 150.995 340.028 149.519 340.335 148.91L340.33 148.915Z" fill="white"/>
<path d="M328.974 152.499C327.146 151.127 324.633 151.588 322.799 152.428C320.741 153.366 319.023 155.298 318.129 158.223C318.123 158.245 318.123 158.262 318.118 158.284C318.096 158.361 318.09 158.432 318.101 158.503C318.129 158.684 318.244 158.816 318.403 158.898C318.672 159.069 319.045 159.112 319.259 158.898C321.625 156.61 324.424 155.775 327.245 155.485C327.953 155.413 329.424 155.781 329.945 154.925C330.533 153.953 329.49 152.889 328.974 152.499Z" fill="white"/>
<path d="M335.84 165.748C334.957 162.702 336.076 159.491 334.567 156.555C334.369 156.171 335.264 155.776 335.467 156.171C336.296 157.773 336.433 159.458 336.46 161.242C336.477 162.164 336.455 163.092 336.537 164.008C336.647 165.199 337.437 168.503 339.506 167.208C339.951 166.933 340.544 167.34 339.989 167.68C338.195 168.799 336.389 167.641 335.846 165.748H335.84Z" fill="#DB634F"/>
<path d="M347.217 170.056C346.175 172.784 342.36 174.255 339.649 173.508C339.226 173.393 338.59 174.046 339.171 174.205C342.432 175.106 346.883 173.355 348.134 170.084C348.326 169.579 347.371 169.656 347.223 170.056H347.217Z" fill="#DB634F"/>
<path d="M430.5 0.194489C398.188 0.194489 371.985 20.9694 371.985 46.613C371.985 57.8775 377.05 68.2045 385.457 76.2483L367.721 112.869L405.824 88.7073C413.323 91.4742 421.685 93.0316 430.5 93.0316C462.811 93.0316 489.014 72.2566 489.014 46.613C489.014 20.9694 462.811 0.194489 430.5 0.194489Z" fill="#DFDFDF"/>
<path d="M424.613 29.7263V36.9016C424.613 42.8997 420.064 47.863 414.23 48.5011V60.4974H411.41V48.5701C405.093 48.4278 400 43.249 400 36.9016V29.7263H424.618H424.613Z" fill="#D83F4E"/>
<path d="M400 20.6234V36.9015C400 43.2489 405.097 48.4321 411.41 48.5701C411.496 48.5701 411.582 48.5701 411.673 48.5701H412.945C413.38 48.5701 413.807 48.5485 414.234 48.4967C420.068 47.8542 424.618 42.8953 424.618 36.8972V20.6191H400V20.6234ZM422.82 36.9015C422.82 41.9122 419.072 46.0647 414.23 46.6943C413.807 46.7503 413.38 46.7805 412.941 46.7805H411.668C411.582 46.7805 411.496 46.7805 411.405 46.7805C406.08 46.6382 401.789 42.2658 401.789 36.9059V22.4216H422.815V36.9059L422.82 36.9015Z" fill="white"/>
<path d="M414.23 46.6944V69.4708H411.41V46.7763C411.496 46.7763 411.582 46.7763 411.673 46.7763H412.945C413.381 46.7763 413.812 46.7462 414.234 46.6901L414.23 46.6944Z" fill="white"/>
<path d="M412.82 66.4523L417.817 70.4065L422.819 74.3564H412.82H402.82L407.818 70.4065L412.82 66.4523Z" fill="white"/>
<path d="M450.16 25C452.095 25 453.891 25.3448 455.549 26.0345C457.208 26.706 458.635 27.6497 459.833 28.8657C461.049 30.0817 461.998 31.5245 462.679 33.1942C463.361 34.8639 463.702 36.6878 463.702 38.6661C463.702 39.5917 463.619 40.5263 463.453 41.4701C463.306 42.3956 463.039 43.3212 462.652 44.2468C462.283 45.1543 461.767 46.0526 461.104 46.9419C460.459 47.8131 459.639 48.657 458.645 49.4737C457.779 50.1815 456.839 50.8711 455.826 51.5426C454.831 52.2142 453.919 52.9492 453.09 53.7477C452.279 54.5463 451.644 55.4628 451.183 56.4973C450.722 57.5318 450.612 58.775 450.851 60.2269H445.877C445.674 59.4283 445.573 58.6933 445.573 58.0218C445.573 56.9147 445.757 55.9256 446.126 55.0544C446.494 54.1833 446.973 53.3848 447.563 52.6588C448.171 51.9147 448.852 51.2341 449.608 50.6171C450.382 49.9818 451.165 49.3557 451.957 48.7387C452.767 48.1216 453.55 47.4864 454.306 46.833C455.08 46.1797 455.761 45.4719 456.351 44.7096C456.959 43.9292 457.447 43.0762 457.816 42.1506C458.184 41.225 458.368 40.1724 458.368 38.9927C458.368 37.8131 458.166 36.6606 457.76 35.5354C457.355 34.4102 456.775 33.412 456.019 32.5408C455.282 31.6697 454.379 30.971 453.311 30.4446C452.242 29.9002 451.045 29.6279 449.718 29.6279C448.484 29.6279 447.378 29.873 446.402 30.363C445.444 30.8348 444.624 31.4791 443.942 32.2958C443.279 33.1125 442.773 34.0563 442.422 35.127C442.072 36.1797 441.897 37.2868 441.897 38.4483C441.897 38.8657 441.907 39.3103 441.925 39.7822C441.962 40.2359 442.026 40.7169 442.118 41.225L437.199 41.9601C436.997 41.3249 436.859 40.7078 436.785 40.1089C436.73 39.51 436.702 38.9201 436.702 38.3394C436.702 36.5245 437.024 34.8094 437.669 33.1942C438.332 31.5789 439.254 30.1633 440.433 28.9474C441.612 27.7314 443.03 26.7695 444.689 26.0617C446.347 25.3539 448.171 25 450.16 25ZM451.929 66.9782C451.929 67.3956 451.846 67.7858 451.68 68.1488C451.533 68.5299 451.321 68.8566 451.045 69.1289C450.768 69.4011 450.437 69.6098 450.05 69.755C449.681 69.9183 449.285 70 448.862 70C448.438 70 448.033 69.9183 447.646 69.755C447.277 69.6098 446.955 69.4011 446.678 69.1289C446.402 68.8566 446.181 68.5299 446.015 68.1488C445.849 67.7858 445.766 67.3956 445.766 66.9782C445.766 66.5608 445.849 66.1706 446.015 65.8076C446.181 65.4265 446.402 65.0998 446.678 64.8276C446.955 64.5554 447.277 64.3376 447.646 64.1742C448.033 64.0109 448.438 63.9292 448.862 63.9292C449.285 63.9292 449.681 64.0109 450.05 64.1742C450.437 64.3376 450.768 64.5554 451.045 64.8276C451.321 65.0998 451.533 65.4265 451.68 65.8076C451.846 66.1706 451.929 66.5608 451.929 66.9782Z" fill="white"/>
</svg>
