<svg width="57" height="51" viewBox="0 0 57 51" fill="none" xmlns="http://www.w3.org/2000/svg">
<path d="M17.9523 48.3049C28.3125 39.7411 38.6627 31.1774 49.0229 22.6236C51.7576 20.3652 54.6122 17.947 55.8697 14.6194C57.4068 10.5524 56.0694 5.61596 52.7956 2.75804C49.5219 -0.0998827 44.5714 -0.7794 40.579 0.919365C38.1237 1.9686 36.0876 3.77729 34.0914 5.546C25.1086 13.5102 15.9062 21.2346 6.5142 28.7092C4.82742 30.0482 3.10072 31.4172 1.87307 33.1859C-1.18109 37.5627 -0.3926 44.1879 3.59976 47.7253C7.59212 51.2628 14.3093 51.3127 17.9523 48.3049Z" fill="#EBF7FA"/>
<path d="M49.0226 22.6136C51.7573 20.3552 54.6119 17.937 55.8695 14.6094C57.0372 11.5316 56.5482 7.95422 54.8215 5.15625C54.8215 5.20621 55.2906 9.97275 47.7849 16.6379C40.2394 23.343 17.0937 41.7696 13.6103 43.7182C10.137 45.6668 5.19642 47.4855 2.20215 46.1964C2.61137 46.746 3.07049 47.2556 3.58949 47.7153C7.58185 51.2527 14.299 51.3027 17.942 48.2949C28.3022 39.7311 38.6524 31.1673 49.0126 22.6136H49.0226Z" fill="#C0DBF9"/>
<path d="M30.6078 23.2032C27.8531 20.0854 23.7809 18.1568 19.6188 17.9969C15.2871 21.6243 10.9255 25.1917 6.50393 28.7092C4.81716 30.0482 3.09047 31.4172 1.86281 33.1859C-1.19134 37.5627 -0.402854 44.1879 3.58951 47.7253C7.58187 51.2627 14.299 51.3127 17.942 48.3049C23.4415 43.7582 28.931 39.2215 34.4305 34.6748C34.7499 30.5478 33.3426 26.3109 30.6078 23.2032Z" fill="#FCAB00"/>
<g style="mix-blend-mode:multiply">
<path d="M33.6218 28.4194C24.9584 35.3943 15.7161 42.5491 13.6201 43.7282C10.1467 45.6768 5.20618 47.4955 2.21191 46.2064C2.41153 46.4762 2.62113 46.7361 2.85069 46.9859C2.85069 46.9859 2.8507 46.9959 2.86068 47.0059C3.09024 47.2557 3.33976 47.5055 3.58928 47.7253C7.58164 51.2628 14.2988 51.3127 17.9418 48.3049C23.4413 43.7582 28.9308 39.2215 34.4303 34.6748C34.6 32.5664 34.3005 30.4279 33.6218 28.4194Z" fill="#FCAB00"/>
</g>
</svg>
