<svg width="61" height="65" viewBox="0 0 61 65" fill="none" xmlns="http://www.w3.org/2000/svg">
<path d="M35.5673 56.4799C29.0923 46.7481 22.6269 37.0188 16.1518 27.2869C14.0463 24.1158 11.8984 20.8712 10.9665 17.1765C10.0345 13.4818 10.5219 9.19496 13.1666 6.45867C15.1089 4.45484 17.9529 3.52029 20.7372 3.38699C22.6855 3.28834 24.6809 3.55402 26.4588 4.36145C29.2147 5.60681 31.2217 8.02742 33.0815 10.4189C39.0517 18.1016 44.389 26.2562 49.7194 34.3985C51.6542 37.3584 53.6057 40.3331 55.0321 43.5706C56.6893 47.3355 57.5763 51.8147 55.7313 55.4998C54.9542 57.0503 53.7383 58.3487 52.3312 59.3579C49.6986 61.2388 46.3185 62.0918 43.1321 61.5277C39.9457 60.9636 37.1558 58.8815 35.5647 56.4896L35.5673 56.4799Z" fill="white"/>
<path d="M20.7396 3.37728C18.5103 3.4834 16.2525 4.11986 14.4464 5.38426C20.2527 4.80894 26.2275 9.3893 30.7832 15.255C35.3557 21.1356 45.7309 36.1333 50.2545 45.4354C54.7666 54.7034 52.7316 59.0203 52.7142 59.0467C53.9533 58.0856 55.0199 56.8817 55.7267 55.4779C57.5717 51.7928 56.6847 47.3135 55.0275 43.5487C53.6011 40.3112 51.6593 37.3391 49.7148 34.3766C44.3845 26.2343 39.0471 18.0797 33.0769 10.397C31.2268 8.00807 29.2101 5.58488 26.4542 4.33953C24.6763 3.53209 22.6809 3.26639 20.7326 3.36505L20.7396 3.37728Z" fill="#C0DBF9"/>
<path d="M13.1693 6.44898C10.5245 9.18528 10.0276 13.4695 10.9692 17.1668C11.9011 20.8615 14.049 24.1061 16.1545 27.2772L25.1905 40.8713C29.241 39.7531 33.1914 38.1218 36.5919 35.6501C39.9436 33.2067 42.7479 29.9131 44.2114 26.0326C40.6559 20.7143 37.0098 15.4647 33.0842 10.4092C31.2341 8.02031 29.2174 5.59712 26.4615 4.35177C24.6836 3.54433 22.6882 3.27864 20.7399 3.37729C17.953 3.52024 15.1019 4.44257 13.1693 6.44898Z" fill="#EE5952"/>
<g style="mix-blend-mode:multiply">
<path d="M19.4324 3.51322C19.2504 3.53687 19.0658 3.57018 18.8909 3.60607C18.7281 3.63489 18.5654 3.6637 18.4098 3.70476C18.2882 3.73425 18.157 3.76115 18.0354 3.79065C17.836 3.84068 17.6463 3.89329 17.4443 3.95296C17.4224 3.95745 17.4101 3.96451 17.3883 3.96899C16.3391 4.29823 15.336 4.76397 14.4439 5.39393C20.2502 4.8186 26.225 9.39897 30.7807 15.2647C33.2848 18.4909 37.5433 24.4632 41.6201 30.7282C42.6883 29.2868 43.5748 27.7139 44.2087 26.0423C42.5208 23.5106 40.7988 20.9905 39.0472 18.5039C38.8367 18.2095 38.6263 17.9152 38.4254 17.6234C37.78 16.716 37.1152 15.8033 36.4575 14.903C36.2162 14.5693 35.975 14.2357 35.7311 13.9117C34.8674 12.7389 33.9818 11.5705 33.0911 10.4215C31.2409 8.03254 29.2243 5.60936 26.4685 4.36401C24.6906 3.55657 22.6952 3.29089 20.7468 3.38954C20.4317 3.40857 20.114 3.43724 19.806 3.4685C19.6774 3.48576 19.5584 3.5056 19.442 3.51579L19.4324 3.51322Z" fill="#EE5952"/>
</g>
</svg>
