<svg width="86" height="71" viewBox="0 0 86 71" fill="none" xmlns="http://www.w3.org/2000/svg">
<g clip-path="url(#clip0_738_451)">
<path d="M79.6988 1.33569H32.9976V40.3304H79.6988V1.33569Z" stroke="white" stroke-width="2" stroke-miterlimit="10" stroke-linecap="round"/>
<path d="M72.94 6.14941H39.7393V35.5334H72.94V6.14941Z" stroke="white" stroke-width="2" stroke-miterlimit="10" stroke-linecap="round"/>
<path d="M61.0828 40.3306H51.6138V50.6434H61.0828V40.3306Z" stroke="white" stroke-width="2" stroke-miterlimit="10" stroke-linecap="round"/>
<path d="M77.2425 62.9283H35.4536L43.9232 50.6599H68.7729L77.2425 62.9283Z" stroke="white" stroke-width="2" stroke-miterlimit="10" stroke-linecap="round"/>
<path d="M81.9345 62.9285H30.7614C28.9839 62.9285 27.543 64.3503 27.543 66.1042V66.4886C27.543 68.2426 28.9839 69.6644 30.7614 69.6644H81.9345C83.712 69.6644 85.153 68.2426 85.153 66.4886V66.1042C85.153 64.3503 83.712 62.9285 81.9345 62.9285Z" stroke="white" stroke-width="2" stroke-miterlimit="10" stroke-linecap="round"/>
<path d="M11.7389 19.1533C10.3072 19.1533 8.88957 19.4319 7.56701 19.973C6.24444 20.5142 5.04317 21.3073 4.03154 22.3071C3.01992 23.3068 2.21776 24.4936 1.67139 25.7994C1.12502 27.1053 0.844954 28.5046 0.847181 29.9174L6.14893 33.6949V44.7431H17.3628V33.6949L22.648 29.9174C22.6503 28.5032 22.3696 27.1025 21.8222 25.7956C21.2748 24.4886 20.4713 23.3011 19.4579 22.3011C18.4445 21.3012 17.2408 20.5084 15.9162 19.9682C14.5917 19.4281 13.1721 19.1511 11.7389 19.1533V19.1533Z" stroke="white" stroke-width="2" stroke-miterlimit="10" stroke-linecap="round"/>
<path d="M11.7388 44.7432V64.8005C11.7388 66.086 12.2563 67.3189 13.1775 68.2279C14.0988 69.137 15.3485 69.6476 16.6514 69.6476H16.8036C18.1064 69.6476 19.3562 69.137 20.2774 68.2279C21.1986 67.3189 21.7162 66.086 21.7162 64.8005V54.0029C21.7162 52.7174 22.2337 51.4845 23.1549 50.5755C24.0761 49.6664 25.3255 49.1558 26.6283 49.1558V49.1558C27.9312 49.1558 29.1805 49.6664 30.1018 50.5755C31.023 51.4845 31.5409 52.7174 31.5409 54.0029V62.895" stroke="white" stroke-width="2" stroke-miterlimit="10" stroke-linecap="round"/>
<path d="M2.86279 9.4255C5.60668 8.02717 8.65065 7.29919 11.7389 7.30276C15.1094 7.29726 18.4223 8.16776 21.3437 9.82665" stroke="white" stroke-width="2" stroke-miterlimit="10" stroke-linecap="round"/>
<path d="M7.09717 14.9915C8.60052 14.5339 10.1652 14.3029 11.7385 14.3062C13.6049 14.3028 15.4572 14.6254 17.2098 15.2589" stroke="white" stroke-width="2" stroke-miterlimit="10" stroke-linecap="round"/>
<path d="M66.3337 23.0311C63.5439 25.3697 60.0004 26.6499 56.3398 26.6414C52.6829 26.6577 49.142 25.3764 46.3628 23.0311L52.325 14.8076C53.5166 15.5805 54.9138 15.9876 56.3398 15.9776C57.7657 15.9876 59.1625 15.5805 60.3541 14.8076L66.3337 23.0311Z" stroke="white" stroke-width="2" stroke-miterlimit="10" stroke-linecap="round"/>
<path d="M66.3337 23.0311C63.5439 25.3697 60.0004 26.6499 56.3398 26.6414C52.6829 26.6577 49.142 25.3764 46.3628 23.0311L52.325 14.8076C53.5166 15.5805 54.9138 15.9876 56.3398 15.9776C57.7657 15.9876 59.1625 15.5805 60.3541 14.8076L66.3337 23.0311Z" stroke="white" stroke-width="2" stroke-miterlimit="10" stroke-linecap="round"/>
</g>
<defs>
<clipPath id="clip0_738_451">
<rect width="86" height="70" fill="white" transform="translate(0 0.5)"/>
</clipPath>
</defs>
</svg>
