<svg width="691" height="428" viewBox="0 0 691 428" fill="none" xmlns="http://www.w3.org/2000/svg">
<g clip-path="url(#clip0_631_9057)">
<path d="M413.243 153.709C412.701 154.066 412.164 154.213 411.805 153.83C411.402 153.397 412.088 151.422 412.243 150.94C412.548 149.979 412.964 149.056 413.33 148.117C414.304 145.605 414.549 143.131 415.095 140.515C415.229 139.875 415.389 139.208 415.809 138.708C416.23 138.203 416.985 137.92 417.556 138.234C419.281 139.18 418.19 143.145 417.885 144.559C417.344 147.081 416.411 149.516 415.124 151.75C414.901 152.136 414.07 153.164 413.244 153.705L413.243 153.709Z" fill="white"/>
<path d="M368.01 164.761C367.361 165.903 366.863 167.149 367.184 168.365C367.342 168.976 367.694 169.483 368.055 169.96C370.488 173.194 373.669 175.904 376.691 178.374C379.292 180.495 382.22 182.804 385.569 182.882C386.762 182.912 388.01 182.591 388.971 181.733C389.847 180.944 390.397 179.793 390.925 178.671C392.223 175.913 393.521 173.16 394.814 170.401C395.877 168.137 395.525 166.802 394.734 164.62C394.003 162.604 392.95 160.771 391.863 159.004C391.558 158.503 391.231 158.015 390.898 157.543C390.816 157.422 390.729 157.306 390.642 157.19C390.556 157.069 390.468 156.958 390.38 156.848C390.293 156.732 390.2 156.621 390.113 156.505C390.021 156.388 389.933 156.277 389.84 156.172C389.768 156.08 389.692 155.987 389.615 155.9C389.506 155.77 389.397 155.64 389.283 155.515C389.194 155.415 389.104 155.315 389.01 155.214C388.908 155.102 388.807 154.989 388.703 154.887C388.626 154.805 388.543 154.723 388.465 154.641C388.346 154.515 388.227 154.394 388.102 154.278C388.003 154.182 387.903 154.086 387.799 153.99C387.8 153.984 387.796 153.978 387.791 153.983C387.587 153.791 387.378 153.603 387.164 153.42C385.575 152.037 383.818 150.903 381.938 150.078C381.685 149.966 381.436 149.864 381.176 149.767C379.765 149.216 378.584 148.377 377.07 149.379C375.383 150.497 373.956 153.101 373.072 155.037C371.714 158.021 370.409 160.925 368.67 163.664C368.446 164.012 368.214 164.382 368 164.759L368.01 164.761Z" fill="#F7967C"/>
<path d="M378.777 158.688C379.543 161.914 381.544 165.06 383.667 166.921C386.6 169.501 390.675 171.522 394.112 168.546C397.545 165.569 396.206 160.898 393.822 157.728C391.608 154.785 388.816 152.03 385.257 151.092C383.983 150.759 382.614 150.674 381.353 151.062C378.002 152.107 378.088 155.792 378.773 158.683L378.777 158.688Z" fill="#DB634F"/>
<path d="M416.279 135.212C415.166 128.711 410.038 123.172 403.903 120.588C398.621 118.364 392.348 118.105 387.259 120.741C382.506 123.201 379.252 127.851 376.924 132.676C371.665 143.599 370.655 162.024 382.857 168.971C388.326 172.084 395.086 174.995 400.737 170.802C405.906 166.966 409.255 160.718 412.096 155.07C414.9 149.502 416.841 143.254 416.475 136.947C416.442 136.365 416.374 135.786 416.279 135.216L416.279 135.212Z" fill="#F7967C"/>
<path d="M382.592 122.619C382.05 122.67 381.545 122.895 381.065 123.15C377.317 125.168 376.062 128.863 374.997 132.715C374.49 134.548 374.128 136.423 373.914 138.315C373.746 139.821 373.381 141.51 374.045 142.92C374.13 143.105 374.249 143.299 374.449 143.349C374.652 143.4 374.851 143.277 375.019 143.155C376.139 142.333 377.012 141.247 377.926 140.214C380.134 137.708 383.484 136.581 385.803 134.176C387.444 132.476 388.532 129.981 387.817 127.723C387.472 126.635 386.748 125.712 386.04 124.817C385.136 123.67 384.225 122.457 382.588 122.614L382.592 122.619Z" fill="white"/>
<path d="M375.816 140.575C374.813 140.185 372.964 140.566 372.159 141.261C371.541 141.793 371.153 142.552 370.904 143.331C370.107 145.807 370.646 148.674 372.291 150.69C372.756 151.261 373.323 151.778 374.023 151.999C376.919 152.911 378.401 148.619 378.788 146.567C379.022 145.32 378.955 143.978 378.343 142.869C377.984 142.218 377.455 141.672 376.87 141.213C376.549 140.96 376.195 140.728 375.82 140.58L375.816 140.575Z" fill="#F7967C"/>
<path d="M386.865 147.624C387.742 147.057 388.763 146.716 389.796 147.05C390.816 147.378 391.313 148.212 391.681 149.165C391.803 149.485 391.309 149.478 391.077 149.298C391.062 149.339 391.052 149.381 391.029 149.421C390.744 149.97 390.066 150.17 389.494 150.045C388.91 149.913 388.429 149.456 388.413 148.842C388.398 148.31 388.548 147.802 388.969 147.479C388.956 147.477 388.943 147.475 388.926 147.472C388.39 147.434 387.989 147.648 387.543 147.911C387.35 148.026 387.311 148.18 387.055 148.104C386.869 148.047 386.632 147.78 386.864 147.628L386.865 147.624Z" fill="#272443"/>
<path d="M401.403 154.172C401.495 154.069 401.63 153.967 401.745 153.911C402.626 153.469 403.602 153.324 404.534 153.7C405.405 154.053 406.287 154.869 406.247 155.872C406.239 156.112 405.928 156.119 405.716 156.007C405.697 156.051 405.673 156.1 405.646 156.139C405.419 156.61 404.863 156.802 404.269 156.678C403.98 156.619 403.732 156.489 403.542 156.31C403.531 156.3 403.519 156.29 403.508 156.28C403.504 156.279 403.5 156.274 403.497 156.269C403.273 156.056 403.134 155.765 403.146 155.435C403.143 155.279 403.17 155.115 403.228 154.951C403.251 154.881 403.297 154.827 403.355 154.784C403.545 154.48 403.845 154.247 404.187 154.171C403.692 154.048 403.136 154.059 402.676 154.178C402.367 154.259 401.932 154.627 401.629 154.605C401.195 154.573 401.238 154.359 401.411 154.173L401.403 154.172Z" fill="#272443"/>
<path d="M394.943 144.158C394.357 142.381 392.443 141.382 390.807 140.962C388.976 140.492 386.901 140.801 384.919 142.144C384.905 142.155 384.895 142.162 384.885 142.174C384.832 142.209 384.796 142.251 384.772 142.3C384.702 142.428 384.721 142.568 384.789 142.694C384.888 142.937 385.12 143.151 385.363 143.134C388.039 142.933 390.327 143.848 392.368 145.11C392.882 145.43 393.697 146.409 394.454 146.143C395.31 145.844 395.109 144.656 394.94 144.153L394.943 144.158Z" fill="white"/>
<path d="M403.27 148.167C404.825 147.313 406.706 147.946 408.022 148.794C409.501 149.744 410.609 151.42 410.976 153.769C410.978 153.786 410.976 153.799 410.978 153.817C410.986 153.878 410.983 153.934 410.967 153.987C410.926 154.124 410.823 154.212 410.691 154.258C410.466 154.359 410.174 154.352 410.033 154.163C408.466 152.141 406.407 151.19 404.271 150.655C403.735 150.522 402.564 150.642 402.257 149.926C401.913 149.114 402.831 148.41 403.27 148.167Z" fill="white"/>
<path d="M396.543 157.609C397.556 155.363 397.047 152.768 398.53 150.675C398.724 150.401 398.079 149.998 397.88 150.279C397.067 151.421 396.777 152.703 396.56 154.073C396.446 154.781 396.361 155.497 396.198 156.193C395.983 157.098 395.013 159.553 393.564 158.328C393.252 158.067 392.752 158.314 393.141 158.638C394.398 159.698 395.913 159.006 396.538 157.609L396.543 157.609Z" fill="#DB634F"/>
<path d="M387.325 159.673C387.828 161.886 390.597 163.439 392.763 163.164C393.1 163.122 393.518 163.695 393.053 163.753C390.449 164.085 387.221 162.247 386.618 159.593C386.526 159.183 387.251 159.348 387.321 159.672L387.325 159.673Z" fill="#DB634F"/>
<path d="M456.99 376.568C478.513 374.941 499.958 372.011 521.208 367.797L208.516 363.525C236.269 372.638 267.738 377.322 296.41 373.51C299.93 373.04 303.714 372.521 306.677 375.284C308.164 376.675 308.956 378.919 308.447 381.046C307.792 383.79 305.484 384.632 303.402 385.309L298.18 386.994C292.645 388.777 293.28 398.018 298.981 398.812C320.642 401.84 344.356 394.471 366.192 399.106C368.207 399.537 368.598 402.663 366.759 403.702L351.582 412.237C349.734 413.275 350.125 416.45 352.159 416.833C377.575 421.615 403.743 421.056 428.993 415.225C433.031 414.295 433.354 407.788 429.423 406.357C426.822 405.416 427.154 401.046 429.863 400.644L459.249 396.293C462.358 395.833 465.624 395.304 467.844 392.423C468.842 391.119 469.38 389.365 469.096 387.651C467.971 380.82 457.087 382.898 456.999 376.568H456.99Z" fill="#F5F5F5"/>
<path d="M108.605 238.977C108.605 238.977 107.696 232.539 107.412 222.044C107.392 220.731 107.363 219.359 107.334 217.928C107.314 216.498 107.373 215.008 107.392 213.47C107.392 210.383 107.617 207.09 107.803 203.631C108.302 196.713 109.162 189.128 110.551 181.24C111.989 173.361 113.827 165.943 115.763 159.28C116.79 155.968 117.739 152.813 118.804 149.912C119.323 148.462 119.782 147.041 120.301 145.708C120.819 144.375 121.327 143.102 121.797 141.877C125.708 132.136 128.799 126.423 128.799 126.423C128.799 126.423 128.769 126.521 128.691 126.708C128.603 126.913 128.486 127.178 128.339 127.511C128.006 128.246 127.537 129.275 126.941 130.578C126.637 131.245 126.295 131.989 125.924 132.793C125.572 133.616 125.2 134.508 124.789 135.458C123.997 137.379 123.019 139.544 122.12 142.004C121.65 143.229 121.161 144.513 120.653 145.845C120.144 147.178 119.694 148.599 119.186 150.049C118.14 152.95 117.22 156.105 116.203 159.407C114.296 166.061 112.477 173.459 111.05 181.318C109.661 189.187 108.791 196.752 108.273 203.651C108.077 207.11 107.842 210.393 107.823 213.47C107.793 215.008 107.725 216.498 107.735 217.928C107.744 219.359 107.764 220.731 107.774 222.034C107.764 224.65 107.921 227.022 107.999 229.099C108.048 230.138 108.087 231.108 108.126 232C108.194 232.882 108.253 233.695 108.312 234.43C108.409 235.861 108.497 236.988 108.556 237.801C108.576 238.164 108.595 238.448 108.605 238.683C108.605 238.879 108.605 238.987 108.605 238.987V238.977Z" fill="#E0E0E0"/>
<path d="M129.591 134.409C127.42 141.72 124.662 148.824 121.2 155.497C120.261 157.3 118.853 159.329 116.995 159.045C115.714 158.849 114.756 157.516 114.482 156.105C114.208 154.694 114.482 153.224 114.805 151.832C116.145 146.218 118.55 141.004 120.926 135.84C121.767 134.027 122.657 132.136 124.173 130.99C125.689 129.843 128.016 129.774 129.141 131.391C129.141 131.391 130.148 132.518 129.591 134.4V134.409Z" fill="#E0E0E0"/>
<path d="M120.408 247.12C124.212 239.104 129.424 223.915 128.016 216.292C119 219.682 110.258 231.823 103.06 240.231C111.5 220.956 119.949 201.691 128.388 182.416C111.226 193.156 101.281 212.117 92.1274 230.187C96.9582 215.968 99.8821 201.093 100.782 186.1C91.2571 193.783 84.5292 204.875 82.1235 216.889C84.8617 191.362 87.6095 165.836 90.3476 140.309C78.74 151.107 72.8238 166.953 71.0342 182.72C69.2447 198.486 71.1809 214.42 73.1269 230.177C68.7362 221.965 64.3552 213.754 59.9644 205.542C58.967 221.711 61.9985 236.517 70.2812 250.422L128.583 250.452C143.281 234.528 153.833 220.211 163.377 200.74C143.408 208.638 131.204 228.501 120.418 247.11L120.408 247.12Z" fill="#EBEBEB"/>
<path d="M79.5809 243.857C79.5809 243.857 79.5516 243.769 79.5124 243.592C79.4733 243.386 79.4244 243.132 79.3658 242.808C79.2484 242.083 79.0724 241.074 78.8573 239.79C78.7497 239.134 78.6323 238.399 78.5052 237.605C78.3977 236.801 78.2901 235.929 78.1727 234.998C77.9478 233.127 77.6447 231 77.4687 228.629C77.3611 227.443 77.2535 226.208 77.1459 224.915C77.0384 223.621 76.9993 222.269 76.9113 220.878C76.7255 218.085 76.7059 215.106 76.6472 211.96C76.6472 205.679 76.921 198.771 77.6349 191.549C78.3977 184.336 79.5222 177.506 80.7935 171.362C81.4878 168.295 82.1039 165.375 82.8471 162.68C83.2089 161.328 83.5218 160.015 83.8836 158.77C84.2552 157.526 84.6073 156.34 84.9495 155.194C85.595 152.91 86.3284 150.892 86.9249 149.099C87.228 148.207 87.5116 147.384 87.7757 146.61C88.0593 145.855 88.3233 145.169 88.558 144.542C89.0274 143.337 89.399 142.376 89.663 141.69C89.7803 141.387 89.8879 141.151 89.9661 140.955C90.0346 140.789 90.0737 140.71 90.0835 140.71C90.0933 140.71 90.0639 140.799 90.015 140.975C89.9466 141.171 89.8684 141.416 89.7608 141.73C89.5163 142.425 89.1741 143.386 88.7438 144.611C88.5189 145.238 88.2744 145.933 88.0006 146.688C87.7463 147.462 87.4823 148.295 87.1889 149.187C86.6217 150.98 85.9079 153.008 85.282 155.292C84.9495 156.428 84.6073 157.624 84.2455 158.868C83.8934 160.113 83.5903 161.426 83.2382 162.768C82.5146 165.463 81.9083 168.374 81.2335 171.441C79.9916 177.585 78.8768 184.395 78.1238 191.588C77.41 198.79 77.1264 205.679 77.097 211.941C77.1362 215.077 77.1459 218.056 77.3122 220.838C77.3806 222.23 77.4198 223.572 77.5078 224.866C77.6056 226.159 77.7033 227.394 77.8011 228.58C77.9478 230.951 78.2314 233.078 78.427 234.949C78.5346 235.88 78.6323 236.752 78.7204 237.556C78.8279 238.35 78.9355 239.085 79.0333 239.741C79.2093 241.025 79.3462 242.044 79.444 242.769C79.4831 243.092 79.5124 243.347 79.5418 243.563C79.5613 243.739 79.5613 243.837 79.5613 243.837L79.5809 243.857Z" fill="#E0E0E0"/>
<path d="M85.5657 242.25C85.5657 242.25 85.5364 242.044 85.5266 241.652C85.5266 241.211 85.5168 240.643 85.5071 239.947C85.4973 239.202 85.5071 238.301 85.556 237.242C85.5951 236.194 85.6244 234.988 85.7418 233.666C85.908 231.02 86.26 227.874 86.7783 224.405C87.3357 220.936 88.0985 217.154 89.1253 213.234C90.1814 209.324 91.4038 205.659 92.6555 202.377C93.3204 200.75 93.917 199.192 94.5819 197.781C94.9046 197.075 95.2176 196.389 95.5207 195.723C95.8434 195.076 96.1563 194.459 96.4497 193.861C97.0267 192.666 97.6232 191.627 98.1317 190.706C98.6304 189.775 99.0998 189.001 99.5007 188.374C99.8723 187.786 100.175 187.306 100.41 186.933C100.625 186.61 100.743 186.443 100.762 186.453C100.782 186.453 100.684 186.649 100.498 186.992C100.283 187.384 100.009 187.874 99.667 188.481C99.2954 189.118 98.8553 189.912 98.3762 190.843C97.8872 191.774 97.32 192.823 96.7626 194.028C96.479 194.626 96.1759 195.253 95.863 195.899C95.5696 196.566 95.2665 197.252 94.9535 197.957C94.3081 199.368 93.7312 200.926 93.076 202.553C91.8536 205.826 90.6508 209.481 89.6044 213.371C88.5777 217.272 87.8149 221.044 87.2282 224.484C86.6805 227.933 86.2894 231.059 86.084 233.705C85.9471 235.018 85.8982 236.213 85.8298 237.262C85.7515 238.31 85.7124 239.212 85.6929 239.957C85.6635 240.652 85.6342 241.221 85.6146 241.662C85.5951 242.054 85.5755 242.259 85.556 242.259L85.5657 242.25Z" fill="#E0E0E0"/>
<path d="M128.036 183.014C128.036 183.014 127.909 183.219 127.625 183.592C127.312 183.994 126.901 184.523 126.383 185.179C125.288 186.541 123.743 188.54 121.875 191.049C120.007 193.548 117.866 196.595 115.587 200.045C113.328 203.504 110.942 207.365 108.605 211.52C106.287 215.684 104.234 219.741 102.454 223.465C100.703 227.208 99.2269 230.618 98.0632 233.519C96.8995 236.419 95.99 238.781 95.4033 240.427C95.1099 241.211 94.8752 241.838 94.6992 242.318C94.533 242.75 94.4352 242.975 94.4254 242.965C94.4058 242.965 94.4743 242.73 94.6112 242.289C94.7677 241.799 94.973 241.162 95.2273 240.368C95.7553 238.703 96.6159 236.311 97.7405 233.391C98.8553 230.461 100.312 227.032 102.043 223.269C103.794 219.516 105.847 215.449 108.175 211.275C110.522 207.11 112.927 203.239 115.206 199.79C117.514 196.35 119.684 193.322 121.591 190.843C123.498 188.354 125.082 186.385 126.227 185.062C126.774 184.435 127.214 183.925 127.547 183.533C127.85 183.19 128.016 183.014 128.036 183.023V183.014Z" fill="#E0E0E0"/>
<path d="M125.933 218.428C126.051 218.496 122.442 224.993 117.875 232.931C113.299 240.868 109.495 247.247 109.368 247.179C109.25 247.11 112.859 240.613 117.426 232.676C122.002 224.738 125.806 218.359 125.924 218.428H125.933Z" fill="#E0E0E0"/>
<path d="M161.392 204.572C161.499 204.66 153.647 214.724 143.858 227.051C134.06 239.379 126.031 249.295 125.923 249.207C125.816 249.119 133.668 239.055 143.457 226.728C153.256 214.4 161.284 204.484 161.392 204.572Z" fill="#E0E0E0"/>
<path d="M76.97 248.394C76.97 248.394 76.5887 247.914 75.9726 246.983C75.3565 246.062 74.5058 244.69 73.5083 242.965C71.5036 239.526 68.9904 234.626 66.7413 228.982C64.5019 223.327 62.9568 218.036 62.0474 214.165C61.5878 212.225 61.2651 210.647 61.0793 209.56C60.8837 208.462 60.7957 207.855 60.8348 207.845C60.8739 207.845 61.0206 208.433 61.2748 209.511C61.5193 210.588 61.9007 212.156 62.3994 214.077C63.3969 217.918 64.9811 223.171 67.2107 228.795C69.45 234.41 71.9045 239.32 73.8212 242.789C74.7796 244.523 75.5717 245.924 76.1388 246.875C76.6962 247.835 76.9994 248.374 76.97 248.394Z" fill="#E0E0E0"/>
<path d="M76.8038 88.3535C76.1681 86.6484 75.5129 84.914 74.447 83.4441C73.3713 81.9742 71.8067 80.7689 70.0074 80.5435C68.1983 80.3182 66.2034 81.2981 65.6166 83.0227C65.3624 79.1422 64.805 75.154 62.8688 71.783C60.9325 68.4121 57.3045 65.7565 53.4321 66.0015C49.7747 66.2269 46.6455 68.9511 44.9048 72.175C43.1642 75.4088 42.5677 79.1128 42.0005 82.7386C40.6119 81.0335 37.688 81.5725 36.2407 83.2187C34.7934 84.8748 34.4316 87.1776 34.1187 89.3628L77.3123 89.8136L76.8135 88.3535H76.8038Z" fill="#E0E0E0"/>
<path d="M627.603 76.1537C626.84 74.1253 626.068 72.0576 624.787 70.3134C623.506 68.5593 621.638 67.1286 619.496 66.8641C617.355 66.5995 614.969 67.7656 614.264 69.8136C613.952 65.1884 613.306 60.4358 610.989 56.4181C608.681 52.4004 604.368 49.2451 599.743 49.5293C595.391 49.7938 591.656 53.0374 589.582 56.8885C587.509 60.7396 586.795 65.1492 586.121 69.4706C584.468 67.4422 580.987 68.0792 579.266 70.0488C577.545 72.0184 577.104 74.772 576.743 77.359L628.199 77.8979L627.603 76.1537Z" fill="#E0E0E0"/>
<path d="M506.608 49.7348C505.523 46.8343 504.418 43.8847 502.589 41.3859C500.76 38.8871 498.1 36.8293 495.03 36.4569C491.959 36.0845 488.556 37.7406 487.559 40.6706C487.119 34.0561 486.18 27.2751 482.884 21.5425C479.579 15.8002 473.418 11.2926 466.817 11.6944C460.598 12.0765 455.269 16.7115 452.306 22.2089C449.342 27.7062 448.325 34.0169 447.357 40.1806C445.001 37.2801 440.023 38.1914 437.559 41.0037C435.095 43.8161 434.479 47.7456 433.95 51.4497L507.469 52.214L506.618 49.725L506.608 49.7348Z" fill="#EBEBEB"/>
<path d="M173.713 38.4953C172.628 35.5947 171.523 32.6451 169.694 30.1463C167.865 27.6476 165.206 25.5897 162.135 25.2174C159.064 24.845 155.661 26.501 154.664 29.431C154.224 22.8165 153.285 16.0355 149.99 10.303C146.684 4.56064 140.524 0.053012 133.923 0.464578C127.703 0.846747 122.374 5.48177 119.411 10.9791C116.448 16.4765 115.431 22.7871 114.463 28.9508C112.106 26.0503 107.128 26.9616 104.664 29.774C102.2 32.5863 101.584 36.5158 101.056 40.2199L174.574 40.9843L173.723 38.4953H173.713Z" fill="#F5F5F5"/>
<path d="M316.007 129.794C314.598 126.031 313.171 122.22 310.804 118.986C308.438 115.742 304.986 113.087 301.015 112.607C297.035 112.117 292.635 114.272 291.334 118.065C290.767 109.51 289.555 100.72 285.281 93.2924C281.008 85.8646 273.028 80.0243 264.481 80.5436C256.423 81.0336 249.529 87.0307 245.696 94.1547C241.863 101.269 240.542 109.441 239.291 117.428C236.24 113.675 229.786 114.851 226.598 118.496C223.41 122.141 222.608 127.227 221.923 132.029L317.112 133.018L316.007 129.794Z" fill="#F5F5F5"/>
<path d="M683.333 250.432C683.333 250.569 530.351 250.687 341.686 250.687C153.021 250.687 0.00976562 250.579 0.00976562 250.432C0.00976562 250.285 152.952 250.177 341.686 250.177C530.42 250.177 683.333 250.295 683.333 250.432Z" fill="#263238"/>
<path d="M582.581 239.095C582.581 239.095 582.581 238.997 582.581 238.791C582.591 238.565 582.61 238.271 582.63 237.909C582.688 237.105 582.767 235.978 582.874 234.538C582.933 233.803 582.991 232.99 583.06 232.108C583.099 231.216 583.148 230.246 583.187 229.207C583.265 227.13 583.422 224.758 583.412 222.142C583.422 220.829 583.441 219.457 583.451 218.036C583.461 216.605 583.392 215.116 583.363 213.578C583.334 210.501 583.109 207.218 582.913 203.759C582.385 196.86 581.515 189.285 580.136 181.426C578.699 173.567 576.88 166.169 574.982 159.515C573.965 156.203 573.046 153.048 572 150.157C571.491 148.707 571.042 147.286 570.533 145.953C570.025 144.621 569.536 143.337 569.066 142.112C568.167 139.652 567.198 137.487 566.397 135.566C565.996 134.606 565.614 133.724 565.262 132.901C564.891 132.097 564.548 131.352 564.245 130.686C563.649 129.373 563.179 128.344 562.847 127.619C562.7 127.286 562.583 127.021 562.495 126.815C562.417 126.629 562.387 126.541 562.387 126.531C562.387 126.531 565.477 132.244 569.389 141.985C569.868 143.209 570.367 144.483 570.885 145.816C571.403 147.149 571.863 148.57 572.381 150.02C573.447 152.92 574.386 156.076 575.423 159.388C577.359 166.051 579.187 173.46 580.635 181.348C582.023 189.236 582.884 196.821 583.383 203.739C583.568 207.208 583.784 210.491 583.793 213.578C583.813 215.116 583.872 216.605 583.852 218.036C583.823 219.467 583.803 220.839 583.774 222.152C583.49 232.647 582.581 239.085 582.581 239.085V239.095Z" fill="#263238"/>
<path d="M530.645 108.167C530.645 108.167 530.733 108.246 530.889 108.422C531.055 108.618 531.29 108.883 531.574 109.206C532.17 109.902 533.06 110.921 534.126 112.293C536.297 115.007 539.328 119.054 542.634 124.326C545.949 129.598 549.528 136.115 552.872 143.641C556.246 151.157 559.336 159.692 561.928 168.834C567.11 187.149 569.408 204.278 570.729 216.645C571.061 219.741 571.325 222.544 571.658 224.984C571.99 227.433 572.391 229.521 572.812 231.206C573.232 232.892 573.653 234.175 573.956 235.038C574.102 235.449 574.229 235.773 574.317 236.018C574.396 236.243 574.435 236.351 574.425 236.361C574.425 236.361 573.516 234.646 572.616 231.265C572.156 229.58 571.736 227.483 571.374 225.043C571.012 222.593 570.719 219.79 570.367 216.703C568.949 204.356 566.602 187.267 561.429 168.991C558.837 159.868 555.777 151.353 552.442 143.846C549.127 136.33 545.597 129.814 542.321 124.532C539.064 119.241 536.092 115.174 533.97 112.43C532.923 111.039 532.063 110.01 531.495 109.285C531.222 108.942 531.016 108.667 530.85 108.471C530.703 108.285 530.635 108.187 530.645 108.177V108.167Z" fill="#263238"/>
<path d="M562.563 133.234C564.734 140.544 567.492 147.648 570.953 154.322C571.892 156.125 573.3 158.153 575.158 157.869C576.439 157.673 577.398 156.34 577.672 154.929C577.945 153.518 577.672 152.048 577.349 150.657C576.009 145.042 573.604 139.829 571.227 134.664C570.386 132.852 569.496 130.96 567.981 129.814C566.465 128.677 564.138 128.599 563.013 130.216C563.013 130.216 562.006 131.342 562.563 133.224V133.234Z" fill="#546954"/>
<path d="M532.112 115.282C535.564 122.083 539.544 128.579 544.14 134.518C545.382 136.125 547.132 137.859 548.912 137.252C550.134 136.83 550.838 135.351 550.868 133.91C550.887 132.47 550.359 131.078 549.782 129.765C547.455 124.483 544.159 119.79 540.893 115.135C539.749 113.498 538.527 111.803 536.825 110.951C535.133 110.098 532.825 110.451 532.014 112.244C532.014 112.244 531.231 113.538 532.112 115.282Z" fill="#546954"/>
<path d="M557.664 247.12C553.86 239.105 548.648 223.916 550.056 216.292C559.072 219.683 567.815 231.824 575.012 240.231C566.573 220.956 558.124 201.691 549.684 182.416C566.846 193.156 576.792 212.118 585.945 230.187C581.114 215.969 578.19 201.093 577.29 186.101C586.815 193.783 593.543 204.876 595.949 216.89C593.21 191.363 590.463 165.836 587.724 140.309C599.332 151.108 605.248 166.953 607.038 182.72C608.827 198.487 606.891 214.42 604.945 230.178L618.108 205.542C619.105 221.711 616.074 236.518 607.791 250.423L549.489 250.452C534.791 234.528 524.24 220.212 514.695 200.741C534.664 208.639 546.868 228.502 557.654 247.111L557.664 247.12Z" fill="#9FC990"/>
<path d="M598.491 243.857C598.491 243.857 598.491 243.759 598.511 243.582C598.54 243.377 598.569 243.112 598.608 242.789C598.706 242.054 598.843 241.044 599.019 239.761C599.117 239.104 599.215 238.369 599.332 237.575C599.42 236.772 599.518 235.9 599.625 234.969C599.821 233.097 600.105 230.971 600.251 228.599C600.339 227.414 600.437 226.179 600.545 224.885C600.642 223.592 600.672 222.25 600.74 220.858C600.906 218.075 600.906 215.096 600.955 211.96C600.926 205.689 600.642 198.8 599.929 191.607C599.176 184.415 598.061 177.604 596.819 171.46C596.144 168.403 595.538 165.483 594.814 162.788C594.462 161.436 594.159 160.123 593.807 158.888C593.445 157.643 593.103 156.458 592.77 155.311C592.145 153.028 591.44 151 590.863 149.206C590.57 148.315 590.306 147.482 590.052 146.707C589.778 145.953 589.534 145.257 589.309 144.63C588.878 143.405 588.536 142.445 588.292 141.749C588.184 141.445 588.106 141.191 588.037 140.995C587.979 140.828 587.959 140.73 587.969 140.73C587.969 140.73 588.018 140.808 588.086 140.975C588.165 141.171 588.262 141.406 588.389 141.71C588.653 142.396 589.025 143.346 589.494 144.561C589.729 145.189 589.993 145.875 590.277 146.629C590.541 147.393 590.824 148.226 591.128 149.118C591.724 150.911 592.457 152.93 593.103 155.213C593.445 156.35 593.797 157.545 594.169 158.79C594.531 160.034 594.853 161.347 595.205 162.7C595.949 165.395 596.574 168.315 597.259 171.382C598.52 177.536 599.655 184.356 600.418 191.568C601.131 198.78 601.405 205.699 601.405 211.98C601.347 215.125 601.327 218.104 601.141 220.897C601.063 222.289 601.014 223.641 600.906 224.934C600.799 226.228 600.691 227.463 600.584 228.648C600.408 231.02 600.105 233.146 599.88 235.018C599.762 235.949 599.645 236.821 599.547 237.624C599.42 238.418 599.303 239.143 599.195 239.81C598.98 241.093 598.814 242.103 598.687 242.828C598.628 243.151 598.579 243.406 598.54 243.612C598.501 243.788 598.481 243.876 598.472 243.876L598.491 243.857Z" fill="#263238"/>
<path d="M592.506 242.25C592.506 242.25 592.467 242.044 592.448 241.652C592.428 241.211 592.399 240.643 592.369 239.947C592.35 239.202 592.311 238.301 592.233 237.252C592.164 236.204 592.115 235.008 591.978 233.695C591.773 231.059 591.382 227.933 590.834 224.474C590.247 221.025 589.485 217.262 588.458 213.362C587.412 209.462 586.209 205.816 584.986 202.543C584.341 200.927 583.754 199.368 583.109 197.948C582.796 197.242 582.493 196.546 582.199 195.89C581.886 195.243 581.593 194.616 581.3 194.018C580.742 192.813 580.175 191.764 579.686 190.833C579.207 189.893 578.767 189.109 578.395 188.472C578.053 187.864 577.779 187.374 577.564 186.982C577.378 186.639 577.29 186.453 577.3 186.443C577.32 186.443 577.437 186.6 577.652 186.924C577.887 187.296 578.19 187.776 578.562 188.364C578.963 188.991 579.432 189.765 579.931 190.696C580.439 191.617 581.045 192.656 581.613 193.852C581.906 194.449 582.219 195.067 582.542 195.713C582.845 196.37 583.158 197.056 583.48 197.771C584.145 199.182 584.742 200.74 585.407 202.367C586.659 205.65 587.881 209.315 588.937 213.225C589.964 217.144 590.727 220.937 591.284 224.396C591.802 227.865 592.164 231.01 592.321 233.656C592.438 234.979 592.467 236.174 592.506 237.233C592.555 238.281 592.565 239.192 592.555 239.937C592.555 240.633 592.545 241.201 592.536 241.642C592.526 242.034 592.516 242.24 592.497 242.24L592.506 242.25Z" fill="#263238"/>
<path d="M550.036 183.014C550.036 183.014 550.212 183.18 550.525 183.523C550.858 183.905 551.298 184.415 551.846 185.052C552.99 186.375 554.584 188.344 556.481 190.833C558.388 193.313 560.559 196.341 562.866 199.78C565.145 203.229 567.551 207.1 569.897 211.265C572.225 215.439 574.269 219.516 576.029 223.259C577.76 227.022 579.207 230.461 580.332 233.382C581.456 236.302 582.307 238.693 582.845 240.359C583.099 241.152 583.304 241.789 583.461 242.279C583.598 242.72 583.656 242.955 583.647 242.955C583.627 242.955 583.539 242.74 583.373 242.309C583.197 241.828 582.962 241.201 582.669 240.417C582.082 238.771 581.173 236.41 580.009 233.509C578.845 230.608 577.369 227.188 575.618 223.455C573.848 219.721 571.795 215.674 569.467 211.51C567.13 207.355 564.744 203.494 562.485 200.035C560.207 196.595 558.065 193.548 556.197 191.039C554.339 188.531 552.794 186.532 551.689 185.17C551.171 184.513 550.76 183.984 550.447 183.582C550.164 183.219 550.027 183.014 550.036 183.004V183.014Z" fill="#263238"/>
<path d="M552.139 218.428C552.256 218.36 556.07 224.739 560.637 232.676C565.213 240.614 568.822 247.111 568.695 247.179C568.577 247.248 564.763 240.868 560.187 232.931C555.61 224.994 552.002 218.497 552.129 218.428H552.139Z" fill="#263238"/>
<path d="M516.681 204.572C516.788 204.484 524.817 214.41 534.615 226.728C544.414 239.055 552.266 249.119 552.149 249.207C552.031 249.295 544.013 239.379 534.214 227.051C524.425 214.724 516.573 204.66 516.681 204.572Z" fill="#263238"/>
<path d="M601.102 248.394C601.102 248.394 601.366 247.835 601.933 246.875C602.5 245.925 603.293 244.523 604.251 242.789C606.168 239.32 608.622 234.41 610.861 228.796C613.091 223.171 614.675 217.918 615.673 214.077C616.171 212.156 616.553 210.598 616.797 209.511C617.052 208.433 617.208 207.835 617.237 207.845C617.276 207.845 617.179 208.462 616.993 209.56C616.807 210.657 616.484 212.235 616.025 214.165C615.115 218.036 613.58 223.337 611.331 228.982C609.082 234.626 606.559 239.526 604.564 242.965C603.566 244.69 602.716 246.052 602.1 246.983C601.483 247.914 601.131 248.414 601.102 248.394Z" fill="#263238"/>
<path d="M182.084 76.9079C182.084 76.9079 181.272 76.6238 179.776 76.2906C178.29 75.9672 176.05 75.6732 173.342 76.0456C170.652 76.4082 167.455 77.4959 164.668 79.7987C161.881 82.0623 159.495 85.4822 158.546 89.5391C158.546 89.5783 158.527 89.6175 158.517 89.6469L158.341 90.3426L158.077 89.6861C156.522 85.8252 153.745 82.7581 150.743 80.8178C147.731 78.8286 144.494 78.0153 141.785 77.8291C139.066 77.6429 136.856 78.0349 135.39 78.417C133.913 78.809 133.131 79.152 133.111 79.103C133.111 79.0834 133.297 78.9952 133.668 78.8384C134.04 78.6718 134.597 78.4562 135.341 78.2406C136.808 77.7997 139.037 77.3489 141.805 77.4959C144.552 77.6429 147.877 78.4464 150.977 80.4553C154.067 82.4249 156.913 85.5606 158.507 89.5195L158.057 89.5587C158.057 89.5587 158.077 89.4901 158.087 89.4509C159.064 85.2765 161.529 81.7781 164.394 79.4753C167.269 77.1333 170.555 76.0554 173.303 75.732C176.07 75.3989 178.339 75.7418 179.825 76.1338C180.578 76.32 181.145 76.516 181.527 76.6728C181.908 76.8198 182.104 76.9079 182.094 76.9275L182.084 76.9079Z" fill="#263238"/>
<path d="M246.459 45.0606C246.459 45.0606 245.999 44.9332 245.178 44.7666C244.356 44.6 243.134 44.453 241.657 44.6686C240.191 44.8744 238.45 45.4721 236.934 46.7362C235.418 47.9709 234.128 49.8328 233.609 52.0474L233.59 52.1062L233.414 52.8019L233.15 52.1454C232.299 50.0484 230.793 48.3727 229.16 47.3046C227.517 46.2169 225.757 45.7661 224.28 45.6485C222.794 45.5309 221.581 45.7367 220.779 45.9327C219.968 46.1385 219.537 46.3149 219.518 46.2757C219.518 46.2561 219.616 46.2071 219.821 46.1091C220.026 46.0111 220.329 45.8837 220.74 45.7661C221.552 45.5113 222.774 45.2468 224.31 45.3252C225.835 45.3938 227.683 45.8347 229.404 46.942C231.116 48.0297 232.7 49.7642 233.59 51.969L233.14 52.0082L233.159 51.9494C233.707 49.627 235.076 47.6868 236.67 46.4129C238.274 45.1194 240.103 44.5216 241.618 44.355C243.154 44.1787 244.405 44.3844 245.227 44.6098C245.637 44.7176 245.95 44.8352 246.156 44.9234C246.361 45.0116 246.469 45.0704 246.459 45.0802V45.0606Z" fill="#263238"/>
<path d="M204.37 30.5773C204.37 30.5773 203.93 31.0868 203.128 31.9884C202.326 32.8899 201.241 34.252 200.107 36.0746C197.828 39.6709 195.54 45.4035 195.618 51.9885C195.618 52.0571 195.618 52.1257 195.618 52.1845L195.149 52.2237C194.66 49.0096 193.594 46.0698 192.244 43.6102C190.895 41.1408 189.32 39.132 187.824 37.6229C186.328 36.1138 184.969 35.0457 183.991 34.3696C183.013 33.6934 182.446 33.3504 182.465 33.3112C182.465 33.3014 182.622 33.37 182.896 33.517C183.169 33.6738 183.59 33.8796 184.089 34.2128C185.106 34.8497 186.514 35.8786 188.049 37.3877C189.594 38.887 191.227 40.8958 192.616 43.3946C194.004 45.8836 195.11 48.8822 195.608 52.1551L195.139 52.1943C195.139 52.1257 195.139 52.0571 195.139 51.9885C195.061 45.2957 197.437 39.4847 199.813 35.8982C200.996 34.0756 202.131 32.7331 202.982 31.861C203.392 31.4102 203.754 31.1064 203.979 30.8908C204.214 30.6753 204.341 30.5675 204.351 30.5773H204.37Z" fill="#263238"/>
<path d="M529.168 380.674C529.168 380.811 487.353 380.929 435.779 380.929C384.205 380.929 342.38 380.811 342.38 380.674C342.38 380.537 384.185 380.419 435.779 380.419C487.373 380.419 529.168 380.537 529.168 380.674Z" fill="#263238"/>
<path d="M604.231 260.163C604.231 260.3 593.983 260.418 581.339 260.418C568.695 260.418 558.446 260.3 558.446 260.163C558.446 260.026 568.695 259.908 581.339 259.908C593.983 259.908 604.231 260.026 604.231 260.163Z" fill="#263238"/>
<path d="M476.87 391.786C476.87 391.923 454.711 392.04 427.389 392.04C400.066 392.04 377.897 391.923 377.897 391.786C377.897 391.648 400.047 391.531 427.389 391.531C454.731 391.531 476.87 391.648 476.87 391.786Z" fill="#263238"/>
<path d="M455.777 273.509C456.051 274.342 466.554 331.354 466.554 331.354H509.366L519.037 273.509H455.787H455.777Z" fill="#67CAEA"/>
<g opacity="0.3">
<path d="M457.224 281.006L456.667 278.056H518.274L517.697 281.515L457.224 281.006Z" fill="black"/>
</g>
<path d="M520.299 272.314H453.772V278.732H520.299V272.314Z" fill="#67CAEA"/>
<path d="M520.279 278.84C520.279 278.977 505.386 279.095 487.031 279.095C468.676 279.095 453.782 278.977 453.782 278.84C453.782 278.703 468.666 278.585 487.031 278.585C505.396 278.585 520.279 278.703 520.279 278.84Z" fill="#263238"/>
<path d="M517.922 278.929C517.922 278.929 517.893 278.978 517.815 279.056C517.736 279.134 517.619 279.252 517.443 279.379C517.101 279.654 516.563 279.997 515.859 280.418C514.441 281.241 512.329 282.319 509.61 283.417C508.251 283.956 506.735 284.504 505.073 284.975C503.4 285.435 501.601 285.768 499.694 286.131C495.89 286.817 491.656 287.356 487.187 287.513C482.718 287.65 478.445 287.434 474.621 286.739C470.797 286.033 467.482 284.867 464.823 283.632C462.153 282.417 460.129 281.182 458.74 280.31C458.046 279.869 457.527 279.517 457.175 279.262C456.823 279.017 456.647 278.88 456.657 278.86C456.657 278.85 456.862 278.958 457.234 279.174C457.645 279.419 458.183 279.742 458.848 280.134C460.256 280.947 462.3 282.133 464.969 283.299C467.629 284.475 470.925 285.602 474.709 286.268C478.484 286.935 482.738 287.14 487.167 287.003C491.607 286.846 495.812 286.327 499.606 285.67C501.503 285.327 503.312 285.014 504.955 284.573C506.608 284.132 508.114 283.603 509.473 283.083C512.192 282.045 514.324 281.016 515.761 280.251C516.475 279.859 517.023 279.546 517.375 279.311C517.736 279.076 517.903 278.929 517.922 278.948V278.929Z" fill="#263238"/>
<path d="M493.974 290.08H479.462C478.014 290.08 476.841 288.904 476.841 287.454C476.841 286.004 478.014 284.828 479.462 284.828H493.974C495.421 284.828 496.594 286.004 496.594 287.454C496.594 288.904 495.421 290.08 493.974 290.08Z" fill="#263238"/>
<path d="M437.099 236.635C437.099 236.635 441.862 235.636 447.035 236.38C452.208 237.125 454.75 238.517 455.992 238.908C457.234 239.31 455.015 243.22 451.924 242.299C448.824 241.378 441.402 242.221 440.952 242.113C440.503 242.005 436.483 241.525 436.483 241.525L437.109 236.635H437.099Z" fill="#FF9A6C"/>
<path d="M436.219 251.843C427.848 245.856 415.214 247.483 403.851 248.972C392.488 250.462 370.211 250.56 370.211 250.56L312.056 269.541L313.816 277.478C317.522 294.225 333.433 299.32 350.556 299.34C350.957 299.34 351.876 298.889 352.277 298.88C374.944 298.468 398.052 293.794 398.052 293.794C398.052 293.794 381.809 321.878 394.434 344.132C395.49 345.994 421.482 347.65 424.044 347.709C426.607 347.768 438.302 294.774 440.17 284.965C442.038 275.156 444.58 257.821 436.209 251.834L436.219 251.843Z" fill="#263238"/>
<path d="M417.209 273.157C417.209 273.157 416.925 273.5 416.348 274.039C415.693 274.656 414.882 275.42 413.904 276.342C411.85 278.292 409.063 281.035 406.159 284.23C403.254 287.424 400.771 290.452 399.03 292.687C398.208 293.745 397.524 294.627 396.967 295.332C396.478 295.96 396.194 296.293 396.165 296.273C396.135 296.254 396.36 295.881 396.8 295.215C397.231 294.549 397.896 293.608 398.737 292.461C400.419 290.168 402.863 287.091 405.777 283.877C408.701 280.673 411.537 277.949 413.659 276.067C414.725 275.126 415.595 274.382 416.221 273.882C416.837 273.382 417.189 273.127 417.219 273.147L417.209 273.157Z" fill="#455A64"/>
<g opacity="0.3">
<path d="M397.455 293.853C400.643 282.28 410.315 272.745 421.913 269.727C412.456 276.586 404.134 285.014 397.397 294.568" fill="black"/>
</g>
<path d="M391.471 194.597L404.888 222.632L439.29 236.312L432.249 247.797L396.018 238.84L391.539 202.563L391.471 194.597Z" fill="#FF9A6C"/>
<path d="M657.311 365.328C657.311 365.328 657.311 364.926 657.311 364.132C657.321 363.329 657.341 362.153 657.36 360.614C657.419 357.508 657.497 352.961 657.605 347.091C657.84 335.342 658.182 318.35 658.612 297.361C659.512 255.361 660.754 197.36 662.123 133.293C662.201 129.539 662.289 125.796 662.367 122.327L662.69 122.582C655.277 124.571 648.041 126.855 641.039 129.461C634.067 132.136 627.261 134.929 620.748 138.035C607.654 144.13 595.509 150.931 584.067 157.575C572.655 164.268 561.977 170.882 551.973 177.017C541.949 183.112 532.786 189.05 524.601 194.714C508.241 206.052 495.773 216.233 487.275 223.337C483.031 226.904 479.765 229.707 477.565 231.618C476.469 232.568 475.628 233.293 475.061 233.783C474.494 234.273 474.201 234.508 474.201 234.508C474.201 234.508 474.474 234.244 475.032 233.744C475.599 233.244 476.42 232.509 477.506 231.539C479.687 229.609 482.924 226.777 487.158 223.19C495.626 216.037 508.065 205.816 524.416 194.42C532.591 188.736 541.754 182.779 551.777 176.664C561.771 170.51 572.44 163.886 583.852 157.173C595.284 150.51 607.449 143.699 620.552 137.585C627.075 134.468 633.891 131.666 640.873 128.991C647.885 126.374 655.131 124.091 662.573 122.092L662.895 122.004V122.347C662.807 125.826 662.729 129.559 662.651 133.312C661.223 197.379 659.922 255.381 658.984 297.38C658.495 318.37 658.094 335.352 657.82 347.111C657.673 352.971 657.556 357.528 657.478 360.634C657.429 362.172 657.399 363.348 657.38 364.152C657.351 364.946 657.331 365.347 657.331 365.347L657.311 365.328Z" fill="#263238"/>
<path d="M492.712 215.488C494.16 216.782 495.47 218.222 496.907 219.516C497.387 219.947 498.169 220.025 498.638 219.516C499.069 219.045 499.147 218.242 498.638 217.781C497.191 216.488 495.881 215.047 494.443 213.754C493.964 213.323 493.182 213.244 492.712 213.754C492.282 214.224 492.204 215.028 492.712 215.488Z" fill="#455A64"/>
<path d="M522.176 192.98C523.31 194.558 524.279 196.243 525.413 197.821C525.599 198.085 525.814 198.291 526.146 198.379C526.44 198.458 526.831 198.428 527.085 198.252C527.603 197.919 527.926 197.135 527.525 196.576C526.391 194.998 525.423 193.313 524.288 191.735C524.103 191.471 523.887 191.265 523.555 191.177C523.262 191.098 522.87 191.128 522.616 191.304C522.098 191.637 521.775 192.421 522.176 192.98Z" fill="#455A64"/>
<path d="M557.283 168.099C558.417 169.677 559.385 171.363 560.519 172.94C560.705 173.205 560.92 173.411 561.253 173.499C561.546 173.577 561.937 173.548 562.192 173.371C562.71 173.038 563.033 172.254 562.632 171.696C561.497 170.118 560.529 168.433 559.395 166.855C559.209 166.59 558.994 166.385 558.661 166.296C558.368 166.218 557.977 166.247 557.723 166.424C557.204 166.757 556.882 167.541 557.283 168.099Z" fill="#455A64"/>
<path d="M590.883 148.795C592.017 150.372 592.986 152.058 594.12 153.636C594.306 153.9 594.521 154.106 594.853 154.194C595.147 154.273 595.538 154.243 595.792 154.067C596.31 153.734 596.633 152.95 596.232 152.391C595.098 150.813 594.13 149.128 592.995 147.55C592.81 147.286 592.594 147.08 592.262 146.992C591.969 146.913 591.577 146.943 591.323 147.119C590.805 147.452 590.482 148.236 590.883 148.795Z" fill="#455A64"/>
<path d="M628.816 131.323C629.021 131.745 629.226 132.166 629.422 132.587C629.49 132.744 629.559 132.901 629.627 133.048C629.657 133.126 629.696 133.195 629.725 133.273C629.745 133.312 629.754 133.352 629.774 133.381C629.764 133.352 629.637 133.058 629.715 133.244C630.058 134.067 630.419 134.871 630.82 135.674C631.104 136.252 631.964 136.458 632.492 136.115C633.079 135.733 633.236 135.057 632.932 134.439C632.727 134.018 632.522 133.597 632.326 133.175C632.258 133.018 632.189 132.862 632.121 132.715C632.091 132.636 632.052 132.568 632.023 132.489C632.003 132.45 631.994 132.411 631.974 132.382C631.984 132.411 632.111 132.705 632.033 132.519C631.691 131.696 631.329 130.892 630.928 130.089C630.644 129.51 629.784 129.305 629.256 129.648C628.669 130.03 628.512 130.706 628.816 131.323Z" fill="#455A64"/>
<path d="M492.429 245.582C492.429 245.582 494.531 243.671 492.624 240.173C490.708 236.684 487.041 237.547 487.041 237.547L492.429 245.582Z" fill="#263238"/>
<path d="M492.272 244.073C492.214 243.995 488.703 246.209 488.703 246.209L485.486 240.516L488.498 238.448L492.272 244.073Z" fill="#263238"/>
<path d="M484.879 238.87L489.984 247.277L480.45 252.628L475.932 244.122L484.879 238.87Z" fill="#263238"/>
<path d="M475.355 248.336C475.355 248.336 477.809 249.021 477.35 250.58C476.89 252.147 474.396 251.236 471.306 250.932C468.49 250.658 464.676 250.158 459.972 251.912C459.219 252.196 458.388 251.746 458.193 250.962C458.017 250.276 458.398 249.56 459.073 249.335C462.163 248.306 470.544 245.905 475.345 248.316L475.355 248.336Z" fill="#263238"/>
<path d="M476.489 251.863C476.489 251.863 475.814 254.117 472.979 253.568C470.133 253.019 470.016 250.844 470.123 249.315C470.231 247.787 471.404 245.111 471.473 243.387C471.541 241.662 472.881 239.781 472.49 237.047C472.098 234.313 470.094 232.265 470.094 232.265L472.108 231.099C472.108 231.099 474.494 234.597 474.739 237.566C474.973 240.545 474.504 241.417 474.993 242.769C475.492 244.122 478.054 244.161 478.054 244.161C478.054 244.161 479.99 250.658 479.961 250.658C479.931 250.658 476.489 251.863 476.489 251.863Z" fill="#263238"/>
<path d="M663.766 119.045C566.553 145.689 444.942 255.067 444.942 255.067C444.942 255.067 442.048 255.939 439.573 254.489C439.573 254.489 556.784 145.13 663.306 118.124" fill="#455A64"/>
<g opacity="0.3">
<path d="M327.018 265.748L312.682 272.461C324.299 273.352 336.044 273.166 347.505 271.059C358.966 268.953 370.133 264.866 379.814 258.379C382.983 256.253 386.092 253.744 387.745 250.295C367.395 255.028 347.153 260.182 327.018 265.758V265.748Z" fill="black"/>
</g>
<path d="M370.456 166.394C370.456 166.394 391.422 178.418 392.4 180.956C393.867 184.768 391.05 186.051 391.05 186.051L370.456 166.394Z" fill="#455A64"/>
<path d="M395.099 212.401C397.348 200.682 392.644 187.188 392.644 187.188L368.07 164.17C362.682 163.356 352.678 162.798 342.645 171.372C333.511 179.172 332.044 186.953 332.044 186.953C308.77 207.159 312.359 231.461 312.359 231.461C307.978 243.974 307.509 251.667 312.056 265.68C310.687 267.767 311.411 269.443 312.604 271.843C328.133 271.363 342.928 269.962 355.563 265.915C361.547 264.68 375.384 258.497 380.646 255.381L387.735 249.707C387.735 249.707 390.307 247.042 390.571 246.189C393.964 235.243 390.571 229.305 390.571 229.305C390.571 229.305 392.84 224.121 395.089 212.401H395.099Z" fill="#67CAEA"/>
<path d="M387.745 233.049C387.745 233.049 387.481 233.019 386.992 232.911C386.454 232.784 385.75 232.617 384.86 232.412C383.941 232.186 382.807 231.912 381.477 231.647C380.157 231.373 378.66 231.02 376.979 230.746C375.306 230.432 373.478 230.099 371.502 229.834C369.527 229.511 367.405 229.286 365.175 229.021C360.706 228.57 355.778 228.237 350.595 228.178C345.412 228.149 340.474 228.394 335.995 228.766C333.765 228.992 331.634 229.178 329.658 229.472C327.673 229.707 325.835 230.011 324.162 230.285C322.48 230.53 320.974 230.863 319.654 231.108C318.324 231.353 317.19 231.598 316.261 231.814C315.371 232.01 314.657 232.157 314.119 232.274C313.63 232.372 313.366 232.421 313.366 232.402C313.366 232.382 313.611 232.304 314.1 232.176C314.628 232.039 315.342 231.853 316.222 231.628C317.141 231.383 318.275 231.108 319.596 230.844C320.916 230.569 322.422 230.217 324.104 229.942C325.776 229.638 327.614 229.315 329.609 229.06C331.594 228.756 333.716 228.551 335.966 228.306C340.454 227.904 345.402 227.649 350.605 227.679C355.807 227.737 360.755 228.08 365.234 228.561C367.473 228.845 369.595 229.08 371.571 229.423C373.556 229.717 375.385 230.07 377.057 230.403C378.729 230.707 380.225 231.079 381.545 231.383C382.865 231.677 383.99 231.971 384.909 232.235C385.789 232.48 386.493 232.676 387.021 232.823C387.501 232.96 387.755 233.049 387.745 233.058V233.049Z" fill="#263238"/>
<path d="M393.867 211.803C393.867 211.803 393.651 211.735 393.251 211.549C392.81 211.343 392.243 211.069 391.529 210.726C390.043 210.01 387.882 208.991 385.193 207.756C379.824 205.307 372.343 202.024 363.953 198.741C355.572 195.429 347.857 192.764 342.224 190.98C339.408 190.098 337.119 189.393 335.535 188.952C334.782 188.726 334.176 188.55 333.707 188.413C333.286 188.285 333.071 188.207 333.081 188.187C333.081 188.168 333.306 188.217 333.736 188.305C334.205 188.423 334.821 188.57 335.584 188.756C337.188 189.138 339.496 189.785 342.332 190.627C347.994 192.332 355.748 194.939 364.139 198.261C372.539 201.553 380.01 204.885 385.349 207.423C388.019 208.697 390.151 209.775 391.617 210.539C392.312 210.912 392.869 211.216 393.29 211.441C393.671 211.656 393.867 211.774 393.857 211.784L393.867 211.803Z" fill="#263238"/>
<path d="M388.792 247.032C388.792 247.032 388.567 247.198 388.107 247.483C387.608 247.786 386.943 248.188 386.102 248.688C385.222 249.197 384.166 249.854 382.905 250.559C381.624 251.245 380.176 252.029 378.582 252.892C372.138 256.243 362.877 260.368 352.042 262.946C346.635 264.249 341.383 265.033 336.592 265.435C331.8 265.846 327.458 266.003 323.83 265.993C322.011 266.013 320.368 265.983 318.921 265.954C317.474 265.934 316.232 265.895 315.215 265.846C314.237 265.797 313.455 265.768 312.878 265.738C312.34 265.709 312.066 265.68 312.066 265.67C312.066 265.65 312.35 265.64 312.887 265.64C313.464 265.64 314.247 265.64 315.225 265.65C316.242 265.67 317.483 265.67 318.921 265.67C320.368 265.67 322.001 265.67 323.82 265.64C327.448 265.601 331.77 265.415 336.543 264.974C341.315 264.543 346.546 263.749 351.925 262.456C362.701 259.898 371.952 255.841 378.416 252.578C380.02 251.745 381.477 250.991 382.768 250.324C384.039 249.648 385.115 249.021 386.005 248.531C386.865 248.061 387.55 247.688 388.058 247.404C388.528 247.149 388.782 247.022 388.792 247.042V247.032Z" fill="#263238"/>
<g opacity="0.3">
<path d="M346.723 183.905C346.928 187.943 345.432 194.812 346.097 198.8C348.688 214.4 357.998 228.08 368.647 239.751C371.737 243.141 375.101 246.503 379.394 248.119C382.699 249.364 386.308 249.472 389.838 249.452C400.34 249.413 410.833 248.443 421.17 246.561L346.732 183.915L346.723 183.905Z" fill="black"/>
</g>
<path d="M342.058 227.904C342.058 227.904 341.931 227.414 341.794 226.512C341.706 226.061 341.676 225.503 341.647 224.856C341.627 224.523 341.608 224.18 341.588 223.817C341.588 223.445 341.588 223.053 341.588 222.651C341.598 219.388 342.146 214.881 343.368 210.05C344.581 205.219 346.204 200.985 347.69 198.085C348.434 196.634 349.138 195.508 349.656 194.763C350.204 194.028 350.526 193.646 350.546 193.665C350.565 193.685 350.311 194.116 349.822 194.871C349.353 195.645 348.707 196.781 348.013 198.241C346.625 201.162 345.06 205.375 343.857 210.177C342.645 214.969 342.048 219.427 341.94 222.661C341.921 223.063 341.911 223.445 341.892 223.817C341.892 224.18 341.901 224.523 341.911 224.846C341.911 225.493 341.921 226.042 341.98 226.493C342.048 227.394 342.077 227.904 342.038 227.904H342.058Z" fill="#263238"/>
<path d="M340.796 264.759C340.796 264.759 340.532 264.288 340.141 263.387C339.936 262.936 339.711 262.387 339.476 261.731C339.232 261.074 338.948 260.339 338.704 259.496C337.638 256.165 336.513 251.392 336.386 246.013C336.347 243.328 336.523 240.76 336.973 238.477C337.462 236.204 338.068 234.175 338.88 232.598C339.075 232.206 339.232 231.814 339.427 231.471C339.633 231.137 339.828 230.824 340.024 230.52C340.21 230.226 340.376 229.952 340.542 229.697C340.718 229.452 340.904 229.246 341.06 229.06C341.686 228.306 342.048 227.894 342.068 227.923C342.185 228.002 340.63 229.579 339.202 232.754C338.45 234.322 337.892 236.321 337.433 238.565C337.022 240.829 336.856 243.357 336.895 246.003C337.032 251.314 338.088 256.057 339.056 259.398C339.281 260.241 339.535 260.986 339.75 261.642C339.955 262.309 340.151 262.867 340.327 263.328C340.66 264.249 340.836 264.759 340.796 264.778V264.759Z" fill="#263238"/>
<path d="M377.565 187.139C377.448 187.139 377.702 185.179 376.978 182.171C376.284 179.202 374.348 175.135 370.603 172.254C366.838 169.393 362.418 168.589 359.367 168.717C356.276 168.815 354.458 169.579 354.428 169.462C354.428 169.442 354.536 169.393 354.741 169.305C354.956 169.226 355.269 169.089 355.69 168.972C356.521 168.707 357.773 168.442 359.347 168.344C362.447 168.129 367.024 168.883 370.906 171.843C374.778 174.812 376.714 179.035 377.33 182.083C377.653 183.621 377.731 184.905 377.702 185.777C377.702 186.218 377.653 186.551 377.634 186.787C377.604 187.012 377.585 187.139 377.565 187.13V187.139Z" fill="#263238"/>
<path d="M438.547 237.84C438.547 237.84 448.257 238.634 449.216 239.428C450.184 240.212 450.497 241.515 452.374 242.564C454.252 243.612 458.691 247.238 460.012 250.56C461.322 253.882 462.075 256.028 461.694 257.478C461.312 258.928 459.924 260.937 457.635 259.32C457.635 259.32 455.68 260.78 454.301 260.3C452.922 259.82 452.384 259.065 452.384 259.065C452.384 259.065 452.501 260.79 450.79 260.81C449.617 260.819 448.326 260.104 448.326 260.104C448.326 260.104 446.546 261.75 444.404 261.554C442.263 261.358 436.767 251.814 436.767 251.814L438.547 237.86V237.84Z" fill="#FFBF9D"/>
<path d="M455.21 252.696C455.318 252.617 456.335 253.94 457.029 255.861C457.733 257.772 457.821 259.447 457.684 259.457C457.537 259.477 457.234 257.889 456.55 256.037C455.875 254.185 455.083 252.774 455.21 252.696Z" fill="#FF9A6C"/>
<path d="M450.643 255.057C450.741 254.999 451.553 255.89 452.12 257.311C452.599 258.771 452.55 259.977 452.443 259.986C452.277 260.016 452.091 258.82 451.641 257.488C451.123 256.184 450.487 255.146 450.634 255.057H450.643Z" fill="#FF9A6C"/>
<path d="M446.409 257.459C446.526 257.38 447.045 257.939 447.504 258.742C447.964 259.546 448.189 260.271 448.062 260.33C447.935 260.388 447.514 259.781 447.064 258.997C446.614 258.213 446.301 257.547 446.419 257.459H446.409Z" fill="#FF9A6C"/>
<path d="M357.049 171.049C343.652 173.969 346.292 185.718 350.566 198.869C355.162 212.999 379.414 244.141 386.924 247.296C394.444 250.452 437.794 252 437.794 252L440.102 238.114L397.397 226.551C397.397 226.551 383.149 199.839 379.531 192.695C375.013 183.778 371.972 167.815 357.059 171.059L357.049 171.049Z" fill="#FFBF9D"/>
<path d="M355.475 213.107C352.052 207.668 349.373 202.612 348.131 198.79C343.72 185.218 343.564 173.361 357.401 170.353C372.793 167.002 375.932 183.474 380.597 192.685L384.283 199.79L355.475 213.107Z" fill="#455A64"/>
<path d="M210.335 272.04H163.69C156.334 272.04 150.371 278.015 150.371 285.386V322.731C150.371 330.102 156.334 336.077 163.69 336.077H210.335C217.691 336.077 223.654 330.102 223.654 322.731V285.386C223.654 278.015 217.691 272.04 210.335 272.04Z" fill="#455A64"/>
<path d="M223.654 284.348C223.654 284.485 207.314 284.602 187.169 284.602C167.024 284.602 150.674 284.485 150.674 284.348C150.674 284.21 167.005 284.093 187.169 284.093C207.333 284.093 223.654 284.21 223.654 284.348Z" fill="#263238"/>
<path d="M71.3472 277.204C71.3472 277.204 131.185 361.163 181.644 364.044C232.103 366.925 520.846 367.013 520.846 367.013L546.076 294.47C546.076 294.47 197.368 297.37 84.5292 279.791L82.2311 277.204H71.3472Z" fill="#AE7461"/>
<path d="M514.422 359.213C514.422 359.213 514.021 359.233 513.238 359.242C512.446 359.242 511.283 359.252 509.757 359.272C506.686 359.282 502.178 359.301 496.37 359.321C484.733 359.34 467.913 359.37 447.133 359.399C405.553 359.419 348.121 359.448 284.695 359.478C253.959 359.478 224.632 359.468 197.946 359.458H197.926C187.423 358.654 177.508 356.234 168.403 353C159.309 349.737 150.977 345.622 143.839 340.644C140.299 338.115 137.003 335.499 133.874 332.883C130.735 330.286 127.782 327.689 124.946 325.18C119.313 320.124 114.287 315.273 109.847 310.766C100.958 301.77 94.543 294.029 90.4554 288.522C89.4579 287.13 88.568 285.895 87.7955 284.837C87.0425 283.759 86.4753 282.819 85.9766 282.074C85.4974 281.329 85.1356 280.761 84.8814 280.369C84.6369 279.987 84.5195 279.781 84.5195 279.781C84.5195 279.781 84.6564 279.967 84.9107 280.339C85.1649 280.721 85.5463 281.28 86.0353 282.015C86.534 282.75 87.1207 283.691 87.8835 284.759C88.656 285.817 89.5557 287.042 90.5629 288.424C94.6896 293.892 101.124 301.594 110.043 310.55C114.492 315.038 119.518 319.869 125.161 324.906C127.997 327.415 130.95 329.992 134.089 332.579C137.218 335.176 140.514 337.792 144.044 340.301C151.153 345.239 159.465 349.326 168.53 352.569C177.605 355.774 187.502 358.174 197.946 358.968H197.926C224.613 358.968 253.93 358.958 284.675 358.948C348.101 358.978 405.533 359.007 447.113 359.027C467.893 359.056 484.713 359.086 496.35 359.105C502.159 359.125 506.667 359.144 509.738 359.154C511.263 359.164 512.427 359.174 513.219 359.184C514.001 359.184 514.402 359.213 514.402 359.213H514.422Z" fill="#6F4439"/>
<path d="M514.421 367.013C514.284 366.964 519.946 350.697 527.056 330.678C534.165 310.658 540.042 294.47 540.169 294.509C540.306 294.558 534.644 310.825 527.535 330.844C520.426 350.864 514.549 367.052 514.421 367.003V367.013Z" fill="#6F4439"/>
<path d="M521.208 337.371C521.208 337.508 436.19 337.625 331.33 337.625C226.471 337.625 141.433 337.508 141.433 337.371C141.433 337.233 226.431 337.116 331.33 337.116C436.229 337.116 521.208 337.233 521.208 337.371Z" fill="#6F4439"/>
<path d="M531.496 309.168C531.496 309.306 437.794 309.423 322.226 309.423C206.658 309.423 112.937 309.306 112.937 309.168C112.937 309.031 206.619 308.914 322.226 308.914C437.833 308.914 531.496 309.031 531.496 309.168Z" fill="#6F4439"/>
<path d="M24.0659 368.591C24.0756 368.679 22.5403 368.846 20.1445 369.404C19.5578 369.561 18.883 369.727 18.2865 370.051C18.1594 370.139 18.0029 370.237 17.9638 370.325C17.9247 370.394 17.9442 370.443 18.0714 370.56C18.3158 370.756 18.6972 370.903 19.0688 371.021C20.6041 371.481 22.4034 371.717 24.2712 371.942C28.0263 372.354 31.449 372.51 33.923 372.618C35.077 372.667 36.0548 372.706 36.8567 372.746C37.551 372.775 37.9324 372.814 37.9324 372.844C37.9324 372.873 37.551 372.912 36.8567 372.942C36.1624 372.961 35.1552 372.981 33.9133 372.981C31.4294 372.961 27.9872 372.863 24.2125 372.452C22.3252 372.226 20.5259 371.981 18.9221 371.472C18.5212 371.325 18.13 371.197 17.7682 370.903C17.6802 370.825 17.5922 370.727 17.5335 370.59C17.4748 370.443 17.4944 370.266 17.5629 370.139C17.6998 369.884 17.8953 369.796 18.0616 369.688C18.7657 369.335 19.4306 369.198 20.0467 369.061C21.2789 368.806 22.2763 368.708 22.9706 368.64C23.6649 368.581 24.0463 368.571 24.0561 368.601L24.0659 368.591Z" fill="#263238"/>
<path d="M49.6184 372.393C49.6184 372.393 50.0292 372.285 50.7724 372.187C51.5156 372.079 52.5912 371.942 53.9114 371.717C54.5666 371.599 55.2902 371.462 56.0432 371.266C56.4246 371.178 56.806 371.051 57.1776 370.904C57.3634 370.825 57.5394 370.737 57.7056 370.639C57.8621 370.531 57.9501 370.404 57.9306 370.355C57.9306 370.286 57.7545 370.139 57.5785 370.051C57.4025 369.953 57.1971 369.875 56.982 369.796C56.5615 369.649 56.1019 369.532 55.6423 369.434C54.7133 369.238 53.7256 369.081 52.7184 368.944C48.6699 368.434 44.9637 368.268 42.2842 368.14C41.0325 368.091 39.9666 368.042 39.1061 368.003C38.3531 367.964 37.9424 367.934 37.9424 367.895C37.9424 367.856 38.3531 367.827 39.1061 367.797C39.8591 367.768 40.9445 367.758 42.2842 367.768C44.9734 367.807 48.6894 367.905 52.7673 368.424C53.7843 368.562 54.7817 368.718 55.7303 368.934C56.2095 369.042 56.6691 369.169 57.1287 369.326C57.3536 369.404 57.5785 369.493 57.7936 369.62C57.999 369.757 58.263 369.875 58.3706 370.247C58.4293 370.668 58.1164 370.874 57.9403 371.011C57.735 371.139 57.5296 371.227 57.3243 371.305C56.9135 371.452 56.5126 371.57 56.1214 371.658C55.3391 371.834 54.6155 371.952 53.9407 372.05C52.601 372.236 51.5156 372.324 50.7724 372.364C50.0194 372.403 49.6087 372.413 49.5989 372.373L49.6184 372.393Z" fill="#263238"/>
<path d="M46.7923 370.071C46.7923 370.071 46.7531 369.943 46.5282 369.865C46.3131 369.777 45.9708 369.688 45.521 369.62C44.6311 369.473 43.3109 369.345 41.6779 369.277C40.0448 369.208 38.1085 369.189 35.9474 369.257C34.8717 369.296 33.7374 369.355 32.5737 369.463C31.9967 369.522 31.4002 369.59 30.8135 369.688C30.5201 369.737 30.2267 369.796 29.9431 369.875C29.7964 369.914 29.6595 369.953 29.5422 370.012C29.4248 370.031 29.2977 370.208 29.3564 370.071C29.2977 369.933 29.4151 370.11 29.5422 370.129C29.6693 370.178 29.8062 370.227 29.9431 370.267C30.2267 370.345 30.5201 370.404 30.8135 370.453C31.4002 370.551 31.9967 370.619 32.5737 370.678C33.7374 370.786 34.8717 370.855 35.9474 370.884C38.0988 370.953 40.0448 370.933 41.6779 370.864C43.3109 370.796 44.6213 370.678 45.521 370.521C45.9708 370.443 46.3131 370.365 46.5282 370.276C46.7531 370.188 46.7825 370.071 46.7923 370.071C46.8216 370.061 46.802 370.247 46.5673 370.365C46.3522 370.492 46.0099 370.61 45.5601 370.717C44.6604 370.933 43.3403 371.109 41.6974 371.227C40.0643 371.345 38.1086 371.403 35.9376 371.354C34.8522 371.325 33.7178 371.276 32.5346 371.168C31.9478 371.109 31.3415 371.051 30.7352 370.943C30.4321 370.894 30.1191 370.835 29.816 370.747C29.6595 370.708 29.5031 370.659 29.3466 370.59C29.2684 370.551 29.1804 370.521 29.0924 370.453C29.0141 370.384 28.8772 370.316 28.8577 370.061C28.8772 369.806 29.0239 369.737 29.0924 369.669C29.1804 369.6 29.2586 369.571 29.3466 369.532C29.5129 369.463 29.6693 369.414 29.816 369.375C30.1289 369.287 30.4321 369.228 30.7352 369.179C31.3415 369.081 31.9478 369.012 32.5346 368.954C33.7178 368.846 34.8522 368.797 35.9376 368.767C38.1086 368.718 40.0643 368.777 41.6974 368.895C43.3305 369.012 44.6604 369.189 45.5601 369.404C46.0099 369.512 46.3522 369.63 46.5673 369.757C46.802 369.875 46.8216 370.071 46.7923 370.051V370.071Z" fill="#263238"/>
<path d="M8.73256 367.788C8.73256 367.788 8.49787 367.856 8.02848 367.944C7.51997 368.042 6.84522 368.18 6.01401 368.346C5.14369 368.532 4.068 368.768 2.87497 369.14C2.27846 369.336 1.63305 369.551 1.03653 369.914C0.75294 370.09 0.430235 370.316 0.361782 370.6C0.293329 370.865 0.537803 371.149 0.84095 371.354C2.14155 372.168 3.91154 372.511 5.72065 372.903C7.55909 373.256 9.54421 373.54 11.6369 373.785C15.8321 374.265 20.4575 374.598 25.3274 374.804C35.0673 375.215 43.8977 375.108 50.2833 374.892C53.4712 374.784 56.0529 374.637 57.8424 374.529C58.6932 374.48 59.3777 374.441 59.896 374.412C60.3654 374.382 60.6099 374.382 60.6197 374.402C60.6197 374.422 60.3752 374.461 59.9058 374.52C59.4364 374.578 58.7519 374.647 57.862 374.735C56.0822 374.902 53.5006 375.098 50.3029 375.255C43.9172 375.568 35.0673 375.735 25.3079 375.313C20.4282 375.108 15.793 374.765 11.588 374.255C9.48554 374 7.49064 373.697 5.64241 373.324C4.72319 373.128 3.83331 372.922 2.98254 372.668C2.14155 372.413 1.3299 372.138 0.635593 371.658C0.459571 371.541 0.293329 371.394 0.166203 371.208C0.0390767 371.031 -0.0489338 370.757 0.0292978 370.522C0.175982 370.051 0.557361 369.845 0.870287 369.649C1.52548 369.277 2.18067 369.071 2.78696 368.885C4.01911 368.523 5.09479 368.327 5.9749 368.16C6.855 368.013 7.54931 367.915 8.0187 367.856C8.48809 367.797 8.73256 367.778 8.73256 367.797V367.788Z" fill="#263238"/>
<path d="M73.1073 372.403C73.1073 372.403 73.2931 372.315 73.6647 372.168C74.0266 372.011 74.584 371.815 75.1805 371.384C75.4543 371.178 75.7672 370.815 75.5325 370.463C75.3174 370.12 74.8675 369.875 74.3982 369.659C73.43 369.248 72.2566 368.934 70.9462 368.66C65.6851 367.582 58.2531 366.954 50.0583 366.612C41.8538 366.278 34.412 366.308 29.0238 366.425C26.3835 366.504 24.2224 366.563 22.648 366.612C21.9439 366.631 21.3669 366.651 20.9171 366.661C20.5161 366.661 20.3108 366.661 20.3108 366.651C20.3108 366.631 20.5161 366.602 20.9073 366.563C21.3571 366.523 21.9341 366.474 22.6382 366.416C24.1441 366.308 26.3151 366.171 29.0141 366.073C34.4023 365.867 41.8538 365.779 50.0779 366.112C58.2922 366.455 65.734 367.141 71.0244 368.317C72.3446 368.62 73.5278 368.954 74.5155 369.414C74.9947 369.659 75.4738 369.904 75.7379 370.365C75.8748 370.59 75.8748 370.904 75.7379 371.1C75.6205 371.305 75.4543 371.443 75.2978 371.56C74.6524 371.991 74.0754 372.158 73.7038 372.285C73.3225 372.403 73.1171 372.442 73.1171 372.422L73.1073 372.403Z" fill="#263238"/>
<path d="M639.22 369.296C639.23 369.385 637.695 369.551 635.299 370.11C634.712 370.266 634.038 370.433 633.441 370.756C633.314 370.845 633.157 370.943 633.118 371.041C633.079 371.109 633.099 371.158 633.226 371.276C633.47 371.472 633.852 371.619 634.223 371.736C635.759 372.197 637.558 372.432 639.426 372.658C643.181 373.069 646.604 373.226 649.078 373.334C650.231 373.383 651.209 373.422 652.011 373.461C652.706 373.49 653.087 373.53 653.087 373.569C653.087 373.608 652.706 373.637 652.011 373.667C651.317 373.686 650.31 373.706 649.068 373.706C646.584 373.686 643.142 373.588 639.367 373.177C637.48 372.951 635.68 372.706 634.077 372.197C633.676 372.05 633.285 371.923 632.923 371.629C632.835 371.55 632.747 371.452 632.688 371.315C632.629 371.168 632.649 370.992 632.717 370.864C632.854 370.609 633.05 370.521 633.216 370.413C633.92 370.061 634.585 369.924 635.201 369.786C636.433 369.532 637.431 369.434 638.125 369.365C638.819 369.306 639.201 369.296 639.211 369.326L639.22 369.296Z" fill="#263238"/>
<path d="M664.773 373.108C664.773 373.108 665.183 373.001 665.927 372.903C666.67 372.795 667.746 372.658 669.066 372.432C669.721 372.315 670.445 372.177 671.198 371.981C671.579 371.893 671.96 371.766 672.332 371.619C672.518 371.54 672.694 371.452 672.86 371.354C673.016 371.246 673.104 371.119 673.085 371.07C673.085 371.001 672.909 370.854 672.733 370.766C672.557 370.668 672.351 370.59 672.136 370.512C671.716 370.365 671.256 370.247 670.797 370.149C669.868 369.953 668.88 369.796 667.873 369.659C663.824 369.149 660.118 368.983 657.439 368.855C656.187 368.806 655.121 368.757 654.26 368.718C653.507 368.679 653.097 368.65 653.097 368.61C653.097 368.571 653.507 368.542 654.26 368.512C655.013 368.493 656.099 368.473 657.439 368.483C660.128 368.522 663.844 368.62 667.922 369.14C668.939 369.277 669.936 369.434 670.885 369.649C671.364 369.757 671.823 369.884 672.283 370.041C672.508 370.12 672.733 370.208 672.948 370.335C673.153 370.472 673.417 370.59 673.525 370.962C673.584 371.384 673.271 371.589 673.095 371.727C672.889 371.854 672.684 371.942 672.479 372.021C672.068 372.168 671.667 372.285 671.276 372.373C670.493 372.55 669.77 372.667 669.095 372.765C667.755 372.952 666.67 373.04 665.927 373.079C665.174 373.118 664.763 373.128 664.753 373.089L664.773 373.108Z" fill="#263238"/>
<path d="M661.947 370.786C661.947 370.786 661.908 370.659 661.673 370.58C661.458 370.492 661.116 370.404 660.666 370.335C659.776 370.188 658.456 370.061 656.823 369.992C655.19 369.924 653.253 369.904 651.092 369.973C650.016 370.012 648.882 370.071 647.718 370.178C647.141 370.237 646.545 370.306 645.958 370.404C645.665 370.453 645.371 370.512 645.088 370.59C644.941 370.629 644.804 370.668 644.687 370.727C644.57 370.747 644.443 370.923 644.501 370.786C644.443 370.649 644.56 370.825 644.687 370.845C644.814 370.894 644.951 370.943 645.088 370.982C645.371 371.06 645.665 371.119 645.958 371.168C646.545 371.266 647.141 371.335 647.718 371.394C648.882 371.501 650.016 371.57 651.092 371.599C653.244 371.668 655.19 371.648 656.823 371.58C658.456 371.511 659.766 371.394 660.666 371.237C661.116 371.158 661.458 371.08 661.673 370.992C661.898 370.904 661.927 370.786 661.937 370.786C661.966 370.776 661.947 370.962 661.712 371.08C661.497 371.207 661.155 371.325 660.705 371.433C659.805 371.648 658.485 371.825 656.842 371.942C655.209 372.06 653.253 372.119 651.082 372.07C649.997 372.04 648.863 371.991 647.679 371.883C647.093 371.825 646.486 371.766 645.88 371.658C645.577 371.609 645.264 371.55 644.961 371.462C644.804 371.423 644.648 371.374 644.491 371.305C644.413 371.266 644.325 371.237 644.237 371.168C644.159 371.1 644.022 371.031 644.002 370.776C644.022 370.521 644.169 370.453 644.237 370.384C644.325 370.316 644.403 370.286 644.491 370.247C644.658 370.178 644.814 370.129 644.961 370.09C645.274 370.002 645.577 369.943 645.88 369.894C646.486 369.796 647.093 369.728 647.679 369.669C648.863 369.561 649.997 369.512 651.082 369.483C653.253 369.434 655.209 369.492 656.842 369.61C658.475 369.728 659.805 369.904 660.705 370.12C661.155 370.227 661.497 370.345 661.712 370.472C661.947 370.59 661.966 370.786 661.937 370.766L661.947 370.786Z" fill="#263238"/>
<path d="M623.887 368.503C623.887 368.503 623.652 368.572 623.183 368.66C622.675 368.758 622 368.895 621.169 369.061C620.298 369.248 619.223 369.483 618.029 369.855C617.433 370.051 616.788 370.267 616.191 370.629C615.907 370.806 615.585 371.031 615.516 371.315C615.448 371.58 615.683 371.864 615.995 372.07C617.296 372.883 619.066 373.226 620.875 373.618C622.714 373.971 624.699 374.255 626.791 374.5C630.987 374.98 635.612 375.313 640.482 375.519C650.222 375.931 659.052 375.823 665.438 375.607C668.626 375.5 671.207 375.353 672.997 375.245C673.848 375.196 674.532 375.157 675.051 375.127C675.52 375.098 675.764 375.098 675.774 375.117C675.774 375.137 675.53 375.176 675.06 375.235C674.591 375.294 673.906 375.362 673.017 375.451C671.237 375.617 668.655 375.813 665.457 375.97C659.072 376.284 650.222 376.45 640.462 376.029C635.583 375.823 630.947 375.48 626.743 374.97C624.64 374.716 622.645 374.412 620.797 374.039C619.868 373.844 618.988 373.638 618.137 373.383C617.296 373.128 616.484 372.854 615.79 372.374C615.614 372.256 615.448 372.109 615.321 371.923C615.194 371.746 615.106 371.472 615.184 371.237C615.331 370.767 615.712 370.561 616.025 370.365C616.68 369.992 617.335 369.787 617.941 369.6C619.174 369.238 620.249 369.042 621.129 368.875C622.01 368.728 622.704 368.63 623.163 368.572C623.633 368.513 623.877 368.493 623.877 368.513L623.887 368.503Z" fill="#263238"/>
<path d="M688.262 373.108C688.262 373.108 688.448 373.02 688.819 372.873C689.181 372.716 689.738 372.52 690.335 372.089C690.609 371.883 690.922 371.521 690.687 371.168C690.472 370.825 690.022 370.58 689.553 370.365C688.585 369.953 687.411 369.639 686.101 369.365C680.84 368.287 673.408 367.66 665.213 367.317C657.008 366.984 649.567 367.013 644.178 367.131C641.538 367.209 639.377 367.268 637.802 367.317C637.098 367.337 636.521 367.356 636.072 367.366C635.671 367.366 635.465 367.366 635.465 367.356C635.465 367.337 635.671 367.307 636.062 367.268C636.512 367.229 637.089 367.18 637.793 367.121C639.299 367.013 641.47 366.876 644.169 366.778C649.557 366.572 657.008 366.484 665.232 366.817C673.447 367.16 680.889 367.846 686.179 369.022C687.499 369.326 688.682 369.659 689.67 370.12C690.149 370.365 690.628 370.61 690.892 371.07C691.029 371.296 691.029 371.609 690.892 371.805C690.775 372.011 690.609 372.148 690.452 372.266C689.807 372.697 689.23 372.863 688.858 372.991C688.477 373.108 688.272 373.148 688.272 373.128L688.262 373.108Z" fill="#263238"/>
<path d="M561.537 366.837C561.537 366.974 480.987 367.092 381.643 367.092C282.299 367.092 201.73 366.974 201.73 366.837C201.73 366.7 282.26 366.582 381.643 366.582C481.026 366.582 561.537 366.7 561.537 366.837Z" fill="#263238"/>
<path d="M148.073 427.092C148.073 427.092 145.247 421.242 141.775 411.335C141.355 410.09 140.905 408.797 140.445 407.435C139.986 406.082 139.595 404.642 139.135 403.172C138.196 400.232 137.404 397.028 136.524 393.677C134.891 386.935 133.395 379.448 132.309 371.511C131.273 363.564 130.764 355.95 130.569 349.012C130.539 345.543 130.471 342.241 130.608 339.164C130.657 337.625 130.666 336.136 130.754 334.705C130.842 333.274 130.93 331.903 131.018 330.599C131.771 320.134 132.964 313.745 132.964 313.745C132.964 313.745 132.964 313.852 132.955 314.048C132.935 314.274 132.906 314.558 132.867 314.921C132.769 315.724 132.642 316.841 132.476 318.272C132.388 319.007 132.29 319.81 132.182 320.692C132.104 321.584 132.016 322.544 131.918 323.583C131.752 325.66 131.478 328.012 131.38 330.629C131.312 331.932 131.234 333.304 131.155 334.734C131.077 336.165 131.087 337.645 131.038 339.193C130.921 342.27 131.009 345.563 131.048 349.022C131.263 355.94 131.791 363.544 132.818 371.472C133.903 379.389 135.38 386.856 136.984 393.588C137.854 396.94 138.626 400.134 139.546 403.074C139.986 404.544 140.377 405.984 140.827 407.337C141.277 408.689 141.707 409.992 142.118 411.237C142.9 413.736 143.78 415.94 144.484 417.89C144.846 418.861 145.178 419.772 145.491 420.605C145.824 421.428 146.137 422.183 146.411 422.859C146.948 424.191 147.369 425.24 147.662 425.994C147.789 426.337 147.897 426.602 147.975 426.818C148.044 427.004 148.073 427.102 148.063 427.102L148.073 427.092Z" fill="#263238"/>
<path d="M157.598 286.522C157.598 286.522 157.568 286.64 157.49 286.865C157.402 287.11 157.275 287.434 157.128 287.845C156.806 288.698 156.297 289.952 155.73 291.598C154.547 294.871 152.953 299.644 151.466 305.68C149.96 311.706 148.581 318.997 147.721 327.17C146.831 335.342 146.508 344.387 146.831 353.863C147.486 372.844 150.459 389.835 152.874 402.026C153.481 405.073 154.058 407.836 154.459 410.276C154.86 412.716 155.094 414.843 155.172 416.587C155.339 420.076 155.006 421.996 155.006 421.996C155.006 421.996 155.006 421.879 155.006 421.644C155.016 421.379 155.036 421.036 155.055 420.605C155.084 419.694 155.094 418.341 154.977 416.607C154.869 414.872 154.605 412.765 154.175 410.335C153.755 407.905 153.148 405.161 152.513 402.104C149.999 389.924 146.968 372.912 146.313 353.882C145.99 344.387 146.332 335.303 147.242 327.121C148.132 318.928 149.55 311.628 151.104 305.592C152.64 299.555 154.292 294.783 155.534 291.53C156.131 289.893 156.669 288.659 157.03 287.806C157.206 287.404 157.343 287.091 157.441 286.846C157.539 286.63 157.588 286.522 157.598 286.522Z" fill="#263238"/>
<path d="M134.852 320.173C135.008 327.807 134.558 335.411 133.297 342.819C132.955 344.828 132.231 347.18 130.383 347.483C129.102 347.689 127.782 346.719 127.087 345.455C126.393 344.201 126.197 342.721 126.09 341.29C125.66 335.538 126.354 329.835 127.038 324.191C127.283 322.202 127.557 320.134 128.652 318.576C129.747 317.028 131.947 316.244 133.502 317.439C133.502 317.439 134.803 318.203 134.842 320.163L134.852 320.173Z" fill="#546954"/>
<path d="M158.36 293.744C157.158 301.28 155.339 308.678 152.777 315.744C152.082 317.654 150.938 319.849 149.07 319.81C147.78 319.791 146.655 318.585 146.195 317.223C145.736 315.861 145.814 314.372 145.961 312.941C146.567 307.199 148.268 301.721 149.96 296.292C150.557 294.381 151.202 292.392 152.552 291.059C153.911 289.727 156.209 289.354 157.529 290.814C157.529 290.814 158.673 291.804 158.36 293.735V293.744Z" fill="#546954"/>
<path d="M174.398 426.435C175.571 417.636 175.757 402.251 172.09 395.421C164.541 401.408 159.925 415.646 155.632 425.857C157.793 404.926 159.954 383.985 162.116 363.054C149.051 378.537 145.364 399.634 142.166 419.644C142.431 404.622 140.68 389.571 136.964 375.009C130.236 385.239 127.214 397.861 128.584 410.041C123.41 384.896 118.237 359.752 113.055 334.607C105.3 348.443 104.498 365.337 107.598 380.908C110.698 396.479 117.416 411.041 124.066 425.445C117.387 418.968 110.698 412.501 104.019 406.023C107.999 421.722 115.578 427.072 115.578 427.072L183.306 427.219C192.45 407.552 197.877 391.246 201.016 369.776C184.412 383.417 178.994 405.396 174.398 426.416V426.435Z" fill="#9FC990"/>
<path d="M129.904 427.239C129.904 427.239 129.855 427.17 129.786 427.023C129.708 426.847 129.601 426.641 129.483 426.377C129.209 425.769 128.828 424.926 128.349 423.868C127.85 422.78 127.263 421.438 126.638 419.85C126.002 418.273 125.239 416.489 124.525 414.471C123.772 412.462 122.97 410.257 122.198 407.866C121.367 405.485 120.623 402.898 119.812 400.183C118.277 394.725 116.81 388.669 115.607 382.241C114.443 375.803 113.661 369.62 113.152 363.975C112.947 361.153 112.712 358.468 112.644 355.95C112.507 353.431 112.478 351.089 112.468 348.943C112.419 346.797 112.497 344.867 112.527 343.162C112.546 341.457 112.624 339.997 112.703 338.801C112.771 337.635 112.83 336.724 112.879 336.048C112.898 335.764 112.918 335.528 112.937 335.332C112.957 335.176 112.967 335.087 112.976 335.087C112.976 335.087 112.986 335.176 112.996 335.332C112.996 335.528 112.996 335.764 112.996 336.048C112.976 336.714 112.947 337.635 112.918 338.801C112.869 339.997 112.82 341.457 112.83 343.162C112.83 344.857 112.771 346.797 112.849 348.934C112.888 351.07 112.937 353.412 113.084 355.92C113.172 358.429 113.416 361.114 113.641 363.926C114.179 369.551 114.971 375.725 116.135 382.143C117.338 388.552 118.795 394.598 120.291 400.046C121.083 402.761 121.817 405.348 122.618 407.729C123.371 410.13 124.154 412.334 124.877 414.343C125.572 416.372 126.305 418.155 126.911 419.743C127.508 421.33 128.075 422.682 128.544 423.78C128.984 424.858 129.337 425.71 129.591 426.328C129.698 426.602 129.786 426.818 129.855 426.994C129.913 427.141 129.933 427.229 129.923 427.229L129.904 427.239Z" fill="#263238"/>
<path d="M137.698 426.436C137.698 426.436 137.629 426.269 137.531 425.946C137.433 425.563 137.306 425.093 137.16 424.525C136.837 423.29 136.446 421.487 136.035 419.253C135.615 417.009 135.233 414.324 134.93 411.325C134.656 408.327 134.47 405.015 134.461 401.536C134.48 398.057 134.676 394.745 134.969 391.746C135.282 388.748 135.673 386.063 136.104 383.819C136.524 381.585 136.925 379.782 137.257 378.547C137.414 377.979 137.541 377.508 137.639 377.136C137.737 376.812 137.786 376.646 137.805 376.656C137.825 376.656 137.805 376.832 137.737 377.165C137.658 377.547 137.561 378.028 137.443 378.596C137.169 379.84 136.827 381.643 136.446 383.878C136.064 386.112 135.712 388.797 135.419 391.786C135.155 394.774 134.969 398.067 134.959 401.536C134.959 404.995 135.135 408.297 135.38 411.286C135.654 414.275 135.996 416.96 136.368 419.194C136.729 421.438 137.072 423.241 137.336 424.486C137.453 425.064 137.541 425.534 137.619 425.926C137.678 426.259 137.698 426.436 137.688 426.436H137.698Z" fill="#263238"/>
<path d="M161.959 363.73C161.959 363.73 161.91 363.956 161.754 364.367C161.587 364.828 161.363 365.416 161.089 366.161C160.492 367.709 159.661 369.953 158.664 372.746C156.678 378.331 154.155 386.131 152.209 394.961C150.273 403.799 149.325 411.943 148.894 417.851C148.679 420.811 148.552 423.202 148.493 424.858C148.454 425.642 148.425 426.279 148.405 426.769C148.376 427.21 148.357 427.435 148.337 427.435C148.317 427.435 148.308 427.21 148.298 426.769C148.298 426.279 148.298 425.642 148.298 424.858C148.298 423.202 148.376 420.791 148.542 417.832C148.885 411.903 149.774 403.721 151.72 394.853C153.676 385.994 156.258 378.184 158.331 372.628C159.377 369.845 160.258 367.621 160.913 366.092C161.226 365.367 161.48 364.789 161.666 364.338C161.842 363.936 161.949 363.73 161.959 363.74V363.73Z" fill="#263238"/>
<path d="M170.76 398.096C170.76 398.096 170.74 398.518 170.604 399.262C170.476 400.007 170.261 401.085 169.978 402.418C169.42 405.073 168.57 408.719 167.572 412.736C166.584 416.695 165.695 420.272 165.02 423.006C164.707 424.24 164.453 425.279 164.237 426.122C164.042 426.857 163.925 427.259 163.885 427.249C163.846 427.249 163.905 426.827 164.042 426.083C164.169 425.338 164.384 424.26 164.668 422.937C165.225 420.282 166.076 416.636 167.083 412.619C168.071 408.66 168.961 405.083 169.635 402.349C169.948 401.114 170.203 400.076 170.418 399.233C170.613 398.498 170.731 398.096 170.77 398.106L170.76 398.096Z" fill="#263238"/>
<path d="M200.293 374.039C200.42 374.088 196.019 386.073 190.455 400.811C184.891 415.549 180.265 427.455 180.138 427.406C180.011 427.357 184.412 415.372 189.976 400.634C195.54 385.896 200.165 373.99 200.293 374.039Z" fill="#263238"/>
<path d="M119.626 427.092C119.626 427.092 119.362 426.886 118.941 426.445C118.531 426.004 117.944 425.357 117.23 424.554C115.812 422.937 113.886 420.664 111.891 418.047C109.896 415.431 108.243 412.942 107.148 411.07C106.6 410.139 106.18 409.375 105.916 408.826C105.652 408.287 105.515 407.983 105.544 407.964C105.613 407.925 106.287 409.071 107.451 410.874C108.615 412.677 110.307 415.117 112.292 417.724C114.277 420.33 116.154 422.633 117.504 424.309C118.853 425.985 119.675 427.043 119.616 427.082L119.626 427.092Z" fill="#263238"/>
<path d="M201.016 427.092C201.016 427.229 177.82 427.346 149.227 427.346C120.633 427.346 97.4277 427.229 97.4277 427.092C97.4277 426.954 120.614 426.837 149.227 426.837C177.84 426.837 201.016 426.954 201.016 427.092Z" fill="#263238"/>
</g>
<defs>
<clipPath id="clip0_631_9057">
<rect width="691" height="427" fill="white" transform="translate(0 0.435059)"/>
</clipPath>
</defs>
</svg>
