<svg width="64" height="87" viewBox="0 0 64 87" fill="none" xmlns="http://www.w3.org/2000/svg">
<path d="M61.8776 27.291L57.7929 22.3353C57.2334 21.6585 56.8901 20.8294 56.8074 19.9552L56.1914 13.5624C55.8714 10.2412 53.2283 7.59803 49.9069 7.27807L43.5143 6.66278C42.6402 6.57949 41.8111 6.23622 41.134 5.67724L36.1784 1.59148C33.6038 -0.530494 29.8662 -0.530494 27.2915 1.59148L22.3356 5.67707C21.6587 6.23624 20.8296 6.57955 19.9555 6.66261L13.5627 7.27807C10.2416 7.59803 7.59936 10.2412 7.27855 13.5624L6.66327 19.955C6.57998 20.8291 6.23671 21.6582 5.67773 22.3353L1.59197 27.291C-0.530006 29.8659 -0.530006 33.6034 1.59197 36.1781L5.67739 41.1337C6.23637 41.8108 6.57964 42.6399 6.66293 43.5139L7.27838 49.9065C7.59835 53.228 10.2415 55.8704 13.5627 56.1911L17.4704 56.5673L8.18644 78.752C8.06275 79.0454 8.02496 79.3678 8.07749 79.6818C8.13001 79.9958 8.27069 80.2884 8.48312 80.5255C8.91778 81.0149 9.57827 81.2086 10.2061 81.0302L18.2609 78.7559C18.2768 78.7511 18.2939 78.7518 18.3094 78.758C18.3248 78.7642 18.3377 78.7754 18.3459 78.7899L22.3794 86.1244C22.5239 86.3901 22.7376 86.6118 22.9979 86.766C23.2582 86.9201 23.5553 87.0009 23.8578 86.9998C23.8868 86.9998 23.916 86.9991 23.946 86.9978C24.5985 86.9647 25.1626 86.5704 25.4209 85.9625L35.2224 62.5385C35.5592 62.3452 35.8792 62.1241 36.1791 61.8775L41.1345 57.7926C41.7584 57.2779 42.5126 56.946 43.3136 56.8335L52.1913 78.0465L45.9089 76.2729C45.3321 76.1082 44.7165 76.1446 44.1631 76.3761C43.6097 76.6075 43.1514 77.0203 42.8636 77.5466L39.718 83.2662L35.5504 73.3066C35.4182 72.9908 35.1661 72.7405 34.8494 72.6107C34.5327 72.4809 34.1774 72.4822 33.8617 72.6143C33.7054 72.6797 33.5636 72.7752 33.4442 72.8954C33.3249 73.0156 33.2304 73.1582 33.1662 73.3149C33.102 73.4717 33.0693 73.6395 33.0699 73.8089C33.0706 73.9783 33.1047 74.1459 33.1701 74.3021L38.052 85.9689C38.1749 86.2621 38.3785 86.5145 38.6392 86.6966C38.8998 86.8787 39.2067 86.9831 39.5243 86.9978C39.5541 86.9991 39.5833 87.0005 39.6127 87.0005C39.9152 87.0014 40.2122 86.9204 40.4724 86.7662C40.7326 86.6119 40.9463 86.3902 41.0907 86.1244L45.1237 78.7911C45.132 78.7766 45.1448 78.7653 45.1602 78.7589C45.1756 78.7525 45.1926 78.7515 45.2087 78.7559L53.262 81.03C53.5677 81.118 53.8921 81.1172 54.1974 81.0279C54.5027 80.9386 54.7764 80.7644 54.9865 80.5255C55.4211 80.0358 55.5346 79.3568 55.2825 78.7507L45.9992 56.5666L49.9067 56.1904C53.2281 55.8704 55.8713 53.228 56.1912 49.9067L56.8072 43.5133C56.8908 42.6365 57.232 41.814 57.7927 41.1337L61.8776 36.1781C64.0003 33.6034 64.0003 29.8657 61.8776 27.291ZM23.7524 83.266L20.6062 77.5451C20.3182 77.0189 19.8599 76.6063 19.3065 76.3751C18.7531 76.1439 18.1375 76.1078 17.5608 76.2727L11.279 78.0457L20.156 56.8334C20.9571 56.9457 21.7115 57.2774 22.3358 57.7917L27.2914 61.8771C28.5792 62.9385 30.1569 63.469 31.7353 63.469C31.8368 63.469 31.9377 63.4662 32.0393 63.4617L23.7524 83.266ZM59.8872 34.5372L55.8023 39.4927C54.9152 40.5657 54.3704 41.8802 54.2385 43.2662L53.6234 49.6588C53.4215 51.7536 51.7547 53.4203 49.66 53.622L44.0446 54.1631C44.0227 54.1644 44.0001 54.1665 43.9783 54.1697L43.2674 54.238C41.8813 54.3699 40.5666 54.9144 39.4932 55.8013L34.5377 59.886C32.9141 61.2248 30.5564 61.2248 28.933 59.886L23.9772 55.8011C22.904 54.9141 21.5893 54.3696 20.2033 54.238L19.4889 54.169C19.4693 54.1666 19.4497 54.1648 19.43 54.1637L13.8107 53.622C11.7157 53.4203 10.0491 51.7536 9.84725 49.6588L9.23214 43.2669C9.1003 41.8806 8.55549 40.5659 7.66818 39.4927L3.58328 34.5372C2.24464 32.9129 2.24464 30.5552 3.58328 28.9318L7.66818 23.9762C8.55542 22.903 9.10018 21.5883 9.23197 20.2021L9.84742 13.8095C10.0493 11.7145 11.7159 10.048 13.8107 9.84608L20.2034 9.23097C21.5895 9.09905 22.9041 8.5545 23.9774 7.66769L28.9331 3.58279C29.7449 2.91381 30.7404 2.57855 31.7355 2.57855C32.7305 2.57855 33.7261 2.9133 34.5378 3.58279L39.4934 7.66769C40.5666 8.55477 41.8813 9.09935 43.2674 9.23097L49.6601 9.84608C51.7549 10.048 53.4217 11.7145 53.6234 13.8095L54.2387 20.2019C54.3704 21.5882 54.9152 22.903 55.8024 23.9762L59.8873 28.9318C61.2253 30.5559 61.2253 32.9131 59.8873 34.5372H59.8872Z" fill="white"/>
<path d="M31.7353 11.5811C30.8738 11.5811 30.0069 11.6354 29.1572 11.7443C28.818 11.7878 28.5098 11.9642 28.3006 12.2348C28.0913 12.5054 27.9981 12.848 28.0414 13.1873C28.1318 13.8942 28.7788 14.3934 29.4845 14.3037C30.2252 14.2089 30.9825 14.161 31.7353 14.161C41.4254 14.161 49.309 22.0445 49.309 31.7348C49.309 41.4249 41.4248 49.3078 31.7353 49.3078C22.045 49.3078 14.1616 41.4243 14.1616 31.7341C14.1616 24.8224 18.237 18.5266 24.544 15.6944C24.6986 15.625 24.838 15.5259 24.9543 15.4027C25.0705 15.2794 25.1614 15.1345 25.2216 14.9761C25.2818 14.8178 25.3103 14.6491 25.3053 14.4798C25.3003 14.3104 25.262 14.1437 25.1926 13.9892C25.1233 13.8346 25.0241 13.6952 24.9009 13.579C24.7777 13.4628 24.6327 13.3719 24.4744 13.3117C24.316 13.2515 24.1474 13.2231 23.978 13.2281C23.8087 13.233 23.642 13.2713 23.4875 13.3408C16.2544 16.5885 11.5815 23.8081 11.5815 31.7341C11.5815 42.8474 20.6226 51.8877 31.7353 51.8877C42.8478 51.8877 51.8889 42.8474 51.8889 31.7341C51.8889 20.6214 42.8478 11.5811 31.7353 11.5811Z" fill="white"/>
<path d="M18.9225 30.24C17.3846 31.7778 17.3846 34.2809 18.9225 35.8188L24.5571 41.4541C24.9227 41.8214 25.3575 42.1126 25.8363 42.3109C26.3151 42.5091 26.8285 42.6105 27.3467 42.6091C27.865 42.6105 28.3784 42.5091 28.8572 42.3108C29.3361 42.1126 29.7709 41.8214 30.1365 41.4541L42.4366 29.1535C43.9746 27.6148 43.9746 25.1124 42.4366 23.5738C40.8989 22.036 38.3957 22.036 36.8571 23.5738L27.3467 33.0848L24.5012 30.24C22.9634 28.7022 20.4606 28.7022 18.9225 30.24ZM27.3469 36.1998C27.5163 36.1997 27.684 36.1663 27.8405 36.1014C27.997 36.0365 28.1392 35.9414 28.2589 35.8216L38.6819 25.3985C39.2141 24.8662 40.0797 24.8667 40.612 25.3985C41.1444 25.9307 41.1444 26.797 40.612 27.3287L28.3119 39.6293C28.1854 39.7564 28.035 39.8572 27.8693 39.9258C27.7037 39.9944 27.526 40.0295 27.3467 40.029C27.1674 40.0295 26.9898 39.9945 26.8241 39.926C26.6585 39.8574 26.508 39.7566 26.3816 39.6295L20.7465 33.9949C20.2146 33.4625 20.2146 32.5963 20.7465 32.0646C20.8732 31.9377 21.0237 31.8371 21.1894 31.7685C21.3552 31.7 21.5328 31.6648 21.7121 31.6651C21.8912 31.6648 22.0686 31.6999 22.2341 31.7684C22.3996 31.8368 22.55 31.9372 22.6766 32.0639L26.4341 35.8214C26.5539 35.9413 26.6962 36.0365 26.8528 36.1014C27.0093 36.1663 27.1772 36.1998 27.3467 36.1998H27.3469Z" fill="white"/>
</svg>
