<svg width="66" height="66" viewBox="0 0 66 66" fill="none" xmlns="http://www.w3.org/2000/svg">
<path d="M0.208878 6.05417L4.61062 13.7567C4.68413 13.8855 4.78294 13.9981 4.90109 14.0877C5.01924 14.1773 5.1543 14.2421 5.29815 14.2781L9.40474 15.3048L23.4893 29.3893L25.0456 27.8335L10.7405 13.529C10.5998 13.3878 10.4233 13.2877 10.2299 13.2393L6.28418 12.2493L2.53658 5.68752L5.7495 2.47449L12.3139 6.22579L13.3044 10.1715C13.3525 10.3652 13.4525 10.542 13.5936 10.683L27.8987 24.9881L29.4544 23.4318L15.37 9.34728L14.3432 5.243C14.3072 5.09897 14.2424 4.9637 14.1528 4.84532C14.0632 4.72693 13.9506 4.62788 13.8218 4.55409L6.11882 0.152808C5.90966 0.0339037 5.66729 -0.0131729 5.42882 0.0187856C5.19036 0.0507442 4.96894 0.159976 4.79847 0.329758L0.397301 4.7315C0.22513 4.90076 0.113408 5.12194 0.0793584 5.36097C0.0453083 5.59999 0.0908201 5.84357 0.208878 6.05417ZM45.9571 21.6864L21.7492 45.8946L20.1929 44.3383L44.4013 20.1307L45.9571 21.6864ZM17.5124 46.7511C17.4146 46.5882 17.2763 46.4535 17.111 46.36C16.9456 46.2665 16.7589 46.2174 16.569 46.2174H9.96688C9.77703 46.2174 9.5904 46.2665 9.42517 46.36C9.25995 46.4535 9.12176 46.5883 9.02407 46.7511L5.72274 52.2527C5.61989 52.4239 5.56556 52.6198 5.56556 52.8195C5.56556 53.0191 5.61989 53.215 5.72274 53.3862L9.02407 58.8879C9.12184 59.0506 9.26004 59.1853 9.42525 59.2788C9.59046 59.3723 9.77705 59.4214 9.96688 59.4215H16.569C16.7589 59.4215 16.9455 59.3723 17.1108 59.2788C17.2761 59.1853 17.4144 59.0506 17.5123 58.8879L20.8131 53.3862C20.916 53.215 20.9703 53.0191 20.9703 52.8195C20.9703 52.6198 20.916 52.4239 20.8131 52.2527L17.5124 46.7511ZM15.9466 57.2207H10.5897L7.94893 52.8196L10.5899 48.4179H15.9466L18.5874 52.8196L15.9466 57.2207Z" fill="white"/>
<path d="M52.881 26.4109C60.1483 26.4353 66.0601 20.5635 66.0844 13.2959C66.0881 12.1898 65.9524 11.0877 65.6804 10.0156C65.5337 9.42572 64.9367 9.06673 64.3468 9.21343C64.1533 9.26184 63.9765 9.3618 63.8353 9.50267L56.9856 16.3478L51.551 14.5367L49.7386 9.10346L56.5882 2.25245C56.7261 2.11446 56.8249 1.94228 56.8744 1.75356C56.9238 1.56483 56.9222 1.36635 56.8697 1.17845C56.8172 0.990553 56.7157 0.819994 56.5755 0.684258C56.4354 0.548521 56.2617 0.452487 56.0722 0.405999C49.0243 -1.3788 41.8645 2.88748 40.0797 9.93491C39.8085 11.0041 39.6731 12.1032 39.6768 13.2062C39.6795 14.0727 39.7687 14.9363 39.9443 15.7846L15.846 39.8827C14.9978 39.7077 14.1342 39.6181 13.2681 39.6151C5.97527 39.6151 0.0634766 45.5268 0.0634766 52.8197C0.0634766 60.1121 5.97527 66.0238 13.2681 66.0238C20.5605 66.0238 26.4722 60.112 26.4722 52.8197C26.4695 51.9535 26.3799 51.0897 26.2046 50.2414L31.9739 44.4721L34.497 46.9953C34.7034 47.2016 34.9833 47.3175 35.2751 47.3175C35.567 47.3175 35.8469 47.2016 36.0533 46.9953L36.6032 46.4449C37.0858 45.9655 37.8657 45.9655 38.3482 46.4449C38.8302 46.9256 38.8312 47.706 38.3505 48.1881L38.3482 48.1904L37.7982 48.7403C37.3686 49.1698 37.3686 49.8666 37.7982 50.2961L50.9245 63.4223C54.377 66.9064 59.9999 66.9317 63.484 63.4793C66.9677 60.0269 66.9931 54.4035 63.5406 50.9198C63.5221 50.9007 63.5031 50.8817 63.484 50.8627L50.3579 37.7369C49.9283 37.3073 49.2316 37.3073 48.8021 37.7369L48.2521 38.2869C47.7691 38.7667 46.9897 38.7667 46.5067 38.2869C46.025 37.8062 46.0237 37.0258 46.5044 36.5441C46.5053 36.5433 46.5062 36.5428 46.5067 36.5418L47.0571 35.9914C47.4867 35.5619 47.4867 34.8652 47.0571 34.4357L44.5339 31.9126L50.3031 26.1433C51.1513 26.3186 52.0149 26.4082 52.8811 26.411L52.881 26.4109ZM57.2042 63.8234C56.4049 63.8221 55.6123 63.6775 54.864 63.3964L63.4578 54.8022C64.7546 58.252 63.0097 62.0996 59.5599 63.3964C58.8068 63.6795 58.0088 63.8242 57.2042 63.8234ZM44.7384 35.2247C43.5198 36.6782 43.7109 38.8446 45.1644 40.0627C46.4418 41.1332 48.3036 41.1323 49.5796 40.0595L61.9283 52.419C62.0622 52.5534 62.1876 52.6951 62.3089 52.8391L52.9008 62.2471C52.755 62.1265 52.6147 61.9995 52.4802 61.8665L40.1222 49.5075C41.3408 48.054 41.1497 45.8875 39.6962 44.6695C38.4189 43.5984 36.5565 43.5999 35.2806 44.6721L33.5201 42.9118L42.9776 33.4683L44.7384 35.2247ZM49.1818 24.1576L24.2197 49.1146C24.0852 49.249 23.9877 49.4159 23.9368 49.5991C23.8858 49.7823 23.8832 49.9756 23.9291 50.1602C25.4387 56.0886 21.8563 62.1186 15.9274 63.6279C9.9989 65.1373 3.96902 61.555 2.45932 55.626C0.950199 49.6976 4.53243 43.6677 10.4615 42.1581C12.2549 41.7018 14.134 41.7018 15.9274 42.1581C16.1119 42.2032 16.305 42.2003 16.488 42.1495C16.6711 42.0987 16.8381 42.0017 16.973 41.8679L41.9291 16.9105C42.0636 16.7761 42.1609 16.6092 42.2116 16.426C42.2623 16.2428 42.2646 16.0496 42.2184 15.8652C40.7191 10.0061 44.2535 4.04084 50.1128 2.54123C51.2202 2.25805 52.3651 2.14989 53.5059 2.2207L47.7014 8.0275C47.5569 8.17182 47.4555 8.35354 47.4084 8.55229C47.3614 8.75103 47.3707 8.95894 47.4352 9.15271L49.6357 15.7553C49.6899 15.9172 49.7811 16.0644 49.902 16.185C50.0229 16.3057 50.1702 16.3966 50.3323 16.4506L56.9348 18.6514C57.1285 18.7159 57.3363 18.7253 57.5351 18.6784C57.7338 18.6316 57.9155 18.5304 58.06 18.3861L63.8645 12.5816C63.8777 12.7896 63.8844 12.9979 63.8846 13.2062C63.9153 19.2526 59.0392 24.1788 52.993 24.2101C52.0583 24.2146 51.1269 24.0996 50.2214 23.8679C50.0369 23.8217 49.8437 23.8241 49.6605 23.8748C49.4773 23.9255 49.3103 24.0228 49.1758 24.1571H49.1816L49.1818 24.1576Z" fill="white"/>
<path d="M56.961 55.3421L55.4048 56.8984L44.4016 45.8952L45.9573 44.3389L56.961 55.3421Z" fill="white"/>
</svg>
