<svg width="72" height="72" viewBox="0 0 72 72" fill="none" xmlns="http://www.w3.org/2000/svg">
<path d="M18.1277 49.4482C18.7493 49.4482 19.2437 49.9584 19.2437 50.5806C19.2437 51.2027 18.7493 51.6966 18.1277 51.6966H5.48494C2.47163 51.6966 0 49.2412 0 46.2111V5.48494C0 2.47163 2.47163 0 5.48494 0H66.5156C69.5289 0 72 2.47163 72 5.48494V46.2111C72 49.2412 69.5289 51.6966 66.5156 51.6966H54.6542C54.0326 51.6966 53.5382 51.2021 53.5382 50.5806C53.5382 49.959 54.0326 49.4482 54.6542 49.4482H66.5156C68.2852 49.4482 69.7523 47.997 69.7523 46.2111V5.48494C69.7523 3.71531 68.2858 2.24831 66.5156 2.24831H5.48494C3.71531 2.24831 2.24831 3.71531 2.24831 5.48494V46.2111C2.24831 47.997 3.71475 49.4482 5.48494 49.4482H18.1277ZM18.5743 44.2502C19.1959 44.2502 19.7066 44.7598 19.7066 45.3819C19.7066 46.0041 19.1964 46.4979 18.5743 46.4979H7.63706C7.33359 46.4999 7.0329 46.4401 6.75325 46.3222C6.4736 46.2043 6.22083 46.0308 6.01031 45.8122C5.59631 45.3814 5.32463 44.8076 5.32463 44.1698V7.52625C5.32463 6.90469 5.59575 6.31462 6.01031 5.8995C6.22001 5.67874 6.47227 5.50277 6.75187 5.38221C7.03146 5.26166 7.33259 5.19901 7.63706 5.19806H64.3472C64.654 5.19896 64.9575 5.26151 65.2397 5.38201C65.5218 5.5025 65.7769 5.67849 65.9897 5.8995C66.4176 6.33286 66.6579 6.91721 66.6585 7.52625V44.1698C66.6585 44.8076 66.4043 45.3814 65.9897 45.8122C65.5751 46.2431 64.9851 46.4979 64.3472 46.4979H54.8612C54.2396 46.4979 53.7452 46.0035 53.7452 45.3819C53.7452 44.7604 54.2396 44.2502 54.8612 44.2502H64.3314C64.395 44.2502 64.4113 44.2018 64.4113 44.1698V7.52625C64.4113 7.49419 64.3956 7.44637 64.3478 7.44637H7.63706C7.62131 7.44637 7.62131 7.46212 7.605 7.46212C7.58925 7.47787 7.58925 7.50994 7.58925 7.52569V44.1692C7.58925 44.2013 7.605 44.2496 7.63706 44.2496L18.5743 44.2502ZM31.0899 61.4076C31.4089 60.8811 32.094 60.6904 32.6205 61.0093C32.7498 61.081 32.8634 61.1779 32.9546 61.2943C33.0458 61.4107 33.1127 61.5442 33.1513 61.687C33.19 61.8297 33.1996 61.9787 33.1796 62.1252C33.1597 62.2717 33.1105 62.4127 33.0351 62.5399L27.9011 71.4375C27.7522 71.6945 27.5078 71.8822 27.2212 71.9598C26.9345 72.0375 26.6288 71.9987 26.3706 71.8521C26.0679 71.6766 25.8761 71.4054 25.8283 71.1028L25.0312 67.0686L21.141 68.3921C21.0019 68.4414 20.8544 68.4622 20.7071 68.4535C20.5598 68.4447 20.4158 68.4065 20.2835 68.3411C20.1513 68.2757 20.0335 68.1844 19.9371 68.0727C19.8407 67.961 19.7677 67.8311 19.7224 67.6907C19.5947 67.3397 19.6588 66.9893 19.8501 66.7018L24.8242 58.0753C25.1432 57.5331 25.8289 57.3418 26.3554 57.6608C26.4847 57.7326 26.5982 57.8296 26.6893 57.946C26.7805 58.0625 26.8473 58.1961 26.8859 58.3388C26.9245 58.4816 26.9341 58.6306 26.9141 58.7772C26.894 58.9237 26.8448 59.0647 26.7694 59.1919L23.2459 65.3152L25.4621 64.5502C25.5257 64.5345 25.5898 64.5024 25.6691 64.5024C25.8127 64.4722 25.9608 64.4711 26.1049 64.4991C26.2489 64.527 26.3858 64.5835 26.5077 64.6653C26.6295 64.747 26.7337 64.8523 26.8142 64.9749C26.8947 65.0976 26.9499 65.2351 26.9764 65.3794L27.4545 67.7391L31.0899 61.4076ZM39.0454 62.6839C38.9705 62.5573 38.9214 62.4172 38.9009 62.2716C38.8803 62.126 38.8888 61.9777 38.9259 61.8354C38.9629 61.6931 39.0277 61.5595 39.1165 61.4424C39.2054 61.3252 39.3166 61.2268 39.4436 61.1528C39.9859 60.8338 40.6716 61.0251 40.9905 61.5516L44.5455 67.7385L45.0079 65.3788C45.1513 64.6931 45.8848 64.2943 46.5221 64.5497L48.7547 65.3147L45.1192 58.9995C44.8003 58.4572 44.9916 57.7879 45.5338 57.4689C45.792 57.3224 46.0976 57.2836 46.3842 57.3611C46.6708 57.4387 46.9153 57.6262 47.0644 57.8829L52.1505 66.7012C52.3417 66.9887 52.4053 67.3391 52.2782 67.6901C52.2328 67.8305 52.1596 67.9604 52.0632 68.0721C51.9667 68.1837 51.8489 68.2749 51.7166 68.3403C51.5843 68.4057 51.4403 68.4439 51.293 68.4527C51.1457 68.4615 50.9981 68.4407 50.859 68.3916L46.9693 67.068L46.1722 71.1022C46.1409 71.2587 46.0762 71.4066 45.9826 71.5359C45.8891 71.6651 45.7688 71.7728 45.63 71.8515C45.3718 71.9982 45.066 72.0369 44.7794 71.9593C44.4927 71.8816 44.2483 71.6939 44.0994 71.4369L39.0454 62.6839Z" fill="white"/>
<path d="M40.4003 32.1469C41.3847 32.7667 42.2051 33.6147 42.7921 34.619C43.9559 34.6348 45.1034 34.9222 46.1401 35.4639C48.691 36.7875 50.2531 39.4982 50.1254 42.368C50.079 43.5323 49.7568 44.669 49.1854 45.6845C49.7569 46.7002 50.0791 47.8371 50.1254 49.0016C50.2531 51.8715 48.691 54.5822 46.1401 55.9052C45.106 56.4461 43.959 56.7359 42.7921 56.7512C42.2003 57.7517 41.3808 58.5985 40.4003 59.2228C39.2089 59.9802 37.8263 60.3825 36.4144 60.3825C35.0026 60.3825 33.62 59.9802 32.4286 59.2228C31.4433 58.5992 30.6186 57.7525 30.0211 56.7512C28.8592 56.7358 27.7174 56.4459 26.6888 55.9052C25.4371 55.2521 24.3974 54.2559 23.6915 53.0333C22.9856 51.8106 22.6427 50.4121 22.7029 49.0016C22.7513 47.8372 23.0697 46.7049 23.6277 45.6845C23.0688 44.6647 22.7524 43.5299 22.7029 42.368C22.5753 39.4976 24.1379 36.7869 26.6888 35.4639C27.7175 34.9237 28.8593 34.6342 30.0211 34.619C30.6186 33.6176 31.4433 32.7707 32.4286 32.1469C33.6199 31.3892 35.0026 30.9867 36.4144 30.9867C37.8263 30.9867 39.209 31.3892 40.4003 32.1469ZM36.4144 38.3816C37.3738 38.3804 38.324 38.5685 39.2106 38.9352C40.0972 39.3018 40.9027 39.8397 41.581 40.5182C42.2594 41.1966 42.7972 42.0022 43.1637 42.8889C43.5302 43.7755 43.7182 44.7257 43.7168 45.6851C43.718 46.6445 43.5299 47.5946 43.1634 48.4812C42.7968 49.3677 42.259 50.1733 41.5807 50.8517C40.9024 51.5301 40.0969 52.0681 39.2104 52.4347C38.3239 52.8014 37.3738 52.9896 36.4144 52.9886C34.3894 52.9886 32.572 52.1758 31.2484 50.8522C29.9249 49.5281 29.1121 47.6944 29.1121 45.6851C29.1121 43.6759 29.9249 41.8427 31.2484 40.5185C32.572 39.1944 34.39 38.3816 36.4144 38.3816ZM39.9858 42.1132C39.0385 41.1656 37.7543 40.6322 36.4144 40.6299C35.7507 40.6297 35.0935 40.7606 34.4805 41.0152C33.8675 41.2697 33.3109 41.6429 32.8426 42.1132C32.3723 42.5816 31.9992 43.1382 31.7447 43.7512C31.4903 44.3642 31.3595 45.0214 31.3598 45.6851C31.3625 47.0251 31.8956 48.3095 32.8426 49.2575C33.3109 49.7278 33.8676 50.1009 34.4806 50.3553C35.0935 50.6098 35.7507 50.7406 36.4144 50.7403C37.7543 50.7376 39.0385 50.2041 39.9858 49.2567C40.9332 48.3092 41.4665 47.0249 41.4691 45.6851C41.4694 45.0214 41.3385 44.3641 41.084 43.7511C40.8294 43.1381 40.4562 42.5815 39.9858 42.1132ZM39.2044 34.0442C37.5304 32.976 35.2984 32.976 33.6244 34.0442C32.8118 34.5549 32.1597 35.2845 31.7429 36.149C31.6548 36.3778 31.4958 36.5723 31.2893 36.7043C31.0827 36.8362 30.8394 36.8987 30.5948 36.8825C29.6026 36.789 28.6048 36.9887 27.7249 37.4569C26.8506 37.9118 26.1238 38.6064 25.6298 39.4593C25.1357 40.3122 24.8947 41.2881 24.9349 42.273C24.9811 43.2605 25.3013 44.2157 25.8597 45.0315C25.9946 45.2191 26.0686 45.4437 26.0714 45.6747C26.0742 45.9058 26.0058 46.1321 25.8754 46.323C25.3011 47.1358 24.9828 48.1095 24.9349 49.0984C24.8947 50.0831 25.1357 51.059 25.6298 51.9118C26.1239 52.7645 26.8506 53.459 27.7249 53.9139C28.6049 54.3816 29.6026 54.5812 30.5948 54.4882C30.823 54.4721 31.0506 54.526 31.2472 54.6428C31.4439 54.7596 31.6001 54.9338 31.6951 55.1419C32.1226 56.0354 32.7907 56.7922 33.6244 57.3272C35.2984 58.3948 37.5304 58.3948 39.2044 57.3272C40.0015 56.817 40.6709 56.0829 41.086 55.2217C41.1741 54.993 41.3331 54.7985 41.5396 54.6665C41.7462 54.5345 41.9895 54.4721 42.2341 54.4882C43.2262 54.5802 44.2236 54.3806 45.1039 53.9139C45.9783 53.4591 46.7051 52.7647 47.1992 51.9119C47.6933 51.059 47.9343 50.0831 47.8939 49.0984C47.8478 48.1107 47.5276 47.1553 46.9692 46.3393C46.6981 45.9725 46.666 45.4466 46.9534 45.0478C47.5278 44.235 47.8461 43.2619 47.8939 42.273C47.9343 41.2881 47.6933 40.3122 47.1992 39.4593C46.7051 38.6063 45.9784 37.9118 45.1039 37.4569C44.2234 36.9907 43.2262 36.7912 42.2341 36.8825C41.7874 36.9146 41.3251 36.6755 41.1338 36.2289C40.7059 35.3358 40.0378 34.5793 39.2044 34.0442ZM15.2898 20.4266C14.6682 20.4266 14.1743 19.9164 14.1743 19.2943C14.1743 18.6722 14.6682 18.1783 15.2898 18.1783H56.6943C57.3158 18.1783 57.8266 18.6722 57.8266 19.2943C57.8266 19.9164 57.3164 20.4266 56.6943 20.4266H15.2898ZM28.8258 13.4263C28.2042 13.4263 27.7098 12.9161 27.7098 12.294C27.7098 11.6719 28.2042 11.178 28.8258 11.178H43.1751C43.7967 11.178 44.29 11.6724 44.29 12.294C44.29 12.9155 43.7967 13.4263 43.1751 13.4263H28.8258ZM46.5068 32.1469C45.8853 32.1469 45.3908 31.653 45.3908 31.0309C45.3908 30.4087 45.8853 29.8985 46.5068 29.8985H57.3799C58.0015 29.8985 58.4959 30.4093 58.4959 31.0309C58.4959 31.6524 58.0015 32.1469 57.3799 32.1469H46.5068ZM15.2898 32.1469C14.6682 32.1469 14.1743 31.653 14.1743 31.0309C14.1743 30.4087 14.6682 29.8985 15.2898 29.8985H26.1634C26.7844 29.8985 27.2789 30.4093 27.2789 31.0309C27.2789 31.6524 26.7844 32.1469 26.1634 32.1469H15.2898ZM15.2898 26.2952C14.6682 26.2952 14.1743 25.7844 14.1743 25.1629C14.1743 24.5413 14.6682 24.0469 15.2898 24.0469H56.6943C57.3158 24.0469 57.8266 24.5413 57.8266 25.1629C57.8266 25.7844 57.3164 26.2952 56.6943 26.2952H15.2898Z" fill="white"/>
</svg>
