<svg width="65" height="52" viewBox="0 0 65 52" fill="none" xmlns="http://www.w3.org/2000/svg">
<path d="M58.2812 51.3516H37.1875C36.7213 51.3516 36.2742 51.1664 35.9445 50.8367C35.6149 50.5071 35.4297 50.06 35.4297 49.5938C35.4297 49.1276 35.6149 48.6805 35.9445 48.3508C36.2742 48.0212 36.7213 47.836 37.1875 47.836H58.2812C58.6621 47.8396 59.0397 47.766 59.3913 47.6198C59.7429 47.4736 60.0613 47.2577 60.3273 46.9852C60.6083 46.717 60.8316 46.3943 60.9835 46.0368C61.1354 45.6794 61.2128 45.2947 61.2109 44.9063C61.2133 42.4728 60.4934 40.0933 59.1426 38.0692C57.7917 36.0451 55.8706 34.4673 53.6224 33.5357C51.3743 32.6042 48.9003 32.3606 46.5137 32.836C44.1271 33.3114 41.9352 34.4844 40.2156 36.2063L38.8984 35.0391L37.6656 33.7875C39.8712 31.5605 42.6885 30.0389 45.7602 29.4156C48.832 28.7923 52.0196 29.0955 54.9187 30.2867C57.8179 31.4779 60.2979 33.5034 62.044 36.1062C63.7902 38.7091 64.7239 41.772 64.7266 44.9063C64.7179 46.613 64.0361 48.2474 62.8292 49.4543C61.6224 50.6611 59.988 51.343 58.2812 51.3516Z" fill="white"/>
<path d="M48.9063 32.6016C46.7044 32.6016 44.552 31.9486 42.7212 30.7254C40.8904 29.5021 39.4635 27.7634 38.6209 25.7291C37.7783 23.6948 37.5578 21.4564 37.9874 19.2969C38.4169 17.1373 39.4772 15.1536 41.0342 13.5967C42.5911 12.0397 44.5748 10.9794 46.7343 10.5499C48.8939 10.1203 51.1323 10.3408 53.1666 11.1834C55.2009 12.026 56.9396 13.4529 58.1628 15.2837C59.3861 17.1145 60.0391 19.2669 60.0391 21.4688C60.036 24.4204 58.8621 27.2503 56.7749 29.3374C54.6878 31.4246 51.8579 32.5985 48.9063 32.6016ZM48.9063 13.8516C47.3997 13.8516 45.927 14.2983 44.6744 15.1353C43.4217 15.9723 42.4454 17.1619 41.8689 18.5538C41.2924 19.9456 41.1415 21.4772 41.4354 22.9548C41.7293 24.4324 42.4548 25.7896 43.5201 26.8549C44.5854 27.9202 45.9426 28.6457 47.4202 28.9396C48.8978 29.2335 50.4294 29.0826 51.8212 28.5061C53.2131 27.9296 54.4027 26.9533 55.2397 25.7006C56.0767 24.448 56.5234 22.9753 56.5234 21.4688C56.521 19.4493 55.7176 17.5133 54.2897 16.0853C52.8617 14.6574 50.9257 13.854 48.9063 13.8516Z" fill="white"/>
<path d="M30.1562 49.0078H6.71875C5.00992 49.006 3.37161 48.3263 2.16328 47.118C0.954954 45.9096 0.275299 44.2713 0.273438 42.5625V40.2188C0.273438 35.4013 2.18715 30.7812 5.59357 27.3748C8.99999 23.9684 13.6201 22.0547 18.4375 22.0547C23.2549 22.0547 27.875 23.9684 31.2814 27.3748C34.6879 30.7812 36.6016 35.4013 36.6016 40.2188V42.5625C36.5997 44.2713 35.92 45.9096 34.7117 47.118C33.5034 48.3263 31.8651 49.006 30.1562 49.0078ZM18.4375 25.5703C14.5538 25.5747 10.8305 27.1194 8.08429 29.8655C5.33811 32.6117 3.7934 36.3351 3.78906 40.2188V42.5625C3.78968 43.3393 4.09854 44.0841 4.64783 44.6334C5.19712 45.1827 5.94194 45.4916 6.71875 45.4922H30.1562C30.9331 45.4916 31.6779 45.1827 32.2272 44.6334C32.7765 44.0841 33.0853 43.3393 33.0859 42.5625V40.2188C33.0816 36.3351 31.5369 32.6117 28.7907 29.8655C26.0445 27.1194 22.3212 25.5747 18.4375 25.5703Z" fill="white"/>
<path d="M18.4375 25.5703C16.0039 25.5703 13.6249 24.8487 11.6014 23.4966C9.57789 22.1445 8.00077 20.2228 7.06946 17.9744C6.13814 15.726 5.89447 13.252 6.36925 10.8651C6.84403 8.47823 8.01594 6.28574 9.73678 4.5649C11.4576 2.84406 13.6501 1.67215 16.037 1.19737C18.4239 0.722595 20.8979 0.966269 23.1463 1.89758C25.3947 2.82889 27.3164 4.40602 28.6685 6.42951C30.0205 8.45301 30.7422 10.832 30.7422 13.2656C30.7385 16.5279 29.4409 19.6555 27.1341 21.9622C24.8274 24.269 21.6998 25.5666 18.4375 25.5703ZM18.4375 4.47657C16.6992 4.47657 14.9999 4.99204 13.5546 5.95779C12.1092 6.92355 10.9827 8.29621 10.3175 9.9022C9.65225 11.5082 9.47819 13.2754 9.81732 14.9803C10.1565 16.6852 10.9935 18.2513 12.2227 19.4804C13.4519 20.7096 15.0179 21.5467 16.7228 21.8858C18.4278 22.2249 20.1949 22.0509 21.8009 21.3857C23.4069 20.7204 24.7796 19.5939 25.7453 18.1486C26.7111 16.7032 27.2266 15.0039 27.2266 13.2656C27.2241 10.9354 26.2973 8.7013 24.6496 7.05357C23.0018 5.40584 20.7677 4.47905 18.4375 4.47657Z" fill="white"/>
</svg>
