<svg width="85" height="61" viewBox="0 0 85 61" fill="none" xmlns="http://www.w3.org/2000/svg">
<path d="M63.5773 30.347C63.3824 29.7414 63.0216 29.2026 62.5357 28.7919C62.0499 28.3812 61.4586 28.115 60.829 28.0236L50.2819 26.4766L45.563 16.8334C45.2852 16.257 44.8504 15.7707 44.3086 15.4304C43.7668 15.0901 43.1399 14.9095 42.5001 14.9095C41.8603 14.9095 41.2335 15.0901 40.6917 15.4304C40.1499 15.7707 39.7151 16.257 39.4373 16.8334L34.7184 26.4766L24.1727 28.0236C23.5418 28.1189 22.95 28.3879 22.4635 28.8007C21.977 29.2135 21.6151 29.7537 21.4185 30.3606C21.2218 30.9675 21.1981 31.6173 21.35 32.2369C21.5019 32.8566 21.8235 33.4217 22.2786 33.8688L29.9173 41.3771L28.1125 51.9837C28.0025 52.613 28.0711 53.2604 28.3104 53.8527C28.5497 54.4449 28.9502 54.9583 29.4664 55.3345C29.9826 55.7107 30.5939 55.9348 31.231 55.9813C31.8681 56.0278 32.5054 55.8949 33.0708 55.5976L42.5001 50.5996L51.9309 55.6005C52.4962 55.8983 53.1337 56.0317 53.771 55.9854C54.4084 55.9392 55.0199 55.7152 55.5363 55.3388C56.0527 54.9624 56.4532 54.4488 56.6924 53.8562C56.9315 53.2637 56.9997 52.6159 56.8892 51.9865L55.083 41.38L62.7216 33.8716C63.1807 33.4237 63.5044 32.8555 63.6557 32.2322C63.807 31.6089 63.7799 30.9556 63.5773 30.347ZM60.7355 31.8486L52.5684 39.8783C52.4057 40.0385 52.2842 40.2357 52.2141 40.453C52.1441 40.6703 52.1276 40.9013 52.166 41.1264L54.0941 52.4597C54.1155 52.5709 54.1044 52.6858 54.0622 52.7908C54.02 52.8958 53.9485 52.9865 53.8561 53.0519C53.7711 53.1157 53.6694 53.1535 53.5633 53.1608C53.4572 53.1681 53.3513 53.1445 53.2583 53.093L43.1645 47.7408C42.9597 47.6329 42.7317 47.5764 42.5001 47.5764C42.2686 47.5764 42.0405 47.6329 41.8357 47.7408L31.7434 53.0958C31.6504 53.1482 31.5441 53.1722 31.4376 53.1649C31.3311 53.1576 31.2291 53.1193 31.1441 53.0547C31.0518 52.9892 30.9802 52.8986 30.9377 52.7937C30.8953 52.6887 30.8838 52.5738 30.9047 52.4625L32.8342 41.1292C32.8727 40.9042 32.8562 40.6731 32.7861 40.4558C32.7161 40.2385 32.5946 40.0413 32.4319 39.8811L24.2648 31.8515C24.1833 31.7728 24.1259 31.6725 24.0993 31.5623C24.0727 31.4522 24.078 31.3368 24.1146 31.2295C24.1458 31.1244 24.2068 31.0305 24.2903 30.9593C24.3738 30.8882 24.4762 30.8428 24.585 30.8286L35.8687 29.1754C36.0964 29.1419 36.3126 29.0535 36.4985 28.9177C36.6843 28.782 36.8343 28.603 36.9355 28.3962L41.983 18.08C42.0278 17.9803 42.1004 17.8956 42.1921 17.8362C42.2839 17.7768 42.3908 17.7452 42.5001 17.7452C42.6094 17.7452 42.7164 17.7768 42.8082 17.8362C42.8999 17.8956 42.9725 17.9803 43.0172 18.08L48.0648 28.3962C48.1659 28.603 48.3159 28.782 48.5018 28.9177C48.6877 29.0535 48.9038 29.1419 49.1315 29.1754L60.4167 30.8286C60.5252 30.843 60.6273 30.8885 60.7105 30.9597C60.7937 31.0308 60.8546 31.1246 60.8856 31.2295C60.9217 31.3364 60.9267 31.4512 60.9001 31.5608C60.8735 31.6704 60.8165 31.7702 60.7355 31.8486Z" fill="white"/>
<path d="M25.3583 44.2615C25.2128 43.8111 24.9448 43.41 24.5842 43.1032C24.2237 42.7965 23.7849 42.5962 23.3169 42.5247L17.6148 41.6577L15.0521 36.229C14.8498 35.7881 14.5252 35.4145 14.1169 35.1526C13.7086 34.8908 13.2337 34.7515 12.7486 34.7515C12.2635 34.7515 11.7886 34.8908 11.3803 35.1526C10.972 35.4145 10.6474 35.7881 10.4451 36.229L7.88376 41.6577L2.18309 42.5233C1.71533 42.5958 1.27685 42.7967 0.916448 43.1036C0.556045 43.4104 0.287842 43.8113 0.141675 44.2615C-0.0160181 44.7227 -0.0424293 45.2186 0.0653901 45.6939C0.173209 46.1692 0.411016 46.6052 0.752258 46.9532L4.91726 51.2032L3.92559 57.2127C3.84129 57.699 3.89663 58.1992 4.0852 58.6554C4.27377 59.1115 4.58783 59.5048 4.99093 59.7896C5.37587 60.0649 5.83111 60.2252 6.30364 60.2518C6.77617 60.2784 7.24653 60.1702 7.65993 59.9398L12.75 57.1333L17.8344 59.9284C18.2482 60.1583 18.7187 60.2662 19.1914 60.2396C19.664 60.2131 20.1194 60.0531 20.5048 59.7783C20.9078 59.4933 21.2219 59.1 21.4106 58.644C21.5994 58.1879 21.6552 57.6878 21.5716 57.2013L20.5799 51.1918L24.7449 46.9418C25.0846 46.5952 25.3217 46.1613 25.4299 45.6882C25.5382 45.2152 25.5134 44.7214 25.3583 44.2615ZM18.0583 49.7256C17.9022 49.8846 17.7858 50.0782 17.7186 50.2906C17.6514 50.503 17.6353 50.7283 17.6715 50.9482L18.6915 57.173L13.4314 54.2802C13.223 54.1644 12.9884 54.1037 12.75 54.1037C12.5116 54.1037 12.2771 54.1644 12.0686 54.2802L6.80709 57.173L7.82709 50.9482C7.86331 50.7283 7.84716 50.503 7.77996 50.2906C7.71276 50.0782 7.59641 49.8846 7.44034 49.7256L3.05718 45.2574L9.05676 44.3437C9.28629 44.3094 9.50379 44.2189 9.6899 44.0802C9.87601 43.9415 10.025 43.759 10.1235 43.5489L12.75 37.9843L15.3765 43.5489C15.4751 43.759 15.624 43.9415 15.8101 44.0802C15.9962 44.2189 16.2137 44.3094 16.4433 44.3437L22.4428 45.2574L18.0583 49.7256ZM84.8583 44.2615C84.7128 43.8111 84.4448 43.41 84.0842 43.1032C83.7237 42.7965 83.2849 42.5962 82.8169 42.5247L77.1148 41.6577L74.5521 36.229C74.3498 35.7881 74.0252 35.4145 73.6169 35.1526C73.2086 34.8908 72.7337 34.7515 72.2486 34.7515C71.7635 34.7515 71.2886 34.8908 70.8803 35.1526C70.472 35.4145 70.1474 35.7881 69.9451 36.229L67.3823 41.6591L61.6817 42.5247C61.2143 42.5973 60.7763 42.7981 60.4162 43.1047C60.056 43.4113 59.788 43.8117 59.6417 44.2615C59.484 44.7227 59.4576 45.2186 59.5654 45.6939C59.6732 46.1692 59.911 46.6052 60.2523 46.9532L64.4173 51.2032L63.4256 57.2127C63.3413 57.699 63.3966 58.1992 63.5852 58.6554C63.7738 59.1115 64.0878 59.5048 64.4909 59.7896C64.8759 60.0649 65.3311 60.2252 65.8036 60.2518C66.2762 60.2784 66.7465 60.1702 67.1599 59.9398L72.25 57.1333L77.3344 59.9284C77.7482 60.1583 78.2187 60.2662 78.6914 60.2396C79.164 60.2131 79.6194 60.0531 80.0048 59.7783C80.4078 59.4933 80.7219 59.1 80.9106 58.644C81.0994 58.1879 81.1552 57.6878 81.0716 57.2013L80.0799 51.1918L84.2449 46.9418C84.5846 46.5952 84.8217 46.1613 84.9299 45.6882C85.0382 45.2152 85.0134 44.7214 84.8583 44.2615ZM77.5583 49.7256C77.4022 49.8846 77.2858 50.0782 77.2186 50.2906C77.1514 50.503 77.1353 50.7283 77.1715 50.9482L78.1915 57.173L72.93 54.2802C72.7215 54.1644 72.487 54.1037 72.2486 54.1037C72.0102 54.1037 71.7757 54.1644 71.5672 54.2802L66.3057 57.173L67.3257 50.9482C67.3619 50.7283 67.3457 50.503 67.2785 50.2906C67.2113 50.0782 67.095 49.8846 66.9389 49.7256L62.5558 45.2574L68.5553 44.3437C68.7849 44.3094 69.0024 44.2189 69.1885 44.0802C69.3746 43.9415 69.5235 43.759 69.6221 43.5489L72.25 37.9843L74.8765 43.5489C74.9751 43.759 75.124 43.9415 75.3101 44.0802C75.4962 44.2189 75.7137 44.3094 75.9433 44.3437L81.9428 45.2574L77.5583 49.7256ZM43.9167 10.6667V2.16667C43.9167 1.79094 43.7674 1.43061 43.5017 1.16493C43.2361 0.899256 42.8757 0.75 42.5 0.75C42.1243 0.75 41.764 0.899256 41.4983 1.16493C41.2326 1.43061 41.0833 1.79094 41.0833 2.16667V10.6667C41.0833 11.0424 41.2326 11.4027 41.4983 11.6684C41.764 11.9341 42.1243 12.0833 42.5 12.0833C42.8757 12.0833 43.2361 11.9341 43.5017 11.6684C43.7674 11.4027 43.9167 11.0424 43.9167 10.6667ZM29.75 14.8104C29.9862 14.8101 30.2186 14.7506 30.426 14.6375C30.6334 14.5245 30.8092 14.3613 30.9375 14.1629C31.0658 13.9646 31.1424 13.7373 31.1604 13.5017C31.1784 13.2662 31.1372 13.0299 31.0406 12.8143L27.5641 5.05808C27.4031 4.72711 27.1196 4.4718 26.7736 4.34622C26.4276 4.22063 26.0463 4.23462 25.7105 4.38523C25.3747 4.53584 25.1106 4.81125 24.9743 5.15313C24.838 5.49502 24.84 5.87654 24.9801 6.21692L28.4566 13.9732C28.5684 14.2226 28.75 14.4344 28.9795 14.583C29.209 14.7316 29.4766 14.8105 29.75 14.8104ZM55.25 14.8104C55.5234 14.8105 55.791 14.7316 56.0205 14.583C56.25 14.4344 56.4316 14.2226 56.5434 13.9732L60.0199 6.21692C60.16 5.87654 60.1621 5.49502 60.0257 5.15313C59.8894 4.81125 59.6254 4.53584 59.2895 4.38523C58.9537 4.23462 58.5724 4.22063 58.2264 4.34622C57.8805 4.4718 57.597 4.72711 57.4359 5.05808L53.9594 12.8143C53.8628 13.0299 53.8216 13.2662 53.8396 13.5017C53.8576 13.7373 53.9343 13.9646 54.0625 14.1629C54.1908 14.3613 54.3666 14.5245 54.574 14.6375C54.7814 14.7506 55.0138 14.8101 55.25 14.8104Z" fill="white"/>
</svg>
