<svg width="67" height="69" viewBox="0 0 67 69" fill="none" xmlns="http://www.w3.org/2000/svg">
<path fill-rule="evenodd" clip-rule="evenodd" d="M45.4048 0.246207C45.9664 0.133899 46.6402 0.58313 46.7525 1.14467L46.9771 2.26775C48.1002 9.00621 43.6079 15.4077 36.8694 16.5308L36.3079 16.6431L35.1848 18.4401C38.6664 16.8677 42.9341 16.8677 46.5279 19.0016L47.5387 19.5631C48.1002 19.9001 48.2125 20.5739 47.9879 21.1354L47.4264 22.1462C44.0571 28.0985 36.5325 30.1201 30.5802 26.6385L27.9971 31.1308C31.4787 29.5585 35.7464 29.5585 39.3402 31.6924L40.351 32.2539C40.9125 32.5908 41.0248 33.2647 40.8002 33.8262L40.2387 34.837C36.8694 40.7893 29.3448 42.8108 23.3925 39.3293L20.8094 43.8216C24.291 42.2493 28.5587 42.2493 32.1525 44.3831L33.1633 44.9447C33.7248 45.2816 33.8371 45.9554 33.6125 46.517L33.051 47.5277C29.6817 53.4801 22.0448 55.5016 16.2048 52.0201L13.6217 56.5124C17.1033 54.9401 21.371 54.9401 24.9648 57.0739L25.9756 57.6354C26.5371 57.9724 26.6494 58.6462 26.4248 59.2077L25.8633 60.2185C22.4941 66.1708 14.8571 68.1924 9.01713 64.7108L7.33252 67.6308C6.9956 68.1924 6.32175 68.3047 5.76021 68.0801C5.19867 67.7431 5.08637 67.0693 5.31098 66.5077L6.9956 63.5877C1.04329 60.2185 -0.97825 52.5816 2.50329 46.7416L2.6156 45.5062C2.95252 44.9447 3.62636 44.8324 4.1879 45.057L5.19867 45.6185C8.79252 47.7524 11.0387 51.3462 11.3756 55.277L13.9587 50.6724C8.00637 47.3031 5.98483 39.6662 9.46637 33.8262L10.0279 32.8154C10.3648 32.2539 11.0387 32.1416 11.6002 32.3662L12.611 32.9277C16.2048 35.0616 18.451 38.6554 18.7879 42.5862L21.4833 37.9816C15.531 34.6124 13.5094 26.9754 16.991 21.1354L17.5525 20.1247C17.8894 19.5631 18.5633 19.4508 19.1248 19.6754L20.1356 20.237C23.7294 22.3708 25.9756 25.9647 26.3125 29.8954L29.0079 25.2908C23.0556 21.9216 21.0341 14.2847 24.5156 8.44467V7.54621C24.8525 6.98467 25.5264 6.87236 26.0879 7.09698L27.0987 7.65851C30.6925 9.79236 32.9387 13.4985 33.2756 17.317L34.3987 15.4077L34.2864 14.6216C33.1633 7.88313 37.6556 1.48159 44.3941 0.358514L45.4048 0.246207ZM32.0402 23.8308L31.591 24.617C36.4202 27.4247 42.5971 25.7401 45.4048 20.9108C40.8002 18.2154 35.0725 19.5631 32.0402 23.8308ZM24.7402 36.5216L24.4033 37.1954C29.2325 40.0031 35.4094 38.3185 38.2171 33.4893C33.5002 30.9062 27.6602 32.2539 24.7402 36.5216ZM17.3279 49.3247L16.991 49.8862C21.8202 52.6939 27.9971 51.0093 30.8048 46.1801C26.0879 43.4847 20.2479 44.9447 17.3279 49.3247ZM9.80329 62.2401L9.69098 62.4647C14.5202 65.2724 20.6971 63.5877 23.5048 58.7585C18.7879 56.0631 12.7233 57.6354 9.80329 62.2401ZM44.6187 2.71698C39.1156 3.61544 35.4094 8.8939 36.3079 14.397C41.9233 13.3862 45.6294 8.22005 44.6187 2.71698ZM25.9756 9.68005C30.8048 12.4877 32.4894 18.6647 29.6818 23.4939C24.8525 20.6862 23.1679 14.5093 25.9756 9.68005ZM18.6756 22.2585C23.5048 25.0662 25.1894 31.2431 22.3818 36.0724C17.5525 33.2647 15.8679 27.0877 18.6756 22.2585ZM11.3756 34.9493C16.2048 37.757 17.8894 43.9339 15.0818 48.7631C10.2525 45.9554 8.5679 39.7785 11.3756 34.9493ZM4.0756 47.5277C8.90483 50.3354 10.5894 56.5124 7.78175 61.3416C2.95252 58.6462 1.2679 52.357 4.0756 47.5277ZM35.1848 46.0677C35.5218 45.5062 36.1956 45.3939 36.7571 45.6185L37.7679 46.1801C41.4741 48.3139 43.6079 52.0201 43.9448 55.9508L46.6402 51.2339H46.5279C40.5756 47.8647 38.5541 40.2277 42.0356 34.3877L42.5971 33.377C42.9341 32.8154 43.6079 32.7031 44.1694 32.9277L45.1802 33.4893C48.7741 35.6231 51.0202 39.3293 51.3571 43.1477L52.4802 41.2385L52.3679 40.4524C51.2448 33.7139 55.7371 27.3124 62.4756 26.1893L63.5987 25.9647C64.1602 25.8524 64.8341 26.3016 64.9464 26.8631L65.171 27.9862C66.2941 34.7247 61.8018 41.1262 55.0633 42.2493L54.5017 42.3616L53.1541 44.1585C56.6356 42.5862 60.9033 42.5862 64.4971 44.7201L65.5079 45.2816C66.0694 45.6185 66.1817 46.2924 65.9571 46.8539L65.3956 47.8647C62.0264 53.7047 54.5018 55.8385 48.5494 52.4693L45.9664 56.9616C49.4479 55.3893 53.6033 55.5016 57.1971 57.5231L58.2079 58.0847C58.7694 58.4216 58.8817 59.0954 58.6571 59.657L58.0956 60.6677C54.7264 66.5077 47.2017 68.5293 41.3617 65.2724L39.4525 68.1924C39.1156 68.7539 38.4417 68.8662 37.8802 68.6416C37.3187 68.3047 37.2064 67.6308 37.431 67.0693L39.2279 63.9247H39.1156C33.1633 60.5554 31.1418 52.9185 34.6233 47.0785L35.1848 46.0677ZM42.3725 63.1385C47.2017 65.8339 53.2664 64.1493 56.0741 59.4324C51.6941 56.8493 46.0787 58.0847 43.0464 61.9031L42.3725 63.1385ZM36.6448 48.0893C41.4741 50.897 43.1587 57.0739 40.351 61.9031C35.5217 59.0954 33.8371 52.9185 36.6448 48.0893ZM50.2341 49.437L49.6725 50.4477C54.5018 53.1431 60.6787 51.5708 63.3741 46.7416C58.8817 44.1585 53.2664 45.3939 50.2341 49.437ZM62.5879 28.5477C57.0848 29.4462 53.3787 34.7247 54.2771 40.2277C59.8925 39.217 63.5987 34.0508 62.5879 28.5477ZM43.9448 35.5108C48.7741 38.3185 50.4587 44.4954 47.651 49.3247C42.8217 46.517 41.1371 40.3401 43.9448 35.5108Z" fill="white"/>
</svg>
