<svg width="57" height="56" viewBox="0 0 57 56" fill="none" xmlns="http://www.w3.org/2000/svg">
<path d="M28.5 4.66699C15.3829 4.66699 4.74998 15.1133 4.74998 28.0003C4.74998 31.715 5.65723 35.2127 7.22711 38.33L4.84023 47.7077C4.29636 49.8427 6.26523 51.7793 8.44073 51.245L17.9859 48.9C21.1589 50.4423 24.719 51.3337 28.5 51.3337C41.6171 51.3337 52.25 40.8873 52.25 28.0003C52.25 15.1133 41.6171 4.66699 28.5 4.66699Z" fill="#0D9DEA" fill-opacity="0.64"/>
<path d="M38.9334 31.4231C37.012 29.5354 33.896 29.5354 31.9746 31.4231L30.7491 32.6271L23.7904 25.7904L25.0159 24.5864C26.9372 22.6987 26.9372 19.6374 25.0159 17.7497C23.0945 15.8621 19.9785 15.8621 18.0571 17.7497C16.8292 18.9561 16.3946 20.6407 16.7366 22.1924C17.0287 24.3367 18.1759 29.2601 22.6955 33.7004C27.2151 38.1407 32.2264 39.2677 34.409 39.5547C35.9884 39.8907 37.7031 39.4637 38.931 38.2574C40.8547 36.3697 40.8547 33.3107 38.9334 31.4231Z" fill="black"/>
</svg>
