<svg width="57" height="50" viewBox="0 0 57 50" fill="none" xmlns="http://www.w3.org/2000/svg">
<path d="M6.94924 27.2875L14.2761 29.8063C15.0504 30.073 15.6489 30.6292 15.9101 31.3209L18.9667 39.4834C19.6175 41.223 22.0566 41.8459 23.6692 40.6834L28.9607 36.873C29.6305 36.3896 30.6042 36.4146 31.2431 36.9313L38.0142 42.4105C40.4724 44.4001 44.4647 43.2605 45.1179 40.3834L52.193 9.21463C52.6347 7.26672 50.4189 5.67713 48.3289 6.4438L6.87561 21.6521C4.00661 22.7084 4.05174 26.2917 6.94924 27.2875Z" fill="#0D9DEA" fill-opacity="0.64"/>
<path d="M27.2128 33.8982L43.814 14.8087C44.593 13.9128 43.3129 12.7628 42.275 13.4232L15.3591 30.5107C15.5919 30.7503 15.7961 31.0149 15.9101 31.3212L18.9668 39.4837C19.266 40.2816 19.9476 40.8316 20.748 41.0941C22.8926 41.6274 27.2128 33.8982 27.2128 33.8982Z" fill="black"/>
</svg>
