<svg width="640" height="361" viewBox="0 0 640 361" fill="none" xmlns="http://www.w3.org/2000/svg">
<path d="M150.95 153.652C151.057 153.671 151.167 153.694 151.278 153.713C152.476 153.941 153.135 154.835 153.789 155.844C154.135 156.377 154.459 156.928 154.76 157.488C155.696 159.242 154.516 162.458 153.329 163.919C152.849 164.513 152.248 164.996 151.654 165.472C150.406 166.476 149.047 167.394 147.845 168.44C146.703 169.437 145.839 170.697 144.774 171.77C144.439 172.109 143.332 172.813 143.031 172.013C142.959 171.823 143.039 171.61 143.118 171.42C143.294 171.024 145.889 166.804 146.178 167.051C146.117 167.002 146.06 166.944 146.003 166.891C146.014 166.899 143.697 168.999 143.488 169.167C142.411 170.023 141.246 170.769 140.017 171.386C139.458 171.667 138.651 171.469 138.883 170.682C138.978 170.362 139.225 170.115 139.465 169.879C141.121 168.261 142.757 166.64 144.485 165.103C144.428 165.03 144.37 164.958 144.317 164.886C144.363 164.954 140.729 167.405 140.462 167.588C139.789 168.048 139.119 168.516 138.441 168.965C138.088 169.197 137.593 169.635 137.17 169.654C136.318 169.696 136.52 168.695 136.896 168.223C137.772 167.123 138.757 166.107 139.834 165.202C140.07 165.004 142.898 162.952 142.883 162.933C142.841 162.869 142.795 162.808 142.749 162.747C142.563 162.477 138.046 165.399 137.623 165.704C137.258 165.97 135.515 167.051 135.69 165.704C135.717 165.506 135.85 165.342 135.979 165.19C137.323 163.63 138.875 162.252 140.58 161.099C140.911 160.875 143.83 159.273 143.065 158.744C142.86 158.603 142.582 158.637 142.335 158.683C141.28 158.884 140.318 159.413 139.244 159.569C137.878 159.767 136.912 158.949 138.339 157.872C138.776 157.545 139.286 157.336 139.789 157.119C142.35 155.996 144.759 154.443 147.495 153.857C148.629 153.614 149.812 153.439 150.954 153.648L150.95 153.652Z" fill="#F7967C"/>
<path d="M229.718 72.5177C228.694 79.3258 224.904 86.4269 222.43 92.1656C217.198 104.302 210.648 116.647 202.215 126.884C198.421 131.484 186.871 139.073 181.882 132.013C179.96 129.296 181.098 125.533 182.544 122.534C189.562 108.012 198.6 95.2367 203.665 79.771C204.936 75.8894 206.439 72.0458 208.483 68.5028C210.766 64.5451 213.179 61.7594 217.342 60.0127C220.459 58.7074 223.804 57.9462 227.176 57.7826C227.67 57.7598 228.184 57.7522 228.629 57.9653C229.368 58.3192 229.706 59.1755 229.912 59.967C230.909 63.7649 230.292 68.6627 229.714 72.5215L229.718 72.5177Z" fill="#F7967C"/>
<path d="M153.123 151.151C163.368 141.112 173.574 131.073 183.51 120.722C187.575 116.491 193.705 112.042 199.25 116.787C201.309 118.549 202.439 121.339 202.188 124.037C201.731 128.935 198.93 130.944 195.304 133.726C191.144 136.919 186.912 140.016 182.616 143.019C173.951 149.077 165.015 154.751 155.848 160.015C155.532 160.197 154.954 160.623 154.577 160.597C154.208 160.57 153.641 160.064 153.336 159.859C151.97 158.945 148.998 156.445 149.915 154.489C150.082 154.131 150.368 153.85 150.649 153.576C151.475 152.765 152.301 151.958 153.127 151.148L153.123 151.151Z" fill="#F7967C"/>
<path d="M275.563 82.3549C275.129 91.3169 273.607 100.229 271.042 108.826C270.524 110.558 269.931 112.251 269.303 113.933C265.825 123.23 263.735 131.781 262.297 141.588C262.156 142.574 262.004 143.578 261.551 144.465C260.706 146.113 258.963 147.087 257.266 147.833C250.18 150.946 243.92 150.497 236.552 150.261C228.043 149.991 220.154 149.104 211.965 146.562C208.955 145.63 205.286 144.187 203.768 141.196C202.39 138.487 203.242 134.601 203.768 131.713C205.427 122.519 207.345 113.408 208.064 104.069C208.536 97.9309 208.559 91.6975 210.104 85.738C211.105 81.8716 212.969 78.2449 214.282 74.4622C215.317 71.4711 216.353 68.4875 217.388 65.5002C218.153 63.293 218.758 59.3124 220.931 58.0109C221.878 57.4439 222.993 57.2383 224.085 57.0709C225.745 56.8121 227.366 56.5724 228.972 56.306C231.362 55.9178 233.729 55.4764 236.183 54.8561C240.445 53.7791 244.574 53.9922 248.913 53.9922C251.12 54.1521 253.323 54.3842 255.496 54.8028C256.98 55.0882 258.449 55.4155 259.93 55.7047C260.417 55.8037 260.908 55.8912 261.399 55.9787C263.324 56.3098 265.315 56.58 267.175 57.2383C268.721 57.7901 269.307 59.575 270.102 60.9145C270.932 62.3187 271.563 63.7763 272.256 65.2338C272.397 65.5306 272.537 65.8236 272.686 66.1205C273.504 67.7645 274.303 69.2829 274.771 71.0905C275.719 74.7514 275.757 78.5912 275.574 82.3473L275.563 82.3549Z" fill="#67CAEA"/>
<path d="M312.058 168.071C310.836 168.017 309.702 168.626 308.591 169.463C308.081 169.848 307.59 170.251 307.115 170.677C305.638 172.006 305.642 175.431 306.255 177.208C306.502 177.931 306.901 178.589 307.297 179.24C308.937 181.949 310.406 185.568 312.792 187.703C313.097 187.974 313.432 188.225 313.824 188.331C313.946 188.366 314.075 188.381 314.193 188.339C314.425 188.255 314.524 187.966 314.478 187.726C314.433 187.486 314.28 187.281 314.136 187.083C313.888 186.741 311.78 182.646 311.898 182.6C311.974 182.574 312.047 182.543 312.123 182.509C312.009 182.558 314.844 186.999 315.064 187.338C315.483 187.97 315.924 188.628 316.594 188.978C317.017 189.203 317.645 189.229 317.88 188.811C318.059 188.491 317.907 188.095 317.751 187.768C317.108 186.436 316.263 185.253 315.567 183.959C315.099 183.091 314.631 182.223 314.162 181.356C314.242 181.306 314.318 181.257 314.398 181.207C314.421 181.192 316.073 183.974 316.229 184.248C316.921 185.47 317.774 186.604 318.76 187.604C318.954 187.802 319.159 187.996 319.414 188.107C319.669 188.213 319.985 188.221 320.202 188.05C320.396 187.897 320.476 187.635 320.464 187.388C320.453 187.14 320.358 186.908 320.255 186.684C319.798 185.667 319.125 184.762 318.588 183.784C317.869 182.478 317.146 181.173 316.415 179.872C316.476 179.826 316.541 179.784 316.602 179.738C317.226 180.701 317.915 181.634 318.535 182.57C319.068 183.373 319.551 184.332 320.194 185.051C320.541 185.439 320.86 185.584 321.37 185.496C321.606 185.454 322.112 185.108 321.99 184.796C321.363 183.167 320.639 181.58 319.817 180.043C319.049 178.601 318.094 177.398 317.199 176.047C317.165 175.994 317.131 175.921 317.176 175.88C317.226 175.83 317.31 175.88 317.359 175.929C317.861 176.424 318.387 176.903 318.995 177.257C319.981 177.828 320.925 178.011 321.774 177.158C322.131 177.345 321.53 176.176 321.511 176.154C321.176 175.72 320.521 175.598 320.114 175.267C318.76 174.159 317.641 172.417 316.491 171.088C315.688 170.164 314.863 169.216 313.797 168.611C313.196 168.269 312.617 168.105 312.058 168.078V168.071Z" fill="#F7967C"/>
<path d="M311.312 166.301C304.987 153.427 298.7 140.564 292.775 127.5C290.351 122.157 286.047 115.923 279.239 118.557C276.712 119.535 274.718 121.792 274.056 124.417C272.857 129.19 274.832 132.013 277.329 135.845C280.19 140.237 283.151 144.568 286.203 148.83C292.36 157.427 298.898 165.746 305.794 173.76C306.034 174.038 306.433 174.631 306.799 174.73C307.156 174.829 307.86 174.54 308.214 174.449C309.805 174.042 313.439 172.672 313.226 170.521C313.188 170.129 313.009 169.768 312.838 169.414C312.328 168.375 311.818 167.336 311.308 166.301H311.312Z" fill="#F7967C"/>
<path d="M285.118 139.464C276.83 140.644 273.443 126.16 271.411 120.482C270.638 118.325 269.946 116.136 269.303 113.937C267.24 106.874 265.695 99.6318 263.766 92.5535C263.507 91.6021 263.267 90.6431 263.054 89.6765C263.221 80.2959 263.75 71.2501 267.484 62.2462C267.647 61.8504 267.853 61.4166 268.054 60.9599C268.523 59.9058 268.873 59.0762 268.656 58.4216C268.633 58.3569 268.606 58.2884 268.572 58.2275C268.69 58.2466 268.808 58.2656 268.93 58.2884C271.517 58.7907 274.174 60.4956 275.395 62.1396C281.29 70.078 280.696 80.2958 282.154 89.5357C284.095 101.862 286.789 114.07 290.222 126.069C291.637 131.024 291.984 138.486 285.115 139.464H285.118Z" fill="#F7967C"/>
<path d="M247.173 349.853C246.975 351.322 246.344 352.486 244.311 352.817C240.768 353.392 237.111 352.981 236.97 348.803C236.647 339.178 233.412 329.349 231.319 319.93C229.032 309.636 226.741 299.338 224.454 289.044C223.229 283.538 221.17 276.984 225.858 272.509C228.869 269.636 233.226 268.582 237.389 268.544C241.697 268.502 246.774 270.093 247.968 274.229C248.303 275.386 248.281 276.615 248.254 277.822C247.767 300.898 247.268 323.949 247.268 347.025C247.253 348 247.287 348.981 247.169 349.857L247.173 349.853Z" fill="#F7967C"/>
<path d="M245.712 356.847C245.518 356.866 245.324 356.882 245.13 356.893C243.478 357.003 241.876 357.194 240.251 357.403C238.683 357.605 237.351 358.324 235.939 358.99C233.42 360.185 230.6 360.497 227.841 360.432C226.482 360.402 225.059 360.345 223.72 360.109C222.654 359.922 222.194 359.085 223.343 358.392C224.31 357.81 225.409 357.494 226.463 357.095C230.178 355.69 233.496 353.281 235.498 349.807C235.92 349.069 236.32 348.289 236.56 347.478C236.776 346.744 236.837 346.139 237.526 345.648C238.086 345.252 238.763 345.058 239.433 344.932C241.202 344.601 243.025 344.704 244.821 344.807C245.385 344.841 246.005 344.894 246.404 345.297C246.644 345.537 246.766 345.868 246.88 346.188C247.432 347.729 247.984 349.27 248.536 350.812C248.832 351.641 249.133 352.486 249.194 353.365C249.255 354.244 249.042 355.18 248.437 355.82C247.752 356.543 246.72 356.752 245.708 356.847H245.712Z" fill="#F7967C"/>
<path d="M249.399 353.723C249.289 352.817 249.118 351.919 248.912 351.033C248.513 349.309 248.007 347.653 247.71 345.906C247.664 345.64 247.584 345.328 247.333 345.225C247.219 345.18 247.093 345.187 246.972 345.199C245.297 345.328 243.619 345.457 241.944 345.591C239.92 345.747 237.888 345.906 235.894 346.302C235.936 346.599 235.894 346.972 236.16 347.117C236.366 347.227 236.765 347.101 236.978 347.071C237.99 346.923 239.007 346.789 240.026 346.69C242.329 346.466 244.639 346.382 246.953 346.42C246.96 346.42 246.968 346.42 246.975 346.42C247.002 346.633 247.036 346.85 247.055 347.063C247.246 349.229 245.799 350.701 244.768 352.406C244.292 353.194 243.912 354.035 243.649 354.918C243.535 355.299 243.337 355.862 243.299 356.349C241.697 356.638 240.114 357.026 238.607 357.643C237.119 358.248 235.703 359.077 234.158 359.538C233.489 359.736 232.788 359.778 232.092 359.804C231.864 358.096 231.331 356.49 230.471 354.99C230.288 354.671 226.239 356.722 225.584 357.026C225.025 357.285 224.466 357.544 223.906 357.803C223.587 357.951 223.259 358.103 222.997 358.335C222.46 358.807 221.969 360.295 222.707 360.733C222.844 360.813 223.267 360.725 223.423 360.733C224.69 360.775 225.961 360.733 227.228 360.733H233.865C234.687 360.535 235.464 360.185 236.278 359.911C237.545 359.485 238.561 358.453 239.836 358C241.016 357.578 242.222 357.468 243.444 357.453C243.292 358.499 243.227 359.546 243.254 360.607C243.254 360.657 243.276 360.699 243.307 360.733H247.634C247.672 360.699 247.698 360.649 247.706 360.588C247.877 359.264 247.695 358.191 248.623 357.129C248.863 356.855 249.141 356.6 249.293 356.273C249.304 356.25 249.312 356.231 249.32 356.208C249.628 355.447 249.487 354.515 249.388 353.731L249.399 353.723Z" fill="white"/>
<path d="M164.384 349.168C163.725 350.496 162.751 351.398 160.727 351.059C157.184 350.469 153.854 348.909 155.056 344.906C156.582 339.837 156.518 334.182 157.13 328.945C159.303 310.431 160.011 291.704 161.872 273.107C162.059 271.246 162.275 269.305 163.288 267.733C165.221 264.734 169.259 264.084 172.813 263.772C175.332 263.551 177.95 263.368 180.325 264.236C183.864 265.526 184.858 268.654 184.884 272.182C184.956 282.206 182.89 292.096 179.842 301.599C175.039 316.566 170.362 331.582 165.385 346.515C165.057 347.436 164.776 348.376 164.384 349.164V349.168Z" fill="#F7967C"/>
<path d="M160.757 355.329C160.567 355.283 160.376 355.234 160.194 355.184C158.592 354.762 157.016 354.427 155.41 354.108C153.858 353.799 152.366 354.05 150.817 354.233C148.046 354.557 145.276 353.955 142.684 353.008C141.41 352.543 140.078 352.037 138.883 351.383C137.935 350.865 137.764 349.925 139.077 349.636C140.18 349.392 141.322 349.446 142.449 349.404C146.418 349.263 150.334 348.045 153.34 345.393C153.979 344.83 154.607 344.221 155.094 343.524C155.536 342.896 155.787 342.345 156.594 342.101C157.248 341.903 157.952 341.937 158.63 342.033C160.414 342.288 162.104 342.965 163.775 343.638C164.3 343.852 164.867 344.103 165.118 344.609C165.267 344.913 165.278 345.267 165.282 345.606C165.312 347.242 165.339 348.879 165.369 350.515C165.385 351.398 165.4 352.292 165.175 353.145C164.951 353.997 164.452 354.815 163.672 355.226C162.789 355.691 161.75 355.561 160.757 355.329Z" fill="#F7967C"/>
<path d="M165.255 353.548C165.442 352.654 165.567 351.752 165.655 350.843C165.826 349.081 165.879 347.353 166.157 345.602C166.199 345.332 166.226 345.012 166.016 344.837C165.925 344.757 165.799 344.727 165.681 344.697C164.053 344.282 162.424 343.871 160.795 343.456C158.824 342.957 156.849 342.455 154.836 342.196C154.782 342.489 154.619 342.832 154.828 343.053C154.988 343.224 155.406 343.231 155.62 343.273C156.628 343.46 157.633 343.658 158.63 343.89C160.883 344.411 163.097 345.077 165.278 345.85C165.286 345.85 165.293 345.85 165.301 345.853C165.259 346.067 165.221 346.28 165.171 346.489C164.658 348.601 162.816 349.533 161.294 350.816C160.59 351.41 159.962 352.087 159.429 352.837C159.201 353.16 158.831 353.628 158.637 354.081C157.028 353.841 155.403 353.704 153.778 353.803C152.176 353.902 150.566 354.233 148.956 354.176C148.256 354.149 147.582 353.967 146.913 353.765C147.244 352.072 147.251 350.382 146.92 348.685C146.848 348.319 142.357 348.97 141.638 349.046C141.025 349.111 140.413 349.179 139.8 349.244C139.45 349.282 139.092 349.32 138.765 349.457C138.107 349.731 137.163 350.987 137.722 351.638C137.825 351.76 138.255 351.813 138.4 351.866C139.583 352.311 140.805 352.681 142.007 353.084L148.294 355.207C149.135 355.284 149.984 355.2 150.844 355.204C152.179 355.204 153.473 354.553 154.828 354.53C156.08 354.507 157.26 354.793 158.42 355.166C157.941 356.109 157.545 357.08 157.233 358.092C157.218 358.141 157.226 358.187 157.245 358.229L161.347 359.614C161.396 359.591 161.434 359.557 161.461 359.5C162.047 358.301 162.218 357.228 163.436 356.517C163.752 356.334 164.095 356.182 164.346 355.919C164.361 355.904 164.376 355.885 164.395 355.866C164.928 355.242 165.095 354.317 165.255 353.541V353.548Z" fill="white"/>
<path d="M265.356 164.618C265.725 151.01 262.848 135.89 251.991 127.674C246.172 123.271 239.65 121.601 233.055 121.795C232.305 121.635 231.536 121.563 230.771 121.589C229.222 121.639 228.891 121.536 227.343 121.604C226.829 121.627 226.315 121.65 225.801 121.684C220.23 122.069 214.891 123.979 209.639 125.867C208.836 126.156 208.155 126.35 207.63 127.02C183.05 158.4 169.898 196.985 157.172 234.758C152.956 247.275 151.312 260.058 146.696 272.262C146.437 272.951 146.17 273.67 146.243 274.404C146.463 276.577 149.222 277.327 151.399 277.453C158.341 277.86 165.316 277.426 172.246 277.985C180.569 278.659 186.338 281.22 193.047 285.692C199.939 290.285 208.962 294.559 217.433 293.173C227.179 291.579 234.531 282.879 244.216 280.931C250.377 279.69 257.026 281.304 262.89 279.043C263.469 278.819 264.096 278.492 264.26 277.894C264.408 277.35 264.115 276.798 263.838 276.307C254.541 259.776 254.388 239.633 257.026 220.853C259.663 202.073 264.839 183.581 265.356 164.622V164.618Z" fill="#67CAEA"/>
<path d="M259.926 55.7125C259.918 55.8039 259.907 55.8952 259.891 55.9903C259.739 57.0901 259.374 58.2128 258.822 59.3468C252.98 71.2848 243.044 80.7644 232.784 89.049C232.48 89.2926 232.157 89.5476 231.768 89.6047C231.201 89.6922 230.768 89.3725 230.448 88.893C230.128 88.4135 229.927 87.7704 229.831 87.2034C228.606 79.95 228.058 72.5749 228.203 65.2188C228.256 62.5435 228.286 59.2707 228.971 56.3138C231.361 55.9256 233.728 55.4842 236.183 54.8639C240.445 53.7869 244.574 54 248.912 54C251.12 54.1599 253.323 54.392 255.496 54.8106C256.98 55.096 258.449 55.4233 259.929 55.7125H259.926Z" fill="#F7967C"/>
<path d="M224.686 35.3189C223.735 35.4407 222.445 36.5291 222.11 37.4157C221.851 38.0969 221.87 38.858 222.004 39.5735C222.434 41.853 224.074 43.8699 226.224 44.749C226.829 44.9964 227.499 45.16 228.142 45.0344C230.802 44.5131 230.14 40.5173 229.569 38.7439C229.223 37.6669 228.595 36.6432 227.643 36.0343C227.084 35.6766 226.437 35.4787 225.782 35.3684C225.425 35.3075 225.048 35.2732 224.686 35.3189Z" fill="#DB634F"/>
<path d="M232.302 50.5065C232.275 52.3902 232.598 54.4224 232.751 56.2452C232.96 58.8216 233.283 61.3903 233.717 63.94C234.299 67.3498 241.039 65.6449 243.193 65.1921C246.999 64.3967 250.808 63.5975 254.613 62.8022C255.504 62.6157 256.49 62.3683 256.988 61.6034C257.643 60.5912 257.102 59.263 256.608 58.1632C254.914 54.4033 253.86 50.3885 252.92 46.3737C252.524 44.6878 252.121 42.9297 251.032 41.5825C250.462 40.8747 249.723 40.3153 248.909 39.9119C247.303 39.1127 246.04 39.7368 244.437 40.0983C242.919 40.4408 241.446 40.9812 240.061 41.689C237.721 42.884 235.62 44.566 233.984 46.6286C233.325 47.4582 232.469 48.3526 232.362 49.4257C232.328 49.7796 232.309 50.1411 232.302 50.5103V50.5065Z" fill="#F7967C"/>
<path d="M232.979 48.8282C232.865 50.613 233.23 52.7974 234.463 54.1636C235.235 55.0198 236.324 55.526 237.431 55.8494C241.058 56.9074 245.244 56.0625 247.995 53.471C249.974 51.6101 251.093 48.8625 251.017 46.1491C250.945 43.5499 250.21 40.8975 247.866 39.4666C245.773 38.1917 244.456 39.2573 242.519 40.2772C241.469 40.829 240.472 41.4835 239.543 42.2218C238.778 42.8307 238.124 43.6413 237.279 44.136C235.498 45.1749 233.786 45.4565 233.158 47.7246C233.059 48.0823 233.002 48.4515 232.975 48.8206L232.979 48.8282Z" fill="#DB634F"/>
<path d="M221.383 18.7301C223.453 13.9046 228.545 10.6737 233.797 10.0648C246.252 8.62254 255.576 18.2163 257.193 29.9982C258.377 38.6178 255.393 48.3866 247.036 51.9296C242.504 53.8514 237.309 55.4649 232.701 52.8886C227.103 49.7604 224.603 42.2711 222.521 36.5933C220.553 31.2274 219.138 25.1157 221.075 19.533C221.17 19.2628 221.273 18.9964 221.387 18.7339L221.383 18.7301Z" fill="#F7967C"/>
<path d="M257.444 37.5559C257.836 37.6092 258.255 37.6168 258.719 37.6473C259.461 37.6967 260.417 38.005 261.14 37.7196C261.6 37.5369 261.988 37.0346 262.293 36.6616C263.191 35.5733 263.366 34.0625 263.16 32.7039C262.894 30.9495 262.163 29.2332 262.323 27.4637C262.395 26.6873 262.639 25.9338 262.753 25.1613C263.054 23.1558 262.464 21.078 261.395 19.3541C260.321 17.6301 258.795 16.2297 257.148 15.0462C256.196 14.365 255.192 13.7371 254.377 12.8961C252.509 10.9552 251.74 7.95647 249.403 6.61692C247.809 5.70359 245.834 5.79873 244.03 6.15645C242.226 6.51417 240.453 7.11545 238.615 7.13067C237.469 7.13828 236.335 6.91756 235.19 6.83384C233.755 6.72348 232.305 6.83004 230.897 7.13829C229.824 7.37423 228.549 7.6292 227.537 8.03639C225.413 8.89263 223.712 11.2445 222.997 13.3413C222.609 14.4792 222.392 15.5904 221.908 16.694C221.387 17.8813 220.801 19.0496 220.021 20.0885C219.667 20.5604 219.271 21.0019 218.944 21.489C218.346 22.3795 217.973 23.4184 217.871 24.4877C217.756 25.7055 217.985 26.9233 218.008 28.1448C218.042 29.9106 217.764 31.6269 218.43 33.3128C218.97 34.6866 220.519 36.1745 222.102 36.1745C223.107 36.1745 223.118 34.8692 223.118 34.15C223.118 33.6058 222.966 33.0502 223.031 32.5136C223.099 31.9161 223.412 31.3567 223.666 30.8201C224.58 28.8793 224.96 26.7863 224.93 24.6514C224.926 24.3393 224.907 21.1427 225.109 21.1465C226.346 21.1655 227.582 21.2226 228.819 21.0894C229.409 21.0285 229.972 20.8344 230.547 20.7545C231.175 20.667 231.78 20.7202 232.404 20.5452C233.169 20.3321 233.877 19.9591 234.619 19.6699C235.688 19.2551 236.86 19.0192 237.987 19.2437C239.57 19.5596 240.837 20.7317 242.344 21.3063C243.459 21.7287 244.684 21.8162 245.784 22.2767C247.086 22.8247 248.144 23.8864 248.779 25.1461C249.403 26.3867 249.632 27.7871 250.18 29.062C250.671 30.1998 251.416 31.2273 252.345 32.0455C252.726 32.3804 253.144 32.6849 253.445 33.0959C253.94 33.7656 254.073 34.6295 254.381 35.402C254.845 36.5589 256.242 37.3885 257.448 37.5559H257.444Z" fill="#ECECEC"/>
<path d="M245.967 34.8394C245.217 34.5007 244.384 34.1773 243.543 34.3105C243.098 34.379 242.679 34.5388 242.302 34.7899C242.131 34.9041 241.556 35.3075 241.397 35.6119C241.362 35.6804 241.343 35.7413 241.359 35.7946C241.477 36.2779 242.181 35.4559 242.325 35.3494C242.702 35.0601 243.113 34.7899 243.57 34.7176C243.258 35.0069 243.25 35.5434 243.254 35.943C243.254 36.1599 243.284 36.3845 243.398 36.571C243.528 36.7764 243.752 36.9058 243.984 36.9819C244.384 37.1113 244.841 37.0999 245.214 36.9096C245.8 36.609 246.112 35.8327 245.91 35.2086C246.085 35.1172 246.192 34.946 245.963 34.8432L245.967 34.8394Z" fill="#272443"/>
<path d="M232.944 37.6933C232.849 37.3014 232.56 37.1568 232.1 36.9703C231.099 36.5669 229.9 36.6126 229.006 37.2595C228.831 37.347 228.682 37.4764 228.58 37.6401C228.408 37.8303 228.252 38.0435 228.127 38.2946C227.978 38.5876 228.408 38.58 228.553 38.5077C228.842 38.3631 229.109 37.8798 229.383 37.6705C229.744 37.3927 230.178 37.2557 230.623 37.2329C230.33 37.2481 230.239 37.9711 230.25 38.1576C230.277 38.5382 230.376 38.9301 230.646 39.2118C230.924 39.501 231.342 39.6456 231.738 39.5733C232.503 39.4325 233.123 38.4354 232.948 37.6933H232.944Z" fill="#272443"/>
<path d="M238.889 31.6155C239.844 30.5576 241.716 30.1238 243.212 30.0286C244.883 29.9183 246.561 30.3292 247.893 31.3758C247.9 31.3834 247.908 31.391 247.916 31.3986C247.95 31.4253 247.973 31.4557 247.98 31.4899C248.007 31.5775 247.954 31.665 247.862 31.7373C247.714 31.8781 247.463 31.9923 247.261 31.9542C245.046 31.5546 242.877 31.8933 240.822 32.4794C240.308 32.6278 239.361 33.1606 238.79 32.917C238.143 32.643 238.619 31.9124 238.889 31.6155Z" fill="white"/>
<path d="M232.564 32.9822C231.464 32.2858 229.714 32.4913 228.378 32.8909C226.882 33.3361 225.512 34.2799 224.599 35.7146C224.591 35.726 224.591 35.7336 224.584 35.745C224.561 35.7831 224.55 35.8173 224.55 35.8516C224.55 35.9429 224.614 36.0076 224.713 36.0494C224.877 36.137 225.124 36.1598 225.295 36.0609C227.141 34.9497 229.131 34.5615 231.076 34.4435C231.563 34.4131 232.526 34.611 232.967 34.1885C233.466 33.7128 232.868 33.1763 232.56 32.9784L232.564 32.9822Z" fill="white"/>
<path d="M235.704 45.8974C235.791 45.787 235.909 45.7185 236.042 45.6805C236.343 45.5929 236.72 45.6462 237.005 45.6272C237.576 45.5892 238.143 45.7109 238.714 45.6767C238.744 45.6767 238.775 45.6729 238.805 45.6691C238.813 45.6691 238.82 45.6691 238.828 45.6691C238.934 45.6615 239.041 45.65 239.148 45.6272C239.182 45.6234 239.216 45.6158 239.254 45.6082C239.391 45.5815 239.532 45.5473 239.665 45.5092C239.692 45.5016 239.718 45.494 239.749 45.4826C239.756 45.4788 239.768 45.4788 239.775 45.4712C240.32 45.2885 240.807 44.9612 241.355 44.7862C241.625 44.6986 241.952 44.5084 242.268 44.4741C242.405 44.4627 242.538 44.4779 242.664 44.5502C242.869 44.6644 242.968 44.8927 242.999 45.1325C243.006 45.2124 243.01 45.2961 243.003 45.376C242.923 46.5748 241.644 47.3854 240.651 47.8078C239.197 48.4243 236.526 48.4433 235.7 46.7879C235.662 46.7118 235.631 46.6319 235.612 46.5443C235.551 46.316 235.567 46.0724 235.707 45.8974H235.704Z" fill="white"/>
<path d="M235.243 41.8368C235.216 39.8198 235.898 37.8029 234.764 35.9496C234.592 35.668 235.232 35.4625 235.384 35.7098C235.993 36.7069 236.153 37.8105 236.107 38.9674C236.057 40.2765 235.194 43.5074 237.195 43.7319C237.637 43.7814 237.241 44.2114 236.933 44.1772C235.711 44.0402 235.254 42.9594 235.239 41.8368H235.243Z" fill="#DB634F"/>
<path d="M255.23 35.4707C255.858 34.7248 256.798 34.2491 257.768 34.1882C258.069 34.1692 258.381 34.1882 258.666 34.2909C259.222 34.485 259.636 34.9721 259.88 35.5087C260.694 37.3316 260.165 39.8166 259.05 41.3997C258.27 42.5071 257.19 43.1426 255.884 43.4318C255.173 43.5879 254.335 43.5993 253.81 43.0931C253.296 42.5984 253.266 41.7878 253.357 41.0762C253.498 39.9802 253.985 39.1316 254.32 38.1193C254.636 37.1603 254.522 36.3155 255.233 35.4707H255.23Z" fill="#F7967C"/>
<path d="M233.42 14.9889C232.595 15.75 231.609 16.2828 230.498 16.4731C229.581 16.6329 228.667 16.4541 227.754 16.6177C227.313 16.6976 227.568 17.1429 227.933 17.0744C229.12 16.8613 230.273 17.1048 231.453 16.7395C232.427 16.4388 233.264 15.9099 234.01 15.2249C234.28 14.9775 233.637 14.7872 233.424 14.9851L233.42 14.9889Z" fill="#C4B4B3"/>
<path d="M233.713 12.8348C232.476 13.6454 230.946 14.475 229.504 13.6302C229.245 13.478 228.671 13.7596 229.025 13.9651C230.787 15.0002 232.632 14.1934 234.193 13.1697C234.539 12.9414 233.964 12.6674 233.713 12.8348Z" fill="#C4B4B3"/>
<path d="M257.513 17.5393C257.3 17.3376 256.661 17.5278 256.927 17.779C259.028 19.7617 259.964 22.593 259.473 25.4357C259.42 25.7364 260.097 25.7554 260.15 25.4357C260.653 22.5169 259.663 19.5714 257.509 17.5393H257.513Z" fill="#C4B4B3"/>
<path d="M255.485 20.024C255.336 19.7614 254.667 19.8642 254.83 20.1496C255.77 21.805 256.025 23.6469 255.53 25.4887C255.439 25.8236 256.105 25.9074 256.185 25.6143C256.703 23.6925 256.47 21.7555 255.485 20.024Z" fill="#C4B4B3"/>
<path d="M257.182 41.6662C257.182 41.6662 257.163 41.651 257.152 41.6434C257.129 41.6281 257.098 41.6167 257.075 41.6015C257.075 41.6015 257.075 41.6015 257.072 41.6015C256.592 41.3389 255.93 41.4569 255.565 41.8603C255.492 41.9402 255.443 42.0277 255.397 42.119C255.294 42.2827 255.222 42.4654 255.199 42.6709C255.123 43.3406 255.527 43.8848 256.2 43.9609C256.718 44.018 257.171 43.7783 257.445 43.4281C257.996 42.9182 257.787 42.0429 257.182 41.6662Z" fill="#67CAEA"/>
<path d="M259.694 133.102C256.524 130.423 253.54 127.527 250.758 124.452C250.796 124.368 250.766 124.269 250.614 124.193C250.56 124.167 250.503 124.136 250.45 124.109C244.335 117.271 239.228 109.534 235.365 101.2C233.763 97.7409 232.381 94.1827 231.213 90.5522C231.122 90.263 230.452 90.3467 230.559 90.6778C234.417 102.677 240.727 113.85 248.989 123.364C241.176 119.292 234.018 114.101 228.538 107.11C222.883 99.8948 219.21 91.1725 218.426 82.0126C217.955 76.5212 218.514 70.9803 220.135 65.7097C220.238 65.3786 219.568 65.2949 219.481 65.5841C216.585 75.0066 217.091 85.2701 220.607 94.4567C223.766 102.711 229.23 110.006 236.031 115.623C240.274 119.132 245.02 121.971 249.933 124.433C250.294 124.836 250.659 125.24 251.029 125.635C253.597 128.402 256.337 131.005 259.218 133.441C259.454 133.639 260.017 133.376 259.698 133.106L259.694 133.102Z" fill="#4F87C9"/>
<path d="M260.478 135.522C243.025 133.041 225.063 131.355 208.342 125.471C208.033 125.361 207.588 125.742 208.007 125.89C224.785 131.792 242.793 133.493 260.306 135.986C260.675 136.039 260.923 135.587 260.478 135.526V135.522Z" fill="#4F87C9"/>
<path d="M259.454 142.57C240.906 141.481 222.494 138.521 204.54 133.745C204.175 133.646 203.931 134.087 204.361 134.201C218.48 137.958 232.884 140.602 247.417 142.083C251.424 142.49 255.439 142.81 259.458 143.046C259.88 143.068 259.872 142.596 259.458 142.57H259.454Z" fill="#4F87C9"/>
<path d="M262.483 176.23C261.913 180.949 257.228 183.369 253.483 185.413C249.153 187.772 245.381 190.52 242.158 194.291C235.491 202.089 231.697 211.77 225.95 220.184C223.092 224.37 219.759 228.347 215.592 231.285C213.567 232.712 211.36 233.873 209.008 234.66C206.238 235.589 203.322 235.924 200.43 236.205C195.064 236.727 189.672 237.21 185.079 240.304C181.083 242.998 178.153 246.964 175.611 250.99C170.066 259.781 164.167 272.906 152.028 273.195C151.891 273.195 151.693 273.264 151.689 273.431C151.674 274.337 151.655 275.243 151.639 276.148C151.632 276.464 152.313 276.468 152.317 276.148L152.363 273.656C162.344 273.218 168.646 263.94 173.24 256.143C175.843 251.721 178.453 247.173 182.107 243.512C183.922 241.693 186.011 240.137 188.359 239.071C191.213 237.777 194.334 237.298 197.428 236.97C202.908 236.392 208.308 236.042 213.255 233.37C217.544 231.057 221.094 227.586 224.085 223.78C230.623 215.465 234.44 205.426 240.784 196.982C242.577 194.596 244.567 192.343 246.835 190.406C248.939 188.606 251.272 187.217 253.696 185.896C257.658 183.738 262.563 181.223 263.165 176.23C263.203 175.922 262.525 175.91 262.487 176.23H262.483Z" fill="#4F87C9"/>
<path d="M236.32 132.127C236.274 131.884 236.187 131.656 236.046 131.45C235.901 131.241 235.707 131.054 235.441 130.902C234.292 130.232 232.826 130.251 231.548 130.05C228.85 129.623 226.148 129.19 223.461 128.687C222.182 128.451 220.995 127.957 220.154 128.946C220.059 129.056 219.971 129.182 219.888 129.33C219.88 129.346 219.869 129.365 219.861 129.38C219.359 130.286 219.252 131.363 218.955 132.341C218.681 133.246 217.776 135.355 217.696 136.9C217.684 137.075 217.684 137.238 217.699 137.398C217.764 138.136 218.103 138.658 218.925 138.715C221.57 138.894 224.203 139.24 226.821 139.647C228.13 139.853 229.44 140.077 230.749 140.306C231.723 140.473 233.184 141.002 234.17 140.812C234.36 140.774 234.52 140.659 234.661 140.481C234.763 140.359 234.851 140.203 234.927 140.028C235.479 138.806 235.566 136.515 235.726 135.697C235.898 134.803 236.369 133.631 236.366 132.618C236.366 132.451 236.35 132.287 236.32 132.127ZM226.018 130.757C226.174 130.796 226.327 130.83 226.467 130.853C226.505 130.86 226.54 130.864 226.578 130.872C226.585 130.872 226.593 130.875 226.601 130.875C227.822 131.077 229.048 131.275 230.269 131.473C231.144 131.618 232.621 131.519 233.428 132.135H233.432C233.565 132.242 233.679 132.36 233.77 132.508C234.189 133.189 233.709 134.312 233.569 135.065C233.378 136.097 233.188 137.128 232.971 138.155C232.887 138.559 232.842 138.799 232.693 138.924C232.552 139.042 232.324 139.065 231.886 139.023C231.293 138.97 230.749 138.684 230.166 138.589C228.876 138.38 227.582 138.182 226.289 137.996C225.17 137.832 224.051 137.68 222.932 137.535C222.281 137.455 221.052 137.569 220.618 137.029C219.663 135.849 220.999 132.219 221.604 131.054C221.969 130.346 222.643 130.164 223.408 130.202C224.26 130.248 225.227 130.571 226.018 130.757Z" fill="#EEE1E0"/>
<path d="M224.203 133.284C223.807 133.029 223.396 132.862 222.94 132.755C222.727 132.706 222.468 132.721 222.243 132.778C222.201 132.782 222.156 132.786 222.118 132.793C221.889 132.839 221.585 132.961 221.44 133.159C221.113 133.604 221.398 134.042 221.847 134.243C222.243 134.422 222.673 134.548 223.103 134.609C223.514 134.666 224.104 134.62 224.382 134.243C224.618 133.92 224.549 133.505 224.207 133.284H224.203Z" fill="#EEE1E0"/>
<path d="M446.134 65.1414C446.405 66.2793 446.739 67.4095 447.097 68.5131C450.012 77.5132 454.351 85.9806 458.754 94.3566C460.957 98.5503 462.464 104.004 465.954 107.322C469.752 110.933 473.062 114.933 476.015 119.321C476.891 120.622 477.747 121.97 478.927 123.005C482.607 126.239 491.135 124.382 494.518 121.349C500.668 115.835 498.004 108.285 494.168 102.268C487.265 91.4415 480.361 80.6148 473.458 69.788C470.806 65.6285 468.13 61.4424 464.717 57.8843C462.064 55.1176 457.091 50.5662 452.942 50.5586C449.244 50.551 446.386 54.7828 445.769 58.0365C445.324 60.3921 445.586 62.7896 446.138 65.1414H446.134Z" fill="#EEE1E0"/>
<path d="M499.994 159.07C493.764 146.15 487.523 133.265 480.898 120.539C478.188 115.333 475.939 108.103 482.211 104.369C484.54 102.984 487.546 102.805 490.02 103.909C494.514 105.911 495.519 109.206 496.992 113.533C498.681 118.495 500.264 123.496 501.733 128.531C504.698 138.68 507.213 148.959 509.264 159.333C509.337 159.69 509.554 160.372 509.409 160.722C509.264 161.064 508.602 161.437 508.313 161.662C507.012 162.663 503.689 164.676 502.129 163.184C501.844 162.914 501.669 162.548 501.497 162.194C500.995 161.152 500.493 160.109 499.99 159.07H499.994Z" fill="#F7967C"/>
<path d="M503.659 128.892C503.046 130.65 499.146 130.475 497.57 130.905C494.644 131.708 491.816 132.972 489.023 134.14C485.529 135.605 484.121 137.074 482.378 133.017C480.263 128.085 477.386 123.359 476.354 118.031C475.452 113.373 476.503 107.535 480.042 104.148C480.225 103.973 480.411 103.806 480.605 103.646C483.056 101.602 486.397 100.662 489.552 101.127C490.351 101.245 491.154 101.454 491.839 101.88C493.049 102.634 493.468 103.859 494.324 104.898C495.104 105.842 495.915 106.633 496.562 107.707C497.878 109.902 498.78 112.304 499.846 114.625C501.57 118.377 502.845 122.335 503.636 126.392C503.796 127.221 503.937 128.097 503.659 128.896V128.892Z" fill="#EEE1E0"/>
<path d="M501.931 162.62C502.544 161.562 503.667 160.934 504.972 160.447C505.569 160.226 506.174 160.028 506.787 159.857C508.701 159.328 511.586 161.174 512.754 162.65C513.226 163.248 513.569 163.941 513.907 164.622C515.308 167.461 517.568 170.65 518.078 173.808C518.143 174.208 518.173 174.627 518.052 175.015C518.013 175.133 517.956 175.254 517.857 175.331C517.663 175.479 517.367 175.407 517.188 175.239C517.009 175.072 516.921 174.832 516.83 174.604C516.674 174.212 514.36 170.227 514.257 170.303C514.193 170.353 514.128 170.399 514.06 170.44C514.162 170.372 516.377 175.152 516.541 175.521C516.849 176.213 517.165 176.94 517.1 177.694C517.058 178.173 516.746 178.714 516.267 178.687C515.901 178.664 515.65 178.325 515.46 178.013C514.684 176.754 514.143 175.407 513.428 174.12C512.948 173.26 512.469 172.396 511.993 171.536C511.909 171.574 511.826 171.616 511.742 171.654C511.719 171.666 513.169 174.554 513.317 174.832C513.976 176.073 514.471 177.401 514.783 178.771C514.843 179.041 514.897 179.319 514.851 179.589C514.805 179.863 514.638 180.129 514.379 180.221C514.147 180.304 513.881 180.228 513.683 180.087C513.485 179.947 513.336 179.737 513.199 179.532C512.587 178.6 512.187 177.542 511.654 176.564C510.939 175.254 510.231 173.942 509.527 172.625C509.455 172.655 509.386 172.682 509.314 172.712C509.79 173.759 510.204 174.84 510.657 175.867C511.049 176.75 511.593 177.671 511.856 178.6C511.997 179.098 511.947 179.444 511.597 179.829C511.437 180.008 510.874 180.243 510.673 179.973C509.637 178.569 508.69 177.104 507.837 175.582C507.034 174.158 506.536 172.709 505.878 171.224C505.851 171.167 505.809 171.099 505.748 171.114C505.68 171.129 505.676 171.228 505.691 171.297C505.84 171.985 505.961 172.686 505.931 173.39C505.881 174.528 505.527 175.422 504.352 175.677C504.317 176.076 503.655 174.942 503.648 174.916C503.461 174.398 503.712 173.785 503.651 173.26C503.45 171.521 502.582 169.641 502.083 167.959C501.737 166.783 501.383 165.581 501.444 164.355C501.478 163.663 501.653 163.088 501.931 162.605V162.62Z" fill="#F7967C"/>
<path d="M461.322 138.033C461.322 138.231 461.315 138.425 461.307 138.623C461.254 140.469 461.178 142.314 461.082 144.16C461.003 145.812 460.9 147.459 460.782 149.107C460.226 156.901 459.301 164.668 458.015 172.374C457.95 172.755 457.871 173.158 457.695 173.493C457.593 173.691 457.452 173.862 457.262 173.988C456.858 174.258 456.337 174.243 455.85 174.216C445.617 173.668 435.38 173.12 425.147 172.565C423.183 172.462 421.219 172.355 419.26 172.249C410.035 171.754 400.81 171.259 391.582 170.761C388.693 170.608 386.235 169.844 387.894 166.586C387.894 166.586 387.894 166.578 387.898 166.578C391.175 160.139 393.66 153.301 395.292 146.264C395.741 144.32 396.126 142.364 396.449 140.392C396.67 139.038 396.856 137.675 397.012 136.313C397.054 135.951 397.092 135.594 397.127 135.244C397.572 130.943 397.865 127.336 402.903 126.799C420.447 124.934 438.519 125.342 455.271 130.867C457.467 131.59 459.849 132.591 460.812 134.696C461.284 135.727 461.341 136.88 461.322 138.025V138.033Z" fill="#272443"/>
<path d="M434.249 358.548C435.22 357.304 434.874 355.572 434.744 353.875C434.66 352.794 434.497 351.717 434.234 350.656C433.884 349.232 433.458 347.554 432.263 346.591C431.041 345.606 429.291 345.461 427.78 345.415C426.836 345.389 425.634 345.225 424.762 345.666C423.529 346.294 423.803 347.455 423.358 348.551C422.296 351.188 418.354 352.981 416.029 354.324C414.959 354.944 413.882 355.565 412.752 356.063C412.326 356.25 411.896 356.421 411.454 356.569C410.244 356.973 408.593 357.296 408.029 358.552H434.246L434.249 358.548Z" fill="#F7967C"/>
<path d="M407.725 357.886C407.809 357.673 407.908 357.486 408.014 357.342C408.635 356.508 409.616 356.036 410.556 355.599C412.79 354.56 415.02 353.521 417.254 352.482C418.274 352.006 419.933 350.739 420.984 351.5C422.175 352.364 422.966 354.514 423.343 355.869C424.538 355.892 425.695 355.481 426.833 355.108C429.538 354.229 432.305 353.551 435.114 353.083C436.849 352.794 436.419 358.681 436.274 359.686C436.225 360.021 436.145 360.386 435.871 360.588C435.616 360.774 435.273 360.759 434.958 360.736C433.839 360.656 432.724 360.572 431.605 360.493C431.281 360.47 430.908 360.416 430.745 360.135C430.501 359.716 430.642 359.469 430.231 359.172C429.797 358.86 429.017 358.887 428.519 358.951C427.818 359.043 427.156 359.301 426.494 359.541C424.743 360.165 423.111 360.386 421.265 360.386H412.014C411.047 360.386 410.077 360.397 409.11 360.386C408.768 360.382 408.33 360.454 408.041 360.257C407.356 359.785 407.421 358.662 407.725 357.874V357.886Z" fill="#272443"/>
<path d="M433.644 349.853C433.446 351.322 432.811 352.486 430.783 352.817C429.211 353.072 427.597 353.072 426.026 352.817C424.458 352.562 423.308 350.131 423.031 348.722C420.812 337.492 418.951 326.19 417.452 314.838C417.17 312.699 416.911 310.45 417.722 308.449C418.464 306.61 420.04 305.214 421.779 304.259C424.762 302.626 430.535 301.876 431.761 306.028C432.529 308.631 432.67 311.375 432.807 314.084C432.879 315.489 432.948 316.893 433.02 318.293C433.336 324.672 433.621 331.057 433.732 337.443C433.785 340.636 433.797 343.829 433.747 347.018C433.732 347.992 433.766 348.974 433.648 349.849L433.644 349.853Z" fill="#F7967C"/>
<path d="M421.01 166.586C420.687 167.347 420.393 168.192 420.127 169.132C414.567 188.799 410.606 208.873 406.652 228.924C405.784 233.324 404.916 237.727 404.399 242.183C402.439 259.106 404.319 278.556 408.292 295.004C411.557 308.513 411.443 322.472 413.764 336.218C413.791 336.377 413.821 336.537 413.852 336.693C414.183 338.509 414.548 340.312 414.944 342.105C414.986 342.287 415.035 342.482 415.18 342.592C415.325 342.702 415.522 342.698 415.701 342.691C421.535 342.424 427.373 342.162 433.207 341.899C435.909 341.778 438.329 340.784 440.864 340.194C437.138 307.025 431.715 272.699 438.976 239.675C444.361 215.175 455.907 192.083 458.563 167.141C458.753 165.341 458.879 163.431 458.068 161.814C456.721 159.127 453.334 158.233 450.332 158.065C444.171 157.723 438.664 160.33 432.708 160.2C427.407 160.086 423.24 161.338 421.014 166.59L421.01 166.586Z" fill="#272443"/>
<path d="M358.318 356.095C357.831 356.045 357.34 355.916 356.99 355.84C354.897 355.368 352.75 355.151 350.604 355.189C346.795 355.257 342.799 353.823 339.096 352.997C338.742 352.917 333.064 351.513 333.019 351.638C333.041 351.574 333.068 351.513 333.098 351.456C333.806 349.994 335.694 350.067 337.087 349.926C337.551 349.88 338.008 349.808 338.464 349.716C339.674 349.477 340.862 349.104 342.041 348.735C344.603 347.932 348.842 347.041 350.456 344.701C351.125 343.727 351.118 342.535 352.453 342.193C353.401 341.949 354.543 342.372 355.456 342.604C356.917 342.977 358.599 343.498 359.574 344.727C360.529 345.93 360.578 347.661 360.609 349.127C360.632 350.219 360.559 351.307 360.403 352.38C360.274 353.286 360.354 354.709 359.928 355.531C359.642 356.087 358.984 356.167 358.318 356.098V356.095Z" fill="#F7967C"/>
<path d="M333.159 350.397C333.285 350.207 333.422 350.047 333.559 349.929C334.347 349.251 335.405 349.004 336.421 348.783C338.826 348.258 341.231 347.729 343.636 347.204C344.736 346.964 346.631 346.089 347.491 347.063C348.465 348.167 348.77 350.439 348.842 351.839C350.007 352.121 351.221 351.972 352.415 351.858C355.247 351.592 358.097 351.535 360.936 351.691C362.694 351.786 360.989 357.437 360.628 358.389C360.506 358.704 360.35 359.047 360.038 359.18C359.749 359.306 359.418 359.218 359.113 359.127L355.898 358.156C355.589 358.061 355.235 357.928 355.136 357.62C354.988 357.156 355.182 356.946 354.843 356.569C354.486 356.17 353.725 356.025 353.222 355.983C352.522 355.923 351.818 356.029 351.118 356.117C349.272 356.345 347.632 356.204 345.828 355.801L336.801 353.78C335.858 353.567 334.91 353.369 333.966 353.145C333.635 353.065 333.19 353.042 332.95 352.787C332.383 352.174 332.691 351.093 333.163 350.393L333.159 350.397Z" fill="#272443"/>
<path d="M360.205 348.213C359.691 349.602 358.82 350.603 356.765 350.481C355.174 350.386 353.599 350.036 352.122 349.442C350.646 348.852 350.056 346.226 350.094 344.792C350.379 333.348 351.03 321.913 352.046 310.508C352.236 308.357 352.48 306.108 353.705 304.331C354.832 302.702 356.67 301.679 358.576 301.131C361.845 300.187 367.641 300.716 367.93 305.035C368.113 307.745 367.652 310.451 367.196 313.126C366.96 314.511 366.72 315.896 366.484 317.281C365.4 323.576 364.285 329.866 362.998 336.123C362.355 339.251 361.67 342.368 360.924 345.469C360.696 346.417 360.517 347.383 360.209 348.209L360.205 348.213Z" fill="#F7967C"/>
<path d="M387.879 166.609C387.4 167.279 386.928 168.04 386.464 168.9C376.744 186.877 368.498 205.604 360.262 224.312C358.455 228.415 356.647 232.525 355.171 236.76C349.565 252.846 347.152 272.239 347.438 289.155C347.674 303.053 344.515 316.646 343.784 330.567C343.777 330.73 343.769 330.89 343.765 331.05C343.693 332.892 343.655 334.734 343.647 336.568C343.647 336.755 343.655 336.956 343.773 337.093C343.891 337.234 344.085 337.272 344.26 337.306C350.01 338.322 355.764 339.338 361.514 340.355C363.775 340.754 365.994 340.625 368.277 340.606C373.315 307.726 375.23 272.361 389.459 241.852C400.061 219.122 416.368 199.101 424.405 175.343C424.983 173.63 425.524 171.788 425.086 170.034C424.355 167.119 421.246 165.505 418.354 164.687C412.414 163.009 406.473 164.348 400.689 162.921C395.54 161.654 391.201 161.966 387.883 166.605L387.879 166.609Z" fill="#272443"/>
<path d="M420.923 203.644C416.809 220.118 414.43 236.992 413.833 253.961C413.821 254.277 414.499 254.281 414.51 253.961C415.104 237.034 417.471 220.202 421.577 203.77C421.661 203.431 420.995 203.351 420.923 203.644Z" fill="#3C3C70"/>
<path d="M416.478 283.735C415.705 278.882 414.902 274.038 414.065 269.194C414.012 268.878 413.334 268.889 413.388 269.194C416.326 286.212 418.872 303.295 421.006 320.435C421.615 325.31 422.19 330.189 422.734 335.071C422.768 335.391 423.45 335.383 423.412 335.071C421.501 317.908 419.191 300.791 416.478 283.735Z" fill="#3C3C70"/>
<path d="M390.886 182.234C380.847 199.61 372.003 217.667 364.456 236.265C362.314 241.551 360.274 246.879 358.337 252.241C358.219 252.564 358.889 252.652 358.991 252.366C365.803 233.491 373.913 215.091 383.267 197.334C385.927 192.288 388.686 187.299 391.54 182.36C391.704 182.074 391.038 181.971 390.886 182.234Z" fill="#3C3C70"/>
<path d="M356.426 258.478C353.664 277.574 351.669 296.781 350.474 316.041C350.136 321.467 349.866 326.902 349.652 332.336C349.641 332.652 350.318 332.656 350.33 332.336C351.087 313.053 352.625 293.805 354.95 274.652C355.604 269.252 356.327 263.863 357.104 258.478C357.149 258.174 356.472 258.159 356.426 258.478Z" fill="#3C3C70"/>
<path d="M458.769 149.906C453.734 149.659 448.695 149.446 443.653 149.229C443.535 149.13 443.295 149.118 443.155 149.206C436.445 148.921 429.736 148.624 423.031 148.243C423.56 146.63 424.089 145.016 424.614 143.403C425.113 141.884 425.611 140.37 426.106 138.851C426.216 138.524 425.546 138.436 425.451 138.726C424.945 140.274 424.435 141.827 423.929 143.376C423.404 144.986 422.879 146.592 422.35 148.201C420.592 148.102 418.837 147.992 417.083 147.878C417.505 146.287 417.924 144.7 418.346 143.113C418.578 142.234 418.814 141.351 419.047 140.472C419.134 140.137 418.468 140.054 418.392 140.347C418.148 141.256 417.909 142.17 417.665 143.079C417.243 144.662 416.82 146.245 416.402 147.832C414.647 147.714 412.893 147.592 411.139 147.459C406.572 147.113 402.013 146.63 397.484 145.918C397.119 145.861 396.86 146.306 397.305 146.378C403.592 147.368 409.932 147.901 416.284 148.281C415.622 150.766 414.963 153.255 414.305 155.744C413.643 158.256 412.996 161.433 413.936 163.911C414.373 165.06 415.153 166.061 416.428 166.772C416.584 166.86 416.919 166.894 416.995 166.666C417.231 165.95 417.463 165.235 417.699 164.519C419.431 159.226 421.17 153.929 422.902 148.635C429.614 148.97 436.327 149.29 443.04 149.617C442.968 152.635 442.903 155.691 443.174 158.705C443.333 160.516 443.619 162.316 444.095 164.082C444.73 166.449 445.754 168.679 446.793 170.89C447.249 171.864 447.706 172.835 448.163 173.805C448.874 175.316 449.586 176.827 450.298 178.337C450.427 178.611 451.097 178.516 450.952 178.212C450.267 176.754 449.582 175.301 448.897 173.843C448.475 172.945 448.052 172.047 447.63 171.149C446.587 168.938 445.533 166.715 444.86 164.356C444.315 162.464 444.007 160.531 443.836 158.583C443.577 155.618 443.646 152.616 443.722 149.647C444.152 149.67 444.585 149.689 445.019 149.712C449.601 149.933 454.183 150.157 458.769 150.382C459.187 150.401 459.184 149.925 458.769 149.906ZM417.049 164.367C416.855 164.965 416.657 165.562 416.463 166.16C415.591 165.57 415.005 164.824 414.64 163.983C413.369 161.079 414.651 157.03 415.416 154.161C415.93 152.212 416.447 150.268 416.965 148.319C418.293 148.395 419.617 148.468 420.945 148.536C421.372 148.559 421.794 148.578 422.217 148.601C420.493 153.856 418.773 159.112 417.049 164.367Z" fill="#3C3C70"/>
<path d="M466.89 125.943C466.821 130.095 466.719 134.311 465.177 138.2C464.968 138.733 464.732 139.254 464.466 139.772C463.811 141.043 462.513 143.17 461.083 144.156C460.801 144.35 460.516 144.502 460.23 144.594C458.617 145.104 456.071 144.213 454.358 144.194C451.017 144.16 447.672 144.107 444.331 144.034C443.2 144.008 442.066 143.985 440.936 143.954C438.801 143.901 436.662 143.84 434.528 143.772C427.289 143.539 420.051 143.224 412.821 142.816C409.289 142.619 405.761 142.402 402.23 142.162C402.146 142.158 402.059 142.154 401.975 142.147C400.719 142.063 399.684 141.998 398.828 141.819C397.804 141.602 397.035 141.211 396.445 140.4C395.985 139.764 395.631 138.874 395.353 137.599C395.174 136.788 395.037 135.974 394.939 135.156C394.349 130.464 394.87 125.665 395.136 120.965C395.875 106.207 395.92 91.5901 396.217 76.8094C396.308 72.1628 396.442 67.4896 397.412 62.942C397.991 60.2249 398.927 57.4735 400.856 55.4718C402.485 53.7859 404.673 52.785 406.873 51.9402C407.063 51.8641 407.253 51.7918 407.443 51.7233C408.703 51.2514 409.993 50.7757 411.302 50.3114C413.833 49.4171 416.447 48.5609 419.088 47.8683C423.598 46.6886 428.195 45.9769 432.644 46.3422C435.688 46.5896 438.71 46.8979 441.693 47.3774C443.181 47.6133 444.662 47.8949 446.131 48.2374C448.368 48.755 450.583 49.4057 452.764 50.2467C453.639 50.5778 454.503 50.947 455.367 51.3465C455.557 51.4341 455.751 51.5254 455.937 51.6167C456.265 51.7766 456.592 51.9364 456.919 52.1115C457.406 52.3664 457.882 52.6328 458.346 52.9296C458.655 53.1237 458.959 53.333 459.252 53.5576C459.298 53.5918 459.343 53.6261 459.389 53.6641C459.747 53.9419 460.089 54.2426 460.409 54.5698C464.835 59.087 464.348 65.3814 464.884 71.318C465.573 78.9747 466.087 86.6505 466.433 94.3301C466.905 104.86 467.053 115.405 466.875 125.943H466.89Z" fill="#EEE1E0"/>
<path d="M441.697 47.3775C440.94 48.698 439.878 49.9538 439.261 50.8748C437.598 53.3522 435.806 55.7382 433.892 58.0253C432.259 59.9814 430.535 61.8613 428.732 63.6614C427.103 65.2825 425.425 66.9684 423.343 64.9666C422.308 63.9696 421.436 62.4969 421.022 61.633C419.4 58.2575 418.555 54.5052 418.578 50.7606C418.586 49.6798 418.765 48.7208 419.1 47.8722C423.609 46.6925 428.206 45.9808 432.655 46.3462C435.699 46.5935 438.721 46.9018 441.705 47.3813L441.697 47.3775Z" fill="#F7967C"/>
<path d="M338.997 156.121C340.165 156.486 341.025 157.441 341.787 158.606C342.137 159.139 342.46 159.687 342.761 160.25C343.701 162 342.532 165.22 341.353 166.685C340.873 167.279 340.276 167.762 339.682 168.241C337.22 170.232 334.609 173.139 331.641 174.334C331.264 174.486 330.865 174.608 330.457 174.574C330.332 174.563 330.203 174.536 330.107 174.456C329.917 174.3 329.925 173.995 330.046 173.782C330.172 173.573 330.385 173.432 330.587 173.291C330.937 173.052 334.309 169.916 334.214 169.836C334.153 169.783 334.092 169.729 334.035 169.676C334.126 169.76 329.951 172.976 329.628 173.219C329.023 173.672 328.38 174.14 327.63 174.243C327.154 174.308 326.557 174.121 326.477 173.649C326.416 173.288 326.694 172.968 326.953 172.713C328.011 171.678 329.205 170.852 330.301 169.87C331.036 169.212 331.77 168.557 332.505 167.899C332.448 167.827 332.391 167.754 332.334 167.682C332.318 167.663 329.818 169.714 329.578 169.92C328.513 170.837 327.326 171.609 326.058 172.218C325.811 172.336 325.548 172.45 325.274 172.466C325 172.481 324.7 172.378 324.555 172.146C324.426 171.937 324.437 171.663 324.532 171.434C324.627 171.206 324.795 171.02 324.966 170.841C325.742 170.038 326.682 169.417 327.52 168.679C328.638 167.694 329.765 166.715 330.891 165.737C330.846 165.677 330.804 165.612 330.758 165.551C329.845 166.247 328.878 166.891 327.98 167.557C327.204 168.131 326.427 168.869 325.579 169.326C325.122 169.573 324.772 169.6 324.323 169.345C324.114 169.227 323.756 168.729 323.977 168.477C325.118 167.161 326.34 165.913 327.634 164.744C328.848 163.648 330.149 162.841 331.451 161.875C331.5 161.837 331.557 161.78 331.531 161.723C331.5 161.658 331.405 161.677 331.34 161.707C330.701 162.004 330.043 162.274 329.35 162.4C328.227 162.602 327.28 162.453 326.77 161.361C326.37 161.414 327.333 160.52 327.356 160.505C327.82 160.212 328.475 160.318 328.97 160.143C330.621 159.561 332.265 158.301 333.795 157.445C334.864 156.848 335.96 156.239 337.17 156.03C337.855 155.912 338.453 155.953 338.986 156.121H338.997Z" fill="#F7967C"/>
<path d="M414.647 66.9071C414.556 68.0754 414.392 69.2399 414.206 70.3853C412.691 79.7241 409.689 88.7509 406.61 97.6977C403.174 107.683 399.612 119.541 392.423 127.586C385.451 135.388 366.085 130.81 370.941 118.438C375.743 106.203 380.896 94.1052 386.391 82.1635C389.101 76.2763 391.89 70.431 394.767 64.6238C396.963 60.1865 400.217 54.383 405.708 53.5268C409.365 52.956 412.832 56.7082 413.936 59.8288C414.735 62.0893 414.841 64.502 414.651 66.9071H414.647Z" fill="#EEE1E0"/>
<path d="M341.573 152.676C351.464 142.287 361.316 131.902 370.887 121.212C374.803 116.84 380.774 112.182 386.479 116.737C388.598 118.427 389.824 121.178 389.668 123.88C389.382 128.793 386.65 130.894 383.122 133.801C379.073 137.135 374.952 140.377 370.762 143.532C362.313 149.887 353.58 155.865 344.599 161.448C344.287 161.642 343.727 162.088 343.347 162.072C342.978 162.057 342.391 161.57 342.079 161.38C340.683 160.512 337.627 158.118 338.476 156.132C338.632 155.77 338.906 155.477 339.176 155.192C339.975 154.355 340.77 153.517 341.569 152.68L341.573 152.676Z" fill="#F7967C"/>
<path d="M392.746 124.702C394.124 120.702 392.777 118.168 390.444 114.659C387.281 109.902 380.18 108 375.416 111.151C373.684 112.296 372.368 113.948 371.078 115.573C367.679 119.858 364.281 124.143 360.882 128.428C359.391 130.308 357.351 132.42 358.515 134.908C359.935 137.945 362.568 140.586 364.863 142.98C366.416 144.605 368.242 147.49 370.689 147.79C374.697 148.285 380.165 141.888 382.665 139.304C386.585 135.247 390.235 130.799 392.43 125.547C392.552 125.258 392.659 124.976 392.754 124.698L392.746 124.702Z" fill="#EEE1E0"/>
<path d="M458.404 51.8383C457.89 51.4082 457.06 51.1419 456.463 50.8336C456.212 50.7004 455.926 50.8146 455.61 51.1038C455.534 51.1761 455.454 51.256 455.374 51.3474C453.472 53.5355 450.834 61.3407 450.397 62.6422C449.449 65.4583 448.699 68.2972 448.049 71.296C447.409 74.2833 446.865 77.4267 446.329 80.8517C444.871 90.2209 443.684 99.7652 442.801 109.211C442.295 114.622 441.77 120.825 441.408 127.458C441.119 132.744 440.932 138.304 440.936 143.959C442.066 143.986 443.197 144.012 444.331 144.035C444.323 138.586 444.498 133.216 444.776 128.094C445.134 121.339 445.666 115.022 446.18 109.526C447.055 100.15 448.231 90.6776 449.685 81.3768C449.91 79.9345 450.134 78.5417 450.37 77.1946C451.222 72.293 452.185 67.9585 453.612 63.7306C454.412 61.3635 455.279 59.0155 456.322 56.7474C456.893 55.5182 457.509 54.3081 458.213 53.1512C458.259 53.0713 458.308 52.9989 458.358 52.9304C458.434 52.8201 458.506 52.7212 458.56 52.6298C458.731 52.3596 458.769 52.1427 458.404 51.8383Z" fill="#E75860"/>
<path d="M411.317 49.6572C410.229 49.7257 409.198 50.1786 408.212 50.6086C407.968 50.7152 407.725 50.8217 407.527 51.0006C407.264 51.2403 407.055 51.5676 406.876 51.9444C406.659 52.4086 406.492 52.9452 406.351 53.4742C406.187 54.0907 406.062 54.6958 405.932 55.1676C405.502 56.7241 405.145 58.2958 404.836 59.8827C404.254 62.8624 403.855 65.8726 403.459 68.8828C401.621 82.8491 400.342 98.1626 399.486 116.574C399.36 119.196 399.25 121.875 399.143 124.623C399.094 125.951 399.048 127.256 399.01 128.546C398.873 133.185 398.812 137.584 398.831 141.82C399.684 142.002 400.719 142.067 401.975 142.151C402.058 142.155 402.146 142.158 402.23 142.166C402.203 137.322 402.279 132.253 402.462 126.86C402.485 126.164 402.511 125.46 402.538 124.752C402.774 118.53 403.055 112.662 403.379 107.079C404.205 92.9528 405.327 80.6838 406.823 69.3242C407.264 65.9069 407.725 62.4819 408.448 59.1102C408.787 57.5499 409.186 56.0011 409.673 54.4788C409.711 54.3456 409.757 54.2163 409.799 54.0831C410.069 53.2611 410.366 52.4505 410.693 51.6513C410.842 51.286 411.173 50.7837 411.306 50.3118C411.374 50.0797 411.393 49.8551 411.317 49.6572Z" fill="#E75860"/>
<path d="M402.021 29.1453C402.454 29.5296 402.911 29.7275 403.276 29.4345C403.687 29.1034 403.33 27.2729 403.254 26.8277C403.105 25.941 402.854 25.0733 402.649 24.1981C402.104 21.8576 402.199 19.6428 402.047 17.2644C402.009 16.6821 401.952 16.0732 401.644 15.5785C401.336 15.08 400.704 14.7337 400.16 14.9392C398.516 15.5557 398.98 19.1938 399.071 20.48C399.231 22.7748 399.749 25.0429 400.605 27.1778C400.753 27.5469 401.358 28.5592 402.021 29.1414V29.1453Z" fill="white"/>
<path d="M440.258 45.7604C440.65 46.6243 440.909 47.5452 440.51 48.3634C440.312 48.7744 439.969 49.0941 439.623 49.3909C437.286 51.4078 434.406 52.9833 431.681 54.4066C429.337 55.6282 426.707 56.9487 423.994 56.6671C423.027 56.5681 422.057 56.2181 421.379 55.5216C420.763 54.8823 420.451 54.0222 420.154 53.185C419.423 51.1262 418.692 49.0712 417.966 47.0124C417.368 45.3228 417.806 44.4247 418.696 42.9786C419.518 41.6428 420.58 40.4669 421.661 39.3405C421.965 39.0208 422.285 38.7126 422.608 38.4157C422.688 38.3396 422.772 38.2673 422.856 38.195C422.939 38.1189 423.023 38.0504 423.107 37.9819C423.191 37.9096 423.278 37.8411 423.362 37.7688C423.449 37.6965 423.533 37.628 423.621 37.5633C423.689 37.5062 423.761 37.4491 423.834 37.3958C423.937 37.3159 424.039 37.236 424.146 37.1599C424.23 37.099 424.313 37.0381 424.401 36.9772C424.496 36.9087 424.591 36.8402 424.686 36.7794C424.759 36.7299 424.835 36.6804 424.907 36.6309C425.017 36.5548 425.128 36.4825 425.242 36.414C425.333 36.3569 425.424 36.2999 425.52 36.2428C425.52 36.239 425.523 36.2352 425.527 36.239C425.714 36.1248 425.904 36.0144 426.098 35.9079C427.54 35.1011 429.089 34.4846 430.703 34.0965C430.92 34.0432 431.133 33.9975 431.353 33.9556C432.556 33.7121 433.606 33.244 434.714 34.0965C435.947 35.0478 436.799 37.0115 437.29 38.4538C438.044 40.6762 438.763 42.8378 439.851 44.927C439.992 45.1934 440.137 45.475 440.266 45.7604H440.258Z" fill="#F7967C"/>
<path d="M419 50.7594C419 50.7594 425.94 50.0194 432.34 44.0894C432.34 44.0894 430.58 52.6093 419.61 53.6693L419.01 50.7594H419Z" fill="#AA6550"/>
<path d="M433.816 42.2291C432.731 44.9805 430.566 47.5036 428.454 48.8774C425.535 50.784 421.676 52.0512 419.012 48.9877C416.352 45.9243 418.126 41.9703 420.634 39.4739C422.962 37.1563 425.779 35.0785 429.044 34.7018C430.212 34.5686 431.434 34.6675 432.499 35.1698C435.33 36.517 434.79 39.7593 433.82 42.2253L433.816 42.2291Z" fill="#DB634F"/>
<path d="M402.843 13.3874C404.573 7.34212 409.594 2.76401 415.111 1.14071C419.861 -0.256555 425.213 0.355786 429.211 3.56539C432.946 6.56129 435.144 11.4394 436.535 16.3586C439.675 27.4915 438.303 45.1957 427.112 50.1478C422.095 52.367 416.009 54.2163 411.722 49.4451C407.801 45.0807 405.716 38.6655 403.989 32.8915C402.284 27.1997 401.393 20.9778 402.467 15.0148C402.565 14.4641 402.693 13.9216 402.843 13.3915V13.3874Z" fill="#F7967C"/>
<path d="M433.054 5.58187C433.526 5.69603 433.945 5.95862 434.337 6.24404C437.397 8.50072 438.04 11.9219 438.496 15.4572C438.713 17.1393 438.797 18.8404 438.748 20.5376C438.706 21.8886 438.816 23.426 438.051 24.5867C437.952 24.7389 437.823 24.895 437.64 24.914C437.454 24.933 437.294 24.7998 437.161 24.6704C436.274 23.8028 435.638 22.7334 434.961 21.7059C433.325 19.2133 430.505 17.7938 428.758 15.3773C427.521 13.6686 426.874 11.3282 427.791 9.42546C428.233 8.50833 428.99 7.78528 429.728 7.08506C430.672 6.18695 431.631 5.23176 433.058 5.57807L433.054 5.58187Z" fill="white"/>
<path d="M436.78 22.2878C437.716 22.0709 439.303 22.6418 439.927 23.3572C440.407 23.9052 440.654 24.6244 440.776 25.3437C441.168 27.6308 440.331 30.093 438.622 31.6647C438.139 32.1099 437.572 32.4943 436.925 32.6008C434.25 33.0385 433.481 29.0617 433.397 27.2008C433.348 26.0705 433.576 24.8946 434.257 23.9927C434.657 23.4638 435.193 23.0489 435.768 22.7179C436.084 22.5352 436.426 22.3754 436.776 22.2916L436.78 22.2878Z" fill="#F7967C"/>
<path d="M426.117 27.1133C425.413 26.5006 424.553 26.0706 423.598 26.2342C422.654 26.394 422.11 27.0676 421.664 27.863C421.516 28.1294 421.954 28.1864 422.182 28.0571C422.189 28.0951 422.193 28.1332 422.209 28.1712C422.391 28.6926 422.966 28.9552 423.487 28.9171C424.02 28.8752 424.503 28.5328 424.595 27.9924C424.675 27.5243 424.606 27.0562 424.275 26.7175C424.286 26.7175 424.298 26.7175 424.313 26.7175C424.792 26.7518 425.12 26.9915 425.481 27.2807C425.637 27.4063 425.653 27.5471 425.888 27.5129C426.06 27.4862 426.303 27.2807 426.117 27.1171V27.1133Z" fill="#272443"/>
<path d="M412.433 31.0522C412.364 30.9494 412.258 30.8429 412.162 30.7782C411.439 30.2759 410.594 30.0247 409.723 30.2378C408.909 30.4395 408.026 31.0484 407.934 31.9389C407.912 32.152 408.186 32.1976 408.387 32.1253C408.399 32.1672 408.414 32.2129 408.433 32.2509C408.574 32.6962 409.042 32.9359 409.582 32.9017C409.845 32.8864 410.081 32.8027 410.271 32.6695C410.282 32.6619 410.294 32.6543 410.305 32.6467C410.309 32.6467 410.313 32.6429 410.317 32.6391C410.541 32.4793 410.701 32.2395 410.732 31.9465C410.754 31.8095 410.751 31.6611 410.72 31.5088C410.709 31.4441 410.674 31.3909 410.629 31.3452C410.499 31.0522 410.263 30.8086 409.97 30.6983C410.423 30.6526 410.914 30.7325 411.306 30.8962C411.569 31.0065 411.907 31.3871 412.178 31.4061C412.566 31.4327 412.554 31.2387 412.425 31.0522H412.433Z" fill="#272443"/>
<path d="M419.412 23.0298C420.154 21.5342 421.973 20.8948 423.472 20.7312C425.151 20.5485 426.947 21.0851 428.53 22.5236C428.541 22.535 428.549 22.5426 428.557 22.5541C428.598 22.5921 428.625 22.634 428.64 22.6797C428.686 22.8014 428.652 22.9232 428.576 23.026C428.458 23.2276 428.226 23.3875 428.012 23.3418C425.672 22.8243 423.533 23.3418 421.57 24.1981C421.075 24.415 420.23 25.1761 419.595 24.845C418.875 24.4721 419.203 23.4484 419.416 23.026L419.412 23.0298Z" fill="white"/>
<path d="M411.538 25.5149C410.271 24.5635 408.528 24.8832 407.257 25.4654C405.83 26.1161 404.639 27.4557 404.018 29.484C404.015 29.4993 404.015 29.5107 404.011 29.5259C403.996 29.5792 403.992 29.6287 403.999 29.6781C404.018 29.8037 404.098 29.895 404.209 29.9521C404.395 30.0701 404.654 30.1005 404.802 29.9521C406.443 28.3652 408.383 27.7868 410.339 27.5851C410.83 27.5356 411.85 27.7906 412.212 27.1969C412.619 26.5233 411.896 25.7851 411.538 25.5149Z" fill="white"/>
<path d="M416.299 34.7011C415.686 32.5891 416.462 30.3628 415.416 28.3269C415.279 28.0605 415.899 27.7865 416.04 28.0605C416.615 29.1717 416.71 30.34 416.729 31.5768C416.74 32.2161 416.725 32.8592 416.782 33.4948C416.858 34.3206 417.406 36.6115 418.841 35.7134C419.149 35.5231 419.56 35.8047 419.176 36.0407C417.931 36.817 416.679 36.014 416.303 34.7011H416.299Z" fill="#DB634F"/>
<path d="M424.187 37.689C423.464 39.5804 420.82 40.6003 418.94 40.0827C418.647 40.0028 418.205 40.4556 418.609 40.566C420.869 41.1901 423.955 39.9761 424.823 37.708C424.956 37.3579 424.294 37.4112 424.191 37.689H424.187Z" fill="#DB634F"/>
<path d="M443.471 48.5803C440.689 56.473 437.1 64.1183 431.963 70.7666C430.749 68.9514 429.405 67.2389 427.929 65.6253C427.731 65.4084 427.092 65.5873 427.343 65.8651C428.93 67.6004 430.364 69.4499 431.651 71.4135C431.765 71.5848 432.119 71.5658 432.237 71.4135C437.568 64.6397 441.275 56.8003 444.125 48.7059C444.239 48.3824 443.573 48.2911 443.471 48.5803Z" fill="#C4B4B3"/>
<path d="M422.902 66.2271C421.007 67.5856 419.108 68.9442 417.212 70.3028C416.668 63.2283 416.965 56.1234 418.095 49.1174C418.145 48.8129 417.467 48.7977 417.418 49.1174C416.253 56.306 415.972 63.5974 416.577 70.8546C416.6 71.1134 416.984 71.1438 417.155 71.022C419.229 69.5341 421.307 68.0461 423.381 66.5582C423.72 66.3146 423.149 66.0444 422.902 66.2233V66.2271Z" fill="#C4B4B3"/>
<path d="M425.809 75.9155C425.508 74.6216 422.707 74.6368 422.799 76.2466C422.806 76.3759 422.837 76.4977 422.879 76.6119C422.886 76.787 422.917 76.9582 422.966 77.1142C423.286 78.0923 424.595 78.3092 425.39 77.7992C426.075 77.3616 426.178 76.551 425.805 75.9193L425.809 75.9155Z" fill="#C4B4B3"/>
<path d="M424.455 94.4711C424.154 93.1773 421.353 93.1925 421.444 94.8022C421.452 94.9316 421.482 95.0534 421.524 95.1676C421.532 95.3426 421.562 95.5139 421.612 95.6699C421.931 96.6479 423.241 96.8648 424.036 96.3549C424.721 95.9173 424.824 95.1067 424.451 94.475L424.455 94.4711Z" fill="#C4B4B3"/>
<path d="M424.455 113.027C424.154 111.733 421.353 111.749 421.444 113.358C421.452 113.488 421.482 113.61 421.524 113.724C421.532 113.899 421.562 114.07 421.612 114.226C421.931 115.204 423.241 115.421 424.036 114.911C424.721 114.473 424.824 113.663 424.451 113.031L424.455 113.027Z" fill="#C4B4B3"/>
<path d="M422.867 131.582C422.567 130.289 419.766 130.304 419.857 131.914C419.865 132.047 419.895 132.165 419.937 132.279C419.945 132.454 419.975 132.625 420.025 132.781C420.344 133.759 421.653 133.976 422.449 133.462C423.134 133.025 423.236 132.214 422.864 131.582H422.867Z" fill="#C4B4B3"/>
<path d="M466.958 108.962C463.883 102.988 460.23 97.0739 458.894 90.4142C458.837 90.125 458.171 90.1973 458.24 90.5398C459.576 97.1995 463.225 103.113 466.304 109.088C466.441 109.358 467.111 109.259 466.958 108.962Z" fill="#C4B4B3"/>
<path d="M464.976 60.4306C462.768 65.1381 461.242 70.1081 460.417 75.2418C460.367 75.5462 461.045 75.5614 461.094 75.2418C461.916 70.1538 463.442 65.2256 465.63 60.5562C465.775 60.2518 465.105 60.1528 464.976 60.4306Z" fill="#C4B4B3"/>
<path d="M398.257 79.5347C396.389 74.93 395.727 69.979 396.313 65.047C396.351 64.7388 395.673 64.7273 395.635 65.047C395.045 70.0208 395.723 75.0251 397.606 79.6641C397.721 79.9457 398.39 79.8544 398.261 79.5385L398.257 79.5347Z" fill="#C4B4B3"/>
<path d="M396.963 87.0542C396.602 99.3766 395.898 111.687 394.859 123.972C394.832 124.284 395.509 124.291 395.536 123.972C396.575 111.687 397.279 99.3766 397.64 87.0542C397.648 86.7384 396.971 86.7346 396.963 87.0542Z" fill="#C4B4B3"/>
<path d="M381.733 116.669C379.659 115.037 377.251 114.005 374.644 113.613C374.278 113.56 374.02 114.005 374.465 114.07C376.973 114.443 379.264 115.432 381.258 117C381.498 117.191 382.065 116.924 381.737 116.665L381.733 116.669Z" fill="#C4B4B3"/>
<path d="M382.544 137.874C380.611 137.071 378.666 136.26 376.885 135.145C375.059 134 373.658 132.55 372.402 130.811C370.716 128.47 367.645 124.132 364.205 125.095C363.779 125.213 364.019 125.654 364.384 125.551C366.534 124.95 368.627 127.169 369.917 128.603C371.245 130.076 372.208 131.842 373.601 133.261C375.96 135.67 379.138 137.01 382.198 138.285C382.502 138.41 382.951 138.045 382.54 137.874H382.544Z" fill="#C4B4B3"/>
<path d="M500.272 118.378C497.521 120.642 493.921 120.962 490.568 121.708C486.987 122.503 483.577 123.888 480.32 125.555C479.924 125.757 480.362 126.118 480.662 125.966C484.209 124.151 487.893 122.731 491.805 121.944C494.937 121.312 498.21 120.806 500.752 118.713C501.075 118.446 500.508 118.18 500.272 118.378Z" fill="#C4B4B3"/>
<path d="M483.916 111.231C480.259 111.36 476.682 110.698 473.314 109.267C473.009 109.138 472.56 109.503 472.971 109.678C476.442 111.151 480.149 111.84 483.916 111.707C484.335 111.692 484.338 111.216 483.916 111.231Z" fill="#C4B4B3"/>
<path d="M109.447 172.083V332.558L64.3477 349.219H45.1373C42.2756 349.219 39.958 346.901 39.958 344.04V172.083C39.958 170.142 41.0274 168.448 42.6105 167.562C42.7399 167.489 42.8731 167.421 43.0101 167.36C43.364 167.2 43.7445 167.082 44.1365 167.006C44.2354 166.987 44.3344 166.968 44.4371 166.953C44.6655 166.919 44.9014 166.903 45.1373 166.903H104.264C104.504 166.903 104.736 166.919 104.968 166.953C105.059 166.964 105.147 166.983 105.238 167.002C105.554 167.059 105.862 167.151 106.155 167.265C106.376 167.352 106.589 167.448 106.795 167.562C108.378 168.448 109.447 170.142 109.447 172.083Z" fill="#67CAEA"/>
<path d="M69.4891 172.083V344.036C69.4891 346.898 67.1715 349.215 64.3098 349.215H5.17934C2.31757 349.215 0 346.898 0 344.036V172.083C0 170.138 1.06936 168.448 2.65246 167.562C3.20807 167.25 3.82456 167.04 4.48292 166.953C4.71126 166.919 4.9472 166.903 5.18315 166.903H64.3098C64.5457 166.903 64.7817 166.919 65.01 166.953C65.6684 167.04 66.2849 167.25 66.8405 167.562C68.4236 168.448 69.4929 170.142 69.4929 172.083H69.4891Z" fill="#272443"/>
<path d="M34.7448 228.343C22.9477 228.343 13.3501 237.941 13.3501 249.738C13.3501 261.535 22.9477 271.137 34.7448 271.137C46.542 271.137 56.1396 261.539 56.1396 249.738C56.1396 237.937 46.542 228.343 34.7448 228.343ZM34.7448 269.306C23.9561 269.306 15.1768 260.531 15.1768 249.738C15.1768 238.946 23.9561 230.174 34.7448 230.174C45.5335 230.174 54.3129 238.949 54.3129 249.738C54.3129 260.527 45.5335 269.306 34.7448 269.306Z" fill="#67CAEA"/>
<path d="M34.7447 255.226C37.7754 255.226 40.2322 252.769 40.2322 249.739C40.2322 246.708 37.7754 244.251 34.7447 244.251C31.714 244.251 29.2571 246.708 29.2571 249.739C29.2571 252.769 31.714 255.226 34.7447 255.226Z" fill="#67CAEA"/>
<path d="M34.7448 288.14C22.9477 288.14 13.3501 297.741 13.3501 309.538C13.3501 321.335 22.9477 330.933 34.7448 330.933C46.542 330.933 56.1396 321.335 56.1396 309.538C56.1396 297.741 46.542 288.14 34.7448 288.14ZM34.7448 329.102C23.9561 329.102 15.1768 320.327 15.1768 309.538C15.1768 298.749 23.9561 289.97 34.7448 289.97C45.5335 289.97 54.3129 298.746 54.3129 309.538C54.3129 320.331 45.5335 329.102 34.7448 329.102Z" fill="#67CAEA"/>
<path d="M34.7447 315.022C37.7754 315.022 40.2322 312.565 40.2322 309.534C40.2322 306.504 37.7754 304.047 34.7447 304.047C31.714 304.047 29.2571 306.504 29.2571 309.534C29.2571 312.565 31.714 315.022 34.7447 315.022Z" fill="#67CAEA"/>
<path d="M12.2238 282.222C13.7441 280.701 13.7441 278.236 12.2238 276.716C10.7034 275.196 8.23848 275.196 6.71814 276.716C5.19781 278.236 5.1978 280.701 6.71814 282.222C8.23848 283.742 10.7034 283.742 12.2238 282.222Z" fill="#67CAEA"/>
<path d="M60.0176 283.429C62.1677 283.429 63.9106 281.686 63.9106 279.536C63.9106 277.386 62.1677 275.643 60.0176 275.643C57.8675 275.643 56.1245 277.386 56.1245 279.536C56.1245 281.686 57.8675 283.429 60.0176 283.429Z" fill="#67CAEA"/>
<path d="M13.261 336.797C13.7549 334.704 12.4589 332.608 10.3663 332.114C8.27374 331.62 6.17699 332.916 5.68309 335.008C5.1892 337.101 6.48519 339.198 8.57777 339.692C10.6704 340.186 12.7671 338.89 13.261 336.797Z" fill="#67CAEA"/>
<path d="M62.7692 338.747C64.2895 337.227 64.2895 334.762 62.7692 333.241C61.2488 331.721 58.7839 331.721 57.2636 333.241C55.7432 334.762 55.7432 337.227 57.2635 338.747C58.7839 340.267 61.2488 340.267 62.7692 338.747Z" fill="#67CAEA"/>
<path d="M12.2245 226.033C13.7448 224.513 13.7448 222.048 12.2245 220.527C10.7042 219.007 8.23921 219.007 6.71888 220.527C5.19854 222.048 5.19854 224.513 6.71887 226.033C8.23921 227.553 10.7042 227.553 12.2245 226.033Z" fill="#67CAEA"/>
<path d="M63.8028 224.223C64.2967 222.131 63.0007 220.034 60.9081 219.54C58.8155 219.046 56.7187 220.342 56.2248 222.435C55.7309 224.527 57.027 226.624 59.1195 227.118C61.2121 227.612 63.3089 226.316 63.8028 224.223Z" fill="#67CAEA"/>
<path d="M54.6894 188.664H14.9824C12.9731 188.664 11.3367 190.3 11.3367 192.309V201.111C11.3367 203.121 12.9731 204.757 14.9824 204.757H54.6894C56.6987 204.757 58.3351 203.121 58.3351 201.111V192.309C58.3351 190.3 56.6987 188.664 54.6894 188.664ZM56.5046 201.111C56.5046 202.112 55.6902 202.927 54.6894 202.927H14.9824C13.9815 202.927 13.1671 202.112 13.1671 201.111V192.309C13.1671 191.308 13.9815 190.494 14.9824 190.494H54.6894C55.6902 190.494 56.5046 191.308 56.5046 192.309V201.111Z" fill="#67CAEA"/>
<path d="M65.0101 166.953V174.046C65.0101 175.051 64.1957 175.862 63.1911 175.862H56.8701V166.903H55.0434V175.862H46.264V166.903H44.4374V175.862H35.658V166.903H33.8314V175.862H25.052V166.903H23.2253V175.862H14.4459V166.903H12.6193V175.862H6.29449C5.29363 175.862 4.47925 175.051 4.47925 174.046V166.953C3.82469 167.037 3.20439 167.25 2.65259 167.562V174.046C2.65259 176.056 4.28517 177.692 6.29449 177.692H63.1911C65.2004 177.692 66.8368 176.056 66.8368 174.046V167.562C66.2812 167.25 65.6647 167.037 65.0101 166.953Z" fill="#67CAEA"/>
<path d="M637.233 305.897C636.88 310.22 636.491 314.528 636.073 318.824C635.616 323.516 635.068 328.258 634.212 332.916C633.721 335.588 633.127 338.232 632.389 340.828L609.681 349.219H589.31C586.449 349.219 584.127 346.901 584.127 344.04V172.083C584.127 170.142 585.2 168.448 586.78 167.562C586.871 167.512 586.962 167.47 587.054 167.425C587.427 167.242 587.826 167.105 588.241 167.017C588.363 166.995 588.485 166.968 588.61 166.953C588.838 166.919 589.071 166.903 589.31 166.903H636.842C637.488 174.122 638.033 181.349 638.478 188.58C640.906 227.99 640.384 267.465 637.233 305.897Z" fill="#67CAEA"/>
<path d="M613.658 172.083V344.036C613.658 346.898 611.341 349.215 608.479 349.215H549.352C546.49 349.215 544.173 346.898 544.173 344.036V172.083C544.173 170.138 545.242 168.448 546.825 167.562C547.381 167.25 547.997 167.04 548.656 166.953C548.884 166.919 549.12 166.903 549.356 166.903H608.483C608.719 166.903 608.954 166.919 609.183 166.953C609.841 167.04 610.458 167.25 611.013 167.562C612.596 168.448 613.666 170.142 613.666 172.083H613.658Z" fill="#272443"/>
<path d="M578.913 228.344C567.116 228.344 557.519 237.941 557.519 249.738C557.519 261.536 567.116 271.137 578.913 271.137C590.71 271.137 600.312 261.539 600.312 249.738C600.312 237.938 590.71 228.344 578.913 228.344ZM578.913 269.307C568.125 269.307 559.349 260.531 559.349 249.738C559.349 238.946 568.125 230.174 578.913 230.174C589.702 230.174 598.481 238.95 598.481 249.738C598.481 260.527 589.702 269.307 578.913 269.307Z" fill="#67CAEA"/>
<path d="M578.914 255.227C581.944 255.227 584.401 252.77 584.401 249.739C584.401 246.708 581.944 244.251 578.914 244.251C575.883 244.251 573.426 246.708 573.426 249.739C573.426 252.77 575.883 255.227 578.914 255.227Z" fill="#67CAEA"/>
<path d="M578.913 288.141C567.116 288.141 557.519 297.742 557.519 309.539C557.519 321.336 567.116 330.934 578.913 330.934C590.71 330.934 600.312 321.336 600.312 309.539C600.312 297.742 590.71 288.141 578.913 288.141ZM578.913 329.103C568.125 329.103 559.349 320.328 559.349 309.539C559.349 298.75 568.125 289.971 578.913 289.971C589.702 289.971 598.481 298.747 598.481 309.539C598.481 320.332 589.702 329.103 578.913 329.103Z" fill="#67CAEA"/>
<path d="M578.914 315.023C581.944 315.023 584.401 312.566 584.401 309.535C584.401 306.505 581.944 304.048 578.914 304.048C575.883 304.048 573.426 306.505 573.426 309.535C573.426 312.566 575.883 315.023 578.914 315.023Z" fill="#67CAEA"/>
<path d="M556.392 282.221C557.913 280.7 557.913 278.235 556.392 276.715C554.872 275.195 552.407 275.195 550.887 276.715C549.367 278.235 549.367 280.7 550.887 282.221C552.407 283.741 554.872 283.741 556.392 282.221Z" fill="#67CAEA"/>
<path d="M604.186 283.429C606.336 283.429 608.079 281.686 608.079 279.536C608.079 277.386 606.336 275.643 604.186 275.643C602.036 275.643 600.293 277.386 600.293 279.536C600.293 281.686 602.036 283.429 604.186 283.429Z" fill="#67CAEA"/>
<path d="M557.411 336.797C557.905 334.704 556.609 332.608 554.516 332.114C552.424 331.62 550.327 332.916 549.833 335.008C549.339 337.101 550.635 339.198 552.728 339.692C554.821 340.186 556.917 338.89 557.411 336.797Z" fill="#67CAEA"/>
<path d="M606.938 338.747C608.458 337.227 608.458 334.762 606.938 333.241C605.418 331.721 602.953 331.721 601.432 333.241C599.912 334.762 599.912 337.227 601.432 338.747C602.953 340.267 605.418 340.267 606.938 338.747Z" fill="#67CAEA"/>
<path d="M556.393 226.037C557.914 224.517 557.914 222.052 556.393 220.531C554.873 219.011 552.408 219.011 550.888 220.531C549.367 222.052 549.367 224.517 550.888 226.037C552.408 227.557 554.873 227.557 556.393 226.037Z" fill="#67CAEA"/>
<path d="M607.949 224.22C608.443 222.127 607.147 220.03 605.054 219.537C602.962 219.043 600.865 220.339 600.371 222.431C599.877 224.524 601.173 226.621 603.266 227.114C605.358 227.608 607.455 226.312 607.949 224.22Z" fill="#67CAEA"/>
<path d="M598.862 188.664H559.151C557.142 188.664 555.51 190.3 555.51 192.309V201.111C555.51 203.121 557.142 204.757 559.151 204.757H598.862C600.872 204.757 602.504 203.121 602.504 201.111V192.309C602.504 190.3 600.872 188.664 598.862 188.664ZM600.677 201.111C600.677 202.112 599.863 202.927 598.862 202.927H559.151C558.151 202.927 557.336 202.112 557.336 201.111V192.309C557.336 191.308 558.151 190.494 559.151 190.494H598.862C599.863 190.494 600.677 191.308 600.677 192.309V201.111Z" fill="#67CAEA"/>
<path d="M609.179 166.953V174.046C609.179 175.051 608.365 175.862 607.364 175.862H601.043V166.903H599.212V175.862H590.437V166.903H588.606V175.862H579.831V166.903H578V175.862H569.225V166.903H567.394V175.862H558.619V166.903H556.788V175.862H550.467C549.466 175.862 548.652 175.051 548.652 174.046V166.953C547.994 167.037 547.377 167.25 546.822 167.562V174.046C546.822 176.056 548.458 177.692 550.467 177.692H607.364C609.373 177.692 611.01 176.056 611.01 174.046V167.562C610.454 167.25 609.837 167.037 609.179 166.953Z" fill="#67CAEA"/>
<path d="M320.686 0.780762V50.209H319.494V1.08435C319.89 0.98243 320.289 0.880512 320.686 0.780762Z" fill="#272443"/>
<path d="M308.163 34.1274V34.8127H306.97C307.361 34.5741 307.76 34.3443 308.163 34.1274Z" fill="#8A9ED6"/>
<path d="M312.934 32.1606V34.8127H308.163V34.1275C309.668 33.3143 311.264 32.6529 312.934 32.1606Z" fill="#8A9ED6"/>
<path d="M317.704 31.2393V34.8129H312.934V32.1609C314.467 31.7033 316.063 31.3932 317.704 31.2393Z" fill="#EEE1E0"/>
<path d="M322.475 31.2392V34.8129H317.705V31.2392C318.49 31.1633 319.285 31.1265 320.09 31.1265C320.894 31.1265 321.69 31.1633 322.475 31.2392Z" fill="#8A9ED6"/>
<path d="M327.246 32.1609V34.8129H322.475V31.2393C324.117 31.3932 325.713 31.7033 327.246 32.1609Z" fill="#8A9ED6"/>
<path d="M332.016 34.1275V34.8127H327.246V32.1606C328.916 32.6529 330.512 33.3143 332.016 34.1275Z" fill="#5C6EA0"/>
<path d="M333.209 34.8127H332.016V34.1274C332.42 34.3443 332.819 34.5741 333.209 34.8127Z" fill="#8A9ED6"/>
<path d="M303.393 37.4673V39.5837H301.276C301.938 38.8378 302.647 38.1287 303.393 37.4673Z" fill="#8A9ED6"/>
<path d="M308.163 34.813V39.5836H303.393V37.4672C304.503 36.4805 305.7 35.5915 306.971 34.813H308.163Z" fill="#8A9ED6"/>
<path d="M312.934 34.813H308.163V39.5836H312.934V34.813Z" fill="#EEE1E0"/>
<path d="M317.704 34.813H312.934V39.5836H317.704V34.813Z" fill="#8A9ED6"/>
<path d="M322.475 34.813H317.705V39.5836H322.475V34.813Z" fill="#EEE1E0"/>
<path d="M327.246 34.813H322.475V39.5836H327.246V34.813Z" fill="#8A9ED6"/>
<path d="M332.016 34.813H327.246V39.5836H332.016V34.813Z" fill="#EEE1E0"/>
<path d="M336.787 37.4672V39.5836H332.016V34.813H333.209C334.48 35.5915 335.677 36.4805 336.787 37.4672Z" fill="#8A9ED6"/>
<path d="M338.904 39.5837H336.787V37.4673C337.533 38.1287 338.242 38.8378 338.904 39.5837Z" fill="#8A9ED6"/>
<path d="M298.622 43.1616V44.3543H297.937C298.153 43.9509 298.383 43.5519 298.622 43.1616Z" fill="#8A9ED6"/>
<path d="M298.622 43.1616V44.3543H297.937C298.153 43.9509 298.383 43.5519 298.622 43.1616Z" fill="#8A9ED6"/>
<path d="M303.392 39.5835V44.3541H298.622V43.1615C299.4 41.8908 300.289 40.6938 301.276 39.5835H303.392Z" fill="#EEE1E0"/>
<path d="M308.163 39.5835H303.393V44.3541H308.163V39.5835Z" fill="#8A9ED6"/>
<path d="M312.934 39.5835H308.163V44.3541H312.934V39.5835Z" fill="#8A9ED6"/>
<path d="M317.704 39.5835H312.934V44.3541H317.704V39.5835Z" fill="#8A9ED6"/>
<path d="M322.475 39.5835H317.705V44.3541H322.475V39.5835Z" fill="#8A9ED6"/>
<path d="M327.246 39.5835H322.475V44.3541H327.246V39.5835Z" fill="#8A9ED6"/>
<path d="M332.016 39.5835H327.246V44.3541H332.016V39.5835Z" fill="#8A9ED6"/>
<path d="M336.787 39.5835H332.016V44.3541H336.787V39.5835Z" fill="#E75860"/>
<path d="M341.558 43.1615V44.3541H336.787V39.5835H338.904C339.89 40.6938 340.779 41.8908 341.558 43.1615Z" fill="#8A9ED6"/>
<path d="M298.622 44.354V49.1247H295.97C296.462 47.4549 297.124 45.8589 297.937 44.354H298.622Z" fill="#8A9ED6"/>
<path d="M298.622 44.354V49.1247H295.97C296.462 47.4549 297.124 45.8589 297.937 44.354H298.622Z" fill="#E75860"/>
<path d="M303.392 44.354H298.622V49.1247H303.392V44.354Z" fill="#EEE1E0"/>
<path d="M308.163 44.354H303.393V49.1247H308.163V44.354Z" fill="#8A9ED6"/>
<path d="M312.934 44.354H308.163V49.1247H312.934V44.354Z" fill="#5C6EA0"/>
<path d="M317.704 44.354H312.934V49.1247H317.704V44.354Z" fill="#8A9ED6"/>
<path d="M322.475 44.354H317.705V49.1247H322.475V44.354Z" fill="#EEE1E0"/>
<path d="M327.246 44.354H322.475V49.1247H327.246V44.354Z" fill="#8A9ED6"/>
<path d="M332.016 44.354H327.246V49.1247H332.016V44.354Z" fill="#5C6EA0"/>
<path d="M336.787 44.354H332.016V49.1247H336.787V44.354Z" fill="#8A9ED6"/>
<path d="M341.558 44.354H336.787V49.1247H341.558V44.354Z" fill="#EEE1E0"/>
<path d="M298.622 49.1245V53.8952H295.048C295.202 52.2536 295.512 50.6576 295.97 49.1245H298.622Z" fill="#8A9ED6"/>
<path d="M298.622 49.1245V53.8952H295.048C295.202 52.2536 295.512 50.6576 295.97 49.1245H298.622Z" fill="#8A9ED6"/>
<path d="M303.392 49.1245H298.622V53.8952H303.392V49.1245Z" fill="#E75860"/>
<path d="M308.163 49.1245H303.393V53.8952H308.163V49.1245Z" fill="#8A9ED6"/>
<path d="M312.934 49.1245H308.163V53.8952H312.934V49.1245Z" fill="#EEE1E0"/>
<path d="M317.704 49.1245H312.934V53.8952H317.704V49.1245Z" fill="#EEE1E0"/>
<path d="M322.475 49.1245H317.705V53.8952H322.475V49.1245Z" fill="#8A9ED6"/>
<path d="M327.246 49.1245H322.475V53.8952H327.246V49.1245Z" fill="#8A9ED6"/>
<path d="M332.016 49.1245H327.246V53.8952H332.016V49.1245Z" fill="#8A9ED6"/>
<path d="M336.787 49.1245H332.016V53.8952H336.787V49.1245Z" fill="#8A9ED6"/>
<path d="M341.558 49.1245H336.787V53.8952H341.558V49.1245Z" fill="#E75860"/>
<path d="M298.622 53.8955V58.6662H295.048C294.972 57.8812 294.936 57.0853 294.936 56.2808C294.936 55.4763 294.972 54.6805 295.048 53.8955H298.622Z" fill="#8A9ED6"/>
<path d="M298.622 53.8955V58.6662H295.048C294.972 57.8812 294.936 57.0853 294.936 56.2808C294.936 55.4763 294.972 54.6805 295.048 53.8955H298.622Z" fill="#5C6EA0"/>
<path d="M303.392 53.8955H298.622V58.6662H303.392V53.8955Z" fill="#8A9ED6"/>
<path d="M308.163 53.8955H303.393V58.6662H308.163V53.8955Z" fill="#EEE1E0"/>
<path d="M312.934 53.8955H308.163V58.6662H312.934V53.8955Z" fill="#8A9ED6"/>
<path d="M317.704 53.8955H312.934V58.6662H317.704V53.8955Z" fill="#8A9ED6"/>
<path d="M322.475 53.8955H317.705V58.6662H322.475V53.8955Z" fill="#8A9ED6"/>
<path d="M327.246 53.8955H322.475V58.6662H327.246V53.8955Z" fill="#5C6EA0"/>
<path d="M332.016 53.8955H327.246V58.6662H332.016V53.8955Z" fill="#EEE1E0"/>
<path d="M336.787 53.8955H332.016V58.6662H336.787V53.8955Z" fill="#8A9ED6"/>
<path d="M341.558 53.8955H336.787V58.6662H341.558V53.8955Z" fill="#EEE1E0"/>
<path d="M298.622 58.666V63.4367H295.97C295.512 61.9036 295.202 60.3076 295.048 58.666H298.622Z" fill="#8A9ED6"/>
<path d="M298.622 58.666V63.4367H295.97C295.512 61.9036 295.202 60.3076 295.048 58.666H298.622Z" fill="#5C6EA0"/>
<path d="M303.392 58.666H298.622V63.4367H303.392V58.666Z" fill="#8A9ED6"/>
<path d="M308.163 58.666H303.393V63.4367H308.163V58.666Z" fill="#E75860"/>
<path d="M312.934 58.666H308.163V63.4367H312.934V58.666Z" fill="#EEE1E0"/>
<path d="M317.704 58.666H312.934V63.4367H317.704V58.666Z" fill="#EEE1E0"/>
<path d="M322.475 58.666H317.705V63.4367H322.475V58.666Z" fill="#5C6EA0"/>
<path d="M327.246 58.666H322.475V63.4367H327.246V58.666Z" fill="#8A9ED6"/>
<path d="M332.016 58.666H327.246V63.4367H332.016V58.666Z" fill="#8A9ED6"/>
<path d="M336.787 58.666H332.016V63.4367H336.787V58.666Z" fill="#8A9ED6"/>
<path d="M341.558 58.666H336.787V63.4367H341.558V58.666Z" fill="#8A9ED6"/>
<path d="M298.622 63.4365V68.2072H297.937C297.124 66.7022 296.462 65.1062 295.97 63.4365H298.622Z" fill="#8A9ED6"/>
<path d="M298.622 63.4365V68.2072H297.937C297.124 66.7022 296.462 65.1062 295.97 63.4365H298.622Z" fill="#8A9ED6"/>
<path d="M303.392 63.4365H298.622V68.2072H303.392V63.4365Z" fill="#EEE1E0"/>
<path d="M308.163 63.4365H303.393V68.2072H308.163V63.4365Z" fill="#8A9ED6"/>
<path d="M312.934 63.4365H308.163V68.2072H312.934V63.4365Z" fill="#8A9ED6"/>
<path d="M317.704 63.4365H312.934V68.2072H317.704V63.4365Z" fill="#8A9ED6"/>
<path d="M322.475 63.4365H317.705V68.2072H322.475V63.4365Z" fill="#8A9ED6"/>
<path d="M327.246 63.4365H322.475V68.2072H327.246V63.4365Z" fill="#EEE1E0"/>
<path d="M332.016 63.4365H327.246V68.2072H332.016V63.4365Z" fill="#8A9ED6"/>
<path d="M336.787 63.4365H332.016V68.2072H336.787V63.4365Z" fill="#5C6EA0"/>
<path d="M341.558 63.4365H336.787V68.2072H341.558V63.4365Z" fill="#EEE1E0"/>
<path d="M298.622 68.2075V69.4002C298.383 69.0099 298.153 68.6109 297.937 68.2075H298.622Z" fill="#8A9ED6"/>
<path d="M298.622 68.2075V69.4002C298.383 69.0099 298.153 68.6109 297.937 68.2075H298.622Z" fill="#8A9ED6"/>
<path d="M303.392 68.2075V72.9782H301.276C300.289 71.8679 299.4 70.6709 298.622 69.4002V68.2075H303.392Z" fill="#5C6EA0"/>
<path d="M308.163 68.2075H303.393V72.9782H308.163V68.2075Z" fill="#8A9ED6"/>
<path d="M312.934 68.2075H308.163V72.9782H312.934V68.2075Z" fill="#5C6EA0"/>
<path d="M317.704 68.2075H312.934V72.9782H317.704V68.2075Z" fill="#8A9ED6"/>
<path d="M322.475 68.2075H317.705V72.9782H322.475V68.2075Z" fill="#8A9ED6"/>
<path d="M327.246 68.2075H322.475V72.9782H327.246V68.2075Z" fill="#8A9ED6"/>
<path d="M332.016 68.2075H327.246V72.9782H332.016V68.2075Z" fill="#8A9ED6"/>
<path d="M336.787 68.2075H332.016V72.9782H336.787V68.2075Z" fill="#5C6EA0"/>
<path d="M341.558 68.2075V69.4002C340.779 70.6709 339.89 71.8679 338.904 72.9782H336.787V68.2075H341.558Z" fill="#8A9ED6"/>
<path d="M303.393 72.978V75.0945C302.647 74.4331 301.938 73.724 301.276 72.978H303.393Z" fill="#5C6EA0"/>
<path d="M308.163 72.978V77.7487H306.971C305.7 76.9702 304.503 76.0811 303.393 75.0945V72.978H308.163Z" fill="#EEE1E0"/>
<path d="M312.934 72.978H308.163V77.7487H312.934V72.978Z" fill="#8A9ED6"/>
<path d="M317.704 72.978H312.934V77.7487H317.704V72.978Z" fill="#5C6EA0"/>
<path d="M322.475 72.978H317.705V77.7487H322.475V72.978Z" fill="#EEE1E0"/>
<path d="M327.246 72.978H322.475V77.7487H327.246V72.978Z" fill="#8A9ED6"/>
<path d="M332.016 72.978H327.246V77.7487H332.016V72.978Z" fill="#EEE1E0"/>
<path d="M336.787 72.978V75.0945C335.677 76.0811 334.48 76.9702 333.209 77.7487H332.016V72.978H336.787Z" fill="#8A9ED6"/>
<path d="M338.904 72.978C338.242 73.724 337.533 74.4331 336.787 75.0945V72.978H338.904Z" fill="#5C6EA0"/>
<path d="M308.163 77.7485V78.4338C307.76 78.2169 307.361 77.9871 306.97 77.7485H308.163Z" fill="#8A9ED6"/>
<path d="M312.934 77.7485V80.4006C311.264 79.9083 309.668 79.2469 308.163 78.4338V77.7485H312.934Z" fill="#EEE1E0"/>
<path d="M317.704 77.7485V81.3222C316.063 81.1682 314.467 80.8581 312.934 80.4006V77.7485H317.704Z" fill="#8A9ED6"/>
<path d="M322.475 77.7485V81.3222C321.69 81.3981 320.894 81.4349 320.09 81.4349C319.285 81.4349 318.49 81.3981 317.705 81.3222V77.7485H322.475Z" fill="#5C6EA0"/>
<path d="M327.246 77.7485V80.4006C325.713 80.8581 324.117 81.1682 322.475 81.3222V77.7485H327.246Z" fill="#5C6EA0"/>
<path d="M332.016 77.7485V78.4338C330.512 79.2469 328.916 79.9083 327.246 80.4006V77.7485H332.016Z" fill="#8A9ED6"/>
<path d="M333.209 77.7485C332.819 77.9871 332.42 78.2169 332.016 78.4338V77.7485H333.209Z" fill="#8A9ED6"/>
<path d="M342.243 44.3543H341.558V43.1616C341.796 43.5519 342.026 43.9509 342.243 44.3543Z" fill="#8A9ED6"/>
<path d="M344.21 49.1247H341.558V44.354H342.243C343.056 45.8589 343.717 47.4549 344.21 49.1247Z" fill="#8A9ED6"/>
<path d="M345.131 53.8952H341.558V49.1245H344.21C344.667 50.6576 344.977 52.2536 345.131 53.8952Z" fill="#5C6EA0"/>
<path d="M345.244 56.2808C345.244 57.0853 345.207 57.8812 345.131 58.6662H341.558V53.8955H345.131C345.207 54.6805 345.244 55.4763 345.244 56.2808Z" fill="#8A9ED6"/>
<path d="M345.131 58.666C344.977 60.3076 344.667 61.9036 344.21 63.4367H341.558V58.666H345.131Z" fill="#8A9ED6"/>
<path d="M344.21 63.4365C343.717 65.1062 343.056 66.7022 342.243 68.2072H341.558V63.4365H344.21Z" fill="#8A9ED6"/>
<path d="M342.243 68.2075C342.026 68.6109 341.796 69.0099 341.558 69.4002V68.2075H342.243Z" fill="#8A9ED6"/>
</svg>
