<svg width="387" height="265" viewBox="0 0 387 265" fill="none" xmlns="http://www.w3.org/2000/svg">
<path d="M311.117 225.681H226.472V221.166L311.117 216.662V225.681Z" fill="white" stroke="#00006A" stroke-miterlimit="10"/>
<path d="M359.37 208.93L337.59 154.935L333.907 156.43V157.311L355.41 210.514C355.91 211.763 356.097 213.115 355.953 214.453C355.809 215.79 355.339 217.072 354.585 218.186C353.831 219.3 352.815 220.212 351.626 220.842C350.437 221.472 349.112 221.801 347.767 221.8H319.226V226.107H347.767C349.809 226.095 351.818 225.586 353.619 224.623C355.42 223.66 356.958 222.273 358.102 220.58C359.245 218.888 359.958 216.942 360.179 214.912C360.4 212.882 360.122 210.829 359.37 208.93Z" fill="white" stroke="#00006A" stroke-miterlimit="10"/>
<path d="M348.256 80.3997L341.534 79.5886L326.325 205.632L333.048 206.443L348.256 80.3997Z" fill="white" stroke="#00006A" stroke-miterlimit="10"/>
<path d="M319.938 225.76H283.308V221.453C283.307 219.201 284.141 217.029 285.65 215.357C287.159 213.685 289.235 212.633 291.476 212.405L309.959 210.534C311.223 210.407 312.499 210.545 313.706 210.942C314.912 211.338 316.022 211.983 316.964 212.834C317.906 213.686 318.66 214.726 319.175 215.886C319.691 217.047 319.958 218.303 319.958 219.572L319.938 225.76Z" fill="white" stroke="#00006A" stroke-miterlimit="10"/>
<path d="M157.232 47.956C157.232 47.956 149.421 29.0569 142.025 27.4135C134.63 25.7701 103.415 41.3824 112.028 55.7671C120.641 70.1518 129.7 69.3202 137.917 65.6671C146.134 62.014 157.232 47.956 157.232 47.956Z" fill="#00006A" stroke="#00006A" stroke-miterlimit="10"/>
<path d="M123.532 34.393C123.532 34.393 115.315 31.522 111.207 31.522C107.098 31.522 106.257 44.6692 106.257 44.6692C106.257 44.6692 109.157 31.9279 123.532 34.393Z" fill="#00006A" stroke="#00006A" stroke-miterlimit="10"/>
<path d="M212.286 62.3407C212.286 62.3407 216.81 68.4985 218.038 73.8445C219.265 79.1905 215.988 84.9325 217.216 89.4568C218.444 93.9811 224.205 98.0797 223.79 100.961C223.374 103.841 215.167 108.356 215.167 108.356C215.167 108.356 208.177 125.186 205.267 126.433C202.356 127.681 192.565 124.78 188.1 122.741C183.635 120.701 177.824 121.097 177.824 121.097L151.094 107.534C151.094 107.534 153.975 102.188 150.688 94.387C147.401 86.5858 145.738 73.4287 165.884 60.2815C186.031 47.1343 212.286 62.3407 212.286 62.3407Z" fill="white" stroke="#00006A" stroke-miterlimit="10"/>
<path d="M208.593 107.534C208.035 106.678 207.195 106.044 206.218 105.744C205.241 105.444 204.19 105.496 203.247 105.891" stroke="#00006A" stroke-miterlimit="10"/>
<path d="M211.86 87.3976C211.86 89.4469 211.217 91.1002 210.425 91.1002C209.633 91.1002 208.979 89.4469 208.979 87.3976C208.979 85.3483 209.623 83.7049 210.425 83.7049C211.226 83.7049 211.86 85.3582 211.86 87.3976Z" fill="#00006A"/>
<path d="M207.771 77.1313C208.154 76.7375 208.618 76.4321 209.131 76.2363C209.644 76.0405 210.194 75.9591 210.742 75.9978C211.289 76.0364 211.822 76.1942 212.303 76.4601C212.783 76.726 213.2 77.0936 213.523 77.5372" stroke="#00006A" stroke-miterlimit="10"/>
<path d="M210.85 95.6146C214.82 95.6146 218.038 90.4642 218.038 84.1108C218.038 77.7574 214.82 72.607 210.85 72.607C206.881 72.607 203.663 77.7574 203.663 84.1108C203.663 90.4642 206.881 95.6146 210.85 95.6146Z" stroke="#00006A" stroke-miterlimit="10"/>
<path d="M203.663 84.1108L171.607 87.3976" stroke="#00006A" stroke-miterlimit="10"/>
<path d="M165.033 95.2087C165.033 95.2087 157.232 103.842 152.708 103.842C148.183 103.842 139.56 98.0797 135.452 91.9615C131.343 85.8433 139.56 70.1815 144.085 61.1428C148.609 52.1041 156.816 36.8977 173.666 33.6109C190.516 30.3241 197.089 31.5616 211.464 38.9569C225.839 46.3522 224.205 57.0343 221.74 60.3211C219.925 62.6043 217.856 64.6735 215.573 66.4888C215.573 66.4888 224.611 61.5388 227.898 63.202C231.185 64.8652 231.195 66.8947 231.195 66.8947C231.195 66.8947 220.919 67.3105 219.681 67.3105C218.444 67.3105 214.345 69.3598 214.345 69.3598C214.345 69.3598 205.712 71.419 201.198 70.1815C196.683 68.944 190.516 64.39 190.08 69.34C189.644 74.29 183.506 82.903 181.041 83.7247C178.576 84.5464 174.874 84.9523 171.587 87.4174C168.3 89.8825 165.033 95.2087 165.033 95.2087Z" fill="#00006A" stroke="#00006A" stroke-miterlimit="10"/>
<path d="M174.488 91.5061C174.488 91.5061 168.736 79.6261 162.984 84.5266C157.232 89.4271 163.39 102.188 165.855 103.426C168.32 104.663 173.25 101.367 173.25 101.367C173.25 101.367 173.666 106.712 175.309 109.178" fill="white"/>
<path d="M174.488 91.5061C174.488 91.5061 168.736 79.6261 162.984 84.5266C157.232 89.4271 163.39 102.188 165.855 103.426C168.32 104.663 173.25 101.367 173.25 101.367C173.25 101.367 173.666 106.712 175.309 109.178" stroke="#00006A" stroke-miterlimit="10"/>
<path d="M141.62 121.097C141.62 121.097 148.55 114.108 148.55 109.593C148.55 105.079 151.015 101.366 166.627 108.772C182.239 116.177 187.635 124.78 184.348 127.255C181.061 129.73 174.072 132.205 172.468 133.829C170.864 135.452 165.073 143.283 165.073 143.283C165.073 143.283 155.173 121.097 141.62 121.097Z" fill="#F9A630" stroke="#00006A" stroke-miterlimit="10"/>
<path d="M158.638 106.346C158.638 106.346 155.153 107.049 155.856 109.484C156.269 110.961 156.269 112.522 155.856 113.999L153.767 117.137" stroke="#00006A" stroke-miterlimit="10"/>
<path d="M166.676 108.772C166.676 108.772 162.806 112.959 163.152 114.345C163.499 115.731 164.201 117.83 162.806 118.523C161.566 119.077 160.289 119.544 158.984 119.919" stroke="#00006A" stroke-miterlimit="10"/>
<path d="M168.023 124.899C167.3 125.958 166.637 126.879 166.637 126.879" stroke="#00006A" stroke-miterlimit="10"/>
<path d="M173.943 113.652C173.943 113.652 174.636 116.781 173.24 118.87C171.844 120.959 170.112 120.959 169.765 121.998" stroke="#00006A" stroke-miterlimit="10"/>
<path d="M181.596 119.216C180.955 121.03 180.14 122.778 179.16 124.433C178.111 125.829 174.29 125.483 173.587 127.215C172.903 128.552 171.957 129.737 170.805 130.7" stroke="#00006A" stroke-miterlimit="10"/>
<path d="M261.538 184.546C258.479 183.329 249.916 182.101 249.916 182.101" stroke="#00006A" stroke-miterlimit="10"/>
<path d="M246.243 180.873C246.243 180.873 252.975 179.042 257.252 180.873" stroke="#00006A" stroke-miterlimit="10"/>
<path d="M260.172 195.07C260.172 195.07 263.805 201.337 264.795 203.317C265.785 205.297 266.112 206.287 265.122 206.287C264.132 206.287 260.499 204.643 260.172 202.663C260.038 201.618 259.702 200.609 259.182 199.693C259.182 199.693 261.043 206.95 260.499 207.277C258.35 208.593 256.875 206.287 256.875 206.287L254.232 198.367C254.232 198.367 253.242 202.327 252.915 203.317C252.589 204.307 250.599 201.673 250.599 199.693C250.631 198.147 250.743 196.604 250.935 195.07L248.955 193.417C248.955 193.417 251.925 190.447 255.222 190.447C258.519 190.447 260.172 195.07 260.172 195.07Z" fill="white" stroke="#00006A" stroke-miterlimit="10"/>
<path d="M209.355 185.17L210.642 185.081C216.335 184.705 238.927 183.19 240.342 183.19C241.996 183.19 251.559 188.467 251.559 188.467C254.533 188.287 257.517 188.4 260.469 188.803C263.776 189.457 266.746 193.417 268.062 194.743C269.379 196.07 273.676 197.713 271.359 198.367C269.042 199.02 268.062 199.357 266.746 199.03C265.429 198.703 260.142 195.07 260.142 195.07L251.559 193.753C251.559 193.753 243.639 198.04 242.649 198.367C241.659 198.693 243.976 201.01 246.282 202.663C248.589 204.317 252.222 206.623 251.896 209.257C251.569 211.89 250.569 211.573 247.936 209.257C245.302 206.94 242.649 205.633 238.689 202.99C235.071 200.388 231.652 197.519 228.462 194.407L226.482 192.427C226.482 192.427 203.386 200.02 195.466 202.327C188.216 204.365 180.837 205.91 173.379 206.95C168.429 207.613 158.865 205.633 156.222 203.653C153.579 201.673 146.649 195.397 146.649 195.397L158.529 171.637C158.529 171.637 172.725 184.843 178.329 186.16C183.932 187.477 209.355 185.17 209.355 185.17Z" fill="white" stroke="#00006A" stroke-miterlimit="10"/>
<path d="M178.329 186.16C172.725 184.843 158.529 171.637 158.529 171.637L146.649 195.397C146.649 195.397 153.579 201.673 156.222 203.653C158.865 205.633 168.429 207.613 173.379 206.95C180.15 206.004 186.858 204.648 193.466 202.891C193.644 201.376 193.783 199.753 193.842 198.04C193.971 194.298 193.842 190.061 193.654 186.289C187.278 186.655 180.833 186.784 178.329 186.16Z" fill="#F9A630" stroke="#00006A" stroke-miterlimit="10"/>
<path d="M170.112 147.144C170.083 140.318 167.927 133.67 163.944 128.126C162.029 125.32 159.438 123.042 156.41 121.503C142.689 115.266 133.046 119.79 124.354 131.403C107.098 154.421 95.2974 181.755 90.6939 193.041C80.982 216.563 79.2 225.047 79.2 225.047H144.124C144.124 225.047 140.837 216.83 140.837 214.781C140.837 212.732 144.124 208.613 144.124 208.613C144.124 208.613 163.845 201.624 167.538 190.942C170.221 183.081 170.28 159.212 170.112 147.144Z" fill="#F9A630" stroke="#00006A" stroke-miterlimit="10"/>
<path d="M265.815 152.738C271.03 153.783 276.159 155.215 281.16 157.024" stroke="#00006A" stroke-miterlimit="10"/>
<path d="M275.606 150.906C279.343 152.45 282.845 154.509 286.011 157.024" stroke="#00006A" stroke-miterlimit="10"/>
<path d="M128.057 163.826C128.057 163.826 148.193 218.889 153.529 220.533C158.865 222.176 164.211 219.711 166.676 218.068C169.142 216.424 240.639 165.885 240.639 165.885C240.639 165.885 253.381 173.29 255.846 173.29C258.311 173.29 263.241 180.685 264.469 183.19C265.696 185.695 266.934 186.883 267.35 184.418C267.765 181.952 264.469 176.616 263.647 174.973C263.175 174.041 262.764 173.078 262.419 172.092C263.846 172.283 265.233 172.7 266.528 173.33C267.755 174.151 271.864 179.487 273.101 181.131C274.339 182.774 277.21 184.418 277.21 181.952C277.21 179.487 272.686 174.973 271.864 172.914C271.39 171.706 270.521 170.694 269.399 170.043C269.399 170.043 277.21 171.27 279.299 172.092C281.388 172.914 282.596 177.844 285.061 178.26C287.526 178.676 283.823 173.31 283.001 170.864C282.18 168.419 271.904 165.113 271.904 165.113C271.904 165.113 278.477 164.291 280.536 164.291C282.596 164.291 287.1 168.34 288.308 168.34C289.516 168.34 289.535 167.103 286.249 164.637C282.962 162.172 277.21 159.687 274.745 159.687C272.261 159.619 269.788 159.344 267.35 158.866C264.884 158.46 246.391 154.757 242.699 154.757C239.006 154.757 183.526 180.646 183.526 180.646L179.933 177.448C179.864 177.386 179.777 177.348 179.685 177.339L179.081 177.27C177.009 177.096 174.944 177.68 173.27 178.913C172.973 179.111 172.676 179.081 172.428 178.586C171.607 176.943 166.271 144.075 163.39 137.086C160.509 130.096 151.51 114.494 135.868 123.533" fill="white"/>
<path d="M128.057 163.826C128.057 163.826 148.193 218.889 153.529 220.533C158.865 222.176 164.211 219.711 166.676 218.068C169.142 216.424 240.639 165.885 240.639 165.885C240.639 165.885 253.381 173.29 255.846 173.29C258.311 173.29 263.241 180.685 264.469 183.19C265.696 185.695 266.934 186.883 267.35 184.418C267.765 181.952 264.469 176.616 263.647 174.973C263.175 174.041 262.764 173.078 262.419 172.092C263.846 172.283 265.233 172.7 266.528 173.33C267.755 174.151 271.864 179.487 273.101 181.131C274.339 182.774 277.21 184.418 277.21 181.952C277.21 179.487 272.686 174.973 271.864 172.914C271.39 171.706 270.521 170.694 269.399 170.043C269.399 170.043 277.21 171.27 279.299 172.092C281.388 172.914 282.596 177.844 285.061 178.26C287.526 178.676 283.823 173.31 283.001 170.864C282.18 168.419 271.904 165.113 271.904 165.113C271.904 165.113 278.477 164.291 280.536 164.291C282.596 164.291 287.1 168.34 288.308 168.34C289.516 168.34 289.535 167.103 286.249 164.637C282.962 162.172 277.21 159.687 274.745 159.687C272.261 159.619 269.788 159.344 267.35 158.866C264.884 158.46 246.391 154.757 242.699 154.757C239.006 154.757 183.526 180.646 183.526 180.646L179.933 177.448C179.864 177.386 179.777 177.348 179.685 177.339L179.081 177.27C177.009 177.096 174.944 177.679 173.27 178.913C172.973 179.111 172.676 179.081 172.428 178.586C171.607 176.943 166.271 144.075 163.39 137.086C160.509 130.096 151.51 114.494 135.868 123.533" stroke="#00006A" stroke-miterlimit="10"/>
<path d="M128.057 163.826C128.057 163.826 148.193 218.889 153.529 220.533C158.865 222.176 164.211 219.711 166.676 218.068C167.983 217.196 188.456 202.733 207.563 189.249L200.455 172.854C190.902 177.23 183.526 180.675 183.526 180.675L179.933 177.478C179.864 177.416 179.777 177.378 179.685 177.369L179.081 177.299C177.009 177.125 174.944 177.709 173.27 178.943C172.973 179.141 172.676 179.111 172.428 178.616C171.607 176.973 166.271 144.105 163.39 137.115C160.509 130.126 151.51 114.524 135.868 123.562" fill="#F9A630"/>
<path d="M128.057 163.826C128.057 163.826 148.193 218.889 153.529 220.533C158.865 222.176 164.211 219.711 166.676 218.068C167.983 217.196 188.456 202.733 207.563 189.249L200.455 172.854C190.902 177.23 183.526 180.675 183.526 180.675L179.933 177.478C179.864 177.416 179.777 177.378 179.685 177.369L179.081 177.299C177.009 177.125 174.944 177.709 173.27 178.943C172.973 179.141 172.676 179.111 172.428 178.616C171.607 176.973 166.271 144.105 163.39 137.115C160.509 130.126 151.51 114.524 135.868 123.562" stroke="#00006A" stroke-miterlimit="10"/>
<path d="M172.488 179.953C169.358 183.775 165.907 187.322 162.172 190.556" stroke="#00006A" stroke-miterlimit="10"/>
<path d="M170.132 182.606C170.132 182.606 163.36 184.962 157.757 186.437" stroke="#00006A" stroke-miterlimit="10"/>
<path d="M79.2 225.047L67.8645 125.651C67.727 124.442 67.3486 123.273 66.7515 122.212C66.1545 121.151 65.351 120.221 64.3884 119.477C63.4258 118.732 62.3238 118.187 61.1473 117.876C59.9708 117.564 58.7438 117.491 57.5388 117.662C55.1723 117.999 53.0332 119.253 51.583 121.153C50.1328 123.054 49.4878 125.448 49.7871 127.819L62.1423 225.206L79.2 225.047Z" fill="#00006A" stroke="#00006A" stroke-miterlimit="10"/>
</svg>
