<svg width="307" height="350" viewBox="0 0 307 350" fill="none" xmlns="http://www.w3.org/2000/svg">
<g clip-path="url(#clip0_11_283)">
<path d="M102.926 139.496L93.5868 138.367C86.1345 143.342 77.0893 145.352 68.2292 144.002C59.3691 142.651 51.335 138.038 45.706 131.069C40.077 124.1 37.2604 115.279 37.8097 106.34C38.3591 97.4015 42.2347 88.9912 48.6747 82.7627C55.1148 76.5342 63.6535 72.938 72.6124 72.681C81.5712 72.424 90.3023 75.5248 97.0894 81.3738C103.876 87.2228 108.229 95.3971 109.29 104.29C110.352 113.182 108.046 122.15 102.827 129.431L102.926 139.496Z" fill="white"/>
<path d="M102.926 139.496C102.926 139.496 102.926 139.256 102.926 138.805C102.926 138.353 102.926 137.704 102.926 136.856C102.926 135.134 102.841 132.621 102.784 129.416L102.996 129.515C102.984 129.528 102.97 129.538 102.954 129.544C102.939 129.551 102.922 129.554 102.904 129.554C102.887 129.554 102.87 129.551 102.855 129.544C102.839 129.538 102.825 129.528 102.813 129.515C102.796 129.49 102.787 129.461 102.787 129.431C102.787 129.4 102.796 129.371 102.813 129.346C106.181 124.621 108.339 119.144 109.1 113.393C109.594 109.636 109.494 105.825 108.803 102.099C107.996 97.8675 106.431 93.8166 104.183 90.1412C101.666 86.0924 98.3774 82.5766 94.5051 79.7929C90.3323 76.7567 85.5348 74.6877 80.4615 73.7365C75.063 72.7346 69.5073 72.9712 64.2138 74.4282C58.6517 75.9814 53.5635 78.8922 49.4071 82.8988C47.2537 84.9031 45.3556 87.1648 43.7558 89.6329C43.0352 90.8894 42.3429 92.1318 41.6648 93.4165L40.817 95.3929L40.4073 96.3671L40.0824 97.3835C38.3741 102.655 37.8909 108.246 38.6695 113.732C39.4089 118.891 41.3019 123.818 44.2079 128.146C49.2734 135.86 57.1321 141.315 66.1352 143.365L69.1022 143.873C70.0771 144.028 71.0519 144.042 71.9279 144.141C73.755 144.26 75.589 144.223 77.4097 144.028C83.1661 143.479 88.7029 141.541 93.5444 138.381H93.6292L100.51 139.285L102.318 139.539L102.954 139.638H102.361L100.58 139.454L93.6009 138.692H93.6857C88.8419 141.964 83.2669 143.995 77.4521 144.607C75.6091 144.818 73.751 144.866 71.8996 144.748C70.9389 144.664 69.964 144.649 68.975 144.508L65.9657 144C61.6657 143.045 57.5766 141.313 53.9 138.889C49.8127 136.134 46.3161 132.592 43.6145 128.471C40.6513 124.078 38.7194 119.074 37.9631 113.831C37.1552 108.247 37.6385 102.553 39.376 97.1859L39.7009 96.1553L40.1248 95.1529C40.4215 94.4894 40.704 93.7412 40.9866 93.1482C41.6224 91.8212 42.3994 90.5647 43.1059 89.28C44.7078 86.775 46.6052 84.4714 48.7572 82.4188C52.9889 78.3619 58.1649 75.4217 63.8181 73.8635C69.2577 72.3328 74.9774 72.0767 80.5321 73.1153C85.693 74.0878 90.5695 76.2058 94.8018 79.3129C98.713 82.1486 102.026 85.7276 104.55 89.8447C106.825 93.581 108.4 97.6999 109.199 102C109.874 105.781 109.955 109.644 109.439 113.449C108.628 119.251 106.401 124.763 102.954 129.501L102.756 129.332C102.768 129.319 102.782 129.31 102.798 129.303C102.814 129.296 102.831 129.293 102.848 129.293C102.865 129.293 102.882 129.296 102.898 129.303C102.914 129.31 102.928 129.319 102.94 129.332C102.946 129.345 102.949 129.359 102.949 129.374C102.949 129.389 102.946 129.403 102.94 129.416V136.941C102.94 137.76 102.94 138.353 102.94 138.861C102.94 139.369 102.926 139.496 102.926 139.496Z" fill="black"/>
<path d="M57.8842 110.753L62.3629 105.953L71.6029 113.619L88.6277 96.0988L93.0923 100.588L71.2497 122.598L57.8842 110.753Z" fill="#00AFF0"/>
<path d="M136.919 93.8118C137.959 87.0834 141.496 80.993 146.826 76.7525C152.156 72.512 158.889 70.4322 165.684 70.9271L167.097 71.0259C182.13 73.0024 188.841 86.88 186.453 101.845L181.211 154.955L180.957 165.925L145.141 169.172L145.919 145.991C145.919 145.991 131.564 142.687 132.44 128.174C132.807 121.158 134.912 106.786 136.919 93.8118Z" fill="white"/>
<path d="M145.791 145.962C152.54 146.447 159.285 144.976 165.218 141.727C165.218 141.727 160.174 152.202 145.791 149.845V145.962Z" fill="#B5B5B5"/>
<path d="M142.542 108.282C142.498 108.822 142.667 109.357 143.013 109.774C143.359 110.191 143.854 110.456 144.393 110.513C144.654 110.551 144.921 110.537 145.177 110.471C145.433 110.406 145.674 110.29 145.886 110.132C146.097 109.973 146.275 109.774 146.409 109.546C146.543 109.318 146.631 109.066 146.667 108.805C146.715 108.263 146.547 107.724 146.201 107.304C145.855 106.884 145.358 106.617 144.817 106.56C144.554 106.522 144.286 106.537 144.029 106.603C143.772 106.67 143.531 106.786 143.319 106.947C143.108 107.107 142.93 107.307 142.797 107.537C142.663 107.766 142.577 108.019 142.542 108.282Z" fill="#263238"/>
<path d="M139.518 101.139C139.759 101.421 141.412 100.377 143.644 100.546C145.876 100.715 147.43 101.958 147.685 101.689C147.939 101.421 147.586 101.068 146.922 100.504C146.002 99.7644 144.878 99.3258 143.7 99.2471C142.542 99.1696 141.387 99.4506 140.394 100.052C139.674 100.532 139.405 101.012 139.518 101.139Z" fill="#263238"/>
<path d="M163.452 110.273C163.404 110.811 163.57 111.346 163.914 111.764C164.257 112.181 164.751 112.446 165.289 112.504C165.551 112.545 165.819 112.534 166.077 112.47C166.334 112.406 166.576 112.291 166.789 112.132C167.001 111.972 167.179 111.772 167.312 111.542C167.445 111.313 167.531 111.059 167.563 110.795C167.607 110.256 167.441 109.721 167.098 109.303C166.756 108.884 166.264 108.615 165.727 108.551C165.463 108.509 165.194 108.521 164.936 108.585C164.677 108.65 164.434 108.766 164.222 108.927C164.009 109.088 163.832 109.29 163.699 109.522C163.567 109.753 163.483 110.008 163.452 110.273Z" fill="#263238"/>
<path d="M161.417 103.144C161.658 103.44 163.311 102.395 165.543 102.551C167.775 102.706 169.329 103.962 169.584 103.708C169.838 103.454 169.485 103.087 168.807 102.508C167.893 101.771 166.772 101.337 165.599 101.266C164.44 101.172 163.28 101.454 162.293 102.071C161.573 102.551 161.304 103.059 161.417 103.144Z" fill="#263238"/>
<path d="M152.121 119.082C150.972 118.631 149.771 118.322 148.546 118.165C147.981 118.066 147.444 117.911 147.374 117.515C147.375 116.926 147.552 116.351 147.882 115.864L149.889 111.628C152.714 105.628 154.735 100.673 154.495 100.56C154.254 100.447 151.796 105.233 148.999 111.233C148.335 112.645 147.685 114.057 147.077 115.468C146.665 116.129 146.5 116.914 146.611 117.685C146.679 117.89 146.793 118.077 146.945 118.231C147.097 118.386 147.282 118.503 147.487 118.574C147.797 118.684 148.12 118.756 148.448 118.786C149.654 119.04 150.889 119.139 152.121 119.082Z" fill="#263238"/>
<path d="M158.564 121.101C158.21 121.101 158.027 123.473 155.837 125.04C153.647 126.607 151.075 126.155 151.033 126.452C150.991 126.748 151.57 126.96 152.658 127.073C154.075 127.197 155.491 126.817 156.656 126C157.773 125.214 158.538 124.024 158.79 122.682C158.959 121.722 158.733 121.101 158.564 121.101Z" fill="#263238"/>
<path d="M161.474 94.3765C161.658 94.9977 163.904 94.8706 166.49 95.3788C169.075 95.8871 171.152 96.7906 171.548 96.2259C171.717 95.9718 171.392 95.3788 170.573 94.7294C169.485 93.9325 168.232 93.3915 166.906 93.147C165.58 92.9026 164.215 92.9609 162.915 93.3177C161.926 93.6282 161.403 94.08 161.474 94.3765Z" fill="#263238"/>
<path d="M140.818 94.7435C141.171 95.28 142.74 94.8706 144.59 94.9694C146.441 95.0682 147.981 95.5624 148.377 95.0541C148.561 94.8141 148.377 94.2918 147.699 93.7553C146.818 93.1196 145.77 92.7565 144.685 92.7113C143.6 92.6662 142.525 92.9408 141.595 93.5012C140.917 93.9812 140.663 94.4894 140.818 94.7435Z" fill="#263238"/>
<path d="M183.09 115.765C183.145 115.234 183.308 114.721 183.568 114.255C183.828 113.789 184.18 113.382 184.604 113.057C185.027 112.732 185.512 112.496 186.029 112.365C186.546 112.233 187.084 112.208 187.612 112.292C190.31 112.744 193.263 114.494 192.613 120.071C191.582 129.953 181.847 126.875 181.861 126.593C181.875 126.311 182.61 119.915 183.09 115.765Z" fill="white"/>
<path d="M184.419 123.106C184.419 123.106 184.574 123.247 184.857 123.417C185.249 123.632 185.71 123.688 186.142 123.572C186.826 123.238 187.408 122.726 187.825 122.09C188.243 121.454 188.481 120.718 188.516 119.958C188.624 119.114 188.546 118.256 188.29 117.445C188.222 117.135 188.082 116.845 187.881 116.599C187.679 116.354 187.422 116.16 187.131 116.033C186.937 115.963 186.725 115.96 186.53 116.027C186.334 116.094 186.168 116.226 186.057 116.4C185.902 116.668 185.944 116.866 185.888 116.88C185.831 116.894 185.69 116.697 185.888 116.301C185.961 116.059 186.122 115.852 186.34 115.722C186.486 115.632 186.649 115.571 186.819 115.545C186.989 115.518 187.162 115.526 187.329 115.567C187.701 115.689 188.038 115.9 188.311 116.18C188.584 116.46 188.785 116.802 188.897 117.177C189.229 118.079 189.331 119.049 189.194 120C188.926 121.977 187.781 123.741 186.241 123.995C185.967 124.048 185.684 124.038 185.415 123.964C185.145 123.891 184.896 123.757 184.687 123.572C184.404 123.36 184.376 123.134 184.419 123.106Z" fill="#B5B5B5"/>
<path d="M191.017 105.699C190.197 108.522 190.494 113.252 187.965 112.602C182.921 111.332 184.136 121.652 181.72 120.635C179.304 119.619 177.227 116.711 177.072 110.358C176.888 102.311 180.123 96.4941 176.959 87.2612C175.945 85.4217 174.474 83.8745 172.687 82.769C170.9 81.6636 168.858 81.0373 166.758 80.9506C164.642 80.9042 162.548 81.3986 160.677 82.3868C158.805 83.375 157.217 84.8244 156.063 86.5977C155.611 83.7741 154.24 79.5388 151.739 78.1271C150.486 77.4409 149.059 77.138 147.634 77.2559C146.21 77.3739 144.852 77.9076 143.729 78.7906C142.655 79.7314 141.958 81.0283 141.766 82.4423C141.574 83.8562 141.899 85.2919 142.683 86.4847C142.104 86.6598 141.484 86.6445 140.914 86.4412C140.345 86.2379 139.855 85.8573 139.518 85.3553C139.465 86.012 139.55 86.6724 139.766 87.2947C139.983 87.9169 140.327 88.4873 140.776 88.9694C139.735 88.7085 138.825 88.0758 138.219 87.1906C138.473 88.3624 138.713 89.52 138.967 90.6777C134.729 90.7906 130.575 86.6824 129.388 83.04C127.608 77.4918 128.979 71.9012 132.087 66.9741C133.606 64.4837 135.727 62.4145 138.254 60.9566C140.782 59.4988 143.636 58.6989 146.554 58.6306C152.375 58.6306 157.25 61.4541 159.496 66.8047C163.282 64.1365 170.94 63.2047 175.15 65.1247C177.256 66.1084 179.075 67.615 180.433 69.5007C181.791 71.3864 182.643 73.5884 182.907 75.8965C184.262 75.4221 185.719 75.3159 187.129 75.5888C188.539 75.8616 189.852 76.5037 190.932 77.4494L191.469 77.9153C192.949 79.3265 194.049 81.0893 194.664 83.0395C195.279 84.9896 195.39 87.0636 194.987 89.0683C194.676 90.6918 194.111 92.3577 193.786 93.6565C192.811 97.5671 191.017 105.699 191.017 105.699Z" fill="#263238"/>
<path d="M138.854 85.1576C138.854 85.1576 138.727 85.1576 138.515 84.8894C138.208 84.6166 137.929 84.314 137.682 83.9859C136.75 82.7525 136.173 81.2879 136.014 79.7506C135.874 78.6142 135.978 77.4609 136.319 76.3678C136.66 75.2747 137.23 74.2669 137.992 73.4118C138.931 72.3623 140.11 71.5568 141.43 71.0648C142.749 70.5729 144.169 70.4093 145.565 70.5882C147.004 70.8089 148.375 71.3492 149.578 72.1694C150.712 72.8933 151.727 73.7886 152.587 74.8235C155.001 77.7862 156.256 81.5235 156.119 85.3412C156.119 85.8776 156.119 86.2871 155.992 86.5694C155.982 86.7136 155.953 86.8559 155.907 86.9929C156.045 84.9467 155.85 82.8917 155.328 80.9082C154.728 78.7738 153.688 76.7879 152.276 75.0776C150.612 72.9359 148.219 71.479 145.551 70.9835C144.22 70.8204 142.868 70.9802 141.611 71.4496C140.355 71.919 139.23 72.684 138.332 73.68C137.599 74.4933 137.045 75.4516 136.707 76.4925C136.368 77.5335 136.253 78.6339 136.368 79.7224C136.499 81.2078 137.015 82.6334 137.865 83.8588C138.459 84.7059 138.883 85.1294 138.854 85.1576Z" fill="#00006A"/>
<path d="M136.905 89.5906C136.787 89.443 136.687 89.2819 136.608 89.1106C136.424 88.7859 136.156 88.3059 135.831 87.6988C134.882 85.9312 134.101 84.0784 133.5 82.1647C133.102 80.83 132.884 79.4486 132.85 78.0565C132.798 76.4459 133.092 74.843 133.712 73.3553C134.425 71.7009 135.609 70.2921 137.117 69.3035C138.727 68.2564 140.582 67.6435 142.499 67.5247C144.425 67.4215 146.35 67.7245 148.151 68.4141C149.804 69.0556 151.352 69.9407 152.743 71.04C155.174 72.8355 156.939 75.3884 157.758 78.2965C158.276 80.2655 158.172 82.3462 157.461 84.2541C157.27 84.7506 157.024 85.2241 156.727 85.6659C156.633 85.8335 156.514 85.9859 156.374 86.1177C156.745 85.4941 157.057 84.8371 157.306 84.1553C157.933 82.2746 157.987 80.2503 157.461 78.3388C156.62 75.5062 154.873 73.0269 152.488 71.28C149.7 69.0112 146.193 67.8099 142.598 67.8918C140.751 68.0046 138.965 68.5931 137.413 69.6C135.977 70.5384 134.844 71.872 134.15 73.44C133.547 74.8785 133.254 76.4271 133.288 77.9859C133.302 79.3468 133.496 80.6998 133.867 82.0094C134.431 83.9155 135.164 85.7676 136.057 87.5436L136.763 88.9553C136.836 89.1605 136.884 89.3739 136.905 89.5906Z" fill="#00006A"/>
<path d="M187.513 99.2894C187.513 99.2894 188.431 98.5412 189.646 97.1153C191.212 95.2494 192.298 93.0299 192.811 90.6494C193.294 88.2629 193.177 85.7941 192.472 83.4635C191.935 81.6706 191.327 80.64 191.398 80.64C191.586 80.842 191.743 81.0702 191.864 81.3177C192.223 81.9781 192.526 82.6676 192.768 83.3788C193.583 85.7495 193.744 88.2956 193.234 90.7498C192.725 93.2041 191.563 95.476 189.872 97.3271C189.366 97.8857 188.813 98.4005 188.219 98.8659C188.007 99.0422 187.768 99.185 187.513 99.2894Z" fill="#00006A"/>
<path d="M178.485 99.0071C178.485 99.0071 178.979 98.7812 179.77 98.2447C180.865 97.4915 181.73 96.4509 182.271 95.2377L182.681 94.2918L182.596 95.3224C182.469 96.7341 182.328 98.3294 182.172 100.066L181.847 99.8683C183.266 98.8999 184.478 97.6602 185.414 96.2208C186.35 94.7815 186.991 93.1709 187.301 91.4824C187.572 89.9412 187.572 88.3647 187.301 86.8236C186.991 85.4087 186.516 84.0347 185.888 82.7294C185.888 82.7294 185.959 82.8 186.072 82.9694C186.233 83.2142 186.38 83.4688 186.51 83.7318C187.004 84.6916 187.369 85.7121 187.597 86.7671C188.123 89.303 187.879 91.9377 186.897 94.3344C185.916 96.7311 184.241 98.7807 182.087 100.221L181.72 100.461V100.024C181.904 98.2871 182.073 96.6777 182.229 95.2941L182.554 95.3788C181.96 96.6302 181.018 97.6841 179.841 98.4141C179.519 98.6023 179.183 98.7674 178.838 98.9083C178.727 98.9615 178.607 98.9949 178.485 99.0071Z" fill="#00006A"/>
<path d="M175.73 78.1412C175.158 77.0601 174.38 76.1009 173.441 75.3177C172.399 74.4892 171.173 73.9228 169.866 73.6659C168.271 73.3625 166.622 73.5092 165.105 74.0894C163.575 74.6614 162.204 75.5908 161.107 76.8C160.208 77.7902 159.478 78.9204 158.945 80.1459C158.493 81.2965 158.134 82.4815 157.871 83.6894C157.841 83.3537 157.865 83.0153 157.942 82.6871C158.083 81.7739 158.325 80.8791 158.662 80.0188C159.17 78.7394 159.891 77.5555 160.796 76.5177C161.93 75.2531 163.356 74.284 164.95 73.6941C166.545 73.0896 168.279 72.9477 169.951 73.2847C171.311 73.5715 172.579 74.1925 173.639 75.0918C174.347 75.6974 174.937 76.4299 175.376 77.2518C175.488 77.4766 175.587 77.7075 175.673 77.9435C175.73 78.0424 175.744 78.1271 175.73 78.1412Z" fill="#00006A"/>
<path d="M173.412 70.5883C172.544 70.1401 171.63 69.7852 170.686 69.5294C168.374 69.0351 165.961 69.3752 163.876 70.4894C161.823 71.6649 160.151 73.4044 159.058 75.5012C158.196 77.1106 157.914 78.2259 157.843 78.1977C157.847 77.9282 157.894 77.6611 157.984 77.4071C158.186 76.7025 158.451 76.0174 158.775 75.36C159.832 73.1529 161.537 71.3207 163.664 70.1083C165.825 68.9399 168.347 68.6274 170.728 69.233C171.44 69.4206 172.12 69.7107 172.748 70.0941C172.995 70.2213 173.22 70.3882 173.412 70.5883Z" fill="#00006A"/>
<path d="M118.41 308.598C115.611 319.787 114.488 331.329 115.076 342.847C115.458 350.16 138.953 561.247 138.953 561.247L168.821 558.565L163.664 361.2L164.907 362.315C164.907 362.315 182.709 445.355 183.896 458.485C184.955 470.273 199.155 565.059 199.155 565.059L228.146 563.647L221.576 443.817L212.788 335.111L209.27 303.431L118.41 308.598Z" fill="#263238"/>
<path d="M169.414 344.188C168.973 344.49 168.499 344.741 168.001 344.936C166.684 345.571 165.287 346.022 163.848 346.278C162.833 346.453 161.796 346.453 160.782 346.278C159.597 346.047 158.501 345.49 157.617 344.668C156.712 343.697 156.071 342.511 155.752 341.224C155.399 339.925 155.201 338.569 154.961 337.2C154.028 331.708 153.421 326.696 153.082 323.082C152.912 321.275 152.813 319.793 152.757 318.776C152.693 318.247 152.693 317.711 152.757 317.181C152.904 317.693 152.998 318.218 153.039 318.748C153.181 319.906 153.364 321.346 153.576 322.983C154.042 326.612 154.721 331.595 155.653 337.101C156.119 339.812 156.43 342.565 158.083 344.16C158.846 344.832 159.749 345.326 160.726 345.607C161.703 345.888 162.731 345.948 163.734 345.783C165.146 345.568 166.529 345.199 167.86 344.682C168.355 344.451 168.877 344.285 169.414 344.188Z" fill="#00006A"/>
<path d="M159.99 318.24C159.99 318.24 160.217 318.071 160.683 318.042C161.354 318.051 162.004 318.28 162.534 318.692C162.94 318.994 163.272 319.386 163.505 319.836C163.738 320.286 163.864 320.783 163.876 321.289C163.812 321.914 163.572 322.508 163.183 323.001C162.794 323.493 162.272 323.865 161.679 324.073C161.086 324.28 160.446 324.314 159.834 324.172C159.222 324.029 158.664 323.715 158.224 323.266C157.924 322.868 157.717 322.407 157.619 321.919C157.521 321.43 157.535 320.925 157.659 320.442C157.8 319.785 158.171 319.199 158.705 318.791C159.086 318.508 159.341 318.48 159.355 318.508C158.738 319.035 158.311 319.749 158.14 320.541C158.057 320.95 158.066 321.373 158.166 321.778C158.266 322.183 158.455 322.561 158.719 322.885C159.064 323.247 159.51 323.496 159.999 323.599C160.489 323.703 160.998 323.655 161.46 323.464C161.935 323.321 162.358 323.042 162.675 322.66C162.992 322.278 163.188 321.811 163.24 321.318C163.237 320.899 163.145 320.486 162.97 320.107C162.794 319.727 162.54 319.389 162.223 319.115C161.594 318.589 160.81 318.281 159.99 318.24Z" fill="#00006A"/>
<path d="M212.379 333.177C212.007 333.281 211.621 333.328 211.234 333.318C210.195 333.394 209.151 333.394 208.112 333.318C201.182 332.758 194.656 329.832 189.632 325.031C188.875 324.311 188.172 323.537 187.527 322.715C187.075 322.137 186.849 321.798 186.891 321.77C186.933 321.741 188.021 322.941 189.971 324.664C195.068 329.165 201.415 332.011 208.168 332.824C210.74 333.05 212.365 333.007 212.379 333.177Z" fill="#00006A"/>
<path d="M131.847 318.198C131.375 319.39 130.748 320.515 129.982 321.544C128.298 324.129 126.305 326.499 124.048 328.602C121.797 330.699 119.296 332.51 116.602 333.995C115.518 334.665 114.349 335.187 113.126 335.548C114.164 334.833 115.24 334.173 116.348 333.572C118.919 331.974 121.336 330.14 123.567 328.094C125.779 326.025 127.789 323.751 129.572 321.304C130.268 320.224 131.028 319.187 131.847 318.198Z" fill="#00006A"/>
<path d="M102.191 198.96C97.7547 211.906 98.2492 210.791 89.9417 249.473C88.4158 256.617 91.1143 267.826 97.5569 271.214C103.999 274.602 115.443 270.875 119.272 264.664L125.432 206.287L102.191 198.96Z" fill="white"/>
<path d="M209.285 269.111L209.101 238.348L209.228 235.327L240.466 228.042C240.466 228.042 234.334 207.854 228.711 186.155C225.462 173.619 214.653 167.322 212.04 165.967L211.46 165.699L181.395 152.993C175.32 159.459 166.475 164.654 157.956 162.169C153.105 160.586 148.81 157.647 145.579 153.699L125.333 160.659C119.481 162.666 114.52 166.663 111.318 171.953C107.079 179.506 93.5303 213.882 93.2477 214.588L118.34 216.833C118.34 216.833 113.889 298.179 115.514 312.706C115.514 312.706 121.618 316.941 136.989 317.647C168.185 319.059 214.597 316.899 214.597 316.899C213.862 312.212 213.099 304.377 212.675 300.409L209.285 269.111Z" fill="#00AFF0"/>
<path d="M119.244 186.607C119.371 186.607 118.707 206.005 117.761 229.92C116.814 253.835 115.938 273.233 115.853 273.233C115.768 273.233 116.39 253.835 117.266 229.906C118.142 205.976 119.117 186.593 119.244 186.607Z" fill="#263238"/>
<path d="M205.851 192C205.639 192 206.261 209.224 207.264 230.442C208.267 251.661 209.256 268.856 209.482 268.842C209.708 268.828 209.073 251.633 208.07 230.4C207.066 209.167 206.077 192 205.851 192Z" fill="#263238"/>
<path d="M240.621 242.682C239.604 235.045 238.757 228.296 238.757 228.296L213.777 234.099L214.851 238.122L195.538 218.513L192.472 218.781L182.751 228.875C182.751 228.875 191.228 246.762 196.159 253.722C202.574 262.786 212.647 276.593 226.451 275.435C239.209 274.362 242.444 256.376 240.621 242.682Z" fill="white"/>
<path d="M227.086 247.256C225.571 245.266 223.715 243.56 221.605 242.216C219.649 240.652 217.442 239.43 215.077 238.602C214.964 238.814 217.903 240.48 221.124 242.838C224.346 245.195 226.931 247.426 227.086 247.256Z" fill="#B5B5B5"/>
<path d="M161.813 192.932L170.403 188.555L181.536 192.085L187.046 197.167L195.524 218.513L202.319 227.111L190.324 242.64L182.737 228.805C182.737 228.805 176.309 225.981 173.723 221.944C171.138 217.906 169.993 215.675 169.993 215.675C169.993 215.675 166.278 213.896 165.585 212.174C165.178 211.213 164.957 210.183 164.935 209.139L166.815 206.386C166.695 205.19 166.89 203.983 167.38 202.885C167.735 202.373 168.224 201.968 168.793 201.713C168.793 201.713 168.241 199.398 169.103 198.565C170.732 197.608 172.455 196.823 174.246 196.221L170.502 194.089C170.502 194.089 162.279 196.729 161.813 192.932Z" fill="white"/>
<path d="M174.557 200.682C174.557 200.795 173.243 200.824 171.731 201.162C170.219 201.501 168.906 201.981 168.906 201.882C169.754 201.316 170.72 200.949 171.731 200.809C172.652 200.557 173.617 200.514 174.557 200.682Z" fill="#B5B5B5"/>
<path d="M171.986 205.468C171.163 205.622 170.333 205.731 169.499 205.793C168.689 205.983 167.868 206.124 167.041 206.216C167.767 205.767 168.591 205.496 169.442 205.426C170.282 205.247 171.152 205.261 171.986 205.468Z" fill="#B5B5B5"/>
<path d="M168.355 212.979C168.256 212.979 168.185 212.485 168.199 211.878C168.213 211.271 168.298 210.791 168.397 210.791C168.496 210.791 168.566 211.285 168.566 211.892C168.566 212.499 168.453 212.979 168.355 212.979Z" fill="#B5B5B5"/>
<path d="M169.993 215.294C169.881 214.584 169.611 213.909 169.202 213.318C168.718 212.788 168.132 212.36 167.479 212.061C167.479 212.061 167.747 211.991 168.157 212.061C168.716 212.228 169.209 212.563 169.57 213.021C169.913 213.461 170.124 213.99 170.177 214.546C170.135 215.04 170.036 215.294 169.993 215.294Z" fill="#B5B5B5"/>
<path d="M176.704 208.447C176.304 207.882 175.795 207.402 175.207 207.035C174.566 206.741 173.876 206.568 173.172 206.527C173.172 206.527 173.398 206.372 173.822 206.344C174.37 206.317 174.915 206.445 175.395 206.712C175.874 206.979 176.269 207.374 176.535 207.854C176.733 208.179 176.747 208.433 176.704 208.447Z" fill="#B5B5B5"/>
<path d="M180.618 203.704C180.519 203.704 180.18 202.857 179.205 202.292C178.615 201.982 177.982 201.763 177.326 201.642C177.326 201.642 177.552 201.515 177.948 201.515C178.45 201.549 178.936 201.71 179.361 201.981C179.8 202.252 180.157 202.638 180.392 203.097C180.646 203.449 180.66 203.689 180.618 203.704Z" fill="#B5B5B5"/>
<path d="M183.246 201.374C183.246 201.374 183.246 201.078 183.147 200.64C183.076 200.073 182.862 199.534 182.525 199.073C182.179 198.614 181.722 198.249 181.197 198.014C180.788 197.831 180.505 197.774 180.519 197.718C180.533 197.661 180.83 197.633 181.282 197.718C181.898 197.899 182.438 198.276 182.822 198.791C183.198 199.308 183.4 199.93 183.401 200.569C183.401 201.106 183.288 201.388 183.246 201.374Z" fill="#B5B5B5"/>
<path d="M179.601 195.798C179.601 195.925 177.806 195.953 175.645 196.278C173.483 196.602 171.844 197.379 171.788 197.28C172.929 196.524 174.23 196.041 175.588 195.868C176.523 195.72 177.468 195.649 178.414 195.657C178.815 195.633 179.217 195.681 179.601 195.798Z" fill="#B5B5B5"/>
<g opacity="0.3">
<path d="M155.159 243.995C155.042 241.504 154.314 239.08 153.039 236.937C150.524 233.393 145.594 232.701 141.27 232.857C136.947 233.012 132.426 233.915 128.357 232.433L116.178 268.546C120.745 267.4 124.684 264.518 127.156 260.513C128.399 258.494 129.303 256.151 131.183 254.711C133.782 252.72 137.371 253.002 140.649 252.974C144.067 252.935 147.465 252.436 150.75 251.492C152.186 251.208 153.491 250.465 154.466 249.374C155.582 247.878 155.413 245.845 155.159 243.995Z" fill="black"/>
</g>
<path d="M123.808 201.727L127.594 241.92C127.604 242.833 127.836 243.73 128.269 244.534C128.702 245.338 129.323 246.025 130.081 246.537L154.48 246.028C155.942 244.067 156.608 241.626 156.345 239.195L153.633 200.725C153.477 198.409 152.615 196.744 151.57 196.715L125.87 196.122C124.556 196.094 123.539 198.861 123.808 201.727Z" fill="#263238"/>
<path d="M120.261 209.802C119.785 209.173 119.535 208.402 119.55 207.614C119.565 206.825 119.846 206.064 120.346 205.454C120.87 204.849 121.522 204.367 122.255 204.045C122.988 203.723 123.784 203.568 124.585 203.591C126.166 203.634 127.722 203.994 129.162 204.649C130.932 205.393 132.626 206.306 134.22 207.374C134.834 207.685 135.377 208.12 135.812 208.653C136.248 209.185 136.567 209.803 136.749 210.466C136.947 211.878 135.435 213.289 134.263 212.626C135.093 213.001 135.824 213.568 136.393 214.28C136.963 214.991 137.356 215.828 137.54 216.72C137.752 218.428 136.806 219.332 135.139 219.784C135.765 220.046 136.263 220.544 136.527 221.169C136.791 221.794 136.8 222.498 136.551 223.129C136.158 223.725 135.562 224.158 134.874 224.35C134.187 224.542 133.453 224.479 132.807 224.174C131.528 223.514 130.435 222.543 129.628 221.351C130.431 223.293 130.585 225.441 130.066 227.478C126.421 226.066 122.833 222.099 123.921 218.259C123.027 217.525 122.404 216.515 122.148 215.388C121.892 214.26 122.019 213.08 122.508 212.033C121.671 211.644 120.956 211.035 120.439 210.272C119.921 209.509 119.621 208.619 119.569 207.699" fill="white"/>
<path d="M119.866 206.301L119.569 223.482L115.104 230.188L94.6606 248.471C94.6606 248.471 97.684 273.304 106.924 270.593C116.164 267.882 118.382 266.118 123.878 256.108C126.789 250.729 128.597 241.991 130.278 237.007C131.267 234.071 130.406 224.612 130.406 224.612L119.866 206.301Z" fill="white"/>
<path d="M135.139 219.812C134.584 219.434 134.06 219.014 133.57 218.555C132.378 217.516 130.968 216.754 129.445 216.325C128.608 216.136 127.739 216.136 126.902 216.325C126.216 216.476 125.574 216.78 125.023 217.214C124.532 217.639 124.113 218.14 123.779 218.697C123.779 218.697 123.779 218.499 123.935 218.174C124.151 217.721 124.459 217.317 124.839 216.988C125.407 216.493 126.085 216.14 126.817 215.958C127.709 215.746 128.638 215.746 129.53 215.958C131.122 216.396 132.579 217.226 133.768 218.372C134.284 218.792 134.744 219.276 135.139 219.812Z" fill="#B5B5B5"/>
<path d="M134.884 212.809C134.216 212.607 133.575 212.322 132.977 211.962C132.412 211.68 131.734 211.327 130.957 211.016C130.101 210.704 129.222 210.459 128.329 210.282C127.446 210.097 126.538 210.063 125.644 210.184C124.928 210.307 124.248 210.587 123.652 211.002C123.083 211.405 122.603 211.919 122.239 212.513C122.259 212.325 122.317 212.142 122.409 211.976C122.649 211.51 122.986 211.101 123.398 210.776C124.017 210.293 124.744 209.969 125.517 209.831C126.45 209.646 127.41 209.646 128.343 209.831C129.26 210.01 130.159 210.275 131.027 210.621C131.726 210.921 132.406 211.266 133.062 211.652C133.695 211.996 134.303 212.383 134.884 212.809Z" fill="#B5B5B5"/>
<path d="M96.8646 258.353C96.3608 256.258 96.2744 254.085 96.6103 251.958C97.0168 249.661 97.8353 247.456 99.0263 245.449C100.519 243.014 102.335 240.792 104.423 238.842C106.627 236.711 108.888 234.861 110.908 233.195C112.714 231.661 114.44 230.035 116.079 228.325C117.173 227.121 118.17 225.832 119.06 224.471C119.4 223.991 119.684 223.475 119.908 222.932C119.521 223.376 119.167 223.848 118.848 224.344C117.886 225.6 116.843 226.793 115.726 227.915C114.313 229.327 112.547 230.936 110.499 232.645C108.45 234.353 106.26 236.202 103.957 238.292C101.822 240.285 99.9805 242.571 98.4894 245.082C97.2631 247.168 96.4433 249.468 96.0734 251.859C95.8395 253.456 95.8969 255.082 96.243 256.659C96.3349 257.086 96.4577 257.506 96.6103 257.915C96.7798 258.198 96.8363 258.353 96.8646 258.353Z" fill="#B5B5B5"/>
</g>
<defs>
<clipPath id="clip0_11_283">
<rect width="308" height="456" fill="white" transform="translate(0 -72)"/>
</clipPath>
</defs>
</svg>
