<svg width="289" height="283" viewBox="0 0 289 283" fill="none" xmlns="http://www.w3.org/2000/svg">
<g clip-path="url(#clip0_33_221)">
<path d="M143.146 111.375L101.957 130.989L113.839 247.305H195.949L207.562 129.056L168.855 111.096L143.146 111.375Z" fill="#00AFF0" stroke="#00006A" stroke-linecap="round" stroke-linejoin="round"/>
<path d="M159.654 146.867C160.425 146.867 161.05 146.243 161.05 145.472C161.05 144.702 160.425 144.078 159.654 144.078C158.883 144.078 158.258 144.702 158.258 145.472C158.258 146.243 158.883 146.867 159.654 146.867Z" fill="#00006A"/>
<path d="M161.05 153.84C161.05 154.116 160.968 154.385 160.814 154.615C160.661 154.844 160.443 155.023 160.188 155.128C159.933 155.234 159.652 155.261 159.382 155.208C159.111 155.154 158.862 155.021 158.667 154.826C158.472 154.631 158.339 154.382 158.285 154.112C158.231 153.841 158.259 153.561 158.365 153.306C158.47 153.051 158.649 152.833 158.879 152.68C159.108 152.527 159.378 152.445 159.654 152.445C160.024 152.445 160.379 152.592 160.641 152.854C160.903 153.115 161.05 153.47 161.05 153.84Z" fill="#00006A"/>
<path d="M173.939 117.312L162.684 129.853L157.88 142.036L152.706 129.674L141.821 117.312V95.3577H173.939V117.312Z" fill="white" stroke="#00006A" stroke-linecap="round" stroke-linejoin="round"/>
<path d="M141.821 105.12C143.939 107.693 146.603 109.765 149.619 111.186C152.636 112.607 155.93 113.342 159.265 113.338C164.648 113.344 169.854 111.421 173.939 107.919V95.3577H141.821V105.12Z" fill="#00006A" stroke="#00006A" stroke-linecap="round" stroke-linejoin="round"/>
<path d="M161.528 33.9172H157.002C145.76 33.9172 136.647 43.0241 136.647 54.2579V86.821C136.647 98.0549 145.76 107.162 157.002 107.162H161.528C172.77 107.162 181.884 98.0549 181.884 86.821V54.2579C181.884 43.0241 172.77 33.9172 161.528 33.9172Z" fill="white" stroke="#00006A" stroke-linecap="round" stroke-linejoin="round"/>
<path d="M163.601 66.3906L162.934 82.3982C162.921 83.0919 162.695 83.7649 162.286 84.3261C161.878 84.8873 161.307 85.3096 160.651 85.536C159.445 85.9046 158.069 85.536 157.321 82.8166" stroke="#00006A" stroke-linecap="round" stroke-linejoin="round"/>
<path d="M150.523 88.7136H168.466C168.466 88.7136 165.326 95.547 159.235 95.547C153.145 95.547 150.523 88.7136 150.523 88.7136Z" fill="#00006A" stroke="#00006A" stroke-linecap="round" stroke-linejoin="round"/>
<path d="M151.799 91.1143H166.911C167.485 90.3639 167.986 89.56 168.406 88.7136H150.523C150.864 89.556 151.291 90.3606 151.799 91.1143Z" fill="white" stroke="#00006A" stroke-linecap="round" stroke-linejoin="round"/>
<path d="M150.314 73.5926C151.029 73.5926 151.61 72.2279 151.61 70.5445C151.61 68.861 151.029 67.4963 150.314 67.4963C149.598 67.4963 149.018 68.861 149.018 70.5445C149.018 72.2279 149.598 73.5926 150.314 73.5926Z" fill="#00006A"/>
<path d="M169.692 73.5926C170.408 73.5926 170.988 72.2279 170.988 70.5445C170.988 68.861 170.408 67.4963 169.692 67.4963C168.976 67.4963 168.396 68.861 168.396 70.5445C168.396 72.2279 168.976 73.5926 169.692 73.5926Z" fill="#00006A"/>
<path d="M165.635 62.5157C165.635 62.5157 170.061 59.7465 175.055 64.1792" stroke="#00006A" stroke-linecap="round" stroke-linejoin="round"/>
<path d="M159.265 33.9172C153.266 33.9172 147.513 36.2985 143.272 40.5372C139.03 44.7758 136.647 50.5247 136.647 56.5191V77.1089H136.836H138.68V68.622C138.68 68.622 147.911 68.622 158.807 62.7249C169.702 56.8279 172.453 47.2054 172.453 47.2054C172.453 47.2054 174.856 58.8301 177.438 61.0415L180.029 63.2529V77.2782H181.874V56.5191C181.874 50.5265 179.492 44.7791 175.252 40.5407C171.013 36.3023 165.262 33.9199 159.265 33.9172Z" fill="#00006A" stroke="#00006A" stroke-linecap="round" stroke-linejoin="round"/>
<path d="M132.41 66.2113H136.647V82.9959H132.41C131.332 82.9959 130.297 82.5677 129.534 81.8055C128.772 81.0433 128.343 80.0096 128.343 78.9317V70.2555C128.349 69.1811 128.779 68.1525 129.542 67.3946C130.304 66.6367 131.335 66.2113 132.41 66.2113Z" fill="white" stroke="#00006A" stroke-linecap="round" stroke-linejoin="round"/>
<path d="M185.851 82.9958H181.614V66.2113H185.851C186.385 66.2113 186.914 66.3164 187.407 66.5206C187.901 66.7249 188.349 67.0242 188.727 67.4016C189.105 67.779 189.404 68.2271 189.608 68.7201C189.813 69.2132 189.918 69.7417 189.918 70.2754V78.9516C189.913 80.026 189.482 81.0547 188.72 81.8125C187.958 82.5704 186.926 82.9959 185.851 82.9958Z" fill="white" stroke="#00006A" stroke-linecap="round" stroke-linejoin="round"/>
<path d="M132.959 66.2113V55.5031C132.959 48.5549 135.721 41.8914 140.637 36.9784C145.554 32.0653 152.222 29.3052 159.176 29.3052C166.128 29.3078 172.795 32.0688 177.711 36.9813C182.627 41.8938 185.39 48.5558 185.392 55.5031V66.2113" stroke="#00006A" stroke-width="2" stroke-linejoin="round"/>
<path d="M185.412 82.9958C185.412 82.9958 184.116 92.957 171.935 97.0212" stroke="#00006A" stroke-linecap="round" stroke-linejoin="round"/>
<path d="M171.457 96.583C171.975 98.0771 170.52 99.9299 168.207 100.737C165.894 101.544 163.602 100.976 163.083 99.4817C162.565 97.9875 164.02 96.1347 166.333 95.3279C168.646 94.521 170.968 95.0888 171.457 96.583Z" stroke="#00006A" stroke-linecap="round" stroke-linejoin="round"/>
<path d="M101.957 130.989L67.1173 204.652L81.4917 217.183L107.479 184.59L101.957 130.989Z" fill="#00AFF0" stroke="#00006A" stroke-linecap="round" stroke-linejoin="round"/>
<path d="M99.0959 153.571L107.559 182.1L97.511 165.713" stroke="#00006A" stroke-miterlimit="10"/>
<path d="M207.562 129.056L240.737 203.098L220.282 211.943L202.03 182.657L207.562 129.056Z" fill="#00AFF0" stroke="#00006A" stroke-linecap="round" stroke-linejoin="round"/>
<path d="M85.9177 202.819L115.773 230.72L107.479 240.392L64.0769 213.487L69.0611 200.229" fill="#00AFF0"/>
<path d="M85.9177 202.819L115.773 230.72L107.479 240.392L64.0769 213.487L69.0611 200.229" stroke="#00006A" stroke-linecap="round" stroke-linejoin="round"/>
<path d="M110.799 229.067C112.015 228.409 132.361 223.538 132.64 226.028C132.919 228.519 138.999 231.278 141.761 231.278C144.522 231.278 147.293 229.067 147.841 232.384C148.39 235.701 145.359 235.97 142.857 236.249C140.355 236.527 131.802 233.758 131.802 233.758C131.802 233.758 123.828 240.392 120.468 242.056C117.109 243.719 111.068 243.152 108.855 241.498C106.642 239.845 103.612 232.931 110.799 229.067Z" fill="white" stroke="#00006A" stroke-linecap="round" stroke-linejoin="round"/>
<path d="M129.589 225.749C129.589 225.749 137.335 223.538 138.989 224.375C140.644 225.211 141.482 241.777 141.482 241.777C141.482 241.777 140.644 243.43 138.989 241.777C137.335 240.123 131.812 227.642 131.812 227.642" fill="white"/>
<path d="M129.589 225.749C129.589 225.749 137.335 223.538 138.989 224.375C140.644 225.211 141.482 241.777 141.482 241.777C141.482 241.777 140.644 243.43 138.989 241.777C137.335 240.123 131.812 227.642 131.812 227.642" stroke="#00006A" stroke-linecap="round" stroke-linejoin="round"/>
<path d="M125.732 226.307C125.732 226.307 133.706 224.375 135.401 227.413C137.096 230.451 141.212 243.988 137.893 244.536C134.574 245.084 133.467 240.671 133.467 240.671L128.214 230.999L124.625 230.451" fill="white"/>
<path d="M125.732 226.307C125.732 226.307 133.706 224.375 135.401 227.413C137.096 230.451 141.212 243.988 137.893 244.536C134.574 245.084 133.467 240.671 133.467 240.671L128.214 230.999L124.625 230.451" stroke="#00006A" stroke-linecap="round" stroke-linejoin="round"/>
<path d="M122.96 228.788C122.96 228.788 126.838 227.134 128.772 228.519C130.706 229.903 139.558 243.988 137.893 244.576C136.228 245.164 132.361 244.855 131.812 243.749C131.264 242.644 124.067 233.25 124.067 233.25" fill="white"/>
<path d="M122.96 228.788C122.96 228.788 126.838 227.134 128.772 228.519C130.706 229.903 139.558 243.988 137.893 244.576C136.228 245.164 132.361 244.855 131.812 243.749C131.264 242.644 124.067 233.25 124.067 233.25" stroke="#00006A" stroke-linecap="round" stroke-linejoin="round"/>
<path d="M120.199 233.489C120.199 233.489 123.798 230.172 125.732 231.278C127.665 232.384 135.7 242.883 134.025 243.988C132.351 245.094 131.254 243.988 129.599 241.777C128.415 240.289 127.018 238.983 125.452 237.902L122.133 239.008" fill="white"/>
<path d="M120.199 233.489C120.199 233.489 123.798 230.172 125.732 231.278C127.665 232.384 135.7 242.883 134.025 243.988C132.351 245.094 131.254 243.988 129.599 241.777C128.415 240.289 127.018 238.983 125.452 237.902L122.133 239.008" stroke="#00006A" stroke-linecap="round" stroke-linejoin="round"/>
<path d="M215.268 195.766L197.763 232.682L209.028 238.629L242.133 203.576L232.633 193.067" fill="#00AFF0"/>
<path d="M215.268 195.766L197.763 232.682L209.028 238.629L242.133 203.576L232.633 193.067" stroke="#00006A" stroke-linecap="round" stroke-linejoin="round"/>
<path d="M206.525 229.067C205.309 228.409 184.954 223.538 184.685 226.028C184.416 228.519 178.325 231.278 175.554 231.278C172.782 231.278 170.031 229.067 169.473 232.384C168.915 235.701 171.965 235.97 174.457 236.249C176.949 236.527 185.512 233.758 185.512 233.758C185.512 233.758 193.487 240.392 196.846 242.056C200.206 243.719 206.246 243.152 208.459 241.498C210.672 239.845 213.713 232.931 206.525 229.067Z" fill="white" stroke="#00006A" stroke-linecap="round" stroke-linejoin="round"/>
<path d="M187.725 225.749C187.725 225.749 179.98 223.538 178.325 224.375C176.67 225.211 175.833 241.777 175.833 241.777C175.833 241.777 176.66 243.43 178.325 241.777C179.99 240.123 185.512 227.642 185.512 227.642" fill="white"/>
<path d="M187.725 225.749C187.725 225.749 179.98 223.538 178.325 224.375C176.67 225.211 175.833 241.777 175.833 241.777C175.833 241.777 176.66 243.43 178.325 241.777C179.99 240.123 185.512 227.642 185.512 227.642" stroke="#00006A" stroke-linecap="round" stroke-linejoin="round"/>
<path d="M191.593 226.307C191.593 226.307 183.618 224.375 181.913 227.413C180.209 230.451 176.112 243.988 179.431 244.576C182.751 245.164 183.847 240.711 183.847 240.711L189.101 231.039L192.699 230.491" fill="white"/>
<path d="M191.593 226.307C191.593 226.307 183.618 224.375 181.913 227.413C180.209 230.451 176.112 243.988 179.431 244.576C182.751 245.164 183.847 240.711 183.847 240.711L189.101 231.039L192.699 230.491" stroke="#00006A" stroke-linecap="round" stroke-linejoin="round"/>
<path d="M194.384 228.788C194.384 228.788 190.516 227.134 188.582 228.519C186.648 229.903 177.767 243.988 179.431 244.576C181.096 245.164 184.954 244.855 185.512 243.749C186.07 242.644 193.248 233.25 193.248 233.25" fill="white"/>
<path d="M194.384 228.788C194.384 228.788 190.516 227.134 188.582 228.519C186.648 229.903 177.767 243.988 179.431 244.576C181.096 245.164 184.954 244.855 185.512 243.749C186.07 242.644 193.248 233.25 193.248 233.25" stroke="#00006A" stroke-linecap="round" stroke-linejoin="round"/>
<path d="M197.125 233.489C197.125 233.489 193.527 230.172 191.593 231.278C189.659 232.384 181.624 242.883 183.299 243.988C184.974 245.094 186.06 243.988 187.725 241.777C188.909 240.289 190.307 238.983 191.872 237.902L195.191 239.008" fill="white"/>
<path d="M197.125 233.489C197.125 233.489 193.527 230.172 191.593 231.278C189.659 232.384 181.624 242.883 183.299 243.988C184.974 245.094 186.06 243.988 187.725 241.777C188.909 240.289 190.307 238.983 191.872 237.902L195.191 239.008" stroke="#00006A" stroke-linecap="round" stroke-linejoin="round"/>
<path d="M212.596 244.307H91.8389V249.178H212.596V244.307Z" fill="white" stroke="#00006A" stroke-linecap="round" stroke-linejoin="round"/>
<path d="M231.147 244.307H125.891V249.178H231.147V244.307Z" fill="white" stroke="#00006A" stroke-linecap="round" stroke-linejoin="round"/>
<path d="M233.191 235.651H132.49L143.346 158.82H244.047L233.191 235.651Z" fill="white" stroke="#00006A" stroke-linecap="round" stroke-linejoin="round"/>
<path d="M237.358 235.651H136.657L147.512 158.82H248.213L237.358 235.651Z" fill="#00006A" stroke="#00006A" stroke-linecap="round" stroke-linejoin="round"/>
<path d="M206.506 199.94L216.604 249.168H190.616L180.518 199.94H206.506ZM188.871 214.553C188.922 214.752 189.038 214.929 189.201 215.055C189.363 215.181 189.563 215.25 189.769 215.25L204.492 215.111C204.63 215.109 204.766 215.075 204.89 215.014C205.013 214.952 205.122 214.864 205.207 214.755C205.292 214.646 205.351 214.519 205.381 214.385C205.411 214.25 205.41 214.11 205.379 213.975L204.043 208.457C203.996 208.255 203.881 208.075 203.718 207.947C203.555 207.818 203.354 207.749 203.146 207.75L188.423 207.889C188.285 207.891 188.149 207.924 188.026 207.986C187.902 208.048 187.794 208.136 187.71 208.245C187.626 208.355 187.567 208.481 187.539 208.616C187.51 208.751 187.513 208.891 187.546 209.025L188.871 214.553Z" fill="white" stroke="#00006A" stroke-linecap="round" stroke-linejoin="round"/>
<path d="M459.294 249.168H29.7358V253.989H459.294V249.168Z" fill="#00006A" stroke="#00006A" stroke-linecap="round" stroke-linejoin="round"/>
</g>
<defs>
<clipPath id="clip0_33_221">
<rect width="289" height="286" fill="white"/>
</clipPath>
</defs>
</svg>
