<svg width="85" height="54" viewBox="0 0 85 54" fill="none" xmlns="http://www.w3.org/2000/svg">
<g clip-path="url(#clip0_208_4)">
<path d="M36.8481 7.80005C36.631 10.412 34.4636 12.3878 31.9224 12.3878C31.7857 12.3878 31.653 12.3839 31.5163 12.3719C30.2778 12.2487 29.0031 12.4634 27.8531 13.0319C25.6818 14.0973 24.5398 16.2918 24.6363 20.331C24.6604 21.1023 24.5438 21.8894 24.2664 22.6686C23.2008 25.6384 20.0162 27.3996 16.8999 26.7396C13.2408 25.9684 11.0574 22.3228 12.0586 18.8203C12.8869 15.9221 15.6212 14.0695 18.5364 14.2126C18.8581 14.2246 19.1637 14.2325 19.4653 14.2325C25.0022 14.2325 26.7755 11.5848 26.9966 7.00892C27.0328 6.32512 27.2057 5.63337 27.5596 4.9615C28.1507 3.8404 29.1479 3.01746 30.3019 2.60797L30.326 2.68351C30.9614 2.4569 31.6489 2.36149 32.3566 2.42112C35.0708 2.64375 37.0813 5.05294 36.8481 7.80005Z" fill="url(#paint0_linear_208_4)"/>
<path d="M21.5772 11.4138C20.0532 11.5768 18.6861 10.4915 18.5212 8.98476C18.3564 7.482 19.4581 6.13031 20.9781 5.96731C22.498 5.80431 23.8651 6.88964 24.03 8.39638C24.1949 9.89914 23.0971 11.2508 21.5772 11.4138Z" fill="url(#paint1_linear_208_4)"/>
<path d="M62.6397 26.6323C59.455 26.7714 56.6122 24.5093 56.0613 21.4044C55.9165 20.5934 55.9366 19.7943 56.0894 19.0389C56.8655 15.0713 56.1055 12.7218 54.1473 11.3144C51.9398 9.7242 48.9361 9.61686 46.628 11.056C44.3642 12.4753 43.1016 14.9282 43.0895 17.2301C43.0855 18.1126 42.7518 18.9316 42.1929 19.5558C41.6299 20.1799 40.8458 20.6093 39.9411 20.7126C38.4493 20.8836 37.0138 20.0607 36.3342 18.7368C35.9764 18.0331 35.9161 17.3414 36.0126 16.6934H36.0085C36.5353 13.2147 34.8706 10.9924 31.3482 10.4716H31.3522C29.7157 10.2291 28.3968 8.88536 28.3164 7.14804C28.2359 5.46241 29.4181 3.92386 31.0828 3.55414C33.1938 3.089 35.1842 4.54405 35.4134 6.61134C35.4456 6.91746 35.4335 7.2196 35.3893 7.51379H35.3933C35.0636 9.70433 35.6024 11.3979 36.9253 12.4793C38.3367 13.6322 40.3271 13.7554 41.9556 12.9245C44.4285 11.6603 46.3747 8.96487 46.0812 5.32326C45.856 2.52447 48.0394 0.059623 50.9586 -1.04076e-05C53.134 -0.0437415 55.1164 1.35565 55.7879 3.40307C56.0251 4.12264 56.0814 4.83427 56.001 5.51409C55.9246 6.13825 55.8844 6.72663 55.8844 7.28719C55.8844 11.0401 57.7059 13.3658 63.1342 14.0059C64.5818 14.1768 65.9047 14.8288 66.9059 15.8148C67.9032 16.8007 68.5827 18.1206 68.7476 19.6154C69.1456 23.2331 66.3792 26.4693 62.6397 26.6323Z" fill="url(#paint2_linear_208_4)"/>
<path d="M50.2666 18.379C48.7466 18.542 47.3795 17.4567 47.2146 15.9539C47.0498 14.4472 48.1475 13.0955 49.6674 12.9325C51.1914 12.7695 52.5585 13.8588 52.7234 15.3616C52.8883 16.8643 51.7865 18.216 50.2666 18.379Z" fill="url(#paint3_linear_208_4)"/>
<path d="M84.1393 52.6761C84.1393 52.5171 84.0548 52.3819 83.8859 52.2746C83.7171 52.1673 83.512 52.0798 83.2707 52.0082C83.0295 51.9367 82.7882 51.8572 82.547 51.7617C82.3017 51.6663 82.0966 51.5192 81.9277 51.3165C81.7588 51.1137 81.6744 50.8593 81.6744 50.5611C81.6744 50.1795 81.8151 49.8734 82.1006 49.6388C82.3861 49.4042 82.7601 49.289 83.2265 49.289C83.898 49.289 84.4207 49.4678 84.7987 49.8217L84.4127 50.4339C84.0749 50.1397 83.6929 49.9926 83.2667 49.9926C83.0496 49.9926 82.8727 50.0443 82.74 50.1516C82.6032 50.259 82.5389 50.3942 82.5389 50.5532C82.5389 50.7281 82.6233 50.8672 82.7922 50.9786C82.9611 51.0899 83.1662 51.1773 83.4074 51.2489C83.6487 51.3205 83.89 51.4 84.1312 51.4914C84.3765 51.5828 84.5816 51.722 84.7505 51.9168C84.9193 52.1116 85.0038 52.3501 85.0038 52.6403C85.0038 53.0896 84.8349 53.4275 84.4971 53.6621C84.1674 53.8887 83.7452 54.004 83.2386 54.004C82.8807 54.004 82.5389 53.9284 82.2132 53.7813C81.8835 53.6263 81.6623 53.4673 81.5538 53.3003L82.0122 52.7278C82.1489 52.8829 82.3419 53.014 82.5992 53.1293C82.8686 53.2446 83.1139 53.3003 83.331 53.3003C83.5683 53.3003 83.7613 53.2446 83.9141 53.1333C84.0669 53.022 84.1433 52.8709 84.1433 52.6761M77.4242 52.696V46.8798H78.2364V52.3342C78.2364 52.9306 78.4174 53.2287 78.7753 53.2287C78.9522 53.2287 79.1452 53.1611 79.3543 53.0299L79.5352 53.6422C79.2457 53.8688 78.8878 53.9841 78.4616 53.9841C77.77 53.9841 77.4282 53.5547 77.4282 52.7L77.4242 52.696ZM72.6513 53.2486C73.1056 53.2486 73.4957 53.0538 73.8294 52.6682V52.0957C73.5439 51.8969 73.2021 51.7936 72.8041 51.7936C72.5266 51.7936 72.2934 51.8572 72.1084 51.9884C71.9235 52.1195 71.831 52.3024 71.831 52.537C71.831 52.7596 71.9034 52.9306 72.0481 53.0578C72.1929 53.185 72.3939 53.2486 72.6513 53.2486ZM71.5334 50.3385L71.3203 49.6984C71.7747 49.4241 72.2813 49.289 72.8402 49.289C73.4555 49.289 73.9018 49.44 74.1792 49.7422C74.4567 50.0443 74.5934 50.5094 74.5934 51.1376V53.9046H73.8214V53.3241C73.4635 53.7575 72.977 53.9761 72.3617 53.9761C71.9436 53.9761 71.6058 53.8489 71.3485 53.5985C71.0911 53.348 70.9624 53.0101 70.9624 52.5807C70.9624 52.1513 71.1233 51.7896 71.4409 51.5312C71.7586 51.2728 72.1768 51.1455 72.6875 51.1455C73.166 51.1455 73.548 51.241 73.8254 51.4358C73.8254 50.9269 73.753 50.5651 73.6123 50.3425C73.4715 50.1198 73.1981 50.0125 72.792 50.0125C72.3859 50.0125 71.9596 50.1238 71.5334 50.3425V50.3385ZM68.385 52.6642L68.771 53.2446C68.3769 53.7455 67.7939 53.996 67.0178 53.996C66.286 53.996 65.6949 53.7813 65.2446 53.3559C64.7982 52.9266 64.5731 52.3581 64.5731 51.6425C64.5731 50.9786 64.7942 50.422 65.2325 49.9688C65.6708 49.5156 66.2217 49.285 66.8851 49.285C67.6813 49.285 68.2804 49.4838 68.6825 49.8773L68.3086 50.5094C67.9587 50.1954 67.5205 50.0364 67.0018 50.0364C66.5755 50.0364 66.2056 50.1914 65.896 50.4975C65.5904 50.7997 65.4376 51.1813 65.4376 51.6425C65.4376 52.1315 65.5944 52.5171 65.904 52.8073C66.2217 53.1015 66.6157 53.2486 67.0822 53.2486C67.6089 53.2486 68.0472 53.0538 68.389 52.6682L68.385 52.6642ZM60.8134 47.6908C60.8134 47.5516 60.8657 47.4363 60.9662 47.3449C61.0667 47.2535 61.1914 47.2097 61.3402 47.2097C61.489 47.2097 61.6015 47.2535 61.694 47.3449C61.7905 47.4363 61.8348 47.5516 61.8348 47.6908C61.8348 47.8458 61.7865 47.9691 61.694 48.0685C61.5975 48.1639 61.4809 48.2155 61.3402 48.2155C61.1994 48.2155 61.0667 48.1678 60.9662 48.0685C60.8657 47.973 60.8134 47.8458 60.8134 47.6908ZM61.7262 53.9006H60.914V49.3883H61.7262V53.9006ZM55.5459 52.1871V48.136H56.3582V49.3883H58.0309V50.1397H56.3582V52.1036C56.3582 52.851 56.6276 53.2287 57.1704 53.2287C57.4358 53.2287 57.673 53.1452 57.8902 52.9783L58.1435 53.5985C57.8258 53.8529 57.4358 53.9801 56.9774 53.9801C56.4828 53.9801 56.1209 53.833 55.8917 53.5388C55.6625 53.2446 55.5459 52.7914 55.5459 52.1832V52.1871ZM51.8989 49.3883H52.7111V53.9006H51.8989V53.2605C51.4726 53.7535 50.9338 54.004 50.2864 54.004C49.7516 54.004 49.3375 53.841 49.044 53.5189C48.7504 53.1929 48.6016 52.7159 48.6016 52.0798V49.3923H49.4139V51.9009C49.4139 52.8033 49.8079 53.2566 50.592 53.2566C50.8373 53.2566 51.0786 53.1929 51.3158 53.0697C51.5571 52.9465 51.7501 52.7835 51.8989 52.5847V49.3963V49.3883ZM43.9735 50.0403C43.5754 50.0403 43.2457 50.1516 42.9843 50.3703C42.7229 50.5929 42.5701 50.8831 42.5219 51.2409H45.2924C45.2723 50.8672 45.1436 50.5731 44.9104 50.3584C44.6771 50.1437 44.3635 50.0364 43.9735 50.0364V50.0403ZM45.5658 52.7795L45.8191 53.4116C45.3808 53.8052 44.8098 54.004 44.1062 54.004C43.3623 54.004 42.7712 53.7893 42.3329 53.3639C41.8866 52.9345 41.6614 52.366 41.6614 51.6504C41.6614 50.9746 41.8705 50.414 42.2887 49.9648C42.7028 49.5156 43.2778 49.2929 44.0137 49.2929C44.6208 49.2929 45.1275 49.4877 45.5256 49.8734C45.9317 50.255 46.1327 50.748 46.1327 51.3562C46.1327 51.551 46.1167 51.7299 46.0805 51.8969H42.5701C42.6023 52.3183 42.7631 52.6483 43.0527 52.8908C43.3381 53.1333 43.7121 53.2526 44.1625 53.2526C44.7576 53.2526 45.224 53.0936 45.5618 52.7795H45.5658ZM39.3011 52.6682L39.6871 53.2486C39.293 53.7495 38.71 54 37.9339 54C37.2021 54 36.611 53.7853 36.1566 53.3599C35.7103 52.9306 35.4851 52.3621 35.4851 51.6465C35.4851 50.9825 35.7063 50.426 36.1446 49.9727C36.5829 49.5195 37.1337 49.289 37.7972 49.289C38.5934 49.289 39.1925 49.4877 39.5946 49.8813L39.2206 50.5134C38.8708 50.1994 38.4325 50.0403 37.9138 50.0403C37.4876 50.0403 37.1177 50.1954 36.808 50.5015C36.5024 50.8036 36.3496 51.1853 36.3496 51.6465C36.3496 52.1355 36.5065 52.5211 36.8161 52.8113C37.1337 53.1055 37.5278 53.2526 37.9942 53.2526C38.521 53.2526 38.9593 53.0578 39.3011 52.6722V52.6682ZM31.1223 50.0403C30.7243 50.0403 30.3945 50.1516 30.1332 50.3703C29.8718 50.5929 29.719 50.8831 29.6708 51.2409H32.4412C32.4211 50.8672 32.2925 50.5731 32.0592 50.3584C31.826 50.1437 31.5124 50.0364 31.1223 50.0364V50.0403ZM32.7147 52.7795L32.968 53.4116C32.5297 53.8052 31.9587 54.004 31.255 54.004C30.5111 54.004 29.9201 53.7893 29.4818 53.3639C29.0354 52.9345 28.8103 52.366 28.8103 51.6504C28.8103 50.9746 29.0194 50.414 29.4375 49.9648C29.8517 49.5156 30.4267 49.2929 31.1625 49.2929C31.7697 49.2929 32.2764 49.4877 32.6744 49.8734C33.0806 50.255 33.2816 50.748 33.2816 51.3562C33.2816 51.551 33.2655 51.7299 33.2293 51.8969H29.719C29.7512 52.3183 29.912 52.6483 30.2015 52.8908C30.487 53.1333 30.861 53.2526 31.3113 53.2526C31.9064 53.2526 32.3729 53.0936 32.7106 52.7795H32.7147ZM26.2811 50.9428V53.9006H25.4688V51.1614C25.4688 50.426 25.1391 50.0562 24.4837 50.0562C24.2183 50.0562 23.981 50.1159 23.7679 50.2312C23.5548 50.3464 23.394 50.5055 23.2854 50.7082C23.2934 50.74 23.2975 50.8474 23.2975 51.0302V53.9006H22.4852V50.9905C22.4852 50.7042 22.4008 50.4737 22.2279 50.3067C22.055 50.1397 21.8177 50.0562 21.5121 50.0562C21.0055 50.0562 20.6074 50.259 20.3139 50.6685V53.8966H19.5016V49.3844H20.3139V49.9568C20.4828 49.762 20.7039 49.607 20.9773 49.4838C21.2508 49.3645 21.5322 49.3049 21.8258 49.3049C22.1716 49.3049 22.4651 49.3764 22.7064 49.5156C22.9517 49.6547 23.1165 49.8455 23.205 50.088C23.3739 49.8455 23.599 49.6587 23.8845 49.5156C24.17 49.3764 24.4756 49.3049 24.8094 49.3049C25.7905 49.3049 26.2811 49.8495 26.2811 50.9388V50.9428ZM15.9913 52.6761C15.9913 52.5171 15.9069 52.3819 15.738 52.2746C15.5691 52.1673 15.364 52.0798 15.1228 52.0082C14.8815 51.9367 14.6402 51.8572 14.399 51.7617C14.1537 51.6663 13.9486 51.5192 13.7797 51.3165C13.6109 51.1137 13.5264 50.8593 13.5264 50.5611C13.5264 50.1795 13.6672 49.8734 13.9527 49.6388C14.2381 49.4042 14.6121 49.289 15.0785 49.289C15.75 49.289 16.2728 49.4678 16.6507 49.8217L16.2647 50.4339C15.927 50.1397 15.545 49.9926 15.1187 49.9926C14.9016 49.9926 14.7247 50.0443 14.592 50.1516C14.4553 50.259 14.3909 50.3942 14.3909 50.5532C14.3909 50.7281 14.4754 50.8672 14.6443 50.9786C14.8131 51.0899 15.0182 51.1773 15.2595 51.2489C15.5007 51.3205 15.742 51.4 15.9833 51.4914C16.2285 51.5828 16.4336 51.722 16.6025 51.9168C16.7714 52.1116 16.8558 52.3501 16.8558 52.6403C16.8558 53.0896 16.6869 53.4275 16.3492 53.6621C16.0194 53.8887 15.5972 54.004 15.0906 54.004C14.7327 54.004 14.3909 53.9284 14.0652 53.7813C13.7355 53.6263 13.5144 53.4673 13.4058 53.3003L13.8642 52.7278C14.0009 52.8829 14.1939 53.014 14.4513 53.1293C14.7207 53.2446 14.9659 53.3003 15.1831 53.3003C15.4203 53.3003 15.6133 53.2446 15.7661 53.1333C15.9189 53.022 15.9953 52.8709 15.9953 52.6761H15.9913ZM7.48688 50.4896C7.18932 50.7838 7.04055 51.1694 7.04055 51.6425C7.04055 52.1156 7.1853 52.5012 7.47482 52.7954C7.77237 53.0975 8.15034 53.2486 8.61276 53.2486C9.07518 53.2486 9.44913 53.1015 9.74266 52.8033C10.0362 52.5052 10.185 52.1195 10.185 51.6465C10.185 51.1734 10.0362 50.7997 9.73864 50.4935C9.44913 50.1914 9.07115 50.0403 8.61276 50.0403C8.15437 50.0403 7.77639 50.1914 7.48688 50.4935V50.4896ZM6.84754 53.3361C6.40121 52.8829 6.17603 52.3183 6.17603 51.6425C6.17603 50.9666 6.40121 50.3981 6.84754 49.9568C7.30191 49.5076 7.88898 49.285 8.61276 49.285C9.33654 49.285 9.91959 49.5076 10.3659 49.9568C10.8203 50.3981 11.0455 50.9587 11.0455 51.6425C11.0455 52.3263 10.8203 52.8908 10.3659 53.3361C9.91959 53.7774 9.33654 54 8.61276 54C7.88898 54 7.30593 53.7774 6.84754 53.3361ZM3.81972 52.6642L4.20574 53.2446C3.81168 53.7455 3.22864 53.996 2.45258 53.996C1.72076 53.996 1.12967 53.7813 0.67932 53.3559C0.232989 52.9266 0.0078125 52.3581 0.0078125 51.6425C0.0078125 50.9786 0.228968 50.422 0.667257 49.9688C1.10555 49.5156 1.65642 49.285 2.31989 49.285C3.11605 49.285 3.71518 49.4838 4.11728 49.8773L3.74332 50.5094C3.3935 50.1954 2.95521 50.0364 2.4365 50.0364C2.01027 50.0364 1.64034 50.1914 1.33072 50.4975C1.02513 50.7997 0.872328 51.1813 0.872328 51.6425C0.872328 52.1315 1.02915 52.5171 1.33876 52.8073C1.65642 53.1015 2.05048 53.2486 2.51692 53.2486C3.04367 53.2486 3.48196 53.0538 3.82374 52.6682L3.81972 52.6642Z" fill="#575756"/>
<path d="M82.6433 31.6733C82.8283 31.6733 82.9288 31.7369 82.9489 31.8601C82.969 31.9833 82.9328 32.0907 82.8403 32.1821L76.7606 38.2727L83.1178 44.8721C83.2103 44.9635 83.2465 45.0709 83.2263 45.1941C83.2062 45.3174 83.1057 45.381 82.9208 45.381H80.2066C80.0498 45.381 79.9211 45.3611 79.8286 45.3213C79.7361 45.2816 79.6517 45.21 79.5713 45.1067L74.6777 40.0339L69.764 45.1067C69.6716 45.21 69.5831 45.2816 69.4946 45.3213C69.4102 45.3611 69.2815 45.381 69.1086 45.381H66.5352C66.3623 45.381 66.2658 45.3174 66.2497 45.1941C66.2296 45.0709 66.2658 44.9635 66.3582 44.8721L72.8763 38.1733L66.9936 32.1821C66.9131 32.0907 66.881 31.9833 66.893 31.8601C66.9051 31.7369 67.0056 31.6733 67.1906 31.6733H69.9048C70.0616 31.6733 70.1903 31.6971 70.2827 31.7408C70.3752 31.7846 70.4597 31.8561 70.5401 31.9476L74.8586 36.4916L79.4345 31.9476C79.515 31.8561 79.5994 31.7885 79.6919 31.7408C79.7844 31.6931 79.909 31.6733 80.0699 31.6733H82.6433ZM52.8557 40.328H59.6673L56.5188 34.5913C56.4666 34.4999 56.3942 34.4522 56.3017 34.4522H56.1811C56.0886 34.4522 56.0162 34.4999 55.9639 34.5913L52.8557 40.328ZM56.6998 31.6733C57.2024 31.6733 57.6246 31.7726 57.9664 31.9754C58.3082 32.1782 58.646 32.5717 58.9757 33.1601L65.5299 44.9278C65.5943 45.059 65.6144 45.1663 65.5782 45.2498C65.546 45.3333 65.4495 45.377 65.2927 45.377H62.7755C62.5504 45.377 62.3976 45.2935 62.3212 45.1226L60.9138 42.5981H51.6052L50.238 45.1226C50.1456 45.2935 49.9928 45.377 49.7837 45.377H47.2102C47.0373 45.377 46.9368 45.3333 46.9046 45.2498C46.8725 45.1663 46.8885 45.059 46.9529 44.9278L53.4508 33.1601C53.7805 32.5717 54.1062 32.1782 54.4199 31.9754C54.7375 31.7726 55.1075 31.6733 55.5297 31.6733H56.6998ZM33.0121 38.6663H40.5997C41.2712 38.6663 41.7497 38.5231 42.0271 38.2369C42.3046 37.9507 42.4413 37.5133 42.4413 36.925V36.102C42.4413 35.5136 42.3006 35.0763 42.0271 34.7901C41.7497 34.5039 41.2752 34.3607 40.5997 34.3607H33.2694C33.0965 34.3607 33.0121 34.4402 33.0121 34.5953V38.6702V38.6663ZM41.2109 31.6733C42.7308 31.6733 43.8205 32.0112 44.48 32.691C45.1394 33.3708 45.4691 34.3766 45.4691 35.7084V36.8256C45.4691 37.9467 45.2399 38.8372 44.7775 39.4892C44.3151 40.1412 43.5632 40.5586 42.5177 40.7415L45.9034 44.892C45.9677 44.9556 45.9878 45.055 45.9637 45.1862C45.9356 45.3174 45.831 45.381 45.646 45.381H43.0927C42.9198 45.381 42.8032 45.3611 42.7348 45.3213C42.6705 45.2816 42.6022 45.218 42.5378 45.1265L39.4095 41.0516H33.0121V44.9476C33.0121 45.2339 32.8673 45.377 32.5778 45.377H30.4386C30.133 45.377 29.9842 45.2339 29.9842 44.9476V32.2577C29.9842 31.8641 30.1813 31.6693 30.5794 31.6693H41.2149L41.2109 31.6733ZM26.9122 31.6733C27.2017 31.6733 27.3465 31.8164 27.3465 32.1026V44.9476C27.3465 45.2339 27.2017 45.377 26.9122 45.377H24.773C24.4674 45.377 24.3186 45.2339 24.3186 44.9476V32.1026C24.3186 31.8164 24.4714 31.6733 24.773 31.6733H26.9122ZM4.59161 31.6733C4.88112 31.6733 5.13444 31.6931 5.34353 31.7329C5.55665 31.7726 5.74161 31.8482 5.89843 31.9595C6.05525 32.0708 6.20001 32.2219 6.32466 32.4087C6.44931 32.5996 6.57798 32.85 6.71068 33.1641L10.8322 42.5623C10.8845 42.6816 10.977 42.7372 11.1097 42.7372H11.3469C11.4796 42.7372 11.5721 42.6776 11.6243 42.5623L15.7459 33.1641C15.8786 32.85 16.0072 32.5996 16.1319 32.4087C16.2565 32.2179 16.4013 32.0708 16.5581 31.9595C16.7149 31.8482 16.8999 31.7726 17.1009 31.7329C17.306 31.6931 17.5513 31.6733 17.8448 31.6733H19.9639C20.6515 31.6733 21.1139 31.8283 21.3511 32.1344C21.5884 32.4405 21.709 32.9653 21.709 33.7127V44.9516C21.709 45.2379 21.5562 45.381 21.2546 45.381H19.2361C18.9466 45.381 18.8018 45.2379 18.8018 44.9516V34.7305C18.8018 34.5993 18.7496 34.5357 18.645 34.5357H18.4681C18.3354 34.5357 18.251 34.5873 18.2107 34.6907L14.2098 43.4648C14.053 43.8186 13.8882 44.1128 13.7233 44.3553C13.5584 44.5978 13.3815 44.7966 13.1885 44.9516C12.9955 45.1067 12.7784 45.218 12.5331 45.2856C12.2878 45.3492 12.0023 45.385 11.6726 45.385H10.7236C10.3939 45.385 10.1044 45.3531 9.86314 45.2856C9.61786 45.222 9.40073 45.1106 9.20772 44.9516C9.01471 44.7966 8.83779 44.5978 8.67292 44.3553C8.50806 44.1128 8.34722 43.8186 8.18638 43.4648L4.18549 34.6907C4.14528 34.5873 4.06083 34.5357 3.92814 34.5357H3.75122C3.64667 34.5357 3.5944 34.5993 3.5944 34.7305V44.9516C3.5944 45.2379 3.44964 45.381 3.16013 45.381H1.11746C0.811863 45.381 0.663086 45.2379 0.663086 44.9516V33.7127C0.663086 32.9693 0.783716 32.4445 1.02096 32.1344C1.25819 31.8283 1.72865 31.6733 2.42831 31.6733H4.58759H4.59161Z" fill="#575756"/>
</g>
<defs>
<linearGradient id="paint0_linear_208_4" x1="34.5923" y1="15.4291" x2="14.3056" y2="13.7172" gradientUnits="userSpaceOnUse">
<stop stop-color="#A3C1E7"/>
<stop offset="1" stop-color="#D3EBED"/>
</linearGradient>
<linearGradient id="paint1_linear_208_4" x1="21.0183" y1="6.34499" x2="21.5254" y2="11.0374" gradientUnits="userSpaceOnUse">
<stop stop-color="#A3C1E7"/>
<stop offset="1" stop-color="#D3EBED"/>
</linearGradient>
<linearGradient id="paint2_linear_208_4" x1="47.3438" y1="2.57615" x2="49.9937" y2="27.2669" gradientUnits="userSpaceOnUse">
<stop stop-color="#A3C1E7"/>
<stop offset="1" stop-color="#D3EBED"/>
</linearGradient>
<linearGradient id="paint3_linear_208_4" x1="49.7117" y1="13.3102" x2="50.2149" y2="18.0026" gradientUnits="userSpaceOnUse">
<stop stop-color="#A3C1E7"/>
<stop offset="1" stop-color="#D3EBED"/>
</linearGradient>
<clipPath id="clip0_208_4">
<rect width="85" height="54" fill="white"/>
</clipPath>
</defs>
</svg>
