<svg width="605" height="765" viewBox="0 0 605 765" fill="none" xmlns="http://www.w3.org/2000/svg">
<g clip-path="url(#clip0_866_2313)">
<path d="M274.979 407.494C282.749 404.456 290.541 399.375 297.504 392.304C317.517 371.938 323.031 343.168 309.791 328.017C295.394 311.535 264.817 318.028 244.733 343.012C225.435 366.359 224.084 387.542 227.737 408.939C230.318 424.058 239.775 450.226 273.392 468.615C285.536 455.451 300.692 443.739 318.52 434.098L318.756 433.964C303.184 430.403 282.195 421.71 274.979 407.494ZM262.444 356.08C261.365 349.758 265.547 343.813 271.775 342.749C277.997 341.687 283.925 345.931 285.004 352.253C286.083 358.575 281.896 364.521 275.673 365.583C269.446 366.646 263.524 362.402 262.444 356.08ZM538.327 355.938C534.602 334.53 526.322 314.991 500.351 299.373C473.139 282.485 442.11 286.463 434 306.812C426.557 325.494 441.279 350.811 466.915 363.382C475.832 367.742 484.868 369.949 493.203 370.239C491.947 379.738 485.01 390.369 473.364 400.322C457.343 413.983 447.935 416.941 340.291 474.21C300.511 495.727 280.241 528.453 285.929 561.773C289.981 585.509 305.264 601.747 324.446 612.273C333.208 599.546 344.855 587.812 359.056 577.583C339.678 571.631 333.009 565.753 331.016 554.076C327.726 534.804 364.465 517.192 381.28 508.287L389.608 557.064L431.292 529.293L426.395 500.608C445.246 503.456 485.646 507.884 488.93 527.117C494.392 559.114 405.759 593.664 371.268 627.224C354.539 643.578 347.186 661.992 350.531 681.586C352.452 692.835 356.144 706.56 378.312 717.038C384.691 720.554 391.377 712.686 386.657 707.022C369.112 683.136 380.779 667.716 405.828 651.815L412.273 689.567C414.394 701.986 426.219 710.34 438.67 708.214C451.12 706.089 459.504 694.285 457.384 681.866L450.943 644.137C478.709 650.557 497.635 663.093 487.275 689.845C484.733 696.624 493.533 702.029 498.444 696.529C515.143 678.766 514.534 666.089 512.51 654.234C509.395 635.99 496.359 619.993 475.05 609.668C511.078 589.278 541.07 560.194 534.114 519.45C529.31 491.305 507.171 469.708 473.513 459.385C487.104 451.716 493.794 446.986 502.487 439.576C540.557 407.073 541.276 373.217 538.327 355.938ZM478.672 330.927C472.444 331.991 466.523 327.746 465.443 321.424C464.364 315.102 468.542 309.133 474.77 308.07C480.992 307.007 486.92 311.251 487.999 317.573C489.078 323.895 484.896 329.865 478.672 330.927Z" fill="#F1F1F1" fill-opacity="0.64"/>
<path d="M650.53 46.9668L496.059 73.338C465.755 78.5114 445.296 95.7546 429.065 118.608C411.431 143.435 408.425 192.446 374.585 198.223L363.918 135.737C376.016 125.651 382.693 109.746 379.857 93.1311C375.614 68.2807 351.979 51.5829 327.064 55.8364C302.149 60.0899 285.392 83.6833 289.635 108.534C292.471 125.147 304.047 137.936 318.807 143.439L364.581 411.566C377.746 404.76 392.191 397.271 407.232 389.457L387.993 276.763C396.939 270.207 403.493 260.915 406.657 250.303C416.785 262.339 433.32 269.278 449.945 266.44C466.806 263.562 479.739 251.743 485.145 236.756C516.069 258.603 565.27 250.726 587.194 219.858L542.337 188.169L561.161 192.433C598.123 200.804 634.913 177.692 643.338 140.811L585.044 127.609C637.795 118.602 656.416 81.4436 650.53 46.9668ZM251.666 148.894C228.772 132.719 203.751 123.241 173.448 128.414L18.9767 154.785C24.8623 189.26 54.7562 218.138 107.508 209.132L56.8956 240.926C77.0779 272.923 119.453 282.519 151.545 262.361L167.888 252.094L136.085 296.87C167.008 318.717 216.036 309.824 237.96 278.954C248.032 291.3 264.154 298.158 281.015 295.28L281.514 295.192C303.511 291.179 316.967 268.446 313.214 246.462L305.487 201.199C285.225 189.685 269.992 161.84 251.666 148.894Z" fill="#F1F1F1" fill-opacity="0.64"/>
</g>
<defs>
<clipPath id="clip0_866_2313">
<rect width="663.593" height="661.903" fill="white" transform="translate(0 111.673) rotate(-9.6881)"/>
</clipPath>
</defs>
</svg>
