<svg width="51" height="55" viewBox="0 0 51 55" fill="none" xmlns="http://www.w3.org/2000/svg">
<path d="M20.6306 37.89H13.9406C12.4506 37.89 11.2306 36.67 11.2306 35.18C11.2306 33.69 12.4506 32.47 13.9406 32.47H20.1106C21.1306 32.47 21.9606 31.64 21.9606 30.62C21.9606 29.6 21.1306 28.77 20.1106 28.77H17.1506C16.9406 28.77 16.7606 28.6 16.7606 28.38C16.7606 28.16 16.9306 27.99 17.1506 27.99H20.1106C21.5606 27.99 22.7406 29.17 22.7406 30.62C22.7406 32.07 21.5606 33.25 20.1106 33.25H13.9406C12.8706 33.25 12.0106 34.12 12.0106 35.18C12.0106 36.24 12.8806 37.11 13.9406 37.11H20.6306L20.2706 36.85C20.1906 36.79 20.1306 36.7 20.1206 36.6C20.1006 36.5 20.1206 36.4 20.1906 36.31C20.2606 36.21 20.3806 36.15 20.5006 36.15C20.5806 36.15 20.6606 36.18 20.7306 36.22L22.3106 37.37L22.4806 37.49L22.3106 37.61L20.7306 38.76C20.6606 38.81 20.5806 38.84 20.5006 38.84C20.3806 38.84 20.2606 38.78 20.1906 38.68C20.1306 38.6 20.1006 38.49 20.1206 38.39C20.1406 38.29 20.1906 38.2 20.2706 38.14L20.6306 37.88V37.89ZM23.2206 24.82C22.9106 25.05 20.0406 27.07 13.5206 27.07C6.52057 27.07 4.04057 25.02 3.79057 24.79C3.66057 24.67 3.58057 24.51 3.58057 24.32V19.47C3.58057 17.1 5.50057 15.18 7.87057 15.18C8.15057 15.18 8.42057 15.19 8.68057 15.2C8.90057 15.2 9.11057 15.22 9.31057 15.22C9.49057 15.22 10.0306 15.22 10.2006 15.06C10.2906 14.97 10.3406 14.78 10.3406 14.49V12.77C9.38057 11.03 8.95057 8.67003 8.95057 7.10003C8.95057 4.38003 11.0406 2.16003 13.6006 2.16003C16.1606 2.16003 18.2606 4.38003 18.2606 7.10003C18.2606 8.49003 17.9306 11.33 16.7106 13.22V14.49C16.7106 14.77 16.7606 14.97 16.8506 15.06C17.0206 15.23 17.5606 15.23 17.7406 15.23C17.9406 15.23 18.1506 15.23 18.3706 15.21C18.6206 15.2 18.9006 15.19 19.1806 15.19C21.5506 15.19 23.4706 17.11 23.4706 19.48V24.33C23.4706 24.53 23.3806 24.71 23.2306 24.83L23.2206 24.82ZM4.84057 19.47V24C5.48057 24.43 7.99057 25.81 13.5206 25.81C18.6706 25.81 21.3506 24.49 22.2006 23.98V19.47C22.2006 17.8 20.8406 16.45 19.1706 16.45C18.9006 16.45 18.6506 16.45 18.4006 16.47C18.2306 16.47 18.0606 16.47 17.9006 16.47C17.7906 16.47 17.6906 16.47 17.5906 16.47C16.8306 17.95 15.3506 18.86 13.6906 18.86C12.0306 18.86 10.5306 17.93 9.77057 16.47C9.64057 16.48 9.49057 16.49 9.31057 16.49C9.15057 16.49 8.99057 16.49 8.82057 16.49H8.63057C8.39057 16.48 8.14057 16.47 7.87057 16.47C6.20057 16.47 4.84057 17.82 4.84057 19.49V19.47ZM10.8606 16.13C11.4606 17.1 12.5406 17.72 13.6806 17.72C14.8206 17.72 15.8106 17.17 16.4106 16.25C16.2606 16.18 16.1006 16.09 15.9706 15.96C15.6206 15.62 15.4406 15.13 15.4406 14.48V13.02C15.4406 12.87 15.4906 12.76 15.5506 12.66C16.5406 11.23 16.9906 8.77003 16.9906 7.09003C16.9906 5.06003 15.4606 3.41003 13.5906 3.41003C11.7206 3.41003 10.2006 5.06003 10.2006 7.09003C10.2006 8.54003 10.6506 10.79 11.4906 12.25C11.5606 12.34 11.6006 12.47 11.6006 12.6V14.48C11.6006 15.13 11.4306 15.62 11.0806 15.96C11.0106 16.03 10.9406 16.08 10.8606 16.13ZM49.3606 42.97V49.27C49.3606 49.54 49.2406 49.78 49.0506 49.91C49.0106 49.94 45.3606 52.85 36.4206 52.85C26.8206 52.85 23.7606 49.89 23.7406 49.88C23.5606 49.72 23.4606 49.5 23.4606 49.27V42.97C23.4606 39.89 25.9706 37.38 29.0606 37.38C29.2406 37.38 29.4206 37.38 29.6006 37.38C29.7706 37.38 29.9406 37.38 30.1206 37.38C30.4106 37.39 30.6906 37.4 30.9506 37.4C31.1806 37.4 31.8806 37.4 32.0906 37.2C32.1606 37.13 32.2706 36.95 32.2706 36.44V34.21C31.0306 31.95 30.4606 28.81 30.4606 26.83C30.4606 23.28 33.1806 20.38 36.5206 20.38C39.8606 20.38 42.5906 23.27 42.5906 26.83C42.5906 28.64 42.1606 32.32 40.5706 34.79V36.44C40.5706 36.82 40.6306 37.08 40.7506 37.19C40.9706 37.4 41.6706 37.4 41.9006 37.4C42.1606 37.4 42.4406 37.39 42.7406 37.38C42.9006 37.38 43.0606 37.38 43.2306 37.38C43.4106 37.38 43.6006 37.38 43.7906 37.38C46.8706 37.38 49.3806 39.89 49.3806 42.97H49.3606ZM43.1006 43.48C42.3106 43.48 41.6706 44.12 41.6706 44.91C41.6706 45.7 42.3106 46.36 43.1006 46.36C43.8906 46.36 44.5506 45.71 44.5506 44.91C44.5506 44.11 43.9006 43.48 43.1006 43.48ZM41.7606 39.07C41.2406 39.07 40.6406 39 40.1206 38.73L37.2406 42.34V51.21C43.4006 51.07 46.6706 49.48 47.7206 48.85V42.99C47.7206 40.81 45.9506 39.04 43.7706 39.04C43.6506 39.04 43.5306 39.04 43.4206 39.04C43.4206 39.04 43.4006 39.04 43.3906 39.04V41.86C44.9506 42.01 46.1806 43.32 46.1806 44.92C46.1806 46.62 44.8006 48.01 43.0906 48.01C41.3806 48.01 40.0006 46.63 40.0006 44.92C40.0006 43.73 40.6806 42.67 41.7406 42.16V39.08L41.7606 39.07ZM40.9406 26.86C40.9406 24.21 38.9506 22.06 36.5106 22.06C34.0706 22.06 32.1006 24.22 32.1006 26.86C32.1006 28.75 32.6806 31.67 33.7906 33.59C33.9006 33.75 33.9106 33.91 33.9106 34.02V36.47C33.9106 36.83 33.8706 37.16 33.7906 37.44L36.4206 40.72L39.0506 37.44C38.9606 37.16 38.9206 36.84 38.9206 36.46V34.56C38.9206 34.38 38.9706 34.23 39.0706 34.09C40.3506 32.23 40.9406 29.04 40.9406 26.85V26.86ZM30.4406 39.07C30.4406 39.07 30.4206 39.07 30.4106 39.07C30.3006 39.07 30.1806 39.07 30.0406 39.07C29.7206 39.06 29.4006 39.04 29.0506 39.04C26.8706 39.04 25.1006 40.81 25.1006 42.99V48.88C25.8906 49.41 28.8906 51.09 35.5806 51.22V42.35L32.6906 38.74C32.4906 38.85 32.2906 38.92 32.0606 38.98V39.88C34.1106 40.54 35.5206 42.51 35.5206 44.77C35.5206 45.05 35.4906 46.5 34.9606 47.35C34.3306 48.38 32.8706 48.64 32.7106 48.67C32.6606 48.67 32.6106 48.68 32.5606 48.68C32.1706 48.68 31.8406 48.4 31.7606 48.01C31.7206 47.8 31.7606 47.58 31.8906 47.4C32.0106 47.22 32.2006 47.1 32.4106 47.06C32.7806 46.99 33.4006 46.76 33.5606 46.49C33.7506 46.19 33.8606 45.37 33.8606 44.77C33.8606 42.85 32.4106 41.28 30.6306 41.28C28.8506 41.28 27.4006 42.85 27.4006 44.8C27.3406 45.4 27.4006 46.11 27.5306 46.32C27.6106 46.43 28.0906 46.79 28.7006 47.13C28.8906 47.23 29.0306 47.4 29.1006 47.61C29.1606 47.82 29.1406 48.06 29.0306 48.25C28.8806 48.51 28.6006 48.67 28.3106 48.67C28.1906 48.67 28.0606 48.64 27.9206 48.56C27.4806 48.32 26.4406 47.69 26.1206 47.14C25.6506 46.35 25.7406 44.95 25.7606 44.71C25.7606 41.98 27.8306 39.74 30.4206 39.62V39.05L30.4406 39.07Z" fill="url(#paint0_linear_34_4677)"/>
<defs>
<linearGradient id="paint0_linear_34_4677" x1="26.4706" y1="1.75003" x2="26.4706" y2="51.98" gradientUnits="userSpaceOnUse">
<stop stop-color="#FE9AA6"/>
<stop offset="1" stop-color="#799FBB"/>
</linearGradient>
</defs>
</svg>
