<?xml version="1.0" encoding="UTF-8"?>
<svg id="_Слой_1" data-name="Слой 1" xmlns="http://www.w3.org/2000/svg" viewBox="0 0 50 55">
  <defs>
    <style>
      .cls-1 {
        fill: #fff;
      }
    </style>
  </defs>
  <path class="cls-1" d="M19.74,37.89h-6.69c-1.49,0-2.71-1.22-2.71-2.71s1.22-2.71,2.71-2.71h6.17c1.02,0,1.85-.83,1.85-1.85s-.83-1.85-1.85-1.85h-2.96c-.21,0-.39-.17-.39-.39s.17-.39,.39-.39h2.96c1.45,0,2.63,1.18,2.63,2.63s-1.18,2.63-2.63,2.63h-6.17c-1.07,0-1.93,.87-1.93,1.93s.87,1.93,1.93,1.93h6.69l-.36-.26c-.08-.06-.14-.15-.15-.25-.02-.1,0-.2,.07-.29,.07-.1,.19-.16,.31-.16,.08,0,.16,.03,.23,.07l1.58,1.15,.17,.12-.17,.12-1.58,1.15c-.07,.05-.15,.08-.23,.08-.12,0-.24-.06-.31-.16-.06-.08-.09-.19-.07-.29,.02-.1,.07-.19,.15-.25l.36-.26Zm2.59-13.07c-.31,.23-3.18,2.25-9.7,2.25-7,0-9.48-2.05-9.73-2.28-.13-.12-.21-.28-.21-.47v-4.85c0-2.37,1.92-4.29,4.29-4.29,.28,0,.55,.01,.81,.02,.22,0,.43,.02,.63,.02,.18,0,.72,0,.89-.16,.09-.09,.14-.28,.14-.57v-1.72c-.96-1.74-1.39-4.1-1.39-5.67,0-2.72,2.09-4.94,4.65-4.94s4.66,2.22,4.66,4.94c0,1.39-.33,4.23-1.55,6.12v1.27c0,.28,.05,.48,.14,.57,.17,.17,.71,.17,.89,.17,.2,0,.41,0,.63-.02,.25-.01,.53-.02,.81-.02,2.37,0,4.29,1.92,4.29,4.29v4.85c0,.2-.09,.38-.24,.5ZM3.95,19.47v4.53c.64,.43,3.15,1.81,8.68,1.81,5.15,0,7.83-1.32,8.68-1.83v-4.51c0-1.67-1.36-3.02-3.03-3.02-.27,0-.52,0-.77,.02-.17,0-.34,0-.5,0-.11,0-.21,0-.31,0-.76,1.48-2.24,2.39-3.9,2.39s-3.16-.93-3.92-2.39c-.13,.01-.28,.02-.46,.02-.16,0-.32,0-.49,0h-.19c-.24-.01-.49-.02-.76-.02-1.67,0-3.03,1.35-3.03,3.02Zm6.02-3.34c.6,.97,1.68,1.59,2.82,1.59s2.13-.55,2.73-1.47c-.15-.07-.31-.16-.44-.29-.35-.34-.53-.83-.53-1.48v-1.46c0-.15,.05-.26,.11-.36,.99-1.43,1.44-3.89,1.44-5.57,0-2.03-1.53-3.68-3.4-3.68s-3.39,1.65-3.39,3.68c0,1.45,.45,3.7,1.29,5.16,.07,.09,.11,.22,.11,.35v1.88c0,.65-.17,1.14-.52,1.48-.07,.07-.14,.12-.22,.17Zm38.5,26.84v6.3c0,.27-.12,.51-.31,.64-.04,.03-3.69,2.94-12.63,2.94-9.6,0-12.66-2.96-12.68-2.97-.18-.16-.28-.38-.28-.61v-6.3c0-3.08,2.51-5.59,5.6-5.59,.18,0,.36,0,.54,0,.17,0,.34,0,.52,0,.29,.01,.57,.02,.83,.02,.23,0,.93,0,1.14-.2,.07-.07,.18-.25,.18-.76v-2.23c-1.24-2.26-1.81-5.4-1.81-7.38,0-3.55,2.72-6.45,6.06-6.45s6.07,2.89,6.07,6.45c0,1.81-.43,5.49-2.02,7.96v1.65c0,.38,.06,.64,.18,.75,.22,.21,.92,.21,1.15,.21,.26,0,.54-.01,.84-.02,.16,0,.32,0,.49,0,.18,0,.37,0,.56,0,3.08,0,5.59,2.51,5.59,5.59Zm-6.26,.51c-.79,0-1.43,.64-1.43,1.43s.64,1.45,1.43,1.45,1.45-.65,1.45-1.45-.65-1.43-1.45-1.43Zm-1.34-4.41c-.52,0-1.12-.07-1.64-.34l-2.88,3.61v8.87c6.16-.14,9.43-1.73,10.48-2.36v-5.86c0-2.18-1.77-3.95-3.95-3.95-.12,0-.24,0-.35,0,0,0-.02,0-.03,0v2.82c1.56,.15,2.79,1.46,2.79,3.06,0,1.7-1.38,3.09-3.09,3.09s-3.09-1.38-3.09-3.09c0-1.19,.68-2.25,1.74-2.76v-3.08Zm-.82-12.21c0-2.65-1.99-4.8-4.43-4.8s-4.41,2.16-4.41,4.8c0,1.89,.58,4.81,1.69,6.73,.11,.16,.12,.32,.12,.43v2.45c0,.36-.04,.69-.12,.97l2.63,3.28,2.63-3.28c-.09-.28-.13-.6-.13-.98v-1.9c0-.18,.05-.33,.15-.47,1.28-1.86,1.87-5.05,1.87-7.24Zm-10.5,12.21s-.02,0-.03,0c-.11,0-.23,0-.37,0-.32-.01-.64-.03-.99-.03-2.18,0-3.95,1.77-3.95,3.95v5.89c.79,.53,3.79,2.21,10.48,2.34v-8.87l-2.89-3.61c-.2,.11-.4,.18-.63,.24v.9c2.05,.66,3.46,2.63,3.46,4.89,0,.28-.03,1.73-.56,2.58-.63,1.03-2.09,1.29-2.25,1.32-.05,0-.1,.01-.15,.01-.39,0-.72-.28-.8-.67-.04-.21,0-.43,.13-.61,.12-.18,.31-.3,.52-.34,.37-.07,.99-.3,1.15-.57,.19-.3,.3-1.12,.3-1.72,0-1.92-1.45-3.49-3.23-3.49s-3.23,1.57-3.23,3.52c-.06,.6,0,1.31,.13,1.52,.08,.11,.56,.47,1.17,.81,.19,.1,.33,.27,.4,.48,.06,.21,.04,.45-.07,.64-.15,.26-.43,.42-.72,.42-.12,0-.25-.03-.39-.11-.44-.24-1.48-.87-1.8-1.42-.47-.79-.38-2.19-.36-2.43,0-2.73,2.07-4.97,4.66-5.09v-.57Z"/>
</svg>