<svg width="80" height="80" viewBox="0 0 80 80" fill="none" xmlns="http://www.w3.org/2000/svg">
<circle cx="40" cy="40" r="40" fill="#FFAE00"/>
<path d="M23.7211 21.001C22.2138 21.001 21 22.2114 21 23.7154V41.8102C21 43.3138 22.2134 44.5246 23.7211 44.5246H27.8022L26.8953 53.5721L35.965 44.5246H39.1393V39.3363C39.1393 38.1956 40.0339 37.2698 41.1375 37.2723L52.7434 37.3001V23.7144C52.7434 22.2108 51.53 21 50.0224 21H23.7204L23.7211 21.001ZM42.0166 38.1911C40.913 38.1867 40.0184 39.1144 40.0184 40.2551V52.3706C40.0184 53.5113 40.913 54.4299 42.0166 54.4346L50.4344 54.4627L55.4652 59L54.9834 54.4621H58.0018C59.1054 54.4621 60 53.553 60 52.4123V40.2831C60 39.1423 59.1054 38.2361 58.0018 38.2332L42.0165 38.1906L42.0166 38.1911Z" fill="white"/>
</svg>
