<svg width="30" height="30" viewBox="0 0 30 30" fill="none" xmlns="http://www.w3.org/2000/svg">
<path d="M9.18954 11.0973L12.2695 14.5296L15.3624 11.0973C15.6814 10.7252 16.124 10.5095 16.59 10.4993C17.0562 10.489 17.5064 10.6849 17.8386 11.0428C18.1709 11.4008 18.3573 11.8901 18.3552 12.4004C18.3534 12.9105 18.1633 13.3983 17.8284 13.7533L14.3329 17.6399C13.7924 18.2382 13.0556 18.575 12.2867 18.575C11.5179 18.575 10.781 18.2382 10.2406 17.6399L6.72789 13.7437C6.31208 13.2583 6.15969 12.5691 6.32656 11.9292C6.49313 11.2892 6.95481 10.7919 7.54229 10.6199C8.1298 10.4475 8.75686 10.6252 9.19378 11.0881L9.18954 11.0973Z" fill="#555A60"/>
<path d="M6.76672 2.13721C7.0905 1.81695 7.53024 1.63704 7.98869 1.63704C8.44711 1.63704 8.88658 1.81695 9.21066 2.13721L12.2807 5.24497L15.3679 2.15411V2.1544C15.6863 1.81898 16.1282 1.6248 16.5932 1.61558C17.0586 1.60636 17.5079 1.78299 17.8396 2.10504C18.1712 2.42739 18.3573 2.86805 18.3552 3.32778C18.3534 3.78721 18.1636 4.22644 17.8293 4.54579L14.3403 8.04164C13.8009 8.58047 13.0653 8.88375 12.2979 8.88375C11.5305 8.88375 10.795 8.58043 10.2555 8.04164L6.74931 4.533C6.43275 4.21154 6.25686 3.78007 6.26016 3.33166C6.26318 2.88323 6.44534 2.45419 6.76672 2.13721Z" fill="#555A60"/>
<path d="M29.6437 23.6227C29.6383 25.3472 28.8185 26.9671 27.4334 27.9913C26.0483 29.0154 24.2611 29.3225 22.6143 28.8199C20.9672 28.317 19.6552 27.0638 19.0756 25.4398H6.05832C5.57711 25.4398 5.1158 25.6315 4.77538 25.9721C4.43528 26.3128 4.24418 26.7751 4.24418 27.2571C4.24418 27.9064 3.89838 28.5062 3.33681 28.8307C2.77555 29.1552 2.08392 29.1552 1.52271 28.8307C0.961508 28.5062 0.615664 27.9063 0.615664 27.2571C0.615664 25.8112 1.18895 24.4248 2.20994 23.4022C3.23063 22.3799 4.61473 21.8057 6.05844 21.8057H19.0757C19.624 20.2568 20.8405 19.0384 22.387 18.4892V5.45137C22.387 4.00546 22.9603 2.61909 23.981 1.5968C25.0019 0.574259 26.3861 0 27.8298 0C28.311 0 28.7723 0.191398 29.1127 0.532044C29.4528 0.873006 29.6439 1.33502 29.6439 1.81701C29.6439 2.29898 29.4528 2.76134 29.1127 3.10197C28.7723 3.44262 28.311 3.63433 27.8298 3.63433C27.3486 3.63433 26.8869 3.82573 26.5468 4.16638C26.2067 4.50734 26.0153 4.96935 26.0153 5.45134V18.4892C27.0755 18.8647 27.9937 19.5599 28.6435 20.4789C29.293 21.3981 29.6426 22.4964 29.6439 23.6227L29.6437 23.6227ZM24.201 25.4397C24.6822 25.4397 25.1435 25.2483 25.4839 24.9076C25.824 24.5667 26.0151 24.1047 26.0151 23.6227C26.0151 23.1407 25.824 22.6787 25.4839 22.3377C25.1435 21.9971 24.6822 21.8057 24.201 21.8057C23.7198 21.8057 23.2585 21.9971 22.918 22.3377C22.5779 22.6787 22.3868 23.1407 22.3868 23.6227C22.3868 24.1047 22.5779 24.5667 22.918 24.9076C23.2585 25.2483 23.7198 25.4397 24.201 25.4397Z" fill="#555A60"/>
</svg>
