<svg width="35" height="28" viewBox="0 0 35 28" fill="none" xmlns="http://www.w3.org/2000/svg">
<path d="M33.3422 19.4415L34.8896 18.6246L34.4467 15.9556L32.7129 15.7112L31.9745 14.4249L32.6166 12.8041L30.5489 11.0613L29.0656 11.9876L27.6788 11.4794L27.1459 9.81348H24.4423L23.9027 11.4794L22.5159 11.981L22.0922 11.7174L21.3858 12.0903L21.2379 12.9264L22.5927 14.425H22.593C23.9128 13.4599 25.5975 13.1438 27.1768 13.565C28.7561 13.986 30.0608 15.0991 30.7273 16.5936C31.3935 18.0881 31.3499 19.8042 30.6089 21.263C29.8678 22.7219 28.5084 23.7673 26.91 24.1075C25.3112 24.4478 23.6448 24.0467 22.3754 23.0159C21.1061 21.9851 20.3693 20.4352 20.3711 18.7983V18.6117L18.2328 18.1486L17.5907 18.6952V19.0941L18.2328 19.422L18.4897 20.8819L17.3146 22.1683L18.6372 24.5032L20.3197 24.1557L21.4497 25.1075L21.3855 26.857L23.9541 27.7896L25.0265 26.4326H26.5034L27.5758 27.8154L30.1444 26.8957L30.0544 25.1463L31.1844 24.1945L32.8923 24.5674L34.2472 22.2199L33.0784 20.9336L33.3422 19.4415Z" fill="#555A60"/>
<path d="M20.5383 11.474L22.3813 10.4963L21.8225 7.28055L19.7548 6.99113L18.875 5.4605L19.6585 3.53104L17.18 1.44707L15.4141 2.55969L13.7572 1.99378L13.115 0H9.90434L9.2622 1.99378L7.60555 2.59846L5.8397 1.48584L3.34167 3.55025L4.12515 5.47971L3.24538 7.02328L1.17762 7.3127L0.618896 10.5285L2.46188 11.5061L2.77004 13.249L1.36394 14.7667L2.98221 17.571L5.02414 17.1337L6.37895 18.2721L6.30183 20.3624L9.33912 21.4687L10.6234 19.8157H12.3892L13.6735 21.4687L16.7108 20.3624L16.6337 18.2721L17.9885 17.1337L20.0304 17.571L21.6042 14.7667L20.2044 13.2168L20.5383 11.474ZM11.4969 17.2044C9.78239 17.2026 8.13859 16.519 6.9274 15.3036C5.71592 14.0883 5.03598 12.4408 5.03709 10.7235C5.03819 9.00626 5.72022 7.35956 6.93342 6.14595C8.14629 4.93227 9.79098 4.25067 11.5055 4.25126C13.2201 4.25183 14.8645 4.93461 16.0765 6.14911C17.2888 7.36361 17.9699 9.01059 17.9699 10.7278C17.9699 12.4469 17.2877 14.095 16.0736 15.3097C14.8596 16.5245 13.2132 17.2061 11.4969 17.2044Z" fill="#555A60"/>
</svg>
