<svg width="36" height="33" viewBox="0 0 36 33" fill="none" xmlns="http://www.w3.org/2000/svg">
<path d="M4.3414 30.0385C4.3414 31.4635 5.49492 32.6189 6.91773 32.6189C8.34075 32.6189 9.49426 31.4635 9.49426 30.0385C9.49426 28.6132 8.34075 27.4579 6.91773 27.4579C5.49492 27.4579 4.3414 28.6132 4.3414 30.0385Z" fill="#555A60"/>
<path d="M18.0625 30.0385C18.0625 31.4635 19.216 32.6189 20.6388 32.6189C22.0618 32.6189 23.2153 31.4635 23.2153 30.0385C23.2153 28.6132 22.0618 27.4579 20.6388 27.4579C19.216 27.4579 18.0625 28.6132 18.0625 30.0385Z" fill="#555A60"/>
<path d="M5.39219 12.8263H22.1636C23.0908 12.8263 23.8494 13.5862 23.8494 14.5147V18.8855C23.8494 19.8141 23.0907 20.5739 22.1636 20.5739H5.39219C4.46505 20.5739 3.70645 19.814 3.70645 18.8855V14.5147C3.70645 13.5861 4.46512 12.8263 5.39219 12.8263Z" fill="#555A60"/>
<path d="M5.39219 3.35254H22.1636C23.0908 3.35254 23.8494 4.1124 23.8494 5.04094V9.41175C23.8494 10.3404 23.0907 11.1002 22.1636 11.1002H5.39219C4.46505 11.1002 3.70645 10.3403 3.70645 9.41175V5.04094C3.70645 4.11233 4.46512 3.35254 5.39219 3.35254Z" fill="#555A60"/>
<path d="M1.80369 23.7243C2.96867 23.7405 4.75005 23.7604 6.9339 23.7705L9.35342 23.7722L15.0544 23.7695C18.4221 23.7711 20.1168 23.7695 20.1958 23.7711C21.5689 23.7963 22.9469 23.8291 24.3142 23.6759C25.5158 23.5405 26.6245 23.1261 27.3351 22.0824C27.8422 21.3379 27.9091 20.5105 27.9285 19.638C27.9574 18.3555 27.9394 17.0726 27.9394 15.7901C27.9402 13.5564 27.9405 11.3225 27.9413 9.08843C27.9416 8.11802 27.9487 7.14753 27.9479 6.17712C27.9476 5.69163 27.9451 5.20671 27.9389 4.72119C27.9337 4.3131 27.9055 3.90279 27.9454 3.49611C28.0639 2.28854 28.6647 1.10394 29.7423 0.490418C30.4766 0.0752187 31.3131 0.0123124 32.1379 0.00191435C32.4874 -0.00246192 32.7326 0.0019143 33.0049 0.00547007L33.3118 0.0106669C33.5685 0.0131285 33.9339 0.0150432 34.417 0C35.0733 0.00027357 35.6052 0.532813 35.6052 1.19035C35.6052 1.84788 35.0733 2.38041 34.417 2.38755C33.9432 2.39631 32.1545 2.34324 31.8156 2.38455C31.6351 2.40643 31.238 2.45484 30.8847 2.73246C30.5226 3.01747 30.3926 3.39109 30.3535 3.50815C30.2984 3.67253 30.2757 3.82488 30.2861 4.54095C30.2926 4.97502 30.3104 12.2684 30.3093 14.5651C30.3093 15.803 30.3085 17.0409 30.3077 18.2789C30.3068 19.4236 30.4467 20.6202 30.1097 21.735C29.6323 23.3132 28.4752 24.6728 26.9945 25.3941C25.8039 25.974 24.4729 26.125 23.1651 26.1589C21.7595 26.195 20.3506 26.157 18.9451 26.1469C17.8325 26.1387 16.7192 26.1488 15.6063 26.1499C15.4223 26.1499 15.2388 26.1501 15.0547 26.1507L9.35618 26.1534L6.9238 26.1507C4.74813 26.1406 2.97276 26.1209 1.80345 26.1047C1.78979 26.1047 1.77095 26.1045 1.75757 26.0954C1.12401 26.0695 0.616077 25.5555 0.616077 24.9147C0.615532 24.2621 1.14013 23.7355 1.80371 23.7241L1.80369 23.7243Z" fill="#555A60"/>
</svg>
