<svg width="16" height="16" viewBox="0 0 16 16" fill="none" xmlns="http://www.w3.org/2000/svg">
<path d="M13.765 8.26541L9.265 12.7654C9.19391 12.8317 9.09989 12.8677 9.00274 12.866C8.90559 12.8643 8.8129 12.8249 8.74419 12.7562C8.67548 12.6875 8.63613 12.5948 8.63441 12.4977C8.6327 12.4005 8.66876 12.3065 8.735 12.2354L12.5944 8.37541H2.5C2.40054 8.37541 2.30516 8.3359 2.23483 8.26558C2.16451 8.19525 2.125 8.09987 2.125 8.00041C2.125 7.90096 2.16451 7.80557 2.23483 7.73525C2.30516 7.66492 2.40054 7.62541 2.5 7.62541H12.5944L8.735 3.76541C8.66876 3.69432 8.6327 3.6003 8.63441 3.50315C8.63613 3.406 8.67548 3.31331 8.74419 3.2446C8.8129 3.17589 8.90559 3.13654 9.00274 3.13482C9.09989 3.13311 9.19391 3.16917 9.265 3.23541L13.765 7.73541C13.8352 7.80572 13.8747 7.90104 13.8747 8.00041C13.8747 8.09979 13.8352 8.1951 13.765 8.26541Z" fill="#9F9F9F"/>
</svg>
