<svg width="68" height="68" viewBox="0 0 68 68" fill="none" xmlns="http://www.w3.org/2000/svg">
<g id="ph:arrow-right-light">
<path id="Vector" d="M46.7326 22.2746L46.7327 41.3665C46.7224 41.6578 46.5994 41.9337 46.3897 42.1362C46.18 42.3386 45.8998 42.4518 45.6084 42.4518C45.3169 42.4518 45.0367 42.3386 44.827 42.1362C44.6173 41.9337 44.4943 41.6578 44.484 41.3665L44.4827 24.9912L23.0693 46.4046C22.8583 46.6156 22.5722 46.7341 22.2738 46.7341C21.9755 46.7341 21.6893 46.6156 21.4783 46.4046C21.2674 46.1936 21.1488 45.9075 21.1488 45.6091C21.1488 45.3107 21.2674 45.0246 21.4783 44.8136L42.8917 23.4002L26.5165 23.3989C26.2252 23.3886 25.9492 23.2656 25.7467 23.0559C25.5443 22.8462 25.4312 22.5661 25.4312 22.2746C25.4312 21.9831 25.5443 21.703 25.7467 21.4932C25.9492 21.2835 26.2252 21.1606 26.5165 21.1503L45.6083 21.1503C45.9065 21.1505 46.1923 21.269 46.4031 21.4798C46.614 21.6906 46.7325 21.9765 46.7326 22.2746Z" fill="black"/>
</g>
</svg>
