<svg width="36" height="36" viewBox="0 0 36 36" fill="none" xmlns="http://www.w3.org/2000/svg">
<g id="ph:user-circle-light">
<path id="Vector" d="M18 3.65625C15.1631 3.65625 12.3899 4.4975 10.031 6.07361C7.67223 7.64972 5.83375 9.88991 4.74811 12.5109C3.66246 15.1319 3.37841 18.0159 3.93187 20.7983C4.48532 23.5807 5.85143 26.1366 7.85744 28.1426C9.86345 30.1486 12.4193 31.5147 15.2017 32.0681C17.9841 32.6216 20.8681 32.3375 23.4891 31.2519C26.1101 30.1663 28.3503 28.3278 29.9264 25.969C31.5025 23.6101 32.3438 20.8369 32.3438 18C32.3393 14.1972 30.8266 10.5514 28.1376 7.86237C25.4486 5.17336 21.8028 3.66072 18 3.65625ZM10.0463 27.8438C10.8714 26.4716 12.0375 25.3363 13.4312 24.5481C14.825 23.76 16.3989 23.3457 18 23.3457C19.6011 23.3457 21.1751 23.76 22.5688 24.5481C23.9625 25.3363 25.1286 26.4716 25.9538 27.8438C23.7043 29.6679 20.8961 30.6633 18 30.6633C15.1039 30.6633 12.2957 29.6679 10.0463 27.8438ZM13.2188 16.875C13.2188 15.9294 13.4992 15.005 14.0245 14.2187C14.5499 13.4324 15.2966 12.8196 16.1703 12.4577C17.044 12.0958 18.0053 12.0011 18.9328 12.1856C19.8603 12.3701 20.7122 12.8255 21.3809 13.4941C22.0495 14.1628 22.5049 15.0148 22.6894 15.9422C22.8739 16.8697 22.7792 17.831 22.4173 18.7047C22.0554 19.5784 21.4426 20.3251 20.6563 20.8505C19.8701 21.3758 18.9456 21.6562 18 21.6562C16.7319 21.6562 15.5158 21.1525 14.6192 20.2559C13.7225 19.3592 13.2188 18.1431 13.2188 16.875ZM27.2123 26.6681C25.8866 24.6068 23.905 23.0522 21.5873 22.2553C22.743 21.4856 23.6204 20.3643 24.0896 19.0574C24.5589 17.7505 24.5951 16.3273 24.193 14.9982C23.7909 13.6691 22.9718 12.5047 21.8568 11.6771C20.7417 10.8495 19.39 10.4027 18.0014 10.4027C16.6128 10.4027 15.2611 10.8495 14.1461 11.6771C13.0311 12.5047 12.2119 13.6691 11.8098 14.9982C11.4077 16.3273 11.444 17.7505 11.9132 19.0574C12.3824 20.3643 13.2598 21.4856 14.4155 22.2553C12.0978 23.0522 10.1162 24.6068 8.79047 26.6681C7.0957 24.8696 5.96451 22.6144 5.53647 20.1805C5.10843 17.7467 5.40226 15.2408 6.38172 12.972C7.36117 10.7032 8.9834 8.77077 11.0482 7.41314C13.1131 6.0555 15.5302 5.33205 18.0014 5.33205C20.4726 5.33205 22.8897 6.0555 24.9546 7.41314C27.0194 8.77077 28.6417 10.7032 29.6211 12.972C30.6006 15.2408 30.8944 17.7467 30.4664 20.1805C30.0383 22.6144 28.9071 24.8696 27.2123 26.6681Z" fill="#9F9F9F"/>
</g>
</svg>
