<svg width="24" height="24" viewBox="0 0 24 24" fill="none" xmlns="http://www.w3.org/2000/svg">
<g id="ph:star-light">
<g id="Vector">
<path d="M22.2468 9.17772C22.1694 8.93183 22.0201 8.71473 21.8183 8.55434C21.6165 8.39396 21.3713 8.29762 21.1143 8.27772L15.5399 7.79584C15.5062 7.79253 15.474 7.78014 15.4468 7.76C15.4195 7.73987 15.3983 7.71273 15.3852 7.68147L13.2074 2.49147C13.1065 2.25471 12.9383 2.05282 12.7236 1.91092C12.5089 1.76902 12.2573 1.69336 11.9999 1.69336C11.7426 1.69336 11.4909 1.76902 11.2762 1.91092C11.0615 2.05282 10.8933 2.25471 10.7924 2.49147L8.61459 7.68147C8.60155 7.71273 8.58027 7.73987 8.55304 7.76C8.5258 7.78014 8.49362 7.79253 8.45991 7.79584L2.88553 8.27772C2.62851 8.29762 2.38332 8.39396 2.1815 8.55434C1.97968 8.71473 1.83046 8.93183 1.75303 9.17772C1.67103 9.42395 1.66387 9.68897 1.73245 9.93927C1.80103 10.1896 1.94228 10.4139 2.13834 10.584L6.36741 14.273C6.3933 14.296 6.41253 14.3256 6.42309 14.3586C6.43365 14.3915 6.43514 14.4268 6.42741 14.4605L5.15616 19.9458C5.0969 20.1984 5.1138 20.4628 5.20474 20.7058C5.29568 20.9487 5.45657 21.1593 5.66709 21.3108C5.87435 21.4638 6.12269 21.551 6.38005 21.5614C6.63741 21.5718 6.89196 21.5047 7.11084 21.369L11.9024 18.4627C11.9306 18.4453 11.963 18.436 11.9962 18.436C12.0293 18.436 12.0617 18.4453 12.0899 18.4627L16.8815 21.369C17.1026 21.5044 17.3589 21.5712 17.618 21.5611C17.8772 21.551 18.1275 21.4643 18.3374 21.3121C18.5473 21.1598 18.7074 20.9488 18.7975 20.7057C18.8876 20.4625 18.9037 20.1981 18.8437 19.9458L17.5762 14.4587C17.5684 14.4249 17.5699 14.3897 17.5805 14.3567C17.591 14.3237 17.6103 14.2942 17.6362 14.2712L21.8652 10.5821C22.0603 10.4118 22.2006 10.1875 22.2685 9.93763C22.3364 9.68773 22.3288 9.42334 22.2468 9.17772ZM21.1218 9.73272L16.8927 13.4218C16.7125 13.5786 16.5785 13.7816 16.5052 14.0089C16.4318 14.2362 16.4219 14.4792 16.4765 14.7118L17.744 20.199C17.7533 20.2358 17.7513 20.2747 17.738 20.3103C17.7248 20.346 17.701 20.3768 17.6699 20.3987C17.6417 20.4212 17.6071 20.4342 17.571 20.4357C17.5349 20.4373 17.4993 20.4272 17.4693 20.4071L12.6777 17.5008C12.4734 17.3767 12.239 17.311 11.9999 17.311C11.7608 17.311 11.5264 17.3767 11.3221 17.5008L6.53053 20.4071C6.50055 20.4272 6.46492 20.4373 6.42884 20.4357C6.39275 20.4342 6.3581 20.4212 6.32991 20.3987C6.29876 20.3768 6.275 20.346 6.26177 20.3103C6.24854 20.2747 6.24648 20.2358 6.25584 20.199L7.52334 14.7118C7.57791 14.4792 7.56799 14.2362 7.49464 14.0089C7.42129 13.7816 7.28729 13.5786 7.10709 13.4218L2.87803 9.73272C2.84911 9.70812 2.82833 9.67532 2.81846 9.63866C2.80858 9.602 2.81007 9.5632 2.82272 9.5274C2.83219 9.49175 2.85272 9.46003 2.88135 9.43678C2.90999 9.41353 2.94526 9.39997 2.98209 9.39803L8.55741 8.91615C8.79609 8.89582 9.02466 8.81055 9.21834 8.66958C9.41202 8.52862 9.56343 8.33734 9.65616 8.11647L11.834 2.92647C11.8491 2.89425 11.8731 2.86702 11.9032 2.84794C11.9332 2.82886 11.9681 2.81873 12.0037 2.81873C12.0392 2.81873 12.0741 2.82886 12.1042 2.84794C12.1342 2.86702 12.1582 2.89425 12.1733 2.92647L14.3437 8.11647C14.4361 8.33681 14.5869 8.52774 14.7799 8.66866C14.9729 8.80959 15.2006 8.89516 15.4387 8.91615L21.014 9.39803C21.0508 9.39997 21.0861 9.41353 21.1147 9.43678C21.1433 9.46003 21.1639 9.49175 21.1733 9.5274C21.1864 9.56284 21.1885 9.6014 21.1793 9.63803C21.1701 9.67467 21.1501 9.70767 21.1218 9.73272Z" fill="#CEB589"/>
<path d="M21.1218 9.73272L16.8927 13.4218C16.7125 13.5786 16.5785 13.7816 16.5052 14.0089C16.4318 14.2362 16.4219 14.4792 16.4765 14.7118L17.744 20.199C17.7533 20.2358 17.7513 20.2747 17.738 20.3103C17.7248 20.346 17.701 20.3768 17.6699 20.3987C17.6417 20.4212 17.6071 20.4342 17.571 20.4357C17.5349 20.4373 17.4993 20.4272 17.4693 20.4071L12.6777 17.5008C12.4734 17.3767 12.239 17.311 11.9999 17.311C11.7608 17.311 11.5264 17.3767 11.3221 17.5008L6.53053 20.4071C6.50055 20.4272 6.46492 20.4373 6.42884 20.4357C6.39275 20.4342 6.3581 20.4212 6.32991 20.3987C6.29876 20.3768 6.275 20.346 6.26177 20.3103C6.24854 20.2747 6.24648 20.2358 6.25584 20.199L7.52334 14.7118C7.57791 14.4792 7.56799 14.2362 7.49464 14.0089C7.42129 13.7816 7.28729 13.5786 7.10709 13.4218L2.87803 9.73272C2.84911 9.70812 2.82833 9.67532 2.81846 9.63866C2.80858 9.602 2.81007 9.5632 2.82272 9.5274C2.83219 9.49175 2.85272 9.46003 2.88135 9.43678C2.90999 9.41353 2.94526 9.39997 2.98209 9.39803L8.55741 8.91615C8.79609 8.89582 9.02466 8.81055 9.21834 8.66958C9.41202 8.52862 9.56343 8.33734 9.65616 8.11647L11.834 2.92647C11.8491 2.89425 11.8731 2.86702 11.9032 2.84794C11.9332 2.82886 11.9681 2.81873 12.0037 2.81873C12.0392 2.81873 12.0741 2.82886 12.1042 2.84794C12.1342 2.86702 12.1582 2.89425 12.1733 2.92647L14.3437 8.11647C14.4361 8.33681 14.5869 8.52774 14.7799 8.66866C14.9729 8.80959 15.2006 8.89516 15.4387 8.91615L21.014 9.39803C21.0508 9.39997 21.0861 9.41353 21.1147 9.43678C21.1433 9.46003 21.1639 9.49175 21.1733 9.5274C21.1864 9.56284 21.1885 9.6014 21.1793 9.63803C21.1701 9.67467 21.1501 9.70767 21.1218 9.73272Z" fill="#CEB589"/>
</g>
</g>
</svg>
