<svg width="68" height="68" viewBox="0 0 68 68" fill="none" xmlns="http://www.w3.org/2000/svg">
<g id="ph:plus-circle-light" clip-path="url(#clip0_102_394)">
<path id="Vector" d="M20.4177 20.4175C17.743 23.0922 15.9216 26.4999 15.1836 30.2098C14.4457 33.9197 14.8244 37.7651 16.2719 41.2597C17.7195 44.7544 20.1708 47.7413 23.3158 49.8428C26.4609 51.9443 30.1586 53.0659 33.9411 53.0659C37.7237 53.0659 41.4213 51.9443 44.5664 49.8428C47.7115 47.7413 50.1628 44.7544 51.6103 41.2597C53.0578 37.7651 53.4366 33.9197 52.6986 30.2098C51.9607 26.4999 50.1392 23.0922 47.4645 20.4175C43.875 16.8364 39.0116 14.8252 33.9411 14.8252C28.8707 14.8252 24.0073 16.8364 20.4177 20.4175ZM45.8736 45.8733C43.5135 48.2333 40.5067 49.8405 37.2333 50.4917C33.9598 51.1428 30.5668 50.8086 27.4833 49.5314C24.3998 48.2542 21.7643 46.0912 19.9101 43.3162C18.0558 40.5411 17.0661 37.2785 17.0661 33.9409C17.0661 30.6034 18.0558 27.3407 19.9101 24.5657C21.7643 21.7906 24.3998 19.6277 27.4833 18.3504C30.5668 17.0732 33.9598 16.739 37.2333 17.3902C40.5067 18.0413 43.5135 19.6485 45.8736 22.0085C49.0336 25.1756 50.8084 29.4669 50.8084 33.9409C50.8084 38.4149 49.0336 42.7062 45.8736 45.8733ZM40.0399 27.8421C40.2509 28.0531 40.3694 28.3392 40.3694 28.6376C40.3694 28.936 40.2509 29.2221 40.0399 29.4331L35.5321 33.9409L40.0399 38.4487C40.2509 38.6597 40.3694 38.9458 40.3694 39.2442C40.3694 39.5426 40.2509 39.8287 40.0399 40.0397C39.8289 40.2507 39.5428 40.3692 39.2444 40.3692C38.9461 40.3692 38.6599 40.2507 38.4489 40.0397L33.9411 35.5319L29.4333 40.0397C29.2223 40.2507 28.9362 40.3692 28.6378 40.3692C28.3395 40.3692 28.0533 40.2507 27.8423 40.0397C27.6314 39.8287 27.5128 39.5426 27.5128 39.2442C27.5128 38.9458 27.6314 38.6597 27.8423 38.4487L32.3501 33.9409L27.8423 29.4331C27.6314 29.2221 27.5128 28.936 27.5128 28.6376C27.5128 28.3392 27.6314 28.0531 27.8423 27.8421C28.0533 27.6311 28.3395 27.5126 28.6378 27.5126C28.9362 27.5126 29.2223 27.6311 29.4333 27.8421L33.9411 32.3499L38.4489 27.8421C38.6599 27.6311 38.9461 27.5126 39.2444 27.5126C39.5428 27.5126 39.8289 27.6311 40.0399 27.8421Z" fill="#777777"/>
</g>
<defs>
<clipPath id="clip0_102_394">
<rect width="48" height="48" fill="white" transform="translate(0 33.9409) rotate(-45)"/>
</clipPath>
</defs>
</svg>
