<svg width="68" height="68" viewBox="0 0 68 68" fill="none" xmlns="http://www.w3.org/2000/svg">
<g id="ph:plus-circle-light" clip-path="url(#clip0_445_137)">
<path id="Vector" d="M20.4765 20.4766C17.8019 23.1513 15.9804 26.559 15.2424 30.2689C14.5045 33.9788 14.8832 37.8242 16.3308 41.3188C17.7783 44.8135 20.2296 47.8004 23.3747 49.9019C26.5198 52.0033 30.2174 53.125 34 53.125C37.7825 53.125 41.4802 52.0033 44.6252 49.9019C47.7703 47.8004 50.2216 44.8135 51.6692 41.3188C53.1167 37.8242 53.4954 33.9788 52.7575 30.2689C52.0195 26.559 50.1981 23.1513 47.5234 20.4766C43.9338 16.8954 39.0704 14.8843 34 14.8843C28.9295 14.8843 24.0661 16.8954 20.4765 20.4766ZM45.9324 45.9324C43.5724 48.2924 40.5655 49.8996 37.2921 50.5507C34.0187 51.2019 30.6257 50.8677 27.5422 49.5905C24.4587 48.3132 21.8232 46.1503 19.9689 43.3752C18.1147 40.6002 17.125 37.3376 17.125 34C17.125 30.6624 18.1147 27.3998 19.9689 24.6247C21.8232 21.8497 24.4587 19.6868 27.5422 18.4095C30.6257 17.1323 34.0187 16.7981 37.2921 17.4492C40.5655 18.1004 43.5724 19.7076 45.9324 22.0676C49.0925 25.2347 50.8672 29.526 50.8672 34C50.8672 38.474 49.0925 42.7653 45.9324 45.9324ZM40.0988 27.9012C40.3097 28.1122 40.4283 28.3983 40.4283 28.6967C40.4283 28.9951 40.3097 29.2812 40.0988 29.4922L35.591 34L40.0988 38.5078C40.3097 38.7188 40.4283 39.0049 40.4283 39.3033C40.4283 39.6017 40.3097 39.8878 40.0988 40.0988C39.8878 40.3098 39.6016 40.4283 39.3033 40.4283C39.0049 40.4283 38.7187 40.3098 38.5078 40.0988L34 35.591L29.4922 40.0988C29.2812 40.3098 28.995 40.4283 28.6967 40.4283C28.3983 40.4283 28.1121 40.3098 27.9012 40.0988C27.6902 39.8878 27.5717 39.6017 27.5717 39.3033C27.5717 39.0049 27.6902 38.7188 27.9012 38.5078L32.409 34L27.9012 29.4922C27.6902 29.2812 27.5717 28.9951 27.5717 28.6967C27.5717 28.3983 27.6902 28.1122 27.9012 27.9012C28.1121 27.6902 28.3983 27.5717 28.6967 27.5717C28.995 27.5717 29.2812 27.6902 29.4922 27.9012L34 32.409L38.5078 27.9012C38.7187 27.6902 39.0049 27.5717 39.3033 27.5717C39.6016 27.5717 39.8878 27.6902 40.0988 27.9012Z" fill="#424242"/>
</g>
<defs>
<clipPath id="clip0_445_137">
<rect width="48" height="48" fill="white" transform="translate(0.0588379 34) rotate(-45)"/>
</clipPath>
</defs>
</svg>
