<svg width="64" height="64" viewBox="0 0 64 64" fill="none" xmlns="http://www.w3.org/2000/svg">
<circle cx="32" cy="32" r="32" fill="#424242"/>
<path d="M32 12.875C28.2174 12.875 24.5198 13.9967 21.3747 16.0981C18.2296 18.1996 15.7783 21.1865 14.3308 24.6812C12.8833 28.1758 12.5045 32.0212 13.2425 35.7311C13.9804 39.441 15.8019 42.8487 18.4766 45.5234C21.1513 48.1981 24.559 50.0196 28.2689 50.7575C31.9788 51.4955 35.8242 51.1167 39.3188 49.6692C42.8135 48.2217 45.8004 45.7704 47.9019 42.6253C50.0033 39.4802 51.125 35.7826 51.125 32C51.1191 26.9296 49.1022 22.0685 45.5168 18.4832C41.9315 14.8978 37.0704 12.881 32 12.875ZM32 48.875C28.6624 48.875 25.3998 47.8853 22.6248 46.031C19.8497 44.1768 17.6868 41.5413 16.4095 38.4578C15.1323 35.3743 14.7981 31.9813 15.4493 28.7079C16.1004 25.4344 17.7076 22.4276 20.0676 20.0676C22.4276 17.7076 25.4344 16.1004 28.7079 15.4492C31.9813 14.7981 35.3743 15.1323 38.4578 16.4095C41.5413 17.6868 44.1768 19.8497 46.0311 22.6248C47.8853 25.3998 48.875 28.6624 48.875 32C48.87 36.474 47.0906 40.7633 43.927 43.9269C40.7634 47.0905 36.474 48.87 32 48.875ZM40.625 32C40.625 32.2984 40.5065 32.5845 40.2955 32.7955C40.0845 33.0065 39.7984 33.125 39.5 33.125H33.125V39.5C33.125 39.7984 33.0065 40.0845 32.7955 40.2955C32.5845 40.5065 32.2984 40.625 32 40.625C31.7016 40.625 31.4155 40.5065 31.2045 40.2955C30.9935 40.0845 30.875 39.7984 30.875 39.5V33.125H24.5C24.2016 33.125 23.9155 33.0065 23.7045 32.7955C23.4935 32.5845 23.375 32.2984 23.375 32C23.375 31.7016 23.4935 31.4155 23.7045 31.2045C23.9155 30.9935 24.2016 30.875 24.5 30.875H30.875V24.5C30.875 24.2016 30.9935 23.9155 31.2045 23.7045C31.4155 23.4935 31.7016 23.375 32 23.375C32.2984 23.375 32.5845 23.4935 32.7955 23.7045C33.0065 23.9155 33.125 24.2016 33.125 24.5V30.875H39.5C39.7984 30.875 40.0845 30.9935 40.2955 31.2045C40.5065 31.4155 40.625 31.7016 40.625 32Z" fill="white"/>
</svg>
