<svg width="376" height="412" viewBox="0 0 376 412" fill="none" xmlns="http://www.w3.org/2000/svg">
<path d="M176.13 114.829C174.176 114.463 172.606 113.084 171.154 111.348C170.487 110.554 169.86 109.731 169.267 108.878C167.414 106.229 168.677 100.8 170.296 98.2048C170.955 97.1529 171.825 96.2568 172.689 95.3676C176.275 91.6769 179.923 86.4751 184.478 83.9727C185.056 83.6542 185.676 83.3805 186.339 83.3576C186.544 83.3519 186.758 83.3701 186.927 83.481C187.263 83.6966 187.31 84.1902 187.155 84.5581C186.993 84.9206 186.676 85.1892 186.378 85.4556C185.86 85.9104 181.029 91.6277 181.198 91.7386C181.306 91.813 181.415 91.8874 181.517 91.9625C181.353 91.8448 187.464 85.844 187.938 85.3881C188.826 84.5397 189.773 83.6594 190.962 83.3491C191.716 83.1531 192.715 83.3396 192.935 84.0871C193.103 84.6598 192.717 85.2299 192.349 85.6918C190.843 87.5685 189.075 89.1331 187.498 90.931C186.441 92.1364 185.383 93.3357 184.326 94.5412C184.432 94.6471 184.538 94.753 184.644 94.8589C184.672 94.8867 188.307 91.0903 188.654 90.712C190.195 89.0246 191.96 87.5475 193.886 86.3196C194.262 86.0813 194.663 85.8463 195.102 85.769C195.541 85.6917 196.045 85.8 196.323 86.1474C196.572 86.4609 196.606 86.906 196.497 87.2934C196.388 87.6808 196.154 88.0144 195.912 88.3365C194.815 89.7837 193.42 90.9672 192.212 92.3216C190.599 94.13 188.971 95.9275 187.344 97.725C187.429 97.8147 187.509 97.9112 187.594 98.0009C188.933 96.6995 190.367 95.474 191.686 94.2248C192.827 93.1467 193.936 91.804 195.216 90.9026C195.905 90.4149 196.464 90.3046 197.237 90.6304C197.597 90.7808 198.27 91.5179 197.963 91.9664C196.376 94.3144 194.647 96.567 192.787 98.7043C191.041 100.709 189.098 102.264 187.187 104.077C187.114 104.148 187.033 104.251 187.087 104.338C187.149 104.437 187.298 104.388 187.397 104.326C188.37 103.723 189.38 103.16 190.472 102.824C192.243 102.282 193.799 102.339 194.832 104.007C195.466 103.844 194.086 105.475 194.052 105.504C193.36 106.067 192.284 106.02 191.52 106.398C188.97 107.657 186.563 110.009 184.261 111.688C182.653 112.859 181.003 114.054 179.093 114.625C178.011 114.948 177.04 114.995 176.149 114.827L176.13 114.829Z" fill="#F7967C"/>
<path d="M92.3502 228.677C93.1721 225.831 93.5317 223.124 94.4742 220.281C95.255 217.934 96.9141 215.568 96.7805 213.108C88.6134 215.781 80.6594 218.632 72.4486 220.867C66.7445 222.421 65.5579 226.769 63.7524 231.931L58.0149 247.515C65.2652 237.155 74.7883 228.138 84.3423 220.759C86.1478 219.364 87.9046 222.438 86.1273 223.81C77.0227 230.842 67.985 239.441 61.0737 249.298C68.3137 245.607 77.4414 243.853 84.4733 239.8C88.973 237.206 91.0019 233.343 92.3477 228.674L92.3502 228.677Z" fill="#2E893C"/>
<path d="M88.9218 337.518C89.5304 335.376 90.1622 333.367 90.812 331.505C90.6399 330.732 90.6117 330.28 90.6117 330.28C90.4319 331.054 90.2701 331.744 90.116 332.397C90.4011 331.182 90.6117 330.28 90.6117 330.28C90.9789 328.709 91.4284 327.268 91.9343 325.925V323.274H27.0005L28.2384 376.497C32.2321 379.209 36.2771 381.839 40.4223 384.32C41.5447 384.99 42.6619 385.668 43.7996 386.318C47.9654 388.696 52.3648 391.087 56.9261 393.219H79.1571C81.71 371.37 84.9152 351.582 88.9218 337.518ZM89.1914 336.367C89.3404 335.73 89.5022 335.037 89.664 334.346C89.4816 335.134 89.325 335.805 89.1914 336.367C89.1067 336.732 89.0271 337.074 88.9551 337.382C89.0219 337.094 89.1015 336.75 89.1914 336.367Z" fill="#DA9282"/>
<path d="M16.7146 368.379C18.574 369.727 20.4386 371.068 22.3108 372.393C22.316 372.398 22.3237 372.403 22.3288 372.409C24.1009 373.659 25.8833 374.895 27.676 376.12C27.8635 376.248 28.051 376.382 28.241 376.513V376.5L27.0031 323.277H4.85938V359.698C8.58082 362.426 12.2971 365.169 16.0314 367.883C16.26 368.05 16.4886 368.215 16.7171 368.382L16.7146 368.379Z" fill="#D87C79"/>
<path d="M65.5246 192.513C62.2603 196.774 58.5953 200.752 55.1847 204.913C56.6075 204.291 58.2872 203.497 60.013 202.655C63.8244 200.793 67.7872 198.723 69.2922 197.929C76.8841 193.925 77.0895 193.92 81.4531 190.566C89.3402 184.508 88.4979 172.729 91.0096 163.499C86.2609 166.427 80.9163 169.08 75.7335 171.14C72.0942 172.586 65.3499 174.697 62.4298 177.365C58.3796 181.061 56.4817 188.527 53.8954 196.753C53.6334 197.588 53.0992 200.259 52.5881 202.583C55.8678 198.62 59.3479 194.809 62.4709 190.731C63.8372 188.946 66.9114 190.705 65.5246 192.515V192.513Z" fill="#677E4B"/>
<path d="M41.3722 171.712C44.033 180.673 45.9232 189.744 47.2587 198.887C50.975 188.732 55.3231 178.529 49.6216 168.217C46.7785 163.07 42.605 158.825 39.2945 153.914C37.7484 151.623 36.2434 149.35 34.6613 147.095C34.0603 146.24 32.3036 141.669 31.5871 141.458C31.4972 141.278 31.3534 141.214 31.1556 141.271C30.1463 143.569 30.3235 146.523 29.8638 149.04L29.5402 153.267C29.5402 158.75 29.7328 164.277 29.0599 169.732C28.3408 175.539 27.1311 180.57 31.1556 185.545C35.4164 190.813 39.6104 196.237 44.051 201.376C42.7206 191.709 40.7738 182.119 37.9616 172.652C37.3118 170.462 40.7225 169.535 41.3697 171.712H41.3722Z" fill="#629351"/>
<path d="M7.44041 223.481C11.3442 227.236 16.9276 229.632 22.0642 230.641C27.3677 231.682 32.5993 233.836 37.9131 235.077C32.8818 227.873 26.4303 221.568 19.8401 215.304C18.1835 213.732 20.6876 211.236 22.339 212.805C27.4884 217.697 32.5428 222.646 36.95 227.999C34.7412 219.102 34.4741 209.484 27.1674 203.243C26.9285 203.04 26.6768 202.855 26.4354 202.655C18.294 195.913 8.60128 191.275 0.34425 184.836C0.313431 184.685 0.387908 185.815 0.542005 185.519C0.881019 192.408 1.15069 197.421 1.60014 202.655C1.67719 203.541 1.7568 204.43 1.84413 205.341C2.4374 211.518 2.65057 218.871 7.44555 223.484L7.44041 223.481Z" fill="#62AE5A"/>
<path d="M26.3405 270.563C24.5813 269.112 27.0956 266.623 28.8395 268.064C34.7619 272.949 39.164 278.897 42.775 285.39C42.3692 279.501 41.9839 274.351 41.5782 271.59C40.7024 265.64 37.8233 261.363 33.3699 257.367C24.2525 249.179 11.876 247.877 1.49756 241.773C2.87159 250.8 8.73755 267.039 8.73755 267.039C11.5549 274.177 11.6037 275.736 16.7942 278.496C23.0095 281.804 33.1902 285.438 40.425 288.42C36.8243 281.707 32.4043 275.563 26.3431 270.566L26.3405 270.563Z" fill="#56A086"/>
<path d="M36.9473 227.996C32.5402 222.644 27.4883 217.695 22.3364 212.802C20.685 211.233 18.1809 213.73 19.8374 215.301C26.4302 221.565 32.8792 227.873 37.9104 235.075C41.9735 240.894 45.1119 247.302 46.6323 254.753C46.5553 261.261 46.3986 267.769 46.2368 274.264C46.17 274.626 46.0956 274.981 46.0365 275.343C45.9671 275.761 46.0313 276.134 46.1829 276.452C46.0596 281.445 45.9363 286.43 45.8439 291.405C44.8808 289.36 43.8611 287.349 42.7722 285.39C39.1638 278.897 34.7592 272.949 28.8367 268.064C27.0928 266.626 24.5785 269.112 26.3378 270.563C32.3989 275.561 36.8189 281.707 40.4196 288.418C42.2534 291.836 43.8766 295.398 45.3893 299.04C45.4766 299.251 45.5973 299.425 45.7309 299.577C45.718 301.015 45.7077 302.453 45.7052 303.889H49.2417C49.2699 294.186 49.5165 284.422 49.7553 274.634C51.5634 265.511 55.6675 257.021 61.0763 249.3C67.9876 239.443 77.0254 230.845 86.1299 223.813C87.9072 222.441 86.1505 219.367 84.345 220.762C74.791 228.14 65.2703 237.157 58.0175 247.518C54.8662 252.018 52.1464 256.771 50.0404 261.759C50.3409 245.589 50.3255 229.406 48.9361 213.388C49.0568 213.278 49.1723 213.152 49.2699 212.993C51.0369 210.155 53.0633 207.499 55.1821 204.913C58.5954 200.752 62.2577 196.774 65.522 192.513C66.9089 190.702 63.8372 188.946 62.4683 190.728C59.3453 194.807 55.8653 198.618 52.5856 202.581C52.565 202.604 52.5445 202.627 52.524 202.653C51.0934 204.378 49.7091 206.14 48.4044 207.961C48.2144 206.189 48.0012 204.42 47.7726 202.653C47.6108 201.397 47.4388 200.138 47.2538 198.885C45.9183 189.742 44.0306 180.671 41.3673 171.71C40.7201 169.529 37.3095 170.457 37.9592 172.65C40.7715 182.117 42.7157 191.704 44.0486 201.374C44.1077 201.8 44.1591 202.226 44.2156 202.653C45.9903 216.103 46.5938 229.704 46.6708 243.347C44.1925 237.751 40.828 232.712 36.9448 227.996H36.9473Z" fill="#416D45"/>
<path d="M96.7908 303.889H91.9316H71.3417H49.2417H45.7051H4.85662H0V323.274L90.6526 318.844L96.7908 303.889Z" fill="#DA9282"/>
<path d="M317.835 161.326C317.835 161.326 332.151 223.918 324.369 261.633C324.369 261.633 321.824 266.02 314.738 272.682C314.553 295.244 312.994 315.816 308.992 329.277C308.992 329.277 307.808 329.246 305.664 329.148C304.298 338.792 296.043 350.853 290.082 356.097C281.147 363.961 269.636 366.049 258.192 367.462C251.139 368.33 244.107 369.19 237.096 370.259C236.688 370.32 235.994 370.397 235.08 370.487C232.964 370.788 231.042 371.037 229.694 371.188L226.36 371.556C222.344 371.992 217.788 372.488 214.462 372.981C210.853 373.513 207.812 374.019 204.841 374.509C201.248 375.102 197.85 375.662 193.656 376.25L193.566 376.42C193.402 376.718 193.096 376.885 192.778 376.885C192.631 376.885 192.482 376.849 192.344 376.772C192.128 376.654 191.981 376.458 191.917 376.238C191.748 376.338 191.606 376.438 191.501 376.541C191.501 376.541 191.311 377.535 190.998 379.689H317.845V380.383C320.788 379.507 323.804 378.246 327.145 376.315C335.841 371.288 343.079 360.625 344.116 350.586C345.326 338.869 340.269 329.312 341.545 317.326C343.148 302.31 350.38 288.842 356.518 275.384C363.576 259.91 368.815 243.614 372.062 226.92C373.854 217.703 375.043 208.364 375.637 198.995C376.774 180.989 375.608 160.35 366.768 144.252C356.403 125.37 336.619 116.541 316.194 113.058C304.76 111.109 292.589 110.01 280.759 109.943C283.631 110.955 286.674 112.177 289.828 113.636C307.279 114.735 317.835 161.334 317.835 161.334V161.326Z" fill="#A07A60"/>
<path d="M190.998 379.682C190.705 381.692 190.302 384.723 189.845 388.894H197.614L194.992 411.156H195.002C198.549 411.223 202.096 411.248 205.645 411.23H205.668L208.85 388.894H317.846V379.682H190.998Z" fill="#E5AC87"/>
<path d="M291.957 402.157C293.709 401.782 295.455 401.394 297.201 400.996C297.255 400.983 297.312 400.97 297.368 400.957C299.087 400.564 300.8 400.158 302.51 399.742L300.905 388.891H289.664L291.957 402.154V402.157Z" fill="#CE8874"/>
<path d="M251.974 408.595V408.603C252.249 408.572 252.524 408.539 252.798 408.508C253.705 408.405 254.609 408.297 255.513 408.189C256.083 408.12 256.656 408.058 257.226 407.989C257.278 407.984 257.326 407.976 257.375 407.971C257.706 407.93 258.04 407.881 258.372 407.84C259.137 407.743 259.9 407.642 260.665 407.542C261.279 407.463 261.895 407.386 262.509 407.303C262.519 407.303 262.527 407.301 262.535 407.298V407.288L259.81 388.891H248.566L251.971 408.593L251.974 408.595Z" fill="#CE8874"/>
<path d="M111.451 309.575C111.451 309.575 103.186 310.235 96.7884 317.614C95.4324 319.18 94.1636 321.05 93.0721 323.277C92.6638 324.109 92.2837 324.993 91.9318 325.927C91.4259 327.271 90.9764 328.711 90.6091 330.283C90.6091 330.283 90.6374 330.735 90.8095 331.508C90.1597 333.37 89.5305 335.379 88.9192 337.521C84.9101 351.584 81.7075 371.373 79.1546 393.221C78.9877 394.642 78.8259 396.07 78.6641 397.505V397.513C80.4978 397.955 82.3393 398.376 84.1859 398.782C84.5891 398.869 84.9949 398.956 85.3981 399.044C86.9904 399.385 88.5879 399.717 90.1879 400.038C90.4448 400.089 90.7016 400.143 90.961 400.194C92.823 400.559 94.6876 400.908 96.5573 401.245C96.8501 401.296 97.1428 401.345 97.4331 401.399C99.0716 401.689 100.71 401.966 102.351 402.236C102.672 402.287 102.993 402.341 103.317 402.395C107.141 403.012 110.973 403.577 114.805 404.101C115.059 404.134 115.313 404.17 115.568 404.206C119.507 404.74 123.447 405.236 127.372 405.703C127.379 405.703 127.387 405.703 127.395 405.703C129.382 395.155 131.193 386.005 132.747 378.387C133.528 374.563 134.242 371.127 134.879 368.101C134.951 366.468 135.048 365.194 135.174 364.321C135.385 362.859 135.572 361.472 135.754 360.152C136.361 355.727 136.874 352.011 137.645 348.752C139.499 340.926 142.869 335.738 152.738 329.757C157.361 326.955 160.957 324.671 163.846 322.838C168.772 319.71 172.185 317.542 176.58 315.392C179.967 313.736 183.935 312.092 189.632 310.03C190.099 309.86 190.613 310.104 190.782 310.569C190.952 311.036 190.71 311.55 190.243 311.72C177.343 316.389 173.675 318.721 164.807 324.353C161.912 326.192 158.309 328.48 153.671 331.292C140.421 339.321 139.576 345.493 137.534 360.396C137.352 361.719 137.162 363.111 136.954 364.575C136.417 368.335 136.314 382.093 137.627 406.877C138.097 406.928 138.556 406.977 139.024 407.029C143.161 407.483 147.286 407.93 151.359 408.374C154.041 408.667 156.727 408.929 159.413 409.176C159.963 409.227 160.513 409.276 161.062 409.327C163.79 409.571 166.52 409.797 169.252 409.995C169.283 409.995 169.317 409.997 169.348 410C172.167 410.203 174.993 410.378 177.818 410.532C178.062 410.545 178.308 410.56 178.552 410.573C181.447 410.724 184.344 410.855 187.238 410.955C187.248 410.955 187.256 410.955 187.264 410.955C187.374 409.322 187.477 407.812 187.58 406.333C187.826 402.727 188.065 399.26 188.363 394.488C188.396 393.992 188.82 393.617 189.316 393.648L189.344 393.655C189.514 391.927 189.681 390.345 189.84 388.899C190.3 384.731 190.7 381.698 190.993 379.687C191.306 377.532 191.496 376.538 191.496 376.538C191.602 376.438 191.743 376.335 191.912 376.235C191.848 376.014 191.866 375.767 191.989 375.549C192.87 373.954 193.682 372.377 194.481 370.826C197.129 365.692 199.628 360.841 204.099 356.205C204.443 355.85 205.013 355.838 205.37 356.182C205.727 356.526 205.737 357.096 205.393 357.453C201.102 361.899 198.664 366.635 196.078 371.65C195.629 372.521 195.172 373.402 194.707 374.288C198.297 373.767 201.343 373.266 204.543 372.737C207.525 372.246 210.574 371.743 214.192 371.206C217.554 370.708 222.128 370.212 226.163 369.773L229.489 369.408C233.513 368.954 242.541 367.631 246.758 366.727C247.246 366.614 247.721 366.933 247.826 367.418C247.932 367.903 247.621 368.378 247.138 368.484C244.203 369.113 239.254 369.901 235.078 370.492C235.992 370.402 236.683 370.328 237.094 370.264C244.108 369.195 251.137 368.335 258.189 367.467C269.634 366.054 281.145 363.964 290.08 356.102C296.041 350.858 304.295 338.797 305.662 329.153C305.235 329.135 304.765 329.112 304.264 329.086C298.974 333.889 283.813 330.936 267.148 325.473C253.525 323.529 238.213 320.614 223.826 316.248C223.127 316.802 222.326 317.293 221.386 317.663C221.386 317.663 217.107 319.358 214.842 319.91L210.91 325.393C210.91 325.393 210.425 326.942 208.1 326.611C208.1 326.611 206.713 326.415 206.295 325.522L206.007 325.578L205.714 325.524C205.496 325.445 205.332 325.285 205.239 325.088C204.664 325.267 203.847 325.234 202.704 324.628C202.704 324.628 202.139 324.273 201.847 323.749H201.841L201.549 323.696C201.282 323.598 201.109 323.38 201.038 323.128C200.514 323.202 199.735 323.138 198.888 322.414C198.888 322.414 198.477 322.242 198.259 321.79L198.092 321.818L197.799 321.767C197.388 321.615 197.175 321.179 197.278 320.763C196.864 320.683 196.327 320.382 195.675 319.609C195.675 319.609 194.902 319.787 195.678 315.873L196.728 311.003C196.728 311.003 197.385 308.317 199.019 306.478C198.323 306.121 197.64 305.756 196.964 305.386C189.449 301.29 183.003 296.495 178.275 290.886L160.174 295.95L111.446 309.585L111.451 309.575Z" fill="#EC8161"/>
<path d="M222.316 121.432C222.316 121.432 205.39 120.235 215.429 107.368C215.586 107.167 215.755 106.962 215.925 106.757C215.36 106.921 214.821 107.07 214.305 107.201C209.936 109.137 199.08 114.016 190.575 118.394C188.813 118.969 186.525 120.05 183.893 122.048C183.318 122.392 182.776 122.723 182.288 123.039C182.288 123.039 182.288 123.047 182.303 123.332C181.984 123.607 181.66 123.902 181.331 124.205C179.4 117.128 175.975 109.597 172.902 103.629C172.226 102.317 171.571 101.084 170.951 99.9467C169.247 96.8242 167.827 94.4361 167.086 93.2241C166.736 92.6515 166.534 92.3305 166.534 92.3305C166.521 92.3202 164.327 90.8411 162.653 94.5003C156.989 106.885 132.919 152.664 133.403 187.643C133.403 187.643 132.654 194.972 135.084 202.739C137.058 209.054 141.133 215.658 149.443 218.85C152.114 220.624 155.756 221.595 160.666 221.169C164.359 220.848 168.759 219.746 174.046 217.553L174.38 216.924V190.249C174.38 189.754 174.778 189.351 175.266 189.351C175.755 189.351 176.152 189.754 176.152 190.249V239.261C176.152 239.757 175.757 240.16 175.266 240.16C174.775 240.16 174.38 239.757 174.38 239.261V236.211C173.591 259.177 174.074 279.908 177.291 290.587C177.39 290.708 177.499 290.826 177.598 290.944C182.258 296.552 188.611 301.346 196.017 305.442C196.683 305.812 197.356 306.176 198.042 306.533C198.574 305.925 199.209 305.409 199.963 305.116C199.963 305.116 201.153 304.515 209.759 303.005L217.084 301.66C223.713 301.888 226.713 308.49 226.713 308.49C226.713 308.49 226.5 310.308 225.513 312.391C224.878 313.726 223.916 315.159 222.488 316.304C236.668 320.669 251.759 323.584 265.184 325.527C281.268 327.854 294.944 328.789 301.765 329.14C302.259 329.166 302.722 329.189 303.142 329.207C305.253 329.307 306.423 329.336 306.423 329.336C310.364 315.878 311.9 295.312 312.085 272.751C319.069 266.09 321.577 261.704 321.577 261.704C329.246 223.998 315.138 161.415 315.138 161.415C315.138 161.415 304.734 114.825 287.535 113.726C284.427 112.267 281.427 111.045 278.597 110.033C265.324 105.293 255.733 105.036 255.733 105.036C255.733 105.036 255.69 105.134 255.612 105.295C254.594 107.38 246.676 121.778 222.321 121.434L222.316 121.432ZM184.108 132.17C183.564 134.394 170.728 186.755 166.344 198.284C166.291 198.423 166.202 198.533 166.098 198.628C165.939 198.769 165.734 198.859 165.519 198.859L165.2 198.8C164.744 198.623 164.516 198.102 164.694 197.64C168.875 186.647 181.275 136.292 182.323 132.021L174.446 112.442C174.261 111.982 174.479 111.461 174.93 111.271C175.378 111.083 175.897 111.302 176.084 111.761L181.764 125.884L184.07 131.616C184.141 131.793 184.156 131.985 184.108 132.17ZM269.209 167.316C269.503 167.249 269.791 167.355 269.996 167.552C270.123 167.67 270.224 167.817 270.265 167.999C270.897 170.916 271.459 173.859 271.996 176.804C273.054 173.98 274.142 171.268 275.357 168.829C275.578 168.387 276.109 168.21 276.544 168.433C276.98 168.657 277.157 169.198 276.934 169.637C275.362 172.801 273.983 176.455 272.614 180.26C273.191 183.586 273.735 186.903 274.264 190.165C275.112 195.385 275.99 200.785 276.998 206.075C277.091 206.56 276.777 207.033 276.296 207.125H276.269L276.129 207.143C275.714 207.143 275.342 206.845 275.261 206.416C274.249 201.101 273.368 195.691 272.517 190.46C272.077 187.746 271.624 184.993 271.153 182.233L270.976 182.202C270.518 182.032 270.28 181.519 270.447 181.051C270.561 180.73 270.675 180.417 270.791 180.099C270.11 176.185 269.376 172.262 268.536 168.392C268.429 167.907 268.733 167.429 269.209 167.324V167.316ZM257.755 273.354C259.745 271.837 261.765 270.294 263.78 268.74C265.82 267.163 267.852 265.576 269.829 263.99C270.581 263.384 271.525 262.688 272.568 261.922C275.489 259.766 279.185 257.033 281.341 254.335C282.169 253.302 282.774 252.273 283.014 251.281C283.482 249.358 282.268 242.795 280.926 236.501C280.344 233.766 279.736 231.08 279.23 228.851C278.463 225.47 277.858 222.799 277.638 221.425C277.562 220.935 277.889 220.475 278.372 220.398C278.848 220.316 279.309 220.65 279.384 221.14C279.592 222.455 280.222 225.233 280.951 228.453C283.442 239.444 285.444 248.778 284.73 251.713C283.708 255.921 277.868 260.23 273.603 263.376C272.586 264.128 271.662 264.809 270.923 265.402C266.974 268.568 262.828 271.734 258.813 274.798L254.814 277.851C253.209 279.083 251.564 280.046 249.076 281.505C244.694 284.073 238.073 287.955 225.083 297.115C224.928 297.22 224.754 297.274 224.579 297.274C224.298 297.274 224.022 297.14 223.85 296.886C223.572 296.48 223.67 295.923 224.073 295.635C235.38 287.665 241.887 283.675 246.292 281.068C246.973 280.668 247.603 280.293 248.193 279.949C250.625 278.523 252.232 277.581 253.749 276.418L257.753 273.36L257.755 273.354Z" fill="#67CAEA"/>
<path d="M195.682 315.863C194.907 319.777 195.68 319.599 195.68 319.599C196.332 320.375 196.869 320.673 197.282 320.753L197.295 320.665L199.28 315.254C199.442 314.812 199.933 314.583 200.372 314.748C200.816 314.91 201.04 315.4 200.881 315.839L198.895 321.251C198.79 321.538 198.543 321.728 198.263 321.782C198.482 322.234 198.893 322.407 198.893 322.407C199.74 323.131 200.516 323.195 201.042 323.12C200.996 322.954 200.983 322.771 201.047 322.597L203.035 317.18C203.195 316.741 203.682 316.51 204.127 316.674C204.569 316.836 204.797 317.326 204.633 317.766L202.647 323.182C202.522 323.524 202.198 323.737 201.854 323.742C202.147 324.266 202.712 324.62 202.712 324.62C203.855 325.226 204.671 325.26 205.247 325.08C205.154 324.882 205.136 324.646 205.216 324.425L207.204 319.014C207.365 318.572 207.848 318.343 208.295 318.508C208.737 318.67 208.963 319.16 208.801 319.602L206.813 325.013C206.723 325.257 206.528 325.432 206.302 325.514C206.721 326.408 208.108 326.603 208.108 326.603C210.432 326.934 210.917 325.386 210.917 325.386L214.849 319.902C217.115 319.35 221.393 317.655 221.393 317.655C222.333 317.285 223.135 316.795 223.833 316.24C225.282 315.095 226.258 313.659 226.902 312.326C227.907 310.243 228.12 308.425 228.12 308.425C228.12 308.425 225.076 301.822 218.35 301.593L210.917 302.939C202.185 304.449 200.978 305.05 200.978 305.05C200.213 305.343 199.568 305.862 199.029 306.468C197.395 308.307 196.738 310.993 196.738 310.993L195.687 315.863H195.682Z" fill="#E79675"/>
<path d="M182.395 59.7748C183.168 60.6937 184.044 61.2372 184.881 60.7471C185.824 60.1927 185.644 56.3331 185.622 55.3976C185.586 53.5355 185.334 51.6813 185.177 49.8253C184.769 44.8642 185.633 40.3537 186.04 35.4331C186.138 34.2283 186.205 32.9631 185.722 31.8561C185.241 30.7412 184.051 29.8405 182.874 30.0973C179.318 30.864 179.17 38.4605 178.969 41.1243C178.603 45.8757 178.978 50.6805 180.088 55.3147C180.281 56.1161 181.215 58.3736 182.396 59.767L182.395 59.7748Z" fill="white"/>
<path d="M255.743 105.382C256.285 107.271 256.537 109.236 255.471 110.792C254.942 111.575 254.143 112.127 253.344 112.63C247.945 116.058 241.565 118.416 235.551 120.51C230.377 122.305 224.588 124.217 219.113 122.82C217.161 122.325 215.278 121.314 214.101 119.682C213.03 118.186 212.651 116.329 212.295 114.523C211.42 110.083 210.543 105.65 209.676 101.211C208.962 97.5678 210.13 95.8594 212.392 93.1647C214.481 90.6755 217.012 88.5863 219.567 86.6043C220.288 86.0412 221.036 85.506 221.789 84.9954C221.976 84.8635 222.169 84.7406 222.362 84.6178C222.557 84.4871 222.749 84.372 222.942 84.2569C223.135 84.134 223.335 84.0201 223.529 83.8972C223.73 83.7754 223.922 83.6603 224.121 83.5542C224.279 83.4579 224.444 83.3628 224.608 83.2754C224.843 83.1427 225.078 83.0099 225.319 82.8862C225.509 82.7867 225.699 82.6872 225.897 82.5888C226.113 82.4772 226.328 82.3655 226.542 82.2695C226.705 82.19 226.876 82.1116 227.039 82.032C227.288 81.9094 227.536 81.7946 227.791 81.6887C227.995 81.5993 228.2 81.5099 228.412 81.4216C228.413 81.4138 228.422 81.4072 228.429 81.4161C228.845 81.2385 229.269 81.0698 229.699 80.9101C232.898 79.6924 236.259 78.897 239.683 78.589C240.144 78.5454 240.595 78.5161 241.06 78.497C243.598 78.3613 245.892 77.7193 247.904 79.8011C250.144 82.1235 251.297 86.4056 251.868 89.5099C252.74 94.2924 253.561 98.9399 255.16 103.551C255.369 104.139 255.58 104.76 255.759 105.384L255.743 105.382Z" fill="#F7967C"/>
<path d="M243.606 96.1972C240.552 101.508 235.352 106.025 230.608 108.202C224.05 111.228 215.758 112.659 211.224 105.576C206.698 98.4933 211.527 90.9256 217.422 86.567C222.895 82.5209 229.295 79.1134 236.1 79.3279C238.535 79.408 241.009 79.9799 243.041 81.3314C248.437 84.9479 246.349 91.4298 243.615 96.1906L243.606 96.1972Z" fill="#DB634F"/>
<path d="M186.737 25.4074C192.126 14.4795 204.131 7.37215 216.37 6.02896C226.908 4.87324 238.171 7.72121 245.813 15.0718C252.954 21.9339 256.284 31.8841 257.879 41.6581C261.471 63.7757 253.585 96.9432 228.294 102.817C216.956 105.449 203.437 107.041 195.616 96.6362C188.461 87.1182 185.802 74.2866 183.729 62.7845C181.679 51.4453 181.517 39.3564 185.479 28.3775C185.843 27.3634 186.268 26.3741 186.736 25.4152L186.737 25.4074Z" fill="#F7967C"/>
<path d="M253.12 20.8586C254.052 21.2351 254.831 21.8998 255.548 22.6032C261.137 28.1528 261.421 35.3588 261.289 42.7425C261.225 46.2554 260.883 49.767 260.268 53.2306C259.774 55.9868 259.536 59.1711 257.617 61.3187C257.369 61.6008 257.056 61.8815 256.676 61.8653C256.288 61.848 256.001 61.5267 255.767 61.2212C254.212 59.175 253.233 56.7914 252.155 54.4808C249.554 48.8777 244.204 45.1164 241.354 39.636C239.336 35.7603 238.717 30.7682 241.172 27.1456C242.353 25.3993 244.124 24.1463 245.849 22.9343C248.054 21.3788 250.309 19.7109 253.129 20.8519L253.12 20.8586Z" fill="white"/>
<path d="M255.707 56.224C257.692 56.0623 260.772 57.7117 261.834 59.3666C262.652 60.6346 262.941 62.1835 262.973 63.6943C263.086 68.5002 260.626 73.2935 256.649 75.9983C255.524 76.7648 254.246 77.3812 252.887 77.4041C247.272 77.4926 246.899 69.1099 247.289 65.2707C247.529 62.9393 248.353 60.5983 250.021 58.9557C251 57.9923 252.225 57.3043 253.503 56.7994C254.205 56.5205 254.956 56.2964 255.699 56.2306L255.707 56.224Z" fill="#F7967C"/>
<path d="M232.395 62.8915C231.138 61.423 229.505 60.2818 227.498 60.3286C225.515 60.3709 224.196 61.587 223.043 63.0825C222.659 63.5836 223.538 63.8328 224.046 63.6367C224.05 63.717 224.046 63.7961 224.066 63.8787C224.283 65.0024 225.381 65.7142 226.461 65.7938C227.565 65.869 228.66 65.3131 229.01 64.2332C229.315 63.298 229.316 62.3179 228.74 61.5238C228.763 61.5272 228.787 61.5307 228.818 61.5353C229.79 61.7503 230.389 62.3406 231.042 63.0426C231.324 63.3471 231.313 63.6403 231.807 63.6414C232.166 63.6386 232.727 63.291 232.394 62.8993L232.395 62.8915Z" fill="#272443"/>
<path d="M203.158 66.8285C203.049 66.5972 202.863 66.3467 202.687 66.1853C201.357 64.9373 199.701 64.1672 197.851 64.3407C196.121 64.5079 194.128 65.4891 193.671 67.2865C193.56 67.7164 194.108 67.8928 194.543 67.8055C194.554 67.8948 194.571 67.993 194.599 68.0767C194.753 69.0318 195.64 69.6646 196.757 69.7577C197.3 69.8059 197.809 69.7056 198.239 69.4901C198.265 69.478 198.291 69.4658 198.316 69.4537C198.324 69.4548 198.333 69.4481 198.342 69.4415C198.851 69.1818 199.251 68.7387 199.402 68.1473C199.49 67.8735 199.527 67.5681 199.51 67.247C199.506 67.1109 199.452 66.9914 199.373 66.884C199.196 66.2443 198.786 65.6739 198.219 65.3591C199.161 65.4024 200.143 65.7145 200.897 66.1684C201.401 66.4739 201.981 67.3562 202.529 67.4768C203.316 67.6487 203.351 67.2475 203.142 66.8262L203.158 66.8285Z" fill="#272443"/>
<path d="M219.887 52.4963C221.86 49.6553 225.781 48.8947 228.903 49.0124C232.398 49.1452 235.917 50.7877 238.727 54.2142C238.747 54.2411 238.76 54.259 238.772 54.2847C238.847 54.3753 238.889 54.4692 238.906 54.5674C238.963 54.8308 238.856 55.07 238.669 55.2576C238.366 55.6353 237.842 55.8927 237.419 55.7347C232.779 53.9668 228.239 54.3812 223.956 55.5427C222.876 55.8378 220.915 57.1424 219.713 56.2718C218.351 55.2901 219.331 53.291 219.896 52.4896L219.887 52.4963Z" fill="white"/>
<path d="M202.998 55.2101C200.689 52.8773 197.02 53.0057 194.239 53.815C191.118 54.7174 188.272 57.1029 186.387 61.0726C186.375 61.1026 186.372 61.126 186.359 61.1561C186.312 61.2606 186.289 61.3609 186.29 61.4646C186.291 61.7277 186.427 61.939 186.636 62.0894C186.982 62.3875 187.504 62.5281 187.853 62.2688C191.694 59.5121 195.846 58.913 199.916 59.0907C200.937 59.1377 202.95 59.9684 203.871 58.861C204.909 57.6035 203.65 55.8719 202.998 55.2101Z" fill="white"/>
<path d="M209.98 75.4765C209.362 70.9627 211.626 66.6347 210.097 62.1457C209.896 61.5584 211.25 61.1842 211.456 61.7883C212.298 64.2394 212.14 66.6626 211.805 69.2032C211.635 70.5169 211.41 71.8304 211.335 73.1502C211.241 74.8656 211.672 79.7265 214.884 78.3194C215.573 78.0225 216.33 78.7239 215.471 79.0913C212.686 80.3063 210.363 78.2823 209.988 75.4777L209.98 75.4765Z" fill="#DB634F"/>
<path d="M210.616 90.6362C213.939 86.05 221.822 85.2093 226.526 87.9684C227.26 88.3964 228.781 87.4925 227.771 86.9024C222.116 83.58 212.899 84.6255 208.913 90.1248C208.3 90.9742 210.127 91.3096 210.606 90.6334L210.616 90.6362Z" fill="#DB634F"/>
</svg>
