<svg width="78" height="124" viewBox="0 0 78 124" fill="none" xmlns="http://www.w3.org/2000/svg">
<g clip-path="url(#clip0_738_408)">
<path d="M38.8198 38.8201V116.87" stroke="#73A2E1" stroke-width="3" stroke-miterlimit="10"/>
<path d="M38.82 77.64C60.2597 77.64 77.64 60.2597 77.64 38.82C77.64 17.3803 60.2597 0 38.82 0C17.3803 0 0 17.3803 0 38.82C0 60.2597 17.3803 77.64 38.82 77.64Z" fill="url(#paint0_linear_738_408)"/>
<g clip-path="url(#clip1_738_408)">
<path d="M51.2901 27.9344C52.1382 26.1976 52.5289 24.2748 52.4254 22.3466C52.3219 20.4184 51.7277 18.548 50.6985 16.911C49.6694 15.2741 48.239 13.9243 46.5418 12.9885C44.8446 12.0526 42.9362 11.5614 40.9959 11.561C40.2096 11.561 39.4334 12.6587 38.6879 12.8112C37.9526 12.6587 36.8088 11.561 36.0225 11.561C32.9862 11.561 30.0743 12.7614 27.9273 14.898C25.7804 17.0347 24.5742 19.9326 24.5742 22.9543C24.5711 24.6694 24.9623 26.3624 25.718 27.9039" stroke="white" stroke-width="1.12222" stroke-miterlimit="10"/>
<path d="M44.8154 45.5889V45.5781" stroke="white" stroke-width="1.12222" stroke-miterlimit="10"/>
<path fill-rule="evenodd" clip-rule="evenodd" d="M38.6769 21.1693C38.4196 21.6658 38.0815 22.1223 37.6716 22.5187C36.6877 23.4703 35.3685 23.9993 33.9976 23.9929L33.9849 23.9929L33.9723 23.9922C32.9436 23.9409 31.9456 23.6271 31.074 23.0808C30.9143 23.0074 30.7406 22.9684 30.5643 22.9664C30.4081 22.9657 30.2533 22.9956 30.1089 23.0544C29.9641 23.1133 29.8327 23.2001 29.722 23.3096C29.6113 23.4191 29.5236 23.5492 29.4639 23.6922C29.4041 23.8352 29.3734 23.9885 29.3734 24.1432V26.9969H29.3736V33.2283C29.3894 35.6501 30.3629 37.9698 32.0856 39.6842C33.8224 41.4127 36.1786 42.3844 38.6361 42.3845C41.0921 42.382 43.446 41.4092 45.1809 39.6808C46.9158 37.9525 47.8897 35.6101 47.8897 33.1684V24.1433C47.8897 23.832 47.7655 23.533 47.5435 23.3121C47.3221 23.0917 47.0214 22.9671 46.7071 22.9665C46.5278 22.9685 46.3511 23.0077 46.1882 23.0814C45.3174 23.6292 44.3187 23.943 43.2897 23.9923L43.2763 23.9929H43.2629C41.9042 23.9929 40.6007 23.4558 39.6392 22.4989C39.2449 22.1066 38.9214 21.6568 38.6769 21.1693ZM28.2512 24.1433V26.9969H27.107C26.1763 26.9969 25.2832 27.3648 24.6242 28.0205C23.9652 28.6764 23.5945 29.5665 23.5945 30.4952C23.5945 31.4239 23.9652 32.314 24.6242 32.9699C25.2832 33.6256 26.1763 33.9935 27.107 33.9935H28.2843C28.4805 36.4342 29.5423 38.7364 31.2939 40.4797C31.8281 41.0113 32.4144 41.4789 33.0409 41.8778V44.9163L32.2219 45.1018L32.22 45.1023L30.5876 45.4779L30.586 45.4783L19.0498 48.0977V62.1668H40.4331L40.4331 62.1669H46.121L46.121 62.1668H58.9897V48.0932L46.8871 45.4671L46.8849 45.4666L45.9679 45.2638L45.5889 45.1817L44.3654 44.903V41.785C44.9397 41.406 45.4787 40.9683 45.973 40.4759C47.7273 38.7282 48.7886 36.4196 48.9805 33.9733H50.1566C51.0852 33.9733 51.9765 33.607 52.635 32.9539C53.2937 32.3006 53.6658 31.4137 53.6691 30.4871L53.1079 30.4851H53.6691C53.6691 29.5564 53.2983 28.6663 52.6393 28.0105C51.9804 27.3547 51.0873 26.9868 50.1566 26.9868H49.012V24.1433C49.012 23.5326 48.7682 22.9476 48.3352 22.5167C47.9022 22.0858 47.3156 21.8442 46.7045 21.8442L46.6992 21.8443C46.3445 21.8476 45.9948 21.9289 45.6751 22.0825L45.6448 22.0971L45.6164 22.1152C44.9071 22.5676 44.0912 22.828 43.2495 22.8707C42.1916 22.8672 41.1783 22.4474 40.4308 21.7035C39.6802 20.9565 39.259 19.944 39.259 18.8888H38.6979L38.137 18.8752C38.1112 19.9461 37.6643 20.9647 36.8915 21.712C36.1217 22.4565 35.0896 22.8725 34.0154 22.8707C33.173 22.8265 32.3566 22.566 31.6457 22.1146L31.619 22.0976L31.5906 22.0838C31.2739 21.9296 30.9267 21.8478 30.5744 21.8443L30.572 21.8442C30.2683 21.8425 29.9671 21.9005 29.6858 22.015C29.4044 22.1295 29.1485 22.2983 28.9327 22.5119C28.7169 22.7254 28.5455 22.9795 28.4284 23.2595C28.3114 23.5395 28.2511 23.8398 28.2512 24.1433ZM27.107 28.1191H28.2512V32.8713H27.107C26.4722 32.8713 25.8639 32.6203 25.4159 32.1744C24.9679 31.7286 24.7167 31.1245 24.7167 30.4952C24.7167 29.8659 24.9679 29.2618 25.4159 28.816C25.8639 28.3701 26.4722 28.1191 27.107 28.1191ZM43.2432 45.6765V42.4291C41.8246 43.1298 40.2504 43.5051 38.6372 43.5067H38.6367C37.0739 43.5067 35.5473 43.1561 34.1631 42.4985V45.3168L34.5575 47.6313C35.7379 48.4199 37.1329 48.8349 38.5586 48.8181L38.5685 48.8179L38.5784 48.8182C40.1729 48.8555 41.7261 48.3266 42.9613 47.3305L43.2432 45.6765ZM42.6989 48.8706C41.4539 49.5976 40.0228 49.9726 38.562 49.9403C37.2511 49.9542 35.9624 49.6531 34.8028 49.0703L36.8432 61.0446H40.6244L42.6989 48.8706ZM45.164 61.0446H41.7628L44.3177 46.0514L44.6923 46.1356L44.6964 46.1365L45.3445 46.2769L46.3469 46.5053L48.8315 53.1139L46.3798 53.4417L45.164 61.0446ZM46.3005 61.0446H57.8675V48.9981L47.6494 46.7808L50.3784 54.0394L47.3561 54.4434L46.3005 61.0446ZM20.172 48.9936L29.8186 46.8033L27.0884 54.0391L30.112 54.4434L31.1765 61.0446H20.172V48.9936ZM35.7048 61.0446H32.3132L31.0872 53.4415L28.6369 53.114L31.1306 46.505L33.1486 46.0437L35.7048 61.0446ZM52.5469 30.4841C52.5466 29.8551 52.2954 29.2515 51.8477 28.8059C51.3996 28.36 50.7914 28.109 50.1566 28.109H49.0122V32.8511H50.1566C50.7899 32.8511 51.397 32.6012 51.8448 32.1571C52.2923 31.7133 52.5444 31.1116 52.5469 30.4841ZM32.3863 30.7289C32.3863 29.5482 33.3487 28.5865 34.5417 28.5865C35.7346 28.5865 36.6971 29.5482 36.6971 30.7289C36.6971 31.9095 35.7346 32.8713 34.5417 32.8713C33.3487 32.8713 32.3863 31.9095 32.3863 30.7289ZM34.5417 27.4643C32.734 27.4643 31.264 28.9234 31.264 30.7289C31.264 32.5344 32.734 33.9935 34.5417 33.9935C36.3493 33.9935 37.8193 32.5344 37.8193 30.7289C37.8193 30.3216 37.7445 29.9319 37.6078 29.5726H39.7886C39.6519 29.9319 39.5771 30.3216 39.5771 30.7289C39.5771 32.5344 41.0471 33.9935 42.8548 33.9935C44.6624 33.9935 46.1324 32.5344 46.1324 30.7289C46.1324 28.9234 44.6624 27.4643 42.8548 27.4643C41.9353 27.4643 41.1032 27.8418 40.5075 28.4504H36.8889C36.2932 27.8418 35.4611 27.4643 34.5417 27.4643ZM37.2881 36.4141C37.3487 36.7232 37.5155 37.0021 37.7604 37.2029C38.0055 37.4038 38.3136 37.5139 38.6319 37.5139C38.9502 37.5139 39.2583 37.4038 39.5033 37.2029C39.7484 37.0021 39.9151 36.7231 39.9757 36.4141L41.0769 36.6301C40.966 37.1958 40.661 37.705 40.2148 38.0708C39.7686 38.4365 39.2091 38.6362 38.6319 38.6362C38.0548 38.6362 37.4951 38.4365 37.049 38.0708C36.6028 37.705 36.2978 37.1958 36.1869 36.6301L37.2881 36.4141ZM40.6994 30.7289C40.6994 29.5482 41.6618 28.5865 42.8548 28.5865C44.0477 28.5865 45.0102 29.5482 45.0102 30.7289C45.0102 31.9095 44.0477 32.8713 42.8548 32.8713C41.6618 32.8713 40.6994 31.9095 40.6994 30.7289Z" fill="white"/>
</g>
<path d="M45.0101 116.86C45.0101 118.502 44.358 120.076 43.1971 121.237C42.0363 122.398 40.4618 123.05 38.8201 123.05C37.1802 123.047 35.6083 122.394 34.4496 121.233C33.2909 120.073 32.6401 118.5 32.6401 116.86C32.6401 115.221 33.2912 113.649 34.4502 112.49C35.6092 111.331 37.1811 110.68 38.8201 110.68C40.4601 110.68 42.033 111.331 43.1936 112.489C44.3542 113.648 45.0075 115.22 45.0101 116.86Z" fill="#73A2E1"/>
</g>
<defs>
<linearGradient id="paint0_linear_738_408" x1="38.82" y1="5.32591" x2="38.82" y2="75.0362" gradientUnits="userSpaceOnUse">
<stop stop-color="#F2B3BA"/>
<stop offset="1" stop-color="#73A2E1"/>
</linearGradient>
<clipPath id="clip0_738_408">
<rect width="77.64" height="123.05" fill="white"/>
</clipPath>
<clipPath id="clip1_738_408">
<rect width="39.8389" height="51.0611" fill="white" transform="translate(19.0498 11)"/>
</clipPath>
</defs>
</svg>
