<svg width="123" height="2088" viewBox="0 0 123 2088" fill="none" xmlns="http://www.w3.org/2000/svg">
<path d="M-308.515 2050.98C-219.016 2105.18 -27.3599 2117.62 23.2681 1733.78C86.553 1253.98 -337.804 856.041 -297.933 635.321C-257.379 410.821 81.6039 569.026 60.7507 415.182C39.2325 256.433 -184.171 321.554 -226.188 2.24262" stroke="#67CAEA"/>
<path d="M-294.496 2051.42C-204.997 2105.62 -13.3413 2118.06 37.2866 1734.22C100.572 1254.42 -303.939 844.875 -264.667 623.963C-226.483 409.172 99.7653 577.768 81.7337 412.425C64.302 252.581 -170.152 321.991 -212.17 2.6797" stroke="#67CAEA"/>
<path d="M-266.804 2052.28C-177.305 2106.48 14.3507 2118.92 64.9786 1735.08C128.264 1255.28 -296.712 857.14 -256.222 636.622C-215.733 416.105 123.229 575.449 102.461 416.483C81.6936 257.517 -142.46 322.855 -184.478 3.54361" stroke="#67CAEA"/>
</svg>
