<svg width="305" height="605" viewBox="0 0 305 605" fill="none" xmlns="http://www.w3.org/2000/svg">
<path d="M-427.138 600.955C-380.297 561.775 -239.808 484.116 -52.574 486.921C181.468 490.428 396.643 208.372 201.693 212.915C6.74236 217.457 146 418.751 -61.9725 394.184C-269.945 369.617 -239.647 350.531 -303.717 215.289C-367.786 80.046 -423.773 57.6931 -506.788 166.202" stroke="#67CAEA"/>
<path d="M-428.475 587.759C-381.635 548.579 -241.145 470.92 -53.9113 473.726C180.131 477.233 395.306 195.176 200.355 199.719C5.40508 204.262 144.663 405.555 -63.3098 380.988C-271.283 356.422 -240.984 337.336 -305.054 202.093C-369.124 66.8504 -425.11 44.4976 -508.125 153.007" stroke="#67CAEA"/>
<path d="M-430.082 571.907C-383.241 532.726 -242.752 455.068 -55.5179 457.873C178.524 461.38 393.699 179.324 198.749 183.867C3.79851 188.409 143.056 389.703 -64.9164 365.136C-272.889 340.569 -242.591 321.483 -306.661 186.241C-370.73 50.9979 -426.717 28.645 -509.732 137.154" stroke="#67CAEA"/>
</svg>
