<svg width="93" height="1914" viewBox="0 0 93 1914" fill="none" xmlns="http://www.w3.org/2000/svg">
<path d="M377.479 24.0215C284.025 -23.3182 87.2162 -29.267 47.6105 325.655C-1.89669 769.307 446.358 1123.73 411.919 1327.96C377.479 1532.19 25.0094 1395.2 51.3774 1540.99C77.7453 1686.77 305.371 1620.16 358.645 1913" stroke="#67CAEA"/>
<path d="M359.445 24.0215C265.991 -23.3182 69.1825 -29.267 29.5768 325.655C-19.9304 769.307 429.245 1123.97 393.885 1327.96C358.832 1530.17 -0.671547 1396.18 26.3086 1544.13C52.8845 1689.86 287.337 1620.16 340.611 1913" stroke="#67CAEA"/>
<path d="M334.692 24.0215C241.238 -23.3182 44.4291 -29.267 4.82336 325.655C-44.6838 769.307 403.571 1123.73 369.131 1327.96C334.692 1532.19 -17.7777 1395.2 8.59027 1540.99C34.9582 1686.77 262.584 1620.16 315.857 1913" stroke="#67CAEA"/>
</svg>
