<svg width="52" height="44" viewBox="0 0 52 44" fill="none" xmlns="http://www.w3.org/2000/svg">
<path d="M48.0131 20.375C46.5714 20.3732 45.1728 19.8828 44.0456 18.984C42.5408 17.7825 40.6729 17.1271 38.7473 17.125C36.9883 17.1265 35.2322 17.2694 33.4961 17.5524C34.5886 14.3354 35.5693 11.0816 36.4366 7.79669L37.3482 4.33138C37.3661 4.26377 37.3751 4.19412 37.375 4.12419C37.3735 3.26263 37.0305 2.43681 36.4211 1.82775C35.8117 1.21869 34.9857 0.876074 34.1242 0.875C33.0143 0.875 31.8914 0.944875 30.7881 1.083C23.194 2.02986 16.0189 5.09154 10.0807 9.91894L9.53306 10.3642C7.12722 12.3196 4.97019 14.5626 3.11025 17.0429C1.6233 19.0324 0.817511 21.4484 0.8125 23.9321C0.8125 28.0434 3.02981 31.8638 6.59831 33.9023L6.81606 34.0266C8.69936 35.8804 11.0493 37.1899 13.6167 37.8161C13.9427 38.6376 14.3959 39.4025 14.9598 40.083C15.7521 41.0362 16.7449 41.803 17.8674 42.3288C18.9899 42.8546 20.2145 43.1265 21.4541 43.125C25.1136 43.125 28.6812 42.0866 31.7687 40.1212L38.5856 35.7833C42.9878 32.9831 46.9668 29.5677 50.4018 25.6408C50.9081 25.0617 51.1873 24.3187 51.1875 23.5494C51.1864 22.7079 50.8516 21.9011 50.2565 21.306C49.6615 20.7109 48.8546 20.3761 48.0131 20.375ZM29.0737 18.5932C30.0322 17.1369 30.9047 15.6258 31.6867 14.0676L34.6669 8.10788C33.7808 11.4068 32.7786 14.6735 31.6623 17.9018C30.7889 18.0943 29.9276 18.3324 29.0737 18.5932ZM13.6638 30.5264C12.1079 31.3045 10.495 31.9632 8.83919 32.4967C10.241 27.0521 12.9255 22.0221 16.6684 17.827C21.0223 12.9544 26.219 8.90676 32.0093 5.87838L34.6572 4.49144L30.2331 13.3412C29.1547 15.495 27.898 17.5548 26.4761 19.4991C25.9572 19.7056 25.4438 19.9256 24.9364 20.1589L23.5926 20.7788C21.6706 21.667 19.8562 22.7716 18.1846 24.0711C16.0618 25.7183 14.4861 27.9684 13.6638 30.5264ZM7.45144 29.5571C7.35916 28.8188 7.31276 28.0756 7.3125 27.3316C7.30603 24.9741 7.76725 22.6388 8.66946 20.4607C9.57167 18.2827 10.8969 16.3052 12.5686 14.6428C16.8446 10.3675 22.2018 7.33423 28.0678 5.867L29.1728 5.59075C24.0393 8.55827 19.4101 12.323 15.4586 16.7439C11.835 20.8026 9.15489 25.6131 7.61069 30.8303L7.45144 29.5571ZM2.4375 23.9321C2.4375 21.8139 3.13788 19.7128 4.40944 18.0171C6.19002 15.6436 8.25481 13.4972 10.5576 11.626L11.1053 11.1808C16.8071 6.54465 23.6972 3.60453 30.9896 2.69581C32.0294 2.56568 33.0763 2.50028 34.1242 2.5C34.2778 2.5 34.424 2.52844 34.5646 2.56825L27.6738 4.29156C21.5218 5.82974 15.9034 9.0105 11.4189 13.4939C9.59624 15.3071 8.15124 17.4636 7.16746 19.8388C6.18368 22.214 5.68066 24.7608 5.6875 27.3316C5.6875 28.1417 5.73787 28.9583 5.83944 29.7586L6.06287 31.5469C3.80169 29.6936 2.4375 26.9075 2.4375 23.9321ZM9.32994 34.0461C10.6423 33.6252 11.9293 33.1287 13.1844 32.5593C13.068 33.2573 13.0063 33.9633 13 34.6709C13 35.1138 13.0398 35.5525 13.1089 35.9856C11.7515 35.5504 10.4749 34.8952 9.32994 34.0461ZM49.1782 24.5708C45.8449 28.3806 41.9841 31.6945 37.713 34.4118L30.8961 38.7497C28.0751 40.5475 24.7992 41.5017 21.4541 41.5C20.4529 41.5011 19.4637 41.2816 18.557 40.8571C17.6502 40.4325 16.8481 39.8134 16.2078 39.0438C15.186 37.8156 14.626 36.2686 14.625 34.6709C14.6195 32.8723 15.0276 31.0964 15.8179 29.4806C16.6081 27.8648 17.7592 26.4524 19.1823 25.3524C20.7559 24.1293 22.464 23.0898 24.2734 22.2543L25.6173 21.6344C29.736 19.7409 34.2143 18.7571 38.7473 18.75C40.2984 18.75 41.8194 19.283 43.03 20.2531C44.4454 21.3821 46.2017 21.9979 48.0122 22C48.3098 22.0005 48.6009 22.0867 48.8509 22.2481C49.1008 22.4095 49.2991 22.6394 49.422 22.9104C49.5449 23.1814 49.5873 23.482 49.544 23.7764C49.5008 24.0708 49.3738 24.3465 49.1782 24.5708Z" fill="#604941"/>
<path d="M24.9163 35.4786L23.3799 35.8336L23.7447 37.4172L25.2811 37.0621C31.3396 35.655 37.0216 32.9527 41.9366 29.1411L40.938 27.8589C36.2099 31.5253 30.7442 34.1247 24.9163 35.4786ZM37.4256 22H39.0002V20.375H37.4256C32.9916 20.3771 28.6347 21.5341 24.7839 23.7322L25.5899 25.1427C29.1953 23.0853 33.2744 22.0022 37.4256 22Z" fill="#604941"/>
</svg>
