<svg width="38" height="38" viewBox="0 0 38 38" fill="none" xmlns="http://www.w3.org/2000/svg">
<path d="M37.9836 12.7537V4.22872C37.9836 1.90167 36.0904 0.00842285 33.7633 0.00842285H4.22029C1.89317 0.00842285 0 1.90167 0 4.22872V33.7718C0 36.0989 1.89317 37.9921 4.22029 37.9921H33.7634C36.0904 37.9921 37.9837 36.0989 37.9837 33.7718V13.1358C38.0056 13.0094 38.0055 12.8801 37.9836 12.7537ZM25.8604 2.23379H33.7634C34.8634 2.23379 35.7583 3.12872 35.7583 4.22872V11.8321H25.8604V2.23379ZM11.5288 35.7667H4.22029C3.12022 35.7667 2.22537 34.8718 2.22537 33.7718V26.1637H11.5288V35.7667ZM11.5288 23.9384H2.22537V14.0575H11.5288V23.9384ZM11.5289 11.8321H2.22537V4.22872C2.22537 3.12872 3.12022 2.23379 4.22029 2.23379H11.5289V11.8321ZM23.6351 35.7667H13.7541V26.1637H23.6351V35.7667ZM23.6351 23.9384H13.7541V14.0575H23.6351V23.9384ZM23.6351 11.8321H13.7541V2.23379H23.6351V11.8321ZM35.7583 33.7718C35.7583 34.8718 34.8634 35.7667 33.7634 35.7667H25.8604V26.1637H35.7583V33.7718ZM35.7583 23.9384H25.8604V14.0575H35.7583V23.9384Z" fill="#604941"/>
</svg>
