<svg width="49" height="49" viewBox="0 0 49 49" fill="none" xmlns="http://www.w3.org/2000/svg">
<path d="M16.2343 29.2173L5.60885 39.8427C4.61476 40.8401 4.61476 42.4531 5.60885 43.4505C6.6054 44.4455 8.21976 44.4455 9.21671 43.4505L19.8422 32.825C20.8379 31.8285 20.8379 30.2138 19.8422 29.2173C18.8321 28.2551 17.2445 28.2551 16.2343 29.2173ZM18.6864 31.6693L8.06089 42.2948C7.97578 42.3799 7.87475 42.4474 7.76354 42.4935C7.65234 42.5396 7.53315 42.5633 7.41278 42.5633C7.29241 42.5633 7.17323 42.5396 7.06202 42.4935C6.95082 42.4474 6.84978 42.3799 6.76468 42.2948C6.67954 42.2097 6.612 42.1086 6.56593 41.9974C6.51985 41.8862 6.49613 41.767 6.49613 41.6466C6.49613 41.5262 6.51985 41.407 6.56593 41.2958C6.612 41.1846 6.67954 41.0836 6.76468 40.9985L17.3902 30.373C17.5646 30.2062 17.7966 30.1132 18.0379 30.1132C18.2792 30.1132 18.5112 30.2062 18.6856 30.373C18.8576 30.5446 18.9546 30.7781 18.9546 31.0211C18.9546 31.2642 18.8576 31.4977 18.6856 31.6693H18.6864Z" fill="#604941"/>
<path d="M44.3524 10.6438C44.5172 10.5901 44.6604 10.485 44.7611 10.3441L48.8478 4.62266C48.9602 4.46522 49.0131 4.27304 48.9971 4.08029C48.9811 3.88753 48.8973 3.70669 48.7605 3.56992L45.4911 0.300546C45.3542 0.16386 45.1733 0.0801417 44.9806 0.064278C44.7878 0.0484144 44.5956 0.101433 44.4383 0.213907L38.7169 4.30063C38.5758 4.40145 38.4706 4.5446 38.4164 4.7093L37.66 6.97815L24.8867 19.7475L22.6038 17.4648C22.528 17.3889 22.4379 17.3287 22.3387 17.2876C22.2396 17.2465 22.1333 17.2253 22.026 17.2253C21.9186 17.2253 21.8124 17.2465 21.7132 17.2876C21.6141 17.3287 21.524 17.3889 21.4481 17.4648L18.9961 19.9168C18.8428 20.0701 18.7566 20.2779 18.7566 20.4947C18.7582 22.0959 17.7329 23.5182 16.2131 24.0222L15.4265 24.2852C14.6387 24.5486 13.9228 24.9912 13.3352 25.5784L2.05569 36.8579C-0.703666 39.6675 -0.682415 44.1765 2.1032 46.9602C4.88891 49.7439 9.39779 49.7618 12.2055 47L23.485 35.7209C24.0717 35.1322 24.5143 34.4158 24.7781 33.6277L25.0403 32.8415C25.5461 31.3245 26.9659 30.302 28.5647 30.3028C28.7815 30.3027 28.9893 30.2166 29.1426 30.0633L31.5946 27.6113C31.7477 27.458 31.8338 27.2501 31.8338 27.0334C31.8338 26.8167 31.7477 26.6089 31.5946 26.4556L29.3118 24.1727L42.0836 11.4009L44.3524 10.6438ZM28.2147 28.6793C26.0428 28.8202 24.1727 30.2633 23.4858 32.329L23.2233 33.1144C23.0401 33.6622 22.7324 34.1601 22.3245 34.5691L11.0448 45.8487C8.88143 48.0122 5.37339 48.0122 3.20988 45.8487C1.04637 43.6848 1.04637 40.1771 3.20988 38.0137L14.489 26.7341C14.8977 26.3262 15.3954 26.0181 15.9434 25.835L16.7288 25.5734C18.7949 24.8875 20.238 23.0169 20.3781 20.8443L22.026 19.1984L29.8609 27.0334L28.2147 28.6793ZM41.0644 10.1087L28.156 23.0169L26.0424 20.9033L38.9507 7.99503C39.0406 7.90524 39.1084 7.7958 39.1487 7.67534L39.8842 5.47597L44.8258 1.94555L47.1142 4.23442L43.5842 9.17599L41.3848 9.91149C41.2643 9.95179 41.1546 10.0193 41.0644 10.1087Z" fill="#604941"/>
</svg>
