<svg width="61" height="34" viewBox="0 0 61 34" fill="none" xmlns="http://www.w3.org/2000/svg">
<path d="M52.3724 33.3869C51.3387 33.3876 50.328 33.0818 49.4682 32.5081C48.6083 31.9343 47.9379 31.1184 47.5418 30.1636C47.1457 29.2088 47.0417 28.158 47.2429 27.1441C47.4441 26.1301 47.9415 25.1987 48.6722 24.4675C49.4028 23.7363 50.334 23.2382 51.3478 23.0362C52.3615 22.8343 53.4124 22.9376 54.3675 23.333C55.3226 23.7284 56.139 24.3982 56.7133 25.2576C57.2877 26.117 57.5943 27.1275 57.5943 28.1612C57.5936 29.5463 57.0434 30.8745 56.0643 31.8542C55.0853 32.834 53.7575 33.3852 52.3724 33.3869ZM52.3724 24.8418C51.7158 24.841 51.0736 25.0351 50.5272 25.3994C49.9809 25.7636 49.5548 26.2818 49.303 26.8883C49.0512 27.4948 48.9849 28.1623 49.1125 28.8065C49.2402 29.4506 49.556 30.0424 50.0201 30.507C50.4842 30.9717 51.0756 31.2882 51.7196 31.4166C52.3636 31.545 53.0313 31.4794 53.638 31.2283C54.2448 30.9772 54.7634 30.5517 55.1284 30.0058C55.4933 29.4598 55.688 28.8179 55.688 28.1612C55.6877 27.2816 55.3384 26.4381 54.7168 25.8158C54.0952 25.1934 53.252 24.8431 52.3724 24.8418ZM24.8348 33.3869C23.801 33.3879 22.7902 33.0823 21.9301 32.5087C21.0701 31.9351 20.3995 31.1193 20.0032 30.1645C19.6069 29.2097 19.5027 28.1589 19.7038 27.1449C19.9049 26.1308 20.4021 25.1992 21.1328 24.4679C21.8634 23.7366 22.7945 23.2384 23.8083 23.0363C24.8221 22.8343 25.8731 22.9375 26.8283 23.3328C27.7834 23.7282 28.5999 24.398 29.1743 25.2575C29.7487 26.1169 30.0553 27.1275 30.0553 28.1612C30.0543 29.546 29.5041 30.8738 28.5255 31.8534C27.5468 32.833 26.2195 33.3845 24.8348 33.3869ZM24.8348 24.8418C24.178 24.8408 23.5357 25.0346 22.9892 25.3987C22.4427 25.7629 22.0164 26.2809 21.7644 26.8874C21.5124 27.4939 21.4459 28.1614 21.5734 28.8057C21.7009 29.4499 22.0167 30.0419 22.4807 30.5066C22.9447 30.9713 23.5362 31.288 24.1802 31.4165C24.8243 31.545 25.4919 31.4795 26.0988 31.2284C26.7056 30.9774 27.2243 30.5519 27.5893 30.0059C27.9543 29.4599 28.1491 28.8179 28.1491 28.1612C28.1484 27.2819 27.7992 26.4388 27.1779 25.8166C26.5566 25.1943 25.714 24.8438 24.8348 24.8418Z" fill="#604941"/>
<path d="M59.2474 29.1143H56.6409C56.3882 29.1143 56.1457 29.0139 55.967 28.8351C55.7882 28.6564 55.6878 28.414 55.6878 28.1612C55.6878 27.9084 55.7882 27.666 55.967 27.4872C56.1457 27.3085 56.3882 27.2081 56.6409 27.2081H58.978V22.154C58.9774 21.4706 58.8024 20.7988 58.4697 20.202L53.3101 10.9516C53.266 10.8726 53.2017 10.8069 53.1237 10.7611C53.0458 10.7153 52.957 10.6911 52.8666 10.691H45.8351V27.2119H48.1048C48.3575 27.2119 48.6 27.3123 48.7787 27.491C48.9575 27.6698 49.0579 27.9122 49.0579 28.165C49.0579 28.4178 48.9575 28.6602 48.7787 28.839C48.6 29.0177 48.3575 29.1181 48.1048 29.1181H44.8819C44.6291 29.1181 44.3867 29.0177 44.208 28.839C44.0292 28.6602 43.9288 28.4178 43.9288 28.165V9.73792C43.9288 9.48513 44.0292 9.2427 44.208 9.06395C44.3867 8.88521 44.6291 8.78479 44.8819 8.78479H52.8666C53.2966 8.78458 53.7188 8.8992 54.0897 9.11681C54.4606 9.33441 54.7666 9.64711 54.9762 10.0226L60.1345 19.2742C60.6249 20.1549 60.8825 21.146 60.883 22.154V27.4787C60.8823 27.9123 60.7098 28.3279 60.4032 28.6345C60.0966 28.9411 59.681 29.1136 59.2474 29.1143ZM20.5658 29.1143H11.4272C11.1745 29.1143 10.932 29.0139 10.7533 28.8351C10.5745 28.6564 10.4741 28.414 10.4741 28.1612V20.831C10.4741 20.5782 10.5745 20.3358 10.7533 20.1571C10.932 19.9783 11.1745 19.8779 11.4272 19.8779C11.68 19.8779 11.9225 19.9783 12.1012 20.1571C12.28 20.3358 12.3804 20.5782 12.3804 20.831V27.2081H20.5658C20.8186 27.2081 21.061 27.3085 21.2398 27.4872C21.4185 27.666 21.5189 27.9084 21.5189 28.1612C21.5189 28.414 21.4185 28.6564 21.2398 28.8351C21.061 29.0139 20.8186 29.1143 20.5658 29.1143ZM11.4272 17.4493C11.1745 17.4493 10.932 17.3489 10.7533 17.1702C10.5745 16.9914 10.4741 16.749 10.4741 16.4962V10.0963C10.4741 9.84351 10.5745 9.60107 10.7533 9.42233C10.932 9.24358 11.1745 9.14316 11.4272 9.14316C11.68 9.14316 11.9225 9.24358 12.1012 9.42233C12.28 9.60107 12.3804 9.84351 12.3804 10.0963V16.5C12.3794 16.7521 12.2785 16.9936 12.0999 17.1715C11.9212 17.3494 11.6794 17.4493 11.4272 17.4493Z" fill="#604941"/>
<path d="M44.8819 29.1143H29.1019C28.8491 29.1143 28.6067 29.0139 28.428 28.8352C28.2492 28.6564 28.1488 28.414 28.1488 28.1612C28.1488 27.9084 28.2492 27.666 28.428 27.4873C28.6067 27.3085 28.8491 27.2081 29.1019 27.2081H43.9287V2.27307H12.3803V6.19868C12.3803 6.45146 12.2799 6.69389 12.1011 6.87264C11.9224 7.05138 11.68 7.1518 11.4272 7.1518C11.1744 7.1518 10.932 7.05138 10.7532 6.87264C10.5745 6.69389 10.4741 6.45146 10.4741 6.19868V2.0977C10.4747 1.63863 10.6575 1.19857 10.9822 0.874077C11.3069 0.549584 11.7471 0.367157 12.2062 0.366821H44.1041C44.563 0.367494 45.0028 0.550069 45.3273 0.874525C45.6517 1.19898 45.8343 1.63885 45.835 2.0977V28.1612C45.835 28.414 45.7346 28.6564 45.5558 28.8352C45.3771 29.0139 45.1347 29.1143 44.8819 29.1143ZM15.1952 21.7842H3.09814C2.84536 21.7842 2.60293 21.6838 2.42418 21.505C2.24544 21.3263 2.14502 21.0838 2.14502 20.8311C2.14502 20.5783 2.24544 20.3358 2.42418 20.1571C2.60293 19.9783 2.84536 19.8779 3.09814 19.8779H15.1952C15.448 19.8779 15.6904 19.9783 15.8692 20.1571C16.0479 20.3358 16.1483 20.5783 16.1483 20.8311C16.1483 21.0838 16.0479 21.3263 15.8692 21.505C15.6904 21.6838 15.448 21.7842 15.1952 21.7842Z" fill="#604941"/>
<path d="M24.8345 17.4494H7.95407C7.70128 17.4494 7.45885 17.349 7.28011 17.1703C7.10136 16.9915 7.00094 16.7491 7.00094 16.4963C7.00094 16.2435 7.10136 16.0011 7.28011 15.8223C7.45885 15.6436 7.70128 15.5432 7.95407 15.5432H24.8345C25.0873 15.5432 25.3298 15.6436 25.5085 15.8223C25.6873 16.0011 25.7877 16.2435 25.7877 16.4963C25.7877 16.7491 25.6873 16.9915 25.5085 17.1703C25.3298 17.349 25.0873 17.4494 24.8345 17.4494ZM7.42922 12.4169H0.837402C0.584618 12.4169 0.342187 12.3165 0.163441 12.1378C-0.0153044 11.959 -0.115723 11.7166 -0.115723 11.4638C-0.115723 11.211 -0.0153044 10.9686 0.163441 10.7898C0.342187 10.6111 0.584618 10.5107 0.837402 10.5107H7.42922C7.682 10.5107 7.92443 10.6111 8.10318 10.7898C8.28192 10.9686 8.38234 11.211 8.38234 11.4638C8.38234 11.7166 8.28192 11.959 8.10318 12.1378C7.92443 12.3165 7.682 12.4169 7.42922 12.4169ZM17.9987 7.15185H6.36299C6.1102 7.15185 5.86777 7.05144 5.68902 6.87269C5.51028 6.69395 5.40986 6.45152 5.40986 6.19873C5.40986 5.94595 5.51028 5.70352 5.68902 5.52477C5.86777 5.34602 6.1102 5.24561 6.36299 5.24561H17.9987C18.2515 5.24561 18.494 5.34602 18.6727 5.52477C18.8514 5.70352 18.9519 5.94595 18.9519 6.19873C18.9519 6.45152 18.8514 6.69395 18.6727 6.87269C18.494 7.05144 18.2515 7.15185 17.9987 7.15185Z" fill="#604941"/>
</svg>
