<svg width="38" height="38" viewBox="0 0 38 38" fill="none" xmlns="http://www.w3.org/2000/svg">
<path d="M31.2019 0H6.79814C3.04965 0 0 3.04965 0 6.79814V31.2019C0 34.9504 3.04965 38 6.79814 38H31.2019C34.9504 38 38 34.9504 38 31.2019V6.79814C38 3.04965 34.9504 0 31.2019 0ZM35.7734 31.2019C35.7734 33.7226 33.7226 35.7734 31.2019 35.7734H6.79814C4.27738 35.7734 2.22656 33.7226 2.22656 31.2019V6.79814C2.22656 4.27738 4.27738 2.22656 6.79814 2.22656H31.2019C33.7226 2.22656 35.7734 4.27738 35.7734 6.79814V31.2019Z" fill="#604941"/>
<path d="M32.1171 8.34715H15.161C14.6948 6.9626 13.3853 5.96228 11.8455 5.96228C10.3058 5.96228 8.99618 6.9626 8.53002 8.34715H5.8833C5.26847 8.34715 4.77002 8.8456 4.77002 9.46043C4.77002 10.0753 5.26847 10.5737 5.8833 10.5737H8.53009C8.99626 11.9583 10.3058 12.9586 11.8456 12.9586C13.3853 12.9586 14.6949 11.9583 15.1611 10.5737H32.1172C32.732 10.5737 33.2305 10.0753 33.2305 9.46043C33.2305 8.8456 32.732 8.34715 32.1171 8.34715ZM11.8455 10.732C11.1444 10.732 10.5739 10.1616 10.5739 9.46043C10.5739 8.75929 11.1444 8.18884 11.8455 8.18884C12.5467 8.18884 13.1171 8.75929 13.1171 9.46043C13.1171 10.1616 12.5467 10.732 11.8455 10.732ZM32.1171 17.8867H29.4703C29.0042 16.5022 27.6945 15.5018 26.1548 15.5018C24.6151 15.5018 23.3056 16.5022 22.8394 17.8867H5.8833C5.26847 17.8867 4.77002 18.3852 4.77002 19C4.77002 19.6148 5.26847 20.1133 5.8833 20.1133H22.8394C23.3056 21.4978 24.6152 22.4981 26.1549 22.4981C27.6946 22.4981 29.0042 21.4978 29.4704 20.1133H32.1172C32.732 20.1133 33.2305 19.6148 33.2305 19C33.2305 18.3852 32.732 17.8867 32.1171 17.8867ZM26.1549 20.2716C25.4537 20.2716 24.8833 19.7011 24.8833 19C24.8833 18.2988 25.4537 17.7284 26.1549 17.7284C26.856 17.7284 27.4265 18.2988 27.4265 19C27.4265 19.7011 26.856 20.2716 26.1549 20.2716ZM32.1171 27.4263H19.9308C19.4647 26.0417 18.1551 25.0414 16.6153 25.0414C15.0756 25.0414 13.766 26.0417 13.2998 27.4263H5.8833C5.26847 27.4263 4.77002 27.9247 4.77002 28.5395C4.77002 29.1544 5.26847 29.6528 5.8833 29.6528H13.2998C13.766 31.0374 15.0756 32.0377 16.6153 32.0377C18.1551 32.0377 19.4647 31.0374 19.9308 29.6528H32.1172C32.732 29.6528 33.2305 29.1544 33.2305 28.5395C33.2305 27.9247 32.732 27.4263 32.1171 27.4263ZM16.6153 29.8112C15.9142 29.8112 15.3437 29.2408 15.3437 28.5396C15.3437 27.8385 15.9142 27.268 16.6153 27.268C17.3165 27.268 17.8869 27.8384 17.8869 28.5395C17.8869 29.2407 17.3165 29.8112 16.6153 29.8112Z" fill="#604941"/>
</svg>
