<svg width="321" height="259" viewBox="0 0 321 259" fill="none" xmlns="http://www.w3.org/2000/svg">
<g clip-path="url(#clip0_864_1908)">
<path d="M158.501 234.523C157.129 235.274 152.971 237.329 147.539 236.568C140.894 235.627 137.067 231.179 136.216 230.132C136.697 229.621 141.214 225.202 147.792 226.118C155.33 227.164 158.385 234.203 158.512 234.525L158.501 234.523Z" fill="#C63939"/>
<path d="M133.438 113.969C124.139 111.852 109.208 106.855 96.5718 94.1273C74.9511 72.3242 69.2055 37.0444 80.7738 3.16872C83.3739 4.50057 87.2271 6.1031 92.1157 6.91192C96.3251 7.61069 99.9564 7.50663 102.625 7.22477C100.017 12.5664 95.9954 22.6063 96.021 35.6172C96.0356 40.7274 96.6856 61.9024 113.343 79.295C125.625 92.1316 140.044 96.0534 146.031 97.3162C141.837 102.868 137.631 108.418 133.44 113.958L133.438 113.969Z" fill="#BD3C1F"/>
<path d="M80.774 3.16862C82.7353 2.49797 85.9167 1.72328 89.8027 2.01388C96.3656 2.52311 100.864 5.79674 102.614 7.22243C102.114 7.64666 96.5142 12.1375 89.4557 10.1647C83.8611 8.59915 81.2519 4.05858 80.774 3.16862Z" fill="#A5210C"/>
<path d="M210.02 129.059C219.426 130.627 235.137 131.668 251.657 124.685C279.93 112.724 298.629 82.2612 300.776 46.5292C297.866 46.7752 293.692 46.7962 288.862 45.6901C284.702 44.7398 281.382 43.266 279.02 41.9929C279.407 47.9248 279.319 58.7397 274.36 70.7684C272.408 75.4911 263.774 94.8367 241.763 104.61C225.53 111.828 210.701 109.987 204.683 108.885C206.457 115.612 208.243 122.343 210.02 129.059Z" fill="#BD3C1F"/>
<path d="M300.79 46.52C299.219 45.1532 296.582 43.2204 292.863 42.0243C286.597 40.0058 281.194 41.3285 279.034 41.9837C279.335 42.5656 282.813 48.8452 290.092 49.6975C295.874 50.3735 299.999 47.1599 300.79 46.52Z" fill="#A5210C"/>
<g opacity="0.1">
<path d="M146.031 97.3161C141.823 102.877 137.643 108.42 133.44 113.958C131.235 113.452 128.706 112.788 125.974 111.881C130.036 106.517 134.087 101.151 138.176 95.7684C132.187 94.5171 117.768 90.5952 105.475 77.7564C88.8195 60.3524 88.158 39.1752 88.1663 34.0695C88.1432 24.361 90.3714 16.3077 92.5813 10.6381C98.1172 10.8737 102.185 7.58936 102.627 7.21329C100.014 12.5778 96.0092 22.5971 96.0212 35.6172C96.0358 40.7274 96.6972 61.9046 113.341 79.3064C125.623 92.1429 140.03 96.0625 146.031 97.3161Z" fill="black"/>
</g>
<g opacity="0.1">
<path d="M251.668 124.687C235.162 131.661 219.438 130.63 210.031 129.061C209.978 128.849 209.913 128.634 209.86 128.422C219.07 129.12 231.197 128.457 243.791 123.135C270.783 111.706 289.055 83.4152 292.526 49.7614C297.009 49.4927 300.102 47.0613 300.779 46.5177C298.618 82.2589 279.942 112.727 251.668 124.687Z" fill="black"/>
</g>
<path d="M262.47 129.666C259.894 141.891 256.289 159.104 241.39 174.079C236.337 179.165 228.719 186.845 216.559 190.329C200.129 195.049 190.989 187.666 178.075 195.336C170.745 199.688 166.853 206.119 165.037 209.122C158.609 219.745 158.367 230.138 158.514 234.514L136.23 230.123C138.886 218.389 140.366 203.465 134.245 191.249C133.39 189.56 132.396 187.915 131.253 186.36C120.727 171.969 107.203 177.488 92.9327 163.713C70.155 141.694 78.2252 100.917 81.477 83.9315C82.9588 76.23 84.9275 70.1565 89.4551 64.5992C92.9032 60.3613 97.9333 56.2926 107.564 53.1067C111.697 51.7236 116.676 50.5073 122.725 49.5256C125.484 49.0835 129.521 48.4892 134.705 48.0974L134.728 48.1019C140.063 47.6684 146.59 47.4578 154.101 47.7975L154.124 47.802C158.478 48.0067 163.157 48.3705 168.139 49.0076L168.162 49.0121C170.211 49.2851 172.289 49.5877 174.452 49.9427C179.377 50.7468 184.568 51.829 189.975 53.2031C190.844 53.4338 191.704 53.6507 192.548 53.8883C196.303 54.9015 199.821 55.9747 203.146 57.1285C205.481 57.9332 207.705 58.7633 209.863 59.6279C210.169 59.7596 210.49 59.8821 210.796 60.0138C221.52 64.3598 230.336 69.4106 239.411 74.8332C240.805 75.6543 242.206 76.5005 243.616 77.3604C244.489 77.8767 245.313 78.3954 246.117 78.8982C253.983 83.8214 258.71 87.8052 261.977 94.0671C267.69 105.039 265.338 116.192 262.506 129.661L262.47 129.666Z" fill="#E25A5A"/>
<path opacity="0.5" d="M262.47 129.666C259.894 141.891 256.289 159.104 241.39 174.079C236.337 179.165 228.719 186.845 216.559 190.329C200.129 195.049 190.989 187.666 178.075 195.336C170.745 199.688 166.853 206.119 165.037 209.122C158.609 219.745 158.367 230.138 158.514 234.514C157.143 235.265 152.984 237.32 147.552 236.559C140.908 235.618 137.081 231.17 136.23 230.123C138.886 218.389 140.366 203.465 134.245 191.249C136.741 192.145 138.779 194.399 139.296 197.019C139.752 190.065 140.184 183.107 140.631 176.14C142.513 182.2 148.862 184.639 152.674 182.836C156.49 181.011 158.626 174.567 155.108 169.277C156.686 169.885 159.303 170.65 162.555 170.602C164.818 170.572 167.512 170.521 169.932 168.848C172.71 166.925 173.552 163.92 174.328 161.186C175.717 156.246 175.277 151.729 174.55 148.545C175.475 149.82 177.424 152.164 180.732 153.885C183.684 155.417 186.398 155.749 187.941 155.816C188.452 154.907 188.941 153.815 189.262 152.548C190.634 147.272 188.358 142.666 187.462 141.065C189.706 142.398 193.062 144.294 197.302 146.282C205.534 150.137 207.013 150.345 207.909 149.654C209.784 148.218 208.617 143.713 207.9 140.958C206.618 136.014 204.226 132.478 202.651 130.47C206.454 132.264 211.601 134.597 217.815 137.116C223.787 139.54 225.269 139.915 225.944 139.264C227.12 138.118 225.978 133.724 216.058 119.69C216.902 120.592 223.006 126.986 231.567 126.095C232.744 125.971 237.434 125.493 240.946 121.838C242.366 120.36 243.526 118.45 244.932 112.159C247.558 100.395 247.286 90.7449 246.909 86.6916C246.727 84.6604 246.195 81.5743 246.105 78.896C253.972 83.8192 258.698 87.803 261.966 94.0649C267.679 105.037 265.327 116.19 262.495 129.659L262.47 129.666Z" fill="#BA2A2A"/>
<g opacity="0.16">
<path d="M134.692 48.1066C126.543 51.5489 118.418 55.3521 112.066 61.4883C106.593 66.7764 102.7 73.5158 97.1038 78.6489C96.2809 79.3894 95.2819 80.119 94.2321 79.8409C92.4047 79.3502 92.7262 76.6936 93.4595 74.9614C96.8944 66.9321 101.792 59.6778 107.553 53.1045C111.686 51.7215 116.665 50.5051 122.714 49.5234C125.473 49.0813 129.51 48.4871 134.694 48.0952L134.692 48.1066Z" fill="white"/>
<path d="M168.115 49.0145C160.787 52.7493 153.696 56.9107 146.891 61.5444C146.077 62.0609 145.274 62.5797 144.62 63.1278C137.254 68.1973 130.322 73.7204 123.787 79.7017C121.756 81.5701 119.504 83.5374 116.8 83.3966C121.411 73.6155 128.348 64.9934 136.748 58.2274C141.997 53.9524 147.858 50.4276 154.088 47.8067C154.088 47.8067 154.092 47.7838 154.111 47.8112C158.465 48.0159 163.144 48.3797 168.126 49.0168L168.115 49.0145Z" fill="white"/>
<path d="M192.521 53.9067C181.078 59.7169 169.887 66.0635 159.562 73.4954C150.236 80.2572 141.657 87.9264 134.271 96.8995C131.534 100.185 128.742 103.804 124.889 105.396C124.432 105.603 123.921 105.787 123.432 105.917C121.212 103.983 122.555 100.423 124.024 97.9091C125.814 94.853 127.704 91.7691 129.675 88.7604C134.997 80.4971 140.914 72.4698 147.845 65.8063C153.315 60.5297 159.464 56.0875 166.494 52.9593C169.055 51.8367 171.715 50.8761 174.421 49.9839C179.346 50.7881 184.537 51.8703 189.943 53.2444C190.813 53.4751 191.673 53.692 192.517 53.9296L192.521 53.9067Z" fill="white"/>
<path d="M186.916 76.7473C174.918 87.3059 162.896 97.8006 150.898 108.359C150.032 109.139 149.006 109.946 147.794 109.886C145.767 109.747 144.96 107.153 145.201 105.146C145.81 100.123 149.526 96.0927 153.221 92.6517C159.043 87.1592 165.171 81.9767 171.515 77.1455C181.472 69.5934 192.03 62.9082 203.109 57.1333C205.445 57.938 207.669 58.7681 209.826 59.6327C203.287 62.4418 197.779 67.2478 192.419 71.9048C190.572 73.5007 188.762 75.1514 186.904 76.7451L186.916 76.7473Z" fill="white"/>
<path d="M239.372 74.8494C236.908 79.5781 232.076 87.3441 226.817 94.4439C220.115 103.504 212.664 111.479 208.399 110.638L207.816 110.524C210.488 103.472 216.145 97.0683 219.642 90.0489C220.995 87.4648 221.995 84.7994 222.451 82.003C220.947 84.2722 219.435 86.5162 217.897 88.7786L211.24 98.5724C209.606 101.018 207.367 103.76 204.445 103.398C204.854 99.2145 208.072 96.024 210.812 92.9057C212.501 91.0291 214.103 88.7437 214.83 86.3808C215.305 84.8116 215.36 83.2071 214.869 81.6612C214.04 82.6143 213.215 83.5446 212.388 84.4862C207.605 90.0169 202.72 95.5753 197.939 101.095C195.299 104.066 191.226 107.314 187.899 105.15C192.867 96.817 199.149 89.2891 206.501 82.8987C206.964 82.4791 207.472 82.0686 207.907 81.608C211.954 78.07 216.093 73.9444 215.541 68.7878C212.359 72.7575 209.086 76.6498 205.726 80.5012C196.956 90.4724 187.53 99.8512 177.49 108.551C174.392 111.254 170.891 114.009 166.766 114.146C164.497 110.172 168.097 105.465 171.4 102.327C180.081 94.1315 188.754 85.9226 197.479 77.6885C199.305 75.9577 201.147 74.2064 202.972 72.4757C206.587 69.019 210.509 64.9694 210.746 60.0277C221.47 64.3737 230.286 69.4245 239.361 74.8471L239.372 74.8494Z" fill="white"/>
</g>
<g style="mix-blend-mode:multiply">
<path d="M128.762 97.3106C128.678 97.4959 128.606 97.6836 128.613 97.8869C128.649 98.5473 129.516 98.7894 130.185 98.7075C131.757 98.5065 136.066 97.0155 136.745 95.5578C134.343 94.0037 130.105 94.5345 128.774 97.3128L128.762 97.3106Z" fill="#F7E6DC"/>
</g>
<g style="mix-blend-mode:multiply">
<path d="M161.344 63.1807C161.26 63.3661 161.188 63.5537 161.195 63.7571C161.231 64.4174 162.098 64.6595 162.768 64.5776C164.339 64.3766 168.648 62.8856 169.327 61.4279C166.925 59.8738 162.687 60.4046 161.356 63.183L161.344 63.1807Z" fill="#F7E6DC"/>
</g>
<g style="mix-blend-mode:multiply">
<path d="M175.993 182.098C175.909 182.283 175.836 182.471 175.844 182.674C175.88 183.335 176.747 183.577 177.416 183.495C178.988 183.294 183.296 181.803 183.975 180.345C181.573 178.791 177.335 179.322 176.004 182.1L175.993 182.098Z" fill="#F7E6DC"/>
</g>
<g style="mix-blend-mode:multiply">
<path d="M90.5923 127.37C90.5083 127.555 90.4357 127.743 90.4431 127.946C90.4793 128.607 91.3462 128.849 92.0156 128.767C93.5874 128.566 97.8957 127.075 98.5749 125.617C96.1731 124.063 91.9351 124.594 90.6038 127.372L90.5923 127.37Z" fill="#F7E6DC"/>
</g>
<g style="mix-blend-mode:multiply">
<path d="M103.13 139.449C103.046 139.635 102.974 139.822 102.981 140.026C103.017 140.686 103.884 140.928 104.554 140.846C106.125 140.645 110.434 139.154 111.113 137.696C108.711 136.142 104.473 136.673 103.142 139.452L103.13 139.449Z" fill="#F7E6DC"/>
</g>
<g style="mix-blend-mode:multiply">
<path d="M131.296 112.181C131.426 112.302 131.568 112.425 131.738 112.47C132.012 112.525 132.281 112.364 132.496 112.18C133.207 111.525 133.535 110.461 133.306 109.513C133.161 108.926 132.775 108.351 132.189 108.189C131.638 108.032 129.946 108.364 129.636 108.909C129.118 109.852 130.698 111.6 131.296 112.181Z" fill="#F7E6DC"/>
</g>
<g style="mix-blend-mode:multiply">
<path d="M212.313 128.513C212.443 128.634 212.586 128.757 212.755 128.802C213.029 128.856 213.298 128.695 213.513 128.512C214.224 127.856 214.552 126.793 214.323 125.845C214.178 125.258 213.792 124.683 213.207 124.52C212.655 124.364 210.963 124.696 210.653 125.24C210.135 126.184 211.715 127.932 212.313 128.513Z" fill="#F7E6DC"/>
</g>
<g style="mix-blend-mode:multiply">
<path d="M135.605 71.685C135.735 71.8058 135.878 71.9288 136.047 71.974C136.321 72.0281 136.59 71.8673 136.805 71.6839C137.516 71.0282 137.844 69.9646 137.615 69.0168C137.47 68.4298 137.084 67.855 136.499 67.6921C135.947 67.536 134.255 67.8676 133.945 68.4125C133.427 69.3555 135.007 71.104 135.605 71.685Z" fill="#F7E6DC"/>
</g>
<g style="mix-blend-mode:multiply">
<path d="M115.471 115.275C115.026 115.544 114.584 115.861 114.329 116.309C114.063 116.756 114.015 117.364 114.324 117.781C114.494 118.005 114.785 118.157 115.05 118.078C115.175 118.044 115.276 117.957 115.374 117.881C115.675 117.62 115.946 117.329 116.196 117.022C116.322 116.868 116.438 116.701 116.6 116.602C117.097 116.308 119.008 116.614 118.381 115.338C117.992 114.537 116.06 114.94 115.469 115.287L115.471 115.275Z" fill="#F7E6DC"/>
</g>
<g style="mix-blend-mode:multiply">
<path d="M218.286 164.147C217.841 164.415 217.398 164.732 217.144 165.181C216.889 165.629 216.829 166.235 217.139 166.652C217.308 166.876 217.599 167.028 217.864 166.95C217.99 166.915 218.09 166.828 218.188 166.752C218.489 166.491 218.76 166.2 219.01 165.893C219.136 165.739 219.252 165.572 219.414 165.473C219.911 165.179 221.823 165.485 221.195 164.209C220.807 163.408 218.874 163.811 218.283 164.158L218.286 164.147Z" fill="#F7E6DC"/>
</g>
<g style="mix-blend-mode:multiply">
<path d="M150.748 143.059C150.303 143.328 149.861 143.645 149.606 144.093C149.34 144.54 149.291 145.148 149.601 145.565C149.771 145.789 150.062 145.941 150.327 145.863C150.452 145.828 150.552 145.741 150.651 145.665C150.951 145.404 151.234 145.115 151.473 144.806C151.598 144.652 151.714 144.485 151.876 144.386C152.374 144.092 154.285 144.398 153.658 143.122C153.269 142.321 151.337 142.724 150.746 143.071L150.748 143.059Z" fill="#F7E6DC"/>
</g>
<g style="mix-blend-mode:multiply">
<path d="M88.2393 135.815C88.4471 136.568 89.5496 136.88 90.1263 136.365C90.7053 135.837 90.5102 134.718 89.7826 134.432C89.055 134.146 88.1382 134.821 88.1998 135.593L88.2393 135.815Z" fill="#F7E6DC"/>
</g>
<g style="mix-blend-mode:multiply">
<path d="M139.52 134.884C139.727 135.638 140.83 135.95 141.407 135.434C141.986 134.907 141.79 133.788 141.063 133.502C140.335 133.216 139.418 133.89 139.48 134.663L139.52 134.884Z" fill="#F7E6DC"/>
</g>
<g style="mix-blend-mode:multiply">
<path d="M152.745 75.5374C152.953 76.291 154.055 76.6033 154.632 76.0874C155.209 75.5716 155.016 74.4408 154.288 74.1549C153.561 73.869 152.644 74.5436 152.706 75.3159L152.745 75.5374Z" fill="#F7E6DC"/>
</g>
<g style="mix-blend-mode:multiply">
<path d="M239.353 112.747C239.56 113.5 240.663 113.812 241.24 113.297C241.819 112.769 241.623 111.65 240.896 111.364C240.168 111.078 239.251 111.753 239.313 112.525L239.353 112.747Z" fill="#F7E6DC"/>
</g>
<g style="mix-blend-mode:multiply">
<path d="M215.156 68.2724C215.364 69.026 216.466 69.3383 217.043 68.8224C217.622 68.2951 217.427 67.1758 216.699 66.8899C215.971 66.604 215.055 67.2785 215.116 68.0508L215.156 68.2724Z" fill="#F7E6DC"/>
</g>
<g style="mix-blend-mode:multiply">
<path d="M120.064 162.372C120.272 163.126 121.375 163.438 121.952 162.922C122.531 162.395 122.335 161.275 121.608 160.989C120.88 160.704 119.963 161.378 120.025 162.15L120.064 162.372Z" fill="#F7E6DC"/>
</g>
<g style="mix-blend-mode:multiply">
<path d="M182.821 105.848C182.078 106.367 181.6 107.223 180.79 107.657C178.891 108.673 176.139 106.847 174.548 108.292C173.203 109.512 173.94 112.103 172.489 113.195C171.805 113.714 170.863 113.671 170.03 113.863C169.196 114.055 168.272 114.704 168.428 115.543C168.597 116.491 169.937 116.683 170.802 116.272C171.667 115.86 172.353 115.093 173.266 114.798C174.559 114.387 176.32 114.912 177.087 113.792C177.537 113.133 177.413 112.135 178.022 111.637C178.533 111.215 179.265 111.359 179.921 111.346C181.703 111.341 183.231 110.157 184.606 109.026C185.313 110.021 186.838 110.298 187.848 109.63C191.558 107.201 185.134 104.237 182.814 105.823L182.821 105.848Z" fill="#F7E6DC"/>
</g>
<g style="mix-blend-mode:multiply">
<path d="M226.609 132.755C226.365 133.633 226.555 134.597 226.221 135.446C225.423 137.451 222.142 137.826 221.853 139.954C221.618 141.749 223.851 143.258 223.442 145.03C223.253 145.872 222.512 146.438 221.986 147.119C221.46 147.799 221.186 148.885 221.848 149.443C222.584 150.051 223.743 149.353 224.142 148.47C224.54 147.598 224.564 146.57 225.081 145.757C225.806 144.605 227.482 143.878 227.355 142.535C227.272 141.746 226.539 141.067 226.683 140.276C226.809 139.636 227.453 139.264 227.954 138.828C229.311 137.67 229.717 135.79 230.039 134.037C231.214 134.34 232.565 133.572 232.914 132.406C234.179 128.154 227.358 130.04 226.611 132.744L226.609 132.755Z" fill="#F7E6DC"/>
</g>
<g style="mix-blend-mode:multiply">
<path d="M181.436 141.148C181.082 141.981 181.137 142.966 180.685 143.756C179.627 145.626 176.315 145.555 175.741 147.628C175.254 149.373 177.262 151.182 176.62 152.872C176.307 153.678 175.501 154.149 174.897 154.742C174.293 155.336 173.86 156.391 174.449 157.018C175.093 157.726 176.342 157.177 176.856 156.375C177.37 155.574 177.536 154.55 178.156 153.817C179.037 152.779 180.796 152.294 180.851 150.927C180.877 150.136 180.234 149.356 180.49 148.599C180.697 147.975 181.393 147.696 181.95 147.343C183.444 146.39 184.111 144.573 184.67 142.878C185.791 143.337 187.234 142.766 187.736 141.665C189.576 137.633 182.564 138.556 181.45 141.139L181.436 141.148Z" fill="#F7E6DC"/>
</g>
<g style="mix-blend-mode:multiply">
<path d="M133.605 140.608C133.032 139.961 132.921 138.953 133.342 138.204C132.411 137.867 131.324 137.355 131.209 136.371C131.179 136.103 131.233 135.829 131.253 135.548C131.294 134.915 131.114 134.262 130.742 133.737C130.458 133.313 130.041 132.957 129.875 132.473C129.709 131.989 129.974 131.305 130.484 131.311C131.019 131.309 131.252 131.996 131.687 132.32C132.346 132.83 133.504 132.5 133.975 133.186C134.124 133.394 134.156 133.65 134.228 133.889C134.424 134.522 134.874 135.074 135.453 135.39C135.624 135.483 135.81 135.567 135.92 135.731C136.207 136.144 135.754 136.696 135.798 137.192C135.864 137.941 136.917 138.208 137.195 138.904C137.319 139.238 137.259 139.606 137.296 139.958C137.348 140.597 137.725 141.158 138.099 141.672C138.473 142.185 138.865 142.725 138.99 143.356C139.104 143.984 138.848 144.741 138.236 144.953C136.398 145.601 134.396 141.476 133.6 140.571L133.605 140.608Z" fill="#F7E6DC"/>
</g>
<g style="mix-blend-mode:multiply">
<path d="M215.469 110.024C215.033 109.285 215.112 108.279 215.659 107.615C214.807 107.114 213.832 106.399 213.906 105.416C213.924 105.147 214.035 104.884 214.098 104.623C214.257 104.001 214.198 103.336 213.945 102.752C213.74 102.284 213.407 101.862 213.33 101.348C213.253 100.834 213.636 100.22 214.139 100.319C214.665 100.423 214.774 101.133 215.123 101.535C215.675 102.166 216.875 102.046 217.211 102.813C217.307 103.046 217.303 103.306 217.336 103.562C217.409 104.218 217.749 104.843 218.26 105.265C218.413 105.39 218.58 105.506 218.663 105.689C218.868 106.157 218.328 106.608 218.276 107.109C218.199 107.866 219.192 108.311 219.331 109.051C219.394 109.396 219.264 109.75 219.231 110.1C219.164 110.74 219.434 111.363 219.7 111.939C219.967 112.514 220.264 113.119 220.256 113.758C220.249 114.398 219.851 115.092 219.227 115.183C217.304 115.481 216.11 111.053 215.483 110.015L215.469 110.024Z" fill="#F7E6DC"/>
</g>
<g style="mix-blend-mode:multiply">
<path d="M148.027 168.927C148.112 168.076 148.774 167.304 149.599 167.099C149.208 166.19 148.841 165.037 149.488 164.285C149.67 164.084 149.903 163.928 150.115 163.756C150.61 163.354 150.949 162.78 151.095 162.155C151.195 161.652 151.182 161.115 151.425 160.664C151.668 160.213 152.339 159.942 152.695 160.309C153.057 160.701 152.718 161.335 152.765 161.879C152.839 162.713 153.869 163.331 153.686 164.139C153.636 164.39 153.466 164.594 153.34 164.807C153.013 165.384 152.91 166.088 153.069 166.725C153.116 166.913 153.185 167.104 153.146 167.299C153.038 167.788 152.327 167.838 151.993 168.212C151.489 168.778 152.015 169.724 151.69 170.409C151.545 170.725 151.219 170.933 150.989 171.197C150.563 171.671 150.409 172.33 150.285 172.959C150.161 173.588 150.033 174.239 149.657 174.759C149.27 175.277 148.542 175.596 147.984 175.296C146.26 174.399 147.909 170.127 148.018 168.913L148.027 168.927Z" fill="#F7E6DC"/>
</g>
<g style="mix-blend-mode:multiply">
<path d="M109.792 149.824C109.37 151 109.12 152.329 108.234 153.211C106.992 154.451 104.809 154.496 103.78 155.921C103.405 156.441 103.228 157.095 102.83 157.61C102.422 158.112 101.614 158.416 101.144 157.967C100.615 157.459 101.019 156.553 101.555 156.064C102.093 155.564 102.795 155.133 102.915 154.408C103.016 153.775 102.605 153.147 102.694 152.512C102.737 152.235 102.873 151.965 102.856 151.689C102.839 151.293 102.546 150.974 102.298 150.664C101.477 149.647 100.969 148.43 100.471 147.216C100.11 146.337 99.7488 145.458 99.3875 144.579C99.0584 143.778 98.8222 142.686 99.5316 142.22C100.335 141.702 101.359 142.652 101.542 143.59C101.737 144.531 101.566 145.579 102.071 146.391C102.53 147.135 103.443 147.505 103.928 148.241C104.281 148.798 104.338 149.474 104.598 150.084C104.86 150.682 105.486 151.245 106.107 151.046C106.744 150.827 106.892 150.013 107.057 149.357C107.299 148.371 107.852 147.435 108.714 146.916C109.627 146.383 110.735 146.364 111.791 146.37C113.416 146.381 112.205 147.105 111.758 147.444C110.834 148.153 110.205 148.635 109.783 149.811L109.792 149.824Z" fill="#F7E6DC"/>
</g>
<g style="mix-blend-mode:multiply">
<path d="M196.554 91.4265C195.772 90.4529 194.775 89.5438 194.479 88.3334C194.068 86.6251 195.162 84.7502 194.483 83.1318C194.232 82.536 193.757 82.0505 193.545 81.4386C193.32 80.8359 193.5 79.9807 194.114 79.8166C194.816 79.6341 195.38 80.4461 195.524 81.1633C195.668 81.8805 195.67 82.7124 196.229 83.1908C196.717 83.6076 197.471 83.578 197.961 83.9834C198.177 84.1565 198.34 84.4143 198.573 84.5553C198.916 84.7418 199.335 84.6697 199.725 84.616C201.018 84.4432 202.331 84.6543 203.62 84.8609C204.553 85.0091 205.497 85.1595 206.43 85.3077C207.283 85.4401 208.34 85.8028 208.372 86.6643C208.398 87.6195 207.053 87.9959 206.145 87.6625C205.245 87.3428 204.432 86.6481 203.47 86.6485C202.59 86.6533 201.808 87.2475 200.926 87.2637C200.27 87.277 199.654 86.9657 199.005 86.8853C198.358 86.7934 197.549 87.038 197.4 87.6737C197.247 88.3324 197.863 88.8814 198.34 89.3554C199.053 90.0779 199.565 91.034 199.557 92.0419C199.539 93.0955 198.97 94.0525 198.413 94.9522C197.56 96.3282 197.574 94.9295 197.509 94.3583C197.382 93.1931 197.297 92.4163 196.515 91.4426L196.554 91.4265Z" fill="#F7E6DC"/>
</g>
<g style="mix-blend-mode:multiply">
<path d="M86.0131 109.198C85.7241 109.64 85.609 110.163 85.3864 110.63C84.6436 112.23 82.9573 113.133 81.7748 114.432C81.3807 114.865 81.0835 115.65 81.5804 115.962C81.7292 116.05 81.9144 116.075 82.0812 116.072C83.4274 116.112 84.7882 115.655 85.8348 114.804C86.1039 114.584 86.3683 114.328 86.6946 114.178C86.9937 114.047 87.3318 114.019 87.654 114.011C91.1895 113.971 94.6052 116.829 97.9685 115.734C98.0703 115.339 97.7812 114.937 97.4149 114.746C97.0487 114.555 96.6395 114.522 96.2416 114.432C95.2216 114.183 94.326 113.484 93.8297 112.567C93.4989 111.956 93.3231 111.22 92.7984 110.749C92.5464 110.521 92.2099 110.359 92.0149 110.083C91.0029 108.649 93.7713 104.906 90.9325 104.003C89.5028 103.543 89.4102 104.736 88.8416 105.693C88.0432 107.032 86.8458 107.865 85.9947 109.17L86.0131 109.198Z" fill="#F7E6DC"/>
</g>
<g style="mix-blend-mode:multiply">
<path d="M190.071 62.6051C189.782 63.0471 189.667 63.5707 189.444 64.0376C188.701 65.6372 187.015 66.5402 185.832 67.8394C185.438 68.2725 185.141 69.0573 185.638 69.3689C185.787 69.4576 185.972 69.4823 186.139 69.4795C187.485 69.5191 188.846 69.0627 189.892 68.2118C190.161 67.9916 190.426 67.7349 190.752 67.5854C191.051 67.4543 191.389 67.4259 191.712 67.4182C195.247 67.3784 198.663 70.2368 202.026 69.1417C202.128 68.746 201.839 68.3446 201.473 68.1537C201.106 67.9627 200.697 67.9296 200.299 67.8393C199.279 67.5908 198.384 66.8918 197.887 65.9744C197.557 65.3629 197.381 64.6275 196.856 64.1559C196.604 63.9281 196.268 63.7668 196.072 63.4908C195.061 62.0561 197.829 58.3138 194.99 57.41C193.56 56.9502 193.468 58.1434 192.899 59.1004C192.101 60.4396 190.903 61.2726 190.052 62.5778L190.071 62.6051Z" fill="#F7E6DC"/>
</g>
<g style="mix-blend-mode:multiply">
<path d="M230.945 80.9093C230.706 81.2185 230.295 81.4345 230.196 81.8188C230.033 82.4637 230.832 82.9299 231.03 83.551C231.339 84.5146 230.217 85.3268 229.998 86.3171C229.868 86.9208 230.089 87.5464 230.097 88.1657C230.106 88.785 229.758 89.5242 229.139 89.5328C229.323 89.866 229.78 89.9561 230.157 89.8522C230.522 89.746 230.83 89.5097 231.147 89.2871C231.779 88.8534 232.496 88.5314 233.236 88.3327C233.574 88.2449 233.944 88.1753 234.266 88.2864C234.589 88.3974 234.834 88.6595 235.132 88.837C235.903 89.3216 236.893 89.1839 237.796 89.3619C238.562 89.5128 239.255 89.9108 240.003 90.0938C240.763 90.279 241.674 90.1736 242.132 89.5392C242.248 89.372 242.325 89.1616 242.281 88.9628C242.198 88.602 241.763 88.457 241.399 88.3734C240.601 88.2043 239.817 88.026 239.019 87.8569C239.067 87.13 238.405 86.5125 237.703 86.3385C237 86.1645 236.258 86.3152 235.543 86.4475C235.297 86.4939 234.986 86.504 234.862 86.2895C234.71 86.0339 234.972 85.7292 235.031 85.432C235.184 84.7733 234.365 84.3506 233.722 84.1764C233.794 83.5729 233.874 82.983 233.946 82.3794C233.986 82.0548 234.026 81.7301 233.934 81.415C233.846 81.1364 233.656 80.897 233.49 80.6507C232.77 79.606 232.2 77.1302 230.484 77.9441C230.866 78.7201 231.628 80.0343 230.961 80.8887L230.945 80.9093Z" fill="#F7E6DC"/>
</g>
<g style="mix-blend-mode:multiply">
<path d="M103.879 91.6473C104.267 91.6051 104.704 91.7387 105.053 91.5343C105.619 91.1944 105.39 90.3061 105.697 89.7133C106.158 88.8183 107.53 89.0293 108.386 88.4852C108.915 88.15 109.199 87.5527 109.62 87.1013C110.053 86.6521 110.82 86.3756 111.267 86.82C111.364 86.4472 111.107 86.064 110.776 85.8798C110.444 85.6957 110.05 85.6419 109.682 85.5813C108.928 85.4326 108.196 85.1695 107.523 84.7875C107.213 84.6078 106.911 84.3939 106.757 84.0904C106.603 83.7868 106.616 83.4211 106.539 83.0854C106.334 82.2015 105.527 81.5913 105.022 80.8386C104.591 80.1953 104.388 79.4188 103.972 78.755C103.568 78.0933 102.851 77.5126 102.077 77.6451C101.88 77.6776 101.672 77.7674 101.565 77.9482C101.372 78.2664 101.577 78.6749 101.776 78.9875C102.213 79.6673 102.649 80.3471 103.096 81.0292C102.551 81.5038 102.575 82.4111 102.951 83.0316C103.328 83.6522 103.957 84.0732 104.555 84.476C104.764 84.624 104.997 84.8244 104.936 85.0737C104.866 85.3687 104.457 85.395 104.202 85.5466C103.634 85.8979 103.899 86.7816 104.237 87.3588C103.76 87.7282 103.283 88.0975 102.807 88.4668C102.554 88.6664 102.287 88.8751 102.137 89.1543C102.003 89.413 101.967 89.7147 101.908 90.012C101.674 91.2605 100.334 93.4195 102.121 94.0566C102.388 93.2423 102.786 91.7647 103.869 91.6337L103.879 91.6473Z" fill="#F7E6DC"/>
</g>
<g style="mix-blend-mode:multiply">
<path d="M152.28 91.7059C152.486 92.0435 152.551 92.4959 152.877 92.7143C153.422 93.083 154.131 92.4982 154.791 92.5215C155.804 92.5666 156.182 93.9002 157.039 94.4371C157.568 94.767 158.23 94.7788 158.809 94.976C159.388 95.1732 159.972 95.7634 159.762 96.3514C160.143 96.284 160.375 95.8903 160.415 95.5062C160.444 95.1199 160.326 94.7523 160.231 94.3892C160.046 93.6401 159.973 92.8655 160.042 92.0951C160.075 91.7454 160.136 91.3772 160.355 91.1115C160.573 90.8458 160.897 90.7077 161.166 90.4875C161.882 89.9279 162.088 88.9468 162.563 88.1616C162.968 87.4931 163.579 86.984 164.004 86.3314C164.43 85.6788 164.654 84.7846 164.209 84.1505C164.098 83.9863 163.926 83.8336 163.716 83.816C163.346 83.7667 163.061 84.1264 162.856 84.4423C162.424 85.1292 161.992 85.8161 161.56 86.5029C160.894 86.2054 160.088 86.6168 159.685 87.2145C159.28 87.8235 159.17 88.562 159.051 89.2869C159.002 89.5384 158.92 89.8312 158.674 89.8776C158.377 89.9379 158.186 89.5796 157.934 89.4112C157.366 89.038 156.685 89.6639 156.304 90.2066C155.764 89.9339 155.226 89.6497 154.698 89.3793C154.407 89.227 154.116 89.0747 153.787 89.0573C153.492 89.0467 153.2 89.1436 152.912 89.2175C151.686 89.5341 149.169 89.2282 149.343 91.1155C150.205 91.0239 151.694 90.7591 152.27 91.6922L152.28 91.7059Z" fill="#F7E6DC"/>
</g>
<g style="mix-blend-mode:multiply">
<path d="M220.5 172.077C219.644 172.206 218.882 172.875 218.647 173.708C218.45 174.405 218.594 175.182 218.354 175.859C217.989 176.927 216.795 177.559 216.465 178.634C216.292 179.206 216.374 179.816 216.472 180.406C216.572 181.043 216.883 181.876 217.536 181.815C218.37 181.742 218.275 180.476 218.733 179.782C218.953 179.446 219.339 179.237 219.612 178.934C220.364 178.073 220.104 176.62 220.888 175.777C221.608 175.016 223.296 174.647 222.885 173.236C222.636 172.391 221.284 171.959 220.523 172.082L220.5 172.077Z" fill="#F7E6DC"/>
</g>
</g>
<path d="M58.4943 107.131L52.0745 86.3433L39.6127 96.9259L33.5706 75.7607L19.9758 86.3433L14.689 69.7135" stroke="#E25A5A" stroke-width="2"/>
<path d="M58.1882 140.318L41.9054 125.68L36.5965 141.261L20.4451 126.102L14.1568 142.268L1 130.636" stroke="#E25A5A" stroke-width="2"/>
<path d="M74.1016 174.188L53.3635 167.165L54.6351 183.576L33.8117 176.023L34.4145 193.358L17.7349 187.863" stroke="#E25A5A" stroke-width="2"/>
<path d="M246.259 196.703L241.593 217.562L257.392 214.625L252.22 235.622L268.985 233.239L265.381 250" stroke="#E25A5A" stroke-width="2"/>
<path d="M262.505 170.185L269.203 190.483L281.257 179.856L287.591 200.532L300.758 189.884L306.265 206.12" stroke="#E25A5A" stroke-width="2"/>
<path d="M265.446 133.771L279.612 149.777L286.493 135.256L300.473 151.753L308.369 136.773L319.837 149.517" stroke="#E25A5A" stroke-width="2"/>
<defs>
<clipPath id="clip0_864_1908">
<rect width="226.263" height="219.142" fill="white" transform="translate(80.3647) rotate(11.1466)"/>
</clipPath>
</defs>
</svg>
