<svg width="22" height="21" viewBox="0 0 22 21" fill="none" xmlns="http://www.w3.org/2000/svg">
<path d="M12.2838 1.1199L14.2038 5.1999C14.4438 5.6799 14.8438 5.9999 15.4038 6.0799L19.8038 6.7199C21.0838 6.8799 21.6438 8.4799 20.6838 9.4399L17.4038 12.7999C17.0838 13.1999 16.9238 13.6799 17.0038 14.1599L17.7238 18.7999C17.9638 20.0799 16.5238 21.1199 15.4038 20.4799L11.6438 18.3199C11.1638 18.0799 10.6038 18.0799 10.1238 18.3199L6.28376 20.3999C5.08376 21.0399 3.72376 20.0799 3.96376 18.7199L4.68376 14.0799C4.76376 13.5999 4.60376 13.0399 4.28376 12.7199L1.00376 9.3599C0.123759 8.3999 0.603759 6.8799 1.88376 6.6399L6.28376 5.9999C6.84376 5.9199 7.24376 5.5999 7.48376 5.1199L9.40376 1.0399C9.96376 -0.1601 11.7238 -0.1601 12.2838 1.1199Z" fill="url(#paint0_linear_34_3322)"/>
<defs>
<linearGradient id="paint0_linear_34_3322" x1="10.8668" y1="3.72534" x2="10.7665" y2="23.5837" gradientUnits="userSpaceOnUse">
<stop stop-color="#F2B3BA"/>
<stop offset="1" stop-color="#73A2E1"/>
</linearGradient>
</defs>
</svg>
