<svg width="290" height="16" viewBox="0 0 290 16" fill="none" xmlns="http://www.w3.org/2000/svg">
<path d="M289.354 8.35358C289.549 8.15832 289.549 7.84173 289.354 7.64647L286.172 4.46449C285.976 4.26923 285.66 4.26923 285.464 4.46449C285.269 4.65975 285.269 4.97634 285.464 5.1716L288.293 8.00003L285.464 10.8285C285.269 11.0237 285.269 11.3403 285.464 11.5356C285.66 11.7308 285.976 11.7308 286.172 11.5356L289.354 8.35358ZM-4.37114e-08 8.5L18.7662 8.5L18.7662 7.5L4.37114e-08 7.5L-4.37114e-08 8.5ZM22.5195 8.5L60.0519 8.50001L60.0519 7.50001L22.5195 7.5L22.5195 8.5ZM63.8052 8.50001L101.338 8.50001L101.338 7.50001L63.8052 7.50001L63.8052 8.50001ZM105.091 8.50001L142.623 8.50001L142.623 7.50001L105.091 7.50001L105.091 8.50001ZM146.377 8.50001L183.909 8.50002L183.909 7.50002L146.377 7.50001L146.377 8.50001ZM187.662 8.50002L225.195 8.50002L225.195 7.50002L187.662 7.50002L187.662 8.50002ZM228.948 8.50002L266.481 8.50002L266.481 7.50002L228.948 7.50002L228.948 8.50002ZM270.234 8.50002L289 8.50003L289 7.50003L270.234 7.50002L270.234 8.50002ZM289.707 8.70713C290.098 8.31661 290.098 7.68344 289.707 7.29292L283.343 0.928957C282.953 0.538433 282.319 0.538432 281.929 0.928957C281.538 1.31948 281.538 1.95265 281.929 2.34317L287.586 8.00003L281.929 13.6569C281.538 14.0474 281.538 14.6806 281.929 15.0711C282.319 15.4616 282.953 15.4616 283.343 15.0711L289.707 8.70713ZM-8.74228e-08 9L18.7662 9L18.7662 7L8.74228e-08 7L-8.74228e-08 9ZM22.5195 9L60.0519 9.00001L60.0519 7.00001L22.5195 7L22.5195 9ZM63.8052 9.00001L101.338 9.00001L101.338 7.00001L63.8052 7.00001L63.8052 9.00001ZM105.091 9.00001L142.623 9.00001L142.623 7.00001L105.091 7.00001L105.091 9.00001ZM146.377 9.00001L183.909 9.00002L183.909 7.00002L146.377 7.00001L146.377 9.00001ZM187.662 9.00002L225.195 9.00002L225.195 7.00002L187.662 7.00002L187.662 9.00002ZM228.948 9.00002L266.481 9.00002L266.481 7.00002L228.948 7.00002L228.948 9.00002ZM270.234 9.00002L289 9.00003L289 7.00003L270.234 7.00002L270.234 9.00002Z" fill="#0D9DEA" fill-opacity="0.64"/>
</svg>
