<svg width="429" height="16" viewBox="0 0 429 16" fill="none" xmlns="http://www.w3.org/2000/svg">
<path d="M428.354 8.35355C428.549 8.15829 428.549 7.84171 428.354 7.64645L425.172 4.46447C424.976 4.2692 424.66 4.2692 424.465 4.46447C424.269 4.65973 424.269 4.97631 424.465 5.17157L427.293 8L424.465 10.8284C424.269 11.0237 424.269 11.3403 424.465 11.5355C424.66 11.7308 424.976 11.7308 425.172 11.5355L428.354 8.35355ZM2.67029e-05 8.5H19.4546V7.5H2.67029e-05V8.5ZM23.3455 8.5H62.2546V7.5H23.3455V8.5ZM66.1455 8.5H105.055V7.5H66.1455V8.5ZM108.945 8.5H147.855V7.5H108.945V8.5ZM151.745 8.5H190.655V7.5H151.745V8.5ZM194.545 8.5H233.455V7.5H194.545V8.5ZM237.346 8.5H276.255V7.5H237.346V8.5ZM280.146 8.5H319.055V7.5H280.146V8.5ZM322.945 8.5H361.855V7.5H322.945V8.5ZM365.745 8.5H404.655V7.5H365.745V8.5ZM408.545 8.5H428V7.5H408.545V8.5ZM428.707 8.70711C429.098 8.31658 429.098 7.68342 428.707 7.29289L422.343 0.928932C421.953 0.538408 421.32 0.538408 420.929 0.928932C420.538 1.31946 420.538 1.95262 420.929 2.34315L426.586 8L420.929 13.6569C420.538 14.0474 420.538 14.6805 420.929 15.0711C421.32 15.4616 421.953 15.4616 422.343 15.0711L428.707 8.70711ZM2.67029e-05 9H19.4546V7H2.67029e-05V9ZM23.3455 9H62.2546V7H23.3455V9ZM66.1455 9H105.055V7H66.1455V9ZM108.945 9H147.855V7H108.945V9ZM151.745 9H190.655V7H151.745V9ZM194.545 9H233.455V7H194.545V9ZM237.346 9H276.255V7H237.346V9ZM280.146 9H319.055V7H280.146V9ZM322.945 9H361.855V7H322.945V9ZM365.745 9H404.655V7H365.745V9ZM408.545 9H428V7H408.545V9Z" fill="#0D9DEA" fill-opacity="0.64"/>
</svg>
