<svg width="90" height="90" viewBox="0 0 90 90" fill="none" xmlns="http://www.w3.org/2000/svg">
<g clip-path="url(#clip0_738_487)">
<path d="M31.5117 28.2087H57.4884V72.0895C57.4884 73.7508 57.1519 75.3958 56.4982 76.9305C55.8445 78.4651 54.8864 79.8593 53.6786 81.0333C52.4709 82.2073 51.0372 83.1381 49.4595 83.7725C47.8819 84.4068 46.1912 84.7323 44.4843 84.7303V84.7303C42.7786 84.7282 41.0901 84.3993 39.515 83.7621C37.94 83.125 36.5093 82.1922 35.3047 81.017C34.1001 79.8417 33.1452 78.4471 32.4944 76.9127C31.8435 75.3783 31.5096 73.7341 31.5117 72.0741V28.2087Z" stroke="white" stroke-width="2" stroke-miterlimit="10"/>
<path d="M58.8647 20.7104H30.1353C28.0122 20.7104 26.291 22.3855 26.291 24.4519C26.291 26.5182 28.0122 28.1933 30.1353 28.1933H58.8647C60.9879 28.1933 62.709 26.5182 62.709 24.4519C62.709 22.3855 60.9879 20.7104 58.8647 20.7104Z" stroke="white" stroke-width="2" stroke-miterlimit="10"/>
<path d="M36.0205 8.26978H52.9955C54.1913 8.26978 55.3381 8.73209 56.1836 9.55501C57.0292 10.3779 57.5042 11.4941 57.5042 12.6579V20.7104H31.5117V12.6579C31.5117 11.4941 31.9867 10.3779 32.8323 9.55501C33.6779 8.73209 34.8247 8.26978 36.0205 8.26978V8.26978Z" stroke="white" stroke-width="2" stroke-miterlimit="10"/>
<path d="M57.5042 40.7108H31.5117V67.9785H57.5042V40.7108Z" stroke="white" stroke-width="2" stroke-miterlimit="10"/>
<path d="M50.0686 56.5079C50.1518 57.264 50.071 58.0286 49.8307 58.7521C49.5903 59.4757 49.1957 60.1418 48.6735 60.7074C48.1513 61.273 47.5131 61.7253 46.7995 62.0349C46.0859 62.3445 45.3128 62.5045 44.5315 62.5045C43.7502 62.5045 42.9779 62.3445 42.2643 62.0349C41.5507 61.7253 40.9118 61.273 40.3896 60.7074C39.8673 60.1418 39.4735 59.4757 39.2332 58.7521C38.9928 58.0286 38.9113 57.264 38.9945 56.5079C38.9945 53.5056 44.5632 45.6378 44.5632 45.6378C44.5632 45.6378 50.0686 53.5364 50.0686 56.5079Z" stroke="white" stroke-width="2" stroke-miterlimit="10"/>
<path d="M44.7689 8.26978H38.0928V20.7104H44.7689V8.26978Z" stroke="white" stroke-width="2" stroke-miterlimit="10"/>
<path d="M51.4451 8.26978H44.769V20.7104H51.4451V8.26978Z" stroke="white" stroke-width="2" stroke-miterlimit="10"/>
</g>
<defs>
<clipPath id="clip0_738_487">
<rect width="38" height="78" fill="white" transform="translate(25.5 7.5)"/>
</clipPath>
</defs>
</svg>
