<svg width="36" height="35" viewBox="0 0 36 35" fill="none" xmlns="http://www.w3.org/2000/svg">
<g clip-path="url(#clip0_8_83)">
<path d="M17.6772 35C27.3445 35 35.1772 27.1673 35.1772 17.5C35.1772 7.83271 27.3445 0 17.6772 0C8.00995 0 0.177246 7.83271 0.177246 17.5C0.177246 27.1673 8.00995 35 17.6772 35ZM8.18495 17.1208L25.0579 10.6152C25.841 10.3323 26.525 10.8063 26.2712 11.9904L26.2727 11.989L23.3997 25.5238C23.1868 26.4833 22.6166 26.7167 21.8189 26.2646L17.4439 23.0402L15.3337 25.0731C15.1004 25.3065 14.9035 25.5033 14.4514 25.5033L14.762 21.051L22.8704 13.7258C23.2233 13.4152 22.7916 13.2402 22.3264 13.5494L12.3062 19.8581L7.98662 18.5106C7.04891 18.2131 7.0285 17.5729 8.18495 17.1208Z" fill="#F2A90A"/>
</g>
<defs>
<clipPath id="clip0_8_83">
<rect width="35" height="35" fill="white" transform="translate(0.177246)"/>
</clipPath>
</defs>
</svg>
