<svg width="144" height="236" viewBox="0 0 144 236" fill="none" xmlns="http://www.w3.org/2000/svg">
<mask id="path-1-inside-1_738_278" fill="white">
<path fill-rule="evenodd" clip-rule="evenodd" d="M114 0H144V184V186V214H51V235.373L0 199L51 162.627V184H114V0Z"/>
</mask>
<path fill-rule="evenodd" clip-rule="evenodd" d="M114 0H144V184V186V214H51V235.373L0 199L51 162.627V184H114V0Z" fill="white"/>
<path d="M144 0H145V-1H144V0ZM114 0V-1H113V0H114ZM144 214V215H145V214H144ZM51 214V213H50V214H51ZM51 235.373L50.4193 236.187L52 237.315V235.373H51ZM0 199L-0.580651 198.186L-1.7222 199L-0.580651 199.814L0 199ZM51 162.627H52V160.685L50.4193 161.813L51 162.627ZM51 184H50V185H51V184ZM114 184V185H115V184H114ZM144 -1H114V1H144V-1ZM145 184V0H143V184H145ZM145 186V184H143V186H145ZM145 214V186H143V214H145ZM51 215H144V213H51V215ZM50 214V235.373H52V214H50ZM51.5807 234.559L0.580651 198.186L-0.580651 199.814L50.4193 236.187L51.5807 234.559ZM0.580651 199.814L51.5806 163.441L50.4193 161.813L-0.580651 198.186L0.580651 199.814ZM50 162.627V184H52V162.627H50ZM114 183H51V185H114V183ZM113 0V184H115V0H113Z" fill="#E3B1BF" mask="url(#path-1-inside-1_738_278)"/>
</svg>
