<svg width="73" height="236" viewBox="0 0 73 236" fill="none" xmlns="http://www.w3.org/2000/svg">
<mask id="path-1-inside-1_738_340" fill="white">
<path fill-rule="evenodd" clip-rule="evenodd" d="M51 5.24537e-06L21 0L21 185H0L36.3731 236L72.7461 185H51L51 5.24537e-06Z"/>
</mask>
<path fill-rule="evenodd" clip-rule="evenodd" d="M51 5.24537e-06L21 0L21 185H0L36.3731 236L72.7461 185H51L51 5.24537e-06Z" fill="white"/>
<path d="M21 0V-1L20 -1V-1.7527e-07L21 0ZM51 5.24537e-06L52 5.41033e-06V-0.999995L51 -0.999995V5.24537e-06ZM21 185V186H22V185H21ZM0 185V184H-1.94147L-0.814152 185.581L0 185ZM36.3731 236L35.5589 236.581L36.3731 237.722L37.1872 236.581L36.3731 236ZM72.7461 185L73.5603 185.581L74.6876 184H72.7461V185ZM51 185H50V186H51V185ZM21 1L51 1.00001V-0.999995L21 -1V1ZM22 185L22 1.7527e-07L20 -1.7527e-07L20 185H22ZM0 186H21V184H0V186ZM37.1872 235.419L0.814152 184.419L-0.814152 185.581L35.5589 236.581L37.1872 235.419ZM71.932 184.419L35.5589 235.419L37.1872 236.581L73.5603 185.581L71.932 184.419ZM51 186H72.7461V184H51V186ZM50 5.08041e-06L50 185H52L52 5.41033e-06L50 5.08041e-06Z" fill="#E3B1BF" mask="url(#path-1-inside-1_738_340)"/>
</svg>
