<svg width="168" height="654" viewBox="0 0 168 654" fill="none" xmlns="http://www.w3.org/2000/svg">
<mask id="path-1-inside-1_738_286" fill="white">
<path fill-rule="evenodd" clip-rule="evenodd" d="M70 0H100V207H117V185.627L168 222L117 258.373V237H100V602H117V580.627L168 617L117 653.373V632H100H79H70V237H51V258.373L0 222L51 185.627V207H70V0Z"/>
</mask>
<path fill-rule="evenodd" clip-rule="evenodd" d="M70 0H100V207H117V185.627L168 222L117 258.373V237H100V602H117V580.627L168 617L117 653.373V632H100H79H70V237H51V258.373L0 222L51 185.627V207H70V0Z" fill="white"/>
<path d="M100 0H101V-1H100V0ZM70 0V-1H69V0H70ZM100 207H99V208H100V207ZM117 207V208H118V207H117ZM117 185.627L117.581 184.813L116 183.685V185.627H117ZM168 222L168.581 222.814L169.722 222L168.581 221.186L168 222ZM117 258.373H116V260.315L117.581 259.187L117 258.373ZM117 237H118V236H117V237ZM100 237V236H99V237H100ZM100 602H99V603H100V602ZM117 602V603H118V602H117ZM117 580.627L117.581 579.813L116 578.685V580.627H117ZM168 617L168.581 617.814L169.722 617L168.581 616.186L168 617ZM117 653.373H116V655.315L117.581 654.187L117 653.373ZM117 632H118V631H117V632ZM70 632H69V633H70V632ZM70 237H71V236H70V237ZM51 237V236H50V237H51ZM51 258.373L50.4193 259.187L52 260.315V258.373H51ZM0 222L-0.580651 221.186L-1.7222 222L-0.580651 222.814L0 222ZM51 185.627H52V183.685L50.4193 184.813L51 185.627ZM51 207H50V208H51V207ZM70 207V208H71V207H70ZM100 -1H70V1H100V-1ZM101 207V0H99V207H101ZM117 206H100V208H117V206ZM116 185.627V207H118V185.627H116ZM168.581 221.186L117.581 184.813L116.419 186.441L167.419 222.814L168.581 221.186ZM117.581 259.187L168.581 222.814L167.419 221.186L116.419 257.559L117.581 259.187ZM116 237V258.373H118V237H116ZM100 238H117V236H100V238ZM101 602V237H99V602H101ZM117 601H100V603H117V601ZM116 580.627V602H118V580.627H116ZM168.581 616.186L117.581 579.813L116.419 581.441L167.419 617.814L168.581 616.186ZM117.581 654.187L168.581 617.814L167.419 616.186L116.419 652.559L117.581 654.187ZM116 632V653.373H118V632H116ZM100 633H117V631H100V633ZM79 633H100V631H79V633ZM70 633H79V631H70V633ZM69 237V632H71V237H69ZM51 238H70V236H51V238ZM52 258.373V237H50V258.373H52ZM-0.580651 222.814L50.4193 259.187L51.5807 257.559L0.580651 221.186L-0.580651 222.814ZM50.4193 184.813L-0.580651 221.186L0.580651 222.814L51.5807 186.441L50.4193 184.813ZM52 207V185.627H50V207H52ZM70 206H51V208H70V206ZM69 0V207H71V0H69Z" fill="#E3B1BF" mask="url(#path-1-inside-1_738_286)"/>
</svg>
