<svg width="144" height="236" viewBox="0 0 144 236" fill="none" xmlns="http://www.w3.org/2000/svg">
<mask id="path-1-inside-1_738_282" fill="white">
<path fill-rule="evenodd" clip-rule="evenodd" d="M30.0002 0H0.000244141V184V186V214H93.0002V235.373L144 199L93.0002 162.627V184H30.0002V0Z"/>
</mask>
<path fill-rule="evenodd" clip-rule="evenodd" d="M30.0002 0H0.000244141V184V186V214H93.0002V235.373L144 199L93.0002 162.627V184H30.0002V0Z" fill="white"/>
<path d="M0.000244141 0V-1H-0.999756V0H0.000244141ZM30.0002 0H31.0002V-1H30.0002V0ZM0.000244141 214H-0.999756V215H0.000244141V214ZM93.0002 214H94.0002V213H93.0002V214ZM93.0002 235.373H92.0002V237.315L93.5809 236.187L93.0002 235.373ZM144 199L144.581 199.814L145.722 199L144.581 198.186L144 199ZM93.0002 162.627L93.5809 161.813L92.0002 160.685V162.627H93.0002ZM93.0002 184V185H94.0002V184H93.0002ZM30.0002 184H29.0002V185H30.0002V184ZM0.000244141 1H30.0002V-1H0.000244141V1ZM1.00024 184V0H-0.999756V184H1.00024ZM1.00024 186V184H-0.999756V186H1.00024ZM1.00024 214V186H-0.999756V214H1.00024ZM93.0002 213H0.000244141V215H93.0002V213ZM92.0002 214V235.373H94.0002V214H92.0002ZM93.5809 236.187L144.581 199.814L143.42 198.186L92.4196 234.559L93.5809 236.187ZM144.581 198.186L93.5809 161.813L92.4196 163.441L143.42 199.814L144.581 198.186ZM92.0002 162.627V184H94.0002V162.627H92.0002ZM30.0002 185H93.0002V183H30.0002V185ZM29.0002 0V184H31.0002V0H29.0002Z" fill="#E3B1BF" mask="url(#path-1-inside-1_738_282)"/>
</svg>
