<svg width="73" height="732" viewBox="0 0 73 732" fill="none" xmlns="http://www.w3.org/2000/svg">
<mask id="path-1-inside-1_1314_96" fill="white">
<path fill-rule="evenodd" clip-rule="evenodd" d="M51.0001 7.92742e-06L21 0L20.9999 681H0L36.3731 732L72.7461 681H51L51.0001 7.92742e-06Z"/>
</mask>
<path fill-rule="evenodd" clip-rule="evenodd" d="M51.0001 7.92742e-06L21 0L20.9999 681H0L36.3731 732L72.7461 681H51L51.0001 7.92742e-06Z" fill="white"/>
<path d="M21 0V-1L20 -1V-1.14833e-07L21 0ZM51.0001 7.92742e-06L52.0001 8.04505e-06V-0.999992L51.0001 -0.999992V7.92742e-06ZM20.9999 681V682H21.9999V681H20.9999ZM0 681V680H-1.94147L-0.814152 681.581L0 681ZM36.3731 732L35.5589 732.581L36.3731 733.722L37.1872 732.581L36.3731 732ZM72.7461 681L73.5603 681.581L74.6876 680H72.7461V681ZM51 681H50V682H51V681ZM21 1L51.0001 1.00001V-0.999992L21 -1V1ZM21.9999 681L22 1.14833e-07L20 -1.14833e-07L19.9999 681H21.9999ZM0 682H20.9999V680H0V682ZM37.1872 731.419L0.814152 680.419L-0.814152 681.581L35.5589 732.581L37.1872 731.419ZM71.932 680.419L35.5589 731.419L37.1872 732.581L73.5603 681.581L71.932 680.419ZM51 682H72.7461V680H51V682ZM50.0001 7.80978e-06L50 681H52L52.0001 8.04505e-06L50.0001 7.80978e-06Z" fill="#E3B1BF" mask="url(#path-1-inside-1_1314_96)"/>
</svg>
