<svg width="78" height="237" viewBox="0 0 78 237" fill="none" xmlns="http://www.w3.org/2000/svg">
<path d="M37 39L37 231" stroke="#73A2E1" stroke-width="3" stroke-miterlimit="10"/>
<path d="M39.347 78C60.6946 78 78.0002 60.5391 78.0002 39C78.0002 17.4609 60.6946 0 39.347 0C17.9995 0 0.693848 17.4609 0.693848 39C0.693848 60.5391 17.9995 78 39.347 78Z" fill="url(#paint0_linear_738_322)"/>
<g clip-path="url(#clip0_738_322)">
<path d="M25.2354 18.5H33.4407V39.09H29.088C28.5813 39.09 28.0795 38.9821 27.6115 38.7724C27.1435 38.5627 26.7184 38.2554 26.3605 37.868C26.0026 37.4807 25.719 37.0209 25.526 36.515C25.3329 36.0092 25.2341 35.4671 25.2354 34.92V18.5Z" stroke="white" stroke-width="2" stroke-miterlimit="10"/>
<path d="M42.7485 47.3201V59.6901H26.875V42.7801C26.875 41.7988 27.2358 40.8577 27.8784 40.1638C28.5211 39.4699 29.3928 39.0801 30.3016 39.0801H42.7485" stroke="white" stroke-width="2" stroke-miterlimit="10"/>
<path d="M36.5806 47.3601H42.0538C44.0876 47.3601 46.0379 46.4877 47.476 44.9349C48.9141 43.3821 49.7221 41.2761 49.7221 39.0801H36.5806" stroke="white" stroke-width="2" stroke-miterlimit="10"/>
<path d="M33.4409 34.3999H49.3794C49.9541 34.3999 50.5053 34.6464 50.9118 35.0853C51.3182 35.5241 51.5465 36.1193 51.5465 36.7399C51.5465 37.3605 51.3182 37.9557 50.9118 38.3945C50.5053 38.8334 49.9541 39.0799 49.3794 39.0799H33.4409V34.3999Z" stroke="white" stroke-width="2" stroke-miterlimit="10"/>
</g>
<path d="M42.3688 230.995C42.3688 232.588 41.7828 234.115 40.7399 235.241C39.697 236.367 38.2825 237 36.8076 237C35.3342 236.997 33.922 236.364 32.881 235.238C31.84 234.112 31.2554 232.586 31.2554 230.995C31.2554 229.405 31.8403 227.88 32.8816 226.756C33.9228 225.632 35.335 225 36.8076 225C38.2809 225 39.6941 225.631 40.7368 226.755C41.7794 227.879 42.3664 229.404 42.3688 230.995Z" fill="#73A2E1"/>
<defs>
<linearGradient id="paint0_linear_738_322" x1="39.347" y1="5.35061" x2="39.347" y2="75.3841" gradientUnits="userSpaceOnUse">
<stop stop-color="#F2B3BA"/>
<stop offset="1" stop-color="#73A2E1"/>
</linearGradient>
<clipPath id="clip0_738_322">
<rect width="27.2371" height="42.2" fill="white" transform="translate(24.7725 18)"/>
</clipPath>
</defs>
</svg>
