<svg width="89" height="89" viewBox="0 0 89 89" fill="none" xmlns="http://www.w3.org/2000/svg">
<circle cx="44.0294" cy="44.0294" r="44.0294" fill="#555A60"/>
<path fill-rule="evenodd" clip-rule="evenodd" d="M23.9166 28.3076C23.9475 30.6332 26.8132 32.3235 28.5966 33.1321C35.4117 36.2222 46.5759 36.2222 53.3916 33.1321C56.283 31.8213 58.0716 30.1084 58.0716 28.3063C58.0716 26.5035 56.283 24.7913 53.3916 23.4804C46.576 20.3903 35.4123 20.3903 28.5966 23.4804C26.8711 24.2631 23.8867 26.0217 23.9166 28.3076ZM65.8034 45.0765C65.8034 44.4808 66.2751 43.9971 66.8581 43.9971C67.4401 43.9971 67.9128 44.4799 67.9128 45.0765V56.7755L68.7042 55.5818C69.0296 55.0905 69.6822 54.9623 70.1629 55.2953C70.643 55.6283 70.7683 56.2961 70.4429 56.788L67.7398 60.8647C67.3364 61.5034 66.414 61.5263 65.9891 60.8838L63.2734 56.7881C62.9481 56.2967 63.0738 55.6283 63.5535 55.2953C64.0336 54.9623 64.6867 55.091 65.0121 55.5819L65.8036 56.7756L65.8034 45.0765ZM58.0724 40.4831C57.0874 41.416 55.7887 42.2485 54.2403 42.9508C46.882 46.2863 35.1062 46.2863 27.7484 42.9508C26.2004 42.2494 24.9013 41.417 23.9163 40.484V43.9971C23.9163 45.7998 25.7048 47.5121 28.5963 48.823C35.4118 51.9131 46.5755 51.9131 53.3912 48.823C56.2826 47.5121 58.0712 45.7992 58.0712 43.9971L58.0724 40.4831ZM23.9175 36.1514V32.6383C24.902 33.5712 26.2012 34.4037 27.7496 35.1051C35.1078 38.4407 46.8837 38.4407 54.2415 35.1051C55.7899 34.4037 57.0885 33.5713 58.0736 32.6374V36.1511C58.0736 37.9538 56.285 39.6661 53.3936 40.9769C46.5785 44.067 35.4143 44.067 28.5987 40.9769C25.7058 39.6656 23.9175 37.9536 23.9175 36.1514ZM58.0724 48.3274V51.841C58.0724 53.6438 56.2838 55.356 53.3924 56.6669C46.5769 59.757 35.4131 59.757 28.5975 56.6669C25.706 55.356 23.9175 53.6432 23.9175 51.841V48.3274C24.902 49.2603 26.2012 50.0928 27.7496 50.7951C35.1078 54.1306 46.8837 54.1306 54.2415 50.7951C55.7885 50.0937 57.0878 49.2613 58.0724 48.3274ZM58.0724 56.1732C57.0879 57.1061 55.7887 57.9386 54.2403 58.6409C46.882 61.9764 35.1062 61.9764 27.7484 58.6409C26.2004 57.9395 24.9013 57.1071 23.9163 56.1732V59.6868C23.9163 61.4896 25.7048 63.2018 28.5963 64.5127C35.4118 67.6028 46.5755 67.6028 53.3912 64.5127C56.2826 63.2018 58.0712 61.489 58.0712 59.6868L58.0724 56.1732ZM45.0179 25.2207C45.2886 25.7475 45.0913 26.3981 44.5775 26.6751C44.0628 26.9521 43.427 26.7502 43.1564 26.2244C42.6473 25.2422 41.219 25.0729 40.2566 25.2901C39.8452 25.3829 38.9958 25.69 39.0284 26.2431C39.0668 26.8875 40.6726 27.1483 41.1373 27.2095C42.9942 27.4569 45.3723 28.1654 45.4148 30.493C45.4499 32.3857 43.6187 33.2507 42.0508 33.4894V33.6894C42.0508 34.285 41.5791 34.7687 40.9961 34.7687C40.4141 34.7687 39.9415 34.286 39.9415 33.6894V33.4703C38.5007 33.2201 37.0869 32.4244 36.6228 30.9155C36.4498 30.3476 36.7597 29.7429 37.3147 29.5668C37.8696 29.3898 38.4605 29.707 38.6326 30.2749C38.9102 31.1786 40.3333 31.4264 41.1164 31.4116C41.6498 31.4016 43.3243 31.1456 43.3135 30.528C43.1887 29.6543 41.5656 29.4357 40.8737 29.3434C39.1715 29.1171 37.0518 28.4597 36.927 26.37C36.819 24.5644 38.38 23.4607 39.9415 23.1535V22.9248C39.9415 22.3291 40.4132 21.8455 40.9961 21.8455C41.5782 21.8455 42.0508 22.3282 42.0508 22.9248V23.1468C43.2743 23.3788 44.407 24.0409 45.0179 25.2207Z" fill="#FFAE00"/>
</svg>
