<svg width="89" height="89" viewBox="0 0 89 89" fill="none" xmlns="http://www.w3.org/2000/svg">
<circle cx="44.0294" cy="44.0294" r="44.0294" fill="#595959"/>
<path d="M46.4347 54.4224L46.8726 54.0963L47.2567 53.7257L48.4013 52.4769C48.9164 51.9153 49.5078 51.4935 52.264 50.8465L53.6817 50.8995L53.9576 50.9094C54.5323 50.9308 55.0707 50.8413 55.5669 50.6441C56.049 50.4534 56.4937 50.1561 56.9084 49.7424C57.3306 49.3129 57.6344 48.8517 57.8268 48.3546C58.0211 47.8529 58.1089 47.3056 58.0882 46.7231L58.0269 45.0231C58.0004 44.2683 58.1209 43.5554 58.3877 42.8874C58.6644 42.212 59.08 41.6125 59.6337 41.0903L60.8626 39.9332C61.2848 39.5357 61.6046 39.0856 61.8159 38.5935C62.0269 38.1037 62.1336 37.5608 62.1336 36.9738C62.1336 36.3861 62.0265 35.8429 61.8159 35.353C61.6047 34.8606 61.2848 34.4108 60.8626 34.0133L59.6337 32.8563C59.0797 32.334 58.6636 31.7353 58.3931 31.0738C58.1227 30.4106 57.9985 29.6893 58.0261 28.9234L58.0874 27.2235C58.1085 26.6416 58.0203 26.0944 57.8257 25.592C57.634 25.094 57.3302 24.6329 56.9214 24.2192C56.5155 23.8048 56.0595 23.4975 55.5665 23.3014C55.071 23.1045 54.5326 23.0154 53.9578 23.0364L52.2817 23.0986C51.5368 23.1254 50.8335 23.0032 50.175 22.7327C49.5081 22.4523 48.9167 22.0309 48.4015 21.4697L47.2602 20.2238C46.8674 19.7951 46.4234 19.4712 45.9379 19.2573C45.4555 19.0435 44.9192 18.9353 44.3402 18.9353C43.7612 18.9353 43.225 19.0439 42.7425 19.2573C42.2568 19.4712 41.8132 19.795 41.4203 20.2238L40.2789 21.4697C39.7718 22.0232 39.1898 22.4412 38.5331 22.7217C37.868 23.0022 37.1554 23.1273 36.3988 23.0993L34.7226 23.0371C34.1479 23.0158 33.6095 23.1052 33.114 23.3025C32.6315 23.4938 32.1864 23.7905 31.7721 24.2042C31.3499 24.6337 31.046 25.0948 30.8536 25.5927C30.6594 26.0951 30.5716 26.6409 30.5923 27.2236L30.6536 28.9235C30.6801 29.6784 30.5596 30.3912 30.2927 31.0592C30.0161 31.7346 29.6004 32.3341 29.0468 32.8563L27.8179 34.0134C27.3957 34.4109 27.0758 34.861 26.8645 35.3531C26.6536 35.843 26.5469 36.3862 26.5469 36.9739C26.5469 37.561 26.654 38.1038 26.8645 38.5936C27.0758 39.0861 27.3957 39.5358 27.8179 39.9333L29.0468 41.0904C29.6008 41.6126 30.0169 42.2121 30.2874 42.8728C30.5578 43.5371 30.682 44.2581 30.6544 45.0232L30.593 46.7232C30.572 47.305 30.6602 47.853 30.8548 48.3547C31.0465 48.8526 31.3503 49.3138 31.7591 49.7282C32.165 50.1418 32.621 50.4491 33.1147 50.6453C33.6103 50.8429 34.1486 50.9313 34.723 50.9103L35.0076 50.8996L36.3992 50.8477C37.1441 50.8209 37.8474 50.943 38.5059 51.2136C39.1728 51.494 39.7642 51.9154 40.2794 52.4766L41.9976 54.2494L42.0898 54.3168L42.1998 54.3922C42.3773 54.5111 42.5581 54.6123 42.7433 54.6889C43.2258 54.9027 43.762 55.0109 44.341 55.0109C44.92 55.0109 45.4562 54.9023 45.9387 54.6889C46.1097 54.6141 46.2763 54.5251 46.436 54.422L46.4347 54.4224ZM47.8085 54.6874C47.6567 54.8368 47.4981 54.9733 47.334 55.0988L50.5592 69.0581L53.5121 62.789C53.6417 62.5229 53.9601 62.4143 54.2226 62.5453L60.0526 65.4676L53.3164 51.9605L49.1862 53.1975L47.8081 54.687L47.8085 54.6874ZM41.3441 55.0974C41.2697 55.0407 41.1971 54.9822 41.1241 54.9192L40.6471 54.4581L39.5017 53.2086C39.0922 52.7618 38.6246 52.4276 38.1008 52.2079C37.5838 51.9955 37.028 51.9006 36.4355 51.9212L35.3616 51.9617L28.6269 65.4668L34.4555 62.5435C34.718 62.4125 35.0363 62.5211 35.1659 62.7872L38.1189 69.0552L41.3437 55.0978L41.3441 55.0974ZM33.712 36.9737C33.712 34 34.9027 31.307 36.8243 29.3571C38.7502 27.4066 41.4062 26.1993 44.3399 26.1993C47.2732 26.1993 49.9297 27.4065 51.853 29.3545C53.7771 31.307 54.9679 33.9995 54.9679 36.9736C54.9679 39.9488 53.7779 42.6413 51.8549 44.5913C49.9326 46.5393 47.2752 47.7464 44.34 47.7464C41.4048 47.7464 38.7474 46.5393 36.8251 44.5913C34.9024 42.6414 33.7121 39.9485 33.7121 36.9736L33.712 36.9737ZM37.5754 30.1164C35.8463 31.8705 34.7753 34.2955 34.7753 36.9737C34.7753 39.65 35.8466 42.0743 37.5772 43.8288C39.307 45.5824 41.6988 46.6686 44.3395 46.6686C46.9803 46.6686 49.3723 45.5825 51.1019 43.8288C52.8321 42.0747 53.9038 39.6504 53.9038 36.9737C53.9038 34.2951 52.8329 31.8705 51.1037 30.1164C49.3734 28.3635 46.9814 27.2778 44.3395 27.2778C41.6973 27.2778 39.3056 28.3634 37.5754 30.1164Z" fill="#FFAE00"/>
</svg>
