<svg width="89" height="89" viewBox="0 0 89 89" fill="none" xmlns="http://www.w3.org/2000/svg">
<circle cx="44.0294" cy="44.0294" r="44.0294" fill="#555A60"/>
<path d="M68.4692 42.5413L62.2619 41.6925L59.5161 35.2657C58.7999 33.5076 57.1288 32.4764 55.159 32.4764H48.1156L48.4141 30.3541C48.5336 29.5658 47.9961 28.9597 47.2204 28.9597H26.1506C25.3746 28.9597 24.718 29.5662 24.5989 30.3541L24.1808 33.3857H29.5525C30.1496 33.3857 30.6867 33.8708 30.6867 34.5378C30.6867 35.2047 30.2092 35.6899 29.5525 35.6899H19.6447C18.9881 35.6899 18.5105 36.175 18.5105 36.842C18.5105 37.5089 18.988 37.9941 19.6447 37.9941H31.821C32.418 37.9941 32.9552 38.4792 32.9552 39.1462C32.9552 39.8131 32.4181 40.2983 31.821 40.2983L14.6906 40.2978C14.0935 40.2978 13.5564 40.7829 13.5564 41.4499C13.5564 42.0564 14.0935 42.602 14.6906 42.602H28.001C28.6576 42.602 29.1351 43.0871 29.1351 43.7541C29.1351 44.3606 28.6576 44.9062 28.001 44.9062H17.0184C16.4214 44.9062 15.8842 45.3913 15.8842 46.0583C15.8842 46.6648 16.3618 47.2104 17.0184 47.2104H22.271L21.495 52.728C21.3755 53.3949 21.853 53.9405 22.5096 53.9405H24.8374C24.6584 56.7901 26.6877 59.0334 29.5526 59.0334C32.4175 59.0334 35.0438 56.7901 35.7004 53.9405H54.5021C54.3231 56.7901 56.3523 59.0334 59.2172 59.0334C62.0821 59.0334 64.7085 56.7901 65.3651 53.9405H66.6187C67.9319 53.9405 69.1851 52.8493 69.3646 51.4545L70.2597 45.0277C70.3796 43.7542 69.6631 42.7236 68.4694 42.5417L68.4692 42.5413ZM33.1937 53.4549C32.9551 55.092 31.5225 56.365 29.9108 56.365C28.2991 56.365 27.2249 55.0312 27.4635 53.4549C27.702 51.8177 29.1347 50.5447 30.7464 50.5447C32.3581 50.5443 33.4327 51.8177 33.1937 53.4549ZM50.0257 41.5105C49.9062 41.5105 49.7871 41.3892 49.7871 41.2682L50.5033 36.1753C50.5033 36.0539 50.6227 35.933 50.8018 35.933H54.7413C55.4574 35.933 56.114 36.3576 56.4125 37.0241L58.2033 41.2078C58.2628 41.3896 58.1437 41.5715 57.9647 41.5715L50.0258 41.5711L50.0257 41.5105ZM62.8586 53.4549C62.62 55.092 61.1873 56.365 59.5756 56.365C57.964 56.365 56.8898 55.0312 57.1283 53.4549C57.3669 51.8177 58.7996 50.5447 60.4113 50.5447C61.9634 50.5443 63.0975 51.8177 62.8586 53.4549Z" fill="#FFAE00"/>
</svg>
