<svg width="89" height="89" viewBox="0 0 89 89" fill="none" xmlns="http://www.w3.org/2000/svg">
<circle cx="44.4067" cy="44.4067" r="44.4067" fill="#555A60"/>
<circle cx="44.4067" cy="44.4067" r="44.4067" fill="#555A60"/>
<circle cx="44.4067" cy="44.4067" r="44.4067" fill="#555A60"/>
<path d="M48.4637 49.5383H30.8247V44.1499H48.3025C49.7302 44.1499 50.8662 43.9273 51.7105 43.4821C52.5702 43.0369 53.1919 42.4228 53.5757 41.6399C53.9595 40.8416 54.1514 39.9359 54.1514 38.9227C54.1514 37.9248 53.9442 37.0114 53.5297 36.1824C53.1305 35.3381 52.5088 34.6626 51.6645 34.156C50.8355 33.6341 49.7762 33.3731 48.4867 33.3731H42.3844V61.4895H35.4762V27.9617H48.4637C51.1041 27.9617 53.3608 28.4299 55.2337 29.3663C57.122 30.3028 58.5727 31.5923 59.5859 33.2349C60.5991 34.8775 61.1057 36.7581 61.1057 38.8766C61.1057 41.1026 60.5837 43.0139 59.5398 44.6104C58.5113 46.207 57.0529 47.4275 55.1646 48.2718C53.2917 49.1161 51.0581 49.5383 48.4637 49.5383ZM49.7302 51.4265V56.8149H30.8247V51.4265H49.7302Z" fill="#FFAE00"/>
</svg>
