<svg width="89" height="89" viewBox="0 0 89 89" fill="none" xmlns="http://www.w3.org/2000/svg">
<circle cx="44.4067" cy="44.4067" r="44.4067" fill="#555A60"/>
<path d="M68.1817 39.3152H67.5629C65.7066 41.7942 63.0547 43.5649 59.9609 44.4502C59.3421 44.6273 58.8117 44.7158 58.193 44.8044C58.193 46.4865 57.8394 48.0802 57.309 49.6738C57.1322 50.2935 56.867 50.9133 56.5135 51.533C54.9223 54.7203 52.3589 57.2878 49.265 58.7929L47.4087 59.5897C45.8176 60.1209 44.0497 60.3865 42.2818 60.3865C40.5139 60.3865 38.746 60.1209 37.1548 59.5012C37.0664 59.5012 36.978 59.4126 36.8897 59.4126L32.0279 64.2821C33.2654 64.9018 34.5914 65.433 36.0057 65.8757C36.6245 66.0528 37.0664 66.6725 37.0664 67.3808V70.391C37.0664 71.2763 37.7736 71.8961 38.5692 71.8961H45.8176C46.7016 71.8961 47.3203 71.1878 47.3203 70.391V67.3808C47.3203 66.6725 47.7623 66.1413 48.3811 65.8757C49.9722 65.433 51.4749 64.8133 52.8892 64.0165C53.508 63.6623 54.2152 63.8394 54.6572 64.2821L56.7786 66.4069C57.3974 67.0267 58.3698 67.0267 58.9001 66.4069L64.0271 61.2719C64.6458 60.6521 64.6458 59.6783 64.0271 59.147L61.9056 57.0222C61.4636 56.5795 61.2868 55.7827 61.6404 55.2515C62.436 53.8349 63.0547 52.3299 63.4967 50.7362C63.6735 50.1165 64.2923 49.6738 64.9994 49.6738H68.0933C68.9772 49.6738 69.596 48.9655 69.596 48.1687V40.9088C69.7728 39.935 69.0656 39.3152 68.1817 39.3152ZM59.4305 22.7597L55.4527 26.7438L56.7786 29.931L59.9609 31.259L63.9387 27.275L59.4305 22.7597ZM45.9055 16.9164H38.6571C37.8615 16.9164 37.1543 17.6247 37.1543 18.4215V21.5202C37.1543 22.2285 36.7124 22.7597 36.0936 22.9368C34.5025 23.3794 32.9997 23.9992 31.5854 24.796C30.9666 25.1501 30.2595 24.9731 29.8175 24.5304L27.696 22.4055C27.0772 21.7858 26.1049 21.7858 25.5745 22.4055L20.4476 27.5406C19.8288 28.1603 19.8288 29.1342 20.4476 29.6654L22.5691 31.7903C23.0111 32.2329 23.1878 33.0297 22.8343 33.561C22.0387 34.9775 21.4199 36.4826 20.978 38.0762C20.8012 38.696 20.1824 39.1387 19.5636 39.1387H16.3814C15.5858 39.1387 14.8787 39.8469 14.8787 40.6437V47.9036C14.8787 48.789 15.5858 49.4087 16.3814 49.4087H19.4752C20.1824 49.4087 20.7128 49.8514 20.8896 50.4711C21.3315 51.8877 21.8619 53.2157 22.4807 54.4552L27.3424 49.5858C27.3424 49.4972 27.254 49.4087 27.254 49.3202C26.6353 47.9921 26.3701 46.2214 26.3701 44.4507C26.3701 42.68 26.6353 40.9094 27.254 39.3157C27.4308 38.696 27.696 38.0762 28.0496 37.4565C29.6407 34.2692 32.2042 31.7017 35.298 30.1966L37.1543 29.3998C38.6571 28.8686 40.3366 28.603 42.0161 28.5145C42.1045 27.9832 42.1929 27.3635 42.3697 26.8323V26.7438C43.1652 23.645 45.0215 20.989 47.4966 19.0412V18.51C47.4082 17.6247 46.7894 16.9164 45.9055 16.9164Z" fill="#FFAE00"/>
<path d="M67.3858 33.4714L68.8001 28.1593C68.8885 27.8937 68.8001 27.7166 68.6233 27.5395C68.3581 27.2739 67.9162 27.2739 67.651 27.5395L60.5793 34.6223L54.6568 32.0548L52.0934 26.0344L59.165 18.9516C59.4302 18.686 59.4302 18.2434 59.165 17.9777C58.9882 17.8892 58.723 17.8007 58.5462 17.8892L53.2425 19.3058C49.2647 20.3682 46.0825 23.5554 45.0217 27.5395C44.3146 30.1956 44.5798 32.9402 45.7289 35.4191L23.1885 57.907C21.2438 57.6414 19.1223 58.2611 17.6196 59.7662C15.0562 62.3338 15.0562 66.4949 17.6196 69.1509C20.1831 71.7185 24.3377 71.7185 26.9895 69.1509C28.4923 67.6458 29.111 65.521 28.8459 63.5732L51.2983 41.0854C53.685 42.2363 56.5137 42.5019 59.1655 41.7936C63.2317 40.6427 66.3256 37.4554 67.3863 33.4714H67.3858ZM20.0947 66.6715C18.8572 65.432 18.8572 63.3957 20.0947 62.2447C21.3322 61.0052 23.3653 61.0052 24.5145 62.2447C25.6636 63.4842 25.752 65.5205 24.5145 66.6715C23.2769 67.9109 21.3322 67.9109 20.0947 66.6715Z" fill="#FFAE00"/>
</svg>
