<svg width="43" height="43" viewBox="0 0 43 43" fill="none" xmlns="http://www.w3.org/2000/svg">
<path d="M16.3807 22.7798L20.22 26.6191L26.6188 17.6607M36.8569 21.5C36.8569 23.6642 35.7825 25.5774 34.1381 26.7354C34.4818 28.7168 33.8886 30.829 32.3585 32.3591C30.8284 33.8892 28.7162 34.4824 26.7348 34.1387C25.5768 35.783 23.6637 36.8572 21.4997 36.8572C19.3358 36.8572 17.4228 35.783 16.2647 34.1389C14.283 34.4829 12.1704 33.8898 10.64 32.3595C9.10968 30.8291 8.51653 28.7165 8.86055 26.7348C7.21657 25.5767 6.14258 23.6638 6.14258 21.5C6.14258 19.3362 7.21666 17.4232 8.86075 16.2651C8.51691 14.2835 9.11009 12.1711 10.6403 10.6409C12.1705 9.11072 14.2829 8.51754 16.2645 8.86141C17.4226 7.21712 19.3357 6.14288 21.4997 6.14288C23.6636 6.14288 25.5767 7.21703 26.7348 8.86121C28.7165 8.51718 30.8291 9.11032 32.3594 10.6407C33.8897 12.171 34.4829 14.2836 34.1389 16.2652C35.7829 17.4233 36.8569 19.3363 36.8569 21.5Z" stroke="#A3C1E7" stroke-linecap="round" stroke-linejoin="round"/>
<path d="M1 43V0H-1V43H1Z" fill="#A3C1E7" mask="url(#path-1-inside-1_210_425)"/>
</svg>
