<svg width="36" height="35" viewBox="0 0 36 35" fill="none" xmlns="http://www.w3.org/2000/svg">
<g clip-path="url(#clip0_8_86)">
<path d="M17.8271 0H17.8184C8.16932 0 0.322754 7.84875 0.322754 17.5C0.322754 21.3281 1.5565 24.8762 3.65432 27.7572L1.47338 34.2584L8.19994 32.1081C10.9671 33.9412 14.2681 35 17.8271 35C27.4762 35 35.3228 27.1491 35.3228 17.5C35.3228 7.85094 27.4762 0 17.8271 0ZM28.0099 24.7122C27.5878 25.9044 25.9121 26.8931 24.5756 27.1819C23.6612 27.3766 22.4668 27.5319 18.4462 25.865C13.3034 23.7344 9.9915 18.5084 9.73338 18.1694C9.48619 17.8303 7.65525 15.4022 7.65525 12.8909C7.65525 10.3797 8.93057 9.15688 9.44463 8.63188C9.86682 8.20094 10.5646 8.00406 11.234 8.00406C11.4506 8.00406 11.6453 8.015 11.8203 8.02375C12.3343 8.04562 12.5924 8.07625 12.9315 8.88781C13.3537 9.905 14.3818 12.4163 14.5043 12.6744C14.629 12.9325 14.7537 13.2825 14.5787 13.6216C14.4146 13.9716 14.2703 14.1269 14.0121 14.4244C13.754 14.7219 13.509 14.9494 13.2509 15.2688C13.0146 15.5466 12.7478 15.8441 13.0453 16.3581C13.3428 16.8612 14.3709 18.5391 15.8846 19.8866C17.8381 21.6256 19.4218 22.1812 19.9884 22.4175C20.4106 22.5925 20.9137 22.5509 21.2221 22.2228C21.6137 21.8006 22.0971 21.1006 22.5893 20.4116C22.9393 19.9172 23.3812 19.8559 23.8449 20.0309C24.3174 20.195 26.8178 21.4309 27.3318 21.6869C27.8459 21.945 28.1849 22.0675 28.3096 22.2841C28.4321 22.5006 28.4321 23.5178 28.0099 24.7122Z" fill="#F2A90A"/>
</g>
<defs>
<clipPath id="clip0_8_86">
<rect width="35" height="35" fill="white" transform="translate(0.322754)"/>
</clipPath>
</defs>
</svg>
